<svg width="231" height="212" viewBox="0 0 231 212.145" fill="none" xmlns="http://www.w3.org/2000/svg">
<path d="M173.411 186.675H173.494V186.634L173.432 186.675H173.411ZM62.8225 157.345L62.9056 156.846L62.8433 157.345H62.8225ZM62.8225 156.826H62.8848L62.9264 156.597L62.8225 156.826ZM63.321 131.646L63.2794 131.376L63.1548 131.21L63.321 131.646ZM88.8445 39.4399L88.0761 39.1493H86.9131L88.8445 39.4399ZM70.5897 141.319L74.8886 147.173L74.4317 147.256L70.5897 141.319ZM129.84 0.145305L113.247 5.2725L113.434 17.3743L112.727 17.6857L114.451 21.2145L114.119 21.3598L114.721 21.7127L86.5809 38.5889L88.0554 39.1493H93.4758L80.6205 44.2973L80.7659 44.0067L65.0239 41.9516L65.2108 42.8027L64.7124 43.031L64.6709 41.9931L63.9024 42.2422L62.3656 33.69L50.528 32.9842L54.5154 42.6989V42.2422L54.9931 42.6366L54.6193 42.6989L55.5746 43.7991H55.2631L57.236 45.2936V45.3974L56.4468 45.3352L56.7999 47.3487L56.9037 47.2241L57.0491 50.3793L57.2983 49.9434L57.6929 50.0264L57.2152 51.9569L57.4852 52.1437L57.0698 56.5444L60.8911 59.5958H58.9389L58.9805 59.7411L51.7533 59.2014L52.1687 58.205L48.9912 59.1599L49.1366 59.4297L48.825 59.575H49.012L49.095 59.9487L48.4305 59.8241L48.5758 59.5335L46.8521 59.6996L47.2052 60.4054L46.7067 60.0732L46.2498 61.0073L45.9591 60.1978L45.5022 61.4017L45.0245 59.3882L43.8408 60.177L43.4877 60.011L43.8823 58.4956L41.9924 59.4713L42.034 59.6373L41.9509 59.3052L40.9125 59.3882L40.9748 59.9279L37.3612 62.6057L32.6469 57.5408L32.8546 56.6482L30.9232 55.9632L31.3178 55.0291L30.1756 54.9876L30.0094 54.095L30.321 54.1365L30.1756 53.9082L23.1976 54.6762L23.0938 54.9045H22.8238L22.6992 54.7592L21.9931 55.2574L22.1592 55.5065L21.37 55.8179V56.5236L22.4707 57.1879L21.4116 57.4162L21.1001 58.724L20.5809 58.3503L20.124 58.8278L20.2901 58.6202L20.0409 58.039L17.1542 57.5408L16.5104 58.8485L16.3442 58.6409L16.9257 59.7204L16.5519 59.8241L15.6174 58.9523L15.825 58.7655L14.4544 58.5994L14.3505 57.437L13.0629 57.8729L13.0006 58.3296H12.7514L12.7722 58.4956L10.1139 58.8485L10.4254 59.0769L8.32788 59.4713L8.66016 58.8693L8.07867 58.807L8.01636 58.5787L4.85966 59.8449L4.71429 59.575L4.46507 59.6996L4.25739 59.5335V59.8241L3.82127 59.9487L4.54814 60.5714H3.46822L3.53052 60.3846L3.21901 60.2808L3.13593 61.0281L3.61359 61.4225L3.42668 61.547L2.80365 60.9036L1.49528 61.1734V61.5886L1.14223 61.4433L0.290749 66.1138L0.0623033 66.0307V66.176H0.394588L0.332284 66.778L7.01951 65.3042L7.06104 64.8683L7.4141 65.1589L8.74323 64.4116L5.89805 66.9856L6.99874 66.612L6.60415 67.0064L7.93329 66.2798L7.68408 66.6327L8.0579 66.3836L8.1202 66.6535L8.63939 66.5082L8.72247 66.2798L9.32473 66.1968L8.01636 67.2139L9.20012 67.0686L9.24166 67.38L10.4462 67.7744L6.56262 68.1688L6.52108 67.7744L4.85966 68.0858L4.79736 67.6499L4.40277 67.8989L3.88357 66.8818L3.46822 68.1896L3.30208 67.9197L3.13593 68.0858L2.86595 68.0443L2.90749 68.6255L4.36123 68.9368L3.86281 69.269L4.04972 70.6182L5.21271 69.1859L9.05475 71.1372L8.47325 72.7355L1.39144 73.3167L1.51605 73.7319L0.976086 73.981L4.40277 74.666L4.54814 74.2093L7.70485 80.0838L11.2561 79.2327L10.8823 79.1082L11.09 78.3194L11.1731 79.0252L11.9207 78.4647L11.0692 77.5721L12.2738 75.7454L12.4399 76.4512L12.7306 76.3266L11.9415 76.8248L13.4575 78.8799L13.4991 78.5477L14.1844 78.5892L14.2882 77.6136L16.2404 78.5477L15.9289 79.0459L18.691 80.0631L18.421 79.212L19.4802 79.5441V79.3158L19.6255 79.5026L20.0617 79.4403L19.0856 80.0008L22.3046 80.9141L22.5538 79.814L24.3191 82.2841L25.1082 81.7444L24.5683 81.4953L25.6274 81.4538L25.129 80.2914L25.669 81.1425L26.4166 80.7896L25.9805 81.7237L25.6897 81.7652L25.4613 82.2841L26.3958 82.3257V82.637L25.5444 82.7616L27.6419 83.5504L28.1819 82.6578H28.4726L28.3065 82.4294L28.7218 82.1804L28.5349 81.35L29.1995 81.5784L28.971 82.1804L29.8641 81.8275L29.6979 82.4502L29.3449 82.1388L28.9503 82.5125H29.3864L28.3272 83.3636L28.5972 83.4673H28.2442L29.4279 87.7642L30.3417 87.9926L29.7602 85.5431L30.1133 85.294L30.321 85.6884L30.9232 85.1902L31.4424 85.6469L31.1517 84.0901L31.9201 85.5846L32.0031 85.128L32.3562 85.8545L32.7923 85.896L32.2731 83.3636L32.5016 83.8202L33.1661 83.1975L32.8754 84.9827L33 84.6713L33.2492 84.7751L33.2907 85.1487L34.2253 84.8166L34.1422 84.3599L35.6375 84.1939L35.4714 83.6749L36.489 84.1316L35.866 84.2769L36.4059 84.7336L37.0497 83.8202L37.922 84.5052H37.4443L37.0912 85.2525L36.8213 85.128L36.4059 86.1659L35.5752 85.9583L35.3883 86.2697L35.0352 85.813V86.2489L34.1422 86.0413L33.9969 85.6677L33.6023 85.7922L33.54 86.2489L38.4204 86.7263L38.1712 86.4357L39.3549 86.1243L38.4619 86.8716H41.141L40.9333 88.4492L41.5563 88.4077L41.9509 89.1965L39.8534 90.2136L41.0579 91.9781H40.3518L42.2001 93.0575L42.2417 92.7669L49.4688 91.6252L49.635 91.9573L46.6029 93.3688L46.5614 95.4239L45.3984 96.1504L48.5966 96.9392L52.9371 111.594L53.1032 111.096L62.1787 116.514L62.0749 116.286L65.19 117.033L63.7986 118.403L63.9648 118.507L63.134 119.628L66.27 123.717L65.4393 123.779L67.433 125.357L65.7923 124.817L64.4839 127.308L66.5607 130.006L64.5255 128.408L63.0925 129.114L63.3833 131.273L66.1454 135.051L63.0094 156.514L64.5047 153.442L66.9968 156.12L65.3354 157.137L63.9855 156.058L59.4997 180.22L53.477 187.381L53.6639 187.61L53.3732 187.859L60.3927 190.225L59.2712 193.941L61.0365 195.622L62.2203 193.484L62.0957 194.75L97.1724 204.091V200.147L111.087 205.876L111.44 204.901L116.445 206.52L116.009 207.08L132.623 212.062L132.478 211.232L141.262 209.8L138.272 197.345L138.459 197.22L138.999 197.698L158.417 183.188L158.541 183.769L158.25 183.935L166.828 186.239L166.205 186.987L171.313 188.128L172.186 186.987L171.521 187.61L171.147 187.07L171.106 187.215L170.981 186.925L173.328 186.032L173.577 186.53L174.782 185.741L174.179 182.856L177.855 185.305L173.598 186.551L174.512 188.315L179.683 187.776L179.89 190.889L181.739 191.429L181.677 191.263L185.789 192.031L186.038 192.695L187.45 193.027L187.408 193.484L188.198 193.692V194.771L189.028 195.186L189.631 194.46L190.669 194.626L189.714 194.294L189.88 194.003L189.568 193.567L190.295 193.463L190.233 193.816L191.853 194.127L191.811 194.418L193.722 194.48L193.286 195.664L194.532 195.581L194.241 194.397L201.904 191.782L202.527 192.425L203.96 189.831H202.61L205.082 186.011L206.66 186.364L206.806 185.824L207.034 185.97L211.333 182.607V183.043L213.617 179.41L214.573 179.576L214.843 179.203L215.009 179.805L215.3 179.555L215.071 179.203L221.924 170.131L207.221 163.219L210.378 154.854L203.067 144.848L212.413 137.749L205.746 127.723L210.004 124.713L207.948 121.6L206.972 121.911L206.66 120.209L205.289 119.939L206.619 116.472L205.061 114.729L205.809 113.462L195.196 115.87L195.57 116.908L196.525 117.033L191.375 119.918L206.66 95.237L206.432 95.071L210.17 91.0855L209.692 90.1929L206.972 90.4212L208.965 87.1207L216.982 87.8888L217.023 87.5774L216.629 87.5151L230.979 51.2719L218.041 47.4317L218.186 46.9543L217.127 46.7674L217.189 46.5599L206.868 45.3974L206.515 46.5806L204.189 46.1447L204.313 45.3767L203.773 45.4597L201.78 42.0347L202.174 41.8686L201.136 40.9137L201.344 40.4778L191.084 39.4814L190.773 38.7757L189.008 38.5266L188.634 37.551L188.301 37.6548L187.471 37.032L182.237 38.7134L181.531 38.1737L182.092 37.8208L181.656 37.3849L181.863 37.0113L180.036 35.3921L179.351 35.8903L176.547 33.2748L176.318 33.4617L171.189 31.4897L171.23 27.9816L170.275 27.5042L170.96 24.0168L171.459 24.1829L171.542 22.6468L159.497 27.4419L158.873 25.1585L160.016 24.7434L158.707 21.2145L159.767 19.9068L158.707 19.6784L158.998 20.0313L150.816 18.7028L149.03 14.4267L147.077 14.6135L147.306 13.7417L143.318 13.5756L140.722 7.18222L136.486 9.38255L129.819 0L129.84 0.145305Z" fill="#009AA9"/>
</svg>
