<svg width="125" height="246" viewBox="0 0 125.051 246.034" fill="none" xmlns="http://www.w3.org/2000/svg">
<path d="M117.007 24.8071L116.145 24.083L115.317 22.1125L115.587 19.199L113.965 17.2791L114.286 17.0602L114.185 16.3865L112.208 14.0288L111.802 13.8603L111.346 15.1908L110.366 12.8499L109.031 11.9068L109.183 9.38057L109.538 9.17847L108.676 7.05648L107.172 7.29226L106.259 4.9008L105.127 5.9618L104.654 5.11974L103.42 4.64818L103.454 3.67139L104.671 4.07558L104.958 3.35141L106.158 4.36188L105.482 1.8357L103.285 0L103.049 0.825221L102.508 1.41466L102.998 1.73465L103.251 2.42514L102.068 1.49887L101.173 2.05463L102.035 2.37461L102.829 3.09879L101.68 5.17026L100.463 5.52393L100.193 5.99548L99.8885 5.9618L99.2463 6.5344L97.7592 9.49846L95.8666 7.94906L94.954 8.25221V8.60587L95.4441 8.42062L95.6131 8.9427L96.4918 9.90265L96.6439 10.8794L97.455 10.6605L98.3845 17.2454L96.1369 22.0452L96.5932 23.1399L96.289 23.5946L96.0356 25.1103L94.954 26.2555L93.7035 26.7102L90.8307 25.2282L91.3546 28.007L90.5773 27.6533V27.9733L87.8735 28.6301L88.2283 29.6743L87.62 32.8909L84.6796 29.388L83.7164 29.4385L82.8376 27.9396L82.9221 28.4449L82.5673 28.9838L81.8575 28.6638L82.1279 28.0743L81.5533 28.327L80.6746 29.2364L80.8267 31.2742L80.2859 31.5436L80.0831 33.4804L82.5504 35.9897L81.7392 36.6634L81.114 36.8486L82.7869 37.8928L82.1279 41.9515L82.3983 39.5264L80.4042 38.4654L80.945 41.2779L79.0354 40.8232L78.7143 40.52L78.3933 40.7558L77.3624 42.7599L77.5483 47.0544L78.8326 46.6334L81.6885 47.7449L81.8913 50.5406L80.607 48.2333L80.8267 49.5301L80.6408 49.4964L79.1537 47.9807L77.6835 48.2838L72.7998 56.4181L72.1238 53.9762L73.4926 51.7363L73.0026 49.2775L72.1745 49.2438L70.6029 52.5783L71.3972 52.5447L71.1099 52.9657L70.3495 53.1173L65.8037 58.2202L66.6486 60.258L68.9469 62.2957L64.1983 64.8556L66.1248 60.8137L64.1983 58.3549L56.07 64.5019L53.0283 69.689L55.2589 71.1542L54.7688 71.2384L53.6535 72.0805L53.4845 72.6363L51.5074 69.7733L52.0481 68.2407L49.0739 69.167L48.5501 69.9753L49.1246 70.5143L47.9924 70.2111L46.7926 68.9649L42.1624 68.8638L40.8274 72.872L41.1146 73.512L40.9794 73.8152L40.1852 73.3604L40.1514 71.9289L36.552 72.5352L37.2955 73.3436L36.4168 74.2362L35.0311 72.451L33.206 72.5015L27.866 76.9476L23.9624 76.2234L20.1433 79.0528L21.2417 82.3537L20.4813 82.6063L16.0876 92.9636L15.6651 92.6942L12.0488 100.071L17.7775 126.427L17.3381 126.09L21.4952 137.054L20.4137 140.119L21.0558 141.972L20.6503 145.912L9.07462 168.042L4.56266 168.817L4.25848 175.604L3.76842 175.014L1.92646 177.321L1.89266 179.797L1.2843 178.904L0.659051 179.763L0.81114 180.471L0.422469 181.178L0.354874 184.563L1.18291 184.445L0 185.338L2.06165 196.15L6.42152 200.899L6.96228 205.733L7.35095 205.8L8.83804 207.231L8.63526 208.596L7.48614 210.28L15.5468 236.67L19.0449 238.506L18.859 238.32L33.1891 246.034L63.6407 236.417L63.3365 236.148L64.6377 236.198L65.0602 235.878L65.3136 235.979L67.0204 235.003L67.0711 233.537H67.5781L73.1547 218.465L72.6815 218.044L107.797 101.098L107.594 100.441L107.713 99.5317L106.749 97.7297L109.267 90.8753L114.083 87.9618L112.596 85.3009L114.54 80.6864L114.016 79.8948L114.388 76.4424L112.089 74.994L110.754 64.0135L113.712 62.5315L117.176 70.3459L119.44 72.6026L121.755 70.5985L122.279 69.5543L122.651 69.2512L125.051 61.2011L117.074 24.824L117.007 24.8071ZM6.97918 180.74L6.50602 179.999L7.23266 179.107L8.26348 180.622L6.97918 180.74ZM8.71975 184.967L9.05772 184.681L9.32811 185.405L8.71975 184.967ZM45.4576 76.2403L44.3761 76.0887L43.6326 75.533L45.5759 75.2298L45.4745 76.2403H45.4576ZM60.9538 128.768L61.089 127.791L62.1874 128.414L60.9707 128.768H60.9538ZM91.5743 100.458L91.1011 101.671L90.3576 102.226L91.9292 97.7634L92.7572 98.4202L91.4729 99.7675L91.5574 100.475L91.5743 100.458ZM103.234 6.11337L103.032 5.84391L103.268 4.93448L103.589 5.7597L103.234 6.11337Z" fill="#009AA9"/>
</svg>
