<svg preserveAspectRatio="none" width="100%" height="100%" overflow="visible" style="display: block;" viewBox="0 0 146 146" fill="none" xmlns="http://www.w3.org/2000/svg">
<g id="Labelissation_ecolabel_rep_fr" clip-path="url(#clip0_0_606)">
<g id="Group">
<path id="Vector" d="M73 0C32.6789 0 0 32.6846 0 73C0 113.315 32.6789 146 73 146C113.321 146 146 113.321 146 73C146 32.6789 113.315 0 73 0Z" fill="var(--fill-0, #203C8A)"/>
<path id="Vector_2" d="M73 2.9067C34.2841 2.9067 2.90097 34.2899 2.90097 73C2.90097 111.71 34.2841 143.093 72.9943 143.093C111.704 143.093 143.088 111.71 143.088 73C143.088 34.2899 111.71 2.9067 73 2.9067Z" fill="var(--fill-0, white)"/>
<path id="Vector_3" d="M73 18.3174C42.7978 18.3174 18.3174 42.7978 18.3174 73C18.3174 103.202 42.7978 127.683 73 127.683C103.202 127.683 127.683 103.202 127.683 73C127.683 42.7978 103.196 18.3174 73 18.3174Z" fill="var(--fill-0, #B6CBD8)"/>
<path id="Vector_4" d="M73 22.1528C44.9191 22.1528 22.1528 44.9191 22.1528 73C22.1528 101.081 44.9191 123.847 73 123.847C101.081 123.847 123.853 101.081 123.853 73C123.853 44.9191 101.087 22.1528 73 22.1528Z" fill="var(--fill-0, #203C8A)"/>
<path id="Vector_5" d="M60.6222 66.0973C65.6387 65.954 69.09 65.6673 74.0377 65.7132L86.2837 65.3635L85.9683 54.3788L89.5344 51.7759L105.163 50.4L105.237 53.0372L102.944 55.319L103.093 60.5304L119.393 59.5329C120.092 59.487 120.235 59.9342 120.012 60.5362C118.917 63.5059 117.919 66.3152 116.394 68.7174C115.012 71.2113 113.396 72.8509 110.93 74.9435C105.593 78.8134 100.548 81.3245 92.0283 81.8806C83.5834 82.431 74.8289 82.7635 67.2841 81.8348C64.2226 75.2703 63.2651 76.7495 60.6222 66.103M101.476 53.8341L95.1987 54.0119L95.3764 60.1864L101.654 60.0087L101.476 53.8341Z" fill="var(--fill-0, #A1DAF8)"/>
<path id="Vector_6" d="M112.278 91.3002C109.921 95.8637 100.978 97.9277 96.5918 98.1513C82.3393 98.8851 75.9411 92.3608 64.1251 86.0658C63.7238 85.8537 63.1734 85.6014 62.8696 85.4868C62.8466 85.4524 62.818 85.418 62.7893 85.3778L62.732 85.4352C62.5542 85.3836 62.5829 85.4352 63.0415 85.6932L63.1218 85.7276C69.9901 90.916 77.9936 99.0055 85.5785 101.626C94.0922 104.567 111.257 102.675 116.136 93.1118L112.278 91.2944V91.3002Z" fill="var(--fill-0, #40AEE3)"/>
<path id="Vector_7" d="M112.215 91.2543C109.48 87.115 100.422 86.5302 96.0415 87.029C81.829 88.6457 76.0443 96.1733 64.8647 104.372C64.4863 104.647 63.9646 104.991 63.6665 105.151C63.6435 105.186 63.6206 105.226 63.5977 105.272L63.5403 105.226C63.3683 105.306 63.3913 105.249 63.8213 104.916L63.9015 104.87C70.2653 98.5927 77.5062 89.242 84.8045 85.395C92.9972 81.0722 110.208 80.132 115.884 88.8177L112.209 91.26L112.215 91.2543Z" fill="var(--fill-0, #40AEE3)"/>
<path id="Vector_8" d="M106.126 89.4426C105.088 89.5344 104.291 90.5377 104.343 91.6843C104.395 92.8309 105.283 93.6851 106.321 93.5991C107.359 93.5074 108.156 92.5041 108.104 91.3575C108.047 90.2109 107.164 89.3566 106.126 89.4426Z" fill="var(--fill-0, #40AEE3)"/>
<path id="Vector_9" d="M74.181 72.3292C71.7559 77.0304 62.5428 79.1574 58.0193 79.3924C43.331 80.1492 36.7437 73.43 24.5665 66.9401C24.1537 66.7222 23.5918 66.4642 23.2708 66.3381C23.2479 66.3037 23.2192 66.2693 23.1905 66.2292L23.1332 66.2865C22.9497 66.2292 22.9784 66.2865 23.4485 66.556L23.5345 66.5904C30.6149 71.9336 38.8592 80.2696 46.6734 82.9699C55.4394 86.0027 73.1319 84.0535 78.1541 74.204L74.1753 72.3292H74.181Z" fill="var(--fill-0, #2694D1)"/>
<path id="Vector_10" d="M74.118 72.2834C71.2973 68.0179 61.9637 67.4159 57.4575 67.9319C42.815 69.6002 36.8583 77.3572 25.3347 85.7964C24.9449 86.083 24.406 86.4327 24.1021 86.6047C24.0792 86.6449 24.0562 86.685 24.0276 86.7309L23.9702 86.6793C23.7925 86.7653 23.8154 86.7022 24.2626 86.3582L24.3429 86.3066C30.9016 79.8396 38.3547 70.208 45.8823 66.2406C54.3214 61.7917 72.054 60.8171 77.9018 69.7665L74.118 72.2834Z" fill="var(--fill-0, #2694D1)"/>
<path id="Vector_11" d="M67.8516 70.4144C66.7795 70.5061 65.9597 71.538 66.017 72.7191C66.0744 73.9001 66.9859 74.783 68.058 74.6913C69.1301 74.5995 69.95 73.5676 69.8926 72.3866C69.8353 71.2055 68.9237 70.3226 67.8516 70.4144Z" fill="var(--fill-0, #2694D1)"/>
<path id="Vector_12" d="M85.7505 108.763C84.214 111.733 78.3891 113.08 75.5283 113.229C66.2406 113.705 62.0726 109.457 54.373 105.358C54.1151 105.22 53.7539 105.054 53.5532 104.979C53.536 104.956 53.5188 104.934 53.5016 104.911L53.4672 104.951C53.3525 104.916 53.3697 104.951 53.6679 105.123L53.7195 105.146C58.197 108.522 63.4085 113.797 68.3504 115.505C73.8944 117.42 85.0797 116.188 88.2616 109.962L85.7448 108.775L85.7505 108.763Z" fill="var(--fill-0, #2D9BD4)"/>
<path id="Vector_13" d="M85.7104 108.735C83.9273 106.04 78.028 105.656 75.1728 105.983C65.9138 107.038 62.1472 111.939 54.8604 117.277C54.6138 117.46 54.2756 117.678 54.0807 117.787C54.0635 117.81 54.052 117.839 54.0348 117.868L53.9947 117.839C53.88 117.89 53.8972 117.856 54.1781 117.632L54.2297 117.604C58.3805 113.516 63.0931 107.422 67.8516 104.916C73.1892 102.101 84.4032 101.488 88.1011 107.147L85.7104 108.74V108.735Z" fill="var(--fill-0, #2D9BD4)"/>
<path id="Vector_14" d="M81.743 107.554C81.0665 107.611 80.5448 108.265 80.5792 109.01C80.6136 109.755 81.1926 110.317 81.8692 110.26C82.5457 110.202 83.0674 109.549 83.033 108.798C82.9986 108.052 82.4195 107.491 81.743 107.554Z" fill="var(--fill-0, #2D9BD4)"/>
<path id="Vector_15" d="M64.7558 94.0693C63.2193 97.039 57.3944 98.3863 54.5336 98.5354C45.2459 99.0112 41.0779 94.763 33.3783 90.6638C33.1203 90.5262 32.7591 90.3599 32.5585 90.2854C32.5413 90.2625 32.5241 90.2395 32.5069 90.2166L32.4725 90.251C32.3521 90.2166 32.375 90.251 32.6731 90.423L32.7247 90.4459C37.2023 93.8227 42.4137 99.0972 47.3557 100.806C52.8996 102.721 64.085 101.488 67.2611 95.2618L64.7443 94.075L64.7558 94.0693Z" fill="var(--fill-0, #008BD2)"/>
<path id="Vector_16" d="M64.7156 94.0349C62.9326 91.3403 57.0332 90.9562 54.1781 91.283C44.9191 92.3379 41.1524 97.2397 33.8656 102.577C33.6191 102.755 33.2808 102.979 33.0859 103.087C33.0687 103.11 33.0573 103.139 33.0401 103.162L32.9999 103.133C32.8853 103.185 32.9025 103.151 33.1834 102.933L33.235 102.904C37.3858 98.8163 42.0984 92.722 46.8569 90.2109C52.1945 87.3959 63.4085 86.7825 67.1063 92.4411L64.7156 94.0291V94.0349Z" fill="var(--fill-0, #008BD2)"/>
<path id="Vector_17" d="M60.7483 92.8596C60.0718 92.9169 59.5501 93.5705 59.5845 94.3158C59.6189 95.0611 60.1979 95.6229 60.8744 95.5599C61.5509 95.5026 62.0726 94.849 62.0382 94.1037C62.0038 93.3584 61.4248 92.7965 60.7483 92.8596Z" fill="var(--fill-0, #008BD2)"/>
<path id="Vector_18" d="M58.5697 37.294C56.4198 38.6299 55.3075 39.6905 54.0119 41.5767C48.6686 38.3145 49.1559 38.7388 42.6316 40.5734C47.3213 40.2351 47.1436 39.6389 50.4917 41.462C57.0791 45.0452 52.785 42.7692 58.5697 37.294Z" fill="var(--fill-0, white)"/>
<path id="Vector_19" d="M84.6555 38.6987C82.7177 38.3604 79.5186 40.2638 78.521 42.2704C72.8509 37.3227 67.4217 38.2572 60.9891 41.0435C64.9277 39.9771 66.7394 39.3408 70.8271 40.3727C72.6961 40.8428 78.6529 43.7094 78.7217 43.7209C79.3924 43.8642 80.6537 38.584 84.6555 38.6987Z" fill="var(--fill-0, white)"/>
<path id="Vector_20" d="M67.0605 49.2763L65.8622 51.2198L65.3635 52.0511C62.8868 47.6251 58.3346 44.3917 54.6368 49.2763C56.2363 47.9175 57.5893 47.2754 59.6246 48.3246C65.9998 51.6154 64.2627 57.3829 67.0605 49.2763Z" fill="var(--fill-0, white)"/>
<path id="Vector_21" d="M93.5991 29.6862L90.7383 32.1572L88.3591 34.4963C82.5915 26.3953 72.2662 27.5133 64.2226 31.5781C64.1136 31.6354 64.1194 31.687 64.0735 31.796C64.1136 31.7214 64.1308 31.6584 64.1996 31.624C68.167 29.6346 75.2073 29.4683 79.6332 30.592C92.699 33.923 83.7611 40.3785 93.6049 29.6862" fill="var(--fill-0, white)"/>
<path id="Vector_22" d="M49.1444 49.0699C48.4736 49.8037 47.4245 50.8414 46.7881 51.9307C45.3778 48.9208 43.4858 46.3925 39.9542 48.3418C38.6127 49.0814 39.4497 48.703 37.896 49.2992C39.3637 49.0986 40.0287 48.7431 41.0951 48.5769C43.9731 48.1297 45.4924 54.4992 47.0117 53.9947C47.0576 53.9775 49.0928 49.1731 49.1502 49.0699" fill="var(--fill-0, white)"/>
<path id="Vector_23" d="M39.6446 57.7441C36.3767 60.7884 37.3055 59.7507 35.4078 62.0841C34.4963 60.777 32.7591 59.7909 31.4405 59.8539C32.9254 60.2266 34.4848 62.5084 34.416 63.2881L34.3873 63.3225H34.4103C34.3988 63.3855 34.3816 63.4314 34.3529 63.4658C35.1957 67.3471 39.2433 58.4321 39.6446 57.7384" fill="var(--fill-0, white)"/>
<path id="Vector_24" d="M13.9086 39.8281L16.9414 34.9951C17.6007 33.9402 18.346 33.3095 19.1773 33.1031C20.0029 32.891 20.8801 33.0802 21.8088 33.6592C22.7605 34.2555 23.3224 35.0065 23.4944 35.9124C23.6721 36.8182 23.3912 37.8559 22.6573 39.0312L21.654 40.6193L25.1455 42.8093L23.3167 45.7275L13.9086 39.8224V39.8281ZM19.7506 39.4268L20.1978 38.7159C20.5476 38.1597 20.6966 37.7011 20.6507 37.3571C20.5992 37.0074 20.4214 36.7379 20.1176 36.543C19.8194 36.3595 19.5099 36.3022 19.1831 36.3653C18.8505 36.4341 18.518 36.7379 18.174 37.2826L17.6581 38.1081L19.7506 39.4268Z" fill="var(--fill-0, #203C8A)"/>
<path id="Vector_25" d="M33.2407 27.8974L29.0211 32.4094C29.4167 32.7075 29.7779 32.8623 30.099 32.8681C30.5576 32.891 30.9532 32.7305 31.28 32.375C31.4864 32.1514 31.6297 31.8934 31.7042 31.5896C31.7501 31.4004 31.7444 31.1539 31.7042 30.85L33.986 28.8262C34.2555 29.7206 34.2956 30.5232 34.1064 31.2456C33.9115 31.9622 33.3955 32.7706 32.5585 33.665C31.8304 34.4447 31.1481 34.9549 30.5117 35.1957C29.8754 35.4365 29.1817 35.4766 28.4306 35.3218C27.6796 35.167 26.9801 34.7887 26.338 34.1867C25.4207 33.3267 24.9506 32.3406 24.9334 31.2169C24.9162 30.099 25.3921 29.0211 26.361 27.9834C27.1464 27.1407 27.8974 26.596 28.6026 26.3495C29.3135 26.103 30.0302 26.08 30.7468 26.275C31.4692 26.4756 32.2145 26.9343 32.9885 27.6624L33.2407 27.8974ZM30.0244 29.1759C29.5486 28.8147 29.1301 28.637 28.7631 28.6485C28.3962 28.6599 28.0694 28.8262 27.7828 29.1301C27.4502 29.4912 27.3241 29.9098 27.4044 30.3856C27.456 30.6895 27.6337 31.022 27.949 31.3832L30.0244 29.1702V29.1759ZM23.523 26.6648L25.0194 25.0653L27.7484 25.3175L26.4641 26.6877L24.985 26.5731L25.2029 28.035L23.9186 29.4052L23.523 26.6591V26.6648Z" fill="var(--fill-0, #203C8A)"/>
<path id="Vector_26" d="M39.679 23.202L42.2532 21.7515C42.4825 22.342 42.5743 22.9268 42.5399 23.5059C42.4997 24.0849 42.322 24.641 42.0067 25.1742C41.6856 25.7131 41.1696 26.2406 40.453 26.7565C39.7593 27.2553 39.1401 27.6108 38.584 27.8114C38.0279 28.0121 37.4832 28.0924 36.9443 28.0408C36.4054 27.9892 35.8952 27.8401 35.4308 27.5878C34.9607 27.3356 34.4963 26.8884 34.0262 26.2463C33.5446 25.5755 33.2522 24.9334 33.1604 24.32C33.0917 23.867 33.1089 23.4141 33.212 22.9383C33.3152 22.4682 33.47 22.0611 33.6879 21.7114C34.0319 21.161 34.5823 20.6049 35.3448 20.0545C36.4054 19.2863 37.3571 18.8849 38.1884 18.862C39.0254 18.8391 39.8166 19.1143 40.5734 19.6819L38.4464 21.6942C38.1712 21.4706 37.8846 21.3559 37.5922 21.3559C37.294 21.3559 36.9787 21.4706 36.6577 21.7056C36.2449 22.0038 36.0156 22.3994 35.9754 22.8809C35.9353 23.3625 36.1302 23.9014 36.5659 24.5034C36.9501 25.0366 37.3743 25.3577 37.8272 25.4494C38.2859 25.5468 38.7044 25.4494 39.1 25.1627C39.4268 24.9277 39.6389 24.641 39.7421 24.3142C39.8453 23.9874 39.8224 23.609 39.6848 23.1791" fill="var(--fill-0, #203C8A)"/>
<path id="Vector_27" d="M40.2523 13.2263L43.0501 11.9307L44.77 15.64C44.965 15.0667 45.2172 14.6138 45.5096 14.2698C45.8077 13.9258 46.2148 13.6334 46.725 13.3983C47.4818 13.0486 48.187 13.0027 48.8463 13.2607C49.4999 13.5187 50.0445 14.1322 50.4917 15.0839L52.6416 19.7277L49.8324 21.0291L47.9749 17.0159C47.7627 16.5573 47.5277 16.2706 47.2697 16.1617C47.0117 16.0528 46.7308 16.0642 46.4212 16.2076C46.0829 16.3681 45.8651 16.6204 45.7733 16.9758C45.6816 17.3313 45.7905 17.8358 46.0944 18.5066L47.7226 22.0095L44.9248 23.3052L40.2523 13.2321V13.2263Z" fill="var(--fill-0, #203C8A)"/>
<path id="Vector_28" d="M62.0554 13.5933L56.1102 15.2845C56.2994 15.7489 56.5287 16.0642 56.7982 16.242C57.1765 16.4942 57.6008 16.5573 58.0594 16.4254C58.3518 16.3452 58.6098 16.1904 58.8277 15.9725C58.9653 15.8349 59.0914 15.6228 59.2061 15.3361L62.2045 14.7743C61.9809 15.6801 61.5968 16.391 61.0636 16.907C60.5247 17.423 59.6705 17.8472 58.4894 18.1855C57.4632 18.4779 56.6204 18.5639 55.9497 18.4435C55.2789 18.3231 54.6597 18.002 54.0979 17.4803C53.5303 16.9643 53.129 16.2764 52.8882 15.4279C52.5442 14.2182 52.6531 13.1289 53.2149 12.16C53.7768 11.1911 54.74 10.5146 56.1045 10.1247C57.2109 9.80939 58.134 9.72913 58.8678 9.88392C59.6074 10.0387 60.2323 10.3827 60.7483 10.9274C61.2643 11.4663 61.6656 12.246 61.958 13.2665L62.0497 13.6047L62.0554 13.5933ZM58.6385 13.0314C58.4149 12.4753 58.1454 12.1084 57.8244 11.9307C57.5033 11.7529 57.1421 11.7243 56.7294 11.8389C56.2592 11.9708 55.9382 12.2632 55.7605 12.7161C55.6515 13.0027 55.6286 13.3811 55.7146 13.857L58.6385 13.0257V13.0314Z" fill="var(--fill-0, #203C8A)"/>
<path id="Vector_29" d="M69.8353 4.9305H74.9378C75.9411 4.9305 76.7552 5.06809 77.3744 5.34328C77.9936 5.61847 78.5038 6.00832 78.9051 6.51857C79.3122 7.02882 79.6046 7.62507 79.7823 8.29585C79.9658 8.97236 80.0575 9.689 80.0518 10.4515C80.0518 11.6383 79.9142 12.5556 79.6447 13.2091C79.3752 13.8627 78.9969 14.4131 78.521 14.8546C78.0394 15.296 77.5292 15.5884 76.9731 15.7375C76.222 15.9381 75.5398 16.0413 74.9263 16.0413H69.8296V4.93623L69.8353 4.9305ZM73.2695 7.44734V13.513H74.1122C74.8289 13.513 75.3391 13.4327 75.643 13.2722C75.9468 13.1117 76.1819 12.8365 76.3539 12.4409C76.5259 12.0453 76.6119 11.4032 76.6119 10.5088C76.6119 9.33354 76.4227 8.52517 76.0386 8.09519C75.6544 7.65947 75.0238 7.44734 74.1294 7.44161H73.2695V7.44734Z" fill="var(--fill-0, #203C8A)"/>
<path id="Vector_30" d="M89.9586 18.197L87.1322 17.6466L87.3787 16.3681C86.857 16.8095 86.3582 17.1019 85.8881 17.2395C85.4122 17.3771 84.8676 17.3886 84.2427 17.2682C83.4056 17.1077 82.8037 16.7293 82.431 16.1388C82.0526 15.5483 81.9666 14.7342 82.1673 13.7022L83.1477 8.67423L86.1919 9.26475L85.3492 13.6047C85.2517 14.1035 85.2746 14.4704 85.418 14.717C85.5613 14.9577 85.7964 15.1183 86.1289 15.1813C86.4901 15.2501 86.8169 15.1699 87.0978 14.9405C87.3844 14.7055 87.5966 14.2296 87.7342 13.513L88.4737 9.71193L91.5008 10.2967L89.9643 18.1912L89.9586 18.197Z" fill="var(--fill-0, #203C8A)"/>
<path id="Vector_31" d="M94.4419 11.5695L97.1537 12.5556L96.7008 13.7939C97.1594 13.3525 97.5607 13.083 97.9105 12.9798C98.2602 12.8766 98.6443 12.9053 99.0456 13.0543C99.4756 13.2091 99.8941 13.513 100.301 13.9602L98.6558 15.6973C98.3634 15.4279 98.1226 15.2616 97.9219 15.1871C97.5435 15.0495 97.1938 15.1011 96.867 15.3361C96.4084 15.6687 95.9612 16.4369 95.514 17.6466L94.591 20.1806L91.6786 19.12L94.4362 11.5637L94.4419 11.5695Z" fill="var(--fill-0, #203C8A)"/>
<path id="Vector_32" d="M103.357 18.3346L100.897 16.6777C101.236 16.2706 101.574 15.9897 101.895 15.8292C102.222 15.6687 102.606 15.5827 103.059 15.5769C103.38 15.5769 103.781 15.6457 104.257 15.8063C104.733 15.961 105.226 16.1732 105.736 16.4426C106.556 16.8783 107.187 17.2739 107.628 17.6294C108.075 17.9848 108.385 18.3919 108.563 18.8563C108.689 19.1773 108.717 19.5615 108.66 20.0029C108.603 20.4386 108.482 20.8285 108.299 21.161L106.631 24.297C106.453 24.6295 106.332 24.9047 106.281 25.1169C106.224 25.329 106.183 25.6214 106.172 25.994L103.615 24.6353C103.615 24.4002 103.615 24.2225 103.638 24.1136C103.655 23.9989 103.707 23.8326 103.787 23.609C103.248 23.7638 102.761 23.8212 102.331 23.781C101.74 23.7237 101.132 23.523 100.49 23.1848C99.6419 22.7319 99.103 22.1987 98.8736 21.5681C98.6443 20.9431 98.6844 20.3412 98.9883 19.7678C99.2749 19.2289 99.6705 18.8677 100.169 18.6843C100.668 18.5066 101.39 18.5582 102.336 18.8448C103.466 19.1831 104.205 19.3895 104.549 19.4697C104.893 19.55 105.278 19.6073 105.685 19.6589C105.862 19.3264 105.914 19.0512 105.851 18.8448C105.782 18.6384 105.576 18.4435 105.226 18.2543C104.784 18.0192 104.406 17.9103 104.108 17.9332C103.879 17.9504 103.621 18.088 103.357 18.3403M104.951 21.0234C104.504 20.9603 104.051 20.8686 103.592 20.7539C102.961 20.6106 102.537 20.5648 102.314 20.6278C102.084 20.6966 101.918 20.8227 101.815 21.0119C101.7 21.2241 101.683 21.4362 101.757 21.654C101.832 21.8719 102.015 22.0554 102.308 22.2102C102.606 22.3707 102.927 22.451 103.271 22.4395C103.609 22.4338 103.89 22.3478 104.114 22.193C104.332 22.0382 104.538 21.7916 104.716 21.4534L104.945 21.0177L104.951 21.0234Z" fill="var(--fill-0, #203C8A)"/>
<path id="Vector_33" d="M114.37 18.5467L116.79 20.5074L114.37 23.4944C114.812 23.4371 115.236 23.4715 115.643 23.5918C116.05 23.718 116.434 23.9244 116.807 24.2225C117.569 24.8417 117.976 25.6214 118.028 26.5731C118.08 27.5248 117.696 28.5109 116.864 29.5371C116.314 30.2194 115.712 30.7296 115.058 31.0679C114.41 31.4004 113.78 31.538 113.166 31.4634C112.553 31.3946 112.003 31.1653 111.515 30.764C111.097 30.4257 110.781 30.0244 110.581 29.56C110.432 29.2046 110.357 28.7058 110.363 28.0694L109.618 28.9982L107.376 27.1808L114.365 18.5467H114.37ZM112.329 25.9768C111.894 26.5157 111.676 26.9859 111.681 27.3929C111.687 27.7942 111.848 28.1268 112.157 28.3733C112.444 28.6083 112.776 28.6829 113.166 28.6026C113.556 28.5223 113.975 28.2013 114.428 27.6452C114.829 27.1464 115.03 26.7107 115.024 26.3208C115.018 25.931 114.886 25.6328 114.611 25.415C114.284 25.1513 113.917 25.0538 113.522 25.1283C113.12 25.2029 112.719 25.4838 112.324 25.9768" fill="var(--fill-0, #203C8A)"/>
</g>
<path id="Vector_34" d="M123.357 26.6797L115.103 34.109L117.17 36.4058L125.424 28.9765L123.357 26.6797Z" fill="var(--fill-0, #203C8A)"/>
<g id="Group_2">
<path id="Vector_35" d="M126.123 43.5489L122.666 38.4235C122.288 38.7445 122.058 39.0598 121.972 39.3752C121.852 39.8166 121.921 40.2351 122.19 40.6365C122.362 40.8887 122.586 41.0836 122.861 41.227C123.033 41.313 123.274 41.3646 123.583 41.3875L125.051 44.0649C124.122 44.1337 123.325 43.9903 122.672 43.6406C122.013 43.2909 121.342 42.6087 120.66 41.5882C120.063 40.7053 119.719 39.9255 119.628 39.2548C119.53 38.5783 119.645 37.8903 119.966 37.1966C120.281 36.4971 120.809 35.9009 121.542 35.4078C122.586 34.7027 123.658 34.4733 124.753 34.7027C125.848 34.932 126.794 35.6372 127.585 36.8182C128.227 37.7699 128.588 38.6241 128.674 39.3694C128.76 40.1205 128.623 40.8199 128.267 41.4792C127.918 42.1385 127.299 42.7635 126.416 43.354L126.129 43.5489H126.123ZM125.59 40.1205C126.049 39.7421 126.318 39.3694 126.381 39.0082C126.45 38.6471 126.364 38.2973 126.129 37.9419C125.854 37.5348 125.475 37.317 124.988 37.294C124.684 37.2711 124.317 37.3743 123.893 37.6036L125.59 40.1205Z" fill="var(--fill-0, #203C8A)"/>
<path id="Vector_36" d="M28.7345 109.744L32.9082 113.636C33.8198 114.485 34.2956 115.333 34.3472 116.188C34.3988 117.042 34.0491 117.868 33.3038 118.664C32.5413 119.484 31.6928 119.897 30.7697 119.897C29.8467 119.897 28.8778 119.427 27.8688 118.481L26.4928 117.197L23.6836 120.212L21.161 117.862L28.7345 109.738V109.744ZM28.0293 115.557L28.6427 116.13C29.1243 116.578 29.5428 116.813 29.8983 116.83C30.2538 116.841 30.5519 116.721 30.7927 116.457C31.0335 116.205 31.1481 115.907 31.1424 115.574C31.1424 115.236 30.8959 114.852 30.4315 114.41L29.7148 113.745L28.0236 115.557H28.0293Z" fill="var(--fill-0, #203C8A)"/>
<path id="Vector_37" d="M38.3891 127.849L33.3267 124.306C33.0859 124.742 32.9885 125.12 33.0229 125.441C33.0687 125.9 33.2866 126.261 33.6822 126.536C33.9287 126.714 34.2096 126.811 34.5192 126.846C34.7141 126.863 34.9549 126.828 35.253 126.737L37.5807 128.709C36.7379 129.104 35.9468 129.259 35.2072 129.168C34.4676 129.082 33.5962 128.686 32.5929 127.981C31.7157 127.367 31.1195 126.765 30.7869 126.169C30.4601 125.573 30.3168 124.891 30.3684 124.122C30.4143 123.36 30.6895 122.615 31.194 121.892C31.9164 120.86 32.8279 120.258 33.9344 120.08C35.0409 119.903 36.1761 120.224 37.3342 121.038C38.2801 121.697 38.9222 122.362 39.2662 123.027C39.6102 123.692 39.7364 124.398 39.6446 125.143C39.5529 125.882 39.1974 126.691 38.5897 127.557L38.3891 127.843V127.849ZM36.6691 124.839C36.9615 124.317 37.0762 123.876 37.0074 123.515C36.9386 123.153 36.7379 122.855 36.3882 122.609C35.9869 122.334 35.5569 122.265 35.0925 122.414C34.8001 122.506 34.4963 122.729 34.1809 123.096L36.6691 124.839ZM38.2343 118.045L40.0287 119.301L40.1663 122.041L38.6299 120.963L38.5381 119.484L37.1163 119.903L35.5798 118.825L38.2457 118.045H38.2343Z" fill="var(--fill-0, #203C8A)"/>
<path id="Vector_38" d="M44.535 131.105L46.9945 132.734C46.576 133.204 46.1001 133.553 45.567 133.788C45.0338 134.018 44.4605 134.115 43.8355 134.075C43.2106 134.035 42.5055 133.811 41.72 133.416C40.9575 133.026 40.3613 132.636 39.9255 132.235C39.4898 131.833 39.1745 131.381 38.9738 130.876C38.7675 130.377 38.6757 129.861 38.6815 129.328C38.6929 128.795 38.8764 128.176 39.2376 127.471C39.616 126.731 40.0517 126.181 40.5562 125.819C40.9231 125.556 41.3416 125.361 41.806 125.235C42.2704 125.114 42.7061 125.063 43.1132 125.097C43.761 125.149 44.5063 125.389 45.3376 125.814C46.5072 126.41 47.2926 127.075 47.6939 127.803C48.0953 128.537 48.2157 129.368 48.0494 130.297L45.286 129.322C45.3606 128.973 45.3319 128.669 45.1943 128.405C45.0567 128.141 44.8159 127.918 44.4547 127.734C44.0018 127.499 43.5489 127.476 43.1017 127.66C42.6545 127.843 42.2589 128.267 41.9264 128.927C41.6226 129.517 41.5366 130.033 41.6627 130.486C41.7831 130.933 42.064 131.266 42.494 131.489C42.8552 131.673 43.1992 131.736 43.5432 131.673C43.8814 131.616 44.2082 131.421 44.5235 131.105" fill="var(--fill-0, #203C8A)"/>
<path id="Vector_39" d="M50.2452 124.982L53.1748 125.934L51.9135 129.821C52.4467 129.54 52.934 129.368 53.3869 129.322C53.8399 129.271 54.3329 129.334 54.8718 129.512C55.6687 129.769 56.2134 130.217 56.5172 130.847C56.8154 131.484 56.8039 132.304 56.4771 133.307L54.8948 138.169L51.9479 137.211L53.3181 133.003C53.4729 132.521 53.4959 132.154 53.3812 131.896C53.2665 131.638 53.0487 131.461 52.7276 131.358C52.3722 131.243 52.0397 131.283 51.7301 131.478C51.4205 131.673 51.151 132.12 50.9274 132.82L49.7349 136.494L46.8053 135.543L50.2337 124.982H50.2452Z" fill="var(--fill-0, #203C8A)"/>
<path id="Vector_40" d="M66.0916 137.022L60.003 135.95C59.9743 136.449 60.0431 136.833 60.2094 137.108C60.4444 137.503 60.7942 137.744 61.2643 137.825C61.5624 137.882 61.8605 137.853 62.1529 137.75C62.3364 137.687 62.5428 137.549 62.7721 137.343L65.7132 138.146C65.1169 138.862 64.4634 139.332 63.7582 139.562C63.0473 139.797 62.0898 139.802 60.8859 139.59C59.8367 139.407 59.0341 139.109 58.4837 138.707C57.9333 138.306 57.5205 137.75 57.2339 137.033C56.953 136.317 56.8899 135.526 57.0447 134.654C57.2625 133.416 57.8359 132.487 58.7646 131.862C59.6934 131.237 60.8572 131.042 62.2561 131.289C63.3913 131.489 64.2512 131.816 64.8475 132.281C65.4437 132.739 65.8565 133.324 66.0858 134.035C66.3152 134.746 66.3381 135.623 66.1489 136.666L66.0916 137.01V137.022ZM63.2594 135.021C63.3053 134.425 63.2193 133.978 63.0071 133.674C62.795 133.376 62.4797 133.192 62.0669 133.118C61.5853 133.032 61.1668 133.158 60.8114 133.49C60.582 133.697 60.4043 134.035 60.2724 134.499L63.2651 135.027L63.2594 135.021Z" fill="var(--fill-0, #203C8A)"/>
<path id="Vector_41" d="M71.5897 129.683L76.6749 129.328C77.6782 129.259 78.4981 129.34 79.1345 129.569C79.7708 129.792 80.304 130.154 80.7455 130.629C81.1812 131.111 81.5194 131.684 81.7488 132.344C81.9781 133.003 82.1214 133.714 82.1673 134.471C82.2533 135.652 82.1787 136.58 81.9552 137.251C81.7316 137.922 81.399 138.495 80.9461 138.971C80.4989 139.441 80.0059 139.774 79.467 139.957C78.7331 140.215 78.0566 140.359 77.4489 140.404L72.3636 140.76L71.5897 129.683ZM75.1901 131.954L75.6086 138.002L76.4456 137.945C77.1623 137.893 77.6668 137.779 77.9534 137.601C78.2458 137.423 78.4637 137.125 78.607 136.718C78.7503 136.311 78.7905 135.663 78.7331 134.78C78.6529 133.605 78.4006 132.814 77.9878 132.407C77.575 132 76.9272 131.828 76.0386 131.891L75.1843 131.948L75.1901 131.954Z" fill="var(--fill-0, #203C8A)"/>
<path id="Vector_42" d="M92.4583 137.956L89.6433 138.553L89.3738 137.28C89.0642 137.893 88.7203 138.358 88.3419 138.667C87.9635 138.977 87.459 139.206 86.8341 139.338C86.0028 139.516 85.2976 139.401 84.7243 139.006C84.1452 138.61 83.7496 137.893 83.5318 136.867L82.4654 131.856L85.4982 131.214L86.4213 135.543C86.5245 136.036 86.6907 136.368 86.92 136.535C87.1494 136.707 87.4246 136.752 87.7571 136.684C88.1183 136.609 88.382 136.408 88.554 136.082C88.726 135.755 88.7317 135.233 88.5827 134.517L87.7743 130.733L90.7899 130.091L92.464 137.962L92.4583 137.956Z" fill="var(--fill-0, #203C8A)"/>
<path id="Vector_43" d="M91.7244 129.483L94.4706 128.588L94.8776 129.844C94.9636 129.219 95.1184 128.755 95.3363 128.457C95.5484 128.158 95.8637 127.946 96.2765 127.814C96.7065 127.677 97.2282 127.654 97.8245 127.757L97.5951 130.142C97.1996 130.108 96.9014 130.125 96.7008 130.194C96.3166 130.32 96.0701 130.572 95.9612 130.962C95.8007 131.507 95.9268 132.39 96.3224 133.616L97.1537 136.185L94.2069 137.142L91.7187 129.494L91.7244 129.483Z" fill="var(--fill-0, #203C8A)"/>
<path id="Vector_44" d="M101.001 128.715L98.2372 129.775C98.0997 129.265 98.0595 128.829 98.1111 128.474C98.1685 128.113 98.3175 127.746 98.5698 127.379C98.7532 127.109 99.0456 126.823 99.4469 126.525C99.8483 126.221 100.307 125.945 100.823 125.682C101.643 125.263 102.331 124.971 102.875 124.805C103.42 124.644 103.936 124.627 104.418 124.747C104.756 124.833 105.088 125.022 105.409 125.326C105.73 125.63 105.983 125.951 106.155 126.289L107.766 129.454C107.938 129.792 108.093 130.045 108.23 130.217C108.368 130.383 108.591 130.584 108.884 130.807L106.304 132.12C106.109 131.988 105.966 131.885 105.885 131.799C105.805 131.719 105.696 131.581 105.558 131.392C105.375 131.925 105.146 132.349 104.865 132.682C104.481 133.129 103.965 133.513 103.323 133.84C102.468 134.276 101.717 134.408 101.069 134.236C100.427 134.064 99.9572 133.691 99.6591 133.112C99.3839 132.567 99.3093 132.04 99.4527 131.524C99.5903 131.008 100.049 130.446 100.823 129.838C101.752 129.104 102.342 128.623 102.606 128.382C102.87 128.141 103.139 127.866 103.414 127.562C103.242 127.224 103.053 127.023 102.841 126.96C102.629 126.897 102.354 126.96 102.004 127.132C101.551 127.362 101.253 127.608 101.104 127.866C100.983 128.067 100.955 128.353 101.001 128.72M104.119 128.944C103.81 129.271 103.477 129.592 103.122 129.907C102.635 130.337 102.359 130.664 102.285 130.882C102.205 131.111 102.216 131.317 102.314 131.507C102.422 131.719 102.589 131.856 102.807 131.919C103.03 131.982 103.288 131.937 103.581 131.788C103.884 131.633 104.131 131.415 104.32 131.128C104.509 130.842 104.601 130.566 104.607 130.297C104.607 130.027 104.521 129.724 104.349 129.38L104.125 128.944H104.119Z" fill="var(--fill-0, #203C8A)"/>
<path id="Vector_45" d="M103.81 120.809L106.361 119.026L108.568 122.173C108.637 121.732 108.786 121.33 109.01 120.981C109.233 120.625 109.543 120.31 109.933 120.035C110.735 119.473 111.601 119.295 112.53 119.507C113.459 119.714 114.301 120.361 115.058 121.439C115.563 122.156 115.884 122.878 116.033 123.589C116.176 124.306 116.13 124.948 115.895 125.516C115.66 126.083 115.288 126.547 114.772 126.909C114.324 127.218 113.854 127.407 113.356 127.476C112.977 127.522 112.478 127.453 111.859 127.276L112.541 128.25L110.179 129.907L103.81 120.814V120.809ZM110.386 124.816C110.781 125.384 111.171 125.716 111.567 125.825C111.957 125.928 112.318 125.871 112.645 125.642C112.948 125.43 113.115 125.126 113.143 124.736C113.172 124.346 112.977 123.847 112.564 123.257C112.197 122.735 111.831 122.425 111.458 122.322C111.085 122.219 110.758 122.265 110.472 122.465C110.128 122.706 109.939 123.027 109.898 123.434C109.858 123.841 110.025 124.3 110.386 124.822" fill="var(--fill-0, #203C8A)"/>
</g>
<path id="Vector_46" d="M113.752 113.078L111.385 115.064L118.523 123.571L120.891 121.585L113.752 113.078Z" fill="var(--fill-0, #203C8A)"/>
<path id="Vector_47" d="M126.358 111.28L122.305 115.941C122.718 116.228 123.079 116.365 123.406 116.365C123.864 116.365 124.248 116.188 124.564 115.827C124.764 115.603 124.896 115.328 124.959 115.024C124.994 114.835 124.982 114.588 124.931 114.284L127.138 112.175C127.442 113.057 127.511 113.86 127.344 114.588C127.178 115.316 126.697 116.136 125.888 117.065C125.189 117.868 124.529 118.406 123.899 118.67C123.274 118.934 122.58 119.003 121.823 118.877C121.067 118.75 120.356 118.401 119.691 117.816C118.739 116.99 118.234 116.021 118.183 114.898C118.125 113.78 118.561 112.685 119.49 111.618C120.247 110.747 120.975 110.179 121.674 109.904C122.374 109.629 123.09 109.577 123.813 109.749C124.547 109.921 125.309 110.351 126.106 111.045L126.364 111.274L126.358 111.28ZM123.182 112.673C122.695 112.329 122.265 112.169 121.898 112.197C121.531 112.22 121.21 112.398 120.935 112.719C120.614 113.092 120.505 113.516 120.602 113.992C120.665 114.29 120.86 114.617 121.187 114.972L123.182 112.679V112.673Z" fill="var(--fill-0, #203C8A)"/>
</g>
<defs>
<clipPath id="clip0_0_606">
<rect width="146" height="146" fill="white"/>
</clipPath>
</defs>
</svg>
