<svg preserveAspectRatio="none" width="100%" height="100%" overflow="visible" style="display: block;" viewBox="0 0 14 14" fill="none" xmlns="http://www.w3.org/2000/svg">
<path id="Vector" d="M13.8362 13.0122L10.3572 9.53312C12.3981 7.03708 12.029 3.35942 9.53297 1.31855C7.03725 -0.722317 3.35937 -0.353212 1.31853 2.14282C-0.722306 4.63886 -0.353207 8.31652 2.14279 10.3574C4.29264 12.1152 7.3834 12.1152 9.53324 10.3574L13.0122 13.8364C13.2436 14.0599 13.6127 14.0536 13.8365 13.8222C14.0545 13.5963 14.0545 13.2384 13.8365 13.0124L13.8362 13.0122ZM5.84717 10.5101C3.27194 10.5101 1.18439 8.42253 1.18439 5.84726C1.18439 3.27199 3.27222 1.18468 5.84717 1.18468C8.42212 1.18468 10.5099 3.27227 10.5099 5.84753C10.5069 8.42143 8.4213 10.5074 5.84717 10.5104V10.5101Z" fill="var(--fill-0, #002C41)"/>
</svg>
