<svg width="109" height="146" viewBox="0 0 109 146" fill="none" xmlns="http://www.w3.org/2000/svg">
<g clip-path="url(#clip0_729_16071)">
<path d="M108.967 4.82292C108.967 2.16231 106.658 0.00195312 103.8 0.00195312H5.20232C2.35579 0.00195312 0.0376259 2.16231 0.0376259 4.82292V118.614C0.019021 121.519 0.502746 124.365 1.53903 127.089C8.54188 145.487 37.93 151.423 67.1824 140.379C92.0793 130.976 108.842 112.29 108.961 95.5949C108.961 95.5893 108.967 95.5838 108.967 95.5782V4.82292Z" fill="white"/>
<path d="M41.8277 73.8039C71.0707 62.7613 100.457 68.7069 107.46 87.0866C107.506 87.2107 107.549 87.3367 107.594 87.4609V5.79165C107.594 3.19775 105.343 1.09668 102.556 1.09668H6.44132C3.66548 1.09668 1.39941 3.19589 1.39941 5.79165V110.271C5.87201 96.0226 21.0052 81.6672 41.8258 73.8021L41.8277 73.8039Z" fill="#005BA7"/>
<path d="M67.1837 140.378C96.4304 129.334 114.457 105.479 107.459 87.0866C100.457 68.7069 71.0702 62.7613 41.8272 73.8039C12.5767 84.8521 -5.45694 108.712 1.54033 127.088C8.54318 145.487 37.9313 151.423 67.1837 140.378Z" fill="white"/>
<path d="M66.7321 139.4C95.069 128.697 113.077 105.072 106.297 87.2515C99.5156 69.4388 70.4958 64.1861 42.1625 74.8897C13.8181 85.5951 -4.07227 108.857 2.72407 126.672C9.5018 144.488 38.3802 150.104 66.7339 139.4H66.7321Z" fill="#005BA7"/>
<path d="M8.21182 109.535C8.21182 109.535 24.6529 119.987 27.3004 135.132C27.3004 135.132 38.227 89.6084 95.1781 80.111C95.1781 80.111 46.7238 78.4768 26.6715 118.23C26.6715 118.23 16.7235 108.19 8.20996 109.537L8.21182 109.535Z" fill="white"/>
<path d="M85.8537 92.4503C87.3421 91.8889 88.0975 90.2159 87.5226 88.7355C86.9588 87.2551 85.2956 86.5121 83.8072 87.0735C82.3188 87.6294 81.5634 89.2913 82.1253 90.7865C82.7021 92.2669 84.3653 93.0154 85.8537 92.4485V92.4503Z" fill="white"/>
<path d="M75.4196 90.9014C75.4196 90.9014 69.5981 101.792 80.2382 102.737C80.2382 102.737 86.908 103.474 97.2635 95.059C97.2635 95.059 92.6681 127.74 37.5625 128.157C37.5625 128.157 80.0838 121.398 90.0374 102.726C90.0374 102.726 75.5126 112.366 70.986 101.625C70.986 101.625 68.8335 96.5227 75.4177 90.9014H75.4196Z" fill="white"/>
<path d="M101.274 122.442H100.025V121.777H103.333V122.442H102.072V126.136H101.272V122.442H101.274Z" fill="white"/>
<path d="M107.526 124.358C107.5 123.794 107.467 123.114 107.476 122.527H107.454C107.312 123.057 107.128 123.646 106.937 124.195L106.293 126.086H105.681L105.097 124.221C104.927 123.665 104.771 123.068 104.658 122.527H104.644C104.622 123.096 104.598 123.789 104.566 124.384L104.468 126.136H103.722L104.014 121.775H105.065L105.636 123.528C105.792 124.039 105.928 124.556 106.038 125.043H106.06C106.176 124.571 106.326 124.033 106.496 123.522L107.098 121.775H108.14L108.393 126.136H107.612L107.528 124.358H107.526Z" fill="white"/>
<path d="M20.666 49.605C20.6009 47.9189 20.5395 45.8771 20.5395 43.8335H20.4967C20.039 45.627 19.4529 47.6243 18.9078 49.2715L17.1943 54.7483H14.705L13.1961 49.3344C12.7366 47.6669 12.2752 45.6678 11.9217 43.8335H11.8789C11.8175 45.7271 11.7338 47.8967 11.6482 49.6457L11.3766 54.9781H8.42773L9.32635 40.9395H13.5738L14.9524 45.6252C15.4138 47.2501 15.8324 48.9991 16.1469 50.6462H16.2306C16.6064 49.0195 17.0883 47.1648 17.5701 45.6048L19.0548 40.9395H23.2409L23.9944 54.9781H20.8985L20.6678 49.605H20.666Z" fill="white"/>
<path d="M25.7059 51.7078C26.5394 52.145 27.879 52.5841 29.239 52.5841C30.7032 52.5841 31.479 51.9801 31.479 51.0611C31.479 50.1422 30.8092 49.6882 29.1125 49.1046C26.7701 48.2708 25.2222 46.9776 25.2222 44.9358C25.2222 42.542 27.2539 40.73 30.5562 40.73C32.1693 40.73 33.319 41.0394 34.1563 41.4359L33.4418 43.9798C32.9004 43.7074 31.8753 43.3128 30.5153 43.3128C29.1553 43.3128 28.465 43.9594 28.465 44.6672C28.465 45.5621 29.2371 45.9586 31.079 46.6478C33.5683 47.5649 34.72 48.8545 34.72 50.8351C34.72 53.19 32.9228 55.1873 29.0511 55.1873C27.4418 55.1873 25.8511 54.7501 25.0566 54.3128L25.7059 51.7078Z" fill="white"/>
<path d="M46.3906 54.6038C45.8269 54.8761 44.4892 55.2078 42.7924 55.2078C37.9199 55.2078 35.4082 52.1674 35.4082 48.1672C35.4082 43.3759 38.8389 40.7319 43.105 40.7319C44.7571 40.7319 46.0129 41.0414 46.5767 41.3582L45.9088 43.8557C45.2818 43.5852 44.3832 43.3351 43.2315 43.3351C40.7199 43.3351 38.7533 44.8562 38.7533 47.9819C38.7533 50.7944 40.4278 52.5639 43.252 52.5639C44.2343 52.5639 45.2799 52.3767 45.9292 52.1044L46.3888 54.6056L46.3906 54.6038Z" fill="white"/>
<path d="M9.12391 57.7758L9.75648 60.555C9.90718 61.2071 10.0467 61.8742 10.1583 62.5393H10.1825C10.3109 61.8742 10.5118 61.196 10.6756 60.5642L11.483 57.7739H12.7444L13.5146 60.4883C13.7044 61.2034 13.8681 61.8723 14.0077 62.5375H14.0319C14.1212 61.8723 14.27 61.2034 14.4337 60.4883L15.1147 57.7739H16.6421L14.7128 63.8955H13.2746L12.5416 61.4091C12.3518 60.768 12.2142 60.19 12.0746 59.4488H12.0505C11.9109 60.2029 11.7584 60.8069 11.5835 61.4091L10.8002 63.8955H9.34903L7.5332 57.7739H9.12205L9.12391 57.7758Z" fill="white"/>
<path d="M18.7909 57.7758L19.4235 60.555C19.5742 61.2071 19.7137 61.8742 19.8253 62.5393H19.8514C19.9779 61.8742 20.1788 61.196 20.3425 60.5642L21.15 57.7739H22.4114L23.1816 60.4883C23.3714 61.2034 23.5351 61.8723 23.6747 62.5375H23.6989C23.7882 61.8723 23.937 61.2034 24.1007 60.4883L24.7817 57.7739H26.311L24.3798 63.8955H22.9416L22.2086 61.4091C22.0188 60.768 21.8812 60.19 21.7416 59.4488H21.7174C21.5779 60.2029 21.4253 60.8069 21.2505 61.4091L20.4672 63.8955H19.016L17.2002 57.7739H18.789L18.7909 57.7758Z" fill="white"/>
<path d="M28.4599 57.7758L29.0924 60.555C29.2431 61.2071 29.3827 61.8742 29.4943 62.5393H29.5203C29.6468 61.8742 29.8478 61.196 30.0115 60.5642L30.8189 57.7739H32.0803L32.8506 60.4883C33.0404 61.2034 33.2041 61.8723 33.3436 62.5375H33.3678C33.4571 61.8723 33.6059 61.2034 33.7697 60.4883L34.4506 57.7739H35.9799L34.0487 63.8955H32.6106L31.8776 61.4091C31.6878 60.768 31.5501 60.19 31.4106 59.4488H31.3864C31.2469 60.2029 31.0943 60.8069 30.9194 61.4091L30.1361 63.8955H28.685L26.8691 57.7739H28.458L28.4599 57.7758Z" fill="white"/>
<path d="M36.2461 63.0415C36.2461 62.4653 36.648 62.0503 37.2042 62.0503C37.7605 62.0503 38.1642 62.4505 38.1642 63.0415C38.1642 63.6326 37.7866 64.0328 37.1931 64.0328C36.6368 64.0328 36.2461 63.6085 36.2461 63.0415Z" fill="white"/>
<path d="M39.4165 59.599C39.4165 58.8968 39.3924 58.3058 39.3682 57.7759H40.691L40.7691 58.6819H40.8063C41.0966 58.2039 41.651 57.6406 42.6984 57.6406C43.5059 57.6406 44.1366 58.0927 44.4026 58.7708H44.4287C44.6426 58.4318 44.8957 58.1798 45.171 58.0038C45.5245 57.7666 45.9171 57.6406 46.4324 57.6406C47.4445 57.6406 48.4771 58.3336 48.4771 60.292V63.8994H46.9645V60.5199C46.9645 59.5027 46.611 58.8987 45.8668 58.8987C45.3366 58.8987 44.944 59.2748 44.7803 59.7157C44.7301 59.8529 44.7059 60.0548 44.7059 60.2308V63.8994H43.1933V60.3531C43.1933 59.5008 42.8528 58.8968 42.1328 58.8968C41.5505 58.8968 41.1598 59.3489 41.0091 59.7658C40.9589 59.9288 40.9347 60.103 40.9347 60.279V63.8994H39.4184V59.6009L39.4165 59.599Z" fill="white"/>
<path d="M50.0712 62.4653C50.4116 62.6784 51.0795 62.9174 51.6358 62.9174C52.3168 62.9174 52.62 62.6283 52.62 62.2281C52.62 61.8279 52.367 61.6112 51.6116 61.3351C50.4116 60.9312 49.9186 60.2771 49.9186 59.5509C49.9186 58.4688 50.8154 57.6406 52.2423 57.6406C52.9233 57.6406 53.5168 57.8037 53.8814 58.0038L53.567 59.0858C53.314 58.9357 52.8079 58.7338 52.2665 58.7338C51.7251 58.7338 51.4089 59.0117 51.4089 59.386C51.4089 59.7602 51.7009 59.9529 52.4823 60.2401C53.6061 60.631 54.1103 61.1961 54.1233 62.1003C54.1233 63.2194 53.2507 64.0235 51.6228 64.0235C50.8786 64.0235 50.2107 63.8475 49.7549 63.5955L50.0712 62.4653Z" fill="white"/>
<path d="M59.9187 63.7065C59.5912 63.8584 58.9475 64.0214 58.1773 64.0214C56.2591 64.0214 55.0107 62.7893 55.0107 60.8921C55.0107 58.9948 56.2721 57.6367 58.4284 57.6367C58.9978 57.6367 59.5764 57.7627 59.9299 57.9128L59.6508 59.0838C59.3978 58.9559 59.0331 58.8429 58.4787 58.8429C57.2936 58.8429 56.5847 59.7118 56.5977 60.8309C56.5977 62.0871 57.4182 62.8023 58.4787 62.8023C59.0108 62.8023 59.3996 62.6893 59.7029 62.5614L59.9168 63.7046L59.9187 63.7065Z" fill="white"/>
<path d="M60.7891 63.0415C60.7891 62.4653 61.1909 62.0503 61.7472 62.0503C62.3035 62.0503 62.7072 62.4505 62.7072 63.0415C62.7072 63.6326 62.3295 64.0328 61.736 64.0328C61.1798 64.0328 60.7891 63.6085 60.7891 63.0415Z" fill="white"/>
<path d="M69.8039 60.7792C69.8039 63.0284 68.2132 64.0327 66.6485 64.0327C64.9201 64.0327 63.5713 62.8524 63.5713 60.8792C63.5713 58.906 64.8941 57.6387 66.7509 57.6387C68.6076 57.6387 69.8039 58.919 69.8039 60.7773V60.7792ZM65.1732 60.844C65.1732 62.0242 65.7667 62.9173 66.6988 62.9173C67.5806 62.9173 68.202 62.0631 68.202 60.8181C68.202 59.8676 67.7723 58.7615 66.7136 58.7615C65.655 58.7615 65.1732 59.8268 65.1732 60.8459V60.844Z" fill="white"/>
<path d="M71.0894 59.751C71.0894 58.9209 71.0782 58.3187 71.041 57.7759H72.3768L72.442 58.9357H72.4792C72.7824 58.0816 73.5006 57.6406 74.1703 57.6406C74.321 57.6406 74.4085 57.6536 74.535 57.6777V59.1229C74.3973 59.0969 74.2578 59.0858 74.068 59.0858C73.3387 59.0858 72.8196 59.5509 72.6801 60.2531C72.6559 60.392 72.6429 60.5551 72.6429 60.7181V63.8975H71.0894V59.751Z" fill="white"/>
<path d="M81.0502 63.0044C81.0502 64.2865 80.7879 65.2036 80.1442 65.7798C79.5135 66.3468 78.6167 66.5228 77.772 66.5228C76.9888 66.5228 76.1572 66.3468 75.6251 66.0318L75.9655 64.8646C76.3581 65.0925 77.0111 65.3296 77.7572 65.3296C78.7655 65.3296 79.5228 64.8034 79.5228 63.4842V62.9543H79.4986C79.1451 63.4935 78.5274 63.8603 77.7069 63.8603C76.1795 63.8603 75.0967 62.6023 75.0967 60.8699C75.0967 58.8578 76.4083 57.6387 77.8837 57.6387C78.8307 57.6387 79.3721 58.0908 79.6623 58.5929H79.6883L79.7497 57.7758H81.0986C81.0744 58.1927 81.0484 58.6948 81.0484 59.5359V63.0044H81.0502ZM79.4986 60.2289C79.4986 60.0769 79.4856 59.9398 79.4483 59.812C79.2846 59.2487 78.8418 58.8208 78.1869 58.8208C77.3144 58.8208 76.6706 59.5748 76.6706 60.8162C76.6706 61.8612 77.2027 62.7024 78.1739 62.7024C78.7562 62.7024 79.2604 62.3262 79.4353 61.7611C79.4856 61.6092 79.5004 61.3943 79.5004 61.2183V60.227L79.4986 60.2289Z" fill="white"/>
<path d="M81.6973 63.7951L85.0089 53.9604H86.1792L82.8545 63.7951H81.6973Z" fill="white"/>
<path d="M87.256 63.2671V57.907H86.3574V56.6582H87.256V56.3747C87.256 55.5206 87.4886 54.6646 88.0616 54.1199C88.5528 53.6604 89.204 53.4844 89.7919 53.4844C90.2402 53.4844 90.5937 53.564 90.8542 53.6456L90.7444 54.937C90.5547 54.8703 90.337 54.8165 90.0226 54.8165C89.1909 54.8165 88.9193 55.5058 88.9193 56.321V56.6601H90.363V57.9088H88.9323V63.269H87.256V63.2671Z" fill="white"/>
<path d="M91.4104 58.7888C91.4104 57.8939 91.3974 57.2417 91.3564 56.6599H92.8002L92.869 57.9087H92.9099C93.2374 56.9879 94.0132 56.5117 94.7351 56.5117C94.8988 56.5117 94.9955 56.5247 95.1295 56.5543V58.1144C94.9825 58.0847 94.8318 58.0718 94.6272 58.0718C93.8365 58.0718 93.2783 58.5739 93.1276 59.3335C93.1016 59.4836 93.0867 59.6596 93.0867 59.8356V63.2689H91.4104V58.7907V58.7888Z" fill="white"/>
<path d="M9.21875 6.37744C10.0634 6.22181 11.2392 6.10693 12.8318 6.10693C14.5658 6.10693 15.8346 6.47008 16.6607 7.15932C17.4309 7.79297 17.9295 8.8083 17.9295 10.0126C17.9295 11.2169 17.5463 12.2545 16.8132 12.9437C15.8718 13.8812 14.3909 14.3222 12.7165 14.3222C12.2774 14.3222 11.8718 14.3037 11.563 14.2481V19.1098H9.21875V6.37744ZM11.563 12.3898C11.8532 12.4639 12.2364 12.4861 12.7165 12.4861C14.4876 12.4861 15.563 11.6264 15.563 10.1108C15.563 8.6749 14.5658 7.90599 12.9285 7.90599C12.2774 7.90599 11.816 7.96528 11.563 8.02272V12.3879V12.3898Z" fill="white"/>
<path d="M27.2192 13.3863H22.3373V17.1771H27.7978V19.1114H19.9727V6.20304H27.5113V8.1355H22.3392V11.4705H27.2211V13.3863H27.2192ZM24.6629 3.23486L26.6425 5.51194H24.875L23.7773 4.26872H23.7401L22.6611 5.51194H20.9308L22.8731 3.23486H24.6629Z" fill="white"/>
<path d="M39.1632 18.726C38.605 19.0151 37.3734 19.3226 35.818 19.3226C31.7026 19.3226 29.2021 16.7361 29.2021 12.8119C29.2021 8.55792 32.164 5.99365 36.1269 5.99365C37.6822 5.99365 38.7985 6.31974 39.2785 6.56802L38.7613 8.44675C38.1436 8.17624 37.299 7.9465 36.2199 7.9465C33.5854 7.9465 31.6822 9.59548 31.6822 12.6952C31.6822 15.5318 33.3529 17.3494 36.2013 17.3494C37.165 17.3494 38.1622 17.1604 38.7799 16.8732L39.1632 18.7279V18.726Z" fill="white"/>
<path d="M43.5501 6.20312V11.3724H49.0292V6.20312H51.3958V19.1115H49.0292V13.4235H43.5501V19.1115H41.1836V6.20312H43.5501Z" fill="white"/>
<path d="M61.3568 13.3864H56.4749V17.1772H61.9354V19.1115H54.1084V6.20312H61.6471V8.13559H56.4749V11.4706H61.3568V13.3864Z" fill="white"/>
<path d="M9.21875 23.5713C10.2569 23.3971 11.5853 23.3008 12.9881 23.3008C15.4104 23.3008 17.0849 23.801 18.2756 24.796C19.5258 25.8113 20.2961 27.3417 20.2961 29.5447C20.2961 31.7477 19.5072 33.5652 18.2756 34.6769C16.9881 35.8479 14.9304 36.4408 12.4113 36.4408C11.0271 36.4408 9.98899 36.363 9.21875 36.2666V23.5694V23.5713ZM11.5853 34.5065C11.9109 34.5621 12.4113 34.562 12.8913 34.562C15.9686 34.5806 17.7956 32.8982 17.7956 29.6225C17.8142 26.7692 16.1621 25.1387 13.2002 25.1387C12.4485 25.1387 11.909 25.198 11.5853 25.2722V34.5065Z" fill="white"/>
<path d="M24.6998 23.397V30.9267C24.6998 33.4539 25.7603 34.6193 27.3566 34.6193C29.0682 34.6193 30.0859 33.4539 30.0859 30.9267V23.397H32.4524V30.7711C32.4524 34.7546 30.3948 36.5147 27.2803 36.5147C24.1659 36.5147 22.3389 34.8472 22.3389 30.7896V23.397H24.7017H24.6998Z" fill="white"/>
<path d="M35.1631 23.5713C36.0487 23.4194 37.3733 23.3008 38.7389 23.3008C40.6031 23.3008 41.8757 23.6083 42.739 24.3383C43.4497 24.9312 43.8553 25.8298 43.8553 26.9211C43.8553 28.5886 42.7204 29.7189 41.5073 30.1561V30.2154C42.4301 30.56 42.9883 31.4605 43.3157 32.7056C43.7213 34.3138 44.0673 35.8071 44.3353 36.3074H41.8943C41.7008 35.922 41.392 34.8696 41.0273 33.2614C40.6627 31.5753 40.0487 31.038 38.7017 31.001H37.5073V36.3074H35.1631V23.5713ZM37.5073 29.2779H38.9138C40.5101 29.2779 41.5073 28.4367 41.5073 27.1509C41.5073 25.7353 40.5101 25.0832 38.9696 25.0832C38.2217 25.0832 37.738 25.1388 37.5073 25.198V29.2779Z" fill="white"/>
<path d="M48.8336 32.6481L47.7173 36.3092H45.2764L49.429 23.3989H52.4467L56.6588 36.3092H54.1211L52.949 32.6481H48.8336ZM52.5453 30.8675L51.5257 27.6881C51.2764 26.9026 51.0643 26.0206 50.8708 25.2721H50.8336C50.6401 26.0206 50.4504 26.9211 50.2197 27.6881L49.2187 30.8675H52.5453Z" fill="white"/>
<path d="M58.4697 23.5713C59.2176 23.4194 60.5832 23.3008 61.9116 23.3008C63.6605 23.3008 64.7395 23.5139 65.6214 24.1234C66.4289 24.6051 66.9684 25.4482 66.9684 26.5395C66.9684 27.7252 66.2205 28.8184 64.814 29.3335V29.3705C66.1796 29.7189 67.4298 30.7898 67.4298 32.5722C67.4298 33.7209 66.9312 34.6195 66.1796 35.2328C65.2568 36.0369 63.7386 36.4408 61.3721 36.4408C60.066 36.4408 59.0651 36.3444 58.4697 36.2666V23.5694V23.5713ZM60.8139 28.6665H62.027C63.6605 28.6665 64.5833 27.8976 64.5833 26.8063C64.5833 25.5982 63.6605 25.0424 62.1609 25.0424C61.4688 25.0424 61.067 25.0832 60.8139 25.1387V28.6665ZM60.8139 34.6028C61.1228 34.6584 61.5284 34.6584 62.0642 34.6584C63.5861 34.6584 64.9293 34.084 64.9293 32.4943C64.9293 31.001 63.6233 30.3859 61.9898 30.3859H60.8139V34.6028Z" fill="white"/>
<path d="M69.5469 23.397H71.9134V34.3322H77.24V36.3072H69.5487V23.397H69.5469Z" fill="white"/>
<path d="M86.2777 30.5784H81.3958V34.3729H86.8563V36.3072H79.0293V23.397H86.568V25.3313H81.3958V28.6663H86.2777V30.5784Z" fill="white"/>
</g>
<defs>
<clipPath id="clip0_729_16071">
<rect width="109" height="146" fill="white"/>
</clipPath>
</defs>
</svg>
