<svg width="146" height="146" viewBox="0 0 146 146" fill="none" xmlns="http://www.w3.org/2000/svg">
<g clip-path="url(#clip0_729_16121)">
<path d="M73 0C32.6789 0 0 32.6846 0 73C0 113.315 32.6789 146 73 146C113.321 146 146 113.321 146 73C146 32.6789 113.315 0 73 0Z" fill="#203C8A"/>
<path d="M73.0004 2.90674C34.2845 2.90674 2.90137 34.2899 2.90137 73C2.90137 111.71 34.2845 143.093 72.9947 143.093C111.705 143.093 143.088 111.71 143.088 73C143.088 34.2899 111.711 2.90674 73.0004 2.90674Z" fill="white"/>
<path d="M73 18.3174C42.7979 18.3174 18.3174 42.7979 18.3174 73C18.3174 103.202 42.7979 127.683 73 127.683C103.202 127.683 127.683 103.202 127.683 73C127.683 42.7979 103.196 18.3174 73 18.3174Z" fill="#B6CBD8"/>
<path d="M72.9995 22.1528C44.9186 22.1528 22.1523 44.9191 22.1523 73C22.1523 101.081 44.9186 123.847 72.9995 123.847C101.08 123.847 123.852 101.081 123.852 73C123.852 44.9191 101.086 22.1528 72.9995 22.1528Z" fill="#203C8A"/>
<path d="M60.6221 66.0972C65.6386 65.9539 69.0899 65.6672 74.0376 65.7131L86.2836 65.3634L85.9683 54.3787L89.5343 51.7759L105.163 50.3999L105.237 53.0371L102.944 55.3189L103.093 60.5304L119.392 59.5328C120.092 59.4869 120.235 59.9341 120.012 60.5361C118.917 63.5058 117.919 66.3151 116.394 68.7173C115.012 71.2112 113.396 72.8509 110.93 74.9435C105.593 78.8133 100.548 81.3244 92.0282 81.8805C83.5833 82.4309 74.8288 82.7635 67.284 81.8347C64.2225 75.2702 63.265 76.7494 60.6221 66.103M101.476 53.834L95.1986 54.0118L95.3763 60.1864L101.654 60.0086L101.476 53.834Z" fill="#A1DAF8"/>
<path d="M112.278 91.3003C109.922 95.8638 100.978 97.9278 96.592 98.1514C82.3394 98.8852 75.9413 92.3609 64.1253 86.0659C63.724 85.8538 63.1736 85.6015 62.8697 85.4869C62.8468 85.4525 62.8181 85.4181 62.7895 85.3779L62.7321 85.4353C62.5544 85.3837 62.5831 85.4353 63.0417 85.6933L63.122 85.7277C69.9903 90.9161 77.9937 99.0056 85.5787 101.626C94.0924 104.567 111.257 102.675 116.136 93.1119L112.278 91.2945V91.3003Z" fill="#40AEE3"/>
<path d="M112.215 91.2543C109.48 87.115 100.422 86.5302 96.0417 87.029C81.8292 88.6458 76.0445 96.1734 64.8649 104.372C64.4865 104.647 63.9648 104.991 63.6667 105.151C63.6437 105.186 63.6208 105.226 63.5979 105.272L63.5405 105.226C63.3686 105.306 63.3915 105.249 63.8215 104.916L63.9017 104.871C70.2655 98.5927 77.5065 89.242 84.8047 85.3951C92.9974 81.0723 110.208 80.132 115.884 88.8177L112.209 91.2601L112.215 91.2543Z" fill="#40AEE3"/>
<path d="M106.126 89.4425C105.088 89.5342 104.292 90.5375 104.343 91.6841C104.395 92.8308 105.283 93.685 106.321 93.599C107.359 93.5073 108.156 92.504 108.104 91.3574C108.047 90.2107 107.164 89.3565 106.126 89.4425Z" fill="#40AEE3"/>
<path d="M74.1811 72.3291C71.756 77.0302 62.5429 79.1572 58.0194 79.3923C43.3311 80.1491 36.7437 73.4298 24.5666 66.9399C24.1538 66.7221 23.5919 66.4641 23.2709 66.3379C23.2479 66.3035 23.2193 66.2691 23.1906 66.229L23.1333 66.2863C22.9498 66.229 22.9785 66.2863 23.4486 66.5558L23.5346 66.5902C30.615 71.9335 38.8593 80.2695 46.6735 82.9698C55.4395 86.0026 73.132 84.0533 78.1542 74.2038L74.1754 72.3291H74.1811Z" fill="#2694D1"/>
<path d="M74.1175 72.2835C71.2968 68.0181 61.9632 67.4161 57.457 67.9321C42.8146 69.6004 36.8578 77.3574 25.3342 85.7965C24.9444 86.0832 24.4055 86.4329 24.1016 86.6049C24.0787 86.645 24.0558 86.6852 24.0271 86.731L23.9698 86.6794C23.792 86.7654 23.815 86.7024 24.2621 86.3584L24.3424 86.3068C30.9011 79.8398 38.3542 70.2081 45.8818 66.2408C54.321 61.7919 72.0536 60.8173 77.9014 69.7667L74.1175 72.2835Z" fill="#2694D1"/>
<path d="M67.8521 70.4143C66.78 70.506 65.9601 71.538 66.0175 72.719C66.0748 73.9 66.9864 74.7829 68.0585 74.6912C69.1306 74.5994 69.9504 73.5675 69.8931 72.3865C69.8357 71.2054 68.9242 70.3225 67.8521 70.4143Z" fill="#2694D1"/>
<path d="M85.7503 108.763C84.2138 111.733 78.3889 113.08 75.5281 113.229C66.2404 113.705 62.0724 109.457 54.3728 105.358C54.1148 105.22 53.7536 105.054 53.553 104.979C53.5358 104.957 53.5186 104.934 53.5014 104.911L53.467 104.951C53.3523 104.916 53.3695 104.951 53.6676 105.123L53.7192 105.146C58.1968 108.523 63.4082 113.797 68.3502 115.505C73.8941 117.42 85.0795 116.188 88.2614 109.962L85.7445 108.775L85.7503 108.763Z" fill="#2D9BD4"/>
<path d="M85.7099 108.735C83.9269 106.04 78.0275 105.656 75.1724 105.983C65.9134 107.038 62.1467 111.94 54.8599 117.277C54.6134 117.461 54.2751 117.679 54.0802 117.787C54.063 117.81 54.0515 117.839 54.0343 117.868L53.9942 117.839C53.8795 117.891 53.8967 117.856 54.1776 117.633L54.2292 117.604C58.38 113.516 63.0927 107.422 67.8512 104.917C73.1887 102.102 84.4027 101.488 88.1006 107.147L85.7099 108.741V108.735Z" fill="#2D9BD4"/>
<path d="M81.7426 107.554C81.0661 107.611 80.5444 108.265 80.5788 109.01C80.6132 109.755 81.1922 110.317 81.8687 110.26C82.5452 110.202 83.0669 109.549 83.0325 108.798C82.9981 108.052 82.4191 107.491 81.7426 107.554Z" fill="#2D9BD4"/>
<path d="M64.7557 94.0695C63.2192 97.0392 57.3944 98.3865 54.5335 98.5356C45.2459 99.0114 41.0779 94.7632 33.3783 90.664C33.1203 90.5264 32.7591 90.3601 32.5584 90.2856C32.5412 90.2627 32.524 90.2397 32.5068 90.2168L32.4724 90.2512C32.352 90.2168 32.375 90.2512 32.6731 90.4232L32.7247 90.4461C37.2023 93.8229 42.4137 99.0974 47.3557 100.806C52.8996 102.721 64.0849 101.488 67.2611 95.262L64.7443 94.0752L64.7557 94.0695Z" fill="#008BD2"/>
<path d="M64.7157 94.035C62.9327 91.3404 57.0333 90.9563 54.1782 91.2831C44.9192 92.338 41.1526 97.2398 33.8657 102.577C33.6192 102.755 33.281 102.979 33.086 103.088C33.0688 103.111 33.0574 103.139 33.0402 103.162L33 103.133C32.8854 103.185 32.9026 103.151 33.1835 102.933L33.2351 102.904C37.3859 98.8164 42.0985 92.7221 46.857 90.211C52.1946 87.396 63.4086 86.7826 67.1065 92.4412L64.7157 94.0293V94.035Z" fill="#008BD2"/>
<path d="M60.7484 92.8598C60.0719 92.9171 59.5502 93.5707 59.5846 94.316C59.619 95.0613 60.1981 95.6232 60.8746 95.5601C61.5511 95.5028 62.0728 94.8492 62.0384 94.1039C62.004 93.3586 61.425 92.7967 60.7484 92.8598Z" fill="#008BD2"/>
<path d="M58.57 37.2939C56.42 38.6298 55.3078 39.6904 54.0121 41.5766C48.6688 38.3144 49.1561 38.7387 42.6318 40.5733C47.3215 40.235 47.1438 39.6388 50.492 41.4619C57.0793 45.0451 52.7852 42.7691 58.57 37.2939Z" fill="white"/>
<path d="M84.6556 38.6984C82.7178 38.3602 79.5188 40.2636 78.5212 42.2702C72.8511 37.3225 67.4218 38.257 60.9893 41.0433C64.9279 39.9769 66.7396 39.3405 70.8273 40.3725C72.6963 40.8426 78.653 43.7092 78.7218 43.7207C79.3926 43.864 80.6539 38.5838 84.6556 38.6984Z" fill="white"/>
<path d="M67.0604 49.2762L65.8622 51.2198L65.3634 52.0511C62.8867 47.6251 58.3346 44.3916 54.6367 49.2762C56.2363 47.9175 57.5893 47.2754 59.6245 48.3245C65.9998 51.6153 64.2626 57.3829 67.0604 49.2762Z" fill="white"/>
<path d="M93.5989 29.6861L90.7381 32.1571L88.3588 34.4962C82.5913 26.3953 72.2659 27.5133 64.2223 31.5781C64.1134 31.6354 64.1191 31.687 64.0732 31.7959C64.1134 31.7214 64.1306 31.6583 64.1994 31.6239C68.1667 29.6345 75.207 29.4683 79.633 30.592C92.6988 33.9229 83.7608 40.3784 93.6046 29.6861" fill="white"/>
<path d="M49.1449 49.07C48.4741 49.8039 47.425 50.8416 46.7886 51.9309C45.3782 48.921 43.4863 46.3927 39.9547 48.3419C38.6131 49.0815 39.4502 48.7031 37.8965 49.2994C39.3642 49.0987 40.0292 48.7432 41.0956 48.577C43.9736 48.1298 45.4929 54.4993 47.0122 53.9948C47.058 53.9776 49.0933 49.1732 49.1506 49.07" fill="white"/>
<path d="M39.6445 57.744C36.3767 60.7883 37.3054 59.7506 35.4078 62.084C34.4962 60.7768 32.7591 59.7907 31.4404 59.8538C32.9253 60.2265 34.4847 62.5082 34.4159 63.288L34.3873 63.3224H34.4102C34.3987 63.3854 34.3815 63.4313 34.3529 63.4657C35.1956 67.347 39.2432 58.432 39.6445 57.7383" fill="white"/>
<path d="M13.9082 39.8283L16.941 34.9953C17.6003 33.9404 18.3456 33.3097 19.177 33.1033C20.0025 32.8912 20.8797 33.0804 21.8085 33.6595C22.7602 34.2557 23.322 35.0067 23.494 35.9126C23.6717 36.8184 23.3908 37.8561 22.657 39.0314L21.6537 40.6195L25.1451 42.8095L23.3163 45.7277L13.9082 39.8226V39.8283ZM19.7503 39.427L20.1975 38.7161C20.5472 38.16 20.6962 37.7013 20.6504 37.3573C20.5988 37.0076 20.421 36.7382 20.1172 36.5432C19.8191 36.3598 19.5095 36.3024 19.1827 36.3655C18.8502 36.4343 18.5176 36.7382 18.1737 37.2828L17.6577 38.1084L19.7503 39.427Z" fill="#203C8A"/>
<path d="M33.2411 27.8976L29.0215 32.4096C29.4171 32.7077 29.7783 32.8625 30.0993 32.8682C30.558 32.8912 30.9536 32.7306 31.2804 32.3752C31.4868 32.1516 31.6301 31.8936 31.7046 31.5897C31.7505 31.4005 31.7448 31.154 31.7046 30.8502L33.9864 28.8264C34.2559 29.7207 34.296 30.5234 34.1068 31.2457C33.9119 31.9624 33.3959 32.7708 32.5589 33.6651C31.8308 34.4448 31.1485 34.9551 30.5121 35.1959C29.8758 35.4367 29.182 35.4768 28.431 35.322C27.68 35.1672 26.9805 34.7888 26.3384 34.1868C25.4211 33.3269 24.951 32.3408 24.9338 31.2171C24.9166 30.0991 25.3924 29.0213 26.3613 27.9836C27.1468 27.1408 27.8978 26.5962 28.603 26.3497C29.3139 26.1031 30.0305 26.0802 30.7472 26.2751C31.4696 26.4758 32.2149 26.9344 32.9888 27.6625L33.2411 27.8976ZM30.0248 29.1761C29.549 28.8149 29.1304 28.6372 28.7635 28.6486C28.3966 28.6601 28.0698 28.8264 27.7832 29.1302C27.4506 29.4914 27.3245 29.9099 27.4048 30.3858C27.4564 30.6896 27.6341 31.0222 27.9494 31.3833L30.0248 29.1704V29.1761ZM23.5234 26.665L25.0198 25.0654L27.7488 25.3177L26.4645 26.6879L24.9854 26.5732L25.2032 28.0352L23.919 29.4054L23.5234 26.6592V26.665Z" fill="#203C8A"/>
<path d="M39.679 23.2021L42.2532 21.7517C42.4825 22.3422 42.5742 22.927 42.5398 23.506C42.4997 24.085 42.322 24.6412 42.0066 25.1743C41.6856 25.7133 41.1696 26.2407 40.453 26.7567C39.7593 27.2555 39.1401 27.6109 38.584 27.8116C38.0279 28.0122 37.4832 28.0925 36.9443 28.0409C36.4054 27.9893 35.8951 27.8403 35.4307 27.588C34.9606 27.3357 34.4962 26.8885 34.0261 26.2464C33.5445 25.5757 33.2521 24.9336 33.1604 24.3201C33.0916 23.8672 33.1088 23.4143 33.212 22.9384C33.3152 22.4683 33.47 22.0613 33.6879 21.7115C34.0319 21.1611 34.5822 20.605 35.3447 20.0547C36.4054 19.2864 37.3571 18.8851 38.1884 18.8622C39.0254 18.8392 39.8166 19.1144 40.5734 19.682L38.4464 21.6943C38.1712 21.4707 37.8845 21.3561 37.5921 21.3561C37.294 21.3561 36.9787 21.4707 36.6576 21.7058C36.2448 22.0039 36.0155 22.3995 35.9754 22.8811C35.9353 23.3627 36.1302 23.9016 36.5659 24.5036C36.95 25.0367 37.3743 25.3578 37.8272 25.4495C38.2858 25.547 38.7044 25.4495 39.0999 25.1629C39.4267 24.9278 39.6389 24.6412 39.7421 24.3144C39.8453 23.9876 39.8223 23.6092 39.6847 23.1792" fill="#203C8A"/>
<path d="M40.252 13.2264L43.0497 11.9307L44.7697 15.64C44.9646 15.0667 45.2168 14.6138 45.5092 14.2698C45.8074 13.9258 46.2144 13.6334 46.7247 13.3983C47.4814 13.0486 48.1866 13.0028 48.8459 13.2608C49.4995 13.5187 50.0441 14.1322 50.4913 15.0839L52.6413 19.7277L49.832 21.0291L47.9745 17.016C47.7624 16.5573 47.5273 16.2706 47.2693 16.1617C47.0113 16.0528 46.7304 16.0643 46.4208 16.2076C46.0826 16.3681 45.8647 16.6204 45.773 16.9758C45.6812 17.3313 45.7902 17.8358 46.094 18.5066L47.7222 22.0095L44.9245 23.3052L40.252 13.2321V13.2264Z" fill="#203C8A"/>
<path d="M62.0556 13.5934L56.1103 15.2847C56.2995 15.7491 56.5289 16.0644 56.7983 16.2421C57.1767 16.4944 57.601 16.5574 58.0596 16.4256C58.352 16.3453 58.61 16.1905 58.8279 15.9727C58.9654 15.8351 59.0916 15.6229 59.2062 15.3363L62.2047 14.7744C61.9811 15.6803 61.597 16.3912 61.0638 16.9072C60.5249 17.4231 59.6706 17.8474 58.4896 18.1856C57.4634 18.478 56.6206 18.564 55.9498 18.4436C55.279 18.3232 54.6599 18.0022 54.098 17.4805C53.5304 16.9645 53.1291 16.2765 52.8883 15.428C52.5443 14.2183 52.6533 13.129 53.2151 12.1601C53.777 11.1912 54.7401 10.5147 56.1046 10.1249C57.2111 9.80954 58.1341 9.72928 58.868 9.88407C59.6076 10.0389 60.2325 10.3829 60.7485 10.9275C61.2644 11.4664 61.6658 12.2461 61.9581 13.2666L62.0499 13.6049L62.0556 13.5934ZM58.6387 13.0316C58.4151 12.4754 58.1456 12.1085 57.8246 11.9308C57.5035 11.7531 57.1423 11.7244 56.7295 11.8391C56.2594 11.9709 55.9384 12.2633 55.7606 12.7162C55.6517 13.0029 55.6288 13.3813 55.7148 13.8571L58.6387 13.0258V13.0316Z" fill="#203C8A"/>
<path d="M69.8348 4.93066H74.9373C75.9406 4.93066 76.7547 5.06826 77.3739 5.34345C77.9931 5.61864 78.5033 6.00849 78.9047 6.51874C79.3117 7.02899 79.6041 7.62524 79.7818 8.29601C79.9653 8.97252 80.057 9.68917 80.0513 10.4517C80.0513 11.6384 79.9137 12.5557 79.6442 13.2093C79.3748 13.8629 78.9964 14.4133 78.5205 14.8547C78.039 15.2962 77.5287 15.5886 76.9726 15.7376C76.2215 15.9383 75.5393 16.0415 74.9259 16.0415H69.8291V4.9364L69.8348 4.93066ZM73.269 7.44751V13.5132H74.1118C74.8284 13.5132 75.3386 13.4329 75.6425 13.2724C75.9464 13.1118 76.1814 12.8367 76.3534 12.4411C76.5254 12.0455 76.6114 11.4034 76.6114 10.509C76.6114 9.33371 76.4222 8.52534 76.0381 8.09535C75.654 7.65964 75.0233 7.44751 74.129 7.44178H73.269V7.44751Z" fill="#203C8A"/>
<path d="M89.9589 18.1971L87.1325 17.6467L87.379 16.3682C86.8573 16.8096 86.3585 17.102 85.8884 17.2396C85.4126 17.3772 84.8679 17.3887 84.243 17.2683C83.406 17.1078 82.804 16.7294 82.4313 16.1389C82.0529 15.5483 81.9669 14.7342 82.1676 13.7023L83.148 8.67432L86.1923 9.26483L85.3495 13.6048C85.252 14.1036 85.275 14.4705 85.4183 14.717C85.5616 14.9578 85.7967 15.1184 86.1292 15.1814C86.4904 15.2502 86.8172 15.17 87.0981 14.9406C87.3847 14.7056 87.5969 14.2297 87.7345 13.5131L88.4741 9.71201L91.5011 10.2968L89.9647 18.1913L89.9589 18.1971Z" fill="#203C8A"/>
<path d="M94.4421 11.5697L97.1539 12.5558L96.7009 13.7942C97.1596 13.3527 97.5609 13.0832 97.9106 12.98C98.2603 12.8769 98.6445 12.9055 99.0458 13.0546C99.4758 13.2094 99.8943 13.5132 100.301 13.9604L98.6559 15.6976C98.3635 15.4281 98.1228 15.2618 97.9221 15.1873C97.5437 15.0497 97.194 15.1013 96.8672 15.3364C96.4085 15.6689 95.9614 16.4371 95.5142 17.6468L94.5911 20.1809L91.6787 19.1202L94.4363 11.564L94.4421 11.5697Z" fill="#203C8A"/>
<path d="M103.357 18.3348L100.897 16.6779C101.235 16.2709 101.574 15.9899 101.895 15.8294C102.222 15.6689 102.606 15.5829 103.059 15.5771C103.38 15.5771 103.781 15.6459 104.257 15.8065C104.733 15.9613 105.226 16.1734 105.736 16.4429C106.556 16.8786 107.186 17.2742 107.628 17.6296C108.075 17.9851 108.385 18.3921 108.562 18.8565C108.689 19.1776 108.717 19.5617 108.66 20.0031C108.603 20.4388 108.482 20.8287 108.299 21.1612L106.63 24.2972C106.453 24.6298 106.332 24.905 106.281 25.1171C106.223 25.3292 106.183 25.6216 106.172 25.9943L103.615 24.6355C103.615 24.4004 103.615 24.2227 103.638 24.1138C103.655 23.9991 103.706 23.8329 103.787 23.6093C103.248 23.7641 102.76 23.8214 102.33 23.7813C101.74 23.7239 101.132 23.5233 100.49 23.185C99.6416 22.7321 99.1027 22.1989 98.8734 21.5683C98.6441 20.9434 98.6842 20.3414 98.988 19.7681C99.2747 19.2292 99.6703 18.868 100.169 18.6845C100.668 18.5068 101.39 18.5584 102.336 18.845C103.466 19.1833 104.205 19.3897 104.549 19.4699C104.893 19.5502 105.277 19.6075 105.684 19.6591C105.862 19.3266 105.914 19.0514 105.851 18.845C105.782 18.6386 105.575 18.4437 105.226 18.2545C104.784 18.0195 104.406 17.9105 104.108 17.9335C103.878 17.9507 103.62 18.0883 103.357 18.3405M104.951 21.0236C104.503 20.9606 104.05 20.8688 103.592 20.7542C102.961 20.6108 102.537 20.565 102.313 20.628C102.084 20.6968 101.918 20.823 101.814 21.0122C101.7 21.2243 101.683 21.4364 101.757 21.6543C101.832 21.8721 102.015 22.0556 102.308 22.2104C102.606 22.3709 102.927 22.4512 103.271 22.4397C103.609 22.434 103.89 22.348 104.113 22.1932C104.331 22.0384 104.538 21.7919 104.715 21.4536L104.945 21.0179L104.951 21.0236Z" fill="#203C8A"/>
<path d="M114.37 18.5469L116.79 20.5076L114.37 23.4946C114.812 23.4372 115.236 23.4716 115.643 23.592C116.05 23.7182 116.434 23.9246 116.807 24.2227C117.569 24.8419 117.977 25.6216 118.028 26.5733C118.08 27.525 117.696 28.5111 116.864 29.5373C116.314 30.2195 115.712 30.7298 115.058 31.068C114.411 31.4006 113.78 31.5382 113.166 31.4636C112.553 31.3948 112.003 31.1655 111.515 30.7642C111.097 30.4259 110.781 30.0246 110.581 29.5602C110.432 29.2048 110.357 28.706 110.363 28.0696L109.618 28.9984L107.376 27.181L114.365 18.5469H114.37ZM112.329 25.977C111.894 26.5159 111.676 26.986 111.682 27.3931C111.687 27.7944 111.848 28.1269 112.157 28.3735C112.444 28.6085 112.777 28.6831 113.166 28.6028C113.556 28.5225 113.975 28.2015 114.428 27.6454C114.829 27.1466 115.03 26.7109 115.024 26.321C115.018 25.9312 114.886 25.633 114.611 25.4152C114.284 25.1514 113.917 25.054 113.522 25.1285C113.121 25.203 112.719 25.484 112.324 25.977" fill="#203C8A"/>
<path d="M123.357 26.6796L115.103 34.1089L117.17 36.4057L125.424 28.9764L123.357 26.6796Z" fill="#203C8A"/>
<path d="M126.123 43.5487L122.666 38.4232C122.288 38.7443 122.058 39.0596 121.972 39.3749C121.852 39.8164 121.921 40.2349 122.19 40.6362C122.362 40.8885 122.586 41.0834 122.861 41.2267C123.033 41.3127 123.274 41.3643 123.583 41.3873L125.051 44.0646C124.122 44.1334 123.325 43.9901 122.672 43.6404C122.012 43.2907 121.342 42.6084 120.659 41.5879C120.063 40.705 119.719 39.9253 119.627 39.2545C119.53 38.578 119.645 37.8901 119.966 37.1963C120.281 36.4969 120.808 35.9007 121.542 35.4076C122.586 34.7024 123.658 34.4731 124.753 34.7024C125.848 34.9318 126.794 35.6369 127.585 36.818C128.227 37.7697 128.588 38.6239 128.674 39.3692C128.76 40.1202 128.623 40.8197 128.267 41.479C127.918 42.1383 127.298 42.7632 126.415 43.3537L126.129 43.5487H126.123ZM125.59 40.1202C126.049 39.7419 126.318 39.3692 126.381 39.008C126.45 38.6468 126.364 38.2971 126.129 37.9417C125.854 37.5346 125.475 37.3167 124.988 37.2938C124.684 37.2709 124.317 37.3741 123.893 37.6034L125.59 40.1202Z" fill="#203C8A"/>
<path d="M28.7346 109.744L32.9083 113.636C33.8199 114.485 34.2957 115.333 34.3473 116.188C34.3989 117.042 34.0492 117.867 33.3039 118.664C32.5414 119.484 31.6929 119.897 30.7699 119.897C29.8468 119.897 28.8779 119.427 27.8689 118.481L26.4929 117.197L23.6837 120.212L21.1611 117.862L28.7346 109.738V109.744ZM28.0294 115.557L28.6429 116.13C29.1245 116.577 29.543 116.812 29.8984 116.83C30.2539 116.841 30.552 116.721 30.7928 116.457C31.0336 116.205 31.1483 115.907 31.1425 115.574C31.1425 115.236 30.896 114.852 30.4316 114.41L29.715 113.745L28.0237 115.557H28.0294Z" fill="#203C8A"/>
<path d="M38.3893 127.849L33.327 124.306C33.0862 124.741 32.9887 125.12 33.0231 125.441C33.069 125.899 33.2868 126.261 33.6824 126.536C33.9289 126.713 34.2099 126.811 34.5195 126.845C34.7144 126.862 34.9552 126.828 35.2533 126.736L37.581 128.709C36.7382 129.104 35.947 129.259 35.2074 129.167C34.4679 129.081 33.5964 128.686 32.5931 127.98C31.716 127.367 31.1197 126.765 30.7872 126.169C30.4604 125.573 30.3171 124.89 30.3687 124.122C30.4145 123.36 30.6897 122.614 31.1942 121.892C31.9166 120.86 32.8282 120.258 33.9347 120.08C35.0412 119.902 36.1763 120.224 37.3344 121.038C38.2804 121.697 38.9225 122.362 39.2665 123.027C39.6105 123.692 39.7366 124.397 39.6449 125.143C39.5532 125.882 39.1977 126.69 38.59 127.556L38.3893 127.843V127.849ZM36.6694 124.839C36.9618 124.317 37.0764 123.876 37.0076 123.514C36.9388 123.153 36.7382 122.855 36.3885 122.609C35.9871 122.333 35.5572 122.265 35.0928 122.414C34.8004 122.505 34.4965 122.729 34.1812 123.096L36.6694 124.839ZM38.2345 118.045L40.029 119.3L40.1666 122.041L38.6301 120.963L38.5384 119.484L37.1166 119.902L35.5801 118.825L38.246 118.045H38.2345Z" fill="#203C8A"/>
<path d="M44.5354 131.105L46.9949 132.733C46.5764 133.204 46.1006 133.553 45.5674 133.788C45.0342 134.018 44.4609 134.115 43.836 134.075C43.2111 134.035 42.5059 133.811 41.7205 133.416C40.9579 133.026 40.3617 132.636 39.926 132.235C39.4903 131.833 39.1749 131.38 38.9743 130.876C38.7679 130.377 38.6762 129.861 38.6819 129.328C38.6934 128.795 38.8768 128.176 39.238 127.47C39.6164 126.731 40.0521 126.18 40.5566 125.819C40.9235 125.556 41.3421 125.361 41.8064 125.234C42.2708 125.114 42.7066 125.062 43.1136 125.097C43.7614 125.148 44.5068 125.389 45.3381 125.814C46.5076 126.41 47.2931 127.075 47.6944 127.803C48.0957 128.537 48.2161 129.368 48.0498 130.297L45.2865 129.322C45.361 128.972 45.3323 128.669 45.1947 128.405C45.0571 128.141 44.8163 127.918 44.4552 127.734C44.0022 127.499 43.5493 127.476 43.1021 127.66C42.655 127.843 42.2594 128.267 41.9268 128.927C41.623 129.517 41.537 130.033 41.6631 130.486C41.7835 130.933 42.0644 131.266 42.4944 131.489C42.8556 131.673 43.1996 131.736 43.5436 131.673C43.8818 131.615 44.2086 131.421 44.524 131.105" fill="#203C8A"/>
<path d="M50.2455 124.982L53.1752 125.934L51.9139 129.821C52.4471 129.54 52.9344 129.368 53.3873 129.322C53.8402 129.27 54.3333 129.333 54.8722 129.511C55.6691 129.769 56.2137 130.216 56.5176 130.847C56.8157 131.483 56.8043 132.303 56.4775 133.306L54.8951 138.168L51.9483 137.211L53.3185 133.003C53.4733 132.521 53.4962 132.154 53.3816 131.896C53.2669 131.638 53.049 131.46 52.728 131.357C52.3725 131.243 52.04 131.283 51.7304 131.478C51.4208 131.673 51.1514 132.12 50.9278 132.819L49.7353 136.494L46.8057 135.542L50.2341 124.982H50.2455Z" fill="#203C8A"/>
<path d="M66.0913 137.022L60.0027 135.95C59.974 136.448 60.0428 136.832 60.2091 137.108C60.4441 137.503 60.7939 137.744 61.264 137.824C61.5621 137.882 61.8602 137.853 62.1526 137.75C62.3361 137.687 62.5425 137.549 62.7718 137.343L65.7129 138.145C65.1167 138.862 64.4631 139.332 63.7579 139.561C63.047 139.797 62.0896 139.802 60.8856 139.59C59.8364 139.407 59.0338 139.109 58.4834 138.707C57.933 138.306 57.5203 137.75 57.2336 137.033C56.9527 136.317 56.8896 135.525 57.0444 134.654C57.2623 133.416 57.8356 132.487 58.7643 131.862C59.6931 131.237 60.8569 131.042 62.2558 131.289C63.391 131.489 64.251 131.816 64.8472 132.28C65.4434 132.739 65.8562 133.324 66.0856 134.035C66.3149 134.746 66.3378 135.623 66.1486 136.666L66.0913 137.01V137.022ZM63.2591 135.021C63.305 134.425 63.219 133.977 63.0069 133.674C62.7947 133.375 62.4794 133.192 62.0666 133.117C61.585 133.031 61.1665 133.158 60.8111 133.49C60.5817 133.696 60.404 134.035 60.2722 134.499L63.2649 135.027L63.2591 135.021Z" fill="#203C8A"/>
<path d="M71.5898 129.683L76.6751 129.328C77.6784 129.259 78.4983 129.339 79.1346 129.569C79.771 129.792 80.3042 130.154 80.7457 130.629C81.1814 131.111 81.5196 131.684 81.749 132.344C81.9783 133.003 82.1216 133.714 82.1675 134.471C82.2535 135.652 82.1789 136.58 81.9553 137.251C81.7318 137.922 81.3992 138.495 80.9463 138.971C80.4991 139.441 80.0061 139.774 79.4672 139.957C78.7333 140.215 78.0568 140.359 77.4491 140.404L72.3638 140.76L71.5898 129.683ZM75.1902 131.954L75.6088 138.002L76.4458 137.945C77.1624 137.893 77.667 137.779 77.9536 137.601C78.246 137.423 78.4639 137.125 78.6072 136.718C78.7505 136.311 78.7907 135.663 78.7333 134.78C78.6531 133.605 78.4008 132.814 77.988 132.407C77.5752 132 76.9274 131.828 76.0388 131.891L75.1845 131.948L75.1902 131.954Z" fill="#203C8A"/>
<path d="M92.4587 137.956L89.6437 138.552L89.3742 137.28C89.0647 137.893 88.7207 138.358 88.3423 138.667C87.9639 138.977 87.4594 139.206 86.8345 139.338C86.0032 139.516 85.298 139.401 84.7247 139.005C84.1456 138.61 83.75 137.893 83.5322 136.867L82.4658 131.856L85.4987 131.214L86.4217 135.543C86.5249 136.036 86.6911 136.368 86.9205 136.534C87.1498 136.706 87.425 136.752 87.7575 136.683C88.1187 136.609 88.3824 136.408 88.5544 136.081C88.7264 135.755 88.7321 135.233 88.5831 134.516L87.7747 130.732L90.7903 130.09L92.4644 137.962L92.4587 137.956Z" fill="#203C8A"/>
<path d="M91.7245 129.483L94.4707 128.588L94.8777 129.844C94.9637 129.219 95.1185 128.755 95.3364 128.456C95.5485 128.158 95.8638 127.946 96.2766 127.814C96.7066 127.677 97.2283 127.654 97.8245 127.757L97.5952 130.142C97.1996 130.108 96.9015 130.125 96.7008 130.194C96.3167 130.32 96.0702 130.572 95.9613 130.962C95.8007 131.506 95.9269 132.389 96.3225 133.616L97.1538 136.185L94.2069 137.142L91.7188 129.494L91.7245 129.483Z" fill="#203C8A"/>
<path d="M101.001 128.714L98.2376 129.775C98.1 129.265 98.0599 128.829 98.1115 128.474C98.1688 128.112 98.3179 127.745 98.5701 127.378C98.7536 127.109 99.046 126.822 99.4473 126.524C99.8486 126.22 100.307 125.945 100.823 125.681C101.643 125.263 102.331 124.971 102.876 124.804C103.42 124.644 103.936 124.627 104.418 124.747C104.756 124.833 105.089 125.022 105.41 125.326C105.731 125.63 105.983 125.951 106.155 126.289L107.766 129.454C107.938 129.792 108.093 130.044 108.23 130.216C108.368 130.383 108.592 130.583 108.884 130.807L106.304 132.12C106.109 131.988 105.966 131.885 105.886 131.799C105.805 131.718 105.696 131.581 105.559 131.392C105.375 131.925 105.146 132.349 104.865 132.682C104.481 133.129 103.965 133.513 103.323 133.84C102.469 134.275 101.718 134.407 101.07 134.235C100.428 134.063 99.9576 133.691 99.6594 133.112C99.3842 132.567 99.3097 132.04 99.453 131.524C99.5906 131.008 100.049 130.446 100.823 129.838C101.752 129.104 102.343 128.623 102.606 128.382C102.87 128.141 103.139 127.866 103.415 127.562C103.243 127.224 103.053 127.023 102.841 126.96C102.629 126.897 102.354 126.96 102.004 127.132C101.551 127.361 101.253 127.608 101.104 127.866C100.984 128.066 100.955 128.353 101.001 128.72M104.12 128.944C103.81 129.27 103.478 129.591 103.122 129.907C102.635 130.337 102.36 130.664 102.285 130.881C102.205 131.111 102.216 131.317 102.314 131.506C102.423 131.718 102.589 131.856 102.807 131.919C103.031 131.982 103.289 131.936 103.581 131.787C103.885 131.632 104.131 131.415 104.32 131.128C104.51 130.841 104.601 130.566 104.607 130.297C104.607 130.027 104.521 129.723 104.349 129.379L104.126 128.944H104.12Z" fill="#203C8A"/>
<path d="M103.81 120.808L106.361 119.025L108.568 122.173C108.637 121.731 108.786 121.33 109.01 120.98C109.233 120.625 109.543 120.31 109.933 120.034C110.735 119.473 111.601 119.295 112.53 119.507C113.458 119.713 114.301 120.361 115.058 121.439C115.562 122.156 115.884 122.878 116.033 123.589C116.176 124.306 116.13 124.948 115.895 125.515C115.66 126.083 115.287 126.547 114.771 126.908C114.324 127.218 113.854 127.407 113.355 127.476C112.977 127.522 112.478 127.453 111.859 127.275L112.541 128.25L110.179 129.907L103.81 120.814V120.808ZM110.385 124.816C110.781 125.383 111.171 125.716 111.567 125.825C111.956 125.928 112.318 125.871 112.644 125.641C112.948 125.429 113.114 125.125 113.143 124.736C113.172 124.346 112.977 123.847 112.564 123.256C112.197 122.735 111.83 122.425 111.458 122.322C111.085 122.219 110.758 122.265 110.471 122.465C110.127 122.706 109.938 123.027 109.898 123.434C109.858 123.841 110.024 124.3 110.385 124.822" fill="#203C8A"/>
<path d="M113.752 113.078L111.385 115.064L118.523 123.571L120.89 121.585L113.752 113.078Z" fill="#203C8A"/>
<path d="M126.358 111.28L122.305 115.941C122.718 116.228 123.079 116.366 123.406 116.366C123.864 116.366 124.248 116.188 124.564 115.827C124.764 115.603 124.896 115.328 124.959 115.024C124.994 114.835 124.982 114.588 124.931 114.285L127.138 112.175C127.442 113.058 127.511 113.86 127.344 114.588C127.178 115.316 126.696 116.136 125.888 117.065C125.189 117.868 124.529 118.407 123.899 118.67C123.274 118.934 122.58 119.003 121.823 118.877C121.067 118.751 120.356 118.401 119.691 117.816C118.739 116.991 118.234 116.022 118.183 114.898C118.125 113.78 118.561 112.685 119.49 111.619C120.247 110.747 120.975 110.18 121.674 109.904C122.374 109.629 123.09 109.578 123.813 109.75C124.547 109.922 125.309 110.352 126.106 111.045L126.364 111.275L126.358 111.28ZM123.182 112.674C122.695 112.33 122.265 112.169 121.898 112.198C121.531 112.221 121.21 112.398 120.935 112.719C120.614 113.092 120.505 113.516 120.602 113.992C120.665 114.29 120.86 114.617 121.187 114.973L123.182 112.679V112.674Z" fill="#203C8A"/>
</g>
<defs>
<clipPath id="clip0_729_16121">
<rect width="146" height="146" fill="white"/>
</clipPath>
</defs>
</svg>
