<svg preserveAspectRatio="none" width="100%" height="100%" overflow="visible" style="display: block;" viewBox="0 0 27 27" fill="none" xmlns="http://www.w3.org/2000/svg">
<path id="Vector" d="M18.9669 17.7955H16.8471V13.8905C16.8471 13.0537 16.2335 12.4401 15.4525 12.4401C14.6715 12.4401 13.9463 13.1095 13.8905 13.8905V17.7955H11.7707V10.5434H13.8905V11.5475C14.3368 10.8781 15.1178 10.4318 15.9545 10.4318H16.5682C17.9628 10.4318 19.0227 11.5475 19.0227 12.8864V17.7955H18.9669ZM10.655 8.14463C10.655 8.86983 10.0413 9.42769 9.3719 9.42769C8.70248 9.42769 8.08884 8.81405 8.08884 8.14463C8.08884 7.47521 8.64669 6.86157 9.3719 6.86157C10.0971 6.86157 10.655 7.41942 10.655 8.14463ZM8.2562 10.5434H10.4318V17.7955H8.2562V10.5434ZM27 13.5C27 6.02479 20.9752 0 13.5 0C6.02479 0 0 6.02479 0 13.5C0 20.9752 6.02479 27 13.5 27C20.9752 27 27 20.9752 27 13.5Z" fill="var(--fill-0, white)"/>
</svg>
