<svg width="132" height="119" viewBox="0 0 132 119" fill="none" xmlns="http://www.w3.org/2000/svg">
<g clip-path="url(#clip0_729_16204)">
<path d="M65.9972 117.913C39.6503 117.913 17.3245 100.395 10.0578 76.3983H8.89941C11.6704 85.8155 16.7734 94.4419 23.9074 101.579C35.1494 112.817 50.0961 119.005 65.9921 119.005C81.888 119.005 96.8399 112.817 108.077 101.579C115.216 94.4419 120.314 85.8155 123.085 76.3983H121.926C114.665 100.395 92.3339 117.913 65.987 117.913H65.9972ZM65.9972 1.08659C92.3441 1.08659 114.67 18.6047 121.937 42.6017H123.095C120.324 33.1845 115.221 24.5581 108.087 17.4212C96.845 6.18798 81.8982 0 65.9972 0C50.0961 0 35.1494 6.18798 23.9125 17.4263C16.7734 24.5632 11.6755 33.1896 8.90452 42.6068H10.0629C17.3245 18.6098 39.6554 1.08659 65.9972 1.08659Z" fill="#002C41"/>
<path d="M65.997 98.2371C50.688 98.2371 37.4201 89.3148 31.1331 76.3981H29.9033C31.8425 80.5302 34.5062 84.3409 37.8283 87.6619C45.3502 95.1814 55.3572 99.3237 65.997 99.3237C76.6368 99.3237 86.6439 95.1814 94.1657 87.6619C97.4878 84.3358 100.152 80.5302 102.091 76.3981H100.861C94.5689 89.3148 81.3061 98.2371 65.997 98.2371ZM65.997 20.7624C81.3061 20.7624 94.574 29.6847 100.861 42.6065H102.091C100.152 38.4693 97.4878 34.6636 94.1657 31.3375C86.6439 23.8181 76.6368 19.6758 65.997 19.6758C55.3572 19.6758 45.3502 23.8181 37.8283 31.3375C34.5062 34.6636 31.8425 38.4693 29.9033 42.6065H31.1331C37.4252 29.6847 50.688 20.7624 65.997 20.7624Z" fill="#002C41"/>
<path d="M25.1482 40.7297L17.7539 36.8272L20.2493 32.1084L21.2699 32.6491L19.4481 36.1028L21.6118 37.2455L23.1019 34.4244L24.1072 34.955L22.6171 37.7709L25.8167 39.4646L25.1482 40.7297Z" fill="#002C41"/>
<path d="M31.2607 29.3022C31.6128 28.8992 31.8272 28.4707 31.9037 28.0115C31.9803 27.5524 31.919 27.0933 31.72 26.6291C31.5159 26.1699 31.1791 25.7363 30.7045 25.3231C30.2299 24.9099 29.7502 24.6344 29.2706 24.5018C28.7858 24.364 28.3214 24.3692 27.8774 24.5069C27.4335 24.6497 27.0354 24.9201 26.6884 25.3231C26.3363 25.7261 26.122 26.1546 26.0454 26.6138C25.9689 27.0729 26.0301 27.532 26.2291 27.9962C26.4282 28.4605 26.765 28.8941 27.2395 29.3073C27.7141 29.7205 28.1938 29.9909 28.6786 30.1235C29.1634 30.2561 29.6329 30.251 30.0717 30.1133C30.5157 29.9756 30.9137 29.7001 31.2607 29.2971V29.3022ZM32.2303 30.1592C31.7047 30.7663 31.1025 31.1795 30.4238 31.4091C29.7451 31.6386 29.046 31.6692 28.3265 31.5111C27.607 31.3478 26.9232 30.9856 26.2751 30.4245C25.6321 29.8684 25.183 29.241 24.9177 28.5523C24.6574 27.8636 24.5911 27.1647 24.7238 26.4556C24.8513 25.7516 25.1779 25.0935 25.7086 24.4865C26.2445 23.8692 26.8568 23.4458 27.5406 23.2162C28.2244 22.9867 28.9235 22.9561 29.638 23.1244C30.3524 23.2928 31.0311 23.655 31.6741 24.2161C32.3222 24.7773 32.7814 25.4047 33.0417 26.0883C33.307 26.7719 33.3734 27.4657 33.2407 28.1748C33.1029 28.8788 32.7712 29.542 32.2303 30.1592Z" fill="#002C41"/>
<path d="M40.1863 21.3899C40.6303 21.0889 40.9466 20.7318 41.1406 20.3033C41.3345 19.8799 41.3906 19.4208 41.3141 18.9208C41.2375 18.426 41.0232 17.9159 40.666 17.3955C40.3139 16.8752 39.9209 16.4875 39.4872 16.2324C39.0534 15.9773 38.6044 15.86 38.14 15.8855C37.6756 15.9059 37.2214 16.0692 36.7775 16.365C36.3335 16.666 36.0171 17.0282 35.8232 17.4516C35.6293 17.875 35.5681 18.3342 35.6446 18.8341C35.716 19.334 35.9304 19.8442 36.2876 20.3645C36.6397 20.8849 37.0377 21.2726 37.4715 21.5225C37.9052 21.7725 38.3543 21.8898 38.8238 21.8643C39.2882 21.8439 39.7423 21.6807 40.1863 21.3848V21.3899ZM40.9007 22.4663C40.2373 22.9152 39.5433 23.1652 38.8289 23.2162C38.1145 23.2672 37.4307 23.1142 36.7775 22.7724C36.1243 22.4306 35.5527 21.9051 35.0731 21.196C34.5934 20.4921 34.3178 19.7728 34.2464 19.0382C34.1698 18.3036 34.2872 17.6098 34.5883 16.9619C34.8945 16.314 35.3792 15.7631 36.0426 15.3142C36.7213 14.855 37.4205 14.6 38.14 14.554C38.8595 14.5081 39.5433 14.6561 40.1914 15.003C40.8395 15.3448 41.4008 15.8702 41.8805 16.5742C42.3602 17.2884 42.646 18.0026 42.7276 18.7372C42.8093 19.4667 42.6919 20.1554 42.3857 20.8032C42.0795 21.4511 41.5794 22.0072 40.9007 22.4663Z" fill="#002C41"/>
<path d="M48.5856 16.7684L49.7083 16.3654C50.387 16.1206 50.8871 15.8145 51.2034 15.4523C51.5147 15.0901 51.6831 14.6718 51.7035 14.1922C51.724 13.7178 51.627 13.1924 51.4178 12.6159C51.2085 12.0343 50.9432 11.5599 50.6268 11.2079C50.3104 10.8559 49.9124 10.6315 49.4378 10.5447C48.9632 10.458 48.3815 10.5396 47.7028 10.7845L46.5801 11.1926L48.5907 16.7735L48.5856 16.7684ZM47.6466 18.4009L44.8145 10.5396L47.3507 9.62649C48.2641 9.2949 49.0806 9.18777 49.7899 9.2949C50.4992 9.40203 51.1065 9.69791 51.6066 10.1825C52.1067 10.6672 52.5047 11.3099 52.7956 12.1211C53.0814 12.9169 53.1834 13.6566 53.1069 14.3504C53.0303 15.0442 52.7548 15.6563 52.2751 16.192C51.7954 16.7276 51.0963 17.1612 50.1828 17.4877L47.6415 18.4009H47.6466Z" fill="#002C41"/>
<path d="M66.2422 14.7738C65.6349 14.7636 65.0991 14.6463 64.6347 14.4269C64.1703 14.2024 63.808 13.8913 63.5478 13.4882C63.2926 13.0852 63.165 12.6108 63.165 12.0599L64.6806 12.0854C64.6806 12.3659 64.7368 12.6159 64.8643 12.8353C64.9919 13.0546 65.1705 13.2332 65.4053 13.3658C65.64 13.4984 65.9207 13.5648 66.2575 13.5699C66.5432 13.5699 66.7933 13.5342 67.0076 13.4423C67.2168 13.3556 67.3852 13.2281 67.5026 13.0546C67.62 12.8863 67.6812 12.6873 67.6863 12.4578C67.6863 12.1925 67.6302 11.9782 67.5128 11.8048C67.3903 11.6313 67.2271 11.4834 67.0127 11.361C66.8035 11.2385 66.5535 11.1263 66.2779 11.0345C66.0023 10.9376 65.7063 10.8355 65.3951 10.7284C64.7368 10.4937 64.2469 10.203 63.9152 9.85096C63.5886 9.49896 63.4253 9.03474 63.4355 8.45318C63.4457 7.96855 63.5682 7.55023 63.8029 7.20334C64.0377 6.85644 64.3694 6.59117 64.7878 6.40242C65.2062 6.21367 65.691 6.12695 66.2422 6.13205C66.7984 6.13715 67.2832 6.24938 67.7016 6.45344C68.115 6.65749 68.4416 6.94317 68.6814 7.30027C68.9213 7.65736 69.0386 8.08078 69.0386 8.57561L67.5077 8.5501C67.5077 8.34605 67.4516 8.14709 67.3495 7.96855C67.2475 7.7849 67.1046 7.63696 66.9107 7.51962C66.7167 7.40229 66.482 7.34108 66.2013 7.33597C65.9615 7.32577 65.7472 7.35638 65.5584 7.438C65.3695 7.51962 65.2165 7.63696 65.1093 7.79C65.0021 7.94304 64.9409 8.13689 64.9409 8.36645C64.9409 8.59092 64.9817 8.77457 65.0787 8.92251C65.1756 9.07045 65.3185 9.19288 65.5073 9.30001C65.6961 9.40204 65.9156 9.49896 66.1707 9.59079C66.4259 9.68261 66.7014 9.77954 67.0025 9.89177C67.4159 10.0346 67.7884 10.203 68.1252 10.4019C68.462 10.606 68.7273 10.861 68.9213 11.1722C69.1152 11.4885 69.207 11.8915 69.1968 12.3863C69.1917 12.8149 69.0743 13.2128 68.8447 13.5801C68.6151 13.9474 68.2834 14.2381 67.8547 14.4626C67.421 14.682 66.88 14.784 66.2371 14.7738H66.2422Z" fill="#002C41"/>
<path d="M74.229 13.3096L74.8567 12.2893L78.8676 13.2229L78.9799 14.4115L74.2239 13.3045L74.229 13.3096ZM72.4531 14.9217L77.3265 7.47363L78.888 7.83583L79.9699 16.6714L78.4951 16.3296L77.7195 9.28462L73.9126 15.2634L72.4582 14.9217H72.4531Z" fill="#002C41"/>
<path d="M83.2969 18.013L86.9302 10.4834L91.7373 12.8045L91.2321 13.8503L87.7161 12.1516L86.6496 14.3553L89.5226 15.7378L89.0276 16.7632L86.1597 15.3756L84.5879 18.6354L83.2969 18.013Z" fill="#002C41"/>
<path d="M91.2266 22.2929L96.3194 15.6611L100.601 18.9464L99.8915 19.8647L96.748 17.4517L95.2886 19.3596L98.1514 21.5481L97.4574 22.4511L94.5946 20.2575L93.0688 22.247L96.2173 24.66L95.508 25.5782L91.2266 22.2929Z" fill="#002C41"/>
<path d="M99.6416 29.7874L105.107 25.1043L103.51 23.2372L104.393 22.4873L108.516 27.2979L107.633 28.0529L106.036 26.1858L100.565 30.8689L99.6416 29.7874Z" fill="#002C41"/>
<path d="M105.199 37.6175L107.848 36.1942L111.241 31.2051L112.012 32.6386L109.236 36.4493L109.088 36.1789L113.803 35.9596L114.563 37.3778L108.531 37.4543L105.878 38.8827L105.199 37.6175Z" fill="#002C41"/>
<path d="M21.0298 89.5902C20.5195 88.825 20.2491 88.0598 20.2133 87.2793C20.1776 86.5039 20.3613 85.7693 20.7645 85.0704C21.1625 84.3766 21.7545 83.7696 22.5403 83.2441C23.3313 82.7187 24.1274 82.4024 24.9234 82.3004C25.7195 82.1983 26.4697 82.3157 27.1739 82.6422C27.8832 82.9738 28.4854 83.5196 28.9957 84.2797C29.608 85.198 29.8785 86.0958 29.8121 86.9732C29.7458 87.8558 29.3529 88.6414 28.6333 89.3454L27.6689 87.8915C28.0312 87.4987 28.2353 87.0651 28.2761 86.5804C28.317 86.1009 28.1588 85.5908 27.8015 85.0551C27.4801 84.5705 27.0922 84.2287 26.6381 84.0297C26.1839 83.8308 25.6838 83.7747 25.1327 83.8716C24.5866 83.9634 24.0253 84.2032 23.4436 84.5909C22.8618 84.9735 22.4281 85.402 22.1372 85.8611C21.8463 86.3254 21.7034 86.8049 21.7136 87.2997C21.7238 87.7946 21.8871 88.2843 22.2086 88.7689C22.5658 89.3046 22.9639 89.6515 23.4027 89.8147C23.8467 89.978 24.306 89.9728 24.7857 89.8045L25.7501 91.2584C24.8724 91.6308 24.0202 91.6665 23.1884 91.3808C22.3566 91.0952 21.6371 90.4932 21.0247 89.5749L21.0298 89.5902Z" fill="#002C41"/>
<path d="M28.9902 98.8447L34.9608 91.7793L39.528 95.6359L38.6962 96.6154L35.3486 93.7841L33.6289 95.8094L36.6805 98.3856L35.8691 99.3497L32.8175 96.7735L31.0263 98.8906L34.379 101.722L33.5523 102.701L28.9902 98.8447Z" fill="#002C41"/>
<path d="M44.8706 109.169L44.8247 104.65L46.3862 105.369L46.5189 109.93L44.8757 109.169H44.8706ZM43.9674 103.405L45.4421 104.088C45.9779 104.333 46.4321 104.389 46.8046 104.247C47.1772 104.104 47.4629 103.818 47.6568 103.395C47.8508 102.981 47.8814 102.589 47.7487 102.221C47.616 101.854 47.2792 101.543 46.7332 101.293L45.2584 100.609L43.9622 103.405H43.9674ZM40.4922 107.139L44.3807 98.7422L47.3915 100.135C48.0549 100.441 48.5499 100.813 48.8816 101.242C49.2133 101.67 49.397 102.124 49.4327 102.604C49.4684 103.083 49.3766 103.563 49.152 104.043C48.9479 104.491 48.6468 104.859 48.2641 105.144C47.8814 105.43 47.4119 105.588 46.8659 105.619C46.3198 105.649 45.7024 105.502 45.0135 105.185L43.4775 104.471L41.9363 107.807L40.4973 107.139H40.4922Z" fill="#002C41"/>
<path d="M56.46 112.598L57.7459 104.731L55.0566 104.292L55.2608 103.027L62.1907 104.16L61.9814 105.425L59.2973 104.986L58.0113 112.853L56.46 112.598Z" fill="#002C41"/>
<path d="M69.3541 104.066L67.7695 104.155L68.2895 113.395L69.874 113.305L69.3541 104.066Z" fill="#002C41"/>
<path d="M77.9236 112.179L75.4385 103.267L81.1283 101.681L81.4754 102.92L77.3113 104.078L78.0359 106.69L81.4345 105.741L81.7713 106.95L78.3727 107.899L79.4495 111.756L77.9236 112.179Z" fill="#002C41"/>
<path d="M87.6513 98.6136L86.25 99.3584L90.5958 107.529L91.9971 106.784L87.6513 98.6136Z" fill="#002C41"/>
<path d="M98.8505 102.38L92.834 95.3499L97.3808 91.4678L98.2126 92.4421L94.8752 95.2938L96.6051 97.314L99.6363 94.7174L100.453 95.6764L97.4216 98.2679L99.223 100.375L102.56 97.5231L103.392 98.4975L98.8505 102.38Z" fill="#002C41"/>
<path d="M108.71 90.2736L109.44 89.1717C109.884 88.5035 110.124 87.9066 110.159 87.376C110.2 86.8455 110.067 86.3609 109.772 85.9273C109.47 85.4885 109.042 85.0855 108.475 84.708C107.899 84.3305 107.353 84.0857 106.842 83.9836C106.327 83.8816 105.827 83.9479 105.347 84.1826C104.868 84.4172 104.408 84.8713 103.964 85.5395L103.235 86.6414L108.71 90.2736ZM108.955 92.3397L101.239 87.2281L102.893 84.7386C103.485 83.8459 104.133 83.2082 104.837 82.8358C105.541 82.4634 106.271 82.3257 107.036 82.4226C107.802 82.5246 108.577 82.8358 109.373 83.3613C110.154 83.8765 110.736 84.4683 111.124 85.1314C111.512 85.7946 111.67 86.5241 111.598 87.3199C111.527 88.1106 111.195 88.9575 110.603 89.8553L108.95 92.3448L108.955 92.3397Z" fill="#002C41"/>
<path d="M116.277 54.7021H108.49V59.023H116.277C117.048 59.023 117.589 58.8496 117.91 58.4925C118.227 58.1405 118.385 57.6763 118.385 57.1049V56.5488C118.385 56.0081 118.222 55.5643 117.9 55.2225C117.574 54.8756 117.038 54.7021 116.283 54.7021" fill="#002C41"/>
<path d="M39.416 60.2724H45.7999L42.6054 54.0283L39.416 60.2724Z" fill="#002C41"/>
<path d="M121.605 60.9875C120.61 62.0078 119.074 62.5128 116.992 62.5128H108.485V67.1601H103.816V51.2132H116.992C119.074 51.2132 120.61 51.703 121.605 52.6773C122.595 53.6568 123.095 55.0087 123.095 56.7329C123.095 58.549 122.595 59.9672 121.605 60.9824M97.2892 66.1501C95.4623 67.0326 93.0027 67.4764 89.9051 67.4764C88.2262 67.4764 86.7106 67.3387 85.3634 67.0734C84.0111 66.803 82.8783 66.349 81.9648 65.7114C81.0463 65.0737 80.342 64.2269 79.8522 63.1709C79.3572 62.1149 79.1122 60.8089 79.1122 59.253C79.1122 57.6971 79.3572 56.386 79.8522 55.3096C80.342 54.2383 81.0463 53.3762 81.9648 52.7232C82.8834 52.0703 84.0111 51.6009 85.3634 51.3152C86.7106 51.0296 88.2262 50.8867 89.9051 50.8867C93.018 50.8867 95.4929 51.3357 97.3249 52.2284C99.1569 53.1211 100.198 54.7026 100.443 56.9676H95.7277C95.5133 55.9371 94.9112 55.2535 93.9263 54.9219C92.9414 54.5903 91.5993 54.422 89.9051 54.422C89.0121 54.422 88.1905 54.4781 87.4455 54.5852C86.6953 54.6924 86.0574 54.9015 85.5267 55.2076C84.996 55.5137 84.5776 55.9422 84.2765 56.4778C83.9754 57.0186 83.8274 57.7175 83.8274 58.5796V59.8499C83.8274 60.6814 83.9703 61.365 84.2663 61.8955C84.5572 62.4261 84.9705 62.8444 85.5012 63.1454C86.0319 63.4463 86.6749 63.6555 87.4302 63.7677C88.1854 63.8851 89.0172 63.9412 89.9255 63.9412C91.5279 63.9412 92.8241 63.7932 93.8191 63.5025C94.8142 63.2117 95.4572 62.5995 95.7481 61.6762H100.463C100.172 63.7728 99.111 65.2624 97.2841 66.1501M73.3407 66.1501C71.5138 67.0326 69.0542 67.4764 65.9566 67.4764C64.2777 67.4764 62.7621 67.3387 61.4149 67.0734C60.0677 66.803 58.9298 66.349 58.0163 65.7114C57.0978 65.0737 56.3935 64.2269 55.9037 63.1709C55.4138 62.1149 55.1637 60.8089 55.1637 59.253C55.1637 57.6971 55.4087 56.386 55.9037 55.3096C56.3987 54.2383 57.1029 53.3762 58.0163 52.7232C58.9349 52.0703 60.0626 51.6009 61.4149 51.3152C62.7621 51.0296 64.2777 50.8867 65.9566 50.8867C69.0695 50.8867 71.5393 51.3357 73.3764 52.2284C75.2084 53.1211 76.2494 54.7026 76.4995 56.9676H71.7843C71.5699 55.9371 70.9678 55.2535 69.9829 54.9219C68.998 54.5903 67.6559 54.422 65.9617 54.422C65.0687 54.422 64.2471 54.4781 63.497 54.5852C62.7468 54.6924 62.1089 54.9015 61.5782 55.2076C61.0475 55.5137 60.6291 55.9422 60.328 56.4778C60.0269 57.0186 59.8789 57.7175 59.8789 58.5796V59.8499C59.8789 60.6814 60.0269 61.365 60.3178 61.8955C60.6086 62.4261 61.022 62.8444 61.5527 63.1454C62.0834 63.4463 62.7264 63.6555 63.4868 63.7677C64.242 63.8851 65.0738 63.9412 65.9821 63.9412C67.5845 63.9412 68.8857 63.7932 69.8757 63.5025C70.8708 63.2117 71.5138 62.5995 71.8098 61.6762H76.525C76.2341 63.7728 75.1727 65.2624 73.3458 66.1501M49.3105 67.1601L47.4633 63.5535H37.7318L35.8845 67.1601H31.4244L39.722 51.2132H45.917L54.1482 67.1601H49.3156H49.3105ZM28.8321 67.1601H24.1628V60.7834H13.7169V67.1601H9.04767V51.2132H13.7169V57.0594H24.1628V51.2132H28.8321V67.1601ZM123.565 45.8721H8.4353C3.77624 45.8721 0 49.6471 0 54.3047V64.6962C0 69.3537 3.77624 73.1288 8.4353 73.1288H123.56C128.219 73.1288 131.995 69.3537 131.995 64.6962V54.3047C131.995 49.6471 128.219 45.8721 123.56 45.8721" fill="#002C41"/>
<path d="M59.9814 83.846L65.4723 89.3351L75.0507 79.7598L65.4723 85.7182L59.9814 83.846Z" fill="#002C41"/>
<path d="M51.9843 31.7969L52.8212 34.3731H55.5309L53.3366 35.9647L54.1786 38.5409L51.9843 36.9493L49.79 38.5409L50.6269 35.9647L48.4326 34.3731H51.1474L51.9843 31.7969Z" fill="#002C41"/>
<path d="M80.0154 31.7969L80.8522 34.3731H83.562L81.3728 35.9647L82.2097 38.5409L80.0154 36.9493L77.821 38.5409L78.6579 35.9647L76.4688 34.3731H79.1785L80.0154 31.7969Z" fill="#002C41"/>
<path d="M65.9973 30.0527L67.1812 33.69H71.0034L67.9109 35.9397L69.0948 39.5719L65.9973 37.3273L62.9048 39.5719L64.0887 35.9397L60.9912 33.69H64.8185L65.9973 30.0527Z" fill="#002C41"/>
</g>
<defs>
<clipPath id="clip0_729_16204">
<rect width="132" height="119" fill="white"/>
</clipPath>
</defs>
</svg>
