<svg preserveAspectRatio="none" width="100%" height="100%" overflow="visible" style="display: block;" viewBox="0 0 27 27" fill="none" xmlns="http://www.w3.org/2000/svg">
<g id="Group 24">
<circle id="Ellipse 19" cx="13.5" cy="13.5" r="13.5" fill="var(--fill-0, white)"/>
<path id="Subtract" d="M18.3525 8C19.8145 8 21 9.18553 21 10.6475V15.3525C21 16.8145 19.8145 18 18.3525 18H8.64746C7.18553 18 6 16.8145 6 15.3525V10.6475C6 9.18553 7.18553 8 8.64746 8H18.3525ZM12.3232 10.708C12.1272 10.595 11.8828 10.7365 11.8828 10.9629V15.0381C11.883 15.2642 12.1273 15.4057 12.3232 15.293L15.8525 13.2549C16.0486 13.1417 16.0486 12.8583 15.8525 12.7451L12.3232 10.708Z" fill="var(--fill-0, #002C41)"/>
</g>
</svg>
