<svg preserveAspectRatio="none" width="100%" height="100%" overflow="visible" style="display: block;" viewBox="0 0 234 166.903" fill="none" xmlns="http://www.w3.org/2000/svg">
<path id="Ellipse 4" d="M234 49.9025C234 67.4392 230.058 84.7516 222.465 100.559C214.872 116.367 203.823 130.266 190.135 141.228C176.446 152.19 160.469 159.934 143.384 163.889C126.299 167.843 108.543 167.907 91.4307 164.074C74.3179 160.242 58.2855 152.612 44.5192 141.748C30.7528 130.884 19.6047 117.064 11.8993 101.311C4.19386 85.558 0.128195 68.2742 0.00298278 50.7379C-0.122229 33.2017 3.69621 15.8616 11.1759 3.64481e-06L41.3079 14.2091C35.958 25.5543 33.2268 37.957 33.3163 50.5001C33.4059 63.0431 36.3139 75.4056 41.8253 86.6732C47.3367 97.9409 55.3106 107.825 65.1571 115.596C75.0037 123.367 86.471 128.824 98.7112 131.565C110.951 134.307 123.651 134.261 135.871 131.433C148.092 128.604 159.52 123.065 169.311 115.224C179.101 107.384 187.004 97.4422 192.435 86.1355C197.866 74.8288 200.686 62.4459 200.686 49.9025L234 49.9025Z" fill="var(--fill-0, #6EAEB5)"/>
</svg>
