<svg preserveAspectRatio="none" width="100%" height="100%" overflow="visible" style="display: block;" viewBox="0 0 103.076 72.5791" fill="none" xmlns="http://www.w3.org/2000/svg">
<path id="Union" d="M53.2275 69.5332C53.2275 70.2469 53.4277 70.7866 53.8271 71.1514C54.2266 71.5161 54.8088 71.707 55.5576 71.707C56.2732 71.707 56.8057 71.5161 57.1885 71.1514C57.5546 70.7866 57.7549 70.2469 57.7549 69.5332V64.458H58.8701V69.5332C58.8701 70.5481 58.5872 71.3098 58.0049 71.8174C57.439 72.3249 56.6228 72.5791 55.5576 72.5791C54.4927 72.5791 53.6275 72.3411 53.0283 71.8496C52.4125 71.3579 52.1123 70.5959 52.1123 69.5332V64.458H53.2275V69.5332ZM20.6885 64.2676C21.1211 64.2676 21.5372 64.3148 21.9365 64.4258C22.336 64.5368 22.6858 64.6959 22.9854 64.918C23.2849 65.14 23.5513 65.3935 23.751 65.7266C23.9507 66.0438 24.0838 66.4245 24.1504 66.8369H23.0352C22.902 66.266 22.6357 65.8538 22.2031 65.5684L22.0215 65.4834C21.6277 65.2647 21.1797 65.1553 20.6553 65.1553C20.1562 65.1553 19.7235 65.2505 19.374 65.4248C19.0245 65.5993 18.7242 65.8373 18.4912 66.1387C18.2582 66.44 18.0921 66.7893 17.9756 67.1699C17.8591 67.5505 17.8096 67.9627 17.8096 68.375C17.8096 68.835 17.8591 69.2636 17.9756 69.6602C18.0921 70.0565 18.2583 70.4214 18.4912 70.7227C18.7242 71.024 19.0245 71.2621 19.374 71.4365C19.7401 71.6109 20.1727 71.7061 20.6719 71.7061C21.038 71.7061 21.3714 71.6423 21.6543 71.5312C21.937 71.4203 22.1862 71.2617 22.3857 71.0557C22.5855 70.8495 22.7526 70.6117 22.8691 70.3262C22.9856 70.0407 23.0517 69.7393 23.085 69.4062H24.2002C24.0837 70.4054 23.734 71.1822 23.1016 71.7373C22.4692 72.2924 21.6374 72.5781 20.5557 72.5781C19.9065 72.5781 19.3401 72.4669 18.8574 72.2607C18.3749 72.0546 17.9754 71.7534 17.6426 71.3887C17.3264 71.0239 17.0765 70.5797 16.9268 70.0723C16.7604 69.5648 16.6943 69.025 16.6943 68.4541C16.6944 67.8834 16.777 67.3286 16.96 66.8213C17.1264 66.3137 17.3927 65.8689 17.7256 65.4883C18.0585 65.1076 18.4753 64.8068 18.9746 64.6006C19.4739 64.3786 20.0395 64.2676 20.6885 64.2676ZM63.4971 64.252C63.9297 64.252 64.3292 64.2994 64.6953 64.3945C65.0615 64.4897 65.3948 64.6483 65.6611 64.8545C65.9273 65.0606 66.1597 65.3306 66.3262 65.6318C66.4926 65.949 66.5761 66.3297 66.5928 66.7578H65.5273C65.4607 66.1873 65.2447 65.7752 64.8789 65.5215L64.7188 65.4473C64.3732 65.2532 63.9401 65.1563 63.4307 65.1562C63.1976 65.1562 62.9645 65.1721 62.7314 65.2197C62.4984 65.2673 62.2983 65.3462 62.1318 65.4414C61.9488 65.5524 61.8156 65.6801 61.7158 65.8545C61.6161 66.0289 61.5498 66.2513 61.5498 66.5049C61.5499 66.7426 61.6335 66.9489 61.7832 67.1074C61.9329 67.2658 62.1325 67.3766 62.3984 67.4717C62.648 67.5668 62.9476 67.6465 63.2637 67.71C63.5799 67.7734 63.9132 67.8367 64.2461 67.916C64.579 67.9953 64.9123 68.0748 65.2285 68.1699C65.5446 68.2651 65.8442 68.4076 66.0938 68.582C66.3433 68.7564 66.5592 68.9629 66.709 69.2324C66.8588 69.4862 66.9424 69.8193 66.9424 70.2158C66.9424 70.644 66.8422 70.9926 66.6426 71.2939C66.4429 71.5953 66.1932 71.8341 65.877 72.0244C65.5609 72.2146 65.2116 72.3572 64.8291 72.4365C64.4463 72.5158 64.0459 72.5635 63.6631 72.5635C63.1972 72.5634 62.748 72.5155 62.332 72.3887C61.9159 72.2776 61.5496 72.1029 61.2334 71.8809C60.9173 71.6588 60.6674 71.3576 60.4844 71.0088C60.3014 70.6599 60.2012 70.2475 60.2012 69.7559H61.2666C61.2666 70.0889 61.3336 70.3744 61.4668 70.6123C61.5999 70.8501 61.7827 71.0563 62.0156 71.2148C62.232 71.3734 62.4983 71.4852 62.7979 71.5645C63.0974 71.6438 63.3976 71.6748 63.7139 71.6748C63.9634 71.6748 64.2133 71.6589 64.4795 71.6113C64.7289 71.5638 64.9616 71.4847 65.1611 71.3896C65.3609 71.2786 65.528 71.1356 65.6611 70.9453C65.7941 70.755 65.8438 70.5168 65.8438 70.2314C65.8437 69.962 65.761 69.7398 65.6113 69.5654C65.4615 69.391 65.2614 69.2485 64.9951 69.1533C64.7455 69.0423 64.446 68.9628 64.1299 68.8994C63.8136 68.836 63.4803 68.7568 63.1475 68.6934C62.8147 68.6299 62.4821 68.5344 62.166 68.4551C61.8498 68.3599 61.5495 68.2336 61.2998 68.0908C61.0503 67.9323 60.8343 67.7417 60.6846 67.5039C60.5348 67.266 60.4512 66.9644 60.4512 66.5996C60.4512 66.2031 60.5347 65.8541 60.7178 65.5527C60.8842 65.2673 61.1175 65.0135 61.4004 64.8232C61.6833 64.633 62.0158 64.4897 62.3818 64.3945C62.748 64.2994 63.1143 64.252 63.4971 64.252ZM15.7119 65.3633H11.0352V67.8848H15.3955V68.7734H11.0352V71.5166H15.7451V72.4053H9.91992V64.4746H15.7119V65.3633ZM5.97461 64.458C6.82321 64.458 7.45591 64.664 7.90527 65.0762C8.33802 65.4886 8.55469 66.0602 8.55469 66.8057C8.55462 67.551 8.33795 68.1219 7.90527 68.5342C7.47253 68.9464 6.8233 69.1523 5.97461 69.1523H3.41211V72.4043H2.29688V64.458H5.97461ZM51.3467 72.4043H50.1152L49.1992 70.0088H45.6543L44.7061 72.4043H43.5576L46.8193 64.458H48.0674L51.3467 72.4043ZM89.8945 72.4043H88.6621L87.7471 70.0088H84.2021L83.2529 72.4043H82.1045L85.3672 64.458H86.6152L89.8945 72.4043ZM26.7129 67.8682H31.1406V64.458H32.2559V72.3887H31.1406V68.7559H26.7129V72.3887H25.5986V64.458H26.7129V67.8682ZM39.8789 65.3457H35.2021V67.8682H39.5625V68.7559H35.2021V71.5H39.9287V72.3887H34.0869V64.458H39.8789V65.3457ZM74.0986 65.3457H71.3027V72.3887H70.1709V65.3457H67.375V64.458H74.0986V65.3457ZM78.9756 64.458C79.7744 64.458 80.4071 64.6489 80.8564 65.0137C81.3056 65.3785 81.5381 65.886 81.5381 66.5361C81.5381 67.0118 81.4223 67.44 81.1895 67.8047C80.9565 68.1694 80.5901 68.4239 80.0742 68.5508C80.3236 68.6142 80.5232 68.693 80.6729 68.7881C80.8226 68.8991 80.9392 69.0106 81.0391 69.1533C81.1222 69.296 81.1893 69.4543 81.2393 69.6445C81.2892 69.819 81.3222 70.0099 81.3389 70.2002C81.3389 70.3904 81.3721 70.5969 81.3721 70.7871C81.3721 70.9773 81.4052 71.1838 81.4385 71.374C81.4718 71.5642 81.5224 71.7544 81.5723 71.9287C81.6388 72.1031 81.7215 72.2618 81.8379 72.3887H80.5898C80.5067 72.3094 80.4571 72.1983 80.4238 72.0557C80.3906 71.913 80.3731 71.7544 80.373 71.5801C80.373 71.4056 80.3731 71.2147 80.3564 71.0244C80.3564 70.8183 80.3233 70.6278 80.29 70.4375C80.2568 70.2473 80.2237 70.0571 80.1738 69.8828C80.1239 69.7083 80.0569 69.5497 79.957 69.4229C79.8572 69.296 79.724 69.1848 79.5576 69.1055C79.3913 69.0263 79.1752 68.9942 78.8926 68.9941H76.1621V72.3887H75.0479V64.4424H78.9922L78.9756 64.458ZM91.8252 71.5H96.2686V72.3887H90.6934V64.458H91.8252V71.5ZM103.043 65.3457H98.3486V67.8682H102.727V68.7559H98.3486V71.5H103.076V72.3887H97.2344V64.458H103.043V65.3457ZM45.9873 69.1211H48.833L47.4355 65.4092H47.4023L45.9873 69.1211ZM84.5186 69.1211H87.3643L85.9658 65.4092H85.9326L84.5186 69.1211ZM3.42871 68.2803H5.6084V68.2646C6.24087 68.2646 6.70724 68.1532 7.00684 67.8994C7.30628 67.6457 7.43939 67.2813 7.43945 66.8057C7.43945 66.3298 7.28978 65.9645 7.00684 65.7266C6.70724 65.4729 6.24076 65.3623 5.6084 65.3623H3.42871V68.2803ZM76.1289 68.1064H78.459C78.7252 68.1064 78.9585 68.0903 79.1914 68.0586L79.3799 68.0264C79.5467 67.9855 79.6995 67.9201 79.8242 67.8369C80.0073 67.7259 80.1404 67.5827 80.2402 67.4082C80.3401 67.2337 80.4072 66.9957 80.4072 66.6943C80.4072 66.2979 80.2906 65.9647 80.0576 65.7109C79.8247 65.4572 79.4416 65.3301 78.9092 65.3301H76.1289V68.1064ZM14.5967 63.8877H13.6143L12.7988 62.8252L11.9834 63.8877H11.085L12.2832 62.3018H13.3818L14.5967 63.8877ZM26.7969 46.3613C27.6624 46.3613 28.5282 46.4087 29.3604 46.5039C30.1925 46.5991 31.0584 46.7582 31.9238 46.9961C32.7891 47.234 33.488 47.5829 34.0371 48.0586C34.5697 48.5344 34.8525 49.0899 34.8691 49.7402C34.8857 50.6124 34.4201 51.4053 33.4717 52.1348C32.523 52.8644 31.2909 53.4353 29.7764 53.8477C28.2618 54.26 26.6469 54.5137 24.9492 54.5771C23.901 54.6247 23.0192 54.6095 22.3535 54.5303C24.8333 56.8299 27.7126 58.7328 30.9746 60.2236C31.1078 60.2712 31.2079 60.367 31.2578 60.5098C31.3076 60.6681 31.291 60.8108 31.208 60.9375C31.1248 61.0643 30.9749 61.1442 30.7754 61.1602C30.5093 61.1919 30.2427 61.1599 29.9766 61.0332C28.6118 60.4305 27.13 59.5893 25.5488 58.5107C23.9511 57.4322 22.5529 56.306 21.3213 55.1641C20.0065 56.7818 18.8084 58.4952 17.7266 60.335C17.6101 60.5253 17.4429 60.6362 17.2432 60.668C17.027 60.6996 16.8606 60.6206 16.7607 60.4463C16.6609 60.2877 16.6444 60.1131 16.7109 59.9229C17.1603 58.7967 18.4089 56.9571 20.4561 54.3877C20.2563 54.2925 20.1058 54.229 19.9893 54.1973C19.7897 54.1338 19.5901 54.0227 19.4238 53.8643C19.2575 53.7057 19.1739 53.5151 19.1738 53.2773C19.1738 52.9443 19.3905 52.7219 19.8066 52.6426C19.9064 52.5792 20.106 52.5629 20.3721 52.6104C20.655 52.6579 20.9552 52.8327 21.2715 53.1182L21.3711 53.2139C21.7705 52.738 22.2038 52.1984 22.7031 51.5957C23.2023 50.9932 23.5512 50.5645 23.7842 50.2949C24.0172 50.0253 24.1338 49.8667 24.1338 49.835C24.3834 49.1689 24.7332 48.8516 25.1826 48.8516C25.2825 48.8516 25.3826 48.8838 25.4824 48.9473C25.5821 49.0107 25.6484 49.1057 25.665 49.2324C25.6983 49.5655 25.5982 49.9147 25.3652 50.2637L22.6025 53.5938C23.235 53.6731 23.8015 53.7055 24.2842 53.6738C26.9304 53.5786 29.1606 53.1502 30.958 52.373C32.7553 51.596 33.621 50.7711 33.5713 49.8672C33.5546 49.4072 33.3214 48.9944 32.8887 48.6455C32.4394 48.2967 31.8737 48.0426 31.1748 47.8682C30.4758 47.6937 29.7597 47.5666 29.0273 47.4873C28.295 47.408 27.5459 47.3613 26.7803 47.3613C25.7318 47.3613 24.7328 47.4562 23.8174 47.6465C23.2516 47.7575 22.6694 47.9797 22.0537 48.2969C22.0371 48.3127 22.0038 48.3441 21.9541 48.4072C21.9042 48.4706 21.8371 48.5025 21.7705 48.5342C21.7039 48.5659 21.6204 48.582 21.5205 48.582C21.1215 48.5819 20.9055 48.3918 20.8555 48.0273C20.8388 47.8213 20.905 47.6307 21.0547 47.4404C21.1546 47.3294 21.3713 47.2023 21.6875 47.0596C22.0703 46.901 22.7195 46.7423 23.6016 46.5996C24.5835 46.441 25.6486 46.3613 26.7969 46.3613ZM78.2266 53.4355C78.526 53.4355 78.7759 53.4832 78.9424 53.5625C79.2919 53.7052 79.5921 53.9272 79.8418 54.2285C80.0747 54.5298 80.1905 54.8472 80.1738 55.2119C80.1405 56.3221 79.3922 57.4641 77.9443 58.6377C76.4964 59.8113 75.0981 60.3984 73.7666 60.3984C73.3339 60.3984 72.9676 60.2552 72.668 59.9697C72.3518 59.7001 72.1855 59.3356 72.1855 58.8916L72.1895 58.7344C72.2321 58.0987 72.5957 57.3784 73.2666 56.5605C73.9822 55.6883 74.8316 54.9425 75.7969 54.3398C76.762 53.7373 77.5775 53.4357 78.2266 53.4355ZM37.6318 53.1973C37.9146 53.1973 38.1646 53.2764 38.3809 53.4189C38.5972 53.5775 38.6972 53.7681 38.6973 54.0059C38.6973 54.8465 36.9667 56.0045 33.4883 57.4795C33.4218 57.5904 33.3877 57.7016 33.3877 57.8125C33.3877 58.6372 34.0039 59.0498 35.2188 59.0498C36.2174 59.0498 37.3659 58.7956 38.6475 58.2881C39.8109 57.8273 40.9044 57.2341 41.9307 56.5C41.9678 56.4712 42.0068 56.4447 42.043 56.416C42.276 56.2415 42.6756 55.9405 43.2246 55.5283C43.7738 55.116 44.2062 54.7665 44.5557 54.5127C44.8885 54.2589 45.0887 54.1328 45.1387 54.1328C45.4881 54.1329 45.6709 54.355 45.6709 54.7832C45.6708 55.0844 45.6047 55.3068 45.4883 55.4336C43.9737 56.639 43.208 57.543 43.208 58.1299C43.2082 58.4151 43.3578 58.5576 43.6406 58.5576C44.2232 58.5576 45.0724 58.225 46.1875 57.543C47.3026 56.861 48.4842 56.0038 49.7158 54.957C49.932 54.7986 50.0818 54.7197 50.1816 54.7197C50.3481 54.7197 50.4977 54.8307 50.6309 55.0527C50.7639 55.2746 50.831 55.5122 50.8311 55.75C50.8311 55.7817 50.7805 55.8455 50.6973 55.9248C50.5976 56.0039 50.5147 56.0515 50.4316 56.0674C49.7492 56.9239 49.416 57.6539 49.416 58.2725C49.4161 58.5419 49.5493 58.6846 49.7988 58.6846C50.4594 58.6846 51.7276 58.0542 53.5938 56.8066C54.0224 56.4795 54.5534 56.0753 55.208 55.6074C56.0569 54.973 56.6068 54.5763 56.8398 54.3701C57.0395 54.1166 57.272 54.0055 57.5049 54.0371C57.6546 54.0371 57.7879 54.0847 57.9209 54.1797C58.0541 54.2907 58.1542 54.3865 58.2041 54.4658C58.2539 54.5451 58.2706 54.6563 58.2373 54.7988C58.1706 55.0368 57.9207 55.4648 57.5049 56.083C57.0721 56.7016 56.8225 57.1779 56.7393 57.4951C59.6187 55.687 61.3666 54.6713 61.999 54.4492C62.1321 54.3858 62.2654 54.3545 62.3818 54.3545C62.5648 54.3545 62.7311 54.4336 62.8975 54.5762C63.0638 54.7347 63.1474 54.8934 63.1475 55.0361C63.1475 55.2899 62.9813 55.7186 62.6484 56.3213C62.3156 56.9239 62.1485 57.4946 62.1484 58.0654C62.1484 58.5888 62.3485 59.0334 62.7646 59.4141C62.9477 59.5885 63.0479 59.7472 63.0479 59.874C63.0478 60.0642 62.9145 60.1591 62.665 60.1592C62.1657 60.1592 61.749 59.9536 61.3828 59.5254C61.0166 59.0971 60.834 58.5573 60.834 57.9229C60.834 57.2885 60.9837 56.7015 61.2666 56.083C60.7673 56.2892 59.8355 56.845 58.4541 57.749C57.0728 58.653 56.1904 59.0966 55.8408 59.0967C55.6744 59.0967 55.5248 59.0331 55.375 58.9062C55.2419 58.7795 55.1749 58.637 55.1748 58.4785C55.1748 57.8917 55.441 57.1455 55.9902 56.2256C55.8071 56.3683 55.5078 56.591 55.125 56.9082C54.8094 57.1463 54.5649 57.3326 54.3701 57.4795C54.3312 57.5173 54.2903 57.5555 54.2432 57.5898C52.1794 59.1124 50.5646 59.8896 49.3662 59.8896C48.9668 59.8896 48.6501 59.7633 48.4004 59.5254C48.1508 59.2875 48.0176 58.938 48.0176 58.5098C48.0176 58.161 48.0847 57.8276 48.2012 57.5264C47.5021 58.1132 46.6695 58.6372 45.6875 59.1289C44.7058 59.6204 43.8571 59.8583 43.1416 59.8584C42.8087 59.8584 42.5084 59.7628 42.2588 59.5566C42.0094 59.3505 41.8926 59.0648 41.8926 58.7002L41.8652 58.5605C41.889 58.2219 41.9897 57.8753 42.168 57.5381C42.1439 57.5606 42.1196 57.5843 42.0928 57.6064C41.0609 58.3519 39.8793 58.971 38.5645 59.4785C37.2498 59.986 36.0514 60.2392 34.9863 60.2393L34.6396 60.2461C33.8858 60.2043 33.247 60.015 32.7227 59.668C32.1236 59.2874 31.8233 58.717 31.8232 57.9717C31.8232 56.8615 32.4726 55.7828 33.7705 54.752C35.0686 53.7211 36.3504 53.1974 37.6318 53.1973ZM85.417 54.0371C85.5667 54.0371 85.6999 54.0846 85.833 54.1797C85.9662 54.2907 86.0663 54.3865 86.1162 54.4658C86.166 54.5451 86.1827 54.6563 86.1494 54.7988C86.0827 55.0368 85.8329 55.4648 85.417 56.083C84.9842 56.7016 84.7346 57.1779 84.6514 57.4951C87.5308 55.687 89.2787 54.6713 89.9111 54.4492C90.0442 54.3858 90.1775 54.3545 90.2939 54.3545C90.4769 54.3545 90.6432 54.4336 90.8096 54.5762C90.9759 54.7347 91.0595 54.8934 91.0596 55.0361C91.0596 55.2899 90.8934 55.7186 90.5605 56.3213C90.2277 56.9239 90.0606 57.4946 90.0605 58.0654C90.0605 58.5888 90.2607 59.0334 90.6768 59.4141C90.8598 59.5885 90.96 59.7472 90.96 59.874C90.9599 60.0642 90.8265 60.1591 90.5771 60.1592C90.0779 60.1592 89.6611 59.9536 89.2949 59.5254C88.9288 59.0971 88.7461 58.5573 88.7461 57.9229C88.7461 57.2885 88.8958 56.7015 89.1787 56.083C88.6794 56.2892 87.7476 56.845 86.3662 57.749C84.985 58.6529 84.1026 59.0965 83.7529 59.0967C83.5866 59.0967 83.4369 59.033 83.2871 58.9062C83.1541 58.7795 83.087 58.637 83.0869 58.4785C83.0869 57.8917 83.3531 57.1455 83.9023 56.2256C83.7193 56.3683 83.4199 56.591 83.0371 56.9082C82.6379 57.2094 82.355 57.4313 82.1387 57.5898C81.8061 57.8117 81.5395 57.9227 81.373 57.9229C81.24 57.9229 81.1233 57.8753 81.0234 57.7803C80.9569 57.7168 80.9229 57.6217 80.9229 57.5107L80.9072 57.3945C80.9509 57.2824 81.0233 57.1818 81.123 57.0986C81.6057 56.7338 82.2547 56.226 83.1201 55.6074C83.9688 54.9731 84.5179 54.5764 84.751 54.3701C84.9507 54.1164 85.184 54.0054 85.417 54.0371ZM69.2559 53.7998C69.6551 54.0218 69.8884 54.2754 69.9883 54.5449C70.0549 54.7828 70.0208 55.0211 69.8877 55.2432C69.1221 56.4961 68.7393 57.607 68.7393 58.5586C68.7393 58.9549 68.856 59.3831 69.0889 59.8428C69.1388 59.9379 69.1224 60.0178 69.0059 60.0654C68.906 60.1129 68.7561 60.1281 68.5732 60.1123C68.2737 60.0964 68.0239 59.9693 67.8408 59.7314C67.5914 59.4302 67.4581 58.9864 67.458 58.4316C67.458 57.6069 67.7078 56.7659 68.1904 55.8936L68.0654 55.9893C67.6798 56.3221 66.9137 56.897 65.7773 57.7021C65.5444 57.8607 65.2945 57.9396 65.0449 57.9238C64.7953 57.908 64.6125 57.7171 64.5293 57.3682C65.2449 56.8448 66.1266 56.1786 67.1582 55.3857C68.1901 54.5927 68.8897 54.0694 69.2559 53.7998ZM78.2432 54.498C77.9104 54.4982 77.4113 54.6569 76.7627 54.958C76.1136 55.2593 75.5305 55.6558 75.0312 56.1475C74.9314 56.2426 74.8478 56.402 74.7979 56.624C74.7479 56.8458 74.6321 57.0521 74.4658 57.2422C73.8335 58.0033 73.5168 58.5583 73.5166 58.9072L73.5234 58.9824C73.5565 59.2144 73.706 59.3358 73.9824 59.3359C74.8313 59.3359 75.8971 58.8278 77.1787 57.7969C78.46 56.766 79.0928 55.878 79.0928 55.1484C79.0928 54.7202 78.809 54.498 78.2432 54.498ZM37.3496 54.292C36.7837 54.292 36.1347 54.5142 35.3857 54.9424C34.6368 55.3706 34.1034 55.8306 33.7705 56.3223C35.4349 55.4816 36.6339 54.8154 37.3496 54.292ZM73.1172 49.8984C73.3169 49.9302 73.4831 50.0414 73.5996 50.2158C73.716 50.3902 73.7491 50.5964 73.6992 50.8184C73.6826 50.8816 73.6494 50.9447 73.6162 50.9922C73.5663 51.0556 73.5333 51.104 73.5 51.1357C73.4667 51.1832 73.3995 51.2142 73.3164 51.2617C73.2332 51.3093 73.1671 51.3416 73.1338 51.3574C73.1005 51.3574 73.0169 51.4046 72.9004 51.4521C72.784 51.4997 72.7178 51.532 72.7012 51.5479C72.2019 51.754 71.719 52.0397 71.2197 52.3887C71.0701 52.4995 70.9201 52.5154 70.7871 52.4521C70.654 52.3728 70.6209 52.2298 70.6875 52.0078L70.7832 51.7627C71.0269 51.169 71.4092 50.6818 71.9189 50.2793C72.3517 49.9621 72.751 49.835 73.1172 49.8984ZM43.0088 45.917C43.3913 45.9171 43.6404 46.0917 43.7402 46.4404L43.7236 46.5156C43.7319 46.5592 43.7402 46.6145 43.7402 46.6621C43.7402 47.0586 43.2243 47.6457 42.209 48.4229C41.1938 49.1999 40.0791 49.8981 38.8643 50.5166C38.6312 50.6276 38.4641 50.6914 38.3809 50.6914C38.1648 50.6913 38.0488 50.5801 38.0488 50.374C38.0488 50.2947 38.0984 50.215 38.1816 50.1357C39.2135 49.311 40.3787 48.2328 41.6768 46.8848C41.71 46.853 41.7771 46.7895 41.877 46.6943C41.9766 46.5994 42.0263 46.5358 42.0596 46.4883C42.0928 46.4407 42.1425 46.3927 42.2256 46.3135C42.3088 46.2342 42.3592 46.1704 42.4258 46.1387C42.4921 46.107 42.5421 46.0757 42.6084 46.0283C42.6749 45.9808 42.742 45.9651 42.8086 45.9492C42.8752 45.9492 42.9256 45.917 43.0088 45.917ZM44.7227 40.5244C62.4983 34.3863 76.0964 34.1001 92.7402 42.0146L90.0273 46.6943H90.0107C84.435 44.1249 65.5438 34.9569 32.2725 45.0762C34.8689 43.9976 38.5977 42.6339 44.7227 40.5244ZM5.8418 41.3799C18.6077 37.0657 29.6264 36.622 41.3438 40.2383L38.7637 41.2217C37.9275 41.5428 37.1079 41.8559 36.3008 42.1572C26.4975 39.6829 13.5313 39.429 5.8418 41.3799ZM35.4521 9.80176C35.4998 9.802 35.5325 9.85928 35.5352 9.86426L35.7178 11.1338L36.0176 13.5762C36.0336 13.6066 36.0957 13.6373 36.1006 13.6396L38.0312 13.751L37.998 14.1309L36.1514 14.3213C36.1181 14.3371 36.084 14.417 36.084 14.417L36.5674 17.4141C36.5838 17.4454 36.6489 17.4768 36.6504 17.4775H38.8809L38.7139 17.8906C38.7135 17.9216 38.6498 17.9369 38.6475 17.9375L36.7998 18.0488C36.7517 18.049 36.719 18.1228 36.7168 18.1279L36.9834 20.5078C36.9841 20.5394 37.0664 20.5713 37.0664 20.5713L41.71 20.5391C41.7581 20.5391 41.7907 20.6129 41.793 20.6182L41.7598 22.125C41.7598 22.1705 41.8362 22.2015 41.8428 22.2041L47.9346 22.1729C47.9656 22.1729 47.997 22.2004 48.001 22.2041L49.333 23.5527C49.3657 23.5997 49.2854 23.6776 49.2832 23.6797L48.5342 23.8223C48.502 23.8376 48.47 23.8827 48.4678 23.8857L47.6348 27.1377C47.6013 27.2641 47.4854 27.3271 47.3525 27.3271H47.2861C47.1198 27.3113 46.9865 27.4384 46.9863 27.5811V30.1982C46.9863 30.2447 47.0657 30.2759 47.0693 30.2773L57.8711 30.373C57.9197 30.373 57.9524 30.4482 57.9541 30.4521L58.1211 33.1484C58.1211 33.1948 58.2002 33.226 58.2041 33.2275L69.3057 32.625H69.3555L72.7842 30.373L73.4336 29.6904C73.4652 29.6597 73.4358 29.5854 73.4336 29.5801L72.1689 28.3271C72.1528 28.3117 72.1514 28.281 72.1514 28.2793L72.085 27.1211C72.0846 27.0737 72.002 27.042 72.002 27.042H66.9258C66.7595 27.042 66.6428 27.1687 66.6758 27.3271V27.4863C66.6925 27.5814 66.7596 27.6607 66.8428 27.6924L71.3027 29.4844L70.6875 29.5166H70.6543L65.4775 28.1367C65.4454 28.1367 65.4133 28.0773 65.4111 28.0732L65.3115 26.8672C65.3121 26.8355 65.3779 26.7881 65.3779 26.7881L71.4199 25.916H71.4531L74.8984 26.9307C74.9302 26.9311 74.947 26.9897 74.9482 26.9941L75.0811 30.0869C75.0811 30.1333 75.16 30.1654 75.1641 30.167L84.1191 29.1514C84.1523 29.151 84.1855 29.0879 84.1855 29.0879L84.7344 26.3125L85.2842 21.9668C85.2842 21.9367 85.2238 21.8921 85.2178 21.8877L84.5186 21.7607C84.5027 21.7457 84.4718 21.7158 84.4688 21.7129L84.2188 21.2373L85.4502 21.1895C85.4982 21.1895 85.5308 21.116 85.5332 21.1104L84.3184 12.0693C84.3183 12.0376 84.2686 12.0059 84.2686 12.0059L82.9541 11.5459L84.2686 11.5781C84.3185 11.5781 84.3516 11.498 84.3516 11.498L84.2852 10.8799H84.6348L84.7012 11.7998C84.7012 11.8303 84.7476 11.8611 84.751 11.8633L85.9492 12.3545H84.835C84.785 12.3545 84.751 12.4502 84.751 12.4502L86.2656 21.1416C86.2823 21.1733 86.3496 21.2051 86.3496 21.2051L89.8115 21.1738L89.3281 21.6807C89.3115 21.7124 89.2783 21.7129 89.2783 21.7129L86.582 21.8877C86.5322 21.8878 86.499 21.9668 86.499 21.9668L87.3145 28.7236C87.3147 28.7552 87.3478 28.787 87.3975 28.7871L103.076 27.4385V27.6133L97.1182 35.417C95.7918 37.4692 97.3913 38.2941 98.625 38.6113L98.915 38.6367C99.0149 38.6526 98.9983 38.7793 98.8984 38.7793L90.9932 38.8584H90.96C75.9138 32.7361 59.3192 33.1167 43.6406 39.1914C43.4577 39.2548 43.2913 39.334 43.1084 39.3975C30.6421 35.0357 18.4587 35.1317 5.14355 39.8105H5.11035C5.01255 39.8261 4.08424 39.8112 4.06152 39.8105C4.09277 39.8111 3.54569 36.1344 2.99805 32.5068L0 32.5469V31.3564L2.83203 31.415C2.68631 30.4523 2.54406 29.5203 2.41797 28.6914L0.216797 28.4541C0.266719 28.0577 0.316249 27.6767 0.382812 27.2803L2.24316 27.5459C2.05388 26.3038 1.93066 25.4873 1.93066 25.4873C1.89768 25.3288 2.01435 25.1709 2.19727 25.1709H2.39648C2.54618 25.1709 2.66294 25.0596 2.66309 24.917V24.8135L0.999023 24.4258C1.09889 24.0451 1.21459 23.6639 1.31445 23.2832L2.4248 23.583L1.86426 22.8711L2.04785 22.6328L3.5957 23.8066C3.62858 23.8226 3.62891 23.8545 3.62891 23.8545L3.63574 23.9111L9.4043 25.4727C9.32109 25.7581 9.23751 26.0436 9.1543 26.3291L8.77539 26.2402L8.67285 28.4648L8.70508 28.4697C8.68787 28.5736 8.67282 28.676 8.6582 28.7773L8.60547 29.9287C8.60547 29.9763 8.68848 30.0078 8.68848 30.0078L13.2158 30.04C13.2642 30.0398 13.2971 29.9798 13.2988 29.9766L13.6484 25.4717L14.0312 22.918C14.0481 22.8863 14.1143 22.8545 14.1143 22.8545H15.3291L17.6094 23.1719C17.6415 23.1719 17.6736 23.2313 17.6758 23.2354L18.3252 27.5342L18.292 30.1504C18.292 30.1978 18.3745 30.2303 18.375 30.2305L28.0615 30.4043C28.1115 30.4043 28.1455 30.3252 28.1455 30.3252V27.7871C28.145 27.7398 28.0615 27.708 28.0615 27.708H21.4541C21.3044 27.7079 21.1875 27.5968 21.1875 27.4541C21.1877 27.3116 21.3045 27.2003 21.4541 27.2002H28.2285C28.2608 27.2001 28.3085 27.1561 28.3115 27.1533L28.8779 25.7256L30.1094 22.0303C30.126 21.9828 30.1092 21.9348 30.0596 21.9346L29.1602 21.6807V21.3799L31.707 21.2051C31.8568 21.1892 31.957 21.0783 31.957 20.9355V20.7402C31.9734 20.6204 32.0917 20.5236 32.2227 20.5234H35.1855C35.2338 20.5234 35.2664 20.4639 35.2686 20.46L35.7344 18.1758C35.7343 18.1285 35.6689 18.0817 35.668 18.0811L34.7197 17.874C34.6864 17.8582 34.6533 17.7949 34.6533 17.7949V17.4141L35.7012 17.3828C35.7505 17.3828 35.7844 17.3056 35.7852 17.3037L35.0527 9.80176H35.4521ZM67.8076 29.1523C67.8377 29.5107 67.866 29.8692 67.8838 30.2158L69.1719 30.1836L69.2227 31.6582L58.7695 32.2295L58.6201 30.4531L59.4814 30.4307C59.4696 30.2488 59.4561 30.0683 59.4355 29.8818L61.8154 29.6758L62.9141 29.5801L67.8076 29.1523ZM14.9131 27.3594L15.1963 30.167H16.7773L17.293 26.915L16.7773 24.0439L14.9131 23.791V27.3594ZM67.375 26.2656L59.1025 27.709C59.0526 27.4236 58.9865 27.1223 58.9199 26.8369L67.125 25.1074C67.2082 25.4881 67.2918 25.885 67.375 26.2656ZM31.3076 24.1074L31.5576 25.2979L32.4229 25.2344L32.2559 24.0605L31.3076 24.1074ZM32.6221 24.0439L32.7891 25.2178L33.7373 25.1543L33.5713 23.9971L32.6221 24.0439ZM33.9375 23.9805L34.1035 25.1387H34.1201L35.0693 25.0752L34.9023 23.9336L33.9375 23.9805ZM36.1514 23.8701L35.252 23.917L35.4189 25.0439L36.334 24.9805L36.1846 23.8701H36.1514ZM47.2695 25.0439H47.5352L47.7852 24.0918L47.4854 24.0283L47.2695 25.0439ZM46.8525 23.9014L46.6201 24.9805L46.9697 25.0117L47.2021 23.9805L46.8691 23.9014H46.8525ZM36.584 23.8545L36.7334 24.9639H38.0479V23.8545H36.584ZM38.4482 23.8545V24.9639H39.7461V23.8545H38.4482ZM40.1289 23.8545V24.9639H41.377V23.8545H40.1289ZM41.793 23.8545V24.9639H43.1416V23.8545H41.793ZM43.5576 23.8545V24.9639H44.9053L44.9893 23.8545H43.5576ZM45.3555 23.8545L45.2881 24.9639H46.2373L46.4531 23.8545H45.3555ZM65.9102 21.1904C66.0433 21.5551 66.1931 21.9359 66.3096 22.3164L58.3037 24.7432V24.7266C58.2039 24.4413 58.1037 24.1562 58.0039 23.8867L65.9102 21.1904ZM10.502 22.5703C10.3689 22.8398 10.2522 23.1251 10.1357 23.3945L2.29688 20.5078C2.44659 20.1432 2.61295 19.7786 2.7793 19.4141L10.502 22.5703ZM57.1221 21.8564H57.1055L57.1182 21.8496C57.1193 21.8519 57.1209 21.8542 57.1221 21.8564ZM64.1787 17.4307C64.3617 17.7795 64.5621 18.1285 64.7285 18.4932L57.1182 21.8496C56.9862 21.5824 56.8545 21.315 56.7061 21.0635L64.1787 17.4307ZM11.9668 19.7939C11.8004 20.0477 11.6508 20.3175 11.501 20.5713L4.11133 16.7803C4.31091 16.4316 4.51036 16.0987 4.72656 15.75L11.9668 19.7939ZM61.9658 13.8936C62.1987 14.2106 62.4312 14.544 62.6475 14.877L55.5576 19.1436V19.1602C55.3912 18.9064 55.2251 18.6678 55.042 18.4141L61.9658 13.8936ZM13.8145 17.2725C13.6148 17.5103 13.4321 17.7485 13.249 17.9863L6.4248 13.3232C6.67442 13.0061 6.92421 12.689 7.17383 12.3877L13.8145 17.2725ZM59.2695 10.6904C59.5523 10.9758 59.8188 11.2767 60.085 11.5938L53.627 16.6855V16.6699C53.4272 16.4479 53.2271 16.2101 53.0107 16.0039L59.2695 10.6904ZM15.9785 14.9404C15.7622 15.1466 15.5288 15.3688 15.3125 15.5908L9.1709 10.1504C9.45368 9.86507 9.73673 9.58003 10.0361 9.31055L15.9785 14.9404ZM56.1904 7.81934C56.5066 8.07304 56.8226 8.34275 57.1221 8.6123L50.6973 13.8301L56.1904 7.81934ZM18.4414 12.9424C18.1918 13.1168 17.9419 13.3068 17.709 13.4971L12.333 7.35938C12.6492 7.1056 12.9826 6.8678 13.3154 6.62988L18.4414 12.9424ZM53.7598 6.01074L48.8672 12.4668V12.4824C48.6175 12.308 48.3503 12.1332 48.084 11.9746L52.7285 5.34473C53.0779 5.56666 53.4271 5.78881 53.7598 6.01074ZM21.1211 11.1973C20.8548 11.34 20.5885 11.4986 20.3223 11.6572L15.8281 4.94824C16.1776 4.74208 16.5441 4.53624 16.8936 4.33008L21.1211 11.1973ZM49 3.29883C49.3828 3.47329 49.7491 3.66343 50.1152 3.83789L46.1035 10.833V10.8486C45.8207 10.7059 45.5543 10.5634 45.2715 10.4365L49 3.29883ZM24.0508 9.83398C23.7678 9.94501 23.4675 10.0714 23.1846 10.1982L19.6396 2.98145C20.0224 2.80701 20.4053 2.64859 20.7881 2.50586L24.0508 9.83398ZM44.9883 1.72852C45.3876 1.85534 45.7707 1.99794 46.1699 2.14062L43.1416 9.56445V9.54785C42.842 9.43683 42.5584 9.34224 42.2588 9.24707L44.9883 1.72852ZM27.1133 8.83398C26.8137 8.91329 26.4969 8.99273 26.1973 9.08789L23.668 1.50684C24.0674 1.39582 24.4668 1.26898 24.8662 1.17383L27.1133 8.83398ZM40.0283 8.62793L40.0117 8.64355L40.0156 8.625C40.0199 8.62591 40.0241 8.62703 40.0283 8.62793ZM40.7939 0.650391C41.21 0.729695 41.6269 0.824757 42.0264 0.919922L40.0156 8.625C39.7204 8.56204 39.4249 8.48438 39.1133 8.4375L40.7939 0.650391ZM30.3418 8.2002L30.1592 8.23145C29.9096 8.26315 29.6431 8.31084 29.377 8.3584L27.8789 0.523438C28.2282 0.460036 28.5608 0.411814 28.9102 0.364258L29.0938 0.333008L30.3418 8.2002ZM36.5 0.0791016C36.916 0.110812 37.3321 0.142875 37.748 0.19043L36.8164 8.08887C36.5003 8.05716 36.1842 8.02563 35.8848 8.00977L36.5 0.0791016ZM33.5713 7.94629C33.2551 7.94629 32.9383 7.94582 32.6221 7.97754L32.1729 0.0478516C32.5889 0.0319937 33.0049 0.0158578 33.4209 0L33.5713 7.94629Z" fill="var(--fill-0, #002C41)"/>
</svg>
