<svg preserveAspectRatio="none" width="100%" height="100%" overflow="visible" style="display: block;" viewBox="0 0 92.1816 53.626" fill="none" xmlns="http://www.w3.org/2000/svg">
<path id="Union" d="M26.8164 46.5615C27.4214 46.5616 27.9226 46.7966 28.3164 47.2695V46.6719H29.1182V50.9512C29.1182 51.7192 29.036 52.2668 28.875 52.5869C28.7103 52.9106 28.4524 53.1637 28.1016 53.3486C27.7472 53.5335 27.3141 53.6259 26.7988 53.626C26.1866 53.626 25.692 53.4943 25.3125 53.2275C24.9366 52.9608 24.7539 52.5618 24.7646 52.0283L25.6133 52.1572C25.6491 52.4095 25.7498 52.5907 25.9072 52.708C26.1256 52.8644 26.4191 52.9424 26.7949 52.9424C27.1994 52.9424 27.5111 52.8645 27.7295 52.708C27.9477 52.5516 28.0976 52.3347 28.1729 52.0576C28.2194 51.8869 28.2373 51.5272 28.2373 50.9795C27.8578 51.4133 27.382 51.6269 26.8164 51.627C26.1112 51.627 25.5634 51.3814 25.1768 50.8906C24.7865 50.3998 24.5928 49.8094 24.5928 49.123C24.5928 48.65 24.682 48.2154 24.8574 47.8135C25.0364 47.4152 25.295 47.1066 25.6279 46.8896C25.9681 46.6727 26.3617 46.5615 26.8164 46.5615ZM56.0244 44.6807C56.9158 44.6807 57.5857 44.8688 58.0332 45.2422C58.4842 45.6192 58.7197 46.1247 58.7412 46.7471L57.3096 46.8105C57.2487 46.4587 57.1163 46.2063 56.916 46.0498C56.7119 45.8969 56.4104 45.8223 56.0059 45.8223C55.6017 45.8223 55.2655 45.904 55.0293 46.0674C54.8789 46.1741 54.7998 46.3169 54.7998 46.4912C54.7999 46.6511 54.8715 46.7896 55.0146 46.9033C55.1936 47.0491 55.6338 47.2019 56.3281 47.3584C57.0262 47.5184 57.542 47.6825 57.875 47.8496C58.208 48.0203 58.4691 48.2517 58.6553 48.5469C58.845 48.842 58.9384 49.2045 58.9385 49.6348C58.9385 50.026 58.8271 50.3965 58.6016 50.7344C58.3725 51.0756 58.0541 51.3316 57.6426 51.4951C57.2309 51.6623 56.7153 51.7441 56.0996 51.7441C55.2045 51.7441 54.513 51.5448 54.0332 51.1465C53.5537 50.7446 53.2676 50.1649 53.1709 49.4004L54.5674 49.2754C54.6497 49.7271 54.821 50.0551 55.0752 50.2686C55.3329 50.4784 55.6769 50.5849 56.1172 50.585C56.5755 50.585 56.9265 50.4887 57.1592 50.3037C57.3955 50.1152 57.5098 49.898 57.5098 49.6455C57.5097 49.4821 57.4598 49.3471 57.3633 49.2334C57.2666 49.1196 57.0911 49.0193 56.8477 48.9375C56.6829 48.8806 56.2963 48.7809 55.7021 48.6387C54.936 48.4573 54.3948 48.2296 54.0869 47.9629C53.6504 47.586 53.4356 47.1273 53.4355 46.5869C53.4355 46.2384 53.5356 45.911 53.7432 45.6123C53.9472 45.3064 54.2449 45.079 54.6279 44.9189C55.011 44.7589 55.4766 44.6807 56.0244 44.6807ZM91.1221 51.6309H90.3125L90.3086 51.627V51.0049C89.9828 51.4919 89.503 51.7412 88.873 51.7412C88.465 51.7412 88.0888 51.6339 87.7451 51.417C87.4017 51.1965 87.1369 50.8943 86.9473 50.5068C86.7575 50.1191 86.6641 49.6672 86.6641 49.1621C86.6641 48.6571 86.75 48.2229 86.9219 47.8174C87.0937 47.4155 87.3484 47.106 87.6885 46.8926C88.0321 46.6793 88.412 46.5732 88.8379 46.5732C89.1456 46.5733 89.4243 46.6374 89.6641 46.7617C89.9074 46.8897 90.1045 47.0529 90.2549 47.252V44.7979H91.1221V51.6309ZM18.4453 51.6309H17.6367V51.0049C17.311 51.4919 16.831 51.7401 16.2012 51.7402C15.7931 51.7402 15.4169 51.6339 15.0732 51.417C14.7296 51.1965 14.4642 50.8944 14.2744 50.5068C14.0847 50.1192 13.9922 49.6671 13.9922 49.1621C13.9922 48.6571 14.0772 48.2228 14.249 47.8174C14.4209 47.4155 14.6758 47.106 15.0195 46.8926C15.3632 46.6793 15.7427 46.5723 16.165 46.5723C16.4729 46.5723 16.7523 46.6363 16.9922 46.7607C17.232 46.8888 17.4287 47.0528 17.5791 47.252V44.7979H18.4453V51.6309ZM42.3799 46.5654C42.9382 46.5655 43.3927 46.7006 43.7471 46.9707C44.1015 47.2446 44.3314 47.6294 44.4316 48.1309L43.583 48.2588C43.5007 47.9245 43.3574 47.675 43.1533 47.5078C42.9493 47.3407 42.7021 47.2559 42.4121 47.2559C41.9753 47.2559 41.6168 47.4051 41.3447 47.7109C41.0692 48.0132 40.9336 48.4933 40.9336 49.1475C40.9336 49.8019 41.0661 50.2963 41.3311 50.5986C41.596 50.9009 41.9393 51.0507 42.3652 51.0508C42.7053 51.0508 42.9916 50.9507 43.2207 50.748C43.4498 50.5453 43.5973 50.2361 43.6582 49.8164L44.5098 49.9229C44.4167 50.4884 44.1806 50.9367 43.7939 51.2568C43.4073 51.5805 42.9345 51.7402 42.376 51.7402C41.6708 51.7402 41.1047 51.5162 40.6787 51.0752C40.2529 50.6342 40.0381 49.9977 40.0381 49.1729C40.0381 48.6394 40.1273 48.1695 40.3135 47.7676C40.4997 47.3657 40.7793 47.067 41.1553 46.8643C41.5312 46.6651 41.9395 46.5654 42.3799 46.5654ZM11.1562 46.5518C11.6002 46.5518 11.9509 46.6016 12.2266 46.7012C12.4986 46.8008 12.6992 46.9288 12.8281 47.0781C12.9569 47.2274 13.0469 47.4191 13.1006 47.6465C13.1292 47.7923 13.1465 48.0486 13.1465 48.4219V49.543C13.1465 50.3217 13.1644 50.8162 13.2002 51.0225C13.2396 51.2322 13.3119 51.4281 13.4229 51.6201H12.5098C12.4203 51.4423 12.3626 51.239 12.334 51.0078L12.1016 51.1982C11.8641 51.3673 11.633 51.4932 11.4102 51.5732C11.1131 51.6799 10.7911 51.7373 10.4512 51.7373C9.88549 51.7373 9.45178 51.6021 9.14746 51.3389C8.84325 51.0722 8.69346 50.7343 8.69336 50.3184C8.69336 50.0765 8.75067 49.8515 8.86523 49.6523C8.97971 49.45 9.12954 49.2897 9.31543 49.1689C9.50157 49.048 9.70971 48.956 9.94238 48.8955C10.1142 48.8493 10.3721 48.8103 10.7158 48.7676C11.4173 48.6858 11.9362 48.5893 12.2656 48.4756C12.2656 48.3618 12.2734 48.2869 12.2734 48.2549C12.2734 47.9137 12.1909 47.6719 12.0264 47.5332C11.8044 47.3411 11.4746 47.248 11.0342 47.248C10.6261 47.2481 10.3219 47.3164 10.125 47.4551C9.92818 47.5938 9.78446 47.839 9.69141 48.1875L8.83984 48.0771C8.91857 47.7252 9.0438 47.4444 9.22266 47.2275C9.39809 47.0106 9.65629 46.8469 9.98926 46.7295C10.3222 46.6122 10.7124 46.5518 11.1562 46.5518ZM21.7822 46.5518C22.2261 46.5518 22.5769 46.6016 22.8525 46.7012C23.1282 46.8008 23.3252 46.9287 23.4541 47.0781C23.5829 47.2274 23.6729 47.419 23.7266 47.6465C23.7552 47.7923 23.7734 48.0486 23.7734 48.4219V49.543C23.7734 50.3217 23.7914 50.8162 23.8271 51.0225C23.8665 51.2322 23.9379 51.4282 24.0488 51.6201H23.1396C23.0501 51.4423 22.9925 51.239 22.9639 51.0078L22.7275 51.1982C22.4903 51.3672 22.2602 51.4932 22.04 51.5732C21.7429 51.6799 21.4208 51.7373 21.0771 51.7373C20.5115 51.7373 20.0778 51.6021 19.7734 51.3389C19.4693 51.0722 19.3194 50.7342 19.3193 50.3184C19.3193 50.0765 19.3766 49.8515 19.4912 49.6523C19.6057 49.4498 19.7563 49.2898 19.9424 49.1689C20.1284 49.0482 20.3359 48.9559 20.5684 48.8955C20.7402 48.8493 20.9982 48.8102 21.3418 48.7676C22.0435 48.6858 22.5632 48.5894 22.8926 48.4756C22.8926 48.3618 22.8994 48.2869 22.8994 48.2549C22.8994 47.9135 22.817 47.6719 22.6523 47.5332C22.4304 47.3412 22.1013 47.2481 21.6611 47.248C21.253 47.248 20.9479 47.3164 20.751 47.4551C20.5543 47.5938 20.4114 47.8392 20.3184 48.1875L19.4658 48.0771C19.5445 47.7253 19.6698 47.4444 19.8486 47.2275C20.0241 47.0106 20.2826 46.8469 20.6191 46.7295C20.952 46.6122 21.3384 46.5518 21.7822 46.5518ZM32.4014 46.5518C32.8452 46.5518 33.196 46.6016 33.4717 46.7012C33.7438 46.8008 33.9444 46.9287 34.0732 47.0781C34.202 47.2274 34.292 47.419 34.3457 47.6465C34.3743 47.7923 34.3926 48.0486 34.3926 48.4219V49.543C34.3926 50.3217 34.4105 50.8162 34.4463 51.0225C34.4857 51.2322 34.557 51.4282 34.668 51.6201H33.7588C33.6693 51.4423 33.6117 51.239 33.583 51.0078L33.3467 51.1982C33.1094 51.3672 32.8793 51.4932 32.6592 51.5732C32.362 51.6799 32.04 51.7373 31.6963 51.7373C31.1306 51.7373 30.6969 51.6021 30.3926 51.3389C30.0885 51.0722 29.9386 50.7342 29.9385 50.3184C29.9385 50.0765 29.9958 49.8515 30.1104 49.6523C30.2249 49.4498 30.3755 49.2898 30.5615 49.1689C30.7475 49.0482 30.955 48.9559 31.1875 48.8955C31.3593 48.8493 31.6174 48.8102 31.9609 48.7676C32.6627 48.6858 33.1823 48.5894 33.5117 48.4756C33.5117 48.3618 33.5186 48.2869 33.5186 48.2549C33.5185 47.9136 33.4361 47.6719 33.2715 47.5332C33.0496 47.3412 32.7204 47.2481 32.2803 47.248C31.8721 47.248 31.567 47.3164 31.3701 47.4551C31.1734 47.5938 31.0341 47.8391 30.9375 48.1875L30.085 48.0771C30.1637 47.7253 30.289 47.4444 30.4678 47.2275C30.6432 47.0106 30.9014 46.8469 31.2344 46.7295C31.5673 46.6121 31.9575 46.5518 32.4014 46.5518ZM47.2207 46.5518C47.6645 46.5518 48.0154 46.6016 48.291 46.7012C48.5665 46.8007 48.7637 46.9288 48.8926 47.0781C49.0212 47.2274 49.1104 47.4192 49.1641 47.6465C49.1927 47.7923 49.2109 48.0486 49.2109 48.4219V49.543C49.2109 50.3217 49.2289 50.8162 49.2646 51.0225C49.304 51.2322 49.3754 51.4281 49.4863 51.6201H48.5771C48.4876 51.4423 48.43 51.239 48.4014 51.0078L48.1689 51.1982C47.9317 51.3672 47.7016 51.4932 47.4814 51.5732C47.1843 51.6799 46.8622 51.7373 46.5186 51.7373C45.9529 51.7373 45.5192 51.6021 45.2148 51.3389C44.9143 51.0722 44.7608 50.7342 44.7607 50.3184C44.7607 50.0765 44.818 49.8515 44.9326 49.6523C45.0471 49.4498 45.1938 49.2898 45.3799 49.1689C45.5661 49.048 45.7741 48.956 46.0068 48.8955C46.1787 48.8493 46.4367 48.8102 46.7803 48.7676C47.4818 48.6858 48.0007 48.5894 48.3301 48.4756C48.3301 48.3618 48.3369 48.2869 48.3369 48.2549C48.3369 47.9135 48.2545 47.6719 48.0898 47.5332C47.8679 47.3412 47.5389 47.2481 47.0986 47.248C46.6905 47.248 46.3864 47.3164 46.1895 47.4551C45.9925 47.5938 45.8525 47.8389 45.7559 48.1875L44.9043 48.0771C44.983 47.7252 45.1082 47.4445 45.2871 47.2275C45.4625 47.0106 45.7202 46.8469 46.0566 46.7295C46.3896 46.6121 46.7767 46.5518 47.2207 46.5518ZM61.8955 46.5615C62.6617 46.5615 63.2637 46.8037 63.7041 47.291C64.1444 47.7782 64.3557 48.5216 64.3379 49.5244H60.9326C60.9434 49.9119 61.0542 50.2147 61.2617 50.4316C61.4694 50.6486 61.7351 50.7559 62.043 50.7559C62.2541 50.7558 62.4334 50.6981 62.5801 50.5879C62.723 50.4741 62.8337 50.2964 62.9053 50.0479L64.2656 50.2686C64.0902 50.7485 63.8179 51.1108 63.4385 51.3633C63.0626 51.6121 62.5941 51.7373 62.0322 51.7373C61.1374 51.7373 60.4785 51.4562 60.0488 50.8945C59.7087 50.4428 59.54 49.873 59.54 49.1865C59.5401 48.3686 59.7625 47.7247 60.21 47.2588C60.6538 46.7932 61.2192 46.5616 61.8955 46.5615ZM78.4404 46.5625C79.1457 46.5625 79.7224 46.7859 80.1699 47.2305C80.6174 47.675 80.8427 48.2941 80.8428 49.0801C80.8428 49.7166 80.7463 50.2183 80.5459 50.5811C80.3454 50.9474 80.0546 51.2283 79.6787 51.4346C79.2993 51.6372 78.8879 51.7373 78.4404 51.7373C77.7208 51.7373 77.1402 51.513 76.6963 51.0684C76.2526 50.6238 76.0312 49.9831 76.0312 49.1475L76.043 48.8184C76.1009 48.0677 76.3617 47.4992 76.8252 47.1133C77.2656 46.7469 77.8031 46.5625 78.4404 46.5625ZM83.7539 46.5625C84.4589 46.5626 85.035 46.7862 85.4824 47.2305C85.9299 47.675 86.1562 48.2941 86.1562 49.0801C86.1562 49.7167 86.0589 50.2183 85.8584 50.5811C85.6579 50.9474 85.3681 51.2283 84.9922 51.4346C84.6128 51.6372 84.2013 51.7372 83.7539 51.7373C83.0343 51.7373 82.4537 51.513 82.0098 51.0684C81.5659 50.6238 81.3438 49.9832 81.3438 49.1475L81.3564 48.8184C81.4144 48.0676 81.6751 47.4992 82.1387 47.1133C82.579 46.7469 83.1166 46.5625 83.7539 46.5625ZM37.2422 46.5586C37.6467 46.5586 38.0011 46.6154 38.3018 46.7256C38.6096 46.8394 38.8353 46.9886 38.9785 47.1807C39.1253 47.3691 39.222 47.6253 39.2793 47.9453L38.4268 48.0596C38.391 47.8036 38.2769 47.6077 38.0908 47.4619C37.9047 47.3197 37.6431 47.2481 37.3066 47.248C36.9059 47.248 36.6231 47.3125 36.4512 47.4404C36.2793 47.5685 36.1934 47.7179 36.1934 47.8887C36.1934 47.9989 36.2292 48.0947 36.3008 48.1836C36.3688 48.2725 36.4834 48.3477 36.6338 48.4082C36.7201 48.4403 36.978 48.511 37.4033 48.6211C38.0191 48.7811 38.4489 48.9131 38.6924 49.0127C38.9357 49.1123 39.1251 49.2582 39.2646 49.4502C39.4043 49.6458 39.4727 49.8844 39.4727 50.1689C39.4726 50.4532 39.3904 50.7128 39.2188 50.958C39.0469 51.2034 38.803 51.3961 38.4844 51.5312C38.1658 51.6663 37.8042 51.7334 37.4033 51.7334C36.7338 51.7334 36.2285 51.5988 35.874 51.332C35.5268 51.0653 35.3053 50.6664 35.2051 50.1436L36.0645 50.0195C36.1146 50.3501 36.2469 50.6061 36.4688 50.7803C36.6907 50.9581 36.9991 51.0469 37.3965 51.0469C37.7937 51.0468 38.0909 50.9689 38.2842 50.8125C38.4775 50.6525 38.5742 50.4706 38.5742 50.2607C38.5741 50.0688 38.4917 49.9191 38.3164 49.8125C38.1983 49.7378 37.901 49.6421 37.4287 49.5283C36.7914 49.3718 36.3466 49.2369 36.0996 49.123C35.8563 49.0093 35.6669 48.8524 35.5381 48.6533C35.4092 48.4542 35.3477 48.2337 35.3477 47.9883C35.3477 47.7678 35.3985 47.5651 35.5059 47.373C35.6097 47.1845 35.753 47.0278 35.9355 46.9033C36.0716 46.8074 36.2541 46.7257 36.4902 46.6582C36.723 46.5942 36.9772 46.5586 37.2422 46.5586ZM67.252 46.5615C67.8606 46.5615 68.3119 46.6298 68.6055 46.7686C68.9025 46.9073 69.1098 47.0816 69.2314 47.2949C69.3532 47.5083 69.4141 47.8961 69.4141 48.4688L69.4004 49.998C69.4004 50.4318 69.4219 50.7553 69.4648 50.958C69.5078 51.1642 69.5899 51.3884 69.708 51.623H68.3623C68.3301 51.5377 68.2835 51.406 68.2334 51.2354C68.212 51.1609 68.1934 51.108 68.1826 51.083C67.95 51.2998 67.7032 51.4637 67.4385 51.5703C67.1735 51.6806 66.8935 51.7334 66.5928 51.7334C66.0631 51.7333 65.6477 51.5947 65.3398 51.3174C65.0357 51.0401 64.8858 50.6916 64.8857 50.2686C64.8857 49.9876 64.9535 49.7381 65.0967 49.5176C65.2327 49.3007 65.4262 49.1304 65.6768 49.0166C65.9274 48.8992 66.2888 48.7989 66.7578 48.71C67.3915 48.5962 67.8356 48.4867 68.0791 48.3906V48.2588C68.0791 48.0064 68.0145 47.8248 67.8857 47.7217C67.7569 47.6114 67.5133 47.5576 67.1553 47.5576C66.9119 47.5576 66.722 47.6039 66.5859 47.6963C66.4535 47.7888 66.3421 47.9495 66.2598 48.1807L65.0283 47.9707C65.168 47.4905 65.405 47.1384 65.7451 46.9072C66.0852 46.6761 66.5862 46.5615 67.252 46.5615ZM4.11328 49.6348C4.26723 50.0865 4.37859 50.4214 4.4502 50.6455C4.53253 50.3966 4.65792 50.0299 4.82617 49.5498L6.52344 44.7939H7.78711V51.627H6.88086V45.9072L4.82227 51.627H3.97363L1.92285 45.8115V51.627H1.02051V44.7939H2.43457L4.11328 49.6348ZM75.4473 45.5977H71.5986V47.7139H74.9277V48.5215H71.5986V51.627H70.6641V44.79H75.4473V45.5977ZM52.2578 46.5615C52.5512 46.5615 52.8482 46.6508 53.1523 46.832L52.8525 47.6113C52.6377 47.4868 52.4258 47.4297 52.2109 47.4297C52.0213 47.4297 51.8531 47.4871 51.6992 47.5938C51.5453 47.704 51.4375 47.8572 51.373 48.0527C51.2765 48.3513 51.2305 48.6784 51.2305 49.0303V51.623H50.3604V46.6758H51.1445V47.4229C51.3414 47.0744 51.531 46.8398 51.6992 46.7295C51.8675 46.6157 52.0537 46.5615 52.2578 46.5615ZM12.2695 49.1406C11.9545 49.2651 11.4785 49.3681 10.8486 49.457C10.4906 49.5068 10.2392 49.56 10.0889 49.624C9.93858 49.688 9.82385 49.7776 9.74512 49.8984C9.66293 50.0193 9.62695 50.1512 9.62695 50.2969C9.62703 50.5208 9.71722 50.7061 9.89258 50.8555C10.068 51.0046 10.3258 51.0791 10.6621 51.0791C10.9986 51.0791 11.2963 51.0075 11.5576 50.8652C11.8187 50.723 12.0086 50.5313 12.1338 50.2861C12.2269 50.0976 12.2734 49.8162 12.2734 49.4463V49.1406H12.2695ZM22.8926 49.1406C22.5775 49.2651 22.1008 49.3681 21.4707 49.457C21.1129 49.5068 20.8623 49.56 20.7119 49.624C20.5651 49.688 20.4505 49.7775 20.3682 49.8984C20.2895 50.0193 20.25 50.1511 20.25 50.2969C20.2501 50.5208 20.3399 50.7061 20.5117 50.8555C20.6871 51.0046 20.9453 51.0791 21.2852 51.0791C21.6251 51.079 21.9184 51.0074 22.1797 50.8652C22.4409 50.723 22.6306 50.5314 22.7559 50.2861C22.8489 50.0976 22.8955 49.8162 22.8955 49.4463V49.1406H22.8926ZM33.5146 49.1406C33.1996 49.2651 32.7236 49.3681 32.0938 49.457C31.7361 49.5068 31.4854 49.5601 31.335 49.624C31.1846 49.688 31.07 49.7775 30.9912 49.8984C30.9089 50.0194 30.873 50.151 30.873 50.2969C30.8731 50.5208 30.962 50.7061 31.1338 50.8555C31.3092 51.0048 31.5672 51.0791 31.9072 51.0791C32.2474 51.0791 32.5414 51.0075 32.8027 50.8652C33.0638 50.723 33.2537 50.5314 33.3789 50.2861C33.472 50.0976 33.5186 49.8162 33.5186 49.4463V49.1406H33.5146ZM48.3369 49.1406C48.0219 49.265 47.5459 49.3681 46.916 49.457C46.5583 49.5068 46.3076 49.5601 46.1572 49.624C46.0104 49.688 45.8922 49.7775 45.8135 49.8984C45.7311 50.0194 45.6914 50.1511 45.6914 50.2969C45.6915 50.5208 45.7807 50.7061 45.9561 50.8555C46.1315 51.0049 46.39 51.0791 46.7266 51.0791C47.063 51.0791 47.3598 51.0075 47.6211 50.8652C47.8823 50.723 48.072 50.5314 48.1973 50.2861C48.2904 50.0976 48.3369 49.8162 48.3369 49.4463V49.1406ZM16.2402 47.2559C15.8392 47.2559 15.5312 47.409 15.2734 47.7148C15.0122 48.0207 14.8828 48.501 14.8828 49.1553C14.8829 49.7917 15.0233 50.2642 15.2988 50.5771C15.5745 50.8901 15.9035 51.0468 16.2793 51.0469C16.6552 51.0469 16.9815 50.898 17.25 50.5957C17.5149 50.297 17.6504 49.8379 17.6504 49.2227C17.6504 48.5433 17.5143 48.049 17.2422 47.7324C16.9737 47.4124 16.6412 47.2559 16.2402 47.2559ZM78.4404 47.2588C78.0144 47.2588 77.6419 47.4156 77.3555 47.7285C77.0691 48.0451 76.9258 48.5183 76.9258 49.1514C76.9258 49.7845 77.0691 50.2612 77.3555 50.5742C77.6419 50.8872 78.0072 51.0469 78.4404 51.0469C78.8736 51.0469 79.2312 50.8868 79.5176 50.5703C79.804 50.2538 79.9473 49.7704 79.9473 49.123C79.9473 48.5114 79.801 48.0454 79.5146 47.7324C79.2247 47.4159 78.8665 47.2588 78.4404 47.2588ZM83.7539 47.2588C83.328 47.2588 82.9553 47.4157 82.6689 47.7285C82.3861 48.0451 82.2393 48.5183 82.2393 49.1514C82.2393 49.7845 82.3861 50.2612 82.6689 50.5742C82.9553 50.8871 83.3208 51.0469 83.7539 51.0469C84.1869 51.0468 84.5447 50.8868 84.8311 50.5703C85.1174 50.2538 85.2607 49.7703 85.2607 49.123C85.2607 48.5113 85.1136 48.0454 84.8271 47.7324C84.5373 47.4161 84.1797 47.2589 83.7539 47.2588ZM88.916 47.2559C88.5151 47.2559 88.2076 47.409 87.9463 47.7148C87.685 48.0207 87.5557 48.5009 87.5557 49.1553L87.5654 49.3857C87.5959 49.9073 87.7333 50.3042 87.9746 50.5781C88.2503 50.891 88.5802 51.0469 88.9561 51.0469C89.3317 51.0468 89.6574 50.8978 89.9258 50.5957C90.1907 50.2969 90.3271 49.8379 90.3271 49.2227C90.3271 48.5434 90.1909 48.049 89.9189 47.7324C89.6504 47.4123 89.317 47.2559 88.916 47.2559ZM26.8809 47.2588C26.487 47.2588 26.1647 47.4125 25.8926 47.7148C25.6206 48.0172 25.4844 48.4687 25.4844 49.0625L25.4941 49.2979C25.5238 49.8287 25.6568 50.2239 25.8887 50.4854C26.1572 50.7841 26.4909 50.9336 26.8955 50.9336C27.2999 50.9335 27.6287 50.7869 27.9043 50.4883C28.1728 50.1931 28.3096 49.7275 28.3096 49.0908C28.3096 48.4543 28.1697 48.0275 27.8906 47.7217C27.615 47.4158 27.2746 47.2588 26.8809 47.2588ZM68.083 49.2471C67.9112 49.304 67.6352 49.372 67.2559 49.4502C66.8799 49.5284 66.6321 49.603 66.5176 49.6777C66.3389 49.7985 66.2531 49.9514 66.2529 50.1396C66.2529 50.3282 66.3242 50.482 66.4639 50.6172C66.6035 50.7488 66.7865 50.8154 67.0049 50.8154C67.2519 50.8154 67.4851 50.7379 67.707 50.585C67.8717 50.4641 67.9821 50.3211 68.0322 50.1504C68.068 50.0365 68.0859 49.8269 68.0859 49.5107V49.251L68.083 49.2471ZM61.9785 47.5684C61.6814 47.5684 61.4375 47.672 61.2441 47.8818C61.051 48.0916 60.958 48.3724 60.958 48.7314H62.9912V48.7285C62.9805 48.3479 62.8808 48.0625 62.6875 47.8633C62.4942 47.6678 62.2576 47.5684 61.9785 47.5684ZM60.2959 9.71777C67.1232 9.71787 70.5921 12.2747 70.7031 17.3857H66.1387C65.974 14.8284 64.1443 13.5518 60.6465 13.5518C59.8732 13.5518 59.1499 13.6294 58.4912 13.793C57.8289 13.9566 57.2561 14.1883 56.7656 14.4941C56.2751 14.8 55.8951 15.1769 55.623 15.625C55.351 16.0731 55.2149 16.5959 55.2148 17.1826C55.2148 17.7197 55.2764 18.1579 55.4053 18.5029C55.5307 18.8442 55.8349 19.1642 56.3145 19.4629C56.7942 19.7545 57.5067 20.0459 58.4482 20.334C59.3899 20.6221 60.675 20.9748 62.3076 21.3945C63.8828 21.7928 65.2502 22.209 66.4102 22.6357C67.5702 23.0661 68.5375 23.5855 69.3037 24.1973C70.0733 24.8089 70.6427 25.552 71.0186 26.4268C71.3873 27.3053 71.5732 28.4011 71.5732 29.7207C71.5732 30.9585 71.3303 32.1041 70.8398 33.1533C70.3529 34.2025 69.6577 35.116 68.7627 35.8984C67.8641 36.6809 66.7725 37.293 65.4873 37.7305C64.202 38.168 62.7618 38.3848 61.165 38.3848C57.0551 38.3846 53.0779 36.7664 51.4453 34.7676H51.3193V44.0479H50.7295V24.6416L55.8955 30.1367H54.5459C54.7965 33.0106 57.6681 34.5508 61.1123 34.5508C62.0752 34.5507 62.9205 34.4406 63.6543 34.2236C64.3915 34.0067 64.9999 33.6971 65.4902 33.3096C65.9772 32.9148 66.3493 32.459 66.6035 31.9326C66.854 31.4063 66.9834 30.8519 66.9834 30.2012C66.9834 29.5503 66.8906 29.0269 66.6973 28.625C66.5111 28.2268 66.1387 27.8712 65.584 27.5654C65.0327 27.2631 64.2663 26.9641 63.2891 26.6689C62.3117 26.3737 61.0332 26.0074 59.458 25.5664C57.9185 25.1645 56.59 24.7662 55.4766 24.3643C54.3596 23.9659 53.4501 23.4788 52.7305 22.9062C52.0145 22.3337 51.4843 21.6293 51.1406 20.79C50.7969 19.9471 50.625 18.8937 50.625 17.6133C50.625 16.4858 50.8507 15.4398 51.3018 14.4795C51.7564 13.5122 52.4048 12.6804 53.2461 11.9727C53.9824 11.3532 54.8529 10.8532 55.8604 10.4688L56.2959 10.3184C57.4953 9.92 58.828 9.71777 60.2959 9.71777ZM33.5293 10.667C40.1457 10.667 43.4541 14.0461 43.4541 20.7969V38.6807H37.668V21.0244C37.668 19.8791 37.5784 18.9077 37.3994 18.1074C37.2204 17.3074 36.9302 16.6534 36.54 16.1484C36.1463 15.6434 35.6382 15.2804 35.0117 15.0635C34.3816 14.843 33.6187 14.7324 32.7236 14.7324C29.9205 14.7325 27.1746 16.1836 24.4824 19.082V38.6836H18.8643V21.0283C18.8643 19.883 18.7679 18.9116 18.5781 18.1113C18.3884 17.3111 18.0872 16.6564 17.6826 16.1514C17.2781 15.6465 16.7666 15.2833 16.1367 15.0664C15.5066 14.8459 14.7473 14.7363 13.8486 14.7363C11.0918 14.7363 8.36717 16.1872 5.6748 19.0859V38.6875H0V11.3535H5.68164V14.8174C8.44203 12.0502 11.4571 10.667 14.7295 10.667C19.3945 10.667 22.3879 12.3284 23.709 15.6504C24.8045 14.562 25.7996 13.6899 26.6875 13.0283C27.5717 12.3668 28.3957 11.8619 29.1582 11.5098C29.9206 11.1578 30.6543 10.9299 31.3594 10.8232C32.0683 10.7201 32.7918 10.667 33.5293 10.667ZM88.5723 0C89.3741 0 90.0724 0.032054 90.6631 0.0996094C91.2574 0.167188 91.7627 0.25923 92.1816 0.373047V4.58105C91.684 4.50636 91.204 4.44572 90.7314 4.41016C90.266 4.37459 89.7825 4.35352 89.2812 4.35352C88.0426 4.35354 87.1438 4.68124 86.5889 5.34277C86.0341 6.00083 85.7588 7.13912 85.7588 8.76074V11.165H90.918V14.9424H85.7617V38.4912H80.9219V14.9385H76.8789V11.1611H80.9219V8.7002C80.9219 2.89916 83.4705 9.18215e-05 88.5723 0Z" fill="currentColor"/>
</svg>
