<svg width="124" height="53" viewBox="0 0 124 53" fill="none" xmlns="http://www.w3.org/2000/svg">
<path d="M119.342 7.88943H119.325C118.329 7.93541 117.288 8.02162 116.235 8.1538C115.396 8.25725 114.279 8.40667 113.133 8.6538L112.167 8.8607L111.611 8.03311C111.53 7.91242 111.443 7.78598 111.362 7.6538L111.287 7.52162C110.992 7.01012 110.72 6.52736 110.344 6.10782L110.309 6.06185C109.875 5.54461 109.505 5.03311 109.088 4.42966L109.001 4.33196C108.411 3.64231 107.734 2.87219 107.069 2.45265C106.131 1.8492 105.796 1.77449 105.015 2.30323C104.957 2.34346 104.887 2.40667 104.818 2.46989C104.118 3.14805 103.776 4.24575 103.481 5.20552L103.464 5.2515C103.001 6.87794 102.636 8.48139 102.405 9.99288L102.26 10.9067L101.369 11.194C100.993 11.309 100.605 11.3894 100.235 11.4699L100.189 11.4814C99.8414 11.5504 99.4884 11.6308 99.1528 11.7285C97.3127 12.2687 95.4089 12.832 93.8465 13.9297C93.7713 13.9814 93.7192 14.0274 93.6671 14.0733C93.4357 14.2975 93.2621 14.6366 93.1753 15.0561C93.1174 15.5044 93.2679 16.0159 93.5803 16.4239C95.2006 18.286 97.44 19.5216 99.6041 20.7228L100.374 21.1538L100.351 22.0274L100.339 22.2228C100.339 22.3435 100.339 22.4527 100.333 22.5676C100.333 22.809 100.333 23.0331 100.304 23.2228C100.299 23.3549 100.281 23.4814 100.258 23.6136V23.694C100.2 24.1021 100.142 24.4929 100.142 24.8664C100.125 26.2458 100.102 27.7917 100.646 29.1538L100.675 29.2343C100.802 29.6308 101.195 30.5504 102 30.5618C102.677 30.5676 103.331 30.2113 104.025 29.8435C104.181 29.7572 104.32 29.6825 104.459 29.6078L104.482 29.5906C104.702 29.4756 104.991 29.3205 105.252 29.1251C105.501 28.9412 105.749 28.7572 105.992 28.5848C106.334 28.3377 106.687 28.0791 107.034 27.8205C107.3 27.5791 107.555 27.3262 107.757 27.1308L108.434 26.4699C108.66 26.2515 108.903 26.0159 109.135 25.8032L109.794 25.194L111.414 25.7917C112.919 26.3549 114.47 26.9354 116.044 27.1768C116.217 27.2055 116.374 27.2343 116.536 27.2687C116.848 27.332 117.143 27.3894 117.444 27.3952H117.537C118.341 27.3952 119.249 27.3952 119.782 26.8952C120.303 26.2228 120.245 24.8779 119.655 22.9699C119.111 21.217 118.243 19.4354 117.774 18.5331L117.369 17.7458L117.884 17.0274C117.965 16.9124 118.086 16.7572 118.185 16.6481C118.254 16.5676 118.306 16.4986 118.358 16.4354C119.973 14.5561 121.645 12.3147 122.039 9.64805C122.085 9.13081 121.963 8.73426 121.657 8.46415C121.373 8.21127 120.91 8.03886 120.274 7.95265C120.013 7.91242 119.678 7.8607 119.342 7.87219" fill="currentColor"/>
<path d="M123.508 7.68247C123.555 7.75144 123.601 7.82615 123.63 7.90086C123.913 8.45259 123.994 9.0158 123.994 9.46983C123.994 9.61351 123.983 9.75144 123.977 9.86638V9.94684C123.503 13.0963 121.645 15.6193 119.874 17.6767C119.816 17.7457 119.753 17.8261 119.689 17.9009C119.672 17.9181 119.66 17.9353 119.649 17.9468C122.212 22.9871 122.75 26.4181 121.263 28.171L121.171 28.2802C120.065 29.3549 118.601 29.3549 117.531 29.3549H117.438C116.923 29.3434 116.507 29.2572 116.148 29.1882C116.015 29.1595 115.876 29.1365 115.737 29.1135C113.966 28.8376 112.323 28.2227 110.732 27.625C110.57 27.5618 110.402 27.5043 110.24 27.4411C109.991 27.671 109.731 27.9411 109.459 28.194C109.065 28.579 108.666 28.9583 108.342 29.2629L108.243 29.3434C107.885 29.6193 107.503 29.8894 107.127 30.1652C106.895 30.3319 106.658 30.5043 106.421 30.6767C106.062 30.9468 105.68 31.1595 105.391 31.3089C105.356 31.3261 105.327 31.3376 105.298 31.3606C105.258 31.3779 105.217 31.4009 105.176 31.4181C105.107 31.4583 105.032 31.4986 104.957 31.533C104.355 31.8606 103.643 32.2457 102.827 32.4124C102.688 32.4411 102.549 32.4583 102.405 32.4756C102.33 32.4813 102.26 32.4928 102.191 32.4928C102.115 32.4928 102.046 32.4928 101.971 32.4928C100.541 32.4813 99.3668 31.4871 98.8171 29.8434C98.1401 28.125 98.1632 26.3032 98.1863 24.8376C98.1863 24.3491 98.25 23.8664 98.3021 23.4411C98.3252 23.2917 98.3426 23.148 98.3542 23.0043C98.3715 22.8549 98.3715 22.6997 98.3715 22.5445C98.3715 22.4526 98.3715 22.3606 98.3715 22.2687C96.109 21.0101 93.8291 19.6882 92.07 17.6652L92.0179 17.602C91.3814 16.7802 91.0978 15.7514 91.2251 14.7917L91.2425 14.7112C91.2598 14.6078 91.283 14.5043 91.3119 14.4066C91.364 14.2112 91.4277 14.0216 91.5029 13.8376C91.7806 13.1997 92.1973 12.6767 92.7238 12.3204C94.5119 11.056 96.5835 10.4468 98.5856 9.85488C98.9965 9.73419 99.3899 9.65374 99.7719 9.57328C100.026 9.52155 100.269 9.46408 100.501 9.40661C100.75 7.88937 101.109 6.30891 101.577 4.68822L101.595 4.63075C101.705 4.27443 101.82 3.89511 101.971 3.51006C102.023 3.35489 102.086 3.20546 102.144 3.04454C102.503 2.20546 103.001 1.37213 103.817 0.751437L103.903 0.688218C104.008 0.619253 104.106 0.556035 104.21 0.498563C104.43 0.377874 104.633 0.274425 104.835 0.199713C105.032 0.125 105.229 0.0732759 105.425 0.0387931C105.547 0.0158046 105.674 0.00431034 105.796 0.00431034C105.859 -0.00143678 105.929 -0.00143678 105.998 0.00431034C106.351 0.0158046 106.681 0.0962644 106.993 0.216954C107.387 0.366379 107.752 0.58477 108.104 0.808908C108.342 0.958333 108.573 1.13649 108.805 1.3204C109.221 1.67098 109.615 2.08477 109.974 2.48132C110.136 2.65948 110.292 2.83764 110.436 3.01006C110.454 3.0273 110.465 3.05029 110.483 3.06753L110.674 3.29741C111.073 3.87213 111.42 4.34914 111.802 4.81465C112.311 5.38362 112.647 5.97557 112.971 6.54454L113.017 6.625C113.017 6.625 113.04 6.65948 113.052 6.67672C113.324 6.625 113.584 6.57328 113.851 6.5273C114.632 6.38937 115.378 6.29741 115.992 6.21695C116.547 6.14799 117.103 6.09052 117.641 6.05029C118.179 6.00431 118.711 5.96983 119.226 5.94684C119.492 5.93534 119.741 5.94684 119.967 5.96408C120.042 5.96983 120.123 5.98707 120.21 5.99282C120.343 6.01006 120.453 6.0273 120.557 6.04454C120.638 6.05603 120.725 6.06753 120.8 6.08477C120.945 6.10776 121.084 6.13649 121.205 6.17098C121.275 6.18822 121.338 6.20546 121.402 6.2227C121.535 6.26293 121.657 6.30316 121.772 6.34339C121.888 6.38937 122.004 6.43534 122.114 6.48132C122.218 6.5273 122.31 6.58477 122.409 6.63649C122.594 6.74569 122.756 6.86063 122.901 6.98132C123.155 7.19971 123.346 7.43534 123.497 7.67098" fill="currentColor"/>
<path d="M7.97387 38.2461H17.0588C17.5853 38.2461 18.0598 38.1311 18.4765 37.907C18.8989 37.6829 19.2229 37.3553 19.466 36.93C19.7032 36.5047 19.8247 35.9932 19.8247 35.3955C19.8247 34.4932 19.5585 33.7863 19.032 33.2748C18.5054 32.7633 17.8515 32.5104 17.0588 32.5104H7.97387V38.2518V38.2461ZM0 52.0104V26.5449H17.7763C19.4023 26.5449 20.8547 26.7461 22.122 27.1541C23.3892 27.5564 24.4655 28.1369 25.3567 28.9012C26.242 29.6599 26.919 30.5909 27.382 31.6829C27.8507 32.7748 28.0821 34.0104 28.0821 35.3898C28.0821 36.7691 27.8507 38.0104 27.382 39.1024C26.919 40.2001 26.242 41.1311 25.3567 41.9012C24.4713 42.6714 23.395 43.2633 22.122 43.6656C20.8547 44.0679 19.4023 44.2748 17.7763 44.2748H7.97387V52.0162H0V52.0104Z" fill="currentColor"/>
<path d="M52.322 26.5439V36.3543H38.9261V26.5439H30.958V52.0095H38.9261V42.3485H52.322V52.0095H60.2611V26.5439H52.322Z" fill="currentColor"/>
<path d="M64.3867 26.5439V52.0095H72.3606V42.521H88.806V36.8888H72.3606V32.5037H90.2468V26.5439H64.3867Z" fill="currentColor"/>
</svg>
