<svg preserveAspectRatio="none" width="100%" height="100%" overflow="visible" style="display: block;" viewBox="0 0 107.283 82.1348" fill="none" xmlns="http://www.w3.org/2000/svg">
<path id="Union" d="M34.7744 64.4599C36.1713 64.46 36.87 65.1101 36.8701 66.4043C36.8701 67.1234 36.6409 67.9752 36.1943 68.959C35.7477 69.9427 35.1925 70.8463 34.5283 71.6748C34.3623 71.8877 34.1785 71.9971 33.9609 71.9971C33.7435 71.997 33.5545 71.9281 33.3828 71.7959C33.211 71.6578 33.125 71.4559 33.125 71.1855C33.1251 71.059 33.1886 70.9321 33.3145 70.8057C33.8468 70.2821 34.3448 69.5629 34.8027 68.6426C35.2608 67.7278 35.4902 66.9969 35.4902 66.456C35.4902 66.2031 35.4266 66.0253 35.3008 65.916C35.175 65.8068 35.0608 65.755 34.9521 65.7549C34.3395 65.7549 33.5028 66.0133 32.4492 66.5254C31.39 67.0432 30.2734 67.7339 29.0996 68.6084C27.9259 69.4829 26.8154 70.4381 25.7676 71.4736C24.7197 72.5092 23.8542 73.6255 23.1729 74.8223C22.4916 76.0188 22.1543 77.1121 22.1543 78.1016C22.1543 79.022 22.4863 79.7005 23.1504 80.1435C23.8146 80.5865 24.6906 80.8056 25.7842 80.8057C27.3302 80.8057 29.1687 80.3514 31.2988 79.4424C33.4289 78.5333 35.4273 77.3826 37.2939 75.9961H37.2998C37.6147 75.7372 37.9756 75.4438 38.3936 75.0986C38.8917 74.6844 39.3209 74.3326 39.6816 74.0449C39.882 73.6137 40.1056 73.4186 40.3574 73.4531C40.5691 73.4877 40.7527 73.5789 40.9072 73.7226C41.0617 73.8664 41.1356 74.0278 41.1357 74.206C41.1357 74.4937 40.9811 74.8965 40.6777 75.4199C40.5861 75.581 40.4202 75.8637 40.1797 76.2607C39.9393 76.6576 39.7898 76.8992 39.7383 76.9912C40.9522 75.9095 42.5334 74.9778 44.4688 74.1953C46.4097 73.4129 48.1042 73.1483 49.5527 73.4014C49.8046 73.4359 49.8569 73.5679 49.7139 73.8037L49.7246 73.8154C49.6158 74.0108 49.4271 74.1204 49.1582 74.1377C47.6866 74.1722 46.02 74.6264 44.1533 75.501C42.2925 76.3754 40.701 77.4744 39.3955 78.7861C39.1607 79.0163 38.9313 79.3099 38.708 79.6494C38.4848 79.9945 38.3648 80.1732 38.3477 80.1904C38.0614 80.5471 37.7746 80.7194 37.4883 80.7021C37.3623 80.7021 37.2189 80.6392 37.0586 80.5127C36.8812 80.3689 36.8013 80.2017 36.8184 80.0234C36.8355 79.684 37.4939 78.4236 38.7822 76.2432C37.9578 76.9277 37.2939 77.4457 36.79 77.7851C36.7156 77.8369 36.635 77.8775 36.5605 77.9062C35.1234 78.9418 33.4744 79.8855 31.585 80.7197C29.4377 81.6633 27.4389 82.1348 25.5723 82.1348C24.1409 82.1347 22.9498 81.8124 22.0107 81.1738C21.0718 80.5352 20.6026 79.5284 20.6025 78.1592C20.6025 76.8992 20.992 75.581 21.7822 74.2002C22.5724 72.8253 23.5571 71.577 24.7422 70.4609C25.9275 69.3448 27.1759 68.3266 28.4814 67.3945C29.7869 66.4625 31.0119 65.7425 32.1514 65.2305C33.2908 64.7184 34.1675 64.4599 34.7744 64.4599ZM79.4717 66.5723C79.5976 66.5723 79.7237 66.6352 79.8496 66.7617C79.9754 66.8882 80.038 67.0262 80.0381 67.1699C80.0381 67.3368 79.9696 67.5386 79.8379 67.7803C79.7005 68.0276 79.483 68.321 79.1797 68.6719C78.8762 69.0228 78.5783 69.3453 78.292 69.6445C78 69.9379 77.599 70.3345 77.0781 70.8291C76.5571 71.3239 76.1329 71.7213 75.8008 72.0205C75.4687 72.3139 74.9821 72.757 74.3467 73.3437C73.7112 73.9247 73.2472 74.3445 72.9609 74.5976C72.3826 75.3168 71.9019 76.0823 71.5068 76.8935C71.1118 77.7047 70.9171 78.3892 70.917 78.9473C70.917 79.2349 71.003 79.46 71.1748 79.6211C71.3465 79.7819 71.5641 79.8623 71.833 79.8623C72.4056 79.8623 73.1503 79.6321 74.0664 79.1719C74.9824 78.7117 75.7263 78.2856 76.2988 77.8887C76.7913 77.555 77.4557 77.0718 78.2803 76.4619C78.4234 76.249 78.5785 76.0361 78.7617 75.8232C79.6492 74.7704 80.68 73.8954 81.8652 73.2051C83.0503 72.5091 84.0525 72.1641 84.877 72.1641C85.2376 72.1641 85.5185 72.2564 85.7246 72.4463C85.9306 72.6303 86.0332 72.8433 86.0332 73.0791C86.0331 73.873 85.3752 74.725 84.0469 75.6455C82.7185 76.5603 81.0518 77.3824 79.042 78.1016C78.9561 78.2281 78.9102 78.3956 78.9102 78.6142C78.9103 78.9419 79.0249 79.212 79.248 79.4248C79.4702 79.6366 79.8171 79.745 80.2773 79.7461C82.3208 79.7444 84.8908 78.5427 87.9922 76.1279C88.1525 76.404 88.2324 76.6518 88.2324 76.8877C88.2324 77.1754 88.1002 77.4225 87.8311 77.6182C84.9281 79.8389 82.3632 80.9443 80.1416 80.9443C79.3171 80.9443 78.681 80.7365 78.2344 80.3223C77.788 79.9081 77.5422 79.3905 77.5078 78.7578C77.5021 78.6485 77.5021 78.5331 77.5078 78.4238C76.8264 78.9129 76.0647 79.4083 75.1943 79.8916C73.8145 80.6682 72.6405 81.0536 71.6729 81.0537C71.1002 81.0537 70.6187 80.8805 70.2236 80.541C69.8287 80.2016 69.6279 79.7354 69.6279 79.1084C69.628 78.4814 69.8975 77.6243 70.4355 76.543C69.8805 77.0259 69.4168 77.3882 69.0391 77.624C68.7184 77.8369 68.4316 77.9463 68.1797 77.9463C67.9678 77.9463 67.7959 77.8195 67.6699 77.5664C67.5957 77.4572 67.613 77.3595 67.7217 77.2676L68.2314 76.8652C69.6114 75.8066 70.7339 74.9025 71.5928 74.166C73.6196 71.6634 75.1716 69.8798 76.248 68.8154C77.771 67.3197 78.8419 66.5723 79.4717 66.5723ZM55.2617 72.6758C55.565 72.6758 55.8228 72.7622 56.0518 72.9346C56.2808 73.1072 56.3896 73.3263 56.3896 73.5967C56.3895 74.5287 54.5631 75.8294 50.9043 77.4863C50.8357 77.607 50.7959 77.7339 50.7959 77.8603C50.7961 78.7806 51.4376 79.2353 52.7314 79.2353C53.7849 79.2353 54.9876 78.9475 56.333 78.3838C57.6041 77.8487 58.8066 77.1353 59.9346 76.2666C60.6674 75.3461 61.5089 74.5634 62.4707 73.9248C63.4842 73.2517 64.3376 72.9121 65.0361 72.9121C65.3624 72.9121 65.6145 72.952 65.792 73.0439L65.8037 73.0615C66.1758 73.2226 66.4903 73.4701 66.7422 73.8037C66.9941 74.1373 67.1089 74.4996 67.0918 74.8965C67.0517 76.1392 66.2729 77.4226 64.7383 78.7344C63.2037 80.0519 61.7379 80.708 60.3408 80.708C59.8943 80.708 59.5052 80.5408 59.1846 80.2187C58.8467 79.9138 58.6748 79.5112 58.6748 79.0049C58.6748 78.8265 58.6974 78.642 58.7432 78.4521C57.9644 78.9239 57.1402 79.3505 56.2412 79.7187C54.8498 80.2883 53.5899 80.5693 52.4619 80.5693C51.5114 80.5693 50.7265 80.3514 50.0967 79.9199C49.4726 79.4884 49.1582 78.8548 49.1582 78.0264C49.1584 76.7837 49.8395 75.581 51.2021 74.4189C52.5648 73.2569 53.9162 72.6758 55.2617 72.6758ZM65.0361 74.1025C64.6811 74.1026 64.1598 74.2701 63.4785 74.6152C62.7972 74.9604 62.1905 75.3977 61.6523 75.9385C61.5493 76.042 61.4636 76.2203 61.4121 76.4619C61.3548 76.7093 61.24 76.9395 61.0625 77.1523C60.3983 77.9981 60.0664 78.6196 60.0664 79.0166C60.0665 79.3559 60.2322 79.5283 60.5527 79.5283C61.446 79.5283 62.5685 78.9534 63.9141 77.8027L63.9082 77.8086C65.2479 76.6523 65.9236 75.6624 65.9238 74.834C65.9238 74.3449 65.6316 74.1025 65.0361 74.1025ZM84.6992 73.292C83.9607 73.3668 83.0619 73.7636 81.9971 74.4941C80.9321 75.2248 80.1015 76.0016 79.5117 76.8301C80.7082 76.3238 81.8247 75.7373 82.8438 75.0586C83.8629 74.3855 84.4873 73.7983 84.6992 73.292ZM54.958 73.8838C54.3683 73.8839 53.6816 74.1263 52.8916 74.6152C52.1014 75.1043 51.5341 75.6164 51.1963 76.1572C52.9484 75.2194 54.2022 74.4591 54.958 73.8838ZM60.873 64.501C61.2853 64.501 61.5435 64.7017 61.6523 65.0986C61.6695 65.1504 61.6807 65.2315 61.6807 65.3408C61.6804 65.7952 61.1423 66.4508 60.0664 67.3135C58.9899 68.1822 57.8151 68.9651 56.5439 69.667C56.2925 69.7933 56.1268 69.8572 56.0352 69.8574C55.8061 69.8574 55.6855 69.7417 55.6855 69.5058C55.6856 69.4139 55.7317 69.3273 55.8232 69.2353C56.9111 68.3148 58.1422 67.1009 59.5049 65.5879C59.5393 65.5476 59.6078 65.4784 59.7051 65.3691C59.8024 65.2598 59.8709 65.1847 59.9053 65.1387C59.9454 65.0926 60.0029 65.0295 60.083 64.9375C60.163 64.8457 60.2317 64.7826 60.2832 64.748C60.3405 64.7135 60.3982 64.673 60.4727 64.6269C60.5413 64.581 60.6099 64.5465 60.6729 64.5293C60.7358 64.512 60.7987 64.501 60.873 64.501ZM54.9639 53.7695C55.4448 53.7695 55.8974 53.8334 56.3154 53.9599C56.7392 54.0865 57.1061 54.2762 57.4268 54.5351C57.7473 54.794 58.0107 55.1105 58.2168 55.4844C58.4229 55.8583 58.5663 56.2962 58.6465 56.791H57.7246C57.5357 55.974 57.1915 55.3979 56.6934 55.0527C56.1952 54.7076 55.5367 54.5352 54.7295 54.5351C54.1569 54.5351 53.6642 54.6507 53.252 54.8808C52.8398 55.111 52.5015 55.4212 52.2324 55.8066H52.2275C51.9584 56.1979 51.7578 56.647 51.6318 57.1533C51.5059 57.6595 51.4424 58.2 51.4424 58.7637C51.4424 59.293 51.4996 59.817 51.6084 60.3291C51.7229 60.8411 51.9063 61.2955 52.1582 61.6982C52.4159 62.101 52.76 62.4235 53.1895 62.6709C53.6246 62.9181 54.1628 63.0391 54.8154 63.0391C55.2162 63.039 55.5888 62.9751 55.9209 62.8428C56.2528 62.7104 56.5451 62.5268 56.7969 62.291C57.0486 62.0553 57.2599 61.779 57.4316 61.4629C57.6034 61.1464 57.7354 60.7948 57.8213 60.415H58.7549C58.6518 60.8753 58.4973 61.3132 58.2969 61.7217C58.0908 62.1358 57.8271 62.4979 57.4951 62.8027C57.1631 63.1133 56.7623 63.3607 56.293 63.5391C55.8234 63.7174 55.2733 63.8096 54.6377 63.8096C53.9106 63.8095 53.2866 63.6775 52.7656 63.4072C52.2503 63.1368 51.8205 62.7737 51.4941 62.3135C51.1622 61.859 50.9213 61.3237 50.7725 60.7197C50.6237 60.1158 50.5498 59.4716 50.5498 58.793C50.5498 57.884 50.6644 57.1074 50.8877 56.4746C51.111 55.8361 51.4195 55.3177 51.8145 54.915C52.2095 54.5123 52.6737 54.2184 53.2119 54.04C53.7443 53.8617 54.3341 53.7696 54.9639 53.7695ZM88.4902 59.7021C88.4903 60.8815 88.7076 61.7333 89.1484 62.2568C89.5893 62.7802 90.2993 63.039 91.2725 63.0391C91.7819 63.0391 92.2173 62.9759 92.5723 62.8379C92.9273 62.6998 93.2142 62.492 93.4375 62.2158C93.6549 61.934 93.8148 61.5888 93.9121 61.1748C94.0037 60.7548 94.0557 60.2659 94.0557 59.7021V54.0176H94.9551V59.9668C94.9551 61.2095 94.6507 62.1644 94.0381 62.8203C93.4311 63.4818 92.5208 63.8096 91.2783 63.8096C90.0359 63.8095 89.1138 63.4758 88.5068 62.8027C87.9001 62.1296 87.5967 61.1862 87.5967 59.9668V54.0176H88.4902V59.7021ZM0.893555 62.7861H5.9834V63.5566H0V54.0176H0.893555V62.7861ZM16.8115 54.7832H11.3887V58.2295H16.2852V59H11.3887V62.7861H16.9434V63.5566H10.4961V54.0176H16.8115V54.7832ZM46.083 54.7832H40.666V58.2295H45.5566V58.9941H40.666V62.7861H46.2148V63.5566H39.7676V54.0176H46.083V54.7832ZM64.5557 58.1084H70.1729V54.0176H71.0713V63.5566H70.1729V58.8789H64.5557V63.5566H63.6621V54.0176H64.5557V58.1084ZM82.6729 54.7832H77.2559V58.2295H82.1455V58.9941H77.2559V62.7861H82.8037V63.5566H76.3564V54.0176H82.6729V54.7832ZM31.9736 54.0117C32.592 54.0117 33.0963 54.0808 33.4971 54.2246L33.5029 54.2187C33.9036 54.3625 34.2184 54.5584 34.4531 54.8057C34.6822 55.0473 34.8488 55.335 34.9404 55.6572C35.032 55.9794 35.0771 56.319 35.0771 56.6699C35.0771 57.1992 34.9685 57.6362 34.751 57.9814C34.5334 58.3266 34.2586 58.5974 33.915 58.7988C33.5715 59.0001 33.1822 59.1382 32.7471 59.2187C32.3119 59.2993 31.8764 59.3398 31.4355 59.3398H29.4033V63.5508H28.5039V54.0117H31.9736ZM103.973 54C105.02 54 105.817 54.1959 106.372 54.5928C106.927 54.9897 107.202 55.6285 107.202 56.5088C107.202 57.1129 107.082 57.5904 106.842 57.9414C106.601 58.2981 106.206 58.5973 105.662 58.8447C105.943 58.9425 106.16 59.0865 106.32 59.2705C106.475 59.4546 106.596 59.6675 106.676 59.9033C106.75 60.145 106.801 60.3984 106.824 60.6631C106.847 60.9333 106.864 61.1863 106.87 61.4336C106.882 61.7959 106.893 62.0952 106.916 62.331C106.939 62.5725 106.967 62.7684 106.996 62.918C107.025 63.0675 107.06 63.1832 107.105 63.2695L107.122 63.2519C107.168 63.3325 107.22 63.3954 107.283 63.4414V63.5224L106.292 63.5342C106.195 63.3731 106.126 63.154 106.086 62.8721C106.046 62.5902 106.017 62.2969 105.994 61.9863C105.971 61.6757 105.96 61.3764 105.942 61.083C105.925 60.7953 105.903 60.5532 105.868 60.3691C105.817 60.1161 105.731 59.9092 105.61 59.7539C105.49 59.5988 105.347 59.4838 105.182 59.4033C105.016 59.3285 104.826 59.2758 104.62 59.2471C104.414 59.2183 104.196 59.207 103.979 59.207H101.156V63.54L100.257 63.5283V54H103.973ZM29.4092 58.5801H31.4648C31.8884 58.58 32.2609 58.5518 32.5986 58.5C32.9305 58.4482 33.2107 58.3439 33.4453 58.2002C33.6744 58.0506 33.8584 57.8547 33.9844 57.6016L33.9893 57.6074C34.1152 57.3543 34.1787 57.0266 34.1787 56.6182C34.1787 56.0199 33.9839 55.5598 33.5947 55.2549C33.2054 54.9442 32.5807 54.7881 31.7275 54.7881H29.4092V58.5801ZM101.15 58.4531H103.944C104.276 58.4531 104.586 58.4186 104.872 58.3496C105.158 58.2748 105.404 58.166 105.616 58.0107C105.828 57.8554 106 57.6538 106.12 57.418C106.24 57.1763 106.304 56.9056 106.304 56.5547C106.304 56.2038 106.24 55.9107 106.114 55.6807C105.983 55.4564 105.811 55.272 105.6 55.1396C105.382 55.0073 105.135 54.9151 104.86 54.8633C104.586 54.8115 104.294 54.7832 103.996 54.7832H101.15V58.4531ZM24.4561 0.274403C24.8568 -0.105265 25.4863 -0.0882187 25.8643 0.308583L33.8467 8.70897C35.9308 10.9068 35.965 14.4448 33.9268 16.5908L33.8408 16.6836L39.7441 22.9023C63.7129 -4.00044 90.8138 18.6156 90.8662 23.6504C90.912 28.6847 65.7863 52.6137 39.7959 25.4687L33.457 32.2978L38.7881 37.5859H38.7939C30.3483 47.6426 19.8413 48.0737 17.625 47.7285C17.2299 47.671 17.0238 47.2228 17.293 46.9121C21.2683 42.3151 31.9831 30.9576 32.0371 30.9004L38.2324 24.2207L32.4609 18.1328L32.2666 18.3398C31.2817 19.3812 29.9982 19.9512 28.5381 19.9512C27.0781 19.951 25.6983 19.3469 24.6562 18.2539L16.6797 9.84765C16.3021 9.44496 16.3191 8.81226 16.7139 8.43261C17.1089 8.05294 17.7392 8.06999 18.1172 8.46679L26.0938 16.873C26.7522 17.5691 27.6228 17.9551 28.5332 17.9551C29.4034 17.955 30.2164 17.6033 30.8232 16.959L31.0811 16.6836L20.5391 5.57323C20.1612 5.17624 20.1782 4.54278 20.5732 4.16307C20.9741 3.78337 21.6045 3.80125 21.9824 4.19823L32.4551 15.2392L32.4785 15.2158C33.7951 13.8293 33.7549 11.534 32.3926 10.0957L24.4219 1.68944C24.044 1.2867 24.061 0.654135 24.4561 0.274403ZM77.1523 20.8369C75.8068 20.837 74.7188 21.988 74.7188 23.4033C74.7188 24.8186 75.8126 25.9696 77.1523 25.9697C78.4922 25.9697 79.5859 24.8186 79.5859 23.4033C79.5859 21.988 78.498 20.8369 77.1523 20.8369Z" fill="var(--fill-0, #002C41)"/>
</svg>
