<svg preserveAspectRatio="none" width="100%" height="100%" overflow="visible" style="display: block;" viewBox="0 0 94.4979 61.4911" fill="none" xmlns="http://www.w3.org/2000/svg">
<path id="Union" d="M90.6991 48.7997C91.2531 48.8367 91.7535 49.0027 92.2196 49.2988C92.7374 49.637 93.1216 50.0605 93.3583 50.582H93.3886V49.0449H94.4979V57.248C94.4979 58.6573 94.1722 59.7288 93.5214 60.4335C92.8704 61.1383 91.8495 61.4911 90.4589 61.4911C89.3642 61.4911 88.4764 61.2515 87.7812 60.7724C87.0858 60.2932 86.7163 59.6299 86.6571 58.8124H87.7665C87.8553 59.3762 88.1359 59.8139 88.6093 60.124C89.0827 60.434 89.6899 60.5888 90.4296 60.5888C91.4795 60.5888 92.2338 60.3069 92.6776 59.7294C93.1362 59.1516 93.3583 58.3337 93.3583 57.2626V56.0224H93.329C93.0627 56.6143 92.663 57.0649 92.1601 57.3749C91.6423 57.685 91.0803 57.8544 90.4442 57.8544C89.1572 57.8544 88.1506 57.4601 87.4257 56.6708C86.7008 55.8816 86.331 54.7537 86.331 53.288C86.331 51.9913 86.7016 50.9198 87.4413 50.0742C88.181 49.2286 89.1868 48.8056 90.4442 48.8056L90.6991 48.7997ZM71.9218 57.9384H70.9013V56.247H70.872C70.6353 56.8108 70.2206 57.2761 69.6142 57.6425C69.0077 58.0089 68.3419 58.1923 67.6171 58.1923C66.3745 58.1923 65.3685 57.7693 64.6288 56.9238C63.8891 56.0781 63.5185 54.9361 63.5185 53.4843C63.5185 52.0327 63.8892 50.9339 64.6288 50.0742C65.3685 49.2144 66.3596 48.7773 67.6171 48.7773C68.3567 48.7773 69.0225 48.9607 69.6142 49.3271C70.2057 49.6935 70.5908 50.1581 70.7831 50.7216H70.8124V45.6201H71.9218V57.9384ZM58.7323 48.8027C60.6946 48.9151 61.6698 49.8686 61.6698 51.6523V56.374C61.6698 56.8108 61.8914 57.0223 62.3202 57.0224C62.4681 57.0224 62.5869 56.9944 62.6757 56.9521V57.8681C62.4686 57.9104 62.2319 57.9384 61.9657 57.9384C61.4479 57.9384 61.0925 57.8113 60.9149 57.5576C60.7376 57.3039 60.6493 56.9236 60.6493 56.4306V56.374H60.619C60.19 57.0223 59.7314 57.5017 59.2284 57.7695C58.7255 58.0513 58.0747 58.1777 57.3056 58.1777C56.3587 58.1777 55.6038 57.9524 55.0712 57.4872C54.5388 57.0221 54.2579 56.3876 54.2431 55.5703C54.2431 54.9784 54.3761 54.5132 54.6571 54.1328C54.9234 53.7663 55.3381 53.4848 55.9003 53.2734C56.4477 53.062 57.3797 52.8928 58.6962 52.7519C59.3911 52.6815 59.8348 52.6108 60.0272 52.5263C60.2195 52.4418 60.3682 52.3291 60.4569 52.1601C60.5457 51.991 60.5897 51.7648 60.5897 51.497C60.5897 50.8488 60.3827 50.3834 59.9833 50.1015C59.5839 49.8197 58.992 49.665 58.1933 49.665C56.6547 49.665 55.8406 50.3701 55.7519 51.7372H54.6425C54.7017 50.7507 55.0416 50.003 55.6776 49.5097C56.3137 49.0023 57.2017 48.7627 58.3407 48.7626L58.7323 48.8027ZM81.8036 48.8046C82.7647 48.8662 83.4668 49.1421 83.9198 49.623C84.4375 50.1726 84.7039 51.0183 84.704 52.1738V57.9531H83.5946V52.3857C83.5946 50.6098 82.8246 49.7079 81.286 49.7079C80.4283 49.708 79.7334 49.9897 79.2157 50.5673C78.6979 51.1452 78.4315 51.9066 78.4315 52.8369V57.9394H77.3212V49.0449H78.4315V50.582H78.4608C78.6679 50.0465 79.0524 49.6093 79.5849 49.2851C80.1173 48.961 80.724 48.792 81.3896 48.7919L81.8036 48.8046ZM50.3075 46.6347H45.8993V57.9521H44.7011V46.6347H40.3065V45.6337H50.3075V46.6347ZM75.162 57.9521H74.0526V49.0585H75.162V57.9521ZM54.08 50.0175H53.9022C52.9704 50.0176 52.2011 50.3139 51.5946 50.9199C50.9883 51.5258 50.6777 52.2867 50.6776 53.2167V57.9384H49.5683V49.0449H50.5888V51.1308H50.6181C50.8844 50.412 51.3137 49.8766 51.8759 49.496C52.4381 49.1155 53.0892 48.9326 53.8437 48.9326H54.08V50.0175ZM60.5155 53.0898C60.3972 53.3012 60.0129 53.4427 59.3622 53.5273L58.2519 53.6816C57.1573 53.8366 56.4025 54.0487 55.9735 54.3447C55.5449 54.6405 55.3379 55.0349 55.3378 55.5419C55.3378 56.0493 55.5304 56.4302 55.9003 56.7685C56.27 57.1066 56.7726 57.2899 57.3642 57.29C58.2666 57.29 59.0213 57.0361 59.6278 56.5146C60.2343 55.9931 60.53 55.331 60.5448 54.5136V53.0761H60.5155V53.0898ZM67.6024 49.707C66.6852 49.707 65.9594 50.0593 65.412 50.7499C64.8794 51.4406 64.6132 52.3573 64.6132 53.499C64.6132 54.6123 64.8795 55.5287 65.412 56.2333C65.9446 56.9381 66.6704 57.29 67.6024 57.29C68.5343 57.2899 69.3478 56.9513 69.9247 56.289C70.5015 55.6266 70.7977 54.6967 70.7978 53.499C70.7978 52.3009 70.5163 51.3982 69.9394 50.7216C69.3625 50.0454 68.5933 49.7071 67.6024 49.707ZM90.4589 49.7363C89.5417 49.7363 88.8168 50.0744 88.2694 50.7509C87.7369 51.4274 87.4706 52.3152 87.4706 53.4286L87.4687 53.788C87.53 54.6694 87.8052 55.3985 88.2841 55.9658C88.8314 56.6141 89.5564 56.9384 90.4735 56.9384C91.3166 56.9384 92.0268 56.6142 92.5741 55.9521C93.1214 55.2897 93.4031 54.4437 93.4032 53.415C93.4032 52.3861 93.1368 51.4552 92.619 50.7646C92.1013 50.074 91.3761 49.7363 90.4589 49.7363ZM27.4872 40.6757C27.8158 40.9168 28.5902 41.4375 29.5224 41.7441C28.6791 41.9696 28.4271 42.9277 26.7704 43.9706C25.1135 44.9996 20.9562 44.9156 18.3524 46.4238C21.0594 49.2706 20.2167 52.8218 21.0448 53.372C21.8733 53.9217 24.8173 56.6425 24.8173 56.6425C24.7961 56.6452 23.3402 56.8223 19.6396 54.4579C15.9114 52.09 15.3497 48.4246 15.2313 47.3535C15.1132 46.2825 15.9556 46.1272 16.6952 43.83C17.435 41.5326 27.3329 40.5605 27.3329 40.5605L27.4872 40.6757ZM75.162 47.3818H74.0526V45.6337H75.162V47.3818ZM46.4315 37.6845H57.8085V42.8154H40.0106V11.7499H46.4315V37.6845ZM71.5077 11.7499C73.7414 11.7499 75.5314 12.1026 76.9071 12.8212C78.2682 13.526 79.3341 14.5553 80.1034 15.8661C80.8578 17.1768 81.3752 18.7695 81.6415 20.6298C81.9078 22.4903 82.0409 24.5624 82.0409 26.8456C82.0409 29.5659 81.8636 31.9483 81.5233 33.9638C81.1831 35.9792 80.591 37.6427 79.7626 38.9394C78.9342 40.25 77.8094 41.2222 76.4188 41.8564C75.0283 42.4905 73.2532 42.8154 71.1083 42.8154H60.9892V11.7499H71.5077ZM34.8329 10.7499C34.8329 10.7499 35.588 11.624 36.6532 11.624H36.7265V42.5761C33.7529 42.5901 29.2112 41.4061 26.8886 38.8974L26.4374 38.4521C24.2625 36.2103 22.1654 34.7817 18.7812 33.7245C15.1863 32.5969 10.068 28.3261 12.8339 22.9423C15.6004 17.5582 22.8206 13.3856 28.5312 12.7372C34.2413 12.0889 34.8329 10.7499 34.8329 10.7499ZM14.5204 36.1347C15.3785 34.0064 24.2851 37.248 24.2851 37.248C24.2988 37.2609 25.2547 38.1596 26.4149 39.4609C23.9294 39.8835 18.7368 38.4742 14.994 38.1923C12.538 39.0239 4.88955 39.8974 4.88955 39.8974C4.8755 39.9096 3.13837 41.4228 1.65029 42.2089C1.65037 41.1941 2.18263 39.5593 3.78018 38.5869C4.49026 36.9378 12.0347 35.3738 14.5204 36.1347ZM67.4101 38.1777H70.2646L70.2499 38.1923C71.3743 38.1923 72.292 38.0084 72.9726 37.6279C73.6529 37.2473 74.2002 36.6274 74.5995 35.7538C74.999 34.88 75.2652 33.738 75.3983 32.3144C75.5315 30.8909 75.6054 29.1291 75.6054 27.0009C75.6054 25.2391 75.546 23.6885 75.4276 22.3495C75.3093 21.0106 75.0582 19.9113 74.6884 19.0234C74.3185 18.1354 73.7707 17.4725 73.0458 17.0214C72.3209 16.5706 71.3446 16.3456 70.1317 16.3456H67.4101V38.1777ZM0.1708 25.9999C0.555446 27.4094 2.47842 28.1425 2.47842 28.1425L3.53603 28.3798C5.47275 28.8693 9.64226 30.0347 12.0058 31.5253C12.8 31.5393 13.9745 31.957 13.9882 31.9619C13.9882 31.9619 14.6244 32.5257 15.5712 33.1318C16.5134 33.7349 19.3453 34.6038 19.3729 34.6122C19.3299 34.6046 14.1243 33.6818 11.3251 33.7099C6.99047 32.5541 1.81263 30.4397 1.59072 29.6786C0.525588 29.0162 -0.391359 27.8745 0.1708 25.9999ZM7.65615 11.5956C7.6537 11.6374 7.43668 15.3647 7.86318 16.5283C8.64552 16.247 12.2115 22.3225 12.2274 22.3495C12.2147 22.3683 11.1036 24.0097 11.0595 25.9296C9.47651 24.3651 5.3932 19.3896 6.01455 17.4023L5.96768 17.1171C5.57592 14.3374 7.63062 11.6292 7.65615 11.5956ZM23.9442 1.06732C26.681 -0.20113 34.5805 -0.835663 34.744 2.06732C32.998 0.362578 27.5398 3.32239 27.0517 4.29486C28.7681 4.44989 33.9013 4.60428 34.3007 4.05463C34.1084 5.08353 27.6874 7.18451 27.6874 7.18451C27.6468 7.22064 22.7231 11.6005 20.6015 12.7236C18.4563 13.837 17.8046 16.3173 17.8046 16.3173C17.7778 16.3363 15.6563 17.8455 15.0683 18.7138C14.0475 17.6426 9.7574 11.7223 14.5507 9.03021L14.6923 8.73431C16.315 5.45623 22.7116 -0.0247591 23.9442 1.06732Z" fill="var(--fill-0, #002C41)"/>
</svg>
