<svg width="186" height="61" viewBox="0 0 186 61" fill="none" xmlns="http://www.w3.org/2000/svg">
<path d="M38.6348 44.4082C41.3437 44.4082 43.9819 45.8116 45.4385 48.334C47.6055 52.0909 46.3175 56.8964 42.5605 59.0635C41.3438 59.765 40.0204 60.1112 38.7148 60.1201H38.5723C37.1336 60.1023 35.7216 59.6933 34.4961 58.9385C29.2382 55.8033 27.4527 55.8213 22.1504 59.001C22.106 59.0187 22.0706 59.0457 22.0352 59.0635C18.2782 61.2394 13.4817 59.9512 11.3057 56.1943C9.1386 52.4374 10.4267 47.632 14.1836 45.4648C16.777 43.9639 19.8678 44.1155 22.248 45.5898C27.506 48.7251 29.2914 48.707 34.5938 45.5273C34.6381 45.5007 34.6735 45.4738 34.709 45.4561C35.9435 44.7455 37.2937 44.4082 38.626 44.4082H38.6348ZM88.9404 40.6865C90.024 40.6865 91.0371 40.8553 91.9785 41.1484C92.5202 41.3349 93.0264 41.5839 93.4971 41.877V41.2373H96.1973V54.7285H93.4971V54.0801C93.0264 54.3731 92.5203 54.6221 91.9785 54.8086C91.0282 55.1106 90.024 55.2705 88.9404 55.2705C87.8571 55.2705 86.8446 55.1016 85.9033 54.8086C85.024 54.5066 84.2512 54.0535 83.5762 53.5117C82.3594 52.4282 81.6846 50.9446 81.6846 49.3281V46.6279C81.6847 45.0117 82.3596 43.5288 83.5762 42.4453C84.2512 41.9035 85.0241 41.4415 85.9033 41.1484C86.8535 40.8465 87.857 40.6866 88.9404 40.6865ZM149.79 40.6865C150.873 40.6865 151.886 40.8554 152.827 41.1484C153.706 41.4504 154.479 41.9035 155.154 42.4453H155.146C156.362 43.5288 157.037 45.0117 157.037 46.6279V48.7861H145.233V49.3281C145.233 50.4117 145.678 51.38 146.415 52.0283C147.223 52.7388 148.405 53.1123 149.79 53.1123C151.176 53.1123 152.357 52.7299 153.165 52.0283L155.154 53.5117C154.479 54.0535 153.706 54.5155 152.827 54.8086C151.877 55.1105 150.873 55.2705 149.79 55.2705C148.706 55.2705 147.693 55.1017 146.752 54.8086C145.873 54.5067 145.101 54.0533 144.426 53.5117C143.209 52.4282 142.533 50.9446 142.533 49.3281V46.6279C142.533 45.0116 143.209 43.5199 144.426 42.4453C145.101 41.9037 145.873 41.4415 146.752 41.1484C147.702 40.8465 148.706 40.6865 149.79 40.6865ZM179.445 40.6777C181.87 40.6777 183.46 41.5482 184.437 42.4629L182.447 43.9463C181.639 43.2536 180.591 42.8447 179.445 42.8447C178.06 42.8448 176.577 43.3867 176.577 44.71C176.577 45.7136 177.047 46.1668 180.183 46.6553L180.2 46.6377C183.131 47.0995 186 48.2543 186 50.9277C186 53.1391 183.77 55.2441 179.925 55.2441C176.079 55.244 173.85 53.3075 173.042 51.4424L175.635 50.6875C176.141 51.7622 177.456 53.0859 179.916 53.0859C182.012 53.0859 183.291 52.1354 183.291 50.9277C183.291 49.7198 182.003 48.991 179.916 48.6357C176.204 48.0229 173.877 47.2146 173.877 44.7012C173.877 42.1877 176.514 40.6778 179.445 40.6777ZM106.482 40.6963C107.566 40.6963 108.605 40.8651 109.52 41.1582C110.399 41.4601 111.207 41.9124 111.847 42.4541L109.857 43.9375C109.049 43.227 107.868 42.8545 106.482 42.8545C105.097 42.8545 103.916 43.236 103.107 43.9375C102.361 44.5858 101.926 45.5631 101.926 46.6377V54.7295H99.2256V41.2373H101.926V41.8857C102.396 41.5927 102.903 41.3447 103.48 41.1582C104.386 40.8563 105.399 40.6963 106.482 40.6963ZM166.993 40.6963C168.077 40.6963 169.124 40.8651 170.03 41.1582C170.909 41.4601 171.718 41.9124 172.357 42.4541L170.368 43.9375C169.56 43.227 168.379 42.8545 166.993 42.8545C165.608 42.8545 164.426 43.236 163.618 43.9375C162.872 44.5858 162.437 45.5631 162.437 46.6377V54.7295H159.736V41.2373H162.437V41.8857C162.916 41.5927 163.414 41.3447 163.991 41.1582C164.906 40.8563 165.91 40.6963 166.993 40.6963ZM79.6689 37.9951H69.5527V42.8535H76.2939V45.0117H69.5527V54.7197H66.8525V45.0117H65.502V42.8535H66.8525V35.8369H79.6689V37.9951ZM132.585 40.6865C133.668 40.6865 134.681 40.8554 135.587 41.1484C136.502 41.4504 137.275 41.9035 137.914 42.4453H137.923C139.166 43.5288 139.842 45.0116 139.842 46.6279V54.7197H137.142V46.6279C137.141 45.5446 136.697 44.577 135.925 43.9287C135.152 43.2271 134.006 42.8535 132.585 42.8535C131.164 42.8536 130.018 43.2271 129.21 43.9287C128.438 44.577 128.029 45.5447 128.029 46.6279V54.7197H125.329V46.6279C125.329 45.5447 124.885 44.577 124.112 43.9287C123.34 43.2271 122.194 42.8535 120.772 42.8535C119.351 42.8535 118.206 43.2271 117.397 43.9287C116.625 44.577 116.217 45.5447 116.217 46.6279V54.7197H113.517V41.2285H116.217V41.8496C116.687 41.5833 117.194 41.3349 117.735 41.1484C118.65 40.8465 119.689 40.6865 120.772 40.6865C121.856 40.6865 122.86 40.8554 123.774 41.1484C124.689 41.4504 125.462 41.9035 126.102 42.4453C126.306 42.6407 126.51 42.8005 126.679 43.0137C126.847 42.7917 127.017 42.6318 127.221 42.4453C127.86 41.9035 128.669 41.4415 129.548 41.1484C130.463 40.8465 131.502 40.6866 132.585 40.6865ZM88.9404 42.8447C87.5551 42.8448 86.3736 43.2271 85.5654 43.9287C84.8197 44.577 84.3849 45.5536 84.3848 46.6279V49.3281C84.3848 50.4116 84.8195 51.38 85.5654 52.0283C86.3736 52.7388 87.5551 53.1122 88.9404 53.1123C90.3258 53.1123 91.5072 52.7298 92.3154 52.0283C93.0615 51.38 93.4971 50.4117 93.4971 49.3281V46.6279C93.497 45.5445 93.0614 44.577 92.3154 43.9287C91.5072 43.2271 90.3259 42.8447 88.9404 42.8447ZM149.799 42.8535C148.413 42.8535 147.232 43.2271 146.424 43.9287C145.678 44.577 145.242 45.5446 145.242 46.6279H154.355C154.355 45.5446 153.92 44.577 153.174 43.9287C152.366 43.2271 151.184 42.8535 149.799 42.8535ZM3.92578 31.1475C6.51918 29.6555 9.61003 29.8069 11.9902 31.2812C15.1699 33.1819 17.0798 33.9193 19.2646 33.5107C19.4688 33.5996 19.6734 33.7772 19.9131 34.0879C20.7833 35.2245 20.7475 35.9351 20.6143 36.7344C20.5965 36.841 20.5793 36.9568 20.5615 37.0723C20.3928 38.0136 20.1884 39.1766 20.5879 39.8516C20.8099 40.2157 20.8632 40.6425 20.8721 40.9268C20.7122 40.8291 20.4727 40.6334 20.1885 40.1982C19.5756 39.2568 18.9443 37.7734 18.9443 37.7734L18.3232 35.8193C18.3054 35.7484 18.2515 35.6956 18.1895 35.6689C18.154 35.6601 18.1273 35.6514 18.0918 35.6514C18.0562 35.6515 17.9854 35.6777 17.9854 35.6777L17.6475 35.8555C17.5412 35.9089 17.4967 36.0332 17.5322 36.1396C17.5342 36.1544 17.7297 36.7594 18.0479 38.085C18.1011 38.3067 18.1539 38.5197 18.1982 38.7148C18.4203 39.7629 18.6163 40.66 19.5488 41.335C20.0639 41.708 20.3834 41.8418 20.6055 41.9395C20.8185 42.0282 20.8453 42.0369 20.8896 42.1699L20.9697 42.4102C21.0141 42.5611 21.0763 42.7653 21.165 42.9961C18.0032 41.6461 16.0137 42.2057 11.8838 44.6836C11.8483 44.7102 11.8128 44.7283 11.7773 44.7461C8.02039 46.9221 3.21498 45.6339 1.04785 41.877C0.346247 40.6691 0.00888138 39.3456 0 38.04V37.8799C0.0267702 35.1977 1.43014 32.5951 3.92578 31.1475ZM44.9678 31.1484C48.7247 28.9813 53.5301 30.2694 55.6973 34.0264C57.864 37.7833 56.5761 42.579 52.8193 44.7461C50.226 46.247 47.1351 46.0963 44.7549 44.6221C41.0868 42.4372 39.1147 41.7798 36.4502 42.668C36.4857 42.6059 36.5211 42.5523 36.5566 42.499C36.681 42.3036 36.7787 42.1524 36.832 42.0547C36.912 41.9304 36.9749 41.7884 37.0371 41.6641C37.259 41.1937 37.4096 40.9358 37.7822 40.9355H37.8096C38.0582 40.9445 38.3516 41.0246 38.6357 41.1045C38.9641 41.2021 39.2658 41.2909 39.5498 41.291C39.7807 41.291 39.9673 41.2287 40.1094 41.1133C40.6142 40.7147 41.1017 39.6982 41.1221 39.6484C41.1576 39.5863 41.1577 39.4967 41.1133 39.4346C41.0777 39.3637 41.0065 39.3194 40.9355 39.3105L40.5186 39.2656H40.4912C40.3759 39.2658 40.2786 39.3466 40.252 39.4619C40.234 39.5777 40.1182 39.9148 39.9053 39.9414C39.7723 39.968 39.6658 39.9852 39.5771 40.0029C39.4262 40.0385 39.3278 40.0566 39.168 40.0566C39.0881 40.0566 38.999 40.0479 38.8926 40.0391C38.715 40.0213 38.5463 39.9856 38.4043 39.959C38.351 39.9501 38.3062 39.9415 38.2529 39.9326C38.5282 39.6662 38.9372 39.2927 39.4434 38.9375C39.7986 38.6888 40.0833 38.5374 40.332 38.4131C40.767 38.1912 41.1049 38.0227 41.3535 37.5078C41.54 37.126 41.5304 36.5308 41.5215 35.9004C41.5037 35.3143 41.4954 34.6569 41.6729 34.417C42.2058 33.6976 41.8771 33.1819 41.8594 33.1553C41.815 33.0844 41.7351 33.0489 41.6553 33.0488C41.6292 33.0488 41.5773 33.0573 41.5752 33.0576L41.0156 33.2617C40.989 33.2706 40.9621 33.2889 40.9443 33.3066C40.7223 33.4756 40.4646 34.1419 40.5889 35.0742V35.127C40.6866 35.9529 40.7404 36.3355 40.5361 36.6553L40.5186 36.6729C40.563 36.2732 40.5625 35.7844 40.376 35.4824C40.163 35.1273 40.2077 34.5152 40.2432 34.3105C40.252 34.2217 40.2253 34.1412 40.1543 34.0879C40.1099 34.0435 40.0562 34.0264 40.0029 34.0264C39.9763 34.0264 39.9494 34.0351 39.9229 34.0439C39.7895 34.0885 39.4883 34.2216 39.3906 34.4434C39.3818 34.4522 39.3721 34.4696 39.3633 34.4873C39.2212 34.7182 39.0971 35.0295 39.3545 35.7842C39.6032 36.5214 39.6569 37.1083 39.4971 37.4014C39.3815 37.5967 38.9989 37.8182 38.626 38.0312C38.4662 38.12 38.2975 38.2178 38.1377 38.3154C37.9334 38.4487 37.7468 38.6087 37.5869 38.7686C37.6224 38.2979 37.6137 37.7027 37.4805 37.1787C37.4361 37.0189 37.392 36.8676 37.3477 36.7256C37.1523 36.0597 37.0455 35.7222 37.374 35.1895C37.5427 34.9053 37.8183 34.6657 38.1113 34.4082C38.3867 34.1684 38.6708 33.9193 38.8662 33.6084C40.5626 33.5462 42.3036 32.7473 44.8525 31.2197C44.887 31.2025 44.9632 31.1515 44.9678 31.1484ZM27.1875 30.1885C27.5783 30.7658 28.0749 31.5657 28.4746 32.3916C29.2472 34.0079 29.7806 36.1569 29.7363 37.498C29.683 38.9014 29.6298 39.8614 29.2656 40.5098C28.8661 41.2112 28.7143 41.5396 28.5723 42.3564C28.5012 42.7472 28.4659 43.1385 28.457 43.4404C28.1462 43.1296 27.7198 42.6231 27.5244 42.0547C27.4623 41.8683 27.4008 41.7258 27.3564 41.6104C27.2559 41.3558 27.3593 40.9863 27.667 40.501L27.8271 40.2344C28.8663 38.5646 29.1141 37.2318 28.5635 36.2637C28.5192 36.193 28.4574 36.1574 28.3867 36.1396H28.3506C28.2885 36.1397 28.2348 36.1578 28.1904 36.2021L27.7822 36.584C27.7024 36.655 27.6753 36.7705 27.7285 36.8682C27.7299 36.8799 27.8522 37.1461 27.7109 37.6406C27.6844 37.7469 27.6584 37.8004 27.6406 37.8359C27.5873 37.7915 27.454 37.6583 27.1699 37.2588C26.6727 36.5218 26.6281 35.5362 26.7168 35.1719C26.7346 35.1097 26.7161 35.0474 26.6895 34.9941C26.654 34.9409 26.6011 34.8967 26.5391 34.8877L26.1211 34.7803H26.0684C25.9973 34.7803 25.9175 34.8167 25.873 34.8789C25.8531 34.9086 25.2964 35.6885 25.7393 36.6367C25.8014 36.7877 25.8724 36.939 25.9346 37.0811C26.281 37.8538 26.5835 38.5111 26.9121 38.7598C27.0185 38.8308 27.0897 38.9462 27.0986 39.0615C27.1075 39.2125 27.0452 39.3726 26.9209 39.5146C26.841 39.5946 26.7432 39.6836 26.6455 39.7725C26.2725 40.1188 25.802 40.5537 26.0596 41.0244C26.0773 41.051 26.0858 41.0778 26.1035 41.1133C26.0059 40.9801 25.9081 40.8203 25.8193 40.625C25.5085 39.9766 25.668 38.964 25.668 38.9551C25.6769 38.884 25.6595 38.8218 25.624 38.7686C25.5796 38.7153 25.5172 38.6709 25.4551 38.6709L24.7803 38.5996H24.7539C24.683 38.5996 24.6118 38.6265 24.5674 38.6885C24.5142 38.7417 24.4961 38.8216 24.5225 38.9014C24.5225 38.9102 24.7004 39.6034 24.7715 40.3672C24.8425 41.2369 25.8978 42.231 26.0234 42.3477C26.0234 42.3477 27.0451 43.3955 27.4893 44.0527C27.6225 44.257 27.7383 44.409 27.8271 44.5244C28.0399 44.7904 28.1106 44.8884 28.1904 45.3584C28.2082 45.4916 28.2179 45.6341 28.2002 45.7939C26.7969 45.7673 25.4196 45.3592 24.2295 44.6221C23.9898 44.48 23.7503 44.3373 23.5283 44.2041C22.8889 43.5558 22.4441 43.0673 22.7637 42.2236C23.1722 41.149 23.2975 40.8916 23.7061 40.0391C23.8126 39.817 23.9368 39.5504 24.0967 39.2129C24.8072 37.703 24.8427 37.3298 24.9404 36.4238L24.9668 36.166C25.082 35.1479 25.9651 33.8743 25.9795 33.8574C26.0505 33.7597 26.0418 33.6346 25.9619 33.5547L25.6777 33.2529C25.6334 33.2086 25.5709 33.1817 25.5 33.1816C25.4645 33.1816 25.4193 33.1912 25.3838 33.209C25.3614 33.2291 24.9738 33.4432 24.7002 33.9727C24.6735 33.8661 24.6469 33.7233 24.6025 33.5635C24.4782 33.0394 24.3363 32.2222 24.2031 31.2988C24.2475 31.2722 24.2916 31.2453 24.3359 31.2188C24.3713 31.2011 24.407 31.175 24.4424 31.1484C25.3128 30.6422 26.246 30.3306 27.1875 30.1885ZM29.9482 30.2598C30.3033 30.3308 30.65 30.4285 30.9873 30.5527C30.9962 30.5882 31.0058 30.615 31.0234 30.6416C31.0323 30.6594 31.6986 31.557 31.5742 32.2764C31.5387 32.4717 31.4936 32.6227 31.4492 32.7559C31.316 33.2087 31.2629 33.4844 31.7246 34.248C32.0177 34.7454 32.0806 35.0831 32.125 35.3584C32.1694 35.607 32.2139 35.8466 32.4092 36.0508C32.489 36.1394 32.5599 36.2104 32.6309 36.2725C32.8263 36.4501 32.9154 36.5309 32.9775 36.9395C33.0042 37.188 33.0215 37.4104 33.0215 37.5879C32.8616 37.4547 32.6488 37.2588 32.4268 36.9658C31.9205 36.3441 31.8135 35.3937 31.8135 35.3848C31.8046 35.3226 31.7779 35.2602 31.7246 35.2158C31.6803 35.1893 31.6273 35.1719 31.5742 35.1719H31.5469L31.1123 35.2334C30.988 35.2512 30.8905 35.3668 30.9082 35.5C30.9171 35.5533 31.0943 36.9031 31.5205 37.5693C31.7514 37.9156 32.08 38.129 32.373 38.3066C32.6217 38.4665 32.8354 38.5998 32.8887 38.7686C32.9331 38.9018 32.977 39.0888 33.0303 39.2842C33.1635 39.808 33.3061 40.3937 33.5635 40.7578C33.7233 40.9887 33.7144 41.1669 33.6611 41.6465C33.6345 41.8418 33.6076 42.0725 33.5898 42.3564C33.5898 42.3918 33.5898 42.4275 33.5811 42.4541C33.5367 42.4187 33.4741 42.383 33.4121 42.3564C33.3679 42.3301 33.3235 42.3301 33.2793 42.3301C32.8885 42.3301 32.4621 42.9163 32.2578 43.458C32.0535 44.0176 31.8048 44.3645 31.6094 44.5244C31.5561 44.409 31.4848 44.1507 31.4404 43.6533C31.4316 43.5023 31.4316 43.2893 31.4316 43.0674C31.4405 42.268 31.4228 41.7348 31.1475 41.5039C30.8366 41.2464 30.3127 41.0245 30.2949 41.0156C30.2594 40.9979 30.2328 40.998 30.1973 40.998C30.1262 40.9981 30.0551 41.0248 30.0107 41.0869C29.9398 41.1757 29.9398 41.2999 30.0107 41.3887C30.0107 41.3887 30.2239 41.6554 30.3838 42.2949C30.4282 42.4547 30.4731 42.5971 30.5264 42.748C30.6773 43.2274 30.8008 43.6091 30.5967 44.124C30.3481 44.781 30.3483 45.1898 30.3838 45.5449C30.1706 45.5982 29.966 45.6432 29.7617 45.6787C29.7173 45.4123 29.655 45.1721 29.584 44.9678C29.2379 44.044 29.4689 42.0197 30.0371 40.874C30.6499 39.6662 30.899 36.3978 30.5527 35.5537C30.2685 34.8343 29.5757 32.1429 29.5312 31.6455C29.5135 31.4501 29.576 31.2987 29.6826 31.0234C29.7625 30.8193 29.8595 30.5881 29.9482 30.2598ZM33.4131 44.0977C33.2978 44.1597 33.1827 44.222 33.0674 44.293C33.236 43.9646 33.3152 43.7335 33.3418 43.627L33.502 43.4316C33.4753 43.6537 33.4486 43.8756 33.4131 44.0977ZM33.4395 31.832C34.1587 32.2316 34.816 32.5685 35.4287 32.8438C35.5886 33.1635 35.7131 33.5458 35.7842 33.8389C35.7309 34.1941 35.4376 36.2101 36.0947 37.3203C36.5477 38.0841 36.4942 38.3332 36.3965 38.7861C36.361 38.946 36.3255 39.1325 36.2988 39.3633C36.21 40.1271 35.9258 40.7577 35.4551 41.2373C35.2508 41.4416 34.9937 41.8504 34.7539 42.25C34.8338 41.4773 34.869 40.5888 34.6914 40.2246C34.576 39.9849 34.4427 39.816 34.3184 39.665C34.1053 39.3809 33.9281 39.1586 33.8926 38.6348C33.866 38.2085 33.9543 37.7464 34.0342 37.3379C34.123 36.8496 34.1938 36.4944 34.0518 36.2725C33.9718 36.1482 33.874 36.0326 33.7764 35.8994C33.6254 35.7218 33.4479 35.5085 33.3857 35.3398C33.3059 35.1356 33.4486 34.8246 33.7949 34.4072C34.203 33.9188 34.1944 32.73 34.1855 32.5957C34.1855 32.5069 34.1317 32.4272 34.0518 32.3828C34.0163 32.3739 33.9808 32.3643 33.9453 32.3643C33.8922 32.3643 33.8392 32.3826 33.7949 32.418C33.5197 32.64 33.448 32.9328 33.377 33.1992C33.3326 33.3945 33.2796 33.5902 33.1465 33.75C33.0933 33.821 33.0396 33.8831 32.9863 33.9541C33.004 33.9187 33.0126 33.8918 33.0303 33.8652C33.2345 33.4922 33.483 32.1879 33.5098 32.0449C33.5186 31.9651 33.4925 31.8853 33.4395 31.832ZM23.0479 31.9648C23.1455 32.5953 23.2614 33.1373 23.3857 33.457C23.5101 33.8123 23.6607 34.1416 23.7939 34.4258C23.9449 34.7721 24.1223 35.154 24.1045 35.2783C24.1045 35.3315 24.0957 35.4025 24.0957 35.5088C24.0691 36.0416 24.0072 37.294 23.4834 37.9336C22.986 38.5464 22.7725 39.3104 22.5859 39.9766C22.5149 40.2518 22.4354 40.5183 22.3555 40.7402C22.3111 40.8379 22.2748 40.9443 22.2305 41.042L22.1777 37.4717C22.0712 36.4679 21.8848 33.7417 22.3555 32.8447C22.4532 32.6494 22.5413 32.436 22.6035 32.2051C22.7456 32.134 22.8969 32.0537 23.0479 31.9648ZM9.12988 34.7539C8.80162 34.7717 8.62459 34.8696 8.57129 35.0293C8.50916 35.2423 8.69484 35.4731 8.83691 35.6152C8.04663 35.8284 7.53171 36.2106 7.20312 36.5303C7.13217 36.6101 7.06984 36.6809 7.0166 36.7607C6.83003 36.6719 6.30594 36.3884 5.99512 36.1309C5.8086 35.9799 5.58654 35.9798 5.43555 36.1396C5.24919 36.335 5.24044 36.7254 5.52441 37.0361C5.94158 37.4888 5.89752 37.6403 5.66699 37.8887C5.54279 38.0306 5.56877 38.173 5.63965 38.2441C5.71067 38.3329 5.84404 38.3691 6.0127 38.3691C6.32353 38.3691 6.76796 38.2269 7.20312 37.9072C7.23865 37.8717 7.25604 37.8266 7.23828 37.7822C7.26493 37.7911 7.29171 37.8006 7.31836 37.8184C7.4249 37.8539 7.55797 37.9163 7.71777 37.9873C8.16186 38.2005 8.81086 38.5022 9.53027 38.5732C9.53907 38.7242 9.4683 38.902 9.41504 39.0352C9.344 39.2039 9.29029 39.3194 9.36133 39.4082C9.4057 39.4525 9.45947 39.4697 9.5127 39.4697C9.53909 39.4696 9.574 39.4611 9.5918 39.4609C9.96482 39.381 10.8533 38.5997 10.96 38.502C10.9777 38.4842 10.9862 38.4573 10.9951 38.4307C11.8922 38.2353 12.8963 37.88 13.1006 37.4004C13.1804 37.2317 13.1535 37.0631 13.0381 36.9033C12.674 36.3883 11.955 35.8728 11.1025 35.6152C11.1025 35.5886 11.093 35.553 11.0664 35.5264C11.0277 35.4967 10.1581 34.683 9.12988 34.7539ZM21.3516 32.8262C21.3338 32.8706 21.3069 32.9069 21.2803 32.9424C21.1295 33.1376 21.0231 33.3949 20.9609 33.6787C20.8899 33.5456 20.8096 33.4122 20.7031 33.2969C20.6589 33.2438 20.6058 33.1908 20.5703 33.1377C20.8279 33.0489 21.0851 32.9416 21.3516 32.8262ZM32.5068 31.2812C32.7999 31.4589 33.0842 31.6185 33.3506 31.7783C33.324 31.7694 33.2971 31.7608 33.2705 31.7607C33.2527 31.7607 33.2168 31.7695 33.2168 31.7695L32.7373 31.8672C32.6486 31.885 32.5862 31.9475 32.5596 32.0273C32.5505 32.0371 32.4977 32.2151 32.418 32.4365V32.3115C32.4268 31.983 32.373 31.5391 32.2842 31.1484C32.3552 31.1928 32.4358 31.2368 32.5068 31.2812ZM11.3057 19.2285C13.4817 15.4717 18.2783 14.1845 22.0352 16.3516C22.0705 16.3781 22.1062 16.3954 22.1504 16.4219C22.5943 16.6882 23.0117 16.9284 23.4023 17.1504C23.0826 17.7099 23.0829 18.4389 23.376 19.4336C23.5093 19.8865 23.865 20.4988 24.2822 21.2002C24.824 22.1328 25.4461 23.199 25.5615 23.9717C25.6326 24.4334 25.7122 24.7975 25.7744 25.1172C25.9165 25.7744 26.0142 26.2457 25.9609 27.0361C25.9432 27.3557 25.9604 27.6486 26.0137 27.9238C25.3743 28.1547 24.6992 28.4656 23.9443 28.8652C23.8467 27.4534 23.8559 26.1748 24.1045 25.624C24.7529 24.2118 24.5217 22.9322 24.5039 22.8789C24.4949 22.7992 24.4332 22.7278 24.3623 22.7012L23.8027 22.4795C23.7761 22.4618 23.7405 22.4619 23.7139 22.4619C23.6606 22.4619 23.6069 22.4792 23.5625 22.5146C23.4914 22.5679 23.4736 22.6573 23.4736 22.7461C23.4825 22.755 23.7133 24.167 23.207 24.9131C22.8341 25.4726 22.888 26.2011 22.9502 26.9648C22.9946 27.4889 23.0391 28.031 22.9414 28.5195C22.9325 28.5905 22.9141 28.6614 22.9053 28.7412C22.9053 28.5991 22.8965 28.51 22.8965 28.4922C22.8343 27.675 22.6121 26.254 22.2568 25.6768L22.1152 25.4463C21.1027 23.7943 20.9513 23.6429 20.7559 23.6162H20.7207C20.4809 23.6162 20.2502 23.8831 20.1348 24.043C20.0637 24.1407 20.0724 24.2736 20.1523 24.3535C20.1638 24.3651 21.1115 25.3324 21.4043 26.707C21.6352 27.7373 21.8218 28.6169 21.7686 29.3896C21.36 28.2794 20.5959 26.3346 20.0186 25.624C19.9031 25.4731 19.7883 25.3305 19.6729 25.1973C19.0601 24.4601 18.6516 23.9718 18.6338 23.0127C18.616 22.5242 18.5089 22.0884 18.4023 21.6621C18.2336 21.0139 18.0912 20.4451 18.3398 19.7969C18.7839 18.6335 19.0244 17.9053 19.0244 17.9053C19.0509 17.8432 19.0423 17.7719 19.0068 17.7188C18.9802 17.6566 18.9265 17.6125 18.8555 17.5947L18.5 17.5059C18.4822 17.497 18.4552 17.4971 18.4375 17.4971C18.3577 17.4972 18.2777 17.5414 18.2334 17.6123C18.1979 17.6834 17.1855 19.3002 16.999 20.4814C16.8659 21.334 17.1506 22.1693 17.417 22.9863C17.5324 23.3237 17.6476 23.6791 17.7363 24.0342C18.0205 25.2063 18.1009 25.3044 18.7314 26.0859L18.873 26.2539C19.5481 27.1065 20.1789 28.1373 20.2588 28.2705C20.3211 28.4307 20.8363 29.7092 20.9873 30.4463C19.6195 30.997 18.1179 31.1484 16.6436 30.873C16.3416 30.2158 16.3154 29.6915 16.3154 29.6826C16.3154 29.6028 16.2711 29.5317 16.2002 29.4873C16.1647 29.4695 16.1196 29.4521 16.0752 29.4521C16.0396 29.4523 15.9688 29.4785 15.9688 29.4785L15.5244 29.6914C15.4269 29.7447 15.3739 29.8427 15.3916 29.9492C15.4006 29.9765 15.4357 30.2254 15.5332 30.5713C15.0714 30.4114 14.6187 30.2066 14.1836 29.958C10.4267 27.782 9.13854 22.9855 11.3057 19.2285ZM34.4961 16.4844C36.8674 15.0101 39.9672 14.8587 42.5605 16.3506C46.3175 18.5177 47.5968 23.3231 45.4297 27.0801C44.2573 29.1051 42.3209 30.4105 40.1982 30.8457C40.3848 30.6947 40.5186 30.5968 40.5186 30.5879C40.6159 30.5168 40.6422 30.3838 40.5801 30.2773L40.3584 29.8867C40.314 29.8069 40.2341 29.7628 40.1543 29.7627C40.1189 29.7627 40.0833 29.7714 40.0479 29.7891C40.0301 29.7979 39.6747 29.9668 39.3105 30.251C39.3372 30.0112 39.3632 29.7619 39.3721 29.6465C39.3897 29.54 39.3542 29.4333 39.2832 29.3623C39.2033 29.2649 39.0876 29.2207 38.9102 29.2207C38.7327 29.2208 38.5199 29.2739 38.3779 29.3271C38.0582 29.4426 38.0932 29.8511 38.1465 30.4551C38.1554 30.6149 38.1826 30.8018 38.1826 30.9883C37.4544 30.9528 36.7348 30.8102 36.0332 30.5615C36.1131 30.4817 36.2463 30.4198 36.4326 30.3311C36.7612 30.1801 37.1614 29.9932 37.4189 29.5225C37.8363 28.7411 38.0672 28.67 38.2715 28.6611C38.36 28.6612 38.4222 28.6785 38.502 28.7051C38.5818 28.7317 38.6796 28.7588 38.7949 28.7588C39.0081 28.7588 39.2038 28.6518 39.417 28.4209C39.5323 28.279 39.6388 28.1283 39.7363 27.9863C39.914 27.7288 40.0832 27.4795 40.252 27.4795C40.2874 27.4795 40.323 27.4882 40.3584 27.5059C40.4383 27.5414 40.509 27.569 40.5801 27.6045C40.7931 27.6933 41.0064 27.7909 41.2549 27.791C41.5924 27.791 41.9125 27.604 42.25 27.1865C42.9685 26.2995 42.9162 25.3328 42.916 25.2949C42.9071 25.1795 42.8186 25.0723 42.7031 25.0723C42.7017 25.072 42.6576 25.0635 42.5879 25.0635C42.4281 25.0635 42.2058 25.0905 42.0371 25.2236C41.9217 25.3213 41.8417 25.4813 41.7529 25.6855C41.6553 25.9075 41.5398 26.1563 41.3711 26.3428C41.2201 26.5026 41.0689 26.5204 40.7227 26.5293C40.5095 26.5471 40.2427 26.5559 39.9141 26.627C39.3192 26.7602 39.1419 27.0535 39.0176 27.2666C38.9466 27.3907 38.9107 27.444 38.8311 27.4795H38.8213C38.8568 27.0621 38.8575 26.4312 38.6621 26.0938C38.3869 25.6409 38.2976 25.4809 38.3242 25.25C38.3332 25.1613 38.3774 25.0548 38.4395 24.9307C38.546 24.7086 38.6792 24.4329 38.7236 24.0332C38.7683 23.5713 39.2841 22.8433 39.4795 22.6035C39.5237 22.5414 39.5411 22.4527 39.5146 22.3818C39.488 22.3019 39.4255 22.2394 39.3545 22.2217L38.7334 22.0439C38.7157 22.0439 38.6975 22.0352 38.6709 22.0352C38.6087 22.0352 38.5464 22.0619 38.502 22.1152C38.4127 22.2045 37.65 23.0211 37.7031 23.6426C37.7209 23.8557 37.6851 24.0782 37.6318 24.2559C37.5164 24.1226 37.3917 23.9445 37.2852 23.7402C37.2053 23.5893 37.1249 23.3944 37.0361 23.208C36.7519 22.5419 36.6102 22.248 36.3438 22.248C36.2994 22.2481 36.2553 22.2576 36.2109 22.2842C36.1399 22.3197 36.086 22.3996 36.0771 22.4795C36.077 22.5445 35.9889 23.9548 36.6543 24.7178L36.7344 24.8154C36.9592 25.0758 37.1047 25.2855 37.1699 25.4453C37.2143 25.5608 37.2674 25.7123 37.374 25.9521C37.4539 26.1563 37.5432 26.3247 37.6143 26.4668C37.8541 26.973 37.8985 27.0803 37.7031 27.3379C37.6232 27.4356 37.5602 27.5333 37.498 27.6221C37.2762 27.9326 37.1697 28.0928 36.7793 28.1904C36.3175 28.3059 36.0862 28.643 35.9707 28.8828C35.9174 28.5543 35.7488 28.2167 35.376 28.0391C34.8611 27.7816 34.4169 27.2495 34.2656 27.0449L34.4258 25.9873C34.6568 25.9072 35.083 25.6937 35.3848 25.2588C35.7754 24.6994 35.9443 24.2199 35.9443 24.2021C35.9709 24.1223 35.9614 24.0427 35.9082 23.9717C35.8638 23.9184 35.7927 23.8828 35.7217 23.8828H35.6953L35.2158 23.9355C35.1448 23.9444 35.0824 23.98 35.0469 24.0332C35.0202 24.0687 35.0029 24.1138 35.0029 24.1582C34.985 24.1939 34.8958 24.3362 34.5498 24.6201C34.5155 24.6373 34.4644 24.6788 34.4609 24.6816L34.8252 23.7764C34.8696 23.661 34.8338 23.5456 34.7363 23.4834C34.6919 23.4568 34.4788 23.3234 34.248 23.3232C34.0171 23.3232 33.7677 23.4654 33.7588 23.8828V24.0957C33.7588 24.522 33.7677 24.7351 33.3857 25.2236C32.9864 25.7296 33.1551 26.2093 33.2705 26.5645C33.3327 26.7243 33.377 26.8758 33.3682 26.9824C33.3593 27.0711 33.342 27.1332 33.3242 27.1953C33.2177 27.586 33.3418 27.7282 33.9453 28.1543C34.0519 28.2342 34.1504 28.306 34.2393 28.3682C34.7806 28.7409 34.8962 28.8209 34.9229 29.2559C34.9406 29.4779 34.9135 29.7715 34.8779 30.0469C34.816 30.0203 34.7631 29.9934 34.71 29.958C34.6746 29.9315 34.6389 29.9132 34.6123 29.9043C34.6034 29.9043 34.6026 29.8956 34.5938 29.8867C34.0965 29.5848 33.6257 29.318 33.1816 29.0693C33.1553 29.0605 33.129 29.0516 33.1113 29.0342C32.9959 28.972 32.88 28.9097 32.7734 28.8564C32.7647 28.8477 32.7558 28.8474 32.7471 28.8389C32.5518 28.7146 32.3829 28.5634 32.2852 28.3682C31.9121 27.6932 31.8496 26.8399 31.8496 26.8311C31.8495 26.7601 31.814 26.6976 31.7607 26.6621C31.7165 26.6268 31.6721 26.6095 31.6191 26.6094H31.5742C31.4054 26.6361 31.015 26.743 30.9795 27.0449C30.9706 27.1434 30.9441 27.5605 31.1836 28.1104C30.9704 28.0215 30.7657 27.9411 30.5703 27.8789C30.9166 26.8846 31.3697 25.9614 31.6982 25.5615C32.3021 24.7978 33.1727 23.4653 33.6523 22.3818C34.1675 21.2183 34.0703 20.5784 34.0703 20.5518C34.0614 20.463 33.9988 20.3919 33.9189 20.3564C33.8914 20.3473 33.6258 20.2589 33.4043 20.2588C33.1023 20.2588 32.9777 20.4279 32.96 20.5967C32.9512 20.6322 32.9512 20.6852 32.9512 20.7383C32.9334 21.0847 32.8978 21.8135 32.3027 22.5596C31.8232 23.1635 31.5034 23.9006 31.2725 24.4424C31.1926 24.6376 31.1129 24.8152 31.0508 24.9395C30.9975 24.833 30.9263 24.6821 30.8818 24.5312C30.8552 24.025 30.7569 23.1898 30.4727 22.9678C30.3662 22.8969 30.2511 22.8526 30.127 22.8525C29.8784 22.8525 29.6917 23.03 29.6738 23.0479C29.6384 23.0921 29.6115 23.1451 29.6113 23.1982C29.6024 23.2427 29.5494 24.2112 29.8691 24.9307C30.0822 25.4102 30.0113 26.3604 29.958 26.7246L29.5674 27.6045C28.8568 27.4624 28.1637 27.453 27.4531 27.5596L27.1865 25.9785L27.0537 24.4248C27.1603 24.2472 27.3202 23.8205 27.4268 22.8438C27.6133 21.1297 27.7817 19.5396 27.7373 19.0244C27.7284 18.9534 27.7468 18.8729 27.7734 18.793C29.7361 18.9882 31.5833 18.216 34.4961 16.4844ZM73.0869 8.31348C74.206 8.31348 75.2102 8.4823 76.125 8.77539C77.0308 9.07736 77.8127 9.50389 78.4521 10.0723C79.6686 11.1557 80.3436 12.6387 80.3438 14.2549V22.3467C80.3437 23.9629 79.6687 25.4549 78.4521 26.5029C77.8127 27.0713 77.0397 27.5331 76.125 27.8262C75.2102 28.1281 74.1705 28.2881 73.0869 28.2881C72.0035 28.2881 70.9997 28.1281 70.085 27.8262C69.1792 27.5242 68.3972 27.0713 67.7578 26.5029C66.5146 25.4461 65.8399 23.9629 65.8398 22.3467V14.2549C65.84 12.6387 66.5147 11.1468 67.7578 10.0723C68.3972 9.50389 69.1703 9.07736 70.085 8.77539C70.9997 8.47344 71.9679 8.31351 73.0869 8.31348ZM89.9541 13.7041C91.0375 13.7041 92.0499 13.873 92.9912 14.166C93.8705 14.468 94.6433 14.9211 95.3184 15.4629C96.535 16.5464 97.2099 18.0292 97.21 19.6455H94.5098C94.5097 18.5622 94.066 17.5946 93.3291 16.9463C92.5209 16.2358 91.3396 15.8623 89.9541 15.8623C88.5686 15.8623 87.3873 16.2446 86.5791 16.9463C85.8332 17.5946 85.3976 18.571 85.3975 19.6455V22.3457C85.3975 23.4293 85.833 24.3975 86.5791 25.0459C87.3873 25.7475 88.5686 26.1211 89.9541 26.1211C91.3396 26.1211 92.5209 25.7475 93.3291 25.0459C94.0751 24.3975 94.5098 23.4292 94.5098 22.3457H97.21C97.21 23.9622 96.5351 25.4546 95.3184 26.5293C94.6434 27.071 93.8704 27.5331 92.9912 27.8262C92.041 28.1281 91.0375 28.2881 89.9541 28.2881C88.8705 28.2881 87.8575 28.1193 86.916 27.8262C86.037 27.5242 85.2647 27.0709 84.5898 26.5293C83.3731 25.4457 82.6973 23.9622 82.6973 22.3457V19.6455C82.6974 18.0292 83.3731 16.5464 84.5898 15.4629C85.2647 14.9212 86.0369 14.4591 86.916 14.166C87.8664 13.864 88.8705 13.7041 89.9541 13.7041ZM123.687 13.7139C124.77 13.7139 125.782 13.8827 126.724 14.1758C127.265 14.3622 127.772 14.6103 128.242 14.9033V14.2549H130.942V27.7471H128.242V27.0986C127.772 27.3916 127.265 27.6397 126.724 27.8262C125.773 28.1281 124.77 28.288 123.687 28.2881C122.603 28.2881 121.59 28.1193 120.648 27.8262C119.769 27.5242 118.996 27.072 118.321 26.5303V26.5391C117.105 25.4555 116.43 23.9719 116.43 22.3555V19.6553C116.43 18.0389 117.105 16.5552 118.321 15.4717C118.996 14.93 119.769 14.4689 120.648 14.1758C121.599 13.8738 122.603 13.7139 123.687 13.7139ZM106.811 13.6953C107.894 13.6953 108.907 13.8641 109.849 14.1572C110.728 14.4592 111.501 14.9124 112.176 15.4541C113.392 16.5375 114.067 18.0206 114.067 19.6367V21.7959H102.264V22.3369C102.264 23.4203 102.707 24.3887 103.444 25.0371C104.252 25.7467 105.431 26.1192 106.814 26.1201C108.198 26.1195 109.378 25.7381 110.186 25.0371L112.176 26.5205C111.501 27.0623 110.728 27.5243 109.849 27.8174C108.898 28.1194 107.894 28.2793 106.811 28.2793C105.727 28.2793 104.715 28.1104 103.773 27.8174C102.894 27.5154 102.121 27.0623 101.446 26.5205C100.23 25.4369 99.5547 23.9534 99.5547 22.3369V19.6367C99.5548 18.0205 100.23 16.5287 101.446 15.4541C102.121 14.9123 102.894 14.4503 103.773 14.1572C104.715 13.8553 105.727 13.6953 106.811 13.6953ZM141.228 13.7041C142.311 13.7041 143.324 13.8729 144.229 14.166C145.144 14.468 145.917 14.9211 146.557 15.4629C147.8 16.5464 148.475 18.0293 148.475 19.6455V27.7373H145.774V19.6455H145.784C145.784 18.5623 145.34 17.5946 144.567 16.9463C143.795 16.2447 142.649 15.8711 141.228 15.8711C139.806 15.8711 138.661 16.2446 137.853 16.9463C137.08 17.5946 136.671 18.5621 136.671 19.6455V27.7373H133.971V14.2461H136.671V14.8672C137.142 14.6008 137.648 14.3525 138.189 14.166C139.104 13.864 140.144 13.7041 141.228 13.7041ZM73.0869 10.4805C71.7017 10.4805 70.5207 10.8535 69.748 11.5283C68.9666 12.2032 68.5314 13.1715 68.5312 14.2549V22.3467C68.5313 23.4302 68.9754 24.3986 69.748 25.0469C70.5207 25.7483 71.6662 26.1298 73.0869 26.1299C74.5078 26.1299 75.6537 25.7483 76.4619 25.0469C77.2346 24.3986 77.6435 23.4302 77.6436 22.3467V14.2549C77.6435 13.1715 77.2345 12.2032 76.4619 11.5283C75.6537 10.8624 74.4723 10.4805 73.0869 10.4805ZM123.687 15.8633C122.301 15.8633 121.12 16.2448 120.312 16.9463C119.565 17.5946 119.13 18.5718 119.13 19.6465V22.3467C119.13 23.4302 119.565 24.3985 120.312 25.0469C121.12 25.7572 122.301 26.1299 123.687 26.1299C125.072 26.1298 126.253 25.7485 127.062 25.0469C127.808 24.3985 128.242 23.4213 128.242 22.3467V19.6465C128.242 18.563 127.808 17.5946 127.062 16.9463C126.253 16.2358 125.072 15.8634 123.687 15.8633ZM24.8066 17.8789C25.2417 18.0831 25.6502 18.2516 26.0498 18.3848C26.0498 18.4114 26.0497 18.4469 26.0586 18.4824C26.103 18.7133 26.1295 18.9092 26.165 19.0957C26.2183 19.4953 26.2806 19.8686 26.4404 20.4014C26.4937 20.5611 26.5386 20.6941 26.583 20.8184C26.7429 21.2624 26.8131 21.467 26.5645 22.1064C26.4402 22.3994 26.361 22.6396 26.2988 22.835C25.9347 22.1777 25.3123 21.0578 24.957 20.3828C24.4599 19.4151 24.291 18.8821 24.584 18.2783C24.6461 18.154 24.7267 18.0121 24.8066 17.8789ZM106.819 15.8711C105.434 15.8712 104.252 16.2447 103.444 16.9463H103.454C102.708 17.5947 102.272 18.5629 102.272 19.6465H111.376C111.376 18.5631 110.932 17.5947 110.195 16.9463C109.387 16.2446 108.205 15.8711 106.819 15.8711ZM28.377 0C29.7092 0 31.0594 0.346107 32.2939 1.05664C36.0509 3.22377 37.339 8.02919 35.1719 11.7861C33.8308 14.1041 31.477 15.4802 28.9814 15.6758C29.0169 15.5072 29.0341 15.4006 29.043 15.3828C29.0518 15.3031 29.0345 15.2232 28.9814 15.1699C28.9371 15.1167 28.8746 15.0899 28.8037 15.0898H28.7764L28.2969 15.1436C28.1994 15.1525 28.1195 15.2229 28.0928 15.3203C28.0839 15.3205 28.0485 15.4629 27.9775 15.6846C27.489 15.6668 27.0001 15.6048 26.5205 15.4805C26.6271 15.294 26.7247 15.0805 26.8135 14.8496C27.0531 14.2192 27.0624 13.7222 27.0713 13.2871C27.0802 12.8874 27.0803 12.5759 27.249 12.2295C27.6819 11.3811 27.6053 10.5857 27.6045 10.5518C27.5956 10.4274 27.4885 10.3381 27.373 10.3203H26.7783C26.77 10.3121 26.7464 10.3116 26.7432 10.3115C26.6899 10.3115 26.6274 10.3385 26.583 10.374C26.5121 10.4361 26.4765 10.5422 26.5117 10.6309C26.5117 10.6486 26.5293 10.6581 26.5293 10.667C26.5204 10.756 26.503 10.9781 26.3877 11.5547C26.29 12.0432 26.1564 12.2831 26.0498 12.4785C26.0411 12.4872 26.0325 12.4962 26.0322 12.5049C26.0055 12.3185 25.9342 12.1146 25.7656 11.875C25.1439 10.978 24.7176 10.8888 24.6377 10.8799H24.6113C24.5227 10.8799 24.4428 10.9243 24.4072 10.9951L24.1406 11.4482C24.0962 11.5282 24.1049 11.6438 24.167 11.7148C24.2114 11.777 24.2825 11.8037 24.3535 11.8037C24.3801 11.8037 24.407 11.795 24.4336 11.7861C24.5224 11.7862 24.5663 11.9373 24.5752 12.1504C24.5841 12.4167 24.6382 12.6301 24.6826 12.8076C24.7625 13.1448 24.7976 13.2875 24.5312 13.5449C24.1586 13.9177 24.1314 14.104 24.1846 14.459V14.4951C20.632 12.2659 19.4596 7.59376 21.5732 3.93457C23.0298 1.4122 25.6681 2.34586e-05 28.377 0ZM25.8721 13.4385C25.9784 14.0423 25.6412 14.664 25.5879 14.7617L25.5518 14.7969C25.6139 14.5306 25.6494 14.2554 25.6494 14.0068C25.6405 13.7227 25.7382 13.5178 25.8359 13.3047C25.8448 13.2958 25.8456 13.2872 25.8545 13.2783C25.8545 13.3227 25.8632 13.3764 25.8721 13.4385ZM29.6113 5.19531C28.7943 5.1333 28.1106 5.78195 28.084 5.80859C28.0662 5.82636 28.0576 5.85325 28.0576 5.87988C27.3827 6.07525 26.8136 6.48311 26.5205 6.8916C26.4317 7.01594 26.4144 7.14998 26.4766 7.2832C26.6457 7.65605 27.4362 7.93979 28.1465 8.09961C28.1465 8.11737 28.1551 8.14444 28.1729 8.15332C28.2532 8.22473 28.9539 8.84565 29.2471 8.9082C29.2648 8.9082 29.2829 8.91699 29.3096 8.91699C29.3538 8.91699 29.3981 8.90828 29.4248 8.86426C29.4781 8.7932 29.4429 8.70354 29.3896 8.57031C29.3453 8.46391 29.2833 8.33113 29.292 8.20703C29.8602 8.15374 30.3752 7.91385 30.7305 7.74512C30.8548 7.69183 30.9621 7.63797 31.042 7.61133C31.0597 7.60241 31.0859 7.58508 31.1035 7.58496C31.0859 7.62035 31.1034 7.65604 31.1299 7.68262C31.4763 7.9313 31.8236 8.04688 32.0723 8.04688C32.2053 8.04681 32.3031 8.02019 32.3652 7.94922C32.4185 7.8959 32.4443 7.78046 32.3467 7.66504C32.1691 7.46969 32.1255 7.35424 32.4541 6.99902C32.685 6.75034 32.6665 6.43907 32.5244 6.28809C32.409 6.16396 32.2319 6.15513 32.0898 6.2793C31.8412 6.48354 31.4234 6.70518 31.2812 6.78516C31.2369 6.71422 31.192 6.65185 31.1299 6.59863C30.8723 6.34121 30.464 6.04865 29.8428 5.87109C29.9493 5.76457 30.0999 5.57778 30.0557 5.41797C30.0113 5.28474 29.8689 5.21308 29.6113 5.19531Z" fill="currentColor"/>
</svg>
