<svg width="232" height="39" viewBox="0 0 232 39" fill="none" xmlns="http://www.w3.org/2000/svg">
<path d="M63.2875 18.4735C63.2875 18.7388 63.5032 18.958 63.7644 18.958H69.4646C70.8045 18.958 71.8832 17.8391 71.8832 16.4722C71.8605 15.1111 70.7591 14.0152 69.4135 14.0152H63.7587C63.4919 14.0152 63.2818 14.2344 63.2818 14.5055V18.4735H63.2875ZM77.0668 28.9416C77.0668 29.2127 76.8283 29.4261 76.5672 29.4261C72.7348 29.23 71.0316 26.9922 67.4604 23.4855C67.3866 23.3875 67.2447 23.3356 67.1255 23.3356H63.7701C63.5032 23.3356 63.2931 23.5547 63.2931 23.8258V28.6186C63.2931 28.8897 63.0774 29.1031 62.8162 29.1031H58.5013C58.2345 29.1031 58.0244 28.8839 58.0244 28.6186V10.1222C58.0244 9.85686 58.2402 9.6377 58.5013 9.6377H70.4354C74.1258 9.6377 77.169 12.706 77.169 16.501C77.169 19.0561 75.778 21.2996 73.717 22.4647C73.5524 22.5627 73.524 22.805 73.6716 22.9261C75.0115 24.218 75.636 24.5814 76.6183 24.6563C76.8567 24.6563 77.0725 24.8755 77.0725 25.1408V28.9416H77.0668Z" fill="currentColor"/>
<path d="M86.3379 14.5054V16.6971C86.3379 16.9681 86.5536 17.1873 86.8148 17.1873H97.409C97.6759 17.1873 97.8916 17.4065 97.8916 17.6718V21.0804C97.8916 21.3514 97.6759 21.5706 97.409 21.5706H86.8148C86.5536 21.5706 86.3379 21.7898 86.3379 22.0551V24.2237C86.3379 24.4947 86.5536 24.7139 86.8148 24.7139H98.7489C99.0158 24.7139 99.2315 24.9331 99.2315 25.1984V28.6301C99.2315 28.9011 99.0158 29.1203 98.7489 29.1203H81.5404C81.2792 29.1203 81.0635 28.9011 81.0635 28.6301V10.1221C81.0635 9.851 81.2792 9.63184 81.5404 9.63184H98.7489C99.0158 9.63184 99.2315 9.851 99.2315 10.1221V13.5307C99.2315 13.8018 99.0158 14.0209 98.7489 14.0209H86.8148C86.5536 14.0209 86.3379 14.2401 86.3379 14.5054Z" fill="currentColor"/>
<path d="M123.435 10.0987V20.636C123.435 25.6768 118.785 29.6679 113.13 29.6679C107.475 29.6679 102.825 25.6537 102.825 20.636V10.0987C102.825 9.82766 103.018 9.61426 103.308 9.61426H107.623C107.89 9.61426 108.1 9.83342 108.1 10.0987V20.636C108.1 22.6835 110.45 24.3099 113.136 24.3099C115.821 24.3099 118.166 22.6027 118.166 20.636V10.0987C118.166 9.82766 118.382 9.61426 118.643 9.61426H122.958C123.219 9.61426 123.435 9.83342 123.435 10.0987Z" fill="currentColor"/>
<path d="M147.757 9.6377C148.024 9.6377 148.234 9.85686 148.234 10.1222V28.6244C148.234 28.8955 148.018 29.1146 147.735 29.1146H143.181C143.039 29.1146 142.914 29.0627 142.824 28.9416C141.79 27.7247 135.681 20.2499 133.143 17.1585C132.979 16.9394 132.615 17.0605 132.615 17.3546V28.6244C132.615 28.8955 132.4 29.1146 132.138 29.1146H127.824C127.562 29.1146 127.347 28.8955 127.347 28.6244V10.1222C127.347 9.85686 127.562 9.6377 127.824 9.6377H132.4C132.547 9.6377 132.689 9.71267 132.78 9.83379L142.437 21.6168C142.602 21.836 142.965 21.6918 142.965 21.4207V10.1222C142.965 9.85686 143.181 9.6377 143.448 9.6377H147.763H147.757Z" fill="currentColor"/>
<path d="M157.755 28.5032C157.755 28.8435 157.488 29.1145 157.181 29.1145H153.082C152.77 29.1145 152.48 28.8435 152.48 28.5032V10.2432C152.48 9.92598 152.77 9.63184 153.082 9.63184H157.181C157.494 9.63184 157.755 9.92598 157.755 10.2432V28.5032Z" fill="currentColor"/>
<path d="M218.13 18.4735C218.13 18.7388 218.346 18.958 218.607 18.958H224.307C225.647 18.958 226.726 17.8391 226.726 16.4722C226.703 15.1111 225.601 14.0152 224.256 14.0152H218.601C218.34 14.0152 218.124 14.2344 218.124 14.5055V18.4735H218.13ZM231.903 28.9416C231.903 29.2127 231.665 29.4261 231.404 29.4261C227.572 29.23 225.868 26.9922 222.297 23.4855C222.223 23.3875 222.081 23.3356 221.962 23.3356H218.607C218.346 23.3356 218.13 23.5547 218.13 23.8258V28.6186C218.13 28.8897 217.914 29.1031 217.647 29.1031H213.332C213.066 29.1031 212.855 28.8839 212.855 28.6186V10.1222C212.855 9.85686 213.071 9.6377 213.332 9.6377H225.266C228.957 9.6377 232 12.706 232 16.501C232 19.0561 230.609 21.2996 228.548 22.4647C228.383 22.5627 228.355 22.805 228.503 22.9261C229.843 24.218 230.467 24.5814 231.449 24.6563C231.688 24.6563 231.903 24.8755 231.903 25.1408V28.9416Z" fill="currentColor"/>
<path d="M176.088 29.1084H173.09C172.925 29.1084 172.755 29.0104 172.681 28.8662L167.816 19.9092C167.674 19.6439 167.265 19.765 167.265 20.0592V28.6297C167.265 28.895 167.049 29.1142 166.788 29.1142H162.473C162.212 29.1142 161.996 28.895 161.996 28.6297V10.1217C161.996 9.85063 162.212 9.6084 162.473 9.6084H167.004C167.174 9.6084 167.316 9.70645 167.412 9.87947L174.339 22.4642C174.458 22.6603 174.719 22.6603 174.844 22.4642L181.771 9.87947C181.845 9.71221 182.009 9.6084 182.18 9.6084H186.71C186.977 9.6084 187.193 9.85063 187.193 10.1217V28.6239C187.193 28.8892 186.977 29.1084 186.71 29.1084H182.395C182.129 29.1084 181.918 28.8892 181.918 28.6239V20.0534C181.918 19.7592 181.51 19.6381 181.368 19.9034L176.502 28.8604C176.428 29.0104 176.264 29.1026 176.093 29.1026" fill="currentColor"/>
<path d="M196.362 14.5054V16.6971C196.362 16.9681 196.578 17.1873 196.839 17.1873H207.433C207.695 17.1873 207.91 17.4065 207.91 17.6718V21.0804C207.91 21.3514 207.695 21.5706 207.433 21.5706H196.839C196.578 21.5706 196.362 21.7898 196.362 22.0551V24.2237C196.362 24.4947 196.578 24.7139 196.839 24.7139H208.773C209.04 24.7139 209.256 24.9331 209.256 25.1984V28.6301C209.256 28.9011 209.04 29.1203 208.773 29.1203H191.565C191.304 29.1203 191.088 28.9011 191.088 28.6301V10.1221C191.088 9.851 191.304 9.63184 191.565 9.63184H208.773C209.04 9.63184 209.256 9.851 209.256 10.1221V13.5307C209.256 13.8018 209.04 14.0209 208.773 14.0209H196.839C196.578 14.0209 196.362 14.2401 196.362 14.5054Z" fill="currentColor"/>
<path d="M13.1491 10.8199C12.0704 10.8199 11.196 9.93168 11.196 8.83585C11.196 7.74002 12.0704 6.85182 13.1491 6.85182C14.2278 6.85182 15.1078 7.74002 15.1078 8.83585C15.1078 9.93168 14.2335 10.8199 13.1491 10.8199ZM24.6063 0.0749778C24.6063 0.0749778 24.5779 0.0634428 24.5609 0.0576752C24.4303 0.0173026 24.2941 0 24.1521 0C23.749 0 23.3743 0.167258 23.1131 0.432564C23.0847 0.472937 23.045 0.507542 23.0166 0.542147L20.6604 3.19521C20.0359 3.90461 18.9402 3.90461 18.3156 3.19521L15.9765 0.553682C15.9481 0.51331 15.9141 0.478704 15.8743 0.438332C15.6075 0.167258 15.2384 0.00576752 14.8353 0.00576752C14.7331 0.00576752 14.6366 0.0173026 14.5401 0.0403727H14.5231C14.4663 0.0461402 14.4209 0.0634428 14.3698 0.0807453C6.08629 2.36468 0 10.0586 0 19.1886V19.3846C0.987886 19.3731 2.12339 19.1424 3.4576 18.1331C4.73504 17.1526 6.27932 16.5586 7.8747 16.622C10.0435 16.7085 11.2244 17.6948 12.1783 18.4907C13.0299 19.2001 13.5806 19.6673 14.8694 19.6673C16.1582 19.6673 16.7089 19.2001 17.5605 18.4907C18.5598 17.6544 19.8031 16.6162 22.1763 16.6162C24.5495 16.6162 25.7986 17.6602 26.7978 18.4907C27.6438 19.2001 28.2059 19.6673 29.489 19.6673C30.7721 19.6673 31.3342 19.2001 32.1858 18.4907C33.185 17.6544 34.4341 16.6162 36.8073 16.6162C37.6135 16.6162 38.2834 16.7374 38.8569 16.9335L38.8682 16.9219C37.9541 8.80124 32.2028 2.16282 24.6063 0.0749778Z" fill="currentColor"/>
<path d="M35.5473 20.1516C32.8675 21.4666 34.4004 25.1232 33.2365 26.7554C32.3054 28.0531 29.6995 28.5318 29.5746 26.963C29.4837 25.8614 31.3743 25.4808 30.8406 23.8082C30.3637 22.3086 28.1836 22.6258 27.3206 23.4852C25.9012 24.8982 26.8323 26.3286 26.0261 27.1649C24.9587 28.2665 23.1136 28.2607 22.8581 26.9111C22.5685 25.4058 23.8005 24.483 24.4818 22.77C24.9076 21.703 24.5273 19.8574 22.1484 19.8574C20.377 19.8574 18.6851 20.9186 19.5027 24.5233C20.4508 28.7163 18.0152 28.2319 14.6143 29.7199C12.6102 30.5966 10.2937 32.4652 9.06172 30.5562C8.19874 29.2181 10.095 28.1742 11.6563 27.5917C15.3183 26.219 17.2373 26.542 16.9251 24.3619C16.6753 22.6374 14.1658 22.447 12.4796 23.4506C10.6117 24.5695 10.6855 25.6999 7.72183 26.6458C6.27406 27.1072 4.79224 27.1937 4.22448 25.9883C3.73622 24.9559 5.03637 23.9178 6.75098 23.5659C8.41448 23.2199 10.0269 23.8428 10.3051 22.1414C10.4925 21.0109 9.5216 19.8517 7.4777 19.9439C5.01934 20.0593 4.29829 22.5682 0.318359 22.7066C1.9478 31.975 9.91335 39.0056 19.5027 39.0056C25.1972 39.0056 30.324 36.5256 33.8838 32.5748C34.3607 32.0038 33.8213 31.7212 33.1003 31.9981C31.0677 32.7651 27.1673 35.0375 20.5019 35.4989C18.8668 35.5624 16.3744 35.2509 16.2892 33.4342C16.1643 30.833 20.3997 30.4927 22.5458 30.5389C25.447 30.6023 28.3141 31.1502 31.2835 30.585C35.235 29.8352 38.0624 26.9803 38.6699 22.8335C39.0106 20.5092 37.0121 19.4595 35.553 20.1631" fill="currentColor"/>
</svg>
