<svg width="123" height="91" viewBox="0 0 123 91" fill="none" xmlns="http://www.w3.org/2000/svg">
<path d="M63.5166 87.0713C63.5166 87.965 63.7548 88.6408 64.2314 89.0977C64.7081 89.5544 65.4033 89.7929 66.2969 89.793C67.1507 89.793 67.7864 89.5543 68.2432 89.0977C68.6801 88.6408 68.9189 87.965 68.9189 87.0713V80.7158H70.249V87.0713C70.249 88.3424 69.9119 89.2961 69.2168 89.9316C68.5415 90.5672 67.568 90.8848 66.2969 90.8848C65.026 90.8847 63.9933 90.5872 63.2783 89.9717C62.5435 89.356 62.1855 88.402 62.1855 87.0713V80.7158H63.5166V87.0713ZM24.6875 80.4766C25.2038 80.4766 25.7002 80.5368 26.1768 80.6758C26.6534 80.8148 27.0712 81.013 27.4287 81.291C27.7861 81.569 28.1035 81.8869 28.3418 82.3037C28.5801 82.7009 28.7389 83.178 28.8184 83.6943H27.4883C27.3294 82.9794 27.0115 82.463 26.4951 82.1055L26.2773 82C25.8076 81.7263 25.2731 81.5889 24.6475 81.5889C24.0518 81.5889 23.5352 81.7083 23.1182 81.9268C22.7012 82.1452 22.3434 82.443 22.0654 82.8203C21.7874 83.1976 21.5892 83.6348 21.4502 84.1113C21.3112 84.588 21.252 85.1047 21.252 85.6211C21.252 86.1969 21.3112 86.7331 21.4502 87.2295C21.5892 87.726 21.7874 88.1832 22.0654 88.5605C22.3434 88.9378 22.7012 89.2356 23.1182 89.4541C23.5551 89.6726 24.0721 89.792 24.668 89.792C25.1048 89.792 25.5023 89.7122 25.8398 89.5732C26.1774 89.4342 26.4756 89.2357 26.7139 88.9775C26.9521 88.7194 27.1501 88.4209 27.2891 88.0635C27.428 87.7061 27.5081 87.329 27.5479 86.9121H28.8779C28.7389 88.1632 28.3219 89.136 27.5674 89.8311C26.8127 90.5262 25.8193 90.8838 24.5283 90.8838C23.754 90.8837 23.0788 90.7454 22.5029 90.4873C21.927 90.2291 21.45 89.8513 21.0527 89.3945C20.6754 88.9378 20.378 88.3816 20.1992 87.7461C20.0006 87.1107 19.9209 86.4355 19.9209 85.7207C19.9209 85.0058 20.0199 84.3103 20.2383 83.6748C20.4369 83.0392 20.7551 82.4825 21.1523 82.0059C21.5495 81.5293 22.0459 81.1517 22.6416 80.8936C23.2374 80.6155 23.9129 80.4766 24.6875 80.4766ZM75.7715 80.458C76.2877 80.458 76.7644 80.5176 77.2012 80.6367C77.638 80.7559 78.0348 80.9548 78.3525 81.2129C78.6702 81.471 78.9489 81.8083 79.1475 82.1855C79.346 82.5827 79.445 83.0596 79.4648 83.5957H78.1943C78.1149 82.881 77.8566 82.3646 77.4199 82.0469L77.2295 81.9551C76.817 81.7117 76.2997 81.5898 75.6914 81.5898C75.4134 81.5899 75.1354 81.6104 74.8574 81.6699C74.5795 81.7295 74.3411 81.8282 74.1426 81.9473C73.9241 82.0863 73.7647 82.2454 73.6455 82.4639C73.5264 82.6823 73.4473 82.9606 73.4473 83.2783C73.4473 83.5762 73.5468 83.8346 73.7256 84.0332C73.9043 84.2317 74.1423 84.3711 74.46 84.4902C74.7579 84.6094 75.1158 84.7086 75.4932 84.7881C75.8705 84.8675 76.2679 84.9466 76.665 85.0459C77.0622 85.1452 77.4596 85.2441 77.8369 85.3633C78.2141 85.4824 78.5713 85.6615 78.8691 85.8799C79.1671 86.0984 79.4257 86.3567 79.6045 86.6943C79.7832 87.0121 79.8818 87.4293 79.8818 87.9258C79.8818 88.462 79.7627 88.899 79.5244 89.2764C79.2861 89.6536 78.9886 89.9521 78.6113 90.1904C78.2341 90.4287 77.8169 90.6067 77.3604 90.7061C76.9036 90.8054 76.4265 90.8652 75.9697 90.8652C75.4136 90.8652 74.8774 90.8054 74.3809 90.6465C73.8845 90.5075 73.4476 90.2896 73.0703 90.0117C72.6929 89.7337 72.3943 89.3559 72.1758 88.9189C71.9573 88.482 71.8389 87.9653 71.8389 87.3496H73.1094C73.1094 87.7665 73.1889 88.1241 73.3477 88.4219C73.5065 88.7196 73.7251 88.9782 74.0029 89.1768C74.2611 89.3753 74.5791 89.515 74.9365 89.6143C75.294 89.7136 75.6519 89.7529 76.0293 89.7529C76.327 89.7529 76.6248 89.7333 76.9424 89.6738C77.2402 89.6143 77.5186 89.5146 77.7568 89.3955C77.995 89.2566 78.1937 89.0779 78.3525 88.8398C78.5114 88.6015 78.5713 88.3028 78.5713 87.9453C78.5712 87.6078 78.4717 87.3297 78.293 87.1113C78.1142 86.893 77.8762 86.7138 77.5586 86.5947C77.2607 86.4557 76.9027 86.3568 76.5254 86.2773C76.1481 86.1979 75.7506 86.099 75.3535 86.0195C74.9566 85.9401 74.5597 85.8209 74.1826 85.7217C73.8053 85.6025 73.4473 85.4434 73.1494 85.2646C72.8515 85.066 72.5928 84.8272 72.4141 84.5293C72.2354 84.2314 72.1367 83.8541 72.1367 83.3975C72.1367 82.9011 72.2357 82.4642 72.4541 82.0869C72.6527 81.7294 72.9309 81.4112 73.2686 81.1729C73.6062 80.9345 74.0035 80.7559 74.4404 80.6367C74.8773 80.5176 75.3147 80.458 75.7715 80.458ZM18.749 81.8486H13.168V85.0068H18.3711V86.1191H13.168V89.5547H18.7891V90.667H11.8369V80.7363H18.749V81.8486ZM7.12988 80.7158C8.14274 80.7158 8.89735 80.9739 9.43359 81.4902C9.94999 82.0066 10.208 82.7218 10.208 83.6553C10.208 84.5886 9.94994 85.304 9.43359 85.8203C8.9172 86.3365 8.14259 86.5947 7.12988 86.5947H4.07129V90.666H2.74023V80.7158H7.12988ZM61.2715 90.666H59.8018L58.71 87.667H54.4795L53.3467 90.666H51.9766L55.8691 80.7158H57.3594L61.2715 90.666ZM107.271 90.666H105.801L104.709 87.667H100.479L99.3457 90.666H97.9756L101.868 80.7158H103.358L107.271 90.666ZM31.877 84.9854H37.1602V80.7158H38.4912V90.6465H37.1602V86.0977H31.877V90.6465H30.5459V80.7158H31.877V84.9854ZM47.5879 81.8281H42.0068V84.9854H47.21V86.0977H42.0068V89.5342H47.6475V90.6465H40.6758V80.7158H47.5879V81.8281ZM88.4219 81.8281H85.0859V90.6465H83.7354V81.8281H80.3984V80.7158H88.4219V81.8281ZM94.2412 80.7158C95.1945 80.7158 95.9491 80.9544 96.4854 81.4111C97.0215 81.8679 97.2997 82.5033 97.2998 83.3174C97.2998 83.9131 97.1607 84.4495 96.8828 84.9062C96.6048 85.3631 96.1675 85.681 95.5518 85.8398C95.8497 85.9193 96.0888 86.0185 96.2676 86.1377C96.4462 86.2767 96.585 86.416 96.7041 86.5947C96.8034 86.7735 96.8828 86.9726 96.9424 87.2109C97.0019 87.4292 97.0417 87.6672 97.0615 87.9053C97.0615 88.1436 97.1016 88.4023 97.1016 88.6406C97.1016 88.8788 97.141 89.1368 97.1807 89.375C97.2204 89.6133 97.2803 89.8519 97.3398 90.0703C97.4193 90.2887 97.5182 90.4876 97.6572 90.6465H96.168C96.0687 90.5472 96.0085 90.4082 95.9688 90.2295C95.929 90.0508 95.9092 89.8522 95.9092 89.6338C95.9092 89.4153 95.9095 89.1768 95.8896 88.9385C95.8896 88.6805 95.8502 88.4423 95.8105 88.2041C95.7708 87.9658 95.7305 87.7272 95.6709 87.5088C95.6113 87.2904 95.5322 87.0915 95.4131 86.9326C95.2939 86.7737 95.1351 86.6345 94.9365 86.5352C94.7379 86.4359 94.4792 86.3965 94.1416 86.3965H90.8848V90.6465H89.5537V80.6963H94.2607L94.2412 80.7158ZM109.574 89.5342H114.877V90.6465H108.224V80.7158H109.574V89.5342ZM122.961 81.8281H117.36V84.9854H122.583V86.0977H117.36V89.5342H123V90.6465H116.029V80.7158H122.961V81.8281ZM54.876 86.5547H58.2725L56.6045 81.9072H56.5645L54.876 86.5547ZM100.855 86.5547H104.252L102.583 81.9072H102.544L100.855 86.5547ZM4.09082 85.502H6.69336V85.4824C7.4479 85.4824 8.00388 85.3431 8.36133 85.0254C8.71876 84.7077 8.87789 84.251 8.87793 83.6553C8.87793 83.0595 8.69891 82.6026 8.36133 82.3047C8.00388 81.987 7.4479 81.8477 6.69336 81.8477H4.09082V85.502ZM90.8447 85.2842H93.626C93.9434 85.2842 94.2212 85.2643 94.499 85.2246L94.7236 85.1836C94.9227 85.1324 95.105 85.0505 95.2539 84.9463C95.4724 84.8073 95.6318 84.6286 95.751 84.4102C95.8701 84.1917 95.9492 83.8938 95.9492 83.5166C95.9492 83.0201 95.8102 82.6029 95.5322 82.2852C95.2542 81.9674 94.7975 81.8086 94.1621 81.8086H90.8447V85.2842ZM17.418 80.002H16.2461L15.2734 78.6709L14.2998 80.002H13.2275L14.6572 78.0156H15.9688L17.418 80.002ZM31.9766 58.0547C33.0092 58.0547 34.0422 58.1143 35.0352 58.2334C36.0281 58.3526 37.0611 58.5518 38.0938 58.8496C39.1265 59.1475 39.9608 59.5848 40.6162 60.1807C41.2517 60.7764 41.5894 61.471 41.6094 62.2852C41.6292 63.3774 41.0733 64.3706 39.9414 65.2842C38.8093 66.1978 37.3395 66.9133 35.5322 67.4297C33.7249 67.9461 31.7983 68.2633 29.7725 68.3428C28.5212 68.4024 27.4683 68.3825 26.6738 68.2832C29.6331 71.1631 33.0691 73.5471 36.9619 75.4141C37.1208 75.4736 37.2402 75.5927 37.2998 75.7715C37.3593 75.97 37.3395 76.1488 37.2402 76.3076C37.1409 76.4665 36.962 76.5661 36.7236 76.5859C36.4059 76.6256 36.0882 76.5856 35.7705 76.4268C34.1419 75.672 32.3741 74.6191 30.4873 73.2686C28.5807 71.918 26.9121 70.5081 25.4424 69.0781C23.8734 71.1039 22.4433 73.2489 21.1523 75.5527C21.0133 75.7911 20.8145 75.93 20.5762 75.9697C20.3184 76.0093 20.1201 75.9104 20.001 75.6924C19.8818 75.4938 19.862 75.2745 19.9414 75.0361C20.4778 73.6259 21.9675 71.3217 24.4102 68.1045C24.1718 67.9853 23.9925 67.9059 23.8535 67.8662C23.6153 67.7868 23.3772 67.6477 23.1787 67.4492C22.9801 67.2507 22.8809 67.0127 22.8809 66.7148C22.8809 66.2979 23.1385 66.0193 23.6348 65.9199C23.7539 65.8405 23.9928 65.8213 24.3105 65.8809C24.6481 65.9405 25.0056 66.1583 25.3828 66.5156L25.502 66.6348C25.9786 66.039 26.4951 65.364 27.0908 64.6094C27.6867 63.8546 28.1038 63.3181 28.3818 62.9805C28.6599 62.6428 28.7988 62.444 28.7988 62.4043C29.0967 61.5703 29.5146 61.1729 30.0508 61.1729C30.1698 61.1729 30.2892 61.2136 30.4082 61.293C30.5271 61.3724 30.6061 61.4917 30.626 61.6504C30.6656 62.0674 30.5465 62.5046 30.2686 62.9414L26.9717 67.1123C27.7263 67.2116 28.4016 67.2506 28.9775 67.2109C32.1354 67.0918 34.7974 66.5562 36.9424 65.583C39.0874 64.6098 40.1201 63.5764 40.0605 62.4443C40.0407 61.8684 39.7625 61.352 39.2461 60.915C38.7099 60.4781 38.0343 60.1608 37.2002 59.9424C36.3662 59.7239 35.5124 59.5641 34.6387 59.4648C33.7648 59.3655 32.8706 59.3066 31.957 59.3066C30.7058 59.3066 29.5142 59.4257 28.4219 59.6641C27.7466 59.8031 27.0513 60.0813 26.3164 60.4785C26.2965 60.4984 26.2567 60.538 26.1973 60.6172C26.1377 60.6966 26.058 60.7366 25.9785 60.7764C25.8991 60.816 25.7997 60.8359 25.6807 60.8359C25.2042 60.8359 24.9463 60.5973 24.8867 60.1406C24.8669 59.8824 24.9462 59.6436 25.125 59.4053C25.2443 59.2663 25.5028 59.1073 25.8799 58.9287C26.3367 58.7302 27.1117 58.5322 28.1641 58.3535C29.3357 58.155 30.6064 58.0547 31.9766 58.0547ZM93.3486 66.9131C93.7059 66.9131 94.0036 66.973 94.2021 67.0723C94.6192 67.251 94.9765 67.529 95.2744 67.9062C95.5525 68.2836 95.6917 68.6809 95.6719 69.1377C95.6321 70.5279 94.7386 71.9581 93.0107 73.4277C91.2828 74.8975 89.6143 75.6318 88.0254 75.6318C87.509 75.6318 87.0723 75.4532 86.7148 75.0957C86.3375 74.7581 86.1387 74.3012 86.1387 73.7451L86.1436 73.5479C86.1947 72.7518 86.6291 71.8502 87.4297 70.8262C88.2837 69.7338 89.2963 68.7996 90.4482 68.0449C91.6002 67.2902 92.5741 66.9131 93.3486 66.9131ZM44.9062 66.6152C45.2439 66.6152 45.5426 66.7138 45.8008 66.8926C46.0589 67.0912 46.1777 67.3301 46.1777 67.6279C46.1774 68.6806 44.1116 70.1306 39.9609 71.9775C39.8816 72.1165 39.8418 72.2556 39.8418 72.3945C39.8419 73.4271 40.5768 73.9433 42.0264 73.9434C43.218 73.9434 44.5888 73.6258 46.1182 72.9902C47.5247 72.4057 48.8455 71.6508 50.084 70.7148C50.1125 70.6915 50.1419 70.6688 50.1699 70.6455C50.448 70.427 50.925 70.0503 51.5801 69.5342C52.2355 69.0178 52.7519 68.5805 53.1689 68.2627C53.5661 67.945 53.8047 67.7861 53.8643 67.7861C54.281 67.7863 54.499 68.0645 54.499 68.6006C54.499 68.9778 54.4202 69.2562 54.2812 69.415C52.4739 70.9245 51.5596 72.0561 51.5596 72.791C51.5596 73.1485 51.7386 73.3271 52.0762 73.3271C52.7713 73.3271 53.7845 72.9097 55.1152 72.0557C56.4458 71.2017 57.8556 70.1291 59.3252 68.8184C59.5834 68.6197 59.7627 68.5205 59.8818 68.5205C60.0803 68.5206 60.2592 68.6597 60.418 68.9375C60.5768 69.2155 60.6562 69.5137 60.6562 69.8115C60.6562 69.8512 60.5964 69.931 60.4971 70.0303C60.378 70.1295 60.2789 70.1891 60.1797 70.209C59.3654 71.2815 58.9678 72.1951 58.9678 72.9697C58.9678 73.3073 59.127 73.4863 59.4248 73.4863C60.2128 73.4863 61.7254 72.697 63.9512 71.1357C64.4631 70.7258 65.0976 70.2195 65.8799 69.6328C66.8924 68.8387 67.5479 68.3423 67.8262 68.084C68.0645 67.7662 68.343 67.6273 68.6211 67.667C68.7997 67.6671 68.9584 67.7266 69.1172 67.8457C69.276 67.9847 69.3955 68.1038 69.4551 68.2031C69.5145 68.3024 69.5348 68.4415 69.4951 68.6201C69.4156 68.918 69.1175 69.4542 68.6211 70.2285C68.1047 71.003 67.8064 71.5989 67.707 71.9961C71.143 69.7319 73.2287 68.4607 73.9834 68.1826C74.1422 68.1032 74.3014 68.0635 74.4404 68.0635C74.6588 68.0636 74.8572 68.1632 75.0557 68.3418C75.2543 68.5404 75.3535 68.7392 75.3535 68.918C75.3534 69.2358 75.1549 69.7718 74.7578 70.5264C74.3606 71.281 74.1622 71.996 74.1621 72.7109C74.1621 73.3662 74.4001 73.9228 74.8965 74.3994C75.115 74.6179 75.2344 74.8167 75.2344 74.9756C75.2343 75.2138 75.0752 75.333 74.7773 75.333C74.1817 75.3329 73.6849 75.0742 73.248 74.5381C72.8114 74.0019 72.5928 73.3264 72.5928 72.5322C72.5928 71.7379 72.7718 71.003 73.1094 70.2285C72.5135 70.4867 71.4014 71.1824 69.7529 72.3145C68.1046 73.4464 67.0519 74.0019 66.6348 74.002C66.4362 74.002 66.2569 73.9226 66.0781 73.7637C65.9195 73.6049 65.8398 73.426 65.8398 73.2275C65.8399 72.4927 66.1581 71.5591 66.8135 70.4072C66.595 70.586 66.2371 70.8645 65.7803 71.2617C65.4067 71.5574 65.1172 71.7903 64.8857 71.9736C64.838 72.0229 64.7859 72.0706 64.7275 72.1152C62.2647 74.0219 60.3382 74.9951 58.9082 74.9951C58.4318 74.995 58.0546 74.8367 57.7568 74.5391C57.4589 74.2411 57.2998 73.8038 57.2998 73.2676C57.2998 72.8307 57.3795 72.4135 57.5186 72.0361C56.6845 72.7709 55.6912 73.4264 54.5195 74.042C53.3477 74.6577 52.3345 74.956 51.4805 74.9561C51.0832 74.9561 50.7257 74.8363 50.4277 74.5781C50.13 74.3199 49.9912 73.9626 49.9912 73.5059L49.958 73.3311C49.9864 72.9069 50.1075 72.4732 50.3203 72.0508C50.2914 72.0791 50.2616 72.1079 50.2295 72.1357C48.9981 73.0692 47.5876 73.8439 46.0186 74.4795C44.4497 75.115 43.02 75.4335 41.749 75.4336L41.335 75.4414C40.4357 75.389 39.6735 75.1522 39.0479 74.7178C38.3328 74.2411 37.9746 73.5263 37.9746 72.5928C37.9747 71.2026 38.7498 69.8524 40.2988 68.5615C41.8479 67.2706 43.3771 66.6153 44.9062 66.6152ZM101.928 67.667C102.106 67.667 102.266 67.7265 102.425 67.8457C102.584 67.9846 102.703 68.1039 102.763 68.2031C102.822 68.3024 102.841 68.4416 102.802 68.6201C102.722 68.9181 102.424 69.4542 101.928 70.2285C101.411 71.0029 101.114 71.5989 101.015 71.9961C104.451 69.732 106.536 68.4607 107.291 68.1826C107.45 68.1034 107.608 68.0636 107.747 68.0635C107.966 68.0635 108.165 68.163 108.363 68.3418C108.562 68.5404 108.661 68.7392 108.661 68.918C108.661 69.2357 108.463 69.7719 108.065 70.5264C107.668 71.281 107.47 71.996 107.47 72.7109C107.47 73.3663 107.708 73.9228 108.204 74.3994C108.423 74.6179 108.542 74.8167 108.542 74.9756C108.542 75.2138 108.383 75.333 108.085 75.333C107.489 75.333 106.993 75.0743 106.556 74.5381C106.119 74.0019 105.9 73.3265 105.9 72.5322C105.9 71.7379 106.079 71.003 106.417 70.2285C105.821 70.4867 104.709 71.1824 103.061 72.3145C101.413 73.4462 100.36 74.0016 99.9424 74.002C99.7438 74.002 99.5645 73.9226 99.3857 73.7637C99.227 73.6048 99.1475 73.4261 99.1475 73.2275C99.1475 72.4927 99.4657 71.5591 100.121 70.4072C99.9026 70.586 99.5447 70.8645 99.0879 71.2617C98.6114 71.6389 98.2738 71.9167 98.0156 72.1152C97.6184 72.3933 97.3002 72.5322 97.1016 72.5322C96.9428 72.5322 96.8037 72.4726 96.6846 72.3535C96.6054 72.2742 96.5655 72.1553 96.5654 72.0166L96.5469 71.8711C96.599 71.7306 96.6847 71.6042 96.8037 71.5C97.3797 71.0432 98.1547 70.4074 99.1875 69.6328C100.2 68.8386 100.856 68.3422 101.134 68.084C101.372 67.7663 101.65 67.6274 101.928 67.667ZM82.6426 67.3691C83.1191 67.6471 83.3974 67.9652 83.5166 68.3027C83.596 68.6006 83.5563 68.8987 83.3975 69.1768C82.4838 70.7458 82.0273 72.1365 82.0273 73.3281C82.0274 73.8246 82.1663 74.3607 82.4443 74.9365C82.5039 75.0557 82.4838 75.1553 82.3447 75.2148C82.2256 75.2744 82.0465 75.2943 81.8281 75.2744C81.4708 75.2545 81.1725 75.0957 80.9541 74.7979C80.6562 74.4205 80.498 73.8641 80.498 73.1689C80.4981 72.1362 80.7961 71.0836 81.3721 69.9912L81.2217 70.1113C80.7614 70.5281 79.8473 71.2472 78.4922 72.2549C78.2142 72.4534 77.916 72.553 77.6182 72.5332C77.3202 72.5133 77.1013 72.2748 77.002 71.8379C77.856 71.1825 78.9093 70.3485 80.1406 69.3555C81.3719 68.3625 82.2057 67.7068 82.6426 67.3691ZM93.3682 68.2441C92.9709 68.2441 92.3752 68.4429 91.6006 68.8203C90.826 69.1977 90.131 69.6939 89.5352 70.3096C89.416 70.4287 89.3164 70.6272 89.2568 70.9053C89.1973 71.1833 89.058 71.4414 88.8594 71.6797C88.1046 72.633 87.7275 73.3287 87.7275 73.7656L87.7354 73.8584C87.7746 74.1493 87.9531 74.3017 88.2832 74.3018C89.2961 74.3018 90.5674 73.6659 92.0967 72.375C93.6258 71.0842 94.3806 69.9721 94.3809 69.0586C94.3809 68.5224 94.0433 68.2442 93.3682 68.2441ZM44.5693 67.9854C43.8941 67.9854 43.1193 68.2636 42.2256 68.7998C41.3319 69.336 40.6961 69.9117 40.2988 70.5273C42.2849 69.4747 43.7153 68.6408 44.5693 67.9854ZM87.251 62.4834C87.4891 62.5232 87.6872 62.6626 87.8262 62.8809C87.9652 63.0993 88.0049 63.3577 87.9453 63.6357C87.9254 63.7151 87.8864 63.795 87.8467 63.8545C87.7872 63.9339 87.7467 63.9935 87.707 64.0332C87.6673 64.0925 87.5881 64.1321 87.4893 64.1914C87.3901 64.2509 87.3103 64.2907 87.2705 64.3105C87.2308 64.3105 87.1312 64.3701 86.9922 64.4297C86.8535 64.4891 86.774 64.5289 86.7539 64.5488C86.1581 64.807 85.5821 65.1646 84.9863 65.6016C84.8076 65.7406 84.6286 65.7611 84.4697 65.6816C84.3109 65.5823 84.2711 65.403 84.3506 65.125L84.4648 64.8184C84.7557 64.0747 85.212 63.464 85.8203 62.96C86.3367 62.5627 86.814 62.404 87.251 62.4834ZM51.3223 57.498C51.7788 57.4982 52.0762 57.7175 52.1953 58.1543L52.1758 58.248C52.1857 58.3026 52.1953 58.3721 52.1953 58.4316C52.1953 58.9282 51.5797 59.6635 50.3682 60.6367C49.1567 61.6098 47.8257 62.4833 46.376 63.2578C46.0984 63.3966 45.9002 63.4763 45.8008 63.4766C45.5426 63.4766 45.4033 63.3373 45.4033 63.0791C45.4035 62.9799 45.4633 62.8804 45.5625 62.7812C46.7937 61.7486 48.1835 60.3979 49.7324 58.71C49.7721 58.6702 49.8525 58.5908 49.9717 58.4717C50.0904 58.3529 50.1498 58.2734 50.1895 58.2139C50.2292 58.1543 50.2894 58.0944 50.3887 57.9951C50.4879 57.8959 50.5475 57.8161 50.627 57.7764C50.7061 57.7368 50.7656 57.6971 50.8447 57.6377C50.924 57.5782 51.0037 57.5579 51.083 57.5381C51.1625 57.5381 51.223 57.498 51.3223 57.498ZM53.3672 50.7451C74.5789 43.0589 90.8058 42.7016 110.667 52.6123L107.43 58.4717H107.409C100.756 55.2541 78.2132 43.7739 38.5107 56.4453C41.6091 55.0947 46.0583 53.3867 53.3672 50.7451ZM6.97168 51.8174C22.205 46.4152 35.3529 45.8586 49.335 50.3867L46.2568 51.6182C45.2588 52.0204 44.2807 52.4127 43.3174 52.79C31.6192 49.6917 16.1475 49.3745 6.97168 51.8174ZM42.3047 12.2734C42.3643 12.2735 42.4043 12.3535 42.4043 12.3535L42.6221 13.9424L42.9795 17.001C42.9989 17.0397 43.0753 17.0782 43.0791 17.0801L45.3828 17.2188L45.3438 17.6963L43.1387 17.9346C43.099 17.9548 43.0596 18.0537 43.0596 18.0537L43.6357 21.8066C43.6551 21.8453 43.7302 21.8846 43.7344 21.8867H46.3965L46.1973 22.4033C46.1968 22.4422 46.1205 22.4623 46.1182 22.4629L43.9131 22.6016C43.8537 22.6019 43.8145 22.7012 43.8145 22.7012L44.1318 25.6797C44.1318 25.7194 44.2314 25.7598 44.2314 25.7598L49.7725 25.7197C49.832 25.7197 49.8721 25.8193 49.8721 25.8193L49.832 27.7061C49.8322 27.7656 49.9316 27.8057 49.9316 27.8057L57.2002 27.7656C57.2399 27.7656 57.2803 27.8057 57.2803 27.8057L58.8691 29.4932C58.9081 29.5517 58.813 29.6489 58.8096 29.6523L57.916 29.8311C57.8774 29.8503 57.8381 29.9069 57.8359 29.9102L56.8428 33.9824C56.8029 34.1409 56.6644 34.2206 56.5059 34.2207H56.3535C56.1901 34.2403 56.0684 34.3817 56.0684 34.5381V37.8154C56.0685 37.8749 56.168 37.915 56.168 37.915L69.0576 38.0342C69.1158 38.0342 69.1555 38.1285 69.1572 38.1328L69.3555 41.5098C69.3558 41.5685 69.4527 41.6074 69.4551 41.6084L82.7021 40.8545H82.7617L86.8535 38.0342L87.6279 37.1797C87.6665 37.1411 87.6301 37.0466 87.6279 37.041L86.1182 35.4717C86.0988 35.4521 86.0986 35.4135 86.0986 35.4121L86.0195 33.9619C86.0192 33.9037 85.9238 33.8649 85.9199 33.8633H79.8623C79.6637 33.8633 79.5247 34.0221 79.5645 34.2207V34.4189C79.5843 34.538 79.6636 34.6369 79.7627 34.6768L85.0859 36.9219L84.3506 36.9609H84.3115L78.1348 35.2334C78.0964 35.2334 78.0572 35.1592 78.0547 35.1543L77.9355 33.6445C77.9355 33.6048 78.0156 33.5449 78.0156 33.5449L85.2246 32.4531H85.2646L89.376 33.7236C89.4156 33.7239 89.4355 33.8037 89.4355 33.8037L89.5947 37.6758C89.5947 37.7337 89.688 37.7732 89.6934 37.7754L100.379 36.5049C100.419 36.5049 100.458 36.4248 100.458 36.4248L101.114 32.9492L101.77 27.5068C101.769 27.4671 101.689 27.4082 101.689 27.4082L100.855 27.249C100.836 27.2291 100.796 27.1895 100.796 27.1895L100.498 26.5938L101.968 26.5342C102.027 26.5342 102.067 26.4346 102.067 26.4346L100.617 15.1143C100.617 15.0745 100.558 15.0342 100.558 15.0342L98.9883 14.458L100.558 14.498C100.617 14.498 100.657 14.3984 100.657 14.3984L100.577 13.624H100.994L101.074 14.7764C101.074 14.8161 101.134 14.8555 101.134 14.8555L102.563 15.4717H101.233C101.174 15.4717 101.134 15.5908 101.134 15.5908L102.941 26.4746C102.961 26.5128 103.035 26.5509 103.04 26.5537L107.172 26.5146L106.596 27.1494C106.577 27.1873 106.539 27.1894 106.536 27.1895L103.318 27.4082C103.261 27.4082 103.221 27.501 103.219 27.5068L104.192 35.9678C104.192 36.0075 104.232 36.0479 104.292 36.0479L123.001 34.3594V34.5781L115.891 44.3496C114.308 46.9191 116.216 47.9522 117.688 48.3496L118.035 48.3818C118.154 48.4017 118.135 48.5605 118.016 48.5605L108.582 48.6592H108.542C90.5874 40.9928 70.7854 41.4693 52.0762 49.0762C51.8577 49.1556 51.6589 49.2555 51.4404 49.335C36.5645 43.8733 22.0265 43.9926 6.1377 49.8516H6.09766C5.98085 49.871 4.87537 49.8524 4.84668 49.8516C4.88348 49.849 4.23047 45.2463 3.57715 40.7051L0 40.7559V39.2656L3.37891 39.3389C3.20505 38.1335 3.03521 36.9666 2.88477 35.9287L0.257812 35.6309C0.317381 35.1345 0.377606 34.6575 0.457031 34.1611L2.67676 34.4941C2.45086 32.9385 2.30371 31.916 2.30371 31.916C2.26435 31.7176 2.4038 31.5195 2.62207 31.5195H2.86035C3.03905 31.5195 3.17773 31.3799 3.17773 31.2012V31.0723L1.19141 30.5869C1.31057 30.1102 1.45017 29.6329 1.56934 29.1562L2.89355 29.5322L2.22461 28.6396L2.44336 28.3418L4.29004 29.8115C4.32976 29.8314 4.33008 29.8711 4.33008 29.8711L4.33887 29.9424L11.2217 31.8975L10.9238 32.9697L10.4727 32.8584L10.3486 35.6455L10.3877 35.6514C10.3672 35.7811 10.3494 35.9085 10.332 36.0352L10.2686 37.4775C10.2686 37.5371 10.3682 37.5771 10.3682 37.5771L15.7705 37.6162C15.8298 37.6158 15.8691 37.5371 15.8691 37.5371L16.2861 31.8965L16.7432 28.6992C16.763 28.6595 16.8428 28.6191 16.8428 28.6191H18.292L21.0137 29.0166C21.0533 29.0169 21.0928 29.0967 21.0928 29.0967L21.8672 34.4785L21.8281 37.7559C21.8283 37.8144 21.9237 37.8542 21.9268 37.8555L33.4863 38.0732C33.5441 38.0732 33.5837 37.9801 33.5859 37.9746V34.7959C33.5854 34.7377 33.4901 34.6988 33.4863 34.6973H25.6016C25.4228 34.6973 25.2832 34.5577 25.2832 34.3789C25.2834 34.2003 25.4229 34.0615 25.6016 34.0615H33.6846C33.7239 34.0615 33.7829 34.0032 33.7842 34.002L34.46 32.2148L35.9297 27.5869C35.9495 27.5273 35.9287 27.4678 35.8691 27.4678L34.7969 27.1494V26.7725L37.8359 26.5537C38.0145 26.5338 38.1336 26.3953 38.1338 26.2168V26.0371C38.1143 25.8587 38.2727 25.7004 38.4512 25.7002H41.9873C42.0467 25.6998 42.0859 25.6201 42.0859 25.6201L42.6426 22.7607C42.6426 22.7012 42.5625 22.6416 42.5625 22.6416L41.4307 22.3828C41.3927 22.3636 41.3547 22.2903 41.3516 22.2842V21.8066L42.6025 21.7676C42.6621 21.7676 42.7021 21.668 42.7021 21.668L41.8281 12.2734H42.3047ZM80.915 36.5049C80.951 36.954 80.9837 37.4035 81.0049 37.8379L82.543 37.7969L82.6025 39.6436L70.1299 40.3584L69.9512 38.1338L70.9785 38.1055C70.9644 37.878 70.9494 37.6522 70.9248 37.4189L73.7646 37.1602L75.0752 37.041L80.915 36.5049ZM17.7959 34.2598L18.1338 37.7754H20.0205L20.6357 33.7041L20.0205 30.1094L17.7959 29.791V34.2598ZM80.3984 32.8906L70.5273 34.6982C70.4678 34.3407 70.388 33.963 70.3086 33.6055L80.1006 31.4404C80.1999 31.9171 80.2991 32.414 80.3984 32.8906ZM37.3594 30.1885L37.6572 31.6777L38.6895 31.5986L38.4912 30.1289L37.3594 30.1885ZM38.9287 30.1094L39.127 31.5791L40.2588 31.499L40.0605 30.0498L38.9287 30.1094ZM40.4971 30.0293L40.6963 31.4795H40.7158L41.8477 31.4004L41.6494 29.9697L40.4971 30.0293ZM43.1387 29.8906L42.0664 29.9502L42.2646 31.3604L43.3574 31.2812L43.1787 29.8906H43.1387ZM56.4062 31.3604H56.7236L57.0215 30.1689L56.6641 30.0889L56.4062 31.3604ZM55.9092 29.9307L55.6318 31.2812L56.0488 31.3203L56.3271 30.0293L55.9297 29.9307H55.9092ZM43.6553 29.8711L43.834 31.2607H45.4033V29.8711H43.6553ZM45.8799 29.8711V31.2607H47.4287V29.8711H45.8799ZM47.8857 29.8711V31.2607H49.375V29.8711H47.8857ZM49.8721 29.8711V31.2607H51.4805V29.8711H49.8721ZM51.9775 29.8711V31.2607H53.5859L53.6855 29.8711H51.9775ZM54.1221 29.8711L54.043 31.2607H55.1748L55.4326 29.8711H54.1221ZM78.6504 26.5352C78.8093 26.9919 78.9879 27.4687 79.127 27.9453L69.5742 30.9834V30.9639C69.4551 30.6064 69.336 30.2488 69.2168 29.9111L78.6504 26.5352ZM12.5322 28.2627C12.3733 28.6003 12.2347 28.9583 12.0957 29.2959L2.74121 25.6807C2.9199 25.224 3.11787 24.7672 3.31641 24.3105L12.5322 28.2627ZM68.1641 27.3691H68.1436L68.1602 27.3613C68.1614 27.3639 68.1629 27.3666 68.1641 27.3691ZM76.585 21.8281C76.8034 22.2649 77.0417 22.7016 77.2402 23.1582L68.1602 27.3613C68.0025 27.0262 67.8444 26.6913 67.667 26.376L76.585 21.8281ZM14.2803 24.7871C14.0817 25.1048 13.9023 25.442 13.7236 25.7598L4.90527 21.0137C5.14358 20.5768 5.38246 20.1595 5.64062 19.7227L14.2803 24.7871ZM73.9434 17.3984C74.2214 17.7956 74.4996 18.2128 74.7578 18.6299L66.2969 23.9727V23.9922C66.0983 23.6745 65.8991 23.3772 65.6807 23.0596L73.9434 17.3984ZM16.4844 21.6289C16.2461 21.9267 16.028 22.2247 15.8096 22.5225L7.66602 16.6836C7.96393 16.2864 8.26263 15.8891 8.56055 15.5117L16.4844 21.6289ZM70.7256 13.3867C71.0632 13.7442 71.3815 14.1214 71.6992 14.5186L63.9932 20.8945V20.874C63.7549 20.596 63.516 20.2982 63.2578 20.04L70.7256 13.3867ZM19.0664 18.71C18.8084 18.968 18.5304 19.2456 18.2725 19.5234L10.9434 12.7109C11.2809 12.3535 11.6191 11.9967 11.9766 11.6592L19.0664 18.71ZM67.0518 9.79199C67.429 10.1097 67.8066 10.4476 68.1641 10.7852L60.4971 17.3193L67.0518 9.79199ZM22.0059 16.207C21.7081 16.4254 21.4107 16.6641 21.1328 16.9023L14.7168 9.21582C15.0942 8.89804 15.4914 8.59968 15.8887 8.30176L22.0059 16.207ZM62.9199 6.69336C63.3369 6.97132 63.7543 7.24938 64.1514 7.52734L58.3125 15.6113V15.6309C58.0146 15.4124 57.6966 15.1937 57.3789 14.9951L62.9199 6.69336ZM25.2041 14.0225C24.8864 14.2012 24.5687 14.4 24.251 14.5986L18.8877 6.19727C19.3048 5.93907 19.7421 5.68007 20.1592 5.42188L25.2041 14.0225ZM58.4717 4.13184C58.9282 4.35021 59.365 4.58827 59.8018 4.80664L55.0156 13.5654V13.585C54.6781 13.4062 54.36 13.2282 54.0225 13.0693L58.4717 4.13184ZM28.6992 12.3145C28.3617 12.4534 28.0045 12.6127 27.667 12.7715L23.4365 3.73438C23.8932 3.51595 24.3499 3.31739 24.8066 3.13867L28.6992 12.3145ZM53.6846 2.16504C54.1612 2.3239 54.6181 2.50292 55.0947 2.68164L51.4805 11.9766V11.957C51.123 11.818 50.7852 11.6983 50.4277 11.5791L53.6846 2.16504ZM32.3535 11.0625C31.9961 11.1618 31.6191 11.2617 31.2617 11.3809L28.2432 1.88672C28.7197 1.74773 29.1964 1.58885 29.6729 1.46973L32.3535 11.0625ZM47.7666 10.8047L47.7461 10.8242L47.751 10.8008C47.7561 10.8019 47.7615 10.8035 47.7666 10.8047ZM48.6797 0.814453C49.1762 0.913749 49.6728 1.03319 50.1494 1.15234L47.751 10.8008C47.3986 10.7219 47.0458 10.6251 46.6738 10.5664L48.6797 0.814453ZM36.207 10.2686L35.9883 10.3086C35.6905 10.3483 35.3724 10.4072 35.0547 10.4668L33.2676 0.655273C33.6846 0.575836 34.082 0.516611 34.499 0.457031L34.7178 0.416992L36.207 10.2686ZM43.5557 0.0996094C44.0521 0.139322 44.5485 0.178723 45.0449 0.238281L43.9326 10.1299C43.5555 10.0902 43.1785 10.0501 42.8213 10.0303L43.5557 0.0996094ZM40.0605 9.95117C39.6832 9.95117 39.3051 9.95051 38.9277 9.99023L38.3916 0.0595703C38.8881 0.0397091 39.3853 0.0198612 39.8818 0L40.0605 9.95117Z" fill="currentColor"/>
</svg>
