<svg width="110" height="64" viewBox="0 0 110 64" fill="none" xmlns="http://www.w3.org/2000/svg">
<path d="M102.339 17.8261V45.932H96.5627V17.8261H91.7393V13.3187H96.5627V10.3816C96.5627 3.45912 99.6046 0 105.693 0C106.65 0 107.483 0.0381988 108.188 0.118841C108.897 0.199483 109.499 0.309835 109.999 0.445653V5.46668C109.405 5.37755 108.833 5.30539 108.269 5.26295C107.714 5.22051 107.137 5.19504 106.539 5.19504C105.06 5.19504 103.988 5.58552 103.326 6.37496C102.664 7.16016 102.335 8.51834 102.335 10.4537V13.3229H108.491V17.8304H102.335L102.339 17.8261Z" fill="currentColor"/>
<path d="M1.21716 61.6064V53.4531H2.90474L4.90847 59.2296C5.09218 59.7687 5.22462 60.1676 5.31007 60.435C5.40833 60.1379 5.55786 59.7008 5.75866 59.1278L7.78375 53.4531H9.29189V61.6064H8.21099V54.7816L5.75439 61.6064H4.74185L2.29379 54.667V61.6064H1.21289H1.21716Z" fill="currentColor"/>
<path d="M14.7266 60.8764C14.3421 61.1905 13.9704 61.4154 13.6158 61.5428C13.2612 61.6701 12.8766 61.738 12.4708 61.738C11.7957 61.738 11.2788 61.5767 10.9156 61.2626C10.5525 60.9443 10.373 60.5411 10.373 60.0445C10.373 59.7559 10.4414 59.4885 10.5781 59.2508C10.7148 59.0089 10.8943 58.8179 11.1164 58.6736C11.3386 58.5293 11.5864 58.419 11.8641 58.3468C12.0692 58.2916 12.3768 58.2449 12.7869 58.194C13.6243 58.0964 14.2438 57.9818 14.6368 57.846C14.6368 57.7102 14.6454 57.621 14.6454 57.5828C14.6454 57.1754 14.5471 56.8868 14.3506 56.7212C14.0857 56.492 13.6927 56.3817 13.1672 56.3817C12.6801 56.3817 12.317 56.4623 12.082 56.6279C11.847 56.7934 11.6761 57.0862 11.565 57.5022L10.5482 57.3706C10.6422 56.9504 10.7917 56.6151 11.0054 56.3562C11.2147 56.0973 11.5223 55.9021 11.9196 55.762C12.317 55.622 12.7826 55.5498 13.3124 55.5498C13.8422 55.5498 14.2609 55.6092 14.5898 55.7281C14.9145 55.8469 15.1538 55.9997 15.3076 56.178C15.4614 56.3562 15.5682 56.5854 15.6323 56.8571C15.6665 57.0311 15.6878 57.3367 15.6878 57.7823V59.1193C15.6878 60.0488 15.7092 60.6387 15.7519 60.8849C15.7989 61.1353 15.8844 61.3688 16.0168 61.598H14.9274C14.8206 61.3857 14.7522 61.1438 14.718 60.8679M14.6411 58.6397C14.2652 58.7882 13.6969 58.9113 12.945 59.0174C12.5178 59.0768 12.2187 59.1405 12.0393 59.2169C11.8598 59.2933 11.7231 59.3994 11.6291 59.5437C11.5309 59.688 11.4881 59.845 11.4881 60.0191C11.4881 60.2865 11.5949 60.5072 11.8043 60.6854C12.0136 60.8637 12.3212 60.9528 12.7228 60.9528C13.1244 60.9528 13.479 60.8679 13.7909 60.6982C14.1028 60.5284 14.3292 60.2992 14.4788 60.0063C14.5898 59.7814 14.6454 59.4461 14.6454 59.0047V58.6397H14.6411Z" fill="currentColor"/>
<path d="M21.0455 61.6071V60.8643C20.6567 61.4458 20.0843 61.7429 19.3323 61.7429C18.8453 61.7429 18.3967 61.6156 17.9865 61.3567C17.5764 61.0935 17.2602 60.7328 17.0338 60.2701C16.8074 59.8075 16.6963 59.2685 16.6963 58.6658C16.6963 58.0631 16.7988 57.5453 17.0039 57.0614C17.209 56.5818 17.5123 56.2126 17.9225 55.9579C18.3326 55.7032 18.7855 55.5759 19.2896 55.5759C19.657 55.5759 19.9903 55.6523 20.2765 55.8009C20.5628 55.9537 20.7977 56.1489 20.9772 56.3866V53.458H22.0111V61.6113H21.0455V61.6071ZM17.7601 58.6573C17.7601 59.417 17.9267 59.9815 18.2557 60.355C18.5847 60.7285 18.9777 60.9153 19.4263 60.9153C19.8749 60.9153 20.2637 60.737 20.5841 60.3762C20.9003 60.0197 21.0626 59.4722 21.0626 58.7379C21.0626 57.9273 20.9003 57.3373 20.5756 56.9596C20.2551 56.5776 19.8578 56.3908 19.3793 56.3908C18.9008 56.3908 18.5334 56.5733 18.2258 56.9383C17.9139 57.3034 17.7601 57.8763 17.7601 58.6573Z" fill="currentColor"/>
<path d="M27.4063 60.8764C27.0217 61.1905 26.65 61.4154 26.2997 61.5428C25.9451 61.6701 25.5606 61.738 25.1505 61.738C24.4754 61.738 23.9585 61.5767 23.5953 61.2626C23.2322 60.9443 23.0527 60.5411 23.0527 60.0445C23.0527 59.7559 23.1211 59.4885 23.2578 59.2508C23.3945 59.0089 23.574 58.8179 23.7961 58.6736C24.0183 58.5293 24.2661 58.419 24.5438 58.3468C24.7489 58.2916 25.0565 58.2449 25.4666 58.194C26.304 58.0964 26.9235 57.9818 27.3165 57.846C27.3165 57.7102 27.3251 57.621 27.3251 57.5828C27.3251 57.1754 27.2268 56.8868 27.0303 56.7212C26.7654 56.492 26.3723 56.3817 25.8468 56.3817C25.3598 56.3817 24.9967 56.4623 24.7617 56.6279C24.5267 56.7934 24.3558 57.0862 24.2447 57.5022L23.2279 57.3706C23.3219 56.9504 23.4714 56.6151 23.685 56.3562C23.8944 56.0973 24.202 55.9021 24.6036 55.762C25.0009 55.622 25.4623 55.5498 25.9921 55.5498C26.5219 55.5498 26.9406 55.6092 27.2695 55.7281C27.5985 55.8469 27.8335 55.9997 27.9873 56.178C28.1411 56.3562 28.2479 56.5854 28.312 56.8571C28.3462 57.0311 28.3675 57.3367 28.3675 57.7823V59.1193C28.3675 60.0488 28.3889 60.6387 28.4316 60.8849C28.4786 61.1353 28.5641 61.3688 28.6965 61.598H27.6113C27.5045 61.3857 27.4362 61.1438 27.402 60.8679M27.3165 58.6397C26.9406 58.7882 26.3723 58.9113 25.6204 59.0174C25.1932 59.0768 24.8941 59.1405 24.7147 59.2169C24.5395 59.2933 24.4028 59.3994 24.3045 59.5437C24.2105 59.688 24.1635 59.845 24.1635 60.0191C24.1635 60.2865 24.2704 60.5072 24.4754 60.6854C24.6848 60.8637 24.9924 60.9528 25.3983 60.9528C25.8041 60.9528 26.1545 60.8679 26.4663 60.6982C26.7782 60.5284 27.0047 60.2992 27.1542 60.0063C27.2653 59.7814 27.3208 59.4461 27.3208 59.0047V58.6397H27.3165Z" fill="currentColor"/>
<path d="M29.5518 62.0945L30.5643 62.2388C30.607 62.5401 30.7266 62.7566 30.9146 62.8967C31.1752 63.0834 31.5256 63.1768 31.9742 63.1768C32.4569 63.1768 32.8286 63.0834 33.0892 62.8967C33.3499 62.7099 33.5293 62.451 33.619 62.12C33.6746 61.9162 33.6959 61.4876 33.6959 60.8339C33.2431 61.3517 32.6748 61.6064 31.9998 61.6064C31.1582 61.6064 30.5045 61.3135 30.0431 60.7278C29.5774 60.1421 29.3467 59.4376 29.3467 58.6184C29.3467 58.0539 29.4535 57.5361 29.6628 57.0565C29.8764 56.5811 30.1841 56.2119 30.5814 55.953C30.9873 55.6941 31.4572 55.5625 31.9998 55.5625C32.7218 55.5625 33.32 55.8426 33.7899 56.4071V55.6941H34.7469V60.8C34.7469 61.7168 34.6487 62.3704 34.4564 62.7524C34.2599 63.1386 33.9523 63.4399 33.5336 63.6607C33.1106 63.8814 32.5937 63.9917 31.9784 63.9917C31.2479 63.9917 30.6583 63.8347 30.2054 63.5163C29.7568 63.198 29.5389 62.7227 29.5518 62.086M30.4148 58.5463C30.4148 59.323 30.5771 59.8875 30.8933 60.244C31.2137 60.6005 31.611 60.7788 32.0938 60.7788C32.5766 60.7788 32.9696 60.6047 33.2986 60.2482C33.619 59.8959 33.7814 59.3399 33.7814 58.5802C33.7814 57.8205 33.6147 57.3112 33.2815 56.9461C32.9525 56.5811 32.5467 56.3944 32.0767 56.3944C31.6067 56.3944 31.2222 56.5769 30.8975 56.9377C30.5728 57.2984 30.4105 57.8375 30.4105 58.5463" fill="currentColor"/>
<path d="M40.0781 60.8764C39.6936 61.1905 39.3219 61.4154 38.9716 61.5428C38.617 61.6701 38.2325 61.738 37.8223 61.738C37.1473 61.738 36.6303 61.5767 36.2672 61.2626C35.904 60.9443 35.7246 60.5411 35.7246 60.0445C35.7246 59.7559 35.793 59.4885 35.9297 59.2508C36.0664 59.0089 36.2458 58.8179 36.468 58.6736C36.6902 58.5293 36.938 58.419 37.2157 58.3468C37.4207 58.2916 37.7283 58.2449 38.1385 58.194C38.9759 58.0964 39.5954 57.9818 39.9884 57.846C39.9884 57.7102 39.997 57.621 39.997 57.5828C39.997 57.1754 39.8987 56.8868 39.7022 56.7212C39.4373 56.492 39.0442 56.3817 38.5187 56.3817C38.0317 56.3817 37.6685 56.4623 37.4335 56.6279C37.1986 56.7934 37.0319 57.0862 36.9166 57.5022L35.8998 57.3706C35.9938 56.9504 36.1433 56.6151 36.3569 56.3562C36.5663 56.0973 36.8739 55.9021 37.2712 55.762C37.6685 55.622 38.1342 55.5498 38.664 55.5498C39.1938 55.5498 39.6124 55.6092 39.9414 55.7281C40.2661 55.8469 40.5054 55.9997 40.6592 56.178C40.813 56.3562 40.9198 56.5854 40.9839 56.8571C41.018 57.0311 41.0394 57.3367 41.0394 57.7823V59.1193C41.0394 60.0488 41.0608 60.6387 41.1035 60.8849C41.1505 61.1353 41.2359 61.3688 41.3684 61.598H40.2832C40.1764 61.3857 40.108 61.1438 40.0739 60.8679M39.9927 58.6397C39.6167 58.7882 39.0485 58.9113 38.2966 59.0174C37.8693 59.0768 37.5703 59.1405 37.3908 59.2169C37.2114 59.2933 37.0747 59.3994 36.9807 59.5437C36.8824 59.688 36.8397 59.845 36.8397 60.0191C36.8397 60.2865 36.9465 60.5072 37.1516 60.6854C37.3609 60.8637 37.6685 60.9528 38.0744 60.9528C38.4803 60.9528 38.8306 60.8679 39.1425 60.6982C39.4544 60.5284 39.6808 60.2992 39.8303 60.0063C39.9414 59.7814 39.997 59.4461 39.997 59.0047V58.6397H39.9927Z" fill="currentColor"/>
<path d="M42.0049 59.8411L43.0345 59.6883C43.0943 60.083 43.2524 60.3886 43.5173 60.5966C43.7822 60.8088 44.1496 60.9149 44.6238 60.9149C45.0981 60.9149 45.4527 60.8215 45.6834 60.6348C45.9141 60.4438 46.0294 60.2273 46.0294 59.9769C46.0294 59.7477 45.9312 59.5695 45.7218 59.4421C45.5808 59.353 45.2262 59.2384 44.6623 59.1026C43.9018 58.9158 43.372 58.7546 43.0772 58.6187C42.7867 58.4829 42.5603 58.2962 42.4065 58.0585C42.2527 57.8208 42.1801 57.5577 42.1801 57.2648C42.1801 57.0017 42.2399 56.7597 42.368 56.5305C42.4919 56.3056 42.6628 56.1188 42.8807 55.9703C43.0431 55.8557 43.261 55.7581 43.5429 55.6774C43.8206 55.601 44.124 55.5586 44.4401 55.5586C44.9229 55.5586 45.3459 55.6265 45.7047 55.7581C46.0722 55.8939 46.3413 56.0722 46.5122 56.3013C46.6874 56.5263 46.8027 56.8319 46.8711 57.2139L45.8543 57.3497C45.8115 57.0441 45.6748 56.8107 45.4527 56.6367C45.2305 56.4669 44.9186 56.382 44.517 56.382C44.0385 56.382 43.701 56.4584 43.4959 56.6112C43.2909 56.764 43.1883 56.9422 43.1883 57.146C43.1883 57.2775 43.231 57.3921 43.3165 57.4982C43.3977 57.6044 43.5344 57.6935 43.7138 57.7656C43.8164 57.8038 44.124 57.8887 44.6324 58.0203C45.3672 58.2113 45.8799 58.3683 46.1704 58.4872C46.4609 58.606 46.6874 58.78 46.854 59.0092C47.0206 59.2427 47.1018 59.527 47.1018 59.8666C47.1018 60.2061 47.0035 60.516 46.7985 60.8088C46.5934 61.1017 46.3029 61.3309 45.9226 61.4921C45.5424 61.6534 45.1109 61.7341 44.6324 61.7341C43.8334 61.7341 43.231 61.5728 42.8081 61.2545C42.3937 60.9361 42.1288 60.4608 42.0092 59.8369" fill="currentColor"/>
<path d="M52.0924 59.4424L53.1135 59.574C53.0024 60.2489 52.7204 60.7836 52.259 61.1656C51.7976 61.5519 51.2337 61.7429 50.5672 61.7429C49.7255 61.7429 49.0505 61.4755 48.5421 60.9492C48.0337 60.4229 47.7773 59.6631 47.7773 58.6785C47.7773 58.0418 47.8842 57.4816 48.1063 57.002C48.3285 56.5224 48.6617 56.1658 49.1103 55.9239C49.5589 55.6862 50.046 55.5674 50.5715 55.5674C51.2379 55.5674 51.7805 55.7287 52.2035 56.0512C52.6265 56.378 52.8999 56.8364 53.0195 57.4349L52.007 57.5877C51.9087 57.1887 51.7378 56.8916 51.4943 56.6921C51.2508 56.4926 50.956 56.3908 50.6099 56.3908C50.0887 56.3908 49.6614 56.569 49.3367 56.9341C49.0078 57.2948 48.8454 57.8678 48.8454 58.6488C48.8454 59.4297 49.0035 60.0197 49.3197 60.3804C49.6358 60.7412 50.046 60.9195 50.5544 60.9195C50.9602 60.9195 51.302 60.8006 51.5755 60.5587C51.8489 60.3168 52.0241 59.9475 52.0967 59.4467" fill="currentColor"/>
<path d="M57.7656 60.8764C57.3811 61.1905 57.0094 61.4154 56.6591 61.5428C56.3045 61.6701 55.92 61.738 55.5098 61.738C54.8348 61.738 54.3178 61.5767 53.9547 61.2626C53.5958 60.9443 53.4121 60.5411 53.4121 60.0445C53.4121 59.7559 53.4805 59.4885 53.6172 59.2508C53.7539 59.0089 53.9291 58.8179 54.1512 58.6736C54.3734 58.5293 54.6212 58.419 54.8989 58.3468C55.104 58.2916 55.4116 58.2449 55.8217 58.194C56.6591 58.0964 57.2786 57.9818 57.6716 57.846C57.6716 57.7102 57.6802 57.621 57.6802 57.5828C57.6802 57.1754 57.5819 56.8868 57.3854 56.7212C57.1205 56.492 56.7274 56.3817 56.202 56.3817C55.7149 56.3817 55.3518 56.4623 55.1168 56.6279C54.8818 56.7934 54.7152 57.0862 54.5998 57.5022L53.583 57.3706C53.677 56.9504 53.8265 56.6151 54.0401 56.3562C54.2495 56.0973 54.5571 55.9021 54.9587 55.762C55.356 55.622 55.8174 55.5498 56.3472 55.5498C56.877 55.5498 57.2957 55.6092 57.6246 55.7281C57.9536 55.8469 58.1886 55.9997 58.3424 56.178C58.4962 56.3562 58.603 56.5854 58.6671 56.8571C58.7013 57.0311 58.7226 57.3367 58.7226 57.7823V59.1193C58.7226 60.0488 58.744 60.6387 58.7867 60.8849C58.8337 61.1353 58.9192 61.3688 59.0516 61.598H57.9664C57.8596 61.3857 57.7913 61.1438 57.7571 60.8679M57.6802 58.6397C57.3042 58.7882 56.736 58.9113 55.9841 59.0174C55.5568 59.0768 55.2578 59.1405 55.0783 59.2169C54.9032 59.2933 54.7622 59.3994 54.6682 59.5437C54.5699 59.688 54.5229 59.845 54.5229 60.0191C54.5229 60.2865 54.6297 60.5072 54.8391 60.6854C55.0484 60.8637 55.356 60.9528 55.7576 60.9528C56.1592 60.9528 56.5138 60.8679 56.8257 60.6982C57.1376 60.5284 57.364 60.2992 57.5136 60.0063C57.6246 59.7814 57.6802 59.4461 57.6802 59.0047V58.6397Z" fill="currentColor"/>
<path d="M60.0947 61.6064V55.6983H61.0304V56.5896C61.2653 56.1737 61.4918 55.8936 61.6926 55.762C61.8934 55.6262 62.1155 55.5625 62.3591 55.5625C62.7094 55.5625 63.064 55.6686 63.4272 55.8851L63.0683 56.8146C62.8119 56.666 62.5599 56.5981 62.3035 56.5981C62.0771 56.5981 61.8763 56.666 61.6926 56.7933C61.5089 56.9249 61.3807 57.1074 61.3038 57.3409C61.1884 57.6974 61.1329 58.0879 61.1329 58.5081V61.6022H60.0947V61.6064Z" fill="currentColor"/>
<path d="M63.4525 58.9538L65.1145 58.801C65.2127 59.3401 65.4178 59.7305 65.7211 59.9852C66.0287 60.2356 66.4389 60.3629 66.9644 60.3629C67.5112 60.3629 67.9299 60.2483 68.2076 60.0276C68.4896 59.8027 68.6263 59.5438 68.6263 59.2424C68.6263 59.0472 68.5665 58.8859 68.4512 58.7501C68.3358 58.6143 68.1265 58.4954 67.8359 58.3978C67.6394 58.3299 67.178 58.2111 66.4688 58.0413C65.5545 57.8248 64.9094 57.5532 64.542 57.2349C64.0207 56.785 63.7644 56.2375 63.7644 55.5923C63.7644 55.1764 63.884 54.7859 64.1318 54.4294C64.3753 54.0644 64.7299 53.7927 65.1871 53.6018C65.6442 53.4108 66.1996 53.3174 66.8533 53.3174C67.9171 53.3174 68.716 53.5423 69.2501 53.988C69.7884 54.4379 70.0704 55.0406 70.096 55.7833L68.3871 55.8597C68.3144 55.4395 68.1564 55.1382 67.9171 54.9514C67.6736 54.7689 67.3147 54.6798 66.8319 54.6798C66.3492 54.6798 65.9476 54.7774 65.6656 54.9727C65.4862 55.1 65.3922 55.2698 65.3922 55.4777C65.3922 55.6687 65.4776 55.8343 65.6485 55.9701C65.8621 56.1441 66.3876 56.3266 67.2165 56.5133C68.0496 56.7043 68.6648 56.8996 69.0621 57.0991C69.4594 57.3028 69.7713 57.5787 69.9935 57.931C70.2199 58.2832 70.331 58.7161 70.331 59.2297C70.331 59.6966 70.1985 60.138 69.9294 60.5412C69.656 60.9487 69.2757 61.2542 68.7844 61.4495C68.2931 61.649 67.6779 61.7466 66.943 61.7466C65.8749 61.7466 65.0504 61.5089 64.4779 61.0335C63.9054 60.5539 63.5636 59.8621 63.4482 58.9496" fill="currentColor"/>
<path d="M75.0734 59.7262L76.6883 59.9851C76.479 60.5581 76.1543 60.991 75.7014 61.2923C75.2528 61.5894 74.6931 61.738 74.0224 61.738C72.9543 61.738 72.1682 61.4027 71.6555 60.7321C71.2496 60.193 71.0488 59.514 71.0488 58.6948C71.0488 57.7186 71.3137 56.9504 71.8478 56.3944C72.3775 55.8384 73.0526 55.5625 73.86 55.5625C74.7743 55.5625 75.4921 55.8511 76.0176 56.4326C76.5431 57.0141 76.7951 57.9011 76.7738 59.098H72.7108C72.7236 59.5606 72.856 59.9214 73.1038 60.1803C73.3516 60.4392 73.6678 60.5665 74.0352 60.5665C74.2873 60.5665 74.5009 60.4986 74.676 60.3671C74.8469 60.2312 74.9794 60.019 75.0648 59.7219M75.1674 58.1473C75.1545 57.6931 75.0349 57.3536 74.8042 57.1159C74.5735 56.8825 74.2915 56.7636 73.9583 56.7636C73.6037 56.7636 73.3132 56.8867 73.0825 57.1371C72.8518 57.3876 72.7407 57.7229 72.7407 58.1515H75.1674V58.1473Z" fill="currentColor"/>
<path d="M79.0726 57.4979L77.5986 57.2432C77.7653 56.6703 78.0472 56.2501 78.4531 55.9742C78.859 55.6983 79.4571 55.5625 80.2518 55.5625C80.9781 55.5625 81.5164 55.6431 81.8667 55.8087C82.2213 55.9742 82.4691 56.1822 82.6144 56.4368C82.7596 56.6915 82.8323 57.1541 82.8323 57.8375L82.8152 59.6625C82.8152 60.1803 82.8408 60.5665 82.8921 60.8085C82.9433 61.0546 83.0416 61.322 83.1826 61.6022H81.5762C81.5377 61.5003 81.4822 61.3433 81.4224 61.1395C81.3967 61.0504 81.3754 60.9867 81.3626 60.957C81.0849 61.2159 80.7901 61.4112 80.4739 61.5385C80.1578 61.6701 79.8245 61.7337 79.4656 61.7337C78.8333 61.7337 78.3377 61.5682 77.9703 61.2371C77.6072 60.9061 77.4277 60.4901 77.4277 59.9851C77.4277 59.6498 77.5089 59.3527 77.6798 59.0895C77.8422 58.8306 78.0729 58.6269 78.3719 58.4911C78.671 58.351 79.1025 58.2322 79.6622 58.1261C80.4184 57.9902 80.9481 57.8587 81.2387 57.7441V57.587C81.2387 57.2857 81.1618 57.0692 81.008 56.9461C80.8542 56.8146 80.5636 56.7509 80.1364 56.7509C79.8459 56.7509 79.6194 56.8061 79.4571 56.9164C79.299 57.0268 79.1666 57.2178 79.0683 57.4937M81.2429 58.767C81.0379 58.8349 80.7089 58.9155 80.256 59.0089C79.8074 59.1023 79.5126 59.1914 79.3759 59.2805C79.1623 59.4248 79.0598 59.6073 79.0598 59.8323C79.0598 60.0572 79.1452 60.2397 79.3118 60.401C79.4785 60.5581 79.6963 60.6387 79.957 60.6387C80.2518 60.6387 80.5295 60.5453 80.7943 60.3628C80.9909 60.2185 81.1233 60.0487 81.1831 59.845C81.2259 59.7092 81.2472 59.4588 81.2472 59.081V58.7712L81.2429 58.767Z" fill="currentColor"/>
<path d="M84.3232 61.6058V53.4482H90.0311V54.4117H85.4383V56.9371H89.4116V57.9005H85.4383V61.6058H84.3232Z" fill="currentColor"/>
<path d="M90.7275 58.6524C90.7275 57.5573 91.0437 56.7467 91.676 56.2204C92.2015 55.7832 92.8423 55.5625 93.6028 55.5625C94.4445 55.5625 95.1323 55.8299 95.6664 56.3604C96.2004 56.891 96.4696 57.6295 96.4696 58.5675C96.4696 59.3272 96.3542 59.9257 96.115 60.3586C95.8757 60.7957 95.5297 61.131 95.0811 61.3772C94.6282 61.6191 94.1369 61.738 93.6028 61.738C92.7441 61.738 92.052 61.4706 91.5222 60.94C90.9924 60.4095 90.7275 59.6455 90.7275 58.6481M91.7956 58.6524C91.7956 59.4078 91.9665 59.9766 92.3083 60.3501C92.6501 60.7236 93.0859 60.9146 93.6028 60.9146C94.1198 60.9146 94.547 60.7236 94.8888 60.3458C95.2306 59.9681 95.4015 59.3909 95.4015 58.6184C95.4015 57.8884 95.2263 57.3324 94.8845 56.9589C94.5385 56.5811 94.1112 56.3944 93.6028 56.3944C93.0944 56.3944 92.6501 56.5811 92.3083 56.9546C91.9665 57.3324 91.7956 57.8969 91.7956 58.6524Z" fill="currentColor"/>
<path d="M97.0674 58.6524C97.0674 57.5573 97.3835 56.7467 98.0158 56.2204C98.5413 55.7832 99.1822 55.5625 99.9427 55.5625C100.784 55.5625 101.472 55.8299 102.006 56.3604C102.54 56.891 102.809 57.6295 102.809 58.5675C102.809 59.3272 102.694 59.9257 102.455 60.3586C102.216 60.7957 101.869 61.131 101.421 61.3772C100.968 61.6191 100.477 61.738 99.9427 61.738C99.0839 61.738 98.3918 61.4706 97.862 60.94C97.3323 60.4095 97.0674 59.6455 97.0674 58.6481M98.1355 58.6524C98.1355 59.4078 98.3106 59.9766 98.6481 60.3501C98.9899 60.7236 99.4257 60.9146 99.9427 60.9146C100.46 60.9146 100.887 60.7236 101.229 60.3458C101.57 59.9681 101.741 59.3909 101.741 58.6184C101.741 57.8884 101.566 57.3324 101.224 56.9589C100.878 56.5811 100.451 56.3944 99.9427 56.3944C99.4343 56.3944 98.9899 56.5811 98.6481 56.9546C98.3106 57.3324 98.1355 57.8969 98.1355 58.6524Z" fill="currentColor"/>
<path d="M107.765 61.6061V60.8634C107.376 61.4448 106.804 61.7419 106.052 61.7419C105.565 61.7419 105.116 61.6146 104.706 61.3557C104.296 61.0926 103.98 60.7318 103.754 60.2692C103.527 59.8065 103.416 59.2675 103.416 58.6648C103.416 58.0621 103.519 57.5443 103.724 57.0605C103.929 56.5808 104.232 56.2116 104.638 55.9569C105.048 55.7023 105.501 55.5749 106.009 55.5749C106.377 55.5749 106.71 55.6513 106.996 55.7999C107.287 55.9527 107.522 56.1479 107.701 56.3856V53.457H108.735V61.6104H107.77L107.765 61.6061ZM104.484 58.6563C104.484 59.416 104.651 59.9805 104.98 60.354C105.309 60.7275 105.702 60.9143 106.15 60.9143C106.599 60.9143 106.988 60.736 107.308 60.3753C107.624 60.0187 107.787 59.4712 107.787 58.737C107.787 57.9263 107.624 57.3363 107.3 56.9586C106.979 56.5766 106.582 56.3899 106.103 56.3899C105.625 56.3899 105.257 56.5724 104.946 56.9374C104.634 57.3024 104.48 57.8754 104.48 58.6563" fill="currentColor"/>
<path d="M51.8534 46.1567H44.9493V25.088C44.9493 23.7213 44.8425 22.5626 44.6289 21.6076C44.4153 20.6526 44.0692 19.8717 43.6035 19.269C43.1336 18.6663 42.5269 18.2334 41.7792 17.9745C41.0273 17.7113 40.1173 17.5798 39.0492 17.5798C35.704 17.5798 32.4271 19.3114 29.2143 22.7706V46.161H22.511V25.0922C22.511 23.7255 22.3956 22.5668 22.1692 21.6119C21.9427 20.6569 21.5839 19.8759 21.1011 19.2732C20.6183 18.6706 20.0074 18.2376 19.2554 17.9787C18.5035 17.7156 17.5978 17.584 16.5254 17.584C13.2357 17.584 9.98446 19.3157 6.77166 22.7748V46.1652H0V13.5477H6.78021V17.6816C10.0742 14.3796 13.6715 12.7285 17.5764 12.7285C23.1433 12.7285 26.715 14.7106 28.2915 18.6748C29.5988 17.376 30.7865 16.3362 31.846 15.5467C32.9013 14.7573 33.8839 14.1546 34.794 13.7344C35.704 13.3142 36.5798 13.0426 37.4214 12.9153C38.2674 12.7922 39.1304 12.7285 40.0105 12.7285C47.9058 12.7285 51.8534 16.7606 51.8534 24.8163V46.161V46.1567Z" fill="currentColor"/>
<path d="M67.1828 12.3045C65.7558 12.7841 64.5425 13.442 63.5385 14.2866C62.5345 15.1312 61.7612 16.1244 61.2186 17.2788C60.6803 18.4248 60.4111 19.6726 60.4111 21.0181C60.4111 22.546 60.6162 23.8023 61.0264 24.8083C61.4365 25.8099 62.0688 26.6503 62.9233 27.3336C63.782 28.017 64.8672 28.5984 66.2002 29.0738C67.5289 29.5534 69.1139 30.0288 70.951 30.5084C72.8308 31.0347 74.3561 31.4718 75.5224 31.8241C76.6888 32.1764 77.603 32.5329 78.261 32.8937C78.9232 33.2587 79.3675 33.6831 79.5897 34.1585C79.8204 34.6381 79.9315 35.262 79.9315 36.0387C79.9315 36.8154 79.7777 37.4775 79.4786 38.1057C79.1753 38.7338 78.7309 39.2771 78.1499 39.7482C77.5646 40.2109 76.8383 40.5801 75.9582 40.839C75.0824 41.0979 74.0741 41.2295 72.9248 41.2295C68.8148 41.2295 65.3884 39.3917 65.0894 35.9623H66.7L60.535 29.4048V52.5618H61.24V41.4884H61.3895C63.3377 43.8737 68.0843 45.8049 72.9889 45.8049C74.8944 45.8049 76.6119 45.546 78.1456 45.0239C79.6794 44.5019 80.9825 43.7718 82.0548 42.8381C83.1229 41.9043 83.9517 40.8136 84.5328 39.5615C85.1181 38.3094 85.4086 36.9427 85.4086 35.4657C85.4086 33.8911 85.1864 32.5838 84.7464 31.5355C84.2978 30.4914 83.6185 29.6043 82.6999 28.8743C81.7857 28.1443 80.6321 27.5246 79.2479 27.0111C77.8637 26.5017 76.2316 26.0051 74.3518 25.5298C72.4036 25.029 70.8698 24.6088 69.7462 24.265C68.6226 23.9212 67.7724 23.5732 67.1999 23.2251C66.6274 22.8686 66.2642 22.4866 66.1147 22.0792C65.9609 21.6675 65.8883 21.1454 65.8883 20.5045C65.8883 19.8042 66.0506 19.1803 66.3753 18.6455C66.7 18.1107 67.1529 17.6608 67.7382 17.2958C68.3235 16.9308 69.0071 16.6549 69.7975 16.4597C70.5836 16.2644 71.4466 16.1711 72.3694 16.1711C76.5435 16.1711 78.7267 17.6948 78.9232 20.7464H84.3704C84.238 14.6474 80.0981 11.5957 71.9507 11.5957C70.1991 11.5957 68.6098 11.8376 67.1785 12.313" fill="currentColor"/>
</svg>
