<svg width="192" height="86" viewBox="0 0 192 86" fill="none" xmlns="http://www.w3.org/2000/svg">
<path d="M15.0657 23.1581C15.7128 22.7013 16.8365 22.6638 17.3694 23.2538C17.807 23.7297 17.8256 24.5482 17.9397 25.1952L19.5198 34.7304C19.7482 36.0627 19.8239 37.338 19.6907 38.6513C19.6527 39.127 19.1774 39.6405 18.8538 39.831C18.4161 40.0974 17.7496 40.0983 17.3118 39.7177C16.836 39.2989 16.5886 38.6324 16.4173 37.9852C15.5418 34.6735 13.6575 27.3267 9.03252 28.5829C5.54966 29.5348 4.33167 37.8138 9.88896 43.1239C11.3735 44.5514 12.8776 45.6748 14.5716 46.8739C23.8975 53.4974 28.2182 64.1178 25.6487 75.4042C24.4496 80.6382 20.9471 84.7299 15.5228 85.6435C9.39419 86.6712 3.51296 84.578 1.60967 78.164L1.6292 78.1825C1.03925 76.1842 0.981303 74.3 1.07646 72.3017C1.2097 69.3136 2.52335 66.4396 5.92998 66.5917C7.81425 66.6678 9.43241 67.7151 10.346 69.371C10.802 70.2086 8.17666 72.3211 8.86162 76.5077C9.10904 78.0303 9.85118 79.553 11.2024 80.3524C13.277 81.5705 15.751 80.7142 17.1595 78.8681C18.3205 77.3264 18.8344 75.5751 19.1009 73.6337C19.786 68.552 18.3398 63.5652 14.9329 59.7206C13.3342 57.9125 11.6018 56.3902 9.66045 54.9628C4.54066 51.1753 0.715297 47.4636 0.0872061 40.745C-0.217322 37.4523 0.258902 34.2357 1.78154 31.3808C3.97036 27.2697 8.15756 25.0052 12.7825 25.7284C13.2011 25.7854 13.772 25.7282 14.0765 25.538C14.9519 24.9861 14.5901 23.5008 15.0657 23.1581ZM124.734 55.5526C125.952 55.3623 127.152 55.4377 128.199 56.0849C129.074 56.6368 129.378 57.684 128.788 58.5595C128.408 59.1304 127.875 59.5683 127.037 59.7587C126.999 59.4161 127.037 59.0158 127.114 58.6542C127.285 57.6838 126.542 56.9793 125.666 56.9032C123.078 56.6562 123.782 60.7674 123.706 62.4042L126.999 62.3095C127.189 62.3101 127.285 62.8417 127.228 63.0321C127.171 63.2224 126.904 63.5647 126.695 63.5458L123.706 63.5077V73.8241C123.706 75.2702 125.266 74.7758 125.229 75.5175C125.229 75.7268 124.963 75.9179 124.715 75.994C123.269 76.4318 121.86 77.0979 120.49 77.745C120.375 77.802 119.994 77.764 119.88 77.7069C119.177 77.2122 120.889 76.7739 120.908 74.2431V63.7743C120.071 63.1083 119.5 63.717 118.834 63.1845C118.72 63.0894 118.967 62.6333 119.138 62.5946L120.908 62.3095L121.041 59.5868C121.137 57.4365 122.698 55.8953 124.734 55.5526ZM87.3343 55.038C87.5246 55.057 87.7151 55.457 87.7151 55.6854L87.8294 59.4159C87.8292 59.5872 87.6013 59.911 87.4681 59.9491C86.802 60.1394 86.8208 58.9591 85.9456 57.8173C85.013 56.5992 83.3951 56.1614 82.0247 56.8466C81.3587 57.1701 80.9398 57.8738 80.8636 58.5019C80.5019 61.2997 85.8886 61.7572 88.0774 64.4979C89.0667 65.7349 89.2191 67.2954 88.7054 68.8368C88.2866 70.074 87.2012 71.1589 85.7737 71.7108C83.4329 72.6053 80.8446 72.2823 78.5608 71.1405L78.5989 71.1024C77.8947 70.7408 77.5326 70.3403 77.6849 69.5028C77.8184 68.7791 78.7886 66.2686 79.721 66.8007C80.273 67.1242 79.7027 68.8755 81.1683 70.0936C82.6337 71.3114 84.8222 71.0258 85.9261 69.5985C86.7826 68.4756 86.5539 67.0292 85.5071 66.1727C82.9758 64.1173 77.8565 63.4127 78.3128 59.0927C78.6744 55.8191 82.4429 54.5245 85.5452 55.5712C86.6489 55.9518 86.7446 54.9434 87.3343 55.038ZM131.015 63.4511C133.185 61.5859 136.44 61.5477 138.742 63.2226C139.999 64.1361 140.589 65.5447 140.608 66.9911C140.627 68.4376 140.036 69.8847 138.761 70.8554C136.458 72.6251 133.166 72.7012 130.939 70.8554C128.617 68.9521 128.731 65.3924 131.015 63.4511ZM92.7962 65.621C93.6907 62.6328 97.3265 61.1866 100.239 62.538C101.894 63.2993 102.808 65.0502 102.389 66.8964L95.347 66.9726C95.309 68.1716 95.88 69.6184 97.1741 70.1894C98.7348 70.8935 100.486 70.3602 101.666 69.3134C101.819 69.1802 102.123 69.0854 102.256 69.1425C102.427 69.2189 102.58 69.6563 102.485 69.8085C100.638 72.7966 96.0128 72.9488 93.7669 70.4745C92.587 69.1803 92.2633 67.41 92.7962 65.621ZM167.463 55.3808C167.863 55.3808 168.206 55.2668 168.51 55.4569V69.4081C168.51 70.9498 170.337 70.6076 169.956 71.1786C169.88 71.2928 169.652 71.4822 169.5 71.5204L166.741 72.1493C166.455 72.2064 166.15 71.5968 165.979 71.0829H165.96C164 72.4723 161.278 72.7386 159.47 70.8925C157.396 68.7989 157.642 65.2021 159.85 63.2987C161.563 61.8142 163.771 61.7186 165.846 62.6132V57.8358C165.846 56.2565 164.418 56.5228 164.152 56.0282C164.076 55.8951 164.399 55.5142 164.551 55.5136L167.463 55.3808ZM181.166 62.0048C181.281 62.0048 181.433 62.309 181.452 62.4423V64.8212C181.452 64.9734 181.205 65.2585 181.072 65.2968C180.938 65.3348 180.615 65.1258 180.576 64.9735C180.158 63.5462 178.711 62.7091 177.283 63.1659C176.846 63.2994 176.465 63.7747 176.427 64.1933C176.389 64.5168 176.732 65.126 177.094 65.2782L179.283 66.2675L179.263 66.287C180.767 66.9722 182.1 67.848 181.871 69.6561C181.795 70.2842 181.281 71.0456 180.596 71.4452C178.864 72.4539 176.865 72.3588 175 71.6737C174.677 71.5595 173.934 71.8253 173.877 71.1972C173.839 70.7586 173.573 68.2098 174.2 68.3046C174.334 68.3236 174.524 68.5137 174.581 68.6659C175.19 70.3028 176.827 71.4064 178.54 70.9686C179.073 70.8353 179.51 70.2652 179.568 69.8466C179.663 69.2376 179.264 68.7229 178.693 68.4374L175.685 66.9726C174.809 66.5538 174.22 65.7348 174.22 64.8974C174.22 63.8887 174.676 63.0319 175.609 62.5751C176.884 61.928 178.293 61.8717 179.682 62.3095C180.595 62.5949 180.443 61.9479 181.166 62.0048ZM147.63 62.328C149.514 61.757 151.57 62.0044 153.207 63.1464C154.559 64.0979 155.262 65.6586 155.205 67.2763C155.148 68.8369 154.349 70.3788 152.826 71.2733C150.961 72.3772 148.696 72.4731 146.774 71.6356C144.566 70.665 143.538 68.3618 144.09 66.0399C144.509 64.2509 145.841 62.861 147.63 62.328ZM106.976 64.536C107.147 62.0048 110.953 61.6811 113.009 62.3661C114.246 62.7658 114.97 63.8131 114.97 65.1073V69.7323C114.97 70.3031 115.388 70.6648 115.921 70.6269C116.054 70.6269 116.358 70.7598 116.397 70.8739C116.435 71.0261 116.283 71.4067 116.131 71.4452C115.332 71.6926 114.361 72.0351 113.542 72.1874C113.086 72.1493 112.724 71.4074 112.495 70.9696V70.9882C110.535 72.5298 106.88 72.6823 106.214 70.5507C105.891 69.561 106.063 68.5327 106.843 67.8476C108.537 66.3823 110.269 66.4582 112.477 66.1727C112.496 65.602 112.496 65.0121 112.401 64.4794C112.267 63.7181 111.562 63.2611 110.839 63.2421C108.537 63.1472 108.137 65.1834 107.337 65.1073C107.166 65.1068 106.957 64.7262 106.976 64.536ZM134.631 63.0897C133.642 63.2039 132.785 63.7935 132.423 64.7831C131.852 66.3628 131.871 68.133 132.652 69.5985C133.204 70.6263 134.175 71.1971 135.279 71.121C136.268 71.0637 137.181 70.4357 137.562 69.4081C138.19 67.7143 138.057 65.8305 137.086 64.289C136.534 63.4135 135.545 62.9946 134.631 63.0897ZM149.495 63.0702C148.677 63.0703 147.783 63.4323 147.365 64.2694C146.489 66.0014 146.489 68.1902 147.497 69.827C148.03 70.7026 149.02 71.1405 149.934 71.0644C150.79 70.9881 151.685 70.531 152.084 69.5604V69.5985C152.807 67.8667 152.674 65.8877 151.742 64.327C151.247 63.5086 150.371 63.0702 149.495 63.0702ZM165.808 64.288C165.541 63.3365 164.037 63.0698 163.219 63.203C162.306 63.3553 161.545 64.0026 161.183 64.954C160.46 66.8763 160.707 70.1506 163.2 70.6835C164.057 70.8737 165.408 70.6829 165.808 69.7694C165.922 67.9233 165.96 66.0389 165.808 64.288ZM112.457 67.1054C111.049 67.1625 108.461 67.5432 108.632 69.3319C108.689 69.941 109.222 70.4555 109.85 70.5888C110.801 70.7981 111.791 70.3983 112.457 69.6942V67.1054ZM34.4222 0.927632C34.8409 0.223411 35.9265 -0.194777 36.6878 0.0907178C37.4867 0.376341 37.4868 1.17523 37.639 1.86025C38.3051 4.56294 39.4473 7.03729 40.8177 9.43544L42.4544 12.2909C42.5875 12.5381 42.6831 12.6901 42.8733 12.9374C44.6053 15.1833 45.043 17.3152 47.3841 16.1923L58.5755 11.6054C59.8127 11.1105 64.1715 8.865 64.7806 11.3202C65.3508 13.642 61.0491 15.5644 59.4505 16.4589C58.3657 17.0679 56.919 17.81 54.5022 19.9032C53.4745 20.7977 50.0869 22.473 49.9915 24.0907C49.8963 25.6324 51.3431 26.4321 52.3138 27.4218L53.513 28.6395L56.2151 31.3046C57.7949 32.8653 61.2023 35.2827 61.7923 37.3192C62.0391 38.1187 60.8588 39.6215 59.6409 38.9745C56.7859 37.5089 51.0954 34.5213 48.9065 32.6561C45.5948 29.8202 42.5874 30.5816 41.179 31.7235C40.57 32.2186 39.6759 33.4745 39.3714 34.1405C41.6932 33.8551 43.2352 34.845 44.1868 35.5302C46.6609 37.3194 48.7357 41.1826 49.5921 43.0097L50.7913 45.579C50.9055 45.8264 50.9436 46.2837 50.8675 46.4931C50.7532 46.7595 50.2389 47.0062 49.9534 47.0253C49.0589 47.0443 48.6783 46.4166 48.2405 45.8075L47.5169 44.7421L46.9466 43.9999C46.9466 43.9999 45.3091 41.6963 44.7571 41.0302C44.6975 40.9697 43.4614 39.3539 42.0735 38.4794C41.1406 37.8901 38.6284 39.7169 38.1526 40.0595C35.412 42.0198 33.3949 44.6085 31.72 47.4823C31.0348 48.6624 30.33 49.7287 30.5774 51.1561C30.882 52.9642 31.9863 54.3727 33.2044 55.6669C33.9466 56.4662 34.5941 57.304 35.6028 57.9511V57.9696C38.2673 59.7015 41.3884 61.1477 44.5286 61.0526C45.5373 61.0146 46.0516 60.1395 46.261 59.2831C47.0985 55.8952 43.1776 55.6857 42.3782 55.2099C41.9215 54.9434 41.7503 54.1247 42.6829 53.706C44.0913 53.078 45.8615 53.9152 47.3841 54.3339C47.3841 54.3339 54.636 56.4848 55.5306 56.6181C56.425 56.7514 57.3377 57.4178 56.6526 58.0077C54.1785 60.1013 52.7699 63.0325 52.8079 65.3925C52.8079 66.268 51.723 66.8006 50.9808 66.6483C48.2786 66.1153 48.2208 64.612 44.5286 64.1933C41.1599 63.8126 37.9433 63.1466 34.803 61.8524C33.4708 61.3005 32.2719 60.6343 30.9778 59.9872C27.2664 58.141 24.6779 55.8566 23.4788 51.7265C22.9269 49.8232 23.0222 47.7298 23.8216 45.8837L24.3538 44.6464C24.8676 43.4666 25.667 41.8493 26.1429 41.1259C27.9317 38.4616 31.776 35.3975 32.7093 34.6737L33.6614 33.7792C35.1649 32.3518 34.4035 29.1734 32.8431 28.0311C29.6266 25.6711 23.5169 26.6983 19.7864 26.3368L19.2151 23.539C19.5959 23.3676 22.1086 22.6448 22.7747 22.5116C25.344 21.9788 28.9408 21.6355 31.5481 21.369C35.8495 20.9123 35.1839 17.9434 35.1839 12.0624C35.1839 10.692 34.8415 8.1411 34.594 6.44716L34.2317 3.89736C34.0985 2.88863 33.8512 1.87927 34.4222 0.927632ZM98.8685 63.4325C97.9549 62.8615 96.6791 63.0516 96.013 63.9462C95.5753 64.5171 95.385 65.2025 95.3089 65.9257H99.8011V65.9061C99.8771 64.7265 99.5534 64.0605 98.8685 63.4325ZM184.898 27.5741C185.05 27.5741 185.221 28.0498 185.126 28.202C184.765 28.8299 182.881 28.7539 182.88 29.6669V42.952C182.899 43.6563 183.185 44.3041 183.985 44.3612C190.112 44.8939 189.961 41.7728 191.083 41.8104L191.065 41.829C192.187 41.8676 190.361 45.5597 190.018 46.3593C189.637 47.2158 188.8 46.1688 186.801 46.0927C183.718 45.9785 180.425 46.0742 177.399 46.1503C177.227 46.1502 176.961 45.7689 177.056 45.6356C177.684 44.7604 179.303 45.3883 179.283 43.2567L179.169 29.705C179.169 28.6777 176.904 28.7343 176.827 28.0683C176.79 27.8019 177.113 27.5165 177.437 27.5165L184.898 27.5741ZM78.1224 25.6132C78.3508 25.6132 78.6175 25.937 78.6556 26.1845C78.941 27.9352 79.1693 29.5338 79.2835 31.3036C79.2835 31.4939 78.9025 31.8944 78.7122 31.8563C77.875 31.7419 78.0079 29.6486 76.0481 28.3544C74.8871 27.5931 73.5353 27.3068 72.2601 27.8778C71.5751 28.1823 71.0424 28.8104 70.8899 29.3622C70.4522 30.9419 71.5372 32.0652 72.9456 32.8075L76.9612 34.9394C78.0271 35.5103 79.112 36.2719 79.8353 37.2616C81.9288 40.1356 80.8628 44.1511 77.5892 45.6356C75.0388 46.8156 71.9554 46.6823 69.386 45.4071V45.4267C67.3688 44.4179 66.5696 42.077 67.6731 40.2499C68.168 39.4315 69.177 39.2412 70.0716 39.4696C71.2896 39.7743 72.0317 41.2586 71.5179 41.9628C71.3084 42.248 70.8703 42.1533 70.1282 42.3056C69.9769 42.3254 70.2424 42.7994 70.3187 42.914C71.6319 44.8553 74.3734 45.3122 76.3147 43.9608C77.0948 43.4279 77.5134 42.5525 77.5325 41.6962C77.6467 38.3083 72.3557 37.5465 69.4817 35.0722C68.1304 33.9112 67.4639 32.2176 67.7493 30.3905C67.9777 28.887 69.0437 27.4214 70.5853 26.6981C72.4695 25.8036 74.4871 25.8797 76.4095 26.622C77.4562 27.0216 77.4563 25.5752 78.1224 25.6132ZM152.485 26.2216C152.675 26.1837 153.074 26.4503 153.151 26.6405C153.874 28.4866 154.426 30.1807 154.864 32.122C154.921 32.3884 154.73 32.8266 154.521 32.8837C154.254 32.9596 153.855 32.8266 153.741 32.5224C152.332 29.1345 148.183 27.6308 145.024 29.5722C143.939 30.2383 143.197 31.3805 142.759 32.5985C141.712 35.5104 141.883 38.8218 143.291 41.5243C144.547 43.9414 147.212 45.1404 149.743 44.3602C151.266 43.8845 152.047 42.5336 151.933 41.0302C151.724 38.0614 148.945 39.069 148.925 38.08C148.925 37.8327 149.249 37.5471 149.553 37.5468V37.5653H156.939C157.148 37.5659 157.357 37.9463 157.3 38.0985C157.053 38.936 155.283 38.3651 155.283 40.1923V46.0351C154.559 46.2254 153.703 46.2449 152.998 45.9784L152.161 44.8739C148.164 47.6337 141.731 46.6059 139.37 42.1142C137.582 38.7264 137.792 34.5395 139.847 31.3231C142.112 27.764 146.337 26.3554 150.334 27.4022C151.99 27.8396 151.914 26.3167 152.485 26.2216ZM105.606 26.2792C106.044 26.0318 106.767 26.1652 106.957 26.6601L113.676 43.6757C114.361 45.4074 115.656 44.8177 115.77 45.6171C115.788 45.7883 115.504 46.1108 115.332 46.1112C113.105 46.0922 111.068 46.0737 108.861 46.2069C108.499 46.2259 108.175 46.1496 108.137 45.7499C108.042 44.9889 110.173 45.1409 109.908 44.0565C109.641 43.0478 109.222 42.1336 108.746 41.0868H102.789V41.0683L101.895 43.5419C101.8 43.7893 101.895 44.437 102.085 44.6083C102.751 45.2741 103.684 44.9891 103.76 45.6171C103.798 45.8643 103.475 46.111 103.208 46.1112H97.9544C97.764 46.1111 97.4406 46.0354 97.3645 45.9022C96.9271 45.1221 98.9821 45.4642 99.7815 43.4091L104.578 31.1327C104.788 30.619 104.236 29.8959 103.95 29.6102C103.075 28.7157 102.066 29.8763 101.666 28.8866C101.59 28.6963 101.818 28.3724 102.066 28.2392L105.606 26.2792ZM171.46 26.9071C171.746 26.8117 172.43 26.4511 172.582 26.8505C173.077 28.0685 173.496 29.3435 173.896 30.5995C173.953 30.7708 173.82 31.1518 173.725 31.2851C173.611 31.4373 173.077 31.4178 172.963 31.2655C171.307 28.5633 168.795 28.773 165.921 29.0585V35.453L169.214 35.4149C169.956 35.4146 170.109 34.159 170.622 34.0829C171.917 33.8926 172.678 38.7074 171.479 38.7645C170.28 38.8216 171.936 36.5568 165.921 37.1278V43.3144C165.941 43.847 166.473 44.3986 166.987 44.456C172.868 45.1601 173.04 41.6963 174.124 42.0194C175.133 42.324 173.42 45.3885 173.077 46.1688H160.821C160.573 46.1688 160.249 46.0358 160.173 45.8456C159.792 44.932 162.324 45.5788 162.324 43.4091V30.5614C162.323 27.707 158.994 29.0204 160.307 27.3456C162.858 27.3456 169.31 27.6874 171.46 26.9071ZM127.114 27.289C129.245 27.0986 131.225 27.5743 132.938 28.7733C134.803 30.2579 135.203 32.7706 134.175 34.9403C133.338 36.6912 131.719 37.7185 129.797 38.3085C131.148 40.3069 132.462 42.1347 133.889 43.9618C134.403 44.6279 135.088 45.0088 135.868 45.2753C136.002 45.4275 136.154 45.6553 136.155 45.8075C136.155 45.9596 135.793 46.1499 135.641 46.1503L131.777 46.1122C131.472 46.1121 130.958 45.6936 130.768 45.4462L126.181 39.413C125.8 38.9181 125.096 38.6895 124.525 39.0321V43.5614C124.506 45.4263 126.39 44.7993 126.58 45.6552C126.618 45.8264 126.277 46.1314 126.086 46.1317H119.538C119.291 46.1317 118.968 46.0359 118.91 45.8456C118.606 44.8753 120.871 45.522 120.852 43.3905V30.4677C120.833 28.317 118.91 28.7733 118.568 28.0692C118.492 27.917 118.721 27.4413 118.93 27.4413C121.632 27.5555 124.411 27.5554 127.114 27.289ZM83.8509 26.203C84.4219 25.9937 84.5173 26.9263 85.3548 27.1356C88.7236 27.9921 93.4624 28.9055 96.5267 27.0214L97.136 26.6405C97.2695 26.5459 97.7255 26.9073 97.6878 27.0976L96.927 30.2001C96.889 30.3333 96.7175 30.5428 96.6224 30.581C95.9562 30.8093 95.8224 29.705 93.6526 29.7811L92.0159 29.8388V43.2382L91.9974 43.2948C91.9974 45.4453 93.881 44.7415 94.262 45.5214C94.3572 45.7307 94.0905 46.0927 93.7669 46.0927H86.4964C86.2871 46.0923 86.0776 45.5975 86.1917 45.4833C86.7436 44.9314 88.3429 44.9888 88.3431 43.7899V30.2958C88.3431 28.9445 84.5358 28.7921 83.2796 31.1522C83.1459 31.3992 82.6519 31.4559 82.4808 31.3798C82.3095 31.3036 82.1761 30.904 82.2522 30.6757L83.4895 26.622C83.5276 26.4888 83.7177 26.2412 83.8509 26.203ZM103.323 39.3554L108.137 39.2977L105.644 33.1503L103.323 39.3554ZM130.14 30.5429C128.998 28.7731 126.333 28.5642 124.525 29.1161V37.3378C125.8 37.433 126.999 37.3757 128.16 37.0331C130.958 36.1956 131.473 32.6751 130.121 30.5624L130.14 30.5429Z" fill="currentColor"/>
</svg>
