<svg width="121" height="85" viewBox="0 0 121 85" fill="none" xmlns="http://www.w3.org/2000/svg">
<path d="M26.3096 79.7773C26.3096 82.1629 27.6779 83.4814 30.0635 83.4814C32.4492 83.4814 33.584 82.1797 33.584 79.7773V71.1357H35.3857V79.7773C35.3857 83.1974 33.4335 85 30.0635 85C26.6936 84.9999 24.5078 83.3808 24.5078 79.7773V71.1357H26.3096V79.7773ZM88.0859 70.8018C91.0555 70.8018 93.5754 72.5541 93.9258 75.6738H91.0391C90.8555 74.3225 89.5541 73.3047 88.0859 73.3047C85.4169 73.3049 84.3994 75.5734 84.3994 77.959C84.3994 80.3446 85.4002 82.4969 88.0859 82.4971C89.9043 82.4971 90.9393 81.2458 91.1562 79.4609H94.042C93.7415 82.8307 91.4057 84.999 88.0859 84.999C83.8987 84.9989 81.4297 81.8627 81.4297 77.959C81.4297 74.0552 83.8987 70.8019 88.0859 70.8018ZM6.37305 71.1357C8.90883 71.1358 10.4941 72.5207 10.4941 74.6895C10.4941 76.3243 9.77635 77.6588 8.1416 78.126V78.1592C9.70957 78.4595 10.0433 79.6275 10.1768 80.9453C10.2935 82.28 10.2101 83.7484 10.9775 84.6826H8.97559C8.45841 84.1321 8.74154 82.6804 8.47461 81.3457C8.29109 80.0112 7.95756 78.8936 6.22266 78.8936H1.80176V84.6826H0V71.1357H6.37305ZM22.3389 72.6543H14.7979V76.958H21.8379V78.4766H14.7979V83.1641H22.4053V84.6826H12.9961V71.1357H22.3389V72.6543ZM47.2959 82.1133H47.3291V71.1357H49.0312V84.6826H47.0625L39.9893 73.8223H39.9561V84.6826H38.2539V71.1357H40.1729L47.2959 82.1133ZM54.3037 84.6826H51.9346V71.1357H54.3037V84.6826ZM79.8457 73.6387H72.6885V76.541H79.2451V78.8604H72.6885V82.1797H79.9961V84.6826H69.7188V71.1357H79.8457V73.6387ZM107.489 84.6826H104.52V71.1367H107.489V84.6826ZM120.235 73.6387H113.078V76.541H119.635V78.8604H113.078V82.1797H120.386V84.6826H110.108V71.1357H120.235V73.6387ZM63.1787 71.1367C67.0492 71.1367 67.7832 73.6392 67.7832 75.3242C67.7831 77.0092 67.0488 79.4942 63.1787 79.4775H59.5752V84.666H57.207V71.1367H63.1787ZM99.0312 75.7256L103.985 77.626L99.0312 79.4814V84.666H96.0615V71.1191H99.0312V75.7256ZM59.5752 77.543H63.0459C64.1136 77.5429 65.415 77.0082 65.415 75.3066C65.4149 73.6053 64.3302 73.0713 63.0791 73.0713H59.5752V77.543ZM1.80176 77.375H5.55566C7.24058 77.375 8.69238 76.9412 8.69238 74.9727C8.69225 73.6382 7.97391 72.6543 6.28906 72.6543H1.80176V77.375ZM22.3545 69.5684H13.0293V68.2168H22.3545V69.5684ZM59.0234 0C76.2071 0 90.1875 13.9804 90.1875 31.1641C90.1875 48.3477 76.2071 62.3281 59.0234 62.3281C47.7291 62.328 37.3023 56.2054 31.7969 46.3291L33.6992 45.2617C38.821 54.4371 48.53 60.1425 59.0234 60.1426C75.0059 60.1426 88.0195 47.1299 88.0195 31.1475C88.0195 15.165 75.0059 2.16895 59.0234 2.16895C49.0137 2.16905 39.8552 7.22427 34.5 15.6992L32.6641 14.5312C38.403 5.43903 48.2629 0.000107976 59.0234 0ZM38.0039 15.9658C38.3042 15.9658 39.8557 16.1996 41.8076 20.7207C41.8243 20.754 41.8581 20.7539 41.9414 20.7539C42.7094 20.7537 46.7462 19.9531 51.0166 19.9531H52.0508C55.5375 20.0532 59.0079 20.4036 62.3945 21.1543C69.0845 22.6391 75.5248 25.4587 81.0469 29.5127C81.0803 29.5365 83.4205 31.2044 84.1162 32.1816C84.1162 32.1816 83.3153 33.8501 81.9307 34.5508H82.0137C82.2973 34.5508 83.2821 34.6013 84.3164 35.252C85.0329 35.6853 84.817 36.1015 84.7168 36.2354C84.4666 36.5857 73.3724 45.5115 57.6738 45.5117C56.9566 45.5117 56.2222 45.4953 55.4883 45.4619C55.4801 45.4743 53.0149 49.2338 50.833 50.3164L50.333 46.7461C50.333 46.7461 47.5634 49.0654 44.3936 49.0654C43.9766 49.0654 43.543 49.0317 43.1094 48.9316C43.144 48.9065 46.3864 46.5518 47.8633 44.5771C47.8105 44.5662 42.9748 43.5586 36.7695 40.3232C32.7661 44.5602 30.2637 45.2108 29.1123 45.2109C28.6214 45.2109 28.3707 45.083 28.3613 45.0781C28.3613 45.0781 32.6991 40.5567 32.916 39.5391C33.1289 38.5402 32.7305 38.2967 32.7158 38.2881C30.4803 36.87 26.9593 33.7836 26.292 33.0996C26.1085 32.9162 25.942 32.8496 25.8086 32.8496C25.4937 32.8496 25.2936 33.1947 25.291 33.1992C25.291 33.1992 23.7064 39.5393 20.2363 44.0938H20.2197C20.2197 44.0938 22.5889 38.1541 22.7891 32.7988C22.9885 27.4769 20.8172 20.9614 20.8037 20.9209C20.8269 20.9322 23.8793 22.4381 25.3584 30.9307C25.3993 30.9006 34.3926 24.2875 38.4375 22.7061L38.9385 22.3057C38.9385 22.3057 38.8383 18.2514 37.9541 15.9658H38.0039ZM80.2959 32.1982C80.162 31.9148 78.6436 31.965 76.5752 32.7656C74.5065 33.5664 72.0209 35.6519 70.7363 36.5361C70.7539 36.5279 75.6144 34.251 79.3779 34.6006L79.2109 34.2002C80.5122 32.7154 80.2959 32.1982 80.2959 32.1982ZM66.7656 29.3291C66.1651 29.3291 65.6816 30.0134 65.6816 30.8643C65.6818 31.7149 66.1651 32.3984 66.7656 32.3984C67.3661 32.3984 67.8495 31.7149 67.8496 30.8643C67.8496 30.0134 67.3662 29.3291 66.7656 29.3291ZM18.083 12.7959C18.1998 12.7959 18.8175 12.8965 19.6016 14.6982H19.6514C19.9516 14.6982 21.5533 14.3809 23.2549 14.3809H23.6719C25.0565 14.4309 26.4417 14.564 27.793 14.8643C30.4622 15.4482 33.0146 16.5664 35.2168 18.1846C35.2168 18.1846 36.1507 18.8515 36.4346 19.252C36.4346 19.252 36.1343 19.853 35.6338 20.1533L35.584 20.0361C36.101 19.4356 36.0176 19.2354 36.0176 19.2354C35.9666 19.1356 35.3664 19.1522 34.5332 19.4688C33.7157 19.7857 32.731 20.6204 32.2139 20.9707C32.2139 20.9707 34.149 20.0698 35.6504 20.2031C35.8172 20.2198 36.1515 20.2704 36.5186 20.4873C36.8017 20.6707 36.7013 20.8377 36.668 20.8877C36.5571 21.0296 32.1396 24.5741 25.9082 24.5742C25.6913 24.5742 25.4572 24.5576 25.2236 24.5576C24.8066 23.5567 24.3393 22.6727 23.8389 21.9053C22.7384 20.2378 21.7714 19.6866 21.5039 19.5527C21.287 19.4526 21.0529 19.4023 20.8193 19.4023C20.4357 19.4024 20.0687 19.5359 19.7852 19.7861C19.3181 20.1865 19.1348 20.8369 19.335 21.4375C19.3518 21.4548 19.6186 22.2726 19.9521 23.54C19.2848 23.2731 18.4672 22.9388 17.583 22.4717C15.9819 24.1562 14.9809 24.4071 14.5303 24.4072C14.3301 24.4072 14.2295 24.3574 14.2295 24.3574C14.2295 24.3574 15.964 22.556 16.0479 22.1553C16.1313 21.7549 15.9648 21.6543 15.9648 21.6543C15.0806 21.0871 13.679 19.8529 13.4121 19.5859C13.3454 19.5192 13.2786 19.4854 13.2285 19.4854C13.1133 19.4854 13.0305 19.6157 13.0283 19.6191C13.0283 19.6191 12.3974 22.1223 11.0215 23.9395C11.1349 23.6452 11.9498 21.4715 12.0273 19.4854C12.1102 17.3594 11.2507 14.7707 11.2432 14.748C11.2432 14.748 12.4776 15.3487 13.0615 18.7354C13.0615 18.7354 16.6483 16.0989 18.2666 15.4648L18.4668 15.3154C18.4668 15.3154 18.4168 13.6968 18.0664 12.7959H18.083ZM11.0098 23.9736V23.957C11.014 23.9515 11.0173 23.945 11.0215 23.9395C11.013 23.9616 11.0098 23.9736 11.0098 23.9736ZM30.6455 18.0674C30.4122 18.0676 30.2121 18.3513 30.2119 18.6846C30.2119 19.0348 30.4121 19.3025 30.6455 19.3027C30.8791 19.3027 31.0791 19.0349 31.0791 18.6846C31.0789 18.3345 30.879 18.0674 30.6455 18.0674Z" fill="currentColor"/>
</svg>
