<svg width="132" height="87" viewBox="0 0 132 87" fill="none" xmlns="http://www.w3.org/2000/svg">
<path d="M65.4023 82.4844C66.6052 82.6256 67.4746 83.5105 67.5049 84.6523C67.5352 85.807 66.7394 86.7908 65.4932 86.9619C64.5541 87.0902 63.6364 86.9357 62.9873 86.2686C62.1826 85.4431 62.1911 84.0537 62.9785 83.2197C63.6103 82.5483 64.5152 82.3817 65.4023 82.4844ZM48.2656 85.2939C48.2657 85.6786 48.6198 85.978 48.9961 86.0039C49.5282 86.0381 50.1432 85.6746 50.1436 85.1104L50.1562 82.5908H51.4629V86.8809L50.2295 86.9023L50.0869 86.4268C49.3685 87.0768 48.2607 87.214 47.4385 86.6152C47.1487 86.4014 46.9582 85.8715 46.958 85.5166L46.9453 82.5908H48.252L48.2656 85.2939ZM86.8232 82.4961C87.4897 82.5132 88.1087 82.71 88.5068 83.1719C88.9266 83.6594 89.1125 84.2756 89.0303 84.9727L85.8193 85.002C85.8237 85.4724 86.1135 85.8453 86.6328 85.9736C87.23 86.1233 87.8318 85.8875 88.416 85.6865C88.6669 85.7166 88.8531 86.2555 88.7666 86.542C87.8795 87.0595 86.6764 87.149 85.6768 86.7256C84.6686 86.2937 84.2485 85.131 84.5166 84.0918C84.7673 83.1308 85.7474 82.4681 86.8232 82.4961ZM29.2295 82.4453C29.9256 82.4414 30.5616 82.6592 30.9854 83.125C31.4353 83.6253 31.5647 84.2842 31.4912 84.9727L28.2285 84.9941C28.2199 85.4646 28.5574 85.8451 29.0508 85.9648C29.7215 86.1273 30.3233 85.9396 30.9248 85.5889C31.1583 85.7814 31.2921 86.1664 31.2705 86.5127C30.2752 87.043 29.0636 87.1837 28.0293 86.6748C27.0643 86.2 26.6663 85.1094 26.9346 84.1172C27.2071 83.1132 28.1015 82.4549 29.2295 82.4453ZM41.2979 82.9277C42.2022 82.4275 43.2105 82.2992 44.1797 82.6113C44.8027 82.8166 45.1709 83.317 45.1797 83.9883L45.2051 85.9346C45.2051 86.003 45.5646 86.0376 45.5732 86.1104L45.625 86.5117C45.638 86.6101 45.6119 86.8073 45.5557 86.8672C45.4423 86.9868 44.3053 87.0634 43.8467 86.5078C43.1153 87.1108 42.1202 87.1701 41.3975 86.5586C41.0599 86.272 40.9769 85.7763 41.0938 85.3145C41.3534 84.3051 43.0805 84.2623 43.8984 84.1426C43.9806 83.8304 43.6947 83.4544 43.3701 83.3945C42.7254 83.2748 42.2578 83.3982 41.5654 83.7275L41.2979 82.9277ZM36.8711 82.7441C37.7668 82.2781 38.8051 82.3893 39.7051 82.834L39.4893 83.6719C38.9613 83.3255 37.7966 83.0953 37.5889 83.6299C37.5506 83.7201 37.6933 83.9589 37.8057 84.0059L39.1211 84.5322V84.5361C39.6317 84.7414 39.9132 85.1864 39.8916 85.6611C39.8742 86.1315 39.597 86.5845 39.0518 86.7812C38.0695 87.1362 37.0525 87.0257 36.1611 86.5254L36.46 85.6953C37.027 86.0502 38.3641 86.3536 38.5762 85.7549C38.619 85.6394 38.4246 85.3748 38.2949 85.3232L37.0479 84.8145C36.6239 84.6433 36.2955 84.2919 36.2695 83.9199C36.2351 83.4581 36.4341 82.9707 36.8711 82.7441ZM105.323 82.4873H105.337C106.007 82.5258 106.609 82.7313 107.007 83.21C107.405 83.689 107.556 84.3397 107.418 84.9727L104.189 84.9805C104.168 85.4894 104.506 85.8833 105.038 85.9902C105.705 86.1271 106.245 85.9046 106.864 85.6309C107.007 85.9131 107.102 86.1916 107.167 86.5166C106.12 87.0639 104.869 87.1961 103.822 86.5889C102.909 86.0585 102.615 84.9292 102.939 83.9883C103.273 83.0221 104.246 82.4276 105.323 82.4873ZM100.148 82.5352L101.507 82.582V83.4629L100.131 83.4844C100.131 84.1815 100.049 84.9258 100.196 85.6016V85.5967C100.313 86.1356 101.07 86.0506 101.624 85.7939C101.745 86.0591 101.771 86.4957 101.702 86.8164C101.166 86.9704 100.59 87.0213 100.058 86.9443C99.3999 86.846 98.8803 86.3585 98.8672 85.6914L98.8242 83.5225L98.0537 83.4541L98.1357 82.7354C99.3084 82.436 99.2134 81.7692 100.074 81.209L100.148 82.5352ZM70.3359 83.0615C70.8509 82.5611 71.5045 82.3553 72.2402 82.4922H72.2354C72.9104 82.6162 73.5293 83.147 73.5293 83.874V86.8809H72.1963L72.1191 84.0156C72.1062 83.5537 71.4347 83.4035 71.0928 83.4805C70.7509 83.5576 70.293 83.8486 70.293 84.2676L70.2842 86.9062L68.9814 86.876L68.9727 82.5781H70.2363L70.3359 83.0615ZM22.6504 85.7725L25.835 85.7861L25.8174 86.8936H21.2568L21.2393 80.7559L22.6416 80.7305L22.6504 85.7725ZM91.9219 83.2744C92.4239 82.5346 93.3198 82.1801 94.1377 82.6719L93.7822 83.7197C93.0465 83.3734 92.0127 83.6942 91.9219 84.4854C91.8311 85.2849 91.8824 85.999 91.8564 86.8926L90.585 86.8838L90.5586 82.5986L91.8486 82.5693L91.917 83.2705L91.9219 83.2744ZM96.6426 86.8672L95.3057 86.8926L95.2793 82.6035L96.6299 82.5732L96.6426 86.8672ZM54.5566 83.0781C55.3442 82.1758 56.7295 82.2436 57.4912 83.2314C57.9716 82.6585 58.5862 82.4238 59.3262 82.458V82.4619C60.2305 82.5047 60.9666 83.1461 60.958 84.0869L60.9355 86.8887H59.6416L59.5898 84.1172C59.5812 83.5911 58.928 83.39 58.5645 83.4541C58.0278 83.5439 57.7158 83.9291 57.7158 84.4766V86.8711L56.4219 86.8887L56.3662 84.0615C56.3576 83.6253 55.7773 83.4157 55.457 83.4414C55.154 83.4629 54.5399 83.7282 54.5312 84.1387L54.4834 86.8799H53.1982V82.5771H54.4492L54.5566 83.0781ZM83.5215 82.5947L81.5049 86.8848L80.2891 86.876L78.2637 82.5996L79.6963 82.582L80.9248 85.3623L82.1367 82.582L83.5215 82.5947ZM42.7559 85.0967C42.4832 85.148 42.2708 85.5327 42.3486 85.7637C42.4352 86.0203 42.7562 86.17 43.1543 86.1357C43.3795 86.1142 43.8633 85.8916 43.8633 85.6992V84.8828L42.7559 85.0967ZM64.8525 83.4287C64.1732 83.4886 63.7489 83.9849 63.7314 84.6904C63.7098 85.503 64.2638 86.076 65.0557 86.0205C65.761 85.9692 66.241 85.3539 66.1416 84.5371C66.0507 83.7973 65.4843 83.3732 64.8525 83.4287ZM105.172 83.3174C104.687 83.3261 104.255 83.6253 104.255 84.2109L106.198 84.1943C106.107 83.4887 105.644 83.3088 105.172 83.3174ZM29.2021 83.3008C28.7045 83.3222 28.3018 83.6386 28.2715 84.2031L30.2578 84.1865C30.1842 83.4681 29.6738 83.2794 29.2021 83.3008ZM86.7754 83.3213C86.3169 83.3385 85.8978 83.6209 85.876 84.2021L87.8018 84.1895C87.7151 83.4925 87.26 83.3042 86.7754 83.3213ZM106.483 80.7129L105.319 81.9102L104.186 81.9443L105.142 80.7002L106.483 80.7129ZM86.9834 81.8936L85.8457 81.9238L86.7549 80.7051L88.1738 80.6875L86.9834 81.8936ZM96.6475 80.7168C96.6734 81.1744 96.6684 81.389 96.6338 81.8809L95.3057 81.8545V80.6914L96.6475 80.7168ZM114.646 53.9434C117.882 52.7373 121.328 52.2973 124.733 52.7207C127.797 53.1655 130.584 54.8249 130.935 58.0967L130.943 58.1006C131.082 59.4178 131.013 60.7396 130.723 62.0654L128.681 71.4746C128.464 72.454 128.273 73.3478 128.117 74.3486H123.154L123.63 71.0596C121.899 73.5914 119.251 74.926 116.183 74.7979C114.404 74.7209 112.664 74.3017 111.297 73.0361C109.596 71.458 109.146 69.1053 109.808 66.9541C110.301 65.3461 111.387 64.0676 112.846 63.1865C115.892 61.3432 121.501 61.0476 125.08 61.2529C125.465 59.8203 125.564 58.2254 124.089 57.3828C123.107 56.8226 121.994 56.6422 120.839 56.6807C118.368 56.7491 116.104 57.3655 113.72 58.3877L114.646 53.9434ZM31.7168 54.8506C34.8023 52.7764 38.6407 52.1131 42.2715 52.8701C45.2142 53.4817 47.5986 55.4451 48.5723 58.2422C49.2257 60.1154 49.1827 61.9887 48.8711 63.9346V63.9385C47.6248 71.7181 40.1683 76.4182 32.4912 74.2627C27.9301 72.9797 25.8306 68.4553 26.2979 63.9434C26.6787 60.2738 28.6139 56.9377 31.7168 54.8506ZM74.377 53.3662C77.9861 52.0661 81.9894 52.541 85.5986 53.7129L84.4219 57.6094C82.0677 56.8395 78.9728 56.0781 76.835 57.25C76.3244 57.528 75.9434 57.9903 75.8525 58.4863C75.3164 61.3687 82.0026 62.2371 83.2402 66.1631C83.7162 67.6771 83.5952 69.341 82.8379 70.748C80.1635 75.7306 71.2915 75.354 66.5918 73.5449L67.8682 69.1787C70.1618 70.6457 73.7065 71.4239 76.0996 70.3076C76.7055 70.0253 77.1599 69.4432 77.2725 68.96C77.6704 67.2452 75.9916 66.0688 74.5723 65.252C73.6852 64.7388 72.871 64.2474 72.0488 63.6572C69.236 61.6386 68.9417 57.7678 71.3477 55.2744C72.1785 54.4148 73.2129 53.7902 74.377 53.3711V53.3662ZM92.0684 54.9365C94.9158 52.9393 98.3822 52.1648 101.779 52.8105H101.784C103.935 53.2212 105.769 54.3463 106.916 56.1768C108.47 58.9225 107.899 62.378 107.103 65.3076L92.1768 65.3242C91.7267 67.6679 93.0638 69.8494 95.3877 70.4824C96.2272 70.7091 97.0972 70.7603 97.9844 70.7988C100.321 70.7047 102.429 70.1878 104.701 69.2041L103.805 73.3691C100.273 74.6907 95.634 75.3156 92.0205 74.0625C87.7624 72.5826 85.9843 68.7417 86.4863 64.4521C86.9321 60.6587 88.9224 57.1434 92.0684 54.9365ZM10.0615 55.5264C12.4677 53.0415 15.8002 51.9894 19.0762 52.7764C21.3653 53.3281 22.975 54.9448 23.4424 57.2285H23.4385C23.7587 58.7766 23.6202 60.2564 23.3779 61.8516L20.5039 74.3359H14.627L15.6914 69.6016L17.4268 61.7061C17.747 59.9183 17.518 57.455 15.2764 57.0615C13.5843 56.7621 11.9916 57.3865 10.8145 58.5498C9.65034 59.7003 9.00087 61.1334 8.52051 62.7158L5.88574 74.3271H0L2.40137 63.3145L4.65234 52.9814H10.6289L10.0615 55.5264ZM61.3086 54.8848C63.1651 53.003 65.8219 52.182 68.4141 52.7979L67.1504 58.2373C66.5317 58.1133 65.9432 58.028 65.3115 57.998C61.6505 57.9082 59.1659 60.5812 58.3652 63.917L55.9854 74.332H50.1475L51.8916 66.4238L54.748 52.9814V52.9854H60.5723L59.6729 57.0098C60.2136 56.2316 60.6769 55.5219 61.3086 54.8848ZM124.374 64.6914C122.076 64.4947 118.9 64.5545 116.979 65.7646C116.035 66.3591 115.421 67.3302 115.455 68.4463C115.485 69.4342 116.087 70.2604 117.035 70.5684C120.419 71.6585 123.305 69.255 124.08 65.9365L124.084 65.9404L124.374 64.6914ZM42.085 57.9766C41.0853 56.8307 39.5666 56.4925 38.0781 56.7832C34.1314 57.5488 32.1921 61.9671 32.1748 65.5811C32.1705 66.6374 32.3611 67.6512 32.8545 68.5664C33.7546 70.2344 35.6545 70.9996 37.498 70.5762C42.8772 69.3401 44.4002 60.6325 42.085 57.9766ZM100.131 56.8047C98.3999 56.3471 96.4869 56.8562 95.1367 58.0664C94.0894 59.0073 93.3929 60.1969 92.9688 61.5312L102.199 61.5439L102.195 61.54C102.706 59.5727 102.286 57.3735 100.131 56.8047ZM78.2598 6.94531L80.1338 6.38086L82.1982 5.9707L82.3926 5.8291C82.6176 5.78633 82.8861 5.7096 83.1328 5.58984C85.4264 4.45224 87.8025 3.78052 90.3428 3.41699L93.8906 2.9082C94.1849 2.86971 94.5357 2.99389 94.6309 3.2334C94.9727 4.10586 93.6874 4.13193 93.0166 6.06934C92.8132 6.66362 92.5492 7.1855 92.415 7.88672C93.4277 7.0613 94.0815 6.1331 94.7695 5.11523C94.9123 4.90995 95.388 4.72627 95.5654 4.91016C96.4353 5.82541 95.6654 6.92025 95.9121 7.07422L96.1719 7.23633C96.1026 7.70678 95.9725 8.23318 95.7734 8.68652L94.7129 11.0811C94.5831 11.3718 94.3631 11.8298 94.1943 12.1035L93.5791 13.1211C93.3195 13.5445 93.0468 13.9554 92.7568 14.3574L111.557 23.9629L64.6621 47.9307L64.6582 47.9355L17.7646 23.9678L38.4414 13.3994V13.2285C38.4371 13.1815 38.442 13.0826 38.4463 13.0312C38.5718 11.7908 38.8574 9.34874 39.6406 8.18555C40.783 8.56615 41.6959 9.47738 42.3926 10.4609L42.873 11.1367L64.6621 0L78.2598 6.94531ZM75.8584 25.7256L74.9229 26.2812C74.858 26.3197 74.7933 26.3541 74.7285 26.3926C73.8068 26.9314 72.8506 27.3895 71.877 27.8643C71.8337 27.8856 71.7983 27.9109 71.7637 27.9365C71.7593 27.9409 71.751 27.9492 71.751 27.9492C71.5347 28.1374 71.5084 28.4494 71.3613 28.6504C71.3181 28.706 71.2747 28.7667 71.2314 28.8223C71.0801 29.0231 70.9288 29.2287 70.7861 29.4424C70.5612 29.7801 70.3615 30.1261 70.2188 30.498C69.6086 31.208 69.055 31.9657 68.3799 32.6543C68.2934 32.744 68.2021 32.8335 68.1113 32.9189C68.0638 32.9616 68.0124 33.0091 67.9648 33.0518C66.9955 33.9413 65.9349 34.6893 64.7275 35.1982C64.4509 35.3136 64.2648 35.2929 64.1221 35.2119C63.8538 35.0579 63.7492 34.6811 63.5068 34.6084C63.5285 34.758 63.529 35.0573 63.5117 35.207C63.6674 35.4464 63.8574 35.7417 64.0693 35.8359C64.8785 36.1994 67.4187 34.2326 68.0898 33.625C68.1157 33.5994 68.146 33.5734 68.1719 33.5479C68.756 33.0048 69.2971 32.4317 69.7773 31.8203C69.7811 31.8166 69.7822 31.8124 69.7822 31.8115C69.7865 31.803 69.7906 31.7985 69.7949 31.79C70.0891 31.4095 70.3618 31.0161 70.6084 30.6143C70.7079 30.4688 70.9506 30.2286 71.0371 30.0361L71.6514 28.6768C72.8804 28.125 74.0711 27.5219 75.2568 26.8076C75.5813 26.611 75.9228 26.4824 76.3164 26.29L76.2129 25.5117L75.8584 25.7256ZM70.9199 28.5352C70.7687 28.595 70.6346 28.6718 70.5049 28.7529C70.2496 28.9197 70.0334 29.1214 69.8301 29.3438C69.7264 29.4548 69.6223 29.5657 69.5186 29.6768C68.7872 30.4466 68.0166 31.1318 67.1641 31.7861C66.9607 31.9401 66.7783 32.111 66.5879 32.2734C66.2461 32.5684 65.8871 32.8418 65.3896 32.9658C65.4112 32.9402 65.4325 32.9143 65.4541 32.8887C65.4801 32.8587 65.5024 32.8294 65.5283 32.8037C65.5326 32.7995 65.5322 32.7988 65.5322 32.7988C65.8524 32.4525 66.203 32.1833 66.5664 31.8926C66.5794 31.884 66.5925 31.8709 66.6055 31.8623C66.6357 31.8409 66.6621 31.8153 66.6924 31.7939C67.6876 31.0028 68.6306 30.2284 69.3965 29.1807C68.873 29.3261 68.4445 29.5788 68.0508 29.9209C67.51 30.3912 66.9738 30.8534 66.4287 31.3066C65.7233 31.8883 64.9915 32.4528 64.1865 32.9746C64.3899 32.6111 64.6802 32.3031 64.9961 32.0166C65.6494 31.4308 66.4281 30.9305 66.8652 30.2422C66.8696 30.2294 66.8781 30.2199 66.8867 30.207C66.398 30.2712 66.1083 30.4257 65.7969 30.6309L63.8711 31.8965C63.9101 31.6873 63.992 31.5506 64.0957 31.4268C64.2082 31.2985 64.3419 31.1868 64.4717 31.0244C64.476 31.0159 64.4849 31.0115 64.4893 31.0029C64.2556 31.05 63.9611 31.1566 63.7881 31.2764H63.7842C63.7669 31.2892 63.7536 31.3026 63.7363 31.3154C63.7318 31.3198 63.7188 31.3281 63.7188 31.3281V31.3369C63.6584 31.3925 63.6156 31.4907 63.5811 31.6016C63.5292 31.7854 63.5116 32.0035 63.5332 32.1318L63.7881 33.6807C63.7967 33.7148 63.8104 33.7578 63.832 33.8047C63.871 33.8901 63.9274 33.9844 63.9922 34.0527C64.031 34.0953 64.0744 34.1294 64.1133 34.1465C64.2475 34.1976 64.5713 34.1723 64.7314 34.1211C65.2464 33.95 65.7098 33.7141 66.1426 33.4404C66.7527 33.0513 67.3115 32.5813 67.874 32.0938C68.086 31.9142 68.2937 31.7346 68.4971 31.5508C68.7307 31.3413 68.964 31.1272 69.1846 30.9092C69.7515 30.3489 70.2626 29.7451 70.665 29.0352C70.7558 28.8728 70.8421 28.7061 70.9199 28.5352ZM65.2939 32.9492C65.3242 32.9492 65.3457 32.971 65.3457 33.001C65.3455 33.0178 65.3331 33.0344 65.3203 33.043C65.3117 33.0515 65.3026 33.0518 65.2939 33.0518C65.2854 33.0517 65.2811 33.0479 65.2725 33.0479C65.2643 33.0438 65.2523 33.0281 65.251 33.0264C65.2425 33.018 65.2422 33.0094 65.2422 33.001C65.2422 32.9925 65.2464 32.9793 65.2549 32.9707C65.2635 32.9579 65.2767 32.9493 65.2939 32.9492ZM41.4365 25.0967C41.4063 25.1565 41.4108 25.3784 41.4453 25.4727C42.0598 27.2005 43.8428 29.0402 45.5781 30.1992C45.9026 30.4173 46.2276 30.61 46.5391 30.7725C50.6285 32.9064 55.0948 33.3894 59.5391 32.7949H59.5605V32.7988C59.5777 32.7946 59.5991 32.7911 59.6162 32.791C60.8452 32.6242 62.0701 32.3754 63.2861 32.0547C63.3293 31.8539 63.3423 31.6149 63.3164 31.4141L62.2871 31.6104L60.9404 31.8711C59.1057 32.2218 57.3051 32.508 55.4141 32.4268C54.8388 32.4011 54.2722 32.3545 53.71 32.2861C51.9531 32.0723 50.2434 31.653 48.5645 31.0586C47.1234 30.5497 45.8248 29.8267 44.6348 28.9072C44.5223 28.8174 44.4094 28.7279 44.2969 28.6338C43.0981 27.6245 42.2025 26.4139 41.4365 25.0967ZM93.8691 3.55859C90.0091 4.02476 86.6378 4.57594 83.4355 6.58594C82.6307 7.09058 81.9425 7.77093 81.5098 8.60059C81.4665 8.68185 81.4315 8.76347 81.3926 8.84473C81.384 8.86169 81.3797 8.87459 81.3711 8.8916C81.3322 8.97706 81.2978 9.06262 81.2676 9.15234C80.969 9.99916 81.2461 10.8805 81.6572 11.6289C81.7134 11.7357 81.774 11.8382 81.8389 11.9365C81.9644 12.1333 82.0984 12.3131 82.2412 12.4756C82.3148 12.5568 82.3883 12.6382 82.4619 12.7109C82.7259 12.9718 83.016 13.1899 83.3232 13.3652C83.8079 13.6474 84.3443 13.8318 84.9111 13.9473C85.2184 14.0114 85.5393 14.054 85.8682 14.084C85.7383 14.0198 85.6079 13.9557 85.4824 13.8916C85.2921 13.7933 85.1061 13.6948 84.9287 13.5879C84.8075 13.5195 84.6906 13.4461 84.5781 13.3691C84.0633 13.0313 83.6087 12.6298 83.2539 12.0996C83.2106 12.0397 83.1757 11.9753 83.1367 11.9111C83.1238 11.8899 83.1154 11.8728 83.1025 11.8516C83.0766 11.8088 83.05 11.7609 83.0283 11.7139C83.0155 11.6926 83.007 11.6667 82.9941 11.6455C82.9683 11.5985 82.9464 11.5473 82.9248 11.4961C82.9205 11.4791 82.9119 11.4623 82.9033 11.4453C82.8774 11.3812 82.8517 11.3122 82.8301 11.248C82.8215 11.2225 82.8123 11.1929 82.8037 11.1631C82.7907 11.1246 82.7776 11.0815 82.7646 11.043C82.756 11.0089 82.7479 10.9745 82.7393 10.9404C82.7306 10.9019 82.7215 10.8672 82.7129 10.833C82.7043 10.7989 82.6952 10.7601 82.6865 10.7217C82.6864 10.7046 82.6787 10.6833 82.6787 10.6621C82.6614 10.5767 82.6483 10.4871 82.6396 10.3975C82.6353 10.3761 82.6309 10.3544 82.6309 10.333C82.6265 10.286 82.6221 10.2345 82.6221 10.1875V10.1318C82.6134 9.9009 82.6265 9.6655 82.6611 9.43457C82.6654 9.42187 82.665 9.41314 82.665 9.40039C82.7256 9.04555 82.8338 8.6992 83.0068 8.38281C82.9117 8.69915 82.8646 9.0113 82.8516 9.31055C82.7953 10.5806 83.418 11.6971 84.3223 12.5781C84.3266 12.5824 84.3316 12.5866 84.3359 12.5908C84.3879 12.6379 84.4354 12.6854 84.4873 12.7324C84.5 12.7409 84.5088 12.7532 84.5215 12.7617C84.5691 12.8045 84.6213 12.8479 84.6689 12.8906C84.6819 12.8992 84.699 12.912 84.7119 12.9248C84.7595 12.9676 84.8118 13.0064 84.8594 13.0449C84.8723 13.0577 84.89 13.0703 84.9072 13.083C84.9547 13.1214 85.0062 13.1559 85.0537 13.1943C85.0667 13.2029 85.0843 13.2157 85.1016 13.2285C85.1491 13.2627 85.2011 13.3008 85.2529 13.335C85.2659 13.3392 85.2751 13.3479 85.2881 13.3564C85.4525 13.4676 85.6213 13.5745 85.79 13.6729C85.8159 13.6856 85.8462 13.7027 85.8721 13.7197C85.911 13.7411 85.9503 13.7628 85.9893 13.7842C86.0238 13.8013 86.0582 13.8228 86.0928 13.8398L86.3174 13.9512C86.352 13.9683 86.3873 13.9858 86.4219 14.0029C86.4605 14.0241 86.4994 14.0406 86.5381 14.0576C86.5727 14.0747 86.608 14.0926 86.6426 14.1055C86.6814 14.1225 86.7248 14.1392 86.7637 14.1562C86.7939 14.1691 86.8282 14.1825 86.8584 14.1953C86.9016 14.2124 86.9451 14.229 86.9883 14.2461C87.0185 14.2589 87.0489 14.2675 87.0791 14.2803C87.1267 14.2974 87.1751 14.3149 87.2227 14.332C87.2484 14.3405 87.2701 14.3489 87.2959 14.3574C87.3693 14.383 87.4426 14.4045 87.5117 14.4258C86.5079 14.5925 85.5644 14.5669 84.5908 14.5498L83.8857 15.7217C83.8901 15.5421 83.9076 15.3966 83.9336 15.2598C83.9466 15.1914 83.9593 15.123 83.9766 15.0547C83.9852 15.0119 83.9978 14.9644 84.0107 14.9131C84.0193 14.8876 84.0246 14.8624 84.0332 14.8369C84.0548 14.7599 84.0756 14.6781 84.1016 14.584C84.1102 14.5541 84.1193 14.5244 84.1279 14.4902C84.0457 14.4689 83.903 14.4429 83.7559 14.4258C83.7212 14.4215 83.6821 14.4131 83.6475 14.4131C83.6302 14.4088 83.613 14.4092 83.5957 14.4092C83.5135 14.4092 83.4357 14.4049 83.3838 14.4092C83.2497 14.7084 83.1365 14.9819 82.998 15.2256C82.9461 15.3239 82.8862 15.4184 82.8213 15.5039C82.7867 15.5509 82.7514 15.5891 82.7168 15.6318L83.0068 14.2637C82.9506 14.1696 82.7387 14.0747 82.5742 14.0576H82.4795C82.4666 14.0576 82.4534 14.0625 82.4404 14.0625C82.4058 14.0753 82.3753 14.0925 82.3623 14.1182C82.332 14.1865 82.2978 14.2552 82.2676 14.3193C82.207 14.4519 82.1455 14.5801 82.085 14.7041C81.9379 15.0162 81.7823 15.3074 81.5703 15.5811C81.5919 15.3629 81.6357 15.1655 81.6963 14.9688C81.7958 14.6438 81.9341 14.3358 82.0596 13.998C82.0681 13.9854 82.0684 13.9726 82.0684 13.96C82.0727 13.93 82.0638 13.904 82.0508 13.874C82.0421 13.8612 82.0331 13.8439 82.0244 13.8311C81.9291 13.6815 81.6999 13.5236 81.5312 13.5107C81.501 13.5065 81.4663 13.511 81.4404 13.5195L80.5234 15.2725C80.5148 15.2212 80.5146 15.161 80.5146 15.1055C80.5234 14.819 80.653 14.4856 80.7871 14.165C80.8131 14.1009 80.8393 14.0368 80.8652 13.9727C80.8911 13.9129 80.9169 13.8488 80.9385 13.7891C81.1289 13.3058 81.2067 12.9078 80.709 12.8223L79.6924 14.6484C79.6881 14.6228 79.6875 14.5924 79.6875 14.5625C79.6875 14.4428 79.7051 14.3187 79.7354 14.1904C79.757 14.0964 79.7916 13.9938 79.8262 13.8955C79.8521 13.8314 79.8783 13.7628 79.9043 13.6943C79.9562 13.5575 80.0166 13.4206 80.0771 13.2881C80.1204 13.1855 80.1642 13.0875 80.2031 12.9893C80.2291 12.9251 80.2547 12.8601 80.2764 12.7959C80.3455 12.608 80.3886 12.4331 80.3887 12.2793V12.2021C80.38 12.1295 80.3588 12.0608 80.3242 12.001C80.3026 11.9625 80.2723 11.9238 80.2334 11.8896C80.2161 11.8726 80.1944 11.8598 80.1729 11.8428L79.043 13.7676C79.0516 13.6736 79.0652 13.5835 79.0781 13.498C79.1084 13.3227 79.1512 13.1596 79.2031 12.9971C79.2291 12.9159 79.2598 12.8347 79.29 12.7578C79.3506 12.5997 79.4241 12.4459 79.502 12.292C79.5409 12.215 79.5798 12.1375 79.623 12.0605C79.6663 11.9836 79.7097 11.9064 79.7529 11.8252C79.7701 11.7954 79.783 11.7652 79.7959 11.7354C79.8002 11.7228 79.8084 11.7145 79.8086 11.7061C79.8172 11.6889 79.8263 11.6669 79.835 11.6455C79.8393 11.6329 79.8477 11.624 79.8477 11.6113C79.852 11.5901 79.8609 11.5731 79.8652 11.5518C79.8696 11.5389 79.874 11.5304 79.874 11.5176C79.8783 11.4962 79.8867 11.4745 79.8867 11.4531C79.8909 11.4447 79.8916 11.4323 79.8916 11.4238C79.8959 11.3982 79.9043 11.3675 79.9043 11.3418V11.3291C79.9864 10.6192 79.6755 9.72074 80.3115 8.43359C80.3157 8.42545 80.3193 8.42115 80.3193 8.41699C80.3452 8.3658 80.3716 8.31875 80.3975 8.26758C80.3975 8.25922 80.4059 8.25046 80.4062 8.24609C80.4365 8.19478 80.4668 8.14311 80.4971 8.0918C80.6875 7.77532 80.9298 7.44165 81.25 7.07812C80.3932 6.9841 79.7614 7.30947 79.1123 7.53613C79.0907 7.54465 79.0733 7.54908 79.0518 7.55762C78.9999 7.57471 78.9474 7.5913 78.8955 7.6084C78.887 7.6126 78.8786 7.61715 78.8701 7.61719C78.6927 7.66851 78.5149 7.7243 78.3418 7.78418C77.1259 8.19475 76.0266 8.75955 74.8799 9.37109C71.8117 11.0048 69.0935 13.057 66.5576 15.375C66.0773 15.8155 65.6016 16.2651 65.1299 16.7227C64.4072 17.424 63.6629 18.0829 62.8926 18.7158C61.7501 19.6524 60.5557 20.5294 59.3311 21.3848C57.3491 22.7704 55.224 23.8561 52.9521 24.5703C51.9179 24.8954 50.8572 25.1441 49.7666 25.3066C49.2648 25.3836 48.7626 25.3916 48.2607 25.3574C48.1916 25.3531 48.118 25.3451 48.0488 25.3408H48.04C47.9709 25.3323 47.9061 25.3279 47.8369 25.3193H47.8066C47.7461 25.3108 47.6855 25.3064 47.625 25.2979C47.6035 25.2979 47.5776 25.2892 47.5518 25.2891C47.5085 25.2848 47.4603 25.2767 47.417 25.2725C47.3608 25.2639 47.3087 25.2546 47.2568 25.2461C47.2439 25.2418 47.2262 25.2373 47.209 25.2373C46.9235 25.1946 46.6376 25.1435 46.3564 25.0879H46.3789C46.3703 25.0836 46.3651 25.0791 46.3564 25.0791C46.3478 25.0749 46.335 25.0706 46.3223 25.0664C46.3093 25.0621 46.2917 25.0541 46.2744 25.0498C46.2529 25.0413 46.2354 25.0368 46.2139 25.0283C46.1923 25.0198 46.1665 25.0114 46.1406 25.0029C46.1276 24.9987 46.1145 24.9935 46.1016 24.9893C46.0886 24.985 46.0754 24.9808 46.0625 24.9766C46.0409 24.9723 46.0147 24.9636 45.9932 24.9551C45.9887 24.9509 45.9801 24.9473 45.9717 24.9473C45.9501 24.943 45.924 24.9343 45.9023 24.9258C45.8937 24.9257 45.8807 24.917 45.8721 24.917C45.8506 24.9127 45.8291 24.904 45.8076 24.8955C45.7947 24.8912 45.7815 24.8871 45.7686 24.8828C45.747 24.8743 45.7296 24.8698 45.708 24.8613C45.695 24.8571 45.6774 24.849 45.6602 24.8447C45.6429 24.8405 45.6257 24.8314 45.6084 24.8271C45.5911 24.8186 45.5691 24.8142 45.5518 24.8057C45.5348 24.8014 45.5218 24.7934 45.5049 24.7891C45.4833 24.7848 45.4611 24.7761 45.4395 24.7676C45.4265 24.759 45.4134 24.7543 45.4004 24.75C45.3788 24.7415 45.3526 24.7331 45.3311 24.7246C45.3181 24.7204 45.3049 24.7162 45.292 24.7119C45.2662 24.7034 45.2446 24.695 45.2188 24.6865C45.2101 24.6822 45.1971 24.6729 45.1885 24.6729C45.1626 24.6643 45.1363 24.6521 45.1104 24.6436C45.1019 24.6434 45.0934 24.635 45.085 24.6348C45.059 24.6262 45.0328 24.613 45.0068 24.6045C44.9983 24.6003 44.9938 24.5968 44.9854 24.5967C44.9595 24.5839 44.9331 24.5753 44.9072 24.5625C44.9029 24.5582 44.894 24.5537 44.8896 24.5537C44.8637 24.5409 44.8375 24.5323 44.8115 24.5195C44.8072 24.5153 44.8031 24.5107 44.7988 24.5107C44.773 24.498 44.7514 24.4893 44.7256 24.4766C44.7219 24.4729 44.7147 24.4727 44.7129 24.4727C44.6914 24.4599 44.6651 24.4512 44.6436 24.4385C44.6436 24.4346 44.6361 24.4336 44.6348 24.4336C44.6088 24.4208 44.591 24.4122 44.5693 24.3994C44.5651 24.3953 44.5605 24.3955 44.5605 24.3955C44.5391 24.3828 44.5221 24.374 44.5049 24.3613C44.5007 24.3572 44.4964 24.3564 44.4961 24.3564C44.4833 24.348 44.466 24.3357 44.4531 24.3271C44.4493 24.3233 44.4451 24.3191 44.4443 24.3184C44.4314 24.3055 44.4178 24.2966 44.4092 24.2881C44.405 24.2839 44.4004 24.2793 44.4004 24.2793C44.3919 24.2709 44.3832 24.2623 44.3789 24.2539C44.3748 24.2496 44.375 24.2412 44.375 24.2412C44.3707 24.2327 44.3662 24.224 44.3662 24.2197V24.1904C44.3705 24.1733 44.3881 24.1558 44.4141 24.1387L45.3828 24.5195L45.2188 23.5957C45.2101 23.5487 45.2016 23.4966 45.1973 23.4453C45.1455 22.9494 45.2403 22.3251 45.6641 21.9873C45.8372 21.8504 46.037 21.7435 46.249 21.6494C46.5735 21.5084 46.9281 21.4098 47.2568 21.3115C47.4602 21.2516 47.6642 21.1917 47.8633 21.1318C48.9147 20.8068 49.9275 20.4474 50.8838 19.9043C49.2264 19.4723 47.8501 18.7926 46.6514 17.6807C45.8638 16.9493 45.0497 16.1921 44.5088 15.2598C44.4916 15.2342 44.4791 15.2085 44.4619 15.1787L42.6914 12.0098C42.6828 11.9927 42.6698 11.9751 42.6611 11.958V11.9541C42.6525 11.9414 42.6395 11.9242 42.6309 11.9072C42.6309 11.9029 42.6221 11.8939 42.6221 11.8896C42.6134 11.8726 42.6008 11.851 42.5879 11.834C42.5836 11.8297 42.5791 11.8256 42.5791 11.8213C42.5661 11.7999 42.5534 11.7782 42.5361 11.7568C42.4669 11.6585 42.3887 11.5514 42.2979 11.4316C41.6315 10.555 40.3982 9.25968 39.6582 9.31055L39.6143 9.30664C39.3027 10.6367 39.0994 11.8856 39.0518 13.083C39.0474 13.2198 39.043 13.3524 39.043 13.4893V13.9766C39.043 14.0878 39.0523 14.1993 39.0566 14.3105V14.3789C39.0653 14.5115 39.0778 14.6487 39.0908 14.7812V14.7979C39.1038 14.9219 39.1165 15.042 39.1338 15.166C39.1381 15.1959 39.1475 15.226 39.1475 15.2559C39.1648 15.3627 39.1819 15.4654 39.1992 15.5723C39.2035 15.5979 39.2076 15.6238 39.2119 15.6494C39.2335 15.7776 39.2598 15.9099 39.29 16.0381C39.2944 16.0424 39.2939 16.0514 39.2939 16.0557C39.3199 16.1753 39.3506 16.2954 39.3809 16.415C39.3895 16.4448 39.3986 16.4787 39.4072 16.5127C39.4375 16.6109 39.4629 16.7094 39.4932 16.8076C39.5061 16.8376 39.5148 16.8724 39.5234 16.9023C39.5624 17.0306 39.6061 17.1549 39.6494 17.2832C39.6536 17.2875 39.6581 17.2955 39.6582 17.3037C39.7015 17.4192 39.7444 17.5398 39.792 17.6553C39.8049 17.6893 39.822 17.7277 39.835 17.7617C39.8739 17.8557 39.9128 17.9499 39.9561 18.0439C39.9733 18.0781 39.9867 18.1124 40.0039 18.1465C40.0602 18.2705 40.1211 18.3994 40.1816 18.5234C40.1852 18.5236 40.1855 18.5296 40.1855 18.5312C40.2461 18.651 40.3111 18.7758 40.376 18.8955C40.3933 18.9297 40.4153 18.9639 40.4326 18.998C40.4845 19.0963 40.5405 19.1908 40.5967 19.2891C40.6139 19.3231 40.6361 19.3527 40.6533 19.3867C40.7312 19.515 40.8094 19.6393 40.8916 19.7676C40.7315 20.2765 40.6925 20.7689 40.7314 21.2607C40.7488 21.5129 40.787 21.7651 40.8389 22.0215C40.9644 22.6502 41.1463 23.2364 41.3887 23.7881C41.7089 24.5193 42.1373 25.1992 42.6738 25.8535C45.6555 29.476 50.3256 30.9899 54.9561 31.1738C58.8335 31.3278 62.5986 30.6612 66.2207 29.2969C66.2769 29.2755 66.3285 29.2577 66.3848 29.2363C67.2243 28.9113 68.0552 28.5863 68.873 28.2441C70.3314 27.6368 71.7515 26.9741 73.1406 26.1914L76.0439 24.5537C76.0396 24.4553 76.0315 24.352 76.0186 24.2451C75.9883 23.9801 75.9449 23.7023 75.9189 23.4287C75.8757 22.9668 75.8752 22.509 76.0742 22.1455C76.1391 22.0215 76.2299 21.906 76.3467 21.8076L77.5674 20.7725L78.4414 20.0283C78.3982 20.1736 78.3466 20.3106 78.2861 20.4346C77.9963 21.0289 77.5158 21.427 77.1221 21.8203C76.7066 22.2266 76.39 22.629 76.4766 23.2363L76.7715 25.2676C76.8191 25.6183 76.8617 25.948 76.918 26.2773C76.9785 26.6323 77.0525 26.9959 77.165 27.3936C77.6714 27.1327 78.1345 26.8454 78.5586 26.5332C80.2764 25.2758 81.3715 23.6168 82.0596 21.4785L80.7354 23.0654C80.3113 23.5743 79.926 24.0961 79.502 24.5879C79.238 24.9001 78.9521 25.2035 78.6318 25.4814C78.8914 25.0582 79.1686 24.6735 79.4541 24.293C79.7657 23.8738 80.0899 23.4667 80.4102 23.0391C80.7694 22.56 82.3885 20.4135 82.2891 19.665C82.2847 19.618 82.2667 19.5756 82.2451 19.5371L81.8174 20.0801L80.4023 21.8848C79.9133 22.5049 79.4587 23.1465 78.8701 23.6982C78.6841 23.8693 78.4849 24.0359 78.2686 24.1855L79.5498 22.501L80.3633 21.4316L82.0244 19.0576L82.1328 18.9082C82.1934 18.8141 82.505 18.7284 82.583 18.8096C82.5873 18.8138 82.5957 18.8271 82.5957 18.8271L82.877 20.9521C84.0366 20.2123 85.0582 19.3401 86.0664 18.4121C86.3823 18.117 86.7032 17.817 87.0234 17.5176C88.0143 16.5853 88.8755 15.5886 89.6934 14.5537L88.6289 14.5156L88.4424 14.5068C88.7798 14.3914 89.1131 14.2847 89.4375 14.165C89.4894 14.1479 89.5379 14.1265 89.5898 14.1094C89.5942 14.1053 89.6021 14.1007 89.6064 14.1006C90.0781 13.921 90.5288 13.7114 90.9355 13.4248C91.1345 13.2837 91.3246 13.1213 91.502 12.9375C92.692 11.6929 93.5667 10.2218 94.3457 8.69922C94.666 8.07047 95.661 6.3252 95.2412 5.70508C94.3195 6.91539 93.441 8.01904 92.2812 8.99414C91.9091 9.31063 91.6627 9.69169 91.4463 10.1279C91.0351 10.9533 90.1306 11.714 89.4814 11.2051C89.3646 11.111 89.3254 10.7048 89.4033 10.5723L90.5195 8.69043L91.5459 6.7959C91.6411 7.8436 89.9401 10.14 90.1387 10.6279C90.2598 10.923 91.0565 9.92203 91.2686 9.41309C91.7013 8.38245 92.0387 7.36856 92.3633 6.30371C92.6748 5.27323 93.1034 4.43089 93.8691 3.55859ZM95.5576 7.06543C94.6705 8.78045 94.0031 10.4567 93.0684 12.0049C92.6789 12.6549 92.2247 13.2537 91.7314 13.8311C91.7228 13.8438 91.7098 13.8525 91.7012 13.8652C91.5843 14.0064 91.463 14.1395 91.3418 14.2764C91.3246 14.2975 91.3033 14.3187 91.2861 14.3398C91.1607 14.4767 91.0351 14.6142 90.9053 14.751C90.888 14.768 90.8746 14.7847 90.8574 14.8018C90.7233 14.9429 90.5892 15.0848 90.4551 15.2217C90.4421 15.2387 90.425 15.2516 90.4121 15.2686C90.2909 15.3926 90.169 15.5166 90.0479 15.6406C90.022 15.6661 90.0004 15.6874 89.9746 15.7129C88.2695 17.4407 86.5342 19.0921 84.6084 20.542C84.1237 20.9055 83.6259 21.2559 83.1152 21.5938C82.7171 21.8546 82.6691 22.0771 82.5869 22.4492L81.0117 25.2803C80.2111 26.7215 78.4547 27.5861 76.8232 27.9668L76.6064 27.209L76.3691 26.375L76.3301 26.7432L76.2949 27.0557L76.8447 28.3604C76.8579 28.3946 76.8968 28.4499 76.9141 28.4883C78.5584 28.1803 80.0125 27.1199 81.0078 25.8027C81.0641 25.7257 81.1199 25.6522 81.1719 25.5752C82.2537 24.0314 81.9514 24.3908 82.6914 22.5518C84.5955 21.5253 86.279 20.08 87.8672 18.5361L90.5283 15.9482C91.0476 15.4479 91.5021 14.913 91.9219 14.3613C91.9348 14.3443 91.948 14.3276 91.9609 14.3105C91.9869 14.2721 92.0131 14.2373 92.0391 14.2031C92.0779 14.152 92.1126 14.101 92.1514 14.0498C92.623 13.3955 93.0469 12.7152 93.458 12.0225C94.0552 11.0217 94.7051 10.0331 95.1465 8.87402L95.1416 8.86621C95.3623 8.28888 95.7263 7.70689 95.5576 7.06543ZM76.5508 13.874L76.0488 14.6562L75.8496 14.25C75.6506 14.4125 75.5076 14.5537 75.3994 14.6777C75.3215 14.7675 75.2648 14.8533 75.2129 14.9346C75.1048 15.114 75.0404 15.2852 74.9453 15.4902C74.9107 15.5672 74.8708 15.6488 74.8232 15.7344C74.8103 15.7599 74.7981 15.7815 74.7852 15.8027C74.7593 15.8454 74.7285 15.8922 74.6982 15.9434C74.668 15.9903 74.6336 16.0422 74.5947 16.0977L74.5254 15.4268C74.1619 15.4097 73.9708 15.8286 73.7891 16.2734C73.7675 16.3247 73.7462 16.3804 73.7246 16.4316C73.6727 16.5599 73.6158 16.6922 73.5596 16.8076C73.4687 16.9958 73.3652 17.1541 73.2354 17.2354L73.3867 16.1748C73.1965 16.3073 73.0449 16.4439 72.9238 16.585C72.7984 16.7261 72.7033 16.8718 72.6211 17.0215C72.5389 17.171 72.4696 17.3292 72.4004 17.4873C72.3874 17.513 72.3782 17.5437 72.3652 17.5693C72.3437 17.6205 72.3218 17.676 72.2959 17.7314C72.283 17.757 72.2707 17.787 72.2578 17.8125C72.2362 17.8681 72.2056 17.9239 72.1797 17.9795C72.1235 18.0906 72.0627 18.2059 71.9893 18.3213C71.9157 18.4367 71.8335 18.557 71.7383 18.6768L71.9414 17.4873C71.7599 17.5642 71.6043 17.6672 71.4746 17.791C71.3837 17.8766 71.3056 17.9671 71.2363 18.0654C71.1671 18.1637 71.1016 18.2701 71.041 18.377C70.9545 18.5395 70.8728 18.7114 70.7949 18.8867C70.7171 19.0619 70.6392 19.2412 70.5527 19.4121C70.4662 19.5832 70.3752 19.7503 70.2627 19.9043L70.3574 19.3057L70.4531 18.707C70.3493 18.7626 70.2584 18.8265 70.1719 18.8906C70.1156 18.9334 70.0593 18.9764 70.0117 19.0234C69.9642 19.0704 69.9163 19.1171 69.873 19.1641C69.8514 19.1854 69.8341 19.2116 69.8125 19.2373C69.7737 19.2885 69.7347 19.3395 69.7002 19.3906C69.6829 19.4163 69.6648 19.4421 69.6475 19.4678C69.297 20.0152 69.1584 20.6608 68.7041 21.2168L68.8818 20.0029C68.7219 20.0628 68.5836 20.1609 68.4668 20.2891C68.389 20.3745 68.3149 20.4684 68.25 20.5752C68.2197 20.6265 68.1856 20.6827 68.1553 20.7383C68.0904 20.8538 68.0289 20.9736 67.9727 21.0977C67.9597 21.1275 67.9426 21.1616 67.9297 21.1914C67.8994 21.2554 67.874 21.3197 67.8438 21.3838C67.8308 21.4137 67.8128 21.4486 67.7998 21.4785C67.7696 21.5425 67.7392 21.6069 67.709 21.6709C67.6788 21.7348 67.6444 21.7945 67.6143 21.8584C67.5191 22.0466 67.4102 22.2265 67.2891 22.3848C67.2458 22.4403 67.2024 22.4921 67.1592 22.5391L67.5234 21.1748C67.4888 21.1919 67.4536 21.2046 67.4189 21.2217C67.2505 21.3028 67.1163 21.3965 67.0039 21.499C66.9823 21.5204 66.9601 21.5421 66.9385 21.5635C66.8564 21.6488 66.7919 21.743 66.7314 21.8369C66.5713 22.0978 66.4761 22.3937 66.3506 22.6846C66.2381 22.9496 66.0951 23.2102 65.8486 23.4453L66.1084 22.1797C66.0521 22.1925 65.9997 22.2052 65.9521 22.2266C65.7055 22.3292 65.5369 22.5387 65.3984 22.791C65.3681 22.8381 65.3424 22.894 65.3164 22.9453C65.2126 23.1548 65.1165 23.3852 65.0127 23.5947C64.9867 23.646 64.961 23.6977 64.9307 23.749C64.9177 23.7747 64.9007 23.7966 64.8877 23.8223C64.7839 23.9889 64.6625 24.1341 64.5068 24.2324L64.6846 23.6289L64.8613 23.0264C64.5845 23.0777 64.3812 23.223 64.2168 23.4111C64.1173 23.5223 64.0349 23.6551 63.957 23.792C63.8013 24.0699 63.6711 24.3736 63.498 24.6387C63.4375 24.7241 63.3768 24.8059 63.3076 24.8828L63.416 23.9375C62.9358 24.0829 62.689 24.3007 62.5332 24.5273C62.4943 24.5829 62.4639 24.6384 62.4336 24.6982C62.412 24.7367 62.3952 24.776 62.3779 24.8145C62.339 24.9084 62.2996 25.0021 62.2607 25.0918C62.2435 25.1259 62.2262 25.1602 62.209 25.1943C62.1873 25.2243 62.1701 25.2591 62.1484 25.2891C62.1052 25.3489 62.0571 25.4042 61.9922 25.4512C61.9619 25.4725 61.9276 25.4943 61.8887 25.5156L62.1133 24.6768C61.8711 24.711 61.6935 24.7841 61.5508 24.8867C61.3778 25.0065 61.2567 25.1651 61.127 25.3447C61.0838 25.4045 61.0407 25.4643 60.9932 25.5283C60.9672 25.5582 60.9449 25.5921 60.9189 25.6221C60.8714 25.6861 60.8154 25.7504 60.7549 25.8145L60.7803 25.374C60.0966 25.699 59.413 25.9949 58.7207 26.2686C58.0284 26.5422 57.3271 26.7943 56.6045 27.0381C56.4271 27.0979 56.2282 27.1579 56.0205 27.2178C55.9123 27.2477 55.8078 27.2728 55.6953 27.3027C55.5267 27.3455 55.358 27.3844 55.1807 27.4229C55.0595 27.4485 54.9424 27.4747 54.8213 27.4961C54.0381 27.6457 53.1984 27.7437 52.4629 27.7266C52.238 27.7223 52.0217 27.7096 51.8184 27.6797C51.7708 27.6754 51.7185 27.6668 51.6709 27.6582L51.6885 27.6621C51.5414 27.6365 51.4028 27.6072 51.2773 27.5645C51.7143 27.5816 52.1383 27.5764 52.5537 27.5508C52.8653 27.5337 53.1688 27.5043 53.4717 27.4658C54.679 27.3118 55.8126 26.9992 56.916 26.5801C57.0112 26.5459 57.1025 26.5121 57.1934 26.4736C57.929 26.1828 58.6558 25.8447 59.3828 25.4727C59.7463 25.2845 60.1146 25.0916 60.4824 24.8906C62.209 23.9498 63.7496 22.876 65.2598 21.6572C65.4717 21.4862 65.688 21.3065 65.9043 21.127C66.5967 20.5453 67.2896 19.9808 67.9863 19.4248C70.0808 17.7569 72.2231 16.1919 74.4863 14.7207C75.3517 14.1563 76.204 13.66 77.1299 13.2666C77.4371 13.1383 77.758 13.0141 78.0869 12.9072L76.5508 13.874ZM78.9609 22.2871C78.7446 22.5737 78.5152 22.8221 78.2686 23.083C78.0825 23.2797 77.8879 23.4763 77.6846 23.6943C77.6197 23.767 77.5458 23.8439 77.4766 23.9209C77.468 23.9124 77.4678 23.8997 77.4678 23.8828V23.8311C77.4851 23.7156 77.5629 23.5443 77.6494 23.4502C77.9566 23.1209 78.2031 22.8043 78.4541 22.4707V22.458C78.5363 22.3469 78.6186 22.2358 78.7051 22.1162L80.4277 19.7471C80.471 19.683 80.5183 19.6182 80.5615 19.5498C80.6048 19.4814 80.653 19.4128 80.6963 19.3486C80.7395 19.2846 80.7874 19.2203 80.835 19.1562C80.9561 18.9981 81.0856 18.8523 81.25 18.7412C81.3452 18.6728 81.4537 18.6176 81.5791 18.5791C81.6613 18.5535 81.7525 18.5363 81.8477 18.5234L78.9609 22.2871ZM53.1553 19.5625C52.9909 19.7463 52.8004 19.8831 52.5928 20.0156C52.4631 20.0968 52.3336 20.1738 52.1953 20.2549C50.486 21.2813 48.629 21.8121 46.6211 22.0303C46.3528 22.0602 45.9886 22.1029 45.8545 22.3125C45.8113 22.3766 45.7724 22.4666 45.7422 22.5605C45.6903 22.7187 45.6556 22.9024 45.6426 23.0264C46.0191 22.8168 46.2834 22.6629 46.6426 22.6201C47.3436 22.5346 48.0275 22.4106 48.6982 22.248C49.382 22.0813 50.0487 21.8763 50.7021 21.624C51.1781 21.4444 51.6454 21.2393 52.1084 21.0127C52.2555 20.94 52.39 20.8539 52.5068 20.7598C52.8615 20.4775 53.0867 20.0966 53.1689 19.6562C53.1646 19.6306 53.1553 19.5881 53.1553 19.5625ZM78.2334 21.7432C78.1079 21.9185 77.9773 22.0814 77.8389 22.2354C77.7481 22.3378 77.6525 22.4363 77.5488 22.5303C77.3931 22.6713 77.2289 22.804 77.043 22.9365C77.2809 22.5346 77.5448 22.1538 77.8174 21.7646C77.9818 21.5337 78.1506 21.2936 78.3193 21.0498H78.3154C78.3716 20.9687 78.4233 20.8872 78.4795 20.8018C78.5617 20.6735 78.6444 20.5452 78.7266 20.417C78.7567 20.3744 78.7824 20.3317 78.8125 20.2891C78.9553 20.0795 79.1069 19.8738 79.293 19.707C79.479 19.5403 79.6912 19.3994 79.9551 19.3096L78.2334 21.7432ZM43.3662 14.5117C43.4355 14.7512 43.4745 15.038 43.4961 15.3545C43.5134 15.6068 43.5137 15.8805 43.5137 16.167C43.5093 16.4534 43.5003 16.7526 43.4873 17.0518C43.4786 17.2014 43.4745 17.3562 43.4658 17.5059C43.4442 17.9591 43.4268 18.4123 43.4268 18.8398C43.4268 19.6266 43.4914 20.3196 43.7207 20.7559C43.7553 20.555 43.7861 20.3499 43.8164 20.1533C43.9116 19.5546 43.9981 18.9851 44.0977 18.4248C44.1626 18.0528 44.2317 17.6847 44.3096 17.3213C44.3874 16.9579 44.4738 16.5945 44.5732 16.2354C44.5905 16.586 44.5826 16.9326 44.5566 17.2705C44.496 18.0616 44.3484 18.827 44.2402 19.6182C44.1926 19.9559 44.1584 20.3024 44.1367 20.6572C44.1324 20.7769 44.124 20.8969 44.124 21.0166C44.1197 21.2561 44.1282 21.5045 44.1455 21.7568C44.2061 21.5858 44.2666 21.4191 44.3271 21.248C44.7426 20.0634 45.132 18.9256 45.6426 17.8008C45.6642 18.207 45.5736 18.6518 45.4395 19.1094C45.288 19.6226 45.0802 20.1447 44.8984 20.6494C44.7557 21.0512 44.6303 21.4401 44.5654 21.7949C44.5525 21.8846 44.5389 21.9703 44.5303 22.0557C44.5173 22.184 44.5173 22.3044 44.5303 22.4199L45.6689 20.6318C45.9631 20.17 46.145 19.6655 46.4521 19.208C46.4953 19.144 46.5424 19.0796 46.5898 19.0156C46.5726 19.1265 46.5513 19.2374 46.5254 19.3398C46.4605 19.6007 46.365 19.8449 46.2568 20.0801C46.0621 20.5035 45.8158 20.9014 45.5908 21.3291L45.0195 22.4238C45.0022 22.4623 44.9281 22.5139 44.8545 22.5566C44.781 22.595 44.6986 22.6296 44.6641 22.6211C44.6553 22.6208 44.6387 22.6119 44.626 22.6035C44.6 22.5864 44.5649 22.5525 44.5303 22.5098C44.513 22.4884 44.4919 22.4622 44.4746 22.4365C44.4357 22.3852 44.3958 22.3214 44.3525 22.2529C44.3309 22.2188 44.3097 22.184 44.2881 22.1455C44.2449 22.073 44.1969 21.9922 44.1494 21.9111C44.1278 21.8727 44.106 21.8298 44.0801 21.7871C43.959 21.5776 43.8379 21.3593 43.7168 21.1797C43.6952 21.1456 43.6691 21.1113 43.6475 21.0771C43.3965 20.7265 43.0718 20.2214 43.0674 19.751L43.0547 19.7422V19.084C43.0547 18.6436 43.0593 18.2072 43.0723 17.7754C43.0982 16.9072 43.159 16.0424 43.2715 15.1699C43.3018 14.952 43.3316 14.7297 43.3662 14.5117ZM57.6045 20.833C57.5439 20.8116 57.3703 20.863 57.3184 20.8887H57.3145C57.3059 20.8929 57.3057 20.8926 57.3057 20.8926V20.9014C57.3143 21.0383 57.3447 21.2691 57.4355 21.3418L57.8984 21.7051C57.9417 21.7136 57.9811 21.7178 58.0244 21.7178C58.3186 21.7262 58.613 21.5596 58.7773 21.2988L57.6045 20.833ZM60.6592 13.3994C60.4428 13.7543 60.2402 14.1011 60.0498 14.4561C59.7599 14.9949 59.5082 15.542 59.2832 16.1279V16.1152L58.2617 18.7969L57.6689 20.3574C57.7165 20.3745 57.7649 20.3882 57.8125 20.4053C58.2493 20.542 58.6474 20.6486 59.0713 20.7256C59.1924 20.747 59.3179 20.7681 59.4434 20.7852L59.8672 20.4346L60.1533 20.1992L59.8848 20.1143L58.3447 19.6309C58.6173 19.4984 58.9159 19.5022 59.2188 19.5449C59.9976 19.6604 60.7984 20.0586 61.2744 19.1904L58.9414 18.5576C59.9367 18.1984 61.6467 19.4685 62.2266 18.3223L60.8066 17.8896L59.3955 17.4629C59.6681 17.3474 60.0151 17.3597 60.3916 17.4238C61.5513 17.6249 62.9614 18.3259 63.0869 17.4834C61.9577 17.12 61.0056 16.7955 59.9326 16.3252C60.0536 16.2611 60.2695 16.1967 60.3477 16.2178L63.0488 16.9277C63.1309 16.9491 63.2132 16.9667 63.291 16.9795C63.6284 17.0307 63.923 16.9532 64.1826 16.5342C62.9449 16.0167 61.9619 15.9359 60.668 15.3115V15.3066C60.7199 15.1912 60.7942 15.1311 60.8721 15.1055C60.9498 15.08 61.0447 15.0893 61.1396 15.1191L62.9961 15.6572L64.1172 15.9824C64.2988 16.038 64.606 16.0724 64.7402 15.9785C64.8268 15.9186 64.9218 15.7769 64.9824 15.6357C64.9997 15.6016 65.0128 15.5673 65.0215 15.5332C63.5892 14.9389 62.3689 14.8188 61.127 14.2158C61.2741 14.203 61.4172 14.1953 61.5557 14.1953C61.7762 14.1996 61.9924 14.2208 62.2129 14.2764H62.2217L65.4238 15.0928H65.502C65.6015 15.0628 65.719 14.9562 65.7969 14.8535C65.8444 14.7895 65.874 14.7292 65.874 14.6865C65.6794 14.5882 65.4806 14.4982 65.2773 14.417C63.8319 13.8353 62.2431 13.6389 60.6592 13.3994ZM42.2461 16.9023L42.5879 20.1699H42.583L42.0332 19.4814C41.7822 17.095 41.6055 14.764 41.7354 12.3818L42.2461 16.9023ZM40.3887 12.4111C40.4536 13.0099 40.5266 13.6047 40.6045 14.1992C40.6088 14.2119 40.6094 14.2246 40.6094 14.2373C40.6483 14.5194 40.6867 14.8019 40.7256 15.084C40.7299 15.1182 40.7349 15.1488 40.7393 15.1787C40.7782 15.4609 40.821 15.7393 40.8643 16.0215C40.8686 16.0384 40.873 16.0514 40.873 16.0684C40.9163 16.3419 40.9641 16.6197 41.0117 16.8975C41.0117 16.9188 41.0205 16.9366 41.0205 16.958C41.0681 17.2273 41.1151 17.4969 41.167 17.7705C41.1756 17.8174 41.1847 17.8642 41.1934 17.9111C41.2453 18.1762 41.2973 18.4459 41.3535 18.7109C41.3622 18.7537 41.3712 18.801 41.3799 18.8438C41.4361 19.1216 41.4966 19.3995 41.5615 19.6816L41.2842 19.6055L41.0068 19.5283L40.626 16.8418L40.2451 14.1562C40.2278 14.0451 40.2157 13.9295 40.207 13.8184C40.2027 13.8014 40.2021 13.7845 40.2021 13.7676C40.1935 13.6649 40.1846 13.5616 40.1846 13.459V13.3691C40.1803 13.2752 40.1807 13.1854 40.1807 13.0957V12.8047C40.1807 12.7107 40.1895 12.612 40.1895 12.5137C40.2068 12.0733 40.2372 11.6286 40.2588 11.1797C40.2977 11.5944 40.3411 12.0006 40.3887 12.4111ZM87.2305 7.84375C87.5074 7.07827 88.4895 6.61178 89.1992 7.15039C89.6103 7.46682 89.5372 8.25392 89.2949 8.64746L89.2988 8.65137C89.0435 9.06622 88.4677 9.42178 87.8965 9.27637C87.2044 9.10093 87.0229 8.41674 87.2305 7.84375ZM88.4287 7.22754C88.2123 7.18087 87.8707 7.44168 87.7236 7.64258L87.7275 7.63867C87.5071 7.94656 87.3867 8.36562 87.7803 8.58789C87.8322 7.83516 88.5983 7.6085 88.6416 7.62988L89.0088 7.82227C89.0867 7.56565 88.7273 7.29597 88.4287 7.22754Z" fill="currentColor"/>
</svg>
