<svg width="107" height="91" viewBox="0 0 107 91" fill="none" xmlns="http://www.w3.org/2000/svg">
<path d="M106.336 81.1718V90.9999H0V81.1718H106.336ZM43.0527 84.7353C42.2223 84.7355 41.5254 85.4268 41.5254 86.2626C41.5255 87.0984 42.2116 87.7732 43.0527 87.7734C43.894 87.7734 44.58 87.0985 44.5801 86.2626C44.5801 85.3945 43.8834 84.7353 43.0527 84.7353ZM52.4521 84.7939V86.6484C52.4522 87.0072 52.5384 87.2268 52.6348 87.3554C52.7634 87.5269 53.0581 87.7734 53.5029 87.7734C53.8994 87.7733 54.1996 87.5755 54.3711 87.3398C54.5104 87.1469 54.543 86.8841 54.543 86.6484V84.7939H54.001V86.6484C54.001 86.7985 54.0007 87.2695 53.4971 87.2695C52.9939 87.2692 52.9941 86.7931 52.9941 86.6484V84.7939H52.4521ZM81.7549 84.7353C80.9243 84.7353 80.2275 85.4266 80.2275 86.2626C80.2276 87.0985 80.9136 87.7734 81.7549 87.7734C82.055 87.7734 82.3448 87.6875 82.5859 87.5322C82.7199 87.6232 82.9338 87.7733 83.2764 87.7734H83.3516V87.2695H83.2656C83.217 87.2694 83.0678 87.2537 82.9609 87.1738C83.0735 87.0237 83.2822 86.7555 83.2822 86.2411C83.2822 85.3945 82.5855 84.7353 81.7549 84.7353ZM91.1592 84.7939V86.6484C91.1592 87.0072 91.2454 87.2268 91.3418 87.3554C91.4704 87.5269 91.7652 87.7734 92.21 87.7734C92.6064 87.7734 92.9066 87.5755 93.0781 87.3398C93.2174 87.1469 93.25 86.8841 93.25 86.6484V84.7939H92.708V86.6484C92.708 86.7985 92.7082 87.2692 92.2051 87.2695C91.7015 87.2695 91.7012 86.7932 91.7012 86.6484V84.7939H91.1592ZM3.53125 84.7997V87.7148H4.96191V87.2109H4.07227V84.7997H3.53125ZM13.751 84.7997L12.54 87.7148H13.1348L13.4453 86.9589H14.4902L14.8008 87.7148H15.3965L14.1738 84.7997H13.751ZM71.7549 84.7997V87.7148H72.2969V84.7997H71.7549ZM101.234 84.7997V87.7148H102.805V87.2109H101.775V86.5195H102.762V86.0155H101.775V85.3036H102.805V84.7997H101.234ZM62.3125 84.7939V85.2978H62.8545V87.7089H63.3955V85.2978H63.9365V84.7939H62.3125ZM31.8584 84.789V87.704H32.6406C32.8281 87.704 33.1709 87.6875 33.3906 87.5322C33.5675 87.4089 33.7559 87.1891 33.7559 86.8407C33.7557 86.3481 33.4497 86.1877 33.2568 86.1181C33.3479 86.0645 33.584 85.9248 33.584 85.5605C33.584 85.3569 33.4825 85.1422 33.3379 85.0136C33.0861 84.7886 32.7589 84.789 32.4375 84.789H31.8584ZM81.1709 86.788C81.4495 86.7881 81.7442 86.8791 82.1514 87.1845C82.0763 87.2167 81.953 87.2694 81.7549 87.2695H81.7334C81.5137 87.2695 81.1548 87.1515 80.9404 86.8193C80.9697 86.8086 80.9992 86.7996 81.0352 86.7929L81.1709 86.788ZM43.0527 85.2392C43.5992 85.2392 44.0389 85.6996 44.0391 86.2568C44.0391 86.7926 43.6101 87.2646 43.0527 87.2646C42.4956 87.2644 42.0674 86.8193 42.0674 86.2568C42.0675 85.6943 42.5064 85.2394 43.0527 85.2392ZM32.6895 86.4335C33.1607 86.4337 33.2197 86.7073 33.2197 86.8251C33.2197 87.2052 32.7865 87.206 32.6787 87.206H32.4053V86.4335H32.6895ZM81.7549 85.2392C82.2853 85.2392 82.741 85.6728 82.7412 86.2568C82.7412 86.6102 82.6121 86.7551 82.5371 86.8622H82.5264C82.5145 86.8452 81.9342 86.2734 81.1758 86.2734H81.0957C80.9351 86.2734 80.8494 86.2944 80.7744 86.3105C80.7691 86.2944 80.7686 86.2784 80.7686 86.2197C80.79 85.7534 81.1493 85.2392 81.7549 85.2392ZM13.96 85.5546L14.292 86.4501H13.6221L13.9541 85.5546H13.96ZM32.625 85.2978C32.9303 85.2979 33.043 85.4427 33.043 85.6142C33.0428 85.9302 32.7048 85.9306 32.5762 85.9306H32.3994V85.2978H32.625ZM36.5371 56.5253C37.7695 56.5253 38.3856 57.0936 38.3857 58.2294C38.3857 58.8618 38.1876 59.6069 37.791 60.4697C37.3945 61.3324 36.9074 62.1261 36.3232 62.8495C36.1786 63.037 36.0171 63.1327 35.8242 63.1327C35.6315 63.1327 35.4654 63.0738 35.3154 62.956C35.1656 62.8381 35.0909 62.6616 35.0908 62.4208C35.0908 62.3083 35.1443 62.2004 35.2568 62.0878C35.7283 61.6324 36.1675 61.0002 36.5693 60.1913C36.9713 59.3875 37.1748 58.744 37.1748 58.2724C37.1748 58.0528 37.1213 57.8922 37.0088 57.7958C36.8963 57.6994 36.7942 57.6562 36.7031 57.6562C36.1673 57.6563 35.4332 57.8819 34.501 58.332C33.5686 58.7821 32.5821 59.3928 31.5479 60.1591C30.5137 60.9254 29.533 61.7619 28.6113 62.6728C27.6844 63.5783 26.9234 64.5591 26.3232 65.6093C25.7233 66.6594 25.4229 67.6183 25.4229 68.4863C25.4229 69.29 25.7178 69.8904 26.3018 70.2763C26.8858 70.6621 27.6576 70.8554 28.6221 70.8554C29.9779 70.8554 31.6019 70.4586 33.4775 69.6601C35.3584 68.8616 37.1166 67.854 38.7617 66.6376C38.7692 66.6405 38.776 66.645 38.7832 66.6484C39.0618 66.4243 39.3847 66.1634 39.7461 65.8681C40.1909 65.5037 40.5666 65.1976 40.8828 64.9404C41.0543 64.56 41.2525 64.3887 41.4775 64.4208C41.6649 64.453 41.831 64.5331 41.9648 64.6562C42.0987 64.7847 42.1688 64.9243 42.1689 65.0849C42.1689 65.3367 42.0345 65.6905 41.7666 66.1513C41.6862 66.296 41.5415 66.5373 41.3271 66.8857C41.113 67.2336 40.9849 67.4428 40.9365 67.5234C42.0083 66.5749 43.4015 65.7605 45.1055 65.0693C46.8094 64.3834 48.3043 64.148 49.585 64.373C49.8047 64.4051 49.8532 64.5228 49.7246 64.7265C49.6335 64.9031 49.4621 64.9946 49.2266 65.0107C47.9297 65.0428 46.4611 65.4387 44.8213 66.205C43.1761 66.9713 41.7825 67.9308 40.625 69.0829C40.4214 69.2865 40.2177 69.5383 40.0195 69.8437C39.8214 70.1435 39.7145 70.3044 39.6982 70.3154C39.4464 70.6315 39.1942 70.7816 38.9424 70.7655C38.83 70.7655 38.707 70.7119 38.5625 70.5995C38.4071 70.4709 38.3316 70.3316 38.3477 70.1708C38.3637 69.8707 38.943 68.7666 40.0791 66.8534C39.3503 67.4536 38.7656 67.9039 38.3262 68.204L38.2441 68.2577C38.2012 68.282 38.157 68.3001 38.1133 68.3163C36.8514 69.2217 35.3882 70.0438 33.7295 70.7695C31.8432 71.6001 30.0744 72.0126 28.4346 72.0126L27.9766 72.0107C26.9178 71.9497 26.0267 71.6749 25.2998 71.1825C24.4692 70.6199 24.0566 69.7403 24.0566 68.54C24.0567 67.4361 24.4045 66.2783 25.0957 65.0673C25.7923 63.8617 26.6607 62.7686 27.7002 61.788C28.7398 60.8073 29.8386 59.9121 30.9961 59.0976C32.1482 58.2831 33.2255 57.6512 34.2275 57.2011C35.2295 56.751 36.0012 56.5254 36.5371 56.5253ZM75.9404 58.3788C76.0528 58.3788 76.1601 58.4326 76.2725 58.5448C76.385 58.6573 76.4384 58.7757 76.4385 58.9042C76.4385 59.0489 76.3796 59.2256 76.2617 59.4345C76.1438 59.6488 75.9515 59.9069 75.6836 60.2177C75.4158 60.5284 75.1531 60.8121 74.9014 61.0693C74.6495 61.3318 74.2958 61.6753 73.835 62.1093C73.3795 62.5434 73.0037 62.8916 72.709 63.1542C72.4143 63.4167 71.991 63.8022 71.4287 64.3163C70.8716 64.8306 70.4589 65.1957 70.207 65.4208C69.7033 66.0531 69.2741 66.7228 68.9258 67.4355C68.5775 68.1482 68.4062 68.7486 68.4062 69.2363C68.4063 69.4881 68.4808 69.6868 68.6309 69.8261C68.7809 69.9707 68.9742 70.04 69.21 70.04C69.7137 70.0399 70.373 69.8364 71.1768 69.4345C71.9805 69.0326 72.6399 68.6578 73.1436 68.3095C73.5752 68.011 74.1593 67.5889 74.8945 67.0497C75.0199 66.8662 75.1595 66.6776 75.3193 66.4882C76.1017 65.5666 77.0127 64.8003 78.0576 64.1894C79.0972 63.5838 79.9875 63.2782 80.7109 63.2782C81.0269 63.2783 81.2729 63.3647 81.4551 63.5253C81.6372 63.6913 81.7284 63.8785 81.7285 64.082C81.7285 64.7786 81.1447 65.5291 79.9766 66.3329C78.8083 67.1368 77.3397 67.8549 75.5713 68.4872C75.4909 68.5998 75.4531 68.7499 75.4531 68.9374C75.4531 69.2214 75.5498 69.4574 75.748 69.6503C75.9463 69.8379 76.2466 69.9345 76.6592 69.9345C78.4598 69.9345 80.7269 68.8789 83.46 66.7568C83.5991 66.9924 83.6738 67.2173 83.6738 67.4208C83.6738 67.6727 83.5561 67.887 83.3203 68.0585C80.7588 70.0038 78.5024 70.9736 76.541 70.9736C75.8124 70.9735 75.2549 70.792 74.8584 70.4277C74.4619 70.0633 74.248 69.6075 74.2158 69.0556L74.2119 68.912C74.2121 68.8686 74.2131 68.825 74.2158 68.7812C73.6154 69.2125 72.934 69.6415 72.1729 70.0673C70.9566 70.7477 69.9223 71.0849 69.0703 71.0849C68.5667 71.0849 68.1383 70.9347 67.79 70.6347C67.4417 70.3346 67.2695 69.9167 67.2695 69.3808L67.2812 69.1542C67.3329 68.6278 67.565 67.9492 67.9824 67.1191C67.4894 67.5478 67.0822 67.8646 66.75 68.0683C66.4661 68.2557 66.2142 68.3524 65.9893 68.3525C65.8017 68.3525 65.6516 68.2392 65.5391 68.0195C65.4749 67.9231 65.4905 67.8371 65.5869 67.7568L66.0371 67.4032C67.2536 66.4708 68.24 65.6835 69.001 65.0351C70.7855 62.8379 72.1521 61.2781 73.1006 60.3456C74.4454 59.033 75.3885 58.3789 75.9404 58.3788ZM54.5918 63.7333C54.8596 63.7334 55.0957 63.8089 55.2939 63.9589C55.492 64.1089 55.5879 64.3024 55.5879 64.538C55.5873 65.3579 53.9801 66.4992 50.7549 67.9511C50.6906 68.0635 50.6583 68.1707 50.6582 68.2831C50.6582 69.087 51.2262 69.4941 52.3623 69.4941C53.2946 69.494 54.3501 69.2428 55.5342 68.7499C56.6522 68.2794 57.7069 67.6632 58.6963 66.9062C59.3469 66.091 60.0999 65.4027 60.957 64.8329C61.8519 64.2382 62.6025 63.9433 63.2188 63.9433C63.5028 63.9433 63.723 63.9854 63.8838 64.0605C64.2158 64.1998 64.4889 64.4197 64.7139 64.7089C64.9336 65.0036 65.0351 65.3205 65.0244 65.6689C64.9921 66.7566 64.3014 67.8821 62.9512 69.0341C61.6008 70.1862 60.3087 70.7646 59.0762 70.7646C58.6798 70.7645 58.3425 70.6198 58.0586 70.3359C57.7585 70.0679 57.6084 69.7142 57.6084 69.2695L57.6064 69.1523C57.6137 69.0391 57.6323 68.9231 57.6592 68.8036C56.9776 69.2207 56.243 69.5903 55.4541 69.912C54.2269 70.4104 53.1174 70.6572 52.126 70.6572L51.8252 70.6435C51.1241 70.6024 50.5299 70.4169 50.0469 70.0839C49.4951 69.7034 49.2168 69.1515 49.2168 68.4228C49.2168 67.3349 49.8172 66.2788 51.0176 65.2607C52.2178 64.2427 53.4076 63.7333 54.5918 63.7333ZM63.2188 64.9882C62.9026 64.9883 62.4467 65.1384 61.8467 65.4384C61.2468 65.7384 60.7111 66.1239 60.2344 66.6005C60.138 66.6969 60.0678 66.8472 60.0195 67.0614C59.9713 67.2758 59.8693 67.4794 59.7139 67.6669C59.1298 68.4117 58.8409 68.9587 58.8408 69.3017L58.8418 69.4072C58.8723 69.637 59.0102 69.7519 59.2588 69.7519C60.0465 69.7519 61.0384 69.2481 62.2227 68.2353C63.4066 67.2227 64.0008 66.3546 64.001 65.6259C64.001 65.1972 63.7386 64.9882 63.2188 64.9882ZM80.5391 64.2695C79.8906 64.3338 79.0979 64.683 78.1602 65.3261C77.2224 65.9638 76.4876 66.6495 75.9678 67.373L76.3623 67.2079C77.2719 66.8035 78.1167 66.3445 78.9043 65.8241C79.8046 65.2293 80.3515 64.7142 80.5391 64.2695ZM54.1348 64.8046C53.6603 64.8515 53.1173 65.0623 52.5127 65.4325C51.816 65.8613 51.3172 66.3115 51.0225 66.7831C52.5712 65.9632 53.6753 65.2981 54.3398 64.789L54.1348 64.8046ZM59.5488 56.58C59.913 56.5801 60.1379 56.7513 60.2344 57.0995L60.251 57.1835C60.2543 57.2189 60.2559 57.2604 60.2559 57.3085C60.2558 57.705 59.7842 58.2782 58.8359 59.039C57.8875 59.7945 56.8533 60.4862 55.7334 61.1025C55.5141 61.2148 55.3637 61.2683 55.2832 61.2685C55.0796 61.2685 54.9776 61.1669 54.9775 60.9579C54.9775 60.8775 55.0153 60.802 55.0957 60.7216C56.0602 59.9178 57.1426 58.8512 58.3428 57.5224C58.375 57.4902 58.434 57.4258 58.5195 57.3349C58.6051 57.2386 58.6641 57.1746 58.6963 57.1318C58.7284 57.0943 58.7767 57.0299 58.8516 56.955C58.921 56.8748 58.9802 56.8212 59.0283 56.789C59.0765 56.7569 59.1302 56.7243 59.1943 56.6816C59.2586 56.6441 59.3185 56.6176 59.3721 56.6015C59.4256 56.5855 59.4846 56.58 59.5488 56.58ZM54.3506 47.1532C54.7738 47.1533 55.1758 47.2121 55.54 47.3193C55.9097 47.4318 56.2316 47.5981 56.5156 47.8232C56.7995 48.0482 57.0298 48.3221 57.2119 48.6542C57.394 48.981 57.5222 49.3668 57.5918 49.8007H56.7773C56.6166 49.088 56.3115 48.5783 55.8721 48.2782C55.4328 47.9783 54.854 47.8232 54.1416 47.8232C53.6379 47.8232 53.2033 47.9247 52.8389 48.123C52.4745 48.3266 52.1742 48.5946 51.9385 48.9374C51.7027 49.2804 51.5256 49.6723 51.4131 50.1171C51.3006 50.5618 51.2471 51.0334 51.2471 51.5263C51.2471 51.9925 51.2951 52.4482 51.3916 52.8984C51.4881 53.3484 51.649 53.7503 51.874 54.0986C52.0991 54.4522 52.3998 54.7358 52.7803 54.9501C53.1607 55.1645 53.6376 55.2773 54.2109 55.2773C54.5646 55.2773 54.8918 55.2189 55.1865 55.1064C55.4812 54.9885 55.7383 54.8275 55.958 54.6239C56.1777 54.4203 56.3656 54.179 56.5156 53.9003C56.6657 53.6217 56.778 53.3155 56.8584 52.9833H57.6836C57.5925 53.3852 57.4532 53.7664 57.2764 54.1308C57.0995 54.4898 56.8635 54.8058 56.5742 55.079C56.2848 55.3523 55.9312 55.5672 55.5186 55.7226C55.1006 55.8833 54.6179 55.9579 54.0605 55.9579C53.4176 55.9579 52.8656 55.8402 52.4102 55.6044C51.9547 55.3687 51.5794 55.0473 51.29 54.6454C51.0007 54.2435 50.7922 53.7765 50.6582 53.246C50.5243 52.7156 50.46 52.1532 50.46 51.5585C50.46 50.7603 50.5557 50.085 50.7539 49.5224C50.9522 48.9651 51.2259 48.5089 51.5742 48.1552C51.9225 47.8016 52.3352 47.5503 52.8066 47.3896C53.2782 47.2288 53.7933 47.1532 54.3506 47.1532ZM89.5732 52.5868C89.5732 53.6798 89.3048 54.5154 88.7637 55.0888C88.2278 55.6675 87.4134 55.952 86.3311 55.9521C85.2487 55.9521 84.4231 55.6576 83.8926 55.0683C83.3567 54.4788 83.0889 53.6528 83.0889 52.581V47.373H83.8818V52.3564C83.8819 53.3959 84.0751 54.1411 84.4609 54.5966C84.8468 55.0518 85.4739 55.2822 86.3311 55.2822C86.7811 55.2821 87.1619 55.2228 87.4727 55.0995C87.7886 54.9816 88.0406 54.8 88.2334 54.5536C88.4263 54.3071 88.5656 54.0069 88.6514 53.6425C88.7371 53.2781 88.7803 52.8489 88.7803 52.3505V47.3671H89.5732V52.5868ZM34.082 47.373C34.6233 47.373 35.0735 47.4382 35.4219 47.5614C35.7754 47.6847 36.0542 47.8555 36.2578 48.0751C36.4614 48.2895 36.6061 48.5421 36.6865 48.8261C36.7668 49.1098 36.8095 49.4043 36.8096 49.7148C36.8096 50.181 36.7129 50.5617 36.5254 50.8671C36.3378 51.1672 36.0916 51.4085 35.7861 51.58C35.486 51.7515 35.1427 51.8746 34.7568 51.9443C34.3711 52.0139 33.9853 52.0517 33.5996 52.0517H31.8096V55.7441H31.0166L31.0273 55.7382V47.373H34.082ZM6.69824 55.0634H11.1787V55.7382H5.90527V47.373H6.69824V55.0634ZM20.7178 48.0488H15.9424V51.0654H20.2568V51.7411H15.9424V55.0634H20.835V55.7382H15.1553V47.373H20.7178V48.0488ZM46.5156 48.0488H41.7412V51.0654H46.0488V51.7411H41.7412V55.0634H46.6338V55.7382H40.9473V47.373H46.5156V48.0488ZM62.7959 50.9638H67.7422V47.373H68.5352V55.7382H67.7422V51.6386H62.7959V55.7382H62.0029V47.373H62.7959V50.9638ZM78.7598 48.0488H73.9795V51.0654H78.293V51.7411H73.9795V55.0634H78.8721V55.7382H73.1914V47.373H78.7598V48.0488ZM97.5205 47.373C98.4419 47.373 99.1492 47.5448 99.6367 47.8876C100.124 48.2306 100.371 48.7937 100.371 49.5654C100.371 50.0904 100.264 50.5085 100.05 50.8193C99.8355 51.1301 99.4921 51.393 99.0098 51.6073C99.2562 51.6931 99.4496 51.8157 99.5889 51.9765C99.7282 52.1372 99.8346 52.3251 99.9043 52.5341C99.9739 52.743 100.018 52.9625 100.039 53.1982C100.06 53.4286 100.071 53.6542 100.076 53.8739C100.087 54.1898 100.098 54.4522 100.119 54.6611C100.141 54.8701 100.162 55.0422 100.188 55.1708C100.215 55.3047 100.248 55.4069 100.285 55.4765C100.323 55.5513 100.371 55.6046 100.425 55.6474V55.7167L99.5508 55.7275C99.4652 55.5882 99.4066 55.3955 99.3691 55.1493C99.3316 54.9028 99.3042 54.6399 99.2881 54.372C99.2667 54.0987 99.251 53.8357 99.2402 53.5839C99.2295 53.3269 99.2079 53.1176 99.1758 52.957C99.1276 52.7321 99.0529 52.5552 98.9512 52.4159C98.844 52.282 98.7208 52.1799 98.5762 52.1103C98.4262 52.0407 98.2651 51.9931 98.083 51.9716C97.901 51.9502 97.7133 51.9394 97.5205 51.9394H95.0332V55.7382L94.2461 55.7275V47.373H97.5205ZM31.8096 51.371H33.627C33.9964 51.371 34.3338 51.3499 34.623 51.3017C34.9176 51.2535 35.1695 51.1675 35.373 51.039C35.5767 50.9104 35.738 50.7387 35.8506 50.5136C35.963 50.294 36.0214 50.0047 36.0215 49.6513C36.0215 49.1261 35.8503 48.7239 35.502 48.456C35.1591 48.1828 34.6074 48.0488 33.8574 48.0488H31.8096V51.371ZM95.0391 51.2695H97.5039L97.499 51.2636C97.7936 51.2636 98.0666 51.2317 98.3184 51.1728C98.5702 51.1138 98.79 51.0118 98.9775 50.8779C99.1651 50.7439 99.3098 50.5668 99.417 50.3632C99.524 50.1543 99.5781 49.9028 99.5781 49.6083C99.5781 49.2976 99.5192 49.04 99.4121 48.8417C99.2996 48.6381 99.149 48.4831 98.9561 48.3652C98.7685 48.2473 98.5488 48.1663 98.3076 48.1181C98.0612 48.0699 97.8094 48.0488 97.5469 48.0488H95.0391V51.2695ZM27.4531 0.242111C27.8014 -0.0900679 28.3582 -0.079631 28.6904 0.268479L35.7158 7.63664C37.5538 9.56575 37.5865 12.6634 35.7861 14.5497L35.7129 14.6259L40.9219 20.0878C62.0452 -3.50441 85.9304 16.329 85.9727 20.745C86.0142 25.1641 63.8711 46.1452 40.9678 22.3427L35.3867 28.328L40.085 32.9628C32.6469 41.778 23.3813 42.1584 21.4307 41.8583C21.0825 41.8046 20.906 41.4138 21.1416 41.1405C24.6517 37.0946 34.1367 27.0947 34.1367 27.0947L34.1387 27.0966L39.5967 21.2431L34.502 15.8993L34.3281 16.0829C33.46 16.9938 32.2915 17.497 31.043 17.497L30.8086 17.4911C29.6119 17.4294 28.489 16.907 27.6299 16.0077L20.6045 8.63957C20.2723 8.29128 20.2826 7.73355 20.6309 7.40129C20.9792 7.06907 21.5369 7.07942 21.8691 7.42766L28.8945 14.7968C29.4785 15.4075 30.2394 15.745 31.043 15.745C31.8468 15.745 32.5276 15.4337 33.0635 14.871L33.292 14.6308L24.0078 4.89348C23.6759 4.54523 23.6867 3.98838 24.04 3.65617C24.3884 3.32392 24.9461 3.33421 25.2783 3.68254L34.5039 13.3564L34.5215 13.3388C35.6842 12.1223 35.6515 10.1078 34.4512 8.84856L27.4209 1.47942C27.0887 1.13109 27.0995 0.574347 27.4531 0.242111ZM73.8877 18.2743C72.6982 18.2745 71.7393 19.2822 71.7393 20.5253C71.7394 21.7684 72.7036 22.7761 73.8877 22.7763C75.0773 22.7763 76.037 21.7685 76.0371 20.5253C76.0371 19.2821 75.0774 18.2743 73.8877 18.2743Z" fill="currentColor"/>
</svg>
