<svg preserveAspectRatio="none" width="100%" height="100%" overflow="visible" style="display: block;" viewBox="0 0 199 33" fill="none" xmlns="http://www.w3.org/2000/svg">
<g id="Calque_1" clip-path="url(#clip0_0_4)">
<path id="Vector" d="M54.2778 15.6138C54.2778 15.8389 54.4744 16.0358 54.699 16.0358H59.5849C60.7361 16.0358 61.6628 15.0793 61.6628 13.9258C61.6628 12.7724 60.7081 11.844 59.5568 11.844H54.699C54.4744 11.844 54.2778 12.0409 54.2778 12.266V15.6138ZM66.0993 24.4757C66.0993 24.7008 65.9028 24.8977 65.6781 24.8977C62.3928 24.7289 60.9327 22.844 57.872 19.8619C57.8159 19.7775 57.6755 19.7494 57.5912 19.7494H54.7271C54.5025 19.7494 54.3059 19.9463 54.3059 20.1714V24.2225C54.3059 24.4476 54.1094 24.6445 53.8847 24.6445H50.1782C49.9536 24.6445 49.757 24.4476 49.757 24.2225V8.55243C49.757 8.32737 49.9536 8.13043 50.1782 8.13043H60.4273C63.6003 8.13043 66.2117 10.7187 66.2117 13.9258C66.2117 16.0921 65.0323 17.977 63.2633 18.9616C63.1229 19.046 63.0948 19.243 63.2352 19.3555C64.3865 20.4527 64.92 20.7621 65.7624 20.8184C65.9589 20.8184 66.1555 21.0153 66.1555 21.2404V24.4476L66.0993 24.4757Z" fill="var(--fill-0, #002C41)"/>
<path id="Vector_2" d="M74.0459 12.266V14.1228C74.0459 14.3478 74.2424 14.5448 74.4671 14.5448H83.5648C83.7895 14.5448 83.986 14.7417 83.986 14.9668V17.8363C83.986 18.0614 83.7895 18.2583 83.5648 18.2583H74.4671C74.2424 18.2583 74.0459 18.4552 74.0459 18.6803V20.509C74.0459 20.734 74.2424 20.9309 74.4671 20.9309H84.7161C84.9407 20.9309 85.1373 21.1279 85.1373 21.3529V24.2506C85.1373 24.4757 84.9407 24.6726 84.7161 24.6726H69.9462C69.7216 24.6726 69.525 24.4757 69.525 24.2506V8.55243C69.525 8.32737 69.7216 8.13043 69.9462 8.13043H84.7161C84.9407 8.13043 85.1373 8.32737 85.1373 8.55243V11.4501C85.1373 11.6752 84.9407 11.8721 84.7161 11.8721H74.4671C74.2424 11.8721 74.0459 12.0691 74.0459 12.2941" fill="var(--fill-0, #002C41)"/>
<path id="Vector_3" d="M105.86 8.55243V17.4706C105.86 21.7468 101.873 25.1228 97.015 25.1228C92.1572 25.1228 88.1699 21.7187 88.1699 17.4706V8.55243C88.1699 8.32737 88.3384 8.13043 88.5911 8.13043H92.2976C92.5222 8.13043 92.7188 8.32737 92.7188 8.55243V17.4706C92.7188 19.2148 94.7405 20.5934 97.043 20.5934C99.3456 20.5934 101.367 19.1586 101.367 17.4706V8.55243C101.367 8.32737 101.564 8.13043 101.788 8.13043H105.495C105.72 8.13043 105.916 8.32737 105.916 8.55243" fill="var(--fill-0, #002C41)"/>
<path id="Vector_4" d="M126.723 8.15857C126.948 8.15857 127.144 8.3555 127.144 8.58056V24.2225C127.144 24.4476 126.976 24.6445 126.723 24.6445H122.82C122.82 24.6445 122.595 24.6164 122.511 24.5038C121.613 23.4629 116.39 17.1611 114.2 14.5448C114.059 14.3478 113.75 14.4604 113.75 14.7136V24.2506C113.75 24.4757 113.554 24.6726 113.329 24.6726H109.623C109.398 24.6726 109.201 24.4757 109.201 24.2506V8.55243C109.201 8.32737 109.398 8.13044 109.623 8.13044H113.554C113.554 8.13044 113.807 8.1867 113.891 8.29923L122.174 18.2583C122.315 18.4552 122.624 18.3146 122.624 18.0895V8.5243C122.624 8.29923 122.82 8.1023 123.045 8.1023H126.751L126.723 8.15857Z" fill="var(--fill-0, #002C41)"/>
<path id="Vector_5" d="M135.315 24.11C135.315 24.3913 135.091 24.6164 134.81 24.6164H131.3C131.019 24.6164 130.795 24.3913 130.795 24.11V8.66496C130.795 8.38363 131.047 8.15857 131.3 8.15857H134.81C135.063 8.15857 135.315 8.41176 135.315 8.66496V24.11Z" fill="var(--fill-0, #002C41)"/>
<path id="Vector_6" d="M187.094 15.6138C187.094 15.8389 187.291 16.0358 187.515 16.0358H192.401C193.553 16.0358 194.479 15.0793 194.479 13.9258C194.479 12.7724 193.524 11.844 192.373 11.844H187.515C187.291 11.844 187.094 12.0409 187.094 12.266V15.6138ZM198.916 24.4757C198.916 24.7008 198.719 24.8977 198.495 24.8977C195.209 24.7289 193.749 22.844 190.688 19.8619C190.632 19.7775 190.492 19.7494 190.408 19.7494H187.515C187.291 19.7494 187.094 19.9463 187.094 20.1714V24.2225C187.094 24.4476 186.898 24.6445 186.673 24.6445H182.967C182.742 24.6445 182.545 24.4476 182.545 24.2225V8.55243C182.545 8.32737 182.742 8.13043 182.967 8.13043H193.188C196.361 8.13043 198.972 10.7187 198.972 13.9258C198.972 16.0921 197.793 17.977 196.024 18.9616C195.883 19.046 195.855 19.243 195.995 19.3555C197.147 20.4527 197.68 20.7621 198.523 20.8184C198.719 20.8184 198.916 21.0153 198.916 21.2404V24.4476V24.4757Z" fill="var(--fill-0, #002C41)"/>
<path id="Vector_7" d="M151.04 24.6164H148.457C148.316 24.6164 148.176 24.532 148.12 24.4194L143.936 16.8517C143.824 16.6266 143.459 16.7391 143.459 16.9642V24.2225C143.459 24.4476 143.262 24.6445 143.037 24.6445H139.331C139.106 24.6445 138.91 24.4476 138.91 24.2225V8.55243C138.91 8.32737 139.106 8.13043 139.331 8.13043H143.206C143.346 8.13043 143.459 8.21483 143.543 8.3555L149.496 18.9898C149.608 19.1586 149.833 19.1586 149.917 18.9898L155.87 8.3555C155.926 8.21483 156.066 8.13043 156.207 8.13043H160.082C160.306 8.13043 160.503 8.32737 160.503 8.55243V24.1944C160.503 24.4194 160.306 24.6164 160.082 24.6164H156.375C156.151 24.6164 155.954 24.4194 155.954 24.1944V16.9361C155.954 16.6829 155.617 16.5985 155.477 16.8235L151.293 24.3913C151.293 24.3913 151.096 24.5882 150.956 24.5882" fill="var(--fill-0, #002C41)"/>
<path id="Vector_8" d="M168.421 12.266V14.1228C168.421 14.3478 168.618 14.5448 168.843 14.5448H177.94C178.165 14.5448 178.362 14.7417 178.362 14.9668V17.8363C178.362 18.0614 178.165 18.2583 177.94 18.2583H168.843C168.618 18.2583 168.421 18.4552 168.421 18.6803V20.509C168.421 20.734 168.618 20.9309 168.843 20.9309H179.092C179.316 20.9309 179.513 21.1279 179.513 21.3529V24.2506C179.513 24.4757 179.316 24.6726 179.092 24.6726H164.322C164.097 24.6726 163.901 24.4757 163.901 24.2506V8.55243C163.901 8.32737 164.097 8.13043 164.322 8.13043H179.092C179.316 8.13043 179.513 8.32737 179.513 8.55243V11.4501C179.513 11.6752 179.316 11.8721 179.092 11.8721H168.843C168.618 11.8721 168.421 12.0691 168.421 12.2941" fill="var(--fill-0, #002C41)"/>
<path id="Vector_9" d="M11.288 9.14322C10.3614 9.14322 9.60322 8.38363 9.60322 7.45524C9.60322 6.52685 10.3614 5.76726 11.288 5.76726C12.2146 5.76726 12.9728 6.52685 12.9728 7.45524C12.9728 8.38363 12.2146 9.14322 11.288 9.14322ZM21.1158 0.056266C21.1158 0.056266 21.1158 0.056266 21.0878 0.056266C20.9754 0.028133 20.8631 0 20.7508 0C20.4139 0 20.0769 0.140665 19.8523 0.365729C19.8523 0.393862 19.7961 0.421995 19.768 0.450128L17.7463 2.70077C17.2128 3.29156 16.2581 3.29156 15.7246 2.70077L13.7028 0.450128C13.7028 0.450128 13.6467 0.393862 13.6186 0.365729C13.394 0.140665 13.0851 0 12.7201 0C12.6358 0 12.5516 0 12.4673 0C12.4112 0 12.3831 0 12.3269 0.028133C5.2228 1.99744 0 8.49616 0 16.2327V16.4015C0.842387 16.4015 1.82517 16.2046 2.97644 15.3325C4.07154 14.5166 5.39128 14.0102 6.76718 14.0665C8.62043 14.1509 9.6313 14.9668 10.4737 15.6419C11.2038 16.2327 11.6811 16.6266 12.7762 16.6266C13.8713 16.6266 14.3487 16.2327 15.0787 15.6419C15.9211 14.9386 16.9881 14.0665 19.038 14.0665C21.0878 14.0665 22.1548 14.9386 22.9972 15.6419C23.7272 16.2327 24.2046 16.6266 25.2997 16.6266C26.3948 16.6266 26.8722 16.2327 27.6022 15.6419C28.4727 14.9386 29.5397 14.0665 31.5614 14.0665C32.2634 14.0665 32.825 14.179 33.3305 14.3478C32.5442 7.45524 27.6303 1.82864 21.1158 0.056266Z" fill="var(--fill-0, #009FB0)"/>
<path id="Vector_10" d="M30.4944 17.0486C28.1919 18.1739 29.5116 21.2404 28.5008 22.6471C27.7145 23.7442 25.4682 24.1381 25.3559 22.8159C25.2716 21.8875 26.9002 21.578 26.451 20.1432C26.0298 18.8772 24.1765 19.1304 23.4184 19.8619C22.2109 21.0716 22.9972 22.2813 22.3233 22.9847C21.3966 23.913 19.8242 23.913 19.5995 22.7596C19.3468 21.4936 20.4139 20.7059 21.0035 19.2711C21.3686 18.3708 21.0316 16.8235 19.0099 16.8235C17.4936 16.8235 16.0334 17.7238 16.7354 20.7621C17.5497 24.3069 15.4718 23.8849 12.5516 25.1509C10.8387 25.8824 8.84507 27.4859 7.77804 25.8542C7.04798 24.7289 8.67659 23.8286 9.99633 23.3504C13.1412 22.1969 14.7699 22.4501 14.5171 20.6215C14.2925 19.1586 12.1585 18.9898 10.6983 19.8619C9.09778 20.8184 9.15394 21.7749 6.62678 22.5627C5.39128 22.9565 4.09962 23.0409 3.62227 22C3.20107 21.1279 4.32426 20.2558 5.78439 19.9463C7.21645 19.665 8.59235 20.1714 8.84507 18.7366C9.01355 17.7801 8.17116 16.7954 6.43022 16.8798C4.32426 16.9642 3.7065 19.1023 0.280796 19.2148C1.68477 27.0639 8.50811 33 16.7354 33C21.6213 33 26.0298 30.9182 29.0624 27.5703C29.4836 27.0921 29.0062 26.8389 28.3885 27.0921C26.6475 27.7391 23.3061 29.6522 17.5778 30.046C16.1738 30.1023 14.0398 29.8491 13.9556 28.3018C13.8432 26.1074 17.4936 25.8261 19.3188 25.8542C21.8178 25.9105 24.2608 26.3606 26.816 25.8824C30.2136 25.2353 32.6285 22.844 33.162 19.3274C33.4428 17.3581 31.7299 16.4859 30.4944 17.0767" fill="var(--fill-0, #009FB0)"/>
</g>
<defs>
<clipPath id="clip0_0_4">
<rect width="199" height="33" fill="white"/>
</clipPath>
</defs>
</svg>
