<svg preserveAspectRatio="none" width="100%" height="100%" overflow="visible" style="display: block;" viewBox="0 0 198.972 33.0002" fill="none" xmlns="http://www.w3.org/2000/svg">
<g id="Group 1">
<path id="Vector" d="M54.2778 15.6137C54.2778 15.8388 54.4743 16.0357 54.699 16.0357H59.5848C60.7361 16.0357 61.6627 15.0792 61.6627 13.9258C61.6627 12.7723 60.708 11.8439 59.5567 11.8439H54.699C54.4743 11.8439 54.2778 12.0409 54.2778 12.2659V15.6137ZM66.0993 24.4756C66.0993 24.7007 65.9027 24.8976 65.6781 24.8976C62.3928 24.7288 60.9326 22.8439 57.872 19.8618C57.8158 19.7774 57.6754 19.7493 57.5912 19.7493H54.727C54.5024 19.7493 54.3059 19.9462 54.3059 20.1713V24.2224C54.3059 24.4475 54.1093 24.6444 53.8847 24.6444H50.1782C49.9535 24.6444 49.757 24.4475 49.757 24.2224V8.55237C49.757 8.3273 49.9535 8.13037 50.1782 8.13037H60.4272C63.6002 8.13037 66.2116 10.7186 66.2116 13.9258C66.2116 16.092 65.0323 17.9769 63.2632 18.9616C63.1228 19.046 63.0948 19.2429 63.2352 19.3554C64.3864 20.4526 64.9199 20.7621 65.7623 20.8184C65.9589 20.8184 66.1554 21.0153 66.1554 21.2403V24.4475L66.0993 24.4756Z" fill="var(--fill-0, white)"/>
<path id="Vector_2" d="M74.0458 12.2659V14.1227C74.0458 14.3478 74.2424 14.5447 74.467 14.5447H83.5648C83.7895 14.5447 83.986 14.7416 83.986 14.9667V17.8363C83.986 18.0613 83.7895 18.2582 83.5648 18.2582H74.467C74.2424 18.2582 74.0458 18.4552 74.0458 18.6802V20.5089C74.0458 20.734 74.2424 20.9309 74.467 20.9309H84.7161C84.9407 20.9309 85.1373 21.1278 85.1373 21.3529V24.2506C85.1373 24.4756 84.9407 24.6726 84.7161 24.6726H69.9462C69.7216 24.6726 69.525 24.4756 69.525 24.2506V8.55237C69.525 8.3273 69.7216 8.13037 69.9462 8.13037H84.7161C84.9407 8.13037 85.1373 8.3273 85.1373 8.55237V11.4501C85.1373 11.6751 84.9407 11.8721 84.7161 11.8721H74.467C74.2424 11.8721 74.0458 12.069 74.0458 12.2941" fill="var(--fill-0, white)"/>
<path id="Vector_3" d="M105.86 8.55237V17.4705C105.86 21.7467 101.873 25.1227 97.015 25.1227C92.1572 25.1227 88.1699 21.7186 88.1699 17.4705V8.55237C88.1699 8.3273 88.3384 8.13037 88.5911 8.13037H92.2976C92.5223 8.13037 92.7188 8.3273 92.7188 8.55237V17.4705C92.7188 19.2148 94.7405 20.5933 97.0431 20.5933C99.3456 20.5933 101.367 19.1585 101.367 17.4705V8.55237C101.367 8.3273 101.564 8.13037 101.789 8.13037H105.495C105.72 8.13037 105.916 8.3273 105.916 8.55237" fill="var(--fill-0, white)"/>
<path id="Vector_4" d="M126.723 8.1588C126.948 8.1588 127.144 8.35574 127.144 8.5808V24.2227C127.144 24.4478 126.976 24.6447 126.723 24.6447H122.82C122.82 24.6447 122.596 24.6166 122.511 24.5041C121.613 23.4632 116.39 17.1614 114.2 14.545C114.059 14.3481 113.75 14.4606 113.75 14.7138V24.2509C113.75 24.4759 113.554 24.6729 113.329 24.6729H109.623C109.398 24.6729 109.202 24.4759 109.202 24.2509V8.55267C109.202 8.3276 109.398 8.13067 109.623 8.13067H113.554C113.554 8.13067 113.807 8.18694 113.891 8.29947L122.174 18.2585C122.315 18.4555 122.624 18.3148 122.624 18.0898V8.52453C122.624 8.29947 122.82 8.10254 123.045 8.10254H126.751L126.723 8.1588Z" fill="var(--fill-0, white)"/>
<path id="Vector_5" d="M135.315 24.1101C135.315 24.3914 135.091 24.6165 134.81 24.6165H131.3C131.019 24.6165 130.795 24.3914 130.795 24.1101V8.66508C130.795 8.38375 131.047 8.15869 131.3 8.15869H134.81C135.063 8.15869 135.315 8.41189 135.315 8.66508V24.1101Z" fill="var(--fill-0, white)"/>
<path id="Vector_6" d="M187.094 15.6137C187.094 15.8388 187.291 16.0357 187.515 16.0357H192.401C193.553 16.0357 194.479 15.0792 194.479 13.9258C194.479 12.7723 193.525 11.8439 192.373 11.8439H187.515C187.291 11.8439 187.094 12.0409 187.094 12.2659V15.6137ZM198.916 24.4756C198.916 24.7007 198.719 24.8976 198.495 24.8976C195.209 24.7288 193.749 22.8439 190.688 19.8618C190.632 19.7774 190.492 19.7493 190.408 19.7493H187.515C187.291 19.7493 187.094 19.9462 187.094 20.1713V24.2224C187.094 24.4475 186.898 24.6444 186.673 24.6444H182.967C182.742 24.6444 182.545 24.4475 182.545 24.2224V8.55237C182.545 8.3273 182.742 8.13037 182.967 8.13037H193.188C196.361 8.13037 198.972 10.7186 198.972 13.9258C198.972 16.092 197.793 17.9769 196.024 18.9616C195.883 19.046 195.855 19.2429 195.996 19.3554C197.147 20.4526 197.68 20.7621 198.523 20.8184C198.719 20.8184 198.916 21.0153 198.916 21.2403V24.4475V24.4756Z" fill="var(--fill-0, white)"/>
<path id="Vector_7" d="M151.04 24.6163H148.457C148.316 24.6163 148.176 24.5319 148.12 24.4194L143.936 16.8516C143.824 16.6265 143.459 16.7391 143.459 16.9641V24.2224C143.459 24.4475 143.262 24.6444 143.037 24.6444H139.331C139.106 24.6444 138.91 24.4475 138.91 24.2224V8.55237C138.91 8.3273 139.106 8.13037 139.331 8.13037H143.206C143.346 8.13037 143.459 8.21477 143.543 8.35543L149.496 18.9897C149.608 19.1585 149.833 19.1585 149.917 18.9897L155.87 8.35543C155.926 8.21477 156.066 8.13037 156.207 8.13037H160.082C160.306 8.13037 160.503 8.3273 160.503 8.55237V24.1943C160.503 24.4194 160.306 24.6163 160.082 24.6163H156.375C156.151 24.6163 155.954 24.4194 155.954 24.1943V16.936C155.954 16.6828 155.617 16.5984 155.477 16.8235L151.293 24.3912C151.293 24.3912 151.096 24.5882 150.956 24.5882" fill="var(--fill-0, white)"/>
<path id="Vector_8" d="M168.421 12.2659V14.1227C168.421 14.3478 168.618 14.5447 168.843 14.5447H177.94C178.165 14.5447 178.362 14.7416 178.362 14.9667V17.8363C178.362 18.0613 178.165 18.2582 177.94 18.2582H168.843C168.618 18.2582 168.421 18.4552 168.421 18.6802V20.5089C168.421 20.734 168.618 20.9309 168.843 20.9309H179.092C179.316 20.9309 179.513 21.1278 179.513 21.3529V24.2506C179.513 24.4756 179.316 24.6726 179.092 24.6726H164.322C164.097 24.6726 163.901 24.4756 163.901 24.2506V8.55237C163.901 8.3273 164.097 8.13037 164.322 8.13037H179.092C179.316 8.13037 179.513 8.3273 179.513 8.55237V11.4501C179.513 11.6751 179.316 11.8721 179.092 11.8721H168.843C168.618 11.8721 168.421 12.069 168.421 12.2941" fill="var(--fill-0, white)"/>
<path id="Vector_9" d="M11.288 9.14322C10.3614 9.14322 9.60322 8.38363 9.60322 7.45524C9.60322 6.52685 10.3614 5.76726 11.288 5.76726C12.2146 5.76726 12.9728 6.52685 12.9728 7.45524C12.9728 8.38363 12.2146 9.14322 11.288 9.14322ZM21.1158 0.056266C21.1158 0.056266 21.1158 0.056266 21.0878 0.056266C20.9754 0.028133 20.8631 0 20.7508 0C20.4139 0 20.0769 0.140665 19.8523 0.365729C19.8523 0.393862 19.7961 0.421995 19.768 0.450128L17.7463 2.70077C17.2128 3.29156 16.2581 3.29156 15.7246 2.70077L13.7028 0.450128C13.7028 0.450128 13.6467 0.393862 13.6186 0.365729C13.394 0.140665 13.0851 0 12.7201 0C12.6358 0 12.5516 0 12.4673 0C12.4112 0 12.3831 0 12.3269 0.028133C5.2228 1.99744 0 8.49616 0 16.2327V16.4015C0.842387 16.4015 1.82517 16.2046 2.97644 15.3325C4.07154 14.5166 5.39128 14.0102 6.76718 14.0665C8.62043 14.1509 9.6313 14.9668 10.4737 15.6419C11.2038 16.2327 11.6811 16.6266 12.7762 16.6266C13.8713 16.6266 14.3487 16.2327 15.0787 15.6419C15.9211 14.9386 16.9881 14.0665 19.038 14.0665C21.0878 14.0665 22.1548 14.9386 22.9972 15.6419C23.7272 16.2327 24.2046 16.6266 25.2997 16.6266C26.3948 16.6266 26.8722 16.2327 27.6022 15.6419C28.4727 14.9386 29.5397 14.0665 31.5614 14.0665C32.2634 14.0665 32.825 14.179 33.3305 14.3478C32.5442 7.45524 27.6303 1.82864 21.1158 0.056266Z" fill="var(--fill-0, #009FB0)"/>
<path id="Vector_10" d="M30.4944 17.0488C28.1919 18.1741 29.5116 21.2406 28.5007 22.6473C27.7145 23.7444 25.4681 24.1383 25.3558 22.8161C25.2716 21.8877 26.9002 21.5782 26.4509 20.1434C26.0297 18.8774 24.1765 19.1306 23.4183 19.8621C22.2109 21.0718 22.9971 22.2815 22.3232 22.9849C21.3966 23.9132 19.8242 23.9132 19.5995 22.7598C19.3468 21.4938 20.4138 20.7061 21.0035 19.2713C21.3685 18.371 21.0316 16.8237 19.0098 16.8237C17.4935 16.8237 16.0334 17.724 16.7354 20.7623C17.5497 24.3071 15.4718 23.8851 12.5515 25.1511C10.8387 25.8826 8.84503 27.4861 7.77801 25.8544C7.04794 24.7291 8.67656 23.8288 9.9963 23.3506C13.1412 22.1971 14.7698 22.4503 14.5171 20.6217C14.2925 19.1588 12.1584 18.99 10.6983 19.8621C9.09775 20.8186 9.15391 21.7751 6.62675 22.5629C5.39125 22.9567 4.09958 23.0411 3.62223 22.0002C3.20104 21.1281 4.32422 20.256 5.78436 19.9465C7.21642 19.6652 8.59232 20.1716 8.84503 18.7368C9.01351 17.7803 8.17112 16.7956 6.43019 16.88C4.32422 16.9644 3.70647 19.1025 0.280762 19.215C1.68474 27.0641 8.50808 33.0002 16.7354 33.0002C21.6212 33.0002 26.0297 30.9184 29.0623 27.5705C29.4835 27.0923 29.0062 26.8391 28.3884 27.0923C26.6475 27.7393 23.306 29.6524 17.5778 30.0462C16.1738 30.1025 14.0398 29.8493 13.9555 28.302C13.8432 26.1076 17.4935 25.8263 19.3187 25.8544C21.8178 25.9107 24.2607 26.3608 26.816 25.8826C30.2136 25.2355 32.6284 22.8442 33.162 19.3276C33.4427 17.3583 31.7299 16.4861 30.4944 17.0769" fill="var(--fill-0, #009FB0)"/>
</g>
</svg>
