<svg preserveAspectRatio="none" width="100%" height="100%" overflow="visible" style="display: block;" viewBox="0 0 540.5 89.45" fill="none" xmlns="http://www.w3.org/2000/svg">
<g id="Group 15">
<path id="Vector" d="M147.443 42.3647C147.443 42.9731 147.946 43.4757 148.554 43.4757H161.834C164.956 43.4757 167.469 40.9097 167.469 37.7751C167.416 34.6536 164.85 32.1406 161.715 32.1406H148.541C147.919 32.1406 147.43 32.6432 147.43 33.2649V42.3647H147.443ZM179.545 66.3706C179.545 66.9923 178.99 67.4817 178.381 67.4817C169.453 67.032 165.485 61.9001 157.165 53.8584C156.993 53.6336 156.662 53.5145 156.384 53.5145H148.567C147.946 53.5145 147.456 54.0171 147.456 54.6388V65.63C147.456 66.2516 146.954 66.741 146.345 66.741H136.292C135.671 66.741 135.181 66.2384 135.181 65.63V23.2128C135.181 22.6044 135.684 22.1018 136.292 22.1018H164.096C172.694 22.1018 179.783 29.1382 179.783 37.8412C179.783 43.7005 176.543 48.8456 171.741 51.5173C171.358 51.7422 171.291 52.2977 171.635 52.5755C174.757 55.5382 176.212 56.3714 178.5 56.5434C179.056 56.5434 179.558 57.046 179.558 57.6544V66.3706H179.545Z" fill="var(--fill-0, white)"/>
<path id="Vector_2" d="M201.145 33.2647V38.2907C201.145 38.9124 201.648 39.415 202.256 39.415H226.938C227.56 39.415 228.062 39.9176 228.062 40.526V48.3428C228.062 48.9644 227.56 49.467 226.938 49.467H202.256C201.648 49.467 201.145 49.9696 201.145 50.5781V55.5512C201.145 56.1728 201.648 56.6754 202.256 56.6754H230.059C230.681 56.6754 231.184 57.178 231.184 57.7865V65.6562C231.184 66.2778 230.681 66.7804 230.059 66.7804H189.968C189.36 66.7804 188.857 66.2778 188.857 65.6562V23.2126C188.857 22.5909 189.36 22.0883 189.968 22.0883H230.059C230.681 22.0883 231.184 22.5909 231.184 23.2126V31.0294C231.184 31.651 230.681 32.1536 230.059 32.1536H202.256C201.648 32.1536 201.145 32.6562 201.145 33.2647Z" fill="var(--fill-0, white)"/>
<path id="Vector_3" d="M287.571 23.159V47.3237C287.571 58.8836 276.738 68.0363 263.564 68.0363C250.39 68.0363 239.557 58.8307 239.557 47.3237V23.159C239.557 22.5374 240.007 22.048 240.681 22.048H250.734C251.355 22.048 251.845 22.5506 251.845 23.159V47.3237C251.845 52.0191 257.321 55.749 263.577 55.749C269.834 55.749 275.297 51.8339 275.297 47.3237V23.159C275.297 22.5374 275.799 22.048 276.408 22.048H286.46C287.069 22.048 287.571 22.5506 287.571 23.159Z" fill="var(--fill-0, white)"/>
<path id="Vector_4" d="M344.236 22.1018C344.858 22.1018 345.347 22.6044 345.347 23.2128V65.6432C345.347 66.2648 344.844 66.7674 344.183 66.7674H333.575C333.244 66.7674 332.953 66.6484 332.742 66.3706C330.334 63.5799 316.102 46.4384 310.189 39.349C309.806 38.8464 308.959 39.1242 308.959 39.7987V65.6432C308.959 66.2648 308.457 66.7674 307.848 66.7674H297.795C297.187 66.7674 296.684 66.2648 296.684 65.6432V23.2128C296.684 22.6044 297.187 22.1018 297.795 22.1018H308.457C308.8 22.1018 309.131 22.2737 309.343 22.5515L331.842 49.5731C332.226 50.0757 333.072 49.745 333.072 49.1234V23.2128C333.072 22.6044 333.575 22.1018 334.197 22.1018H344.249H344.236Z" fill="var(--fill-0, white)"/>
<path id="Vector_5" d="M367.529 65.3652C367.529 66.1456 366.908 66.7672 366.193 66.7672H356.643C355.916 66.7672 355.241 66.1456 355.241 65.3652V23.4903C355.241 22.7629 355.916 22.0883 356.643 22.0883H366.193C366.921 22.0883 367.529 22.7629 367.529 23.4903V65.3652Z" fill="var(--fill-0, white)"/>
<path id="Vector_6" d="M508.186 42.3647C508.186 42.9731 508.689 43.4757 509.297 43.4757H522.577C525.699 43.4757 528.212 40.9097 528.212 37.7751C528.159 34.6536 525.593 32.1406 522.458 32.1406H509.284C508.676 32.1406 508.173 32.6432 508.173 33.2649V42.3647H508.186ZM540.275 66.3706C540.275 66.9923 539.72 67.4817 539.111 67.4817C530.183 67.032 526.215 61.9001 517.895 53.8584C517.723 53.6336 517.392 53.5145 517.115 53.5145H509.297C508.689 53.5145 508.186 54.0171 508.186 54.6388V65.63C508.186 66.2516 507.684 66.741 507.062 66.741H497.009C496.388 66.741 495.898 66.2384 495.898 65.63V23.2128C495.898 22.6044 496.401 22.1018 497.009 22.1018H524.813C533.41 22.1018 540.5 29.1382 540.5 37.8412C540.5 43.7005 537.259 48.8456 532.458 51.5173C532.074 51.7422 532.008 52.2977 532.352 52.5755C535.474 55.5382 536.929 56.3714 539.217 56.5434C539.773 56.5434 540.275 57.046 540.275 57.6544V66.3706Z" fill="var(--fill-0, white)"/>
<path id="Vector_7" d="M410.239 66.7531H403.255C402.872 66.7531 402.475 66.5283 402.303 66.1976L390.967 45.657C390.637 45.0485 389.684 45.3263 389.684 46.0008V65.6553C389.684 66.2637 389.182 66.7663 388.573 66.7663H378.521C377.912 66.7663 377.41 66.2637 377.41 65.6553V23.2117C377.41 22.5901 377.912 22.0345 378.521 22.0345H389.076C389.473 22.0345 389.803 22.2594 390.028 22.6562L406.165 51.5163C406.443 51.966 407.052 51.966 407.343 51.5163L423.48 22.6562C423.652 22.2726 424.035 22.0345 424.432 22.0345H434.987C435.609 22.0345 436.112 22.5901 436.112 23.2117V65.6421C436.112 66.2505 435.609 66.7531 434.987 66.7531H424.935C424.313 66.7531 423.824 66.2505 423.824 65.6421V45.9876C423.824 45.3131 422.871 45.0353 422.541 45.6437L411.205 66.1844C411.033 66.5283 410.649 66.7399 410.253 66.7399" fill="var(--fill-0, white)"/>
<path id="Vector_8" d="M457.473 33.2647V38.2907C457.473 38.9124 457.976 39.415 458.585 39.415H483.266C483.875 39.415 484.377 39.9176 484.377 40.526V48.3428C484.377 48.9644 483.875 49.467 483.266 49.467H458.585C457.976 49.467 457.473 49.9696 457.473 50.5781V55.5512C457.473 56.1728 457.976 56.6754 458.585 56.6754H486.388C487.01 56.6754 487.512 57.178 487.512 57.7865V65.6562C487.512 66.2778 487.01 66.7804 486.388 66.7804H446.297C445.688 66.7804 445.185 66.2778 445.185 65.6562V23.2126C445.185 22.5909 445.688 22.0883 446.297 22.0883H486.388C487.01 22.0883 487.512 22.5909 487.512 23.2126V31.0294C487.512 31.651 487.01 32.1536 486.388 32.1536H458.585C457.976 32.1536 457.473 32.6562 457.473 33.2647Z" fill="var(--fill-0, white)"/>
<path id="Vector_9" d="M30.634 24.8128C28.1209 24.8128 26.0839 22.7759 26.0839 20.2629C26.0839 17.7499 28.1209 15.713 30.634 15.713C33.1472 15.713 35.1974 17.7499 35.1974 20.2629C35.1974 22.7759 33.1604 24.8128 30.634 24.8128ZM57.3264 0.171944C57.3264 0.171944 57.2602 0.145491 57.2206 0.132264C56.9163 0.0396793 56.5989 0 56.2682 0C55.3291 0 54.4561 0.383566 53.8476 0.991982C53.7815 1.08457 53.6889 1.16393 53.6228 1.24328L48.1335 7.32744C46.6785 8.95429 44.1257 8.95429 42.6707 7.32744L37.2211 1.26974C37.155 1.17715 37.0756 1.09779 36.9831 1.00521C36.3614 0.383566 35.5016 0.0132264 34.5625 0.0132264C34.3244 0.0132264 34.0995 0.0396793 33.8747 0.092585H33.835C33.7027 0.105811 33.5969 0.145491 33.4779 0.18517C14.1795 5.42284 0 23.0669 0 44.0043V44.454C2.30152 44.4276 4.94695 43.8985 8.05532 41.5839C11.0314 39.3354 14.6292 37.9731 18.346 38.1186C23.3988 38.317 26.15 40.5787 28.3722 42.4039C30.3563 44.0308 31.6393 45.1021 34.6419 45.1021C37.6444 45.1021 38.9274 44.0308 40.9115 42.4039C43.2395 40.4861 46.1362 38.1053 51.6652 38.1053C57.1941 38.1053 60.1041 40.4993 62.432 42.4039C64.4029 44.0308 65.7124 45.1021 68.7017 45.1021C71.691 45.1021 73.0005 44.0308 74.9846 42.4039C77.3126 40.4861 80.2225 38.1053 85.7515 38.1053C87.6297 38.1053 89.1905 38.3831 90.5265 38.8328L90.5529 38.8063C88.4234 20.1835 75.0243 4.95991 57.3264 0.171944Z" fill="var(--fill-0, white)"/>
<path id="Vector_10" d="M82.8148 46.2128C76.5716 49.2284 80.143 57.614 77.4314 61.3571C75.2621 64.333 69.1909 65.4308 68.8999 61.8332C68.6883 59.307 73.0929 58.434 71.8495 54.5983C70.7385 51.1595 65.6592 51.8869 63.6487 53.8577C60.3419 57.0981 62.5112 60.3783 60.6329 62.2961C58.1462 64.8224 53.8474 64.8092 53.2522 61.7142C52.5776 58.2621 55.4479 56.1458 57.0352 52.2176C58.0272 49.7707 57.141 45.5382 51.5988 45.5382C47.4719 45.5382 43.5303 47.9719 45.435 56.2384C47.6439 65.854 41.9695 64.743 34.0464 68.1554C29.3772 70.1659 23.9806 74.4512 21.1103 70.0733C19.0998 67.0047 23.5176 64.6108 27.1551 63.2749C35.6866 60.127 40.1573 60.8677 39.4299 55.8681C38.8479 51.9134 33.0015 51.4769 29.073 53.7783C24.7213 56.3442 24.8932 58.9366 17.9887 61.1058C14.6158 62.1639 11.1635 62.3623 9.84077 59.5979C8.70324 57.2304 11.7323 54.8497 15.7268 54.0428C19.6024 53.2493 23.3589 54.6777 24.007 50.7759C24.4435 48.1835 22.1817 45.525 17.4199 45.7366C11.6926 46.0012 10.0127 51.7547 0.740509 52.0721C4.53669 73.327 23.0944 89.45 45.435 89.45C58.7018 89.45 70.6459 83.7626 78.9393 74.7025C80.0504 73.3931 78.7938 72.745 77.1139 73.3799C72.3786 75.139 63.2916 80.3502 47.7629 81.4083C43.9535 81.5538 38.1468 80.8396 37.9484 76.6733C37.6574 70.7081 47.5249 69.9278 52.5247 70.0336C59.2838 70.1791 65.9635 71.4356 72.8813 70.1394C82.0873 68.42 88.6745 61.8729 90.0898 52.3631C90.8834 47.0328 86.2274 44.6256 82.8281 46.2392" fill="var(--fill-0, white)"/>
</g>
</svg>
