<svg width="541" height="90" viewBox="0 0 541 90" fill="none" xmlns="http://www.w3.org/2000/svg">
<path d="M147.443 42.3645C147.443 42.9729 147.946 43.4755 148.554 43.4755H161.834C164.956 43.4755 167.469 40.9095 167.469 37.7749C167.416 34.6534 164.85 32.1404 161.715 32.1404H148.541C147.919 32.1404 147.43 32.643 147.43 33.2647V42.3645H147.443ZM179.545 66.3704C179.545 66.9921 178.99 67.4815 178.381 67.4815C169.453 67.0318 165.485 61.8999 157.165 53.8582C156.993 53.6334 156.663 53.5143 156.385 53.5143H148.567C147.946 53.5143 147.456 54.0169 147.456 54.6386V65.6298C147.456 66.2514 146.954 66.7408 146.345 66.7408H136.293C135.671 66.7408 135.182 66.2382 135.182 65.6298V23.2126C135.182 22.6042 135.684 22.1016 136.293 22.1016H164.096C172.694 22.1016 179.784 29.138 179.784 37.841C179.784 43.7003 176.543 48.8454 171.741 51.5172C171.358 51.742 171.292 52.2975 171.636 52.5753C174.757 55.538 176.212 56.3713 178.5 56.5432C179.056 56.5432 179.559 57.0458 179.559 57.6542V66.3704H179.545Z" fill="white"/>
<path d="M201.145 33.2647V38.2908C201.145 38.9124 201.648 39.415 202.257 39.415H226.938C227.56 39.415 228.063 39.9176 228.063 40.526V48.3428C228.063 48.9645 227.56 49.4671 226.938 49.4671H202.257C201.648 49.4671 201.145 49.9697 201.145 50.5781V55.5512C201.145 56.1729 201.648 56.6755 202.257 56.6755H230.06C230.682 56.6755 231.184 57.1781 231.184 57.7865V65.6562C231.184 66.2779 230.682 66.7805 230.06 66.7805H189.968C189.36 66.7805 188.857 66.2779 188.857 65.6562V23.2126C188.857 22.591 189.36 22.0884 189.968 22.0884H230.06C230.682 22.0884 231.184 22.591 231.184 23.2126V31.0294C231.184 31.6511 230.682 32.1537 230.06 32.1537H202.257C201.648 32.1537 201.145 32.6563 201.145 33.2647Z" fill="white"/>
<path d="M287.571 23.1589V47.3236C287.571 58.8835 276.738 68.0361 263.564 68.0361C250.39 68.0361 239.557 58.8306 239.557 47.3236V23.1589C239.557 22.5372 240.006 22.0479 240.681 22.0479H250.734C251.355 22.0479 251.845 22.5505 251.845 23.1589V47.3236C251.845 52.0189 257.321 55.7488 263.577 55.7488C269.834 55.7488 275.296 51.8338 275.296 47.3236V23.1589C275.296 22.5372 275.799 22.0479 276.407 22.0479H286.46C287.068 22.0479 287.571 22.5505 287.571 23.1589Z" fill="white"/>
<path d="M344.236 22.1016C344.858 22.1016 345.347 22.6042 345.347 23.2126V65.643C345.347 66.2646 344.845 66.7672 344.183 66.7672H333.575C333.244 66.7672 332.953 66.6482 332.742 66.3704C330.334 63.5797 316.102 46.4382 310.189 39.3488C309.806 38.8462 308.959 39.124 308.959 39.7985V65.643C308.959 66.2646 308.457 66.7672 307.848 66.7672H297.796C297.187 66.7672 296.685 66.2646 296.685 65.643V23.2126C296.685 22.6042 297.187 22.1016 297.796 22.1016H308.457C308.801 22.1016 309.131 22.2735 309.343 22.5513L331.842 49.5729C332.226 50.0755 333.072 49.7448 333.072 49.1232V23.2126C333.072 22.6042 333.575 22.1016 334.197 22.1016H344.249H344.236Z" fill="white"/>
<path d="M367.529 65.3653C367.529 66.1456 366.908 66.7673 366.193 66.7673H356.643C355.916 66.7673 355.241 66.1456 355.241 65.3653V23.4904C355.241 22.7629 355.916 22.0884 356.643 22.0884H366.193C366.921 22.0884 367.529 22.7629 367.529 23.4904V65.3653Z" fill="white"/>
<path d="M508.186 42.3645C508.186 42.9729 508.689 43.4755 509.298 43.4755H522.578C525.699 43.4755 528.212 40.9095 528.212 37.7749C528.159 34.6534 525.593 32.1404 522.458 32.1404H509.284C508.676 32.1404 508.173 32.643 508.173 33.2647V42.3645H508.186ZM540.275 66.3704C540.275 66.9921 539.72 67.4815 539.111 67.4815C530.183 67.0318 526.215 61.8999 517.895 53.8582C517.723 53.6334 517.393 53.5143 517.115 53.5143H509.298C508.689 53.5143 508.186 54.0169 508.186 54.6386V65.6298C508.186 66.2514 507.684 66.7408 507.062 66.7408H497.01C496.388 66.7408 495.898 66.2382 495.898 65.6298V23.2126C495.898 22.6042 496.401 22.1016 497.01 22.1016H524.813C533.411 22.1016 540.5 29.138 540.5 37.841C540.5 43.7003 537.26 48.8454 532.458 51.5172C532.075 51.742 532.008 52.2975 532.352 52.5753C535.474 55.538 536.929 56.3713 539.217 56.5432C539.773 56.5432 540.275 57.0458 540.275 57.6542V66.3704Z" fill="white"/>
<path d="M410.239 66.7532H403.255C402.871 66.7532 402.475 66.5284 402.303 66.1977L390.967 45.6571C390.636 45.0487 389.684 45.3264 389.684 46.001V65.6554C389.684 66.2639 389.181 66.7665 388.573 66.7665H378.52C377.912 66.7665 377.409 66.2639 377.409 65.6554V23.2118C377.409 22.5902 377.912 22.0347 378.52 22.0347H389.076C389.472 22.0347 389.803 22.2595 390.028 22.6563L406.165 51.5164C406.443 51.9661 407.051 51.9661 407.342 51.5164L423.479 22.6563C423.651 22.2727 424.035 22.0347 424.432 22.0347H434.987C435.609 22.0347 436.111 22.5902 436.111 23.2118V65.6422C436.111 66.2506 435.609 66.7532 434.987 66.7532H424.934C424.313 66.7532 423.823 66.2506 423.823 65.6422V45.9877C423.823 45.3132 422.871 45.0354 422.54 45.6438L411.205 66.1845C411.033 66.5284 410.649 66.74 410.252 66.74" fill="white"/>
<path d="M457.474 33.2647V38.2908C457.474 38.9124 457.976 39.415 458.585 39.415H483.266C483.875 39.415 484.378 39.9176 484.378 40.526V48.3428C484.378 48.9645 483.875 49.4671 483.266 49.4671H458.585C457.976 49.4671 457.474 49.9697 457.474 50.5781V55.5512C457.474 56.1729 457.976 56.6755 458.585 56.6755H486.388C487.01 56.6755 487.512 57.1781 487.512 57.7865V65.6562C487.512 66.2779 487.01 66.7805 486.388 66.7805H446.297C445.688 66.7805 445.186 66.2779 445.186 65.6562V23.2126C445.186 22.591 445.688 22.0884 446.297 22.0884H486.388C487.01 22.0884 487.512 22.591 487.512 23.2126V31.0294C487.512 31.6511 487.01 32.1537 486.388 32.1537H458.585C457.976 32.1537 457.474 32.6563 457.474 33.2647Z" fill="white"/>
<path d="M30.634 24.8128C28.1209 24.8128 26.0839 22.7759 26.0839 20.2629C26.0839 17.7499 28.1209 15.713 30.634 15.713C33.1472 15.713 35.1974 17.7499 35.1974 20.2629C35.1974 22.7759 33.1604 24.8128 30.634 24.8128ZM57.3264 0.171944C57.3264 0.171944 57.2602 0.145491 57.2206 0.132264C56.9163 0.0396793 56.5989 0 56.2682 0C55.3291 0 54.4561 0.383566 53.8476 0.991982C53.7815 1.08457 53.6889 1.16393 53.6228 1.24328L48.1335 7.32744C46.6785 8.95429 44.1257 8.95429 42.6707 7.32744L37.2211 1.26974C37.155 1.17715 37.0756 1.09779 36.9831 1.00521C36.3614 0.383566 35.5016 0.0132264 34.5625 0.0132264C34.3244 0.0132264 34.0995 0.0396793 33.8747 0.092585H33.835C33.7027 0.105811 33.5969 0.145491 33.4779 0.18517C14.1795 5.42284 0 23.0669 0 44.0043V44.454C2.30152 44.4276 4.94695 43.8985 8.05532 41.5839C11.0314 39.3354 14.6292 37.9731 18.346 38.1186C23.3988 38.317 26.15 40.5787 28.3722 42.4039C30.3563 44.0308 31.6393 45.1021 34.6419 45.1021C37.6444 45.1021 38.9274 44.0308 40.9115 42.4039C43.2395 40.4861 46.1362 38.1053 51.6652 38.1053C57.1941 38.1053 60.1041 40.4993 62.432 42.4039C64.4029 44.0308 65.7124 45.1021 68.7017 45.1021C71.691 45.1021 73.0005 44.0308 74.9846 42.4039C77.3126 40.4861 80.2225 38.1053 85.7515 38.1053C87.6297 38.1053 89.1905 38.3831 90.5265 38.8328L90.5529 38.8063C88.4234 20.1835 75.0243 4.95991 57.3264 0.171944Z" fill="white"/>
<path d="M82.8146 46.2126C76.5714 49.2283 80.1427 57.6138 77.4311 61.3569C75.2619 64.3328 69.1906 65.4306 68.8996 61.833C68.688 59.3068 73.0926 58.4339 71.8493 54.5982C70.7382 51.1593 65.659 51.8868 63.6485 53.8575C60.3417 57.098 62.5109 60.3781 60.6327 62.296C58.146 64.8222 53.8471 64.809 53.2519 61.714C52.5773 58.2619 55.4476 56.1457 57.0349 52.2174C58.0269 49.7705 57.1407 45.5381 51.5985 45.5381C47.4717 45.5381 43.53 47.9717 45.4347 56.2383C47.6436 65.8539 41.9692 64.7429 34.0461 68.1553C29.377 70.1657 23.9803 74.4511 21.11 70.0731C19.0995 67.0046 23.5173 64.6106 27.1548 63.2747C35.6863 60.1268 40.1571 60.8675 39.4296 55.8679C38.8476 51.9132 33.0012 51.4768 29.0727 53.7782C24.721 56.3441 24.893 58.9365 17.9884 61.1056C14.6155 62.1637 11.1632 62.3621 9.8405 59.5978C8.70297 57.2303 11.732 54.8495 15.7266 54.0427C19.6021 53.2491 23.3586 54.6775 24.0068 50.7758C24.4432 48.1834 22.1814 45.5249 17.4196 45.7365C11.6923 46.001 10.0125 51.7545 0.740234 52.0719C4.53642 73.3268 23.0941 89.4498 45.4347 89.4498C58.7015 89.4498 70.6456 83.7625 78.939 74.7024C80.0501 73.393 78.7935 72.7449 77.1137 73.3797C72.3784 75.1388 63.2913 80.3501 47.7627 81.4082C43.9533 81.5537 38.1466 80.8394 37.9481 76.6731C37.6572 70.708 47.5246 69.9276 52.5244 70.0334C59.2835 70.1789 65.9632 71.4354 72.881 70.1392C82.0871 68.4198 88.6742 61.8727 90.0895 52.3629C90.8831 47.0327 86.2272 44.6255 82.8278 46.2391" fill="white"/>
</svg>
