<svg preserveAspectRatio="none" width="100%" height="100%" overflow="visible" style="display: block;" viewBox="0 0 307 87.0032" fill="none" xmlns="http://www.w3.org/2000/svg">
<g id="Frame 74">
<path id="Union" d="M153.402 82.4844C154.605 82.6256 155.475 83.5105 155.505 84.6523C155.535 85.807 154.739 86.7908 153.493 86.9619C152.554 87.0902 151.636 86.9357 150.987 86.2686C150.183 85.4431 150.191 84.0537 150.979 83.2197C151.61 82.5483 152.515 82.3817 153.402 82.4844ZM136.266 85.2939C136.266 85.6786 136.62 85.978 136.996 86.0039C137.528 86.0381 138.143 85.6746 138.144 85.1104L138.156 82.5908H139.463V86.8809L138.229 86.9023L138.087 86.4268C137.369 87.0768 136.261 87.214 135.438 86.6152C135.149 86.4014 134.958 85.8715 134.958 85.5166L134.945 82.5908H136.252L136.266 85.2939ZM174.823 82.4961C175.49 82.5132 176.109 82.71 176.507 83.1719C176.927 83.6594 177.112 84.2756 177.03 84.9727L173.819 85.002C173.824 85.4724 174.114 85.8453 174.633 85.9736C175.23 86.1233 175.832 85.8875 176.416 85.6865C176.667 85.7166 176.853 86.2555 176.767 86.542C175.879 87.0595 174.676 87.149 173.677 86.7256C172.669 86.2937 172.249 85.131 172.517 84.0918C172.767 83.1308 173.747 82.4681 174.823 82.4961ZM117.229 82.4453C117.926 82.4414 118.562 82.6592 118.985 83.125C119.435 83.6253 119.565 84.2842 119.491 84.9727L116.229 84.9941C116.22 85.4646 116.557 85.8451 117.051 85.9648C117.722 86.1273 118.323 85.9396 118.925 85.5889C119.158 85.7814 119.292 86.1664 119.271 86.5127C118.275 87.043 117.064 87.1837 116.029 86.6748C115.064 86.2 114.666 85.1094 114.935 84.1172C115.207 83.1132 116.102 82.4549 117.229 82.4453ZM129.298 82.9277C130.202 82.4275 131.21 82.2992 132.18 82.6113C132.803 82.8166 133.171 83.317 133.18 83.9883L133.205 85.9346C133.205 86.003 133.565 86.0376 133.573 86.1104L133.625 86.5117C133.638 86.6101 133.612 86.8073 133.556 86.8672C133.442 86.9868 132.305 87.0634 131.847 86.5078C131.115 87.1108 130.12 87.1701 129.397 86.5586C129.06 86.272 128.977 85.7763 129.094 85.3145C129.353 84.3051 131.081 84.2623 131.898 84.1426C131.981 83.8304 131.695 83.4544 131.37 83.3945C130.725 83.2748 130.258 83.3982 129.565 83.7275L129.298 82.9277ZM124.871 82.7441C125.767 82.2781 126.805 82.3893 127.705 82.834L127.489 83.6719C126.961 83.3255 125.797 83.0953 125.589 83.6299C125.551 83.7201 125.693 83.9589 125.806 84.0059L127.121 84.5322V84.5361C127.632 84.7414 127.913 85.1864 127.892 85.6611C127.874 86.1315 127.597 86.5845 127.052 86.7812C126.069 87.1362 125.053 87.0257 124.161 86.5254L124.46 85.6953C125.027 86.0502 126.364 86.3536 126.576 85.7549C126.619 85.6394 126.425 85.3748 126.295 85.3232L125.048 84.8145C124.624 84.6433 124.295 84.2919 124.27 83.9199C124.235 83.4581 124.434 82.9708 124.871 82.7441ZM193.323 82.4873H193.337C194.007 82.5258 194.609 82.7313 195.007 83.21C195.405 83.689 195.556 84.3397 195.418 84.9727L192.189 84.9805C192.168 85.4894 192.506 85.8833 193.038 85.9902C193.705 86.1271 194.245 85.9046 194.864 85.6309C195.007 85.9131 195.102 86.1916 195.167 86.5166C194.12 87.0639 192.869 87.1961 191.822 86.5889C190.909 86.0585 190.615 84.9292 190.939 83.9883C191.273 83.0221 192.246 82.4276 193.323 82.4873ZM188.148 82.5352L189.507 82.582V83.4629L188.131 83.4844C188.131 84.1815 188.049 84.9259 188.196 85.6016V85.5967C188.313 86.1356 189.07 86.0506 189.624 85.7939C189.745 86.0591 189.771 86.4957 189.702 86.8164C189.166 86.9703 188.59 87.0213 188.058 86.9443C187.4 86.846 186.88 86.3585 186.867 85.6914L186.824 83.5225L186.054 83.4541L186.136 82.7354C187.308 82.436 187.213 81.7692 188.074 81.209L188.148 82.5352ZM158.336 83.0615C158.851 82.5611 159.505 82.3553 160.24 82.4922H160.235C160.91 82.6162 161.529 83.147 161.529 83.874V86.8809H160.196L160.119 84.0156C160.106 83.5537 159.435 83.4035 159.093 83.4805C158.751 83.5576 158.293 83.8486 158.293 84.2676L158.284 86.9062L156.981 86.876L156.973 82.5781H158.236L158.336 83.0615ZM110.65 85.7725L113.835 85.7861L113.817 86.8936H109.257L109.239 80.7559L110.642 80.7305L110.65 85.7725ZM179.922 83.2744C180.424 82.5346 181.32 82.1801 182.138 82.6719L181.782 83.7197C181.047 83.3734 180.013 83.6942 179.922 84.4854C179.831 85.2849 179.882 85.999 179.856 86.8926L178.585 86.8838L178.559 82.5986L179.849 82.5693L179.917 83.2705L179.922 83.2744ZM184.643 86.8672L183.306 86.8926L183.279 82.6035L184.63 82.5732L184.643 86.8672ZM142.557 83.0781C143.344 82.1757 144.73 82.2436 145.491 83.2314C145.972 82.6585 146.586 82.4238 147.326 82.458V82.4619C148.231 82.5047 148.967 83.1461 148.958 84.0869L148.936 86.8887H147.642L147.59 84.1172C147.581 83.5911 146.928 83.39 146.564 83.4541C146.028 83.5439 145.716 83.9291 145.716 84.4766V86.8711L144.422 86.8887L144.366 84.0615C144.358 83.6253 143.777 83.4157 143.457 83.4414C143.154 83.4629 142.54 83.7282 142.531 84.1387L142.483 86.8799H141.198V82.5771H142.449L142.557 83.0781ZM171.521 82.5947L169.505 86.8848L168.289 86.876L166.264 82.5996L167.696 82.582L168.925 85.3623L170.137 82.582L171.521 82.5947ZM130.756 85.0967C130.483 85.148 130.271 85.5327 130.349 85.7637C130.435 86.0203 130.756 86.17 131.154 86.1357C131.379 86.1142 131.863 85.8916 131.863 85.6992V84.8828L130.756 85.0967ZM152.853 83.4287C152.173 83.4886 151.749 83.9849 151.731 84.6904C151.71 85.503 152.264 86.076 153.056 86.0205C153.761 85.9692 154.241 85.3539 154.142 84.5371C154.051 83.7973 153.484 83.3732 152.853 83.4287ZM193.172 83.3174C192.687 83.3261 192.255 83.6253 192.255 84.2109L194.198 84.1943C194.107 83.4887 193.644 83.3088 193.172 83.3174ZM117.202 83.3008C116.704 83.3222 116.302 83.6386 116.271 84.2031L118.258 84.1865C118.184 83.4681 117.674 83.2794 117.202 83.3008ZM174.775 83.3213C174.317 83.3385 173.898 83.6209 173.876 84.2021L175.802 84.1895C175.715 83.4925 175.26 83.3042 174.775 83.3213ZM194.483 80.7129L193.319 81.9102L192.186 81.9443L193.142 80.7002L194.483 80.7129ZM174.983 81.8936L173.846 81.9238L174.755 80.7051L176.174 80.6875L174.983 81.8936ZM184.647 80.7168C184.673 81.1744 184.668 81.389 184.634 81.8809L183.306 81.8545V80.6914L184.647 80.7168ZM202.646 53.9434C205.883 52.7373 209.328 52.2973 212.733 52.7207C215.797 53.1655 218.584 54.8249 218.935 58.0967L218.943 58.1006C219.082 59.4178 219.013 60.7396 218.723 62.0654L216.681 71.4746C216.464 72.454 216.273 73.3478 216.117 74.3486H211.154L211.63 71.0596C209.899 73.5914 207.251 74.926 204.183 74.7979C202.404 74.7209 200.664 74.3017 199.297 73.0361C197.596 71.458 197.146 69.1053 197.808 66.9541C198.301 65.3461 199.387 64.0676 200.846 63.1865C203.892 61.3432 209.501 61.0476 213.08 61.2529C213.465 59.8203 213.564 58.2254 212.089 57.3828C211.107 56.8226 209.994 56.6422 208.839 56.6807C206.368 56.7491 204.104 57.3655 201.72 58.3877L202.646 53.9434ZM119.717 54.8506C122.802 52.7764 126.641 52.1131 130.271 52.8701C133.214 53.4817 135.599 55.4451 136.572 58.2422C137.226 60.1154 137.183 61.9887 136.871 63.9346V63.9385C135.625 71.7181 128.168 76.4182 120.491 74.2627C115.93 72.9797 113.831 68.4553 114.298 63.9434C114.679 60.2738 116.614 56.9377 119.717 54.8506ZM162.377 53.3662C165.986 52.066 169.989 52.541 173.599 53.7129L172.422 57.6094C170.068 56.8395 166.973 56.0781 164.835 57.25C164.324 57.528 163.943 57.9903 163.853 58.4863C163.316 61.3687 170.003 62.2371 171.24 66.1631C171.716 67.6771 171.595 69.341 170.838 70.748C168.163 75.7306 159.292 75.354 154.592 73.5449L155.868 69.1787C158.162 70.6457 161.706 71.4239 164.1 70.3076C164.705 70.0253 165.16 69.4432 165.272 68.96C165.67 67.2452 163.992 66.0688 162.572 65.252C161.685 64.7388 160.871 64.2474 160.049 63.6572C157.236 61.6386 156.942 57.7678 159.348 55.2744C160.179 54.4148 161.213 53.7902 162.377 53.3711V53.3662ZM180.068 54.9365C182.916 52.9393 186.382 52.1648 189.779 52.8105H189.784C191.935 53.2212 193.769 54.3463 194.916 56.1768C196.47 58.9225 195.899 62.378 195.103 65.3076L180.177 65.3242C179.727 67.6679 181.064 69.8494 183.388 70.4824C184.227 70.7091 185.097 70.7603 185.984 70.7988C188.321 70.7047 190.429 70.1878 192.701 69.2041L191.805 73.3691C188.273 74.6907 183.634 75.3156 180.021 74.0625C175.762 72.5826 173.984 68.7417 174.486 64.4521C174.932 60.6587 176.922 57.1434 180.068 54.9365ZM98.0615 55.5264C100.468 53.0415 103.8 51.9894 107.076 52.7764C109.365 53.3281 110.975 54.9448 111.442 57.2285H111.438C111.759 58.7766 111.62 60.2564 111.378 61.8516L108.504 74.3359H102.627L103.691 69.6016L105.427 61.7061C105.747 59.9183 105.518 57.455 103.276 57.0615C101.584 56.7621 99.9916 57.3865 98.8145 58.5498C97.6503 59.7003 97.0009 61.1334 96.5205 62.7158L93.8857 74.3271H88L90.4014 63.3145L92.6523 52.9814H98.6289L98.0615 55.5264ZM149.309 54.8848C151.165 53.003 153.822 52.182 156.414 52.7979L155.15 58.2373C154.532 58.1133 153.943 58.028 153.312 57.998C149.651 57.9082 147.166 60.5812 146.365 63.917L143.985 74.332H138.147L139.892 66.4238L142.748 52.9814V52.9854H148.572L147.673 57.0098C148.214 56.2316 148.677 55.5219 149.309 54.8848ZM212.374 64.6914C210.076 64.4947 206.9 64.5545 204.979 65.7646C204.035 66.3591 203.421 67.3302 203.455 68.4463C203.485 69.4342 204.087 70.2604 205.035 70.5684C208.419 71.6585 211.305 69.255 212.08 65.9365L212.084 65.9404L212.374 64.6914ZM130.085 57.9766C129.085 56.8307 127.567 56.4925 126.078 56.7832C122.131 57.5488 120.192 61.9671 120.175 65.5811C120.17 66.6374 120.361 67.6512 120.854 68.5664C121.755 70.2344 123.655 70.9996 125.498 70.5762C130.877 69.3401 132.4 60.6325 130.085 57.9766ZM188.131 56.8047C186.4 56.3471 184.487 56.8562 183.137 58.0664C182.089 59.0073 181.393 60.1969 180.969 61.5312L190.199 61.5439L190.195 61.54C190.706 59.5727 190.286 57.3735 188.131 56.8047ZM166.26 6.94531L168.134 6.38086L170.198 5.9707L170.393 5.8291C170.618 5.78633 170.886 5.7096 171.133 5.58984C173.426 4.45224 175.803 3.78052 178.343 3.41699L181.891 2.9082C182.185 2.86971 182.536 2.99389 182.631 3.2334C182.973 4.10586 181.687 4.13193 181.017 6.06934C180.813 6.66362 180.549 7.1855 180.415 7.88672C181.428 7.0613 182.081 6.13311 182.77 5.11523C182.912 4.90995 183.388 4.72627 183.565 4.91016C184.435 5.82541 183.665 6.92025 183.912 7.07422L184.172 7.23633C184.103 7.70678 183.973 8.23318 183.773 8.68652L182.713 11.0811C182.583 11.3718 182.363 11.8298 182.194 12.1035L181.579 13.1211C181.319 13.5445 181.047 13.9554 180.757 14.3574L199.557 23.9629L152.662 47.9307L152.658 47.9355L105.765 23.9678L126.441 13.3994V13.2285C126.437 13.1815 126.442 13.0826 126.446 13.0312C126.572 11.7908 126.857 9.34874 127.641 8.18555C128.783 8.56615 129.696 9.47738 130.393 10.4609L130.873 11.1367L152.662 0L166.26 6.94531ZM163.858 25.7256L162.923 26.2812C162.858 26.3197 162.793 26.3541 162.729 26.3926C161.807 26.9314 160.851 27.3895 159.877 27.8643C159.834 27.8856 159.798 27.9109 159.764 27.9365C159.759 27.9409 159.751 27.9492 159.751 27.9492C159.535 28.1374 159.508 28.4494 159.361 28.6504C159.318 28.706 159.275 28.7667 159.231 28.8223C159.08 29.0231 158.929 29.2287 158.786 29.4424C158.561 29.7801 158.362 30.1261 158.219 30.498C157.609 31.208 157.055 31.9657 156.38 32.6543C156.293 32.744 156.202 32.8335 156.111 32.9189C156.064 32.9616 156.012 33.0091 155.965 33.0518C154.996 33.9413 153.935 34.6893 152.728 35.1982C152.451 35.3136 152.265 35.2929 152.122 35.2119C151.854 35.0579 151.749 34.6811 151.507 34.6084C151.528 34.758 151.529 35.0573 151.512 35.207C151.667 35.4464 151.857 35.7417 152.069 35.8359C152.878 36.1994 155.419 34.2326 156.09 33.625C156.116 33.5994 156.146 33.5734 156.172 33.5479C156.756 33.0048 157.297 32.4317 157.777 31.8203C157.781 31.8166 157.782 31.8124 157.782 31.8115C157.787 31.803 157.791 31.7985 157.795 31.79C158.089 31.4095 158.362 31.0161 158.608 30.6143C158.708 30.4688 158.951 30.2286 159.037 30.0361L159.651 28.6768C160.88 28.125 162.071 27.5219 163.257 26.8076C163.581 26.611 163.923 26.4824 164.316 26.29L164.213 25.5117L163.858 25.7256ZM158.92 28.5352C158.769 28.595 158.635 28.6718 158.505 28.7529C158.25 28.9197 158.033 29.1214 157.83 29.3438C157.726 29.4548 157.622 29.5657 157.519 29.6768C156.787 30.4466 156.017 31.1318 155.164 31.7861C154.961 31.9401 154.778 32.111 154.588 32.2734C154.246 32.5684 153.887 32.8418 153.39 32.9658C153.411 32.9402 153.433 32.9143 153.454 32.8887C153.48 32.8587 153.502 32.8294 153.528 32.8037C153.533 32.7995 153.532 32.7988 153.532 32.7988C153.852 32.4525 154.203 32.1833 154.566 31.8926C154.579 31.884 154.592 31.8709 154.605 31.8623C154.636 31.8409 154.662 31.8153 154.692 31.7939C155.688 31.0028 156.631 30.2284 157.396 29.1807C156.873 29.3261 156.445 29.5788 156.051 29.9209C155.51 30.3912 154.974 30.8534 154.429 31.3066C153.723 31.8883 152.991 32.4528 152.187 32.9746C152.39 32.6111 152.68 32.3031 152.996 32.0166C153.649 31.4308 154.428 30.9305 154.865 30.2422C154.87 30.2294 154.878 30.2199 154.887 30.207C154.398 30.2712 154.108 30.4257 153.797 30.6309L151.871 31.8965C151.91 31.6873 151.992 31.5506 152.096 31.4268C152.208 31.2985 152.342 31.1868 152.472 31.0244C152.476 31.0159 152.485 31.0115 152.489 31.0029C152.256 31.05 151.961 31.1566 151.788 31.2764H151.784C151.767 31.2892 151.754 31.3026 151.736 31.3154C151.732 31.3198 151.719 31.3281 151.719 31.3281V31.3369C151.658 31.3925 151.616 31.4907 151.581 31.6016C151.529 31.7854 151.512 32.0035 151.533 32.1318L151.788 33.6807C151.797 33.7148 151.81 33.7578 151.832 33.8047C151.871 33.8901 151.927 33.9844 151.992 34.0527C152.031 34.0953 152.074 34.1294 152.113 34.1465C152.247 34.1976 152.571 34.1723 152.731 34.1211C153.246 33.95 153.71 33.7141 154.143 33.4404C154.753 33.0513 155.311 32.5813 155.874 32.0938C156.086 31.9142 156.294 31.7346 156.497 31.5508C156.731 31.3413 156.964 31.1272 157.185 30.9092C157.751 30.3489 158.263 29.7451 158.665 29.0352C158.756 28.8728 158.842 28.7061 158.92 28.5352ZM153.294 32.9492C153.324 32.9492 153.346 32.971 153.346 33.001C153.345 33.0178 153.333 33.0344 153.32 33.043C153.312 33.0515 153.303 33.0518 153.294 33.0518C153.285 33.0517 153.281 33.0479 153.272 33.0479C153.264 33.0438 153.252 33.0281 153.251 33.0264C153.242 33.018 153.242 33.0094 153.242 33.001C153.242 32.9925 153.246 32.9793 153.255 32.9707C153.264 32.9579 153.277 32.9493 153.294 32.9492ZM129.437 25.0967C129.406 25.1565 129.411 25.3784 129.445 25.4727C130.06 27.2005 131.843 29.0402 133.578 30.1992C133.903 30.4173 134.228 30.61 134.539 30.7725C138.628 32.9064 143.095 33.3894 147.539 32.7949H147.561V32.7988C147.578 32.7946 147.599 32.7911 147.616 32.791C148.845 32.6242 150.07 32.3754 151.286 32.0547C151.329 31.8539 151.342 31.6149 151.316 31.4141L150.287 31.6104L148.94 31.8711C147.106 32.2218 145.305 32.508 143.414 32.4268C142.839 32.4011 142.272 32.3545 141.71 32.2861C139.953 32.0723 138.243 31.653 136.564 31.0586C135.123 30.5497 133.825 29.8267 132.635 28.9072C132.522 28.8174 132.409 28.7279 132.297 28.6338C131.098 27.6245 130.202 26.4139 129.437 25.0967ZM181.869 3.55859C178.009 4.02476 174.638 4.57594 171.436 6.58594C170.631 7.09058 169.943 7.77093 169.51 8.60059C169.466 8.68185 169.432 8.76347 169.393 8.84473C169.384 8.86169 169.38 8.87459 169.371 8.8916C169.332 8.97706 169.298 9.06262 169.268 9.15234C168.969 9.99916 169.246 10.8805 169.657 11.6289C169.713 11.7357 169.774 11.8382 169.839 11.9365C169.964 12.1333 170.098 12.3131 170.241 12.4756C170.315 12.5568 170.388 12.6382 170.462 12.7109C170.726 12.9718 171.016 13.1899 171.323 13.3652C171.808 13.6474 172.344 13.8318 172.911 13.9473C173.218 14.0114 173.539 14.054 173.868 14.084C173.738 14.0198 173.608 13.9557 173.482 13.8916C173.292 13.7933 173.106 13.6948 172.929 13.5879C172.808 13.5195 172.691 13.4461 172.578 13.3691C172.063 13.0313 171.609 12.6298 171.254 12.0996C171.211 12.0397 171.176 11.9753 171.137 11.9111C171.124 11.8899 171.115 11.8728 171.103 11.8516C171.077 11.8088 171.05 11.7609 171.028 11.7139C171.016 11.6926 171.007 11.6667 170.994 11.6455C170.968 11.5986 170.946 11.5473 170.925 11.4961C170.92 11.4791 170.912 11.4623 170.903 11.4453C170.877 11.3812 170.852 11.3122 170.83 11.248C170.821 11.2225 170.812 11.1929 170.804 11.1631C170.791 11.1246 170.778 11.0815 170.765 11.043C170.756 11.0089 170.748 10.9745 170.739 10.9404C170.731 10.9019 170.722 10.8672 170.713 10.833C170.704 10.7989 170.695 10.7601 170.687 10.7217C170.686 10.7046 170.679 10.6833 170.679 10.6621C170.661 10.5767 170.648 10.4871 170.64 10.3975C170.635 10.3761 170.631 10.3544 170.631 10.333C170.627 10.286 170.622 10.2345 170.622 10.1875V10.1318C170.613 9.9009 170.627 9.6655 170.661 9.43457C170.665 9.42187 170.665 9.41314 170.665 9.40039C170.726 9.04555 170.834 8.6992 171.007 8.38281C170.912 8.69915 170.865 9.0113 170.852 9.31055C170.795 10.5806 171.418 11.6971 172.322 12.5781C172.327 12.5824 172.332 12.5866 172.336 12.5908C172.388 12.6379 172.435 12.6854 172.487 12.7324C172.5 12.7409 172.509 12.7532 172.521 12.7617C172.569 12.8045 172.621 12.8479 172.669 12.8906C172.682 12.8992 172.699 12.912 172.712 12.9248C172.76 12.9676 172.812 13.0064 172.859 13.0449C172.872 13.0577 172.89 13.0703 172.907 13.083C172.955 13.1214 173.006 13.1559 173.054 13.1943C173.067 13.2029 173.084 13.2157 173.102 13.2285C173.149 13.2627 173.201 13.3008 173.253 13.335C173.266 13.3392 173.275 13.3479 173.288 13.3564C173.453 13.4676 173.621 13.5745 173.79 13.6729C173.816 13.6856 173.846 13.7027 173.872 13.7197C173.911 13.7411 173.95 13.7628 173.989 13.7842C174.024 13.8013 174.058 13.8228 174.093 13.8398L174.317 13.9512C174.352 13.9683 174.387 13.9858 174.422 14.0029C174.461 14.0241 174.499 14.0406 174.538 14.0576C174.573 14.0747 174.608 14.0926 174.643 14.1055C174.681 14.1225 174.725 14.1392 174.764 14.1562C174.794 14.1691 174.828 14.1825 174.858 14.1953C174.902 14.2124 174.945 14.229 174.988 14.2461C175.018 14.2589 175.049 14.2675 175.079 14.2803C175.127 14.2974 175.175 14.3149 175.223 14.332C175.248 14.3405 175.27 14.3489 175.296 14.3574C175.369 14.383 175.443 14.4045 175.512 14.4258C174.508 14.5925 173.564 14.5669 172.591 14.5498L171.886 15.7217C171.89 15.5421 171.908 15.3966 171.934 15.2598C171.947 15.1914 171.959 15.123 171.977 15.0547C171.985 15.0119 171.998 14.9644 172.011 14.9131C172.019 14.8876 172.025 14.8624 172.033 14.8369C172.055 14.7599 172.076 14.6781 172.102 14.584C172.11 14.5541 172.119 14.5244 172.128 14.4902C172.046 14.4689 171.903 14.4429 171.756 14.4258C171.721 14.4215 171.682 14.4131 171.647 14.4131C171.63 14.4088 171.613 14.4092 171.596 14.4092C171.514 14.4092 171.436 14.4049 171.384 14.4092C171.25 14.7084 171.136 14.9819 170.998 15.2256C170.946 15.3239 170.886 15.4184 170.821 15.5039C170.787 15.5509 170.751 15.5891 170.717 15.6318L171.007 14.2637C170.951 14.1696 170.739 14.0747 170.574 14.0576H170.479C170.467 14.0576 170.453 14.0625 170.44 14.0625C170.406 14.0753 170.375 14.0925 170.362 14.1182C170.332 14.1865 170.298 14.2552 170.268 14.3193C170.207 14.4519 170.146 14.5801 170.085 14.7041C169.938 15.0162 169.782 15.3074 169.57 15.5811C169.592 15.3629 169.636 15.1655 169.696 14.9688C169.796 14.6438 169.934 14.3358 170.06 13.998C170.068 13.9854 170.068 13.9726 170.068 13.96C170.073 13.93 170.064 13.904 170.051 13.874C170.042 13.8612 170.033 13.8439 170.024 13.8311C169.929 13.6815 169.7 13.5236 169.531 13.5107C169.501 13.5065 169.466 13.511 169.44 13.5195L168.523 15.2725C168.515 15.2212 168.515 15.161 168.515 15.1055C168.523 14.819 168.653 14.4856 168.787 14.165C168.813 14.1009 168.839 14.0368 168.865 13.9727C168.891 13.9129 168.917 13.8488 168.938 13.7891C169.129 13.3058 169.207 12.9078 168.709 12.8223L167.692 14.6484C167.688 14.6228 167.688 14.5924 167.688 14.5625C167.688 14.4428 167.705 14.3187 167.735 14.1904C167.757 14.0964 167.792 13.9938 167.826 13.8955C167.852 13.8314 167.878 13.7628 167.904 13.6943C167.956 13.5575 168.017 13.4206 168.077 13.2881C168.12 13.1855 168.164 13.0875 168.203 12.9893C168.229 12.9251 168.255 12.8601 168.276 12.7959C168.345 12.608 168.389 12.4331 168.389 12.2793V12.2021C168.38 12.1295 168.359 12.0608 168.324 12.001C168.303 11.9625 168.272 11.9238 168.233 11.8896C168.216 11.8726 168.194 11.8598 168.173 11.8428L167.043 13.7676C167.052 13.6736 167.065 13.5835 167.078 13.498C167.108 13.3227 167.151 13.1596 167.203 12.9971C167.229 12.9159 167.26 12.8347 167.29 12.7578C167.351 12.5997 167.424 12.4459 167.502 12.292C167.541 12.215 167.58 12.1375 167.623 12.0605C167.666 11.9836 167.71 11.9064 167.753 11.8252C167.77 11.7954 167.783 11.7652 167.796 11.7354C167.8 11.7228 167.808 11.7145 167.809 11.7061C167.817 11.6889 167.826 11.6669 167.835 11.6455C167.839 11.6329 167.848 11.624 167.848 11.6113C167.852 11.5901 167.861 11.5731 167.865 11.5518C167.87 11.5389 167.874 11.5304 167.874 11.5176C167.878 11.4962 167.887 11.4745 167.887 11.4531C167.891 11.4447 167.892 11.4323 167.892 11.4238C167.896 11.3982 167.904 11.3675 167.904 11.3418V11.3291C167.986 10.6192 167.675 9.72074 168.312 8.43359C168.316 8.42545 168.319 8.42114 168.319 8.41699C168.345 8.3658 168.372 8.31875 168.397 8.26758C168.397 8.25922 168.406 8.25046 168.406 8.24609C168.437 8.19478 168.467 8.14311 168.497 8.0918C168.687 7.77532 168.93 7.44165 169.25 7.07812C168.393 6.9841 167.761 7.30947 167.112 7.53613C167.091 7.54465 167.073 7.54908 167.052 7.55762C167 7.57471 166.947 7.5913 166.896 7.6084C166.887 7.6126 166.879 7.61715 166.87 7.61719C166.693 7.66851 166.515 7.7243 166.342 7.78418C165.126 8.19475 164.027 8.75955 162.88 9.37109C159.812 11.0048 157.094 13.057 154.558 15.375C154.077 15.8155 153.602 16.2651 153.13 16.7227C152.407 17.424 151.663 18.0829 150.893 18.7158C149.75 19.6524 148.556 20.5294 147.331 21.3848C145.349 22.7704 143.224 23.8561 140.952 24.5703C139.918 24.8954 138.857 25.1441 137.767 25.3066C137.265 25.3836 136.763 25.3916 136.261 25.3574C136.192 25.3531 136.118 25.3451 136.049 25.3408H136.04C135.971 25.3323 135.906 25.3279 135.837 25.3193H135.807C135.746 25.3108 135.686 25.3064 135.625 25.2979C135.603 25.2979 135.578 25.2892 135.552 25.2891C135.508 25.2848 135.46 25.2767 135.417 25.2725C135.361 25.2639 135.309 25.2546 135.257 25.2461C135.244 25.2418 135.226 25.2373 135.209 25.2373C134.924 25.1946 134.638 25.1435 134.356 25.0879H134.379C134.37 25.0836 134.365 25.0791 134.356 25.0791C134.348 25.0749 134.335 25.0706 134.322 25.0664C134.309 25.0621 134.292 25.0541 134.274 25.0498C134.253 25.0413 134.235 25.0368 134.214 25.0283C134.192 25.0198 134.166 25.0114 134.141 25.0029C134.128 24.9987 134.115 24.9935 134.102 24.9893C134.089 24.985 134.075 24.9808 134.062 24.9766C134.041 24.9723 134.015 24.9636 133.993 24.9551C133.989 24.9509 133.98 24.9473 133.972 24.9473C133.95 24.943 133.924 24.9343 133.902 24.9258C133.894 24.9257 133.881 24.917 133.872 24.917C133.851 24.9127 133.829 24.904 133.808 24.8955C133.795 24.8912 133.781 24.8871 133.769 24.8828C133.747 24.8743 133.73 24.8698 133.708 24.8613C133.695 24.8571 133.677 24.849 133.66 24.8447C133.643 24.8405 133.626 24.8314 133.608 24.8271C133.591 24.8186 133.569 24.8142 133.552 24.8057C133.535 24.8014 133.522 24.7934 133.505 24.7891C133.483 24.7848 133.461 24.7761 133.439 24.7676C133.426 24.759 133.413 24.7543 133.4 24.75C133.379 24.7415 133.353 24.7331 133.331 24.7246C133.318 24.7204 133.305 24.7162 133.292 24.7119C133.266 24.7034 133.245 24.695 133.219 24.6865C133.21 24.6822 133.197 24.6729 133.188 24.6729C133.163 24.6643 133.136 24.6521 133.11 24.6436C133.102 24.6434 133.093 24.635 133.085 24.6348C133.059 24.6262 133.033 24.613 133.007 24.6045C132.998 24.6003 132.994 24.5968 132.985 24.5967C132.959 24.5839 132.933 24.5753 132.907 24.5625C132.903 24.5582 132.894 24.5537 132.89 24.5537C132.864 24.5409 132.837 24.5323 132.812 24.5195C132.807 24.5153 132.803 24.5107 132.799 24.5107C132.773 24.498 132.751 24.4893 132.726 24.4766C132.722 24.4729 132.715 24.4727 132.713 24.4727C132.691 24.4599 132.665 24.4512 132.644 24.4385C132.644 24.4346 132.636 24.4336 132.635 24.4336C132.609 24.4208 132.591 24.4122 132.569 24.3994C132.565 24.3953 132.561 24.3955 132.561 24.3955C132.539 24.3828 132.522 24.374 132.505 24.3613C132.501 24.3572 132.496 24.3565 132.496 24.3564C132.483 24.348 132.466 24.3357 132.453 24.3271C132.449 24.3233 132.445 24.3191 132.444 24.3184C132.431 24.3055 132.418 24.2966 132.409 24.2881C132.405 24.2839 132.4 24.2793 132.4 24.2793C132.392 24.2709 132.383 24.2623 132.379 24.2539C132.375 24.2496 132.375 24.2412 132.375 24.2412C132.371 24.2327 132.366 24.224 132.366 24.2197V24.1904C132.371 24.1733 132.388 24.1558 132.414 24.1387L133.383 24.5195L133.219 23.5957C133.21 23.5487 133.202 23.4966 133.197 23.4453C133.145 22.9494 133.24 22.3251 133.664 21.9873C133.837 21.8504 134.037 21.7435 134.249 21.6494C134.573 21.5084 134.928 21.4098 135.257 21.3115C135.46 21.2516 135.664 21.1917 135.863 21.1318C136.915 20.8068 137.928 20.4474 138.884 19.9043C137.226 19.4723 135.85 18.7926 134.651 17.6807C133.864 16.9493 133.05 16.1921 132.509 15.2598C132.492 15.2342 132.479 15.2085 132.462 15.1787L130.691 12.0098C130.683 11.9927 130.67 11.9751 130.661 11.958V11.9541C130.653 11.9414 130.64 11.9242 130.631 11.9072C130.631 11.9029 130.622 11.8939 130.622 11.8896C130.613 11.8726 130.601 11.851 130.588 11.834C130.584 11.8297 130.579 11.8256 130.579 11.8213C130.566 11.7999 130.553 11.7782 130.536 11.7568C130.467 11.6585 130.389 11.5514 130.298 11.4316C129.631 10.555 128.398 9.25968 127.658 9.31055L127.614 9.30664C127.303 10.6367 127.099 11.8856 127.052 13.083C127.047 13.2198 127.043 13.3524 127.043 13.4893V13.9766C127.043 14.0878 127.052 14.1993 127.057 14.3105V14.3789C127.065 14.5115 127.078 14.6487 127.091 14.7812V14.7979C127.104 14.9219 127.116 15.042 127.134 15.166C127.138 15.1959 127.147 15.226 127.147 15.2559C127.165 15.3627 127.182 15.4654 127.199 15.5723C127.204 15.5979 127.208 15.6238 127.212 15.6494C127.234 15.7776 127.26 15.9099 127.29 16.0381C127.294 16.0424 127.294 16.0514 127.294 16.0557C127.32 16.1753 127.351 16.2954 127.381 16.415C127.389 16.4448 127.399 16.4787 127.407 16.5127C127.437 16.6109 127.463 16.7094 127.493 16.8076C127.506 16.8376 127.515 16.8724 127.523 16.9023C127.562 17.0306 127.606 17.1549 127.649 17.2832C127.654 17.2875 127.658 17.2955 127.658 17.3037C127.701 17.4192 127.744 17.5398 127.792 17.6553C127.805 17.6893 127.822 17.7277 127.835 17.7617C127.874 17.8557 127.913 17.9499 127.956 18.0439C127.973 18.0781 127.987 18.1124 128.004 18.1465C128.06 18.2705 128.121 18.3994 128.182 18.5234C128.185 18.5236 128.185 18.5296 128.186 18.5312C128.246 18.651 128.311 18.7758 128.376 18.8955C128.393 18.9297 128.415 18.9639 128.433 18.998C128.485 19.0963 128.54 19.1908 128.597 19.2891C128.614 19.3231 128.636 19.3527 128.653 19.3867C128.731 19.515 128.809 19.6393 128.892 19.7676C128.731 20.2765 128.692 20.7689 128.731 21.2607C128.749 21.5129 128.787 21.7651 128.839 22.0215C128.964 22.6502 129.146 23.2364 129.389 23.7881C129.709 24.5193 130.137 25.1992 130.674 25.8535C133.656 29.476 138.326 30.9899 142.956 31.1738C146.833 31.3278 150.599 30.6612 154.221 29.2969C154.277 29.2755 154.329 29.2577 154.385 29.2363C155.224 28.9113 156.055 28.5863 156.873 28.2441C158.331 27.6368 159.751 26.9741 161.141 26.1914L164.044 24.5537C164.04 24.4553 164.032 24.352 164.019 24.2451C163.988 23.9801 163.945 23.7023 163.919 23.4287C163.876 22.9668 163.875 22.509 164.074 22.1455C164.139 22.0215 164.23 21.906 164.347 21.8076L165.567 20.7725L166.441 20.0283C166.398 20.1736 166.347 20.3106 166.286 20.4346C165.996 21.0289 165.516 21.4269 165.122 21.8203C164.707 22.2266 164.39 22.629 164.477 23.2363L164.771 25.2676C164.819 25.6183 164.862 25.948 164.918 26.2773C164.979 26.6323 165.053 26.9959 165.165 27.3936C165.671 27.1327 166.134 26.8454 166.559 26.5332C168.276 25.2758 169.372 23.6168 170.06 21.4785L168.735 23.0654C168.311 23.5743 167.926 24.0961 167.502 24.5879C167.238 24.9001 166.952 25.2035 166.632 25.4814C166.891 25.0582 167.169 24.6735 167.454 24.293C167.766 23.8738 168.09 23.4667 168.41 23.0391C168.769 22.56 170.389 20.4135 170.289 19.665C170.285 19.618 170.267 19.5756 170.245 19.5371L169.817 20.0801L168.402 21.8848C167.913 22.5049 167.459 23.1465 166.87 23.6982C166.684 23.8693 166.485 24.0359 166.269 24.1855L167.55 22.501L168.363 21.4316L170.024 19.0576L170.133 18.9082C170.193 18.8141 170.505 18.7284 170.583 18.8096C170.587 18.8138 170.596 18.8271 170.596 18.8271L170.877 20.9521C172.037 20.2123 173.058 19.3401 174.066 18.4121C174.382 18.117 174.703 17.817 175.023 17.5176C176.014 16.5853 176.876 15.5886 177.693 14.5537L176.629 14.5156L176.442 14.5068C176.78 14.3914 177.113 14.2847 177.438 14.165C177.489 14.1479 177.538 14.1265 177.59 14.1094C177.594 14.1053 177.602 14.1007 177.606 14.1006C178.078 13.921 178.529 13.7114 178.936 13.4248C179.134 13.2837 179.325 13.1213 179.502 12.9375C180.692 11.6929 181.567 10.2218 182.346 8.69922C182.666 8.07047 183.661 6.3252 183.241 5.70508C182.319 6.91539 181.441 8.01904 180.281 8.99414C179.909 9.31063 179.663 9.69169 179.446 10.1279C179.035 10.9533 178.131 11.714 177.481 11.2051C177.365 11.111 177.325 10.7048 177.403 10.5723L178.52 8.69043L179.546 6.7959C179.641 7.8436 177.94 10.14 178.139 10.6279C178.26 10.923 179.057 9.92203 179.269 9.41309C179.701 8.38245 180.039 7.36856 180.363 6.30371C180.675 5.27323 181.103 4.43089 181.869 3.55859ZM183.558 7.06543C182.67 8.78045 182.003 10.4567 181.068 12.0049C180.679 12.6549 180.225 13.2537 179.731 13.8311C179.723 13.8438 179.71 13.8525 179.701 13.8652C179.584 14.0064 179.463 14.1395 179.342 14.2764C179.325 14.2975 179.303 14.3187 179.286 14.3398C179.161 14.4767 179.035 14.6142 178.905 14.751C178.888 14.768 178.875 14.7847 178.857 14.8018C178.723 14.9429 178.589 15.0848 178.455 15.2217C178.442 15.2387 178.425 15.2516 178.412 15.2686C178.291 15.3926 178.169 15.5166 178.048 15.6406C178.022 15.6661 178 15.6874 177.975 15.7129C176.27 17.4407 174.534 19.0921 172.608 20.542C172.124 20.9055 171.626 21.2559 171.115 21.5938C170.717 21.8546 170.669 22.0771 170.587 22.4492L169.012 25.2803C168.211 26.7215 166.455 27.5861 164.823 27.9668L164.606 27.209L164.369 26.375L164.33 26.7432L164.295 27.0557L164.845 28.3604C164.858 28.3946 164.897 28.4499 164.914 28.4883C166.558 28.1803 168.012 27.1199 169.008 25.8027C169.064 25.7258 169.12 25.6522 169.172 25.5752C170.254 24.0314 169.951 24.3908 170.691 22.5518C172.595 21.5253 174.279 20.08 175.867 18.5361L178.528 15.9482C179.048 15.4479 179.502 14.913 179.922 14.3613C179.935 14.3443 179.948 14.3276 179.961 14.3105C179.987 14.2721 180.013 14.2373 180.039 14.2031C180.078 14.152 180.113 14.101 180.151 14.0498C180.623 13.3955 181.047 12.7152 181.458 12.0225C182.055 11.0217 182.705 10.0331 183.146 8.87402L183.142 8.86621C183.362 8.28888 183.726 7.70689 183.558 7.06543ZM164.551 13.874L164.049 14.6562L163.85 14.25C163.651 14.4125 163.508 14.5537 163.399 14.6777C163.322 14.7675 163.265 14.8533 163.213 14.9346C163.105 15.114 163.04 15.2852 162.945 15.4902C162.911 15.5672 162.871 15.6488 162.823 15.7344C162.81 15.7599 162.798 15.7815 162.785 15.8027C162.759 15.8454 162.728 15.8922 162.698 15.9434C162.668 15.9903 162.634 16.0422 162.595 16.0977L162.525 15.4268C162.162 15.4097 161.971 15.8286 161.789 16.2734C161.767 16.3247 161.746 16.3804 161.725 16.4316C161.673 16.5599 161.616 16.6922 161.56 16.8076C161.469 16.9958 161.365 17.1541 161.235 17.2354L161.387 16.1748C161.196 16.3073 161.045 16.4439 160.924 16.585C160.798 16.7261 160.703 16.8718 160.621 17.0215C160.539 17.171 160.47 17.3292 160.4 17.4873C160.387 17.513 160.378 17.5437 160.365 17.5693C160.344 17.6205 160.322 17.676 160.296 17.7314C160.283 17.7569 160.271 17.787 160.258 17.8125C160.236 17.8681 160.206 17.9239 160.18 17.9795C160.123 18.0906 160.063 18.2059 159.989 18.3213C159.916 18.4367 159.833 18.557 159.738 18.6768L159.941 17.4873C159.76 17.5642 159.604 17.6672 159.475 17.791C159.384 17.8766 159.306 17.9671 159.236 18.0654C159.167 18.1637 159.102 18.2701 159.041 18.377C158.954 18.5395 158.873 18.7114 158.795 18.8867C158.717 19.0619 158.639 19.2412 158.553 19.4121C158.466 19.5832 158.375 19.7503 158.263 19.9043L158.357 19.3057L158.453 18.707C158.349 18.7626 158.258 18.8265 158.172 18.8906C158.116 18.9334 158.059 18.9764 158.012 19.0234C157.964 19.0704 157.916 19.1171 157.873 19.1641C157.851 19.1854 157.834 19.2116 157.812 19.2373C157.774 19.2885 157.735 19.3395 157.7 19.3906C157.683 19.4163 157.665 19.4421 157.647 19.4678C157.297 20.0152 157.158 20.6608 156.704 21.2168L156.882 20.0029C156.722 20.0628 156.584 20.1609 156.467 20.2891C156.389 20.3745 156.315 20.4684 156.25 20.5752C156.22 20.6265 156.186 20.6827 156.155 20.7383C156.09 20.8538 156.029 20.9736 155.973 21.0977C155.96 21.1275 155.943 21.1616 155.93 21.1914C155.899 21.2555 155.874 21.3197 155.844 21.3838C155.831 21.4137 155.813 21.4486 155.8 21.4785C155.77 21.5425 155.739 21.6069 155.709 21.6709C155.679 21.7348 155.644 21.7945 155.614 21.8584C155.519 22.0466 155.41 22.2265 155.289 22.3848C155.246 22.4403 155.202 22.4921 155.159 22.5391L155.523 21.1748C155.489 21.1919 155.454 21.2046 155.419 21.2217C155.25 21.3028 155.116 21.3965 155.004 21.499C154.982 21.5204 154.96 21.5421 154.938 21.5635C154.856 21.6489 154.792 21.743 154.731 21.8369C154.571 22.0978 154.476 22.3937 154.351 22.6846C154.238 22.9496 154.095 23.2102 153.849 23.4453L154.108 22.1797C154.052 22.1925 154 22.2052 153.952 22.2266C153.706 22.3292 153.537 22.5387 153.398 22.791C153.368 22.8381 153.342 22.894 153.316 22.9453C153.213 23.1548 153.117 23.3852 153.013 23.5947C152.987 23.646 152.961 23.6977 152.931 23.749C152.918 23.7747 152.901 23.7966 152.888 23.8223C152.784 23.9889 152.663 24.1341 152.507 24.2324L152.685 23.6289L152.861 23.0264C152.585 23.0777 152.381 23.223 152.217 23.4111C152.117 23.5223 152.035 23.6551 151.957 23.792C151.801 24.0699 151.671 24.3736 151.498 24.6387C151.438 24.7241 151.377 24.8059 151.308 24.8828L151.416 23.9375C150.936 24.0829 150.689 24.3007 150.533 24.5273C150.494 24.5829 150.464 24.6384 150.434 24.6982C150.412 24.7367 150.395 24.776 150.378 24.8145C150.339 24.9084 150.3 25.0021 150.261 25.0918C150.243 25.1259 150.226 25.1602 150.209 25.1943C150.187 25.2243 150.17 25.2591 150.148 25.2891C150.105 25.3489 150.057 25.4042 149.992 25.4512C149.962 25.4725 149.928 25.4943 149.889 25.5156L150.113 24.6768C149.871 24.711 149.694 24.7841 149.551 24.8867C149.378 25.0065 149.257 25.1651 149.127 25.3447C149.084 25.4045 149.041 25.4643 148.993 25.5283C148.967 25.5582 148.945 25.5921 148.919 25.6221C148.871 25.6861 148.815 25.7504 148.755 25.8145L148.78 25.374C148.097 25.699 147.413 25.9949 146.721 26.2686C146.028 26.5422 145.327 26.7943 144.604 27.0381C144.427 27.0979 144.228 27.1579 144.021 27.2178C143.912 27.2477 143.808 27.2728 143.695 27.3027C143.527 27.3455 143.358 27.3844 143.181 27.4229C143.06 27.4485 142.942 27.4747 142.821 27.4961C142.038 27.6457 141.198 27.7437 140.463 27.7266C140.238 27.7223 140.022 27.7096 139.818 27.6797C139.771 27.6754 139.719 27.6668 139.671 27.6582L139.688 27.6621C139.541 27.6365 139.403 27.6072 139.277 27.5645C139.714 27.5816 140.138 27.5764 140.554 27.5508C140.865 27.5337 141.169 27.5043 141.472 27.4658C142.679 27.3118 143.813 26.9992 144.916 26.5801C145.011 26.5459 145.102 26.5121 145.193 26.4736C145.929 26.1828 146.656 25.8447 147.383 25.4727C147.746 25.2845 148.115 25.0916 148.482 24.8906C150.209 23.9498 151.75 22.876 153.26 21.6572C153.472 21.4862 153.688 21.3065 153.904 21.127C154.597 20.5453 155.29 19.9808 155.986 19.4248C158.081 17.7569 160.223 16.1919 162.486 14.7207C163.352 14.1563 164.204 13.66 165.13 13.2666C165.437 13.1383 165.758 13.0141 166.087 12.9072L164.551 13.874ZM166.961 22.2871C166.745 22.5737 166.515 22.8221 166.269 23.083C166.083 23.2797 165.888 23.4763 165.685 23.6943C165.62 23.767 165.546 23.8439 165.477 23.9209C165.468 23.9124 165.468 23.8997 165.468 23.8828V23.8311C165.485 23.7156 165.563 23.5443 165.649 23.4502C165.957 23.1209 166.203 22.8043 166.454 22.4707V22.458C166.536 22.3469 166.619 22.2358 166.705 22.1162L168.428 19.7471C168.471 19.683 168.518 19.6182 168.562 19.5498C168.605 19.4814 168.653 19.4128 168.696 19.3486C168.74 19.2846 168.787 19.2203 168.835 19.1562C168.956 18.9981 169.086 18.8523 169.25 18.7412C169.345 18.6728 169.454 18.6176 169.579 18.5791C169.661 18.5535 169.752 18.5363 169.848 18.5234L166.961 22.2871ZM141.155 19.5625C140.991 19.7463 140.8 19.8831 140.593 20.0156C140.463 20.0968 140.334 20.1738 140.195 20.2549C138.486 21.2813 136.629 21.8121 134.621 22.0303C134.353 22.0602 133.989 22.1029 133.854 22.3125C133.811 22.3766 133.772 22.4666 133.742 22.5605C133.69 22.7187 133.656 22.9024 133.643 23.0264C134.019 22.8168 134.283 22.6629 134.643 22.6201C135.344 22.5346 136.027 22.4106 136.698 22.248C137.382 22.0813 138.049 21.8763 138.702 21.624C139.178 21.4444 139.645 21.2393 140.108 21.0127C140.256 20.94 140.39 20.8539 140.507 20.7598C140.862 20.4775 141.087 20.0966 141.169 19.6562C141.165 19.6306 141.155 19.5881 141.155 19.5625ZM166.233 21.7432C166.108 21.9185 165.977 22.0814 165.839 22.2354C165.748 22.3378 165.653 22.4363 165.549 22.5303C165.393 22.6713 165.229 22.804 165.043 22.9365C165.281 22.5346 165.545 22.1538 165.817 21.7646C165.982 21.5337 166.151 21.2936 166.319 21.0498H166.315C166.372 20.9687 166.423 20.8872 166.479 20.8018C166.562 20.6735 166.644 20.5452 166.727 20.417C166.757 20.3744 166.782 20.3317 166.812 20.2891C166.955 20.0795 167.107 19.8738 167.293 19.707C167.479 19.5403 167.691 19.3994 167.955 19.3096L166.233 21.7432ZM131.366 14.5117C131.435 14.7512 131.474 15.038 131.496 15.3545C131.513 15.6068 131.514 15.8805 131.514 16.167C131.509 16.4534 131.5 16.7526 131.487 17.0518C131.479 17.2014 131.474 17.3562 131.466 17.5059C131.444 17.9591 131.427 18.4123 131.427 18.8398C131.427 19.6266 131.491 20.3196 131.721 20.7559C131.755 20.555 131.786 20.3499 131.816 20.1533C131.912 19.5546 131.998 18.9851 132.098 18.4248C132.163 18.0528 132.232 17.6847 132.31 17.3213C132.387 16.9579 132.474 16.5945 132.573 16.2354C132.591 16.586 132.583 16.9326 132.557 17.2705C132.496 18.0616 132.348 18.827 132.24 19.6182C132.193 19.9559 132.158 20.3024 132.137 20.6572C132.132 20.7769 132.124 20.8969 132.124 21.0166C132.12 21.2561 132.128 21.5045 132.146 21.7568C132.206 21.5858 132.267 21.4191 132.327 21.248C132.743 20.0634 133.132 18.9256 133.643 17.8008C133.664 18.207 133.574 18.6518 133.439 19.1094C133.288 19.6226 133.08 20.1447 132.898 20.6494C132.756 21.0512 132.63 21.4401 132.565 21.7949C132.552 21.8846 132.539 21.9703 132.53 22.0557C132.517 22.184 132.517 22.3044 132.53 22.4199L133.669 20.6318C133.963 20.17 134.145 19.6655 134.452 19.208C134.495 19.144 134.542 19.0796 134.59 19.0156C134.573 19.1265 134.551 19.2374 134.525 19.3398C134.46 19.6007 134.365 19.8449 134.257 20.0801C134.062 20.5035 133.816 20.9014 133.591 21.3291L133.02 22.4238C133.002 22.4623 132.928 22.5139 132.854 22.5566C132.781 22.595 132.699 22.6296 132.664 22.6211C132.655 22.6208 132.639 22.6119 132.626 22.6035C132.6 22.5864 132.565 22.5525 132.53 22.5098C132.513 22.4884 132.492 22.4622 132.475 22.4365C132.436 22.3852 132.396 22.3214 132.353 22.2529C132.331 22.2188 132.31 22.184 132.288 22.1455C132.245 22.073 132.197 21.9922 132.149 21.9111C132.128 21.8727 132.106 21.8298 132.08 21.7871C131.959 21.5776 131.838 21.3593 131.717 21.1797C131.695 21.1456 131.669 21.1113 131.647 21.0771C131.396 20.7265 131.072 20.2214 131.067 19.751L131.055 19.7422V19.084C131.055 18.6436 131.059 18.2072 131.072 17.7754C131.098 16.9072 131.159 16.0424 131.271 15.1699C131.302 14.952 131.332 14.7297 131.366 14.5117ZM145.604 20.833C145.544 20.8116 145.37 20.863 145.318 20.8887H145.314C145.306 20.8929 145.306 20.8926 145.306 20.8926V20.9014C145.314 21.0383 145.345 21.2691 145.436 21.3418L145.898 21.7051C145.942 21.7136 145.981 21.7178 146.024 21.7178C146.319 21.7262 146.613 21.5596 146.777 21.2988L145.604 20.833ZM148.659 13.3994C148.443 13.7543 148.24 14.1011 148.05 14.4561C147.76 14.9949 147.508 15.542 147.283 16.1279V16.1152L146.262 18.7969L145.669 20.3574C145.717 20.3745 145.765 20.3882 145.812 20.4053C146.249 20.542 146.647 20.6486 147.071 20.7256C147.192 20.747 147.318 20.7681 147.443 20.7852L147.867 20.4346L148.153 20.1992L147.885 20.1143L146.345 19.6309C146.617 19.4984 146.916 19.5022 147.219 19.5449C147.998 19.6604 148.798 20.0586 149.274 19.1904L146.941 18.5576C147.937 18.1984 149.647 19.4685 150.227 18.3223L148.807 17.8896L147.396 17.4629C147.668 17.3474 148.015 17.3597 148.392 17.4238C149.551 17.6249 150.961 18.3259 151.087 17.4834C149.958 17.12 149.006 16.7955 147.933 16.3252C148.054 16.2611 148.269 16.1967 148.348 16.2178L151.049 16.9277C151.131 16.9491 151.213 16.9667 151.291 16.9795C151.628 17.0307 151.923 16.9532 152.183 16.5342C150.945 16.0167 149.962 15.9359 148.668 15.3115V15.3066C148.72 15.1912 148.794 15.1311 148.872 15.1055C148.95 15.08 149.045 15.0893 149.14 15.1191L150.996 15.6572L152.117 15.9824C152.299 16.038 152.606 16.0724 152.74 15.9785C152.827 15.9186 152.922 15.7769 152.982 15.6357C153 15.6016 153.013 15.5673 153.021 15.5332C151.589 14.9389 150.369 14.8188 149.127 14.2158C149.274 14.203 149.417 14.1953 149.556 14.1953C149.776 14.1996 149.992 14.2208 150.213 14.2764H150.222L153.424 15.0928H153.502C153.601 15.0628 153.719 14.9562 153.797 14.8535C153.844 14.7895 153.874 14.7292 153.874 14.6865C153.679 14.5882 153.481 14.4982 153.277 14.417C151.832 13.8353 150.243 13.6389 148.659 13.3994ZM130.246 16.9023L130.588 20.1699H130.583L130.033 19.4814C129.782 17.095 129.606 14.764 129.735 12.3818L130.246 16.9023ZM128.389 12.4111C128.454 13.0099 128.527 13.6047 128.604 14.1992C128.609 14.2119 128.609 14.2246 128.609 14.2373C128.648 14.5194 128.687 14.8019 128.726 15.084C128.73 15.1182 128.735 15.1488 128.739 15.1787C128.778 15.4609 128.821 15.7393 128.864 16.0215C128.869 16.0384 128.873 16.0514 128.873 16.0684C128.916 16.3419 128.964 16.6197 129.012 16.8975C129.012 16.9188 129.021 16.9366 129.021 16.958C129.068 17.2273 129.115 17.4969 129.167 17.7705C129.176 17.8174 129.185 17.8642 129.193 17.9111C129.245 18.1762 129.297 18.4459 129.354 18.7109C129.362 18.7537 129.371 18.801 129.38 18.8438C129.436 19.1216 129.497 19.3995 129.562 19.6816L129.284 19.6055L129.007 19.5283L128.626 16.8418L128.245 14.1562C128.228 14.0451 128.216 13.9295 128.207 13.8184C128.203 13.8014 128.202 13.7845 128.202 13.7676C128.193 13.6649 128.185 13.5616 128.185 13.459V13.3691C128.18 13.2752 128.181 13.1854 128.181 13.0957V12.8047C128.181 12.7107 128.189 12.612 128.189 12.5137C128.207 12.0733 128.237 11.6286 128.259 11.1797C128.298 11.5944 128.341 12.0006 128.389 12.4111ZM175.23 7.84375C175.507 7.07827 176.49 6.61178 177.199 7.15039C177.61 7.46682 177.537 8.25392 177.295 8.64746L177.299 8.65137C177.044 9.06622 176.468 9.42178 175.896 9.27637C175.204 9.10093 175.023 8.41674 175.23 7.84375ZM176.429 7.22754C176.212 7.18087 175.871 7.44168 175.724 7.64258L175.728 7.63867C175.507 7.94656 175.387 8.36562 175.78 8.58789C175.832 7.83516 176.598 7.6085 176.642 7.62988L177.009 7.82227C177.087 7.56565 176.727 7.29597 176.429 7.22754Z" fill="var(--fill-0, white)"/>
</g>
</svg>
