<svg preserveAspectRatio="none" width="100%" height="100%" overflow="visible" style="display: block;" viewBox="0 0 307 155" fill="none" xmlns="http://www.w3.org/2000/svg">
<g id="Frame 74">
<path id="Union" d="M153.402 116.484C154.605 116.626 155.475 117.511 155.505 118.652C155.535 119.807 154.739 120.791 153.493 120.962C152.554 121.09 151.636 120.936 150.987 120.269C150.183 119.443 150.191 118.054 150.979 117.22C151.61 116.548 152.515 116.382 153.402 116.484ZM136.266 119.294C136.266 119.679 136.62 119.978 136.996 120.004C137.528 120.038 138.143 119.675 138.144 119.11L138.156 116.591H139.463V120.881L138.229 120.902L138.087 120.427C137.369 121.077 136.261 121.214 135.438 120.615C135.149 120.401 134.958 119.872 134.958 119.517L134.945 116.591H136.252L136.266 119.294ZM174.823 116.496C175.49 116.513 176.109 116.71 176.507 117.172C176.927 117.659 177.112 118.276 177.03 118.973L173.819 119.002C173.824 119.472 174.114 119.845 174.633 119.974C175.23 120.123 175.832 119.888 176.416 119.687C176.667 119.717 176.853 120.255 176.767 120.542C175.879 121.059 174.676 121.149 173.677 120.726C172.669 120.294 172.249 119.131 172.517 118.092C172.767 117.131 173.747 116.468 174.823 116.496ZM117.229 116.445C117.926 116.441 118.562 116.659 118.985 117.125C119.435 117.625 119.565 118.284 119.491 118.973L116.229 118.994C116.22 119.465 116.557 119.845 117.051 119.965C117.722 120.127 118.323 119.94 118.925 119.589C119.158 119.781 119.292 120.166 119.271 120.513C118.275 121.043 117.064 121.184 116.029 120.675C115.064 120.2 114.666 119.109 114.935 118.117C115.207 117.113 116.102 116.455 117.229 116.445ZM129.298 116.928C130.202 116.428 131.21 116.299 132.18 116.611C132.803 116.817 133.171 117.317 133.18 117.988L133.205 119.935C133.205 120.003 133.565 120.038 133.573 120.11L133.625 120.512C133.638 120.61 133.612 120.807 133.556 120.867C133.442 120.987 132.305 121.063 131.847 120.508C131.115 121.111 130.12 121.17 129.397 120.559C129.06 120.272 128.977 119.776 129.094 119.314C129.353 118.305 131.081 118.262 131.898 118.143C131.981 117.83 131.695 117.454 131.37 117.395C130.725 117.275 130.258 117.398 129.565 117.728L129.298 116.928ZM124.871 116.744C125.767 116.278 126.805 116.389 127.705 116.834L127.489 117.672C126.961 117.325 125.797 117.095 125.589 117.63C125.551 117.72 125.693 117.959 125.806 118.006L127.121 118.532V118.536C127.632 118.741 127.913 119.186 127.892 119.661C127.874 120.132 127.597 120.585 127.052 120.781C126.069 121.136 125.053 121.026 124.161 120.525L124.46 119.695C125.027 120.05 126.364 120.354 126.576 119.755C126.619 119.639 126.425 119.375 126.295 119.323L125.048 118.814C124.624 118.643 124.295 118.292 124.27 117.92C124.235 117.458 124.434 116.971 124.871 116.744ZM193.323 116.487H193.337C194.007 116.526 194.609 116.731 195.007 117.21C195.405 117.689 195.556 118.34 195.418 118.973L192.189 118.98C192.168 119.489 192.506 119.883 193.038 119.99C193.705 120.127 194.245 119.905 194.864 119.631C195.007 119.913 195.102 120.192 195.167 120.517C194.12 121.064 192.869 121.196 191.822 120.589C190.909 120.059 190.615 118.929 190.939 117.988C191.273 117.022 192.246 116.428 193.323 116.487ZM188.148 116.535L189.507 116.582V117.463L188.131 117.484C188.131 118.181 188.049 118.926 188.196 119.602V119.597C188.313 120.136 189.07 120.051 189.624 119.794C189.745 120.059 189.771 120.496 189.702 120.816C189.166 120.97 188.59 121.021 188.058 120.944C187.4 120.846 186.88 120.358 186.867 119.691L186.824 117.522L186.054 117.454L186.136 116.735C187.308 116.436 187.213 115.769 188.074 115.209L188.148 116.535ZM158.336 117.062C158.851 116.561 159.505 116.355 160.24 116.492H160.235C160.91 116.616 161.529 117.147 161.529 117.874V120.881H160.196L160.119 118.016C160.106 117.554 159.435 117.403 159.093 117.48C158.751 117.558 158.293 117.849 158.293 118.268L158.284 120.906L156.981 120.876L156.973 116.578H158.236L158.336 117.062ZM110.65 119.772L113.835 119.786L113.817 120.894H109.257L109.239 114.756L110.642 114.73L110.65 119.772ZM179.922 117.274C180.424 116.535 181.32 116.18 182.138 116.672L181.782 117.72C181.047 117.373 180.013 117.694 179.922 118.485C179.831 119.285 179.882 119.999 179.856 120.893L178.585 120.884L178.559 116.599L179.849 116.569L179.917 117.271L179.922 117.274ZM184.643 120.867L183.306 120.893L183.279 116.604L184.63 116.573L184.643 120.867ZM142.557 117.078C143.344 116.176 144.73 116.244 145.491 117.231C145.972 116.658 146.586 116.424 147.326 116.458V116.462C148.231 116.505 148.967 117.146 148.958 118.087L148.936 120.889H147.642L147.59 118.117C147.581 117.591 146.928 117.39 146.564 117.454C146.028 117.544 145.716 117.929 145.716 118.477V120.871L144.422 120.889L144.366 118.062C144.358 117.625 143.777 117.416 143.457 117.441C143.154 117.463 142.54 117.728 142.531 118.139L142.483 120.88H141.198V116.577H142.449L142.557 117.078ZM171.521 116.595L169.505 120.885L168.289 120.876L166.264 116.6L167.696 116.582L168.925 119.362L170.137 116.582L171.521 116.595ZM130.756 119.097C130.483 119.148 130.271 119.533 130.349 119.764C130.435 120.02 130.756 120.17 131.154 120.136C131.379 120.114 131.863 119.892 131.863 119.699V118.883L130.756 119.097ZM152.853 117.429C152.173 117.489 151.749 117.985 151.731 118.69C151.71 119.503 152.264 120.076 153.056 120.021C153.761 119.969 154.241 119.354 154.142 118.537C154.051 117.797 153.484 117.373 152.853 117.429ZM193.172 117.317C192.687 117.326 192.255 117.625 192.255 118.211L194.198 118.194C194.107 117.489 193.644 117.309 193.172 117.317ZM117.202 117.301C116.704 117.322 116.302 117.639 116.271 118.203L118.258 118.187C118.184 117.468 117.674 117.279 117.202 117.301ZM174.775 117.321C174.317 117.339 173.898 117.621 173.876 118.202L175.802 118.189C175.715 117.493 175.26 117.304 174.775 117.321ZM194.483 114.713L193.319 115.91L192.186 115.944L193.142 114.7L194.483 114.713ZM174.983 115.894L173.846 115.924L174.755 114.705L176.174 114.688L174.983 115.894ZM184.647 114.717C184.673 115.174 184.668 115.389 184.634 115.881L183.306 115.854V114.691L184.647 114.717ZM202.646 87.9434C205.883 86.7373 209.328 86.2973 212.733 86.7207C215.797 87.1655 218.584 88.8249 218.935 92.0967L218.943 92.1006C219.082 93.4178 219.013 94.7396 218.723 96.0654L216.681 105.475C216.464 106.454 216.273 107.348 216.117 108.349H211.154L211.63 105.06C209.899 107.591 207.251 108.926 204.183 108.798C202.404 108.721 200.664 108.302 199.297 107.036C197.596 105.458 197.146 103.105 197.808 100.954C198.301 99.3461 199.387 98.0676 200.846 97.1865C203.892 95.3432 209.501 95.0476 213.08 95.2529C213.465 93.8203 213.564 92.2254 212.089 91.3828C211.107 90.8226 209.994 90.6422 208.839 90.6807C206.368 90.7491 204.104 91.3655 201.72 92.3877L202.646 87.9434ZM119.717 88.8506C122.802 86.7764 126.641 86.1131 130.271 86.8701C133.214 87.4817 135.599 89.4451 136.572 92.2422C137.226 94.1154 137.183 95.9887 136.871 97.9346V97.9385C135.625 105.718 128.168 110.418 120.491 108.263C115.93 106.98 113.831 102.455 114.298 97.9434C114.679 94.2738 116.614 90.9377 119.717 88.8506ZM162.377 87.3662C165.986 86.066 169.989 86.541 173.599 87.7129L172.422 91.6094C170.068 90.8395 166.973 90.0781 164.835 91.25C164.324 91.528 163.943 91.9903 163.853 92.4863C163.316 95.3687 170.003 96.2371 171.24 100.163C171.716 101.677 171.595 103.341 170.838 104.748C168.163 109.731 159.292 109.354 154.592 107.545L155.868 103.179C158.162 104.646 161.706 105.424 164.1 104.308C164.705 104.025 165.16 103.443 165.272 102.96C165.67 101.245 163.992 100.069 162.572 99.252C161.685 98.7388 160.871 98.2474 160.049 97.6572C157.236 95.6386 156.942 91.7678 159.348 89.2744C160.179 88.4148 161.213 87.7902 162.377 87.3711V87.3662ZM180.068 88.9365C182.916 86.9393 186.382 86.1648 189.779 86.8105H189.784C191.935 87.2212 193.769 88.3463 194.916 90.1768C196.47 92.9225 195.899 96.378 195.103 99.3076L180.177 99.3242C179.727 101.668 181.064 103.849 183.388 104.482C184.227 104.709 185.097 104.76 185.984 104.799C188.321 104.705 190.429 104.188 192.701 103.204L191.805 107.369C188.273 108.691 183.634 109.316 180.021 108.062C175.762 106.583 173.984 102.742 174.486 98.4521C174.932 94.6587 176.922 91.1434 180.068 88.9365ZM98.0615 89.5264C100.468 87.0415 103.8 85.9894 107.076 86.7764C109.365 87.3281 110.975 88.9448 111.442 91.2285H111.438C111.759 92.7766 111.62 94.2564 111.378 95.8516L108.504 108.336H102.627L103.691 103.602L105.427 95.7061C105.747 93.9183 105.518 91.455 103.276 91.0615C101.584 90.7621 99.9916 91.3865 98.8145 92.5498C97.6503 93.7003 97.0009 95.1334 96.5205 96.7158L93.8857 108.327H88L90.4014 97.3145L92.6523 86.9814H98.6289L98.0615 89.5264ZM149.309 88.8848C151.165 87.003 153.822 86.182 156.414 86.7979L155.15 92.2373C154.532 92.1133 153.943 92.028 153.312 91.998C149.651 91.9082 147.166 94.5812 146.365 97.917L143.985 108.332H138.147L139.892 100.424L142.748 86.9814V86.9854H148.572L147.673 91.0098C148.214 90.2316 148.677 89.5219 149.309 88.8848ZM212.374 98.6914C210.076 98.4947 206.9 98.5545 204.979 99.7646C204.035 100.359 203.421 101.33 203.455 102.446C203.485 103.434 204.087 104.26 205.035 104.568C208.419 105.659 211.305 103.255 212.08 99.9365L212.084 99.9404L212.374 98.6914ZM130.085 91.9766C129.085 90.8307 127.567 90.4925 126.078 90.7832C122.131 91.5488 120.192 95.9671 120.175 99.5811C120.17 100.637 120.361 101.651 120.854 102.566C121.755 104.234 123.655 105 125.498 104.576C130.877 103.34 132.4 94.6325 130.085 91.9766ZM188.131 90.8047C186.4 90.3471 184.487 90.8562 183.137 92.0664C182.089 93.0073 181.393 94.1969 180.969 95.5312L190.199 95.5439L190.195 95.54C190.706 93.5727 190.286 91.3735 188.131 90.8047ZM166.26 40.9453L168.134 40.3809L170.198 39.9707L170.393 39.8291C170.618 39.7863 170.886 39.7096 171.133 39.5898C173.426 38.4522 175.803 37.7805 178.343 37.417L181.891 36.9082C182.185 36.8697 182.536 36.9939 182.631 37.2334C182.973 38.1059 181.687 38.1319 181.017 40.0693C180.813 40.6636 180.549 41.1855 180.415 41.8867C181.428 41.0613 182.081 40.1331 182.77 39.1152C182.912 38.9099 183.388 38.7263 183.565 38.9102C184.435 39.8254 183.665 40.9203 183.912 41.0742L184.172 41.2363C184.103 41.7068 183.973 42.2332 183.773 42.6865L182.713 45.0811C182.583 45.3718 182.363 45.8298 182.194 46.1035L181.579 47.1211C181.319 47.5445 181.047 47.9554 180.757 48.3574L199.557 57.9629L152.662 81.9307L152.658 81.9355L105.765 57.9678L126.441 47.3994V47.2285C126.437 47.1815 126.442 47.0826 126.446 47.0312C126.572 45.7908 126.857 43.3487 127.641 42.1855C128.783 42.5661 129.696 43.4774 130.393 44.4609L130.873 45.1367L152.662 34L166.26 40.9453ZM163.858 59.7256L162.923 60.2812C162.858 60.3197 162.793 60.3541 162.729 60.3926C161.807 60.9314 160.851 61.3895 159.877 61.8643C159.834 61.8856 159.798 61.9109 159.764 61.9365C159.759 61.9409 159.751 61.9492 159.751 61.9492C159.535 62.1374 159.508 62.4494 159.361 62.6504C159.318 62.706 159.275 62.7667 159.231 62.8223C159.08 63.0231 158.929 63.2287 158.786 63.4424C158.561 63.7801 158.362 64.1261 158.219 64.498C157.609 65.208 157.055 65.9657 156.38 66.6543C156.293 66.744 156.202 66.8335 156.111 66.9189C156.064 66.9616 156.012 67.0091 155.965 67.0518C154.996 67.9413 153.935 68.6893 152.728 69.1982C152.451 69.3136 152.265 69.2929 152.122 69.2119C151.854 69.0579 151.749 68.6811 151.507 68.6084C151.528 68.758 151.529 69.0573 151.512 69.207C151.667 69.4464 151.857 69.7417 152.069 69.8359C152.878 70.1994 155.419 68.2326 156.09 67.625C156.116 67.5994 156.146 67.5734 156.172 67.5479C156.756 67.0048 157.297 66.4317 157.777 65.8203C157.781 65.8166 157.782 65.8124 157.782 65.8115C157.787 65.803 157.791 65.7985 157.795 65.79C158.089 65.4095 158.362 65.0161 158.608 64.6143C158.708 64.4688 158.951 64.2286 159.037 64.0361L159.651 62.6768C160.88 62.125 162.071 61.5219 163.257 60.8076C163.581 60.611 163.923 60.4824 164.316 60.29L164.213 59.5117L163.858 59.7256ZM158.92 62.5352C158.769 62.595 158.635 62.6718 158.505 62.7529C158.25 62.9197 158.033 63.1214 157.83 63.3438C157.726 63.4548 157.622 63.5657 157.519 63.6768C156.787 64.4466 156.017 65.1318 155.164 65.7861C154.961 65.9401 154.778 66.111 154.588 66.2734C154.246 66.5684 153.887 66.8418 153.39 66.9658C153.411 66.9402 153.433 66.9143 153.454 66.8887C153.48 66.8587 153.502 66.8294 153.528 66.8037C153.533 66.7995 153.532 66.7988 153.532 66.7988C153.852 66.4525 154.203 66.1833 154.566 65.8926C154.579 65.884 154.592 65.8709 154.605 65.8623C154.636 65.8409 154.662 65.8153 154.692 65.7939C155.688 65.0028 156.631 64.2284 157.396 63.1807C156.873 63.3261 156.445 63.5788 156.051 63.9209C155.51 64.3912 154.974 64.8534 154.429 65.3066C153.723 65.8883 152.991 66.4528 152.187 66.9746C152.39 66.6111 152.68 66.3031 152.996 66.0166C153.649 65.4308 154.428 64.9305 154.865 64.2422C154.87 64.2294 154.878 64.2199 154.887 64.207C154.398 64.2712 154.108 64.4257 153.797 64.6309L151.871 65.8965C151.91 65.6873 151.992 65.5506 152.096 65.4268C152.208 65.2985 152.342 65.1868 152.472 65.0244C152.476 65.0159 152.485 65.0115 152.489 65.0029C152.256 65.05 151.961 65.1566 151.788 65.2764H151.784C151.767 65.2892 151.754 65.3026 151.736 65.3154C151.732 65.3198 151.719 65.3281 151.719 65.3281V65.3369C151.658 65.3925 151.616 65.4907 151.581 65.6016C151.529 65.7854 151.512 66.0035 151.533 66.1318L151.788 67.6807C151.797 67.7148 151.81 67.7578 151.832 67.8047C151.871 67.8901 151.927 67.9844 151.992 68.0527C152.031 68.0953 152.074 68.1294 152.113 68.1465C152.247 68.1976 152.571 68.1723 152.731 68.1211C153.246 67.95 153.71 67.7141 154.143 67.4404C154.753 67.0513 155.311 66.5813 155.874 66.0938C156.086 65.9142 156.294 65.7346 156.497 65.5508C156.731 65.3413 156.964 65.1272 157.185 64.9092C157.751 64.3489 158.263 63.7451 158.665 63.0352C158.756 62.8728 158.842 62.7061 158.92 62.5352ZM153.294 66.9492C153.324 66.9492 153.346 66.971 153.346 67.001C153.345 67.0178 153.333 67.0344 153.32 67.043C153.312 67.0515 153.303 67.0518 153.294 67.0518C153.285 67.0517 153.281 67.0479 153.272 67.0479C153.264 67.0438 153.252 67.0281 153.251 67.0264C153.242 67.018 153.242 67.0094 153.242 67.001C153.242 66.9925 153.246 66.9793 153.255 66.9707C153.264 66.9579 153.277 66.9493 153.294 66.9492ZM129.437 59.0967C129.406 59.1565 129.411 59.3784 129.445 59.4727C130.06 61.2005 131.843 63.0402 133.578 64.1992C133.903 64.4173 134.228 64.61 134.539 64.7725C138.628 66.9064 143.095 67.3894 147.539 66.7949H147.561V66.7988C147.578 66.7946 147.599 66.7911 147.616 66.791C148.845 66.6242 150.07 66.3754 151.286 66.0547C151.329 65.8539 151.342 65.6149 151.316 65.4141L150.287 65.6104L148.94 65.8711C147.106 66.2218 145.305 66.508 143.414 66.4268C142.839 66.4011 142.272 66.3545 141.71 66.2861C139.953 66.0723 138.243 65.653 136.564 65.0586C135.123 64.5497 133.825 63.8267 132.635 62.9072C132.522 62.8174 132.409 62.7279 132.297 62.6338C131.098 61.6245 130.202 60.4139 129.437 59.0967ZM181.869 37.5586C178.009 38.0248 174.638 38.5759 171.436 40.5859C170.631 41.0906 169.943 41.7709 169.51 42.6006C169.466 42.6818 169.432 42.7635 169.393 42.8447C169.384 42.8617 169.38 42.8746 169.371 42.8916C169.332 42.9771 169.298 43.0626 169.268 43.1523C168.969 43.9992 169.246 44.8805 169.657 45.6289C169.713 45.7357 169.774 45.8382 169.839 45.9365C169.964 46.1333 170.098 46.3131 170.241 46.4756C170.315 46.5568 170.388 46.6382 170.462 46.7109C170.726 46.9718 171.016 47.1899 171.323 47.3652C171.808 47.6474 172.344 47.8318 172.911 47.9473C173.218 48.0114 173.539 48.054 173.868 48.084C173.738 48.0198 173.608 47.9557 173.482 47.8916C173.292 47.7933 173.106 47.6948 172.929 47.5879C172.808 47.5195 172.691 47.4461 172.578 47.3691C172.063 47.0313 171.609 46.6298 171.254 46.0996C171.211 46.0397 171.176 45.9753 171.137 45.9111C171.124 45.8899 171.115 45.8728 171.103 45.8516C171.077 45.8088 171.05 45.7609 171.028 45.7139C171.016 45.6926 171.007 45.6667 170.994 45.6455C170.968 45.5986 170.946 45.5473 170.925 45.4961C170.92 45.4791 170.912 45.4623 170.903 45.4453C170.877 45.3812 170.852 45.3122 170.83 45.248C170.821 45.2225 170.812 45.1929 170.804 45.1631C170.791 45.1246 170.778 45.0815 170.765 45.043C170.756 45.0089 170.748 44.9745 170.739 44.9404C170.731 44.9019 170.722 44.8672 170.713 44.833C170.704 44.7989 170.695 44.7601 170.687 44.7217C170.686 44.7046 170.679 44.6833 170.679 44.6621C170.661 44.5767 170.648 44.4871 170.64 44.3975C170.635 44.3761 170.631 44.3544 170.631 44.333C170.627 44.286 170.622 44.2345 170.622 44.1875V44.1318C170.613 43.9009 170.627 43.6655 170.661 43.4346C170.665 43.4219 170.665 43.4131 170.665 43.4004C170.726 43.0455 170.834 42.6992 171.007 42.3828C170.912 42.6992 170.865 43.0113 170.852 43.3105C170.795 44.5806 171.418 45.6971 172.322 46.5781C172.327 46.5824 172.332 46.5866 172.336 46.5908C172.388 46.6379 172.435 46.6854 172.487 46.7324C172.5 46.7409 172.509 46.7532 172.521 46.7617C172.569 46.8045 172.621 46.8479 172.669 46.8906C172.682 46.8992 172.699 46.912 172.712 46.9248C172.76 46.9676 172.812 47.0064 172.859 47.0449C172.872 47.0577 172.89 47.0703 172.907 47.083C172.955 47.1214 173.006 47.1559 173.054 47.1943C173.067 47.2029 173.084 47.2157 173.102 47.2285C173.149 47.2627 173.201 47.3008 173.253 47.335C173.266 47.3392 173.275 47.3479 173.288 47.3564C173.453 47.4676 173.621 47.5745 173.79 47.6729C173.816 47.6856 173.846 47.7027 173.872 47.7197C173.911 47.7411 173.95 47.7628 173.989 47.7842C174.024 47.8013 174.058 47.8228 174.093 47.8398L174.317 47.9512C174.352 47.9683 174.387 47.9858 174.422 48.0029C174.461 48.0241 174.499 48.0406 174.538 48.0576C174.573 48.0747 174.608 48.0926 174.643 48.1055C174.681 48.1225 174.725 48.1392 174.764 48.1562C174.794 48.1691 174.828 48.1825 174.858 48.1953C174.902 48.2124 174.945 48.229 174.988 48.2461C175.018 48.2589 175.049 48.2675 175.079 48.2803C175.127 48.2974 175.175 48.3149 175.223 48.332C175.248 48.3405 175.27 48.3489 175.296 48.3574C175.369 48.383 175.443 48.4045 175.512 48.4258C174.508 48.5925 173.564 48.5669 172.591 48.5498L171.886 49.7217C171.89 49.5421 171.908 49.3966 171.934 49.2598C171.947 49.1914 171.959 49.123 171.977 49.0547C171.985 49.0119 171.998 48.9644 172.011 48.9131C172.019 48.8876 172.025 48.8624 172.033 48.8369C172.055 48.7599 172.076 48.6781 172.102 48.584C172.11 48.5541 172.119 48.5244 172.128 48.4902C172.046 48.4689 171.903 48.4429 171.756 48.4258C171.721 48.4215 171.682 48.4131 171.647 48.4131C171.63 48.4088 171.613 48.4092 171.596 48.4092C171.514 48.4092 171.436 48.4049 171.384 48.4092C171.25 48.7084 171.136 48.9819 170.998 49.2256C170.946 49.3239 170.886 49.4184 170.821 49.5039C170.787 49.5509 170.751 49.5891 170.717 49.6318L171.007 48.2637C170.951 48.1696 170.739 48.0747 170.574 48.0576H170.479C170.467 48.0576 170.453 48.0625 170.44 48.0625C170.406 48.0753 170.375 48.0925 170.362 48.1182C170.332 48.1865 170.298 48.2552 170.268 48.3193C170.207 48.4519 170.146 48.5801 170.085 48.7041C169.938 49.0162 169.782 49.3074 169.57 49.5811C169.592 49.3629 169.636 49.1655 169.696 48.9688C169.796 48.6438 169.934 48.3358 170.06 47.998C170.068 47.9854 170.068 47.9726 170.068 47.96C170.073 47.93 170.064 47.904 170.051 47.874C170.042 47.8612 170.033 47.8439 170.024 47.8311C169.929 47.6815 169.7 47.5236 169.531 47.5107C169.501 47.5065 169.466 47.511 169.44 47.5195L168.523 49.2725C168.515 49.2212 168.515 49.161 168.515 49.1055C168.523 48.819 168.653 48.4856 168.787 48.165C168.813 48.1009 168.839 48.0368 168.865 47.9727C168.891 47.9129 168.917 47.8488 168.938 47.7891C169.129 47.3058 169.207 46.9078 168.709 46.8223L167.692 48.6484C167.688 48.6228 167.688 48.5924 167.688 48.5625C167.688 48.4428 167.705 48.3187 167.735 48.1904C167.757 48.0964 167.792 47.9938 167.826 47.8955C167.852 47.8314 167.878 47.7628 167.904 47.6943C167.956 47.5575 168.017 47.4206 168.077 47.2881C168.12 47.1855 168.164 47.0875 168.203 46.9893C168.229 46.9251 168.255 46.8601 168.276 46.7959C168.345 46.608 168.389 46.4331 168.389 46.2793V46.2021C168.38 46.1295 168.359 46.0608 168.324 46.001C168.303 45.9625 168.272 45.9238 168.233 45.8896C168.216 45.8726 168.194 45.8598 168.173 45.8428L167.043 47.7676C167.052 47.6736 167.065 47.5835 167.078 47.498C167.108 47.3227 167.151 47.1596 167.203 46.9971C167.229 46.9159 167.26 46.8347 167.29 46.7578C167.351 46.5997 167.424 46.4459 167.502 46.292C167.541 46.215 167.58 46.1375 167.623 46.0605C167.666 45.9836 167.71 45.9064 167.753 45.8252C167.77 45.7954 167.783 45.7652 167.796 45.7354C167.8 45.7228 167.808 45.7145 167.809 45.7061C167.817 45.6889 167.826 45.6669 167.835 45.6455C167.839 45.6329 167.848 45.624 167.848 45.6113C167.852 45.5901 167.861 45.5731 167.865 45.5518C167.87 45.5389 167.874 45.5304 167.874 45.5176C167.878 45.4962 167.887 45.4745 167.887 45.4531C167.891 45.4447 167.892 45.4323 167.892 45.4238C167.896 45.3982 167.904 45.3675 167.904 45.3418V45.3291C167.986 44.6192 167.675 43.7207 168.312 42.4336C168.316 42.4254 168.319 42.4211 168.319 42.417C168.345 42.3658 168.372 42.3188 168.397 42.2676C168.397 42.2592 168.406 42.2505 168.406 42.2461C168.437 42.1948 168.467 42.1431 168.497 42.0918C168.687 41.7753 168.93 41.4416 169.25 41.0781C168.393 40.9841 167.761 41.3095 167.112 41.5361C167.091 41.5447 167.073 41.5491 167.052 41.5576C167 41.5747 166.947 41.5913 166.896 41.6084C166.887 41.6126 166.879 41.6172 166.87 41.6172C166.693 41.6685 166.515 41.7243 166.342 41.7842C165.126 42.1948 164.027 42.7596 162.88 43.3711C159.812 45.0048 157.094 47.057 154.558 49.375C154.077 49.8155 153.602 50.2651 153.13 50.7227C152.407 51.424 151.663 52.0829 150.893 52.7158C149.75 53.6524 148.556 54.5294 147.331 55.3848C145.349 56.7704 143.224 57.8561 140.952 58.5703C139.918 58.8954 138.857 59.1441 137.767 59.3066C137.265 59.3836 136.763 59.3916 136.261 59.3574C136.192 59.3531 136.118 59.3451 136.049 59.3408H136.04C135.971 59.3323 135.906 59.3279 135.837 59.3193H135.807C135.746 59.3108 135.686 59.3064 135.625 59.2979C135.603 59.2979 135.578 59.2892 135.552 59.2891C135.508 59.2848 135.46 59.2767 135.417 59.2725C135.361 59.2639 135.309 59.2546 135.257 59.2461C135.244 59.2418 135.226 59.2373 135.209 59.2373C134.924 59.1946 134.638 59.1435 134.356 59.0879H134.379C134.37 59.0836 134.365 59.0791 134.356 59.0791C134.348 59.0749 134.335 59.0706 134.322 59.0664C134.309 59.0621 134.292 59.0541 134.274 59.0498C134.253 59.0413 134.235 59.0368 134.214 59.0283C134.192 59.0198 134.166 59.0114 134.141 59.0029C134.128 58.9987 134.115 58.9935 134.102 58.9893C134.089 58.985 134.075 58.9808 134.062 58.9766C134.041 58.9723 134.015 58.9636 133.993 58.9551C133.989 58.9509 133.98 58.9473 133.972 58.9473C133.95 58.943 133.924 58.9343 133.902 58.9258C133.894 58.9257 133.881 58.917 133.872 58.917C133.851 58.9127 133.829 58.904 133.808 58.8955C133.795 58.8912 133.781 58.8871 133.769 58.8828C133.747 58.8743 133.73 58.8698 133.708 58.8613C133.695 58.8571 133.677 58.849 133.66 58.8447C133.643 58.8405 133.626 58.8314 133.608 58.8271C133.591 58.8186 133.569 58.8142 133.552 58.8057C133.535 58.8014 133.522 58.7934 133.505 58.7891C133.483 58.7848 133.461 58.7761 133.439 58.7676C133.426 58.759 133.413 58.7543 133.4 58.75C133.379 58.7415 133.353 58.7331 133.331 58.7246C133.318 58.7204 133.305 58.7162 133.292 58.7119C133.266 58.7034 133.245 58.695 133.219 58.6865C133.21 58.6822 133.197 58.6729 133.188 58.6729C133.163 58.6643 133.136 58.6521 133.11 58.6436C133.102 58.6434 133.093 58.635 133.085 58.6348C133.059 58.6262 133.033 58.613 133.007 58.6045C132.998 58.6003 132.994 58.5968 132.985 58.5967C132.959 58.5839 132.933 58.5753 132.907 58.5625C132.903 58.5582 132.894 58.5537 132.89 58.5537C132.864 58.5409 132.837 58.5323 132.812 58.5195C132.807 58.5153 132.803 58.5107 132.799 58.5107C132.773 58.498 132.751 58.4893 132.726 58.4766C132.722 58.4729 132.715 58.4727 132.713 58.4727C132.691 58.4599 132.665 58.4512 132.644 58.4385C132.644 58.4346 132.636 58.4336 132.635 58.4336C132.609 58.4208 132.591 58.4122 132.569 58.3994C132.565 58.3953 132.561 58.3955 132.561 58.3955C132.539 58.3828 132.522 58.374 132.505 58.3613C132.501 58.3572 132.496 58.3565 132.496 58.3564C132.483 58.348 132.466 58.3357 132.453 58.3271C132.449 58.3233 132.445 58.3191 132.444 58.3184C132.431 58.3055 132.418 58.2966 132.409 58.2881C132.405 58.2839 132.4 58.2793 132.4 58.2793C132.392 58.2709 132.383 58.2623 132.379 58.2539C132.375 58.2496 132.375 58.2412 132.375 58.2412C132.371 58.2327 132.366 58.224 132.366 58.2197V58.1904C132.371 58.1733 132.388 58.1558 132.414 58.1387L133.383 58.5195L133.219 57.5957C133.21 57.5487 133.202 57.4966 133.197 57.4453C133.145 56.9494 133.24 56.3251 133.664 55.9873C133.837 55.8504 134.037 55.7435 134.249 55.6494C134.573 55.5084 134.928 55.4098 135.257 55.3115C135.46 55.2516 135.664 55.1917 135.863 55.1318C136.915 54.8068 137.928 54.4474 138.884 53.9043C137.226 53.4723 135.85 52.7926 134.651 51.6807C133.864 50.9493 133.05 50.1921 132.509 49.2598C132.492 49.2342 132.479 49.2085 132.462 49.1787L130.691 46.0098C130.683 45.9927 130.67 45.9751 130.661 45.958V45.9541C130.653 45.9414 130.64 45.9242 130.631 45.9072C130.631 45.9029 130.622 45.8939 130.622 45.8896C130.613 45.8726 130.601 45.851 130.588 45.834C130.584 45.8297 130.579 45.8256 130.579 45.8213C130.566 45.7999 130.553 45.7782 130.536 45.7568C130.467 45.6585 130.389 45.5514 130.298 45.4316C129.631 44.555 128.398 43.2597 127.658 43.3105L127.614 43.3066C127.303 44.6367 127.099 45.8856 127.052 47.083C127.047 47.2198 127.043 47.3524 127.043 47.4893V47.9766C127.043 48.0878 127.052 48.1993 127.057 48.3105V48.3789C127.065 48.5115 127.078 48.6487 127.091 48.7812V48.7979C127.104 48.9219 127.116 49.042 127.134 49.166C127.138 49.1959 127.147 49.226 127.147 49.2559C127.165 49.3627 127.182 49.4654 127.199 49.5723C127.204 49.5979 127.208 49.6238 127.212 49.6494C127.234 49.7776 127.26 49.9099 127.29 50.0381C127.294 50.0424 127.294 50.0514 127.294 50.0557C127.32 50.1753 127.351 50.2954 127.381 50.415C127.389 50.4448 127.399 50.4787 127.407 50.5127C127.437 50.6109 127.463 50.7094 127.493 50.8076C127.506 50.8376 127.515 50.8724 127.523 50.9023C127.562 51.0306 127.606 51.1549 127.649 51.2832C127.654 51.2875 127.658 51.2955 127.658 51.3037C127.701 51.4192 127.744 51.5398 127.792 51.6553C127.805 51.6893 127.822 51.7277 127.835 51.7617C127.874 51.8557 127.913 51.9499 127.956 52.0439C127.973 52.0781 127.987 52.1124 128.004 52.1465C128.06 52.2705 128.121 52.3994 128.182 52.5234C128.185 52.5236 128.185 52.5296 128.186 52.5312C128.246 52.651 128.311 52.7758 128.376 52.8955C128.393 52.9297 128.415 52.9639 128.433 52.998C128.485 53.0963 128.54 53.1908 128.597 53.2891C128.614 53.3231 128.636 53.3527 128.653 53.3867C128.731 53.515 128.809 53.6393 128.892 53.7676C128.731 54.2765 128.692 54.7689 128.731 55.2607C128.749 55.5129 128.787 55.7651 128.839 56.0215C128.964 56.6502 129.146 57.2364 129.389 57.7881C129.709 58.5193 130.137 59.1992 130.674 59.8535C133.656 63.476 138.326 64.9899 142.956 65.1738C146.833 65.3278 150.599 64.6612 154.221 63.2969C154.277 63.2755 154.329 63.2577 154.385 63.2363C155.224 62.9113 156.055 62.5863 156.873 62.2441C158.331 61.6368 159.751 60.9741 161.141 60.1914L164.044 58.5537C164.04 58.4553 164.032 58.352 164.019 58.2451C163.988 57.9801 163.945 57.7023 163.919 57.4287C163.876 56.9668 163.875 56.509 164.074 56.1455C164.139 56.0215 164.23 55.906 164.347 55.8076L165.567 54.7725L166.441 54.0283C166.398 54.1736 166.347 54.3106 166.286 54.4346C165.996 55.0289 165.516 55.4269 165.122 55.8203C164.707 56.2266 164.39 56.629 164.477 57.2363L164.771 59.2676C164.819 59.6183 164.862 59.948 164.918 60.2773C164.979 60.6323 165.053 60.9959 165.165 61.3936C165.671 61.1327 166.134 60.8454 166.559 60.5332C168.276 59.2758 169.372 57.6168 170.06 55.4785L168.735 57.0654C168.311 57.5743 167.926 58.0961 167.502 58.5879C167.238 58.9001 166.952 59.2035 166.632 59.4814C166.891 59.0582 167.169 58.6735 167.454 58.293C167.766 57.8738 168.09 57.4667 168.41 57.0391C168.769 56.56 170.389 54.4135 170.289 53.665C170.285 53.618 170.267 53.5756 170.245 53.5371L169.817 54.0801L168.402 55.8848C167.913 56.5049 167.459 57.1465 166.87 57.6982C166.684 57.8693 166.485 58.0359 166.269 58.1855L167.55 56.501L168.363 55.4316L170.024 53.0576L170.133 52.9082C170.193 52.8141 170.505 52.7284 170.583 52.8096C170.587 52.8138 170.596 52.8271 170.596 52.8271L170.877 54.9521C172.037 54.2123 173.058 53.3401 174.066 52.4121C174.382 52.117 174.703 51.817 175.023 51.5176C176.014 50.5853 176.876 49.5886 177.693 48.5537L176.629 48.5156L176.442 48.5068C176.78 48.3914 177.113 48.2847 177.438 48.165C177.489 48.1479 177.538 48.1265 177.59 48.1094C177.594 48.1053 177.602 48.1007 177.606 48.1006C178.078 47.921 178.529 47.7114 178.936 47.4248C179.134 47.2837 179.325 47.1213 179.502 46.9375C180.692 45.6929 181.567 44.2218 182.346 42.6992C182.666 42.0705 183.661 40.3252 183.241 39.7051C182.319 40.9154 181.441 42.019 180.281 42.9941C179.909 43.3106 179.663 43.6917 179.446 44.1279C179.035 44.9533 178.131 45.714 177.481 45.2051C177.365 45.111 177.325 44.7048 177.403 44.5723L178.52 42.6904L179.546 40.7959C179.641 41.8436 177.94 44.14 178.139 44.6279C178.26 44.923 179.057 43.922 179.269 43.4131C179.701 42.3825 180.039 41.3686 180.363 40.3037C180.675 39.2732 181.103 38.4309 181.869 37.5586ZM183.558 41.0654C182.67 42.7804 182.003 44.4567 181.068 46.0049C180.679 46.6549 180.225 47.2537 179.731 47.8311C179.723 47.8438 179.71 47.8525 179.701 47.8652C179.584 48.0064 179.463 48.1395 179.342 48.2764C179.325 48.2975 179.303 48.3187 179.286 48.3398C179.161 48.4767 179.035 48.6142 178.905 48.751C178.888 48.768 178.875 48.7847 178.857 48.8018C178.723 48.9429 178.589 49.0848 178.455 49.2217C178.442 49.2387 178.425 49.2516 178.412 49.2686C178.291 49.3926 178.169 49.5166 178.048 49.6406C178.022 49.6661 178 49.6874 177.975 49.7129C176.27 51.4407 174.534 53.0921 172.608 54.542C172.124 54.9055 171.626 55.2559 171.115 55.5938C170.717 55.8546 170.669 56.0771 170.587 56.4492L169.012 59.2803C168.211 60.7215 166.455 61.5861 164.823 61.9668L164.606 61.209L164.369 60.375L164.33 60.7432L164.295 61.0557L164.845 62.3604C164.858 62.3946 164.897 62.4499 164.914 62.4883C166.558 62.1803 168.012 61.1199 169.008 59.8027C169.064 59.7258 169.12 59.6522 169.172 59.5752C170.254 58.0314 169.951 58.3908 170.691 56.5518C172.595 55.5253 174.279 54.08 175.867 52.5361L178.528 49.9482C179.048 49.4479 179.502 48.913 179.922 48.3613C179.935 48.3443 179.948 48.3276 179.961 48.3105C179.987 48.2721 180.013 48.2373 180.039 48.2031C180.078 48.152 180.113 48.101 180.151 48.0498C180.623 47.3955 181.047 46.7152 181.458 46.0225C182.055 45.0217 182.705 44.0331 183.146 42.874L183.142 42.8662C183.362 42.2889 183.726 41.7069 183.558 41.0654ZM164.551 47.874L164.049 48.6562L163.85 48.25C163.651 48.4125 163.508 48.5537 163.399 48.6777C163.322 48.7675 163.265 48.8533 163.213 48.9346C163.105 49.114 163.04 49.2852 162.945 49.4902C162.911 49.5672 162.871 49.6488 162.823 49.7344C162.81 49.7599 162.798 49.7815 162.785 49.8027C162.759 49.8454 162.728 49.8922 162.698 49.9434C162.668 49.9903 162.634 50.0422 162.595 50.0977L162.525 49.4268C162.162 49.4097 161.971 49.8286 161.789 50.2734C161.767 50.3247 161.746 50.3804 161.725 50.4316C161.673 50.5599 161.616 50.6922 161.56 50.8076C161.469 50.9958 161.365 51.1541 161.235 51.2354L161.387 50.1748C161.196 50.3073 161.045 50.4439 160.924 50.585C160.798 50.7261 160.703 50.8718 160.621 51.0215C160.539 51.171 160.47 51.3292 160.4 51.4873C160.387 51.513 160.378 51.5437 160.365 51.5693C160.344 51.6205 160.322 51.676 160.296 51.7314C160.283 51.7569 160.271 51.787 160.258 51.8125C160.236 51.8681 160.206 51.9239 160.18 51.9795C160.123 52.0906 160.063 52.2059 159.989 52.3213C159.916 52.4367 159.833 52.557 159.738 52.6768L159.941 51.4873C159.76 51.5642 159.604 51.6672 159.475 51.791C159.384 51.8766 159.306 51.9671 159.236 52.0654C159.167 52.1637 159.102 52.2701 159.041 52.377C158.954 52.5395 158.873 52.7114 158.795 52.8867C158.717 53.0619 158.639 53.2412 158.553 53.4121C158.466 53.5832 158.375 53.7503 158.263 53.9043L158.357 53.3057L158.453 52.707C158.349 52.7626 158.258 52.8265 158.172 52.8906C158.116 52.9334 158.059 52.9764 158.012 53.0234C157.964 53.0704 157.916 53.1171 157.873 53.1641C157.851 53.1854 157.834 53.2116 157.812 53.2373C157.774 53.2885 157.735 53.3395 157.7 53.3906C157.683 53.4163 157.665 53.4421 157.647 53.4678C157.297 54.0152 157.158 54.6608 156.704 55.2168L156.882 54.0029C156.722 54.0628 156.584 54.1609 156.467 54.2891C156.389 54.3745 156.315 54.4684 156.25 54.5752C156.22 54.6265 156.186 54.6827 156.155 54.7383C156.09 54.8538 156.029 54.9736 155.973 55.0977C155.96 55.1275 155.943 55.1616 155.93 55.1914C155.899 55.2555 155.874 55.3197 155.844 55.3838C155.831 55.4137 155.813 55.4486 155.8 55.4785C155.77 55.5425 155.739 55.6069 155.709 55.6709C155.679 55.7348 155.644 55.7945 155.614 55.8584C155.519 56.0466 155.41 56.2265 155.289 56.3848C155.246 56.4403 155.202 56.4921 155.159 56.5391L155.523 55.1748C155.489 55.1919 155.454 55.2046 155.419 55.2217C155.25 55.3028 155.116 55.3965 155.004 55.499C154.982 55.5204 154.96 55.5421 154.938 55.5635C154.856 55.6489 154.792 55.743 154.731 55.8369C154.571 56.0978 154.476 56.3937 154.351 56.6846C154.238 56.9496 154.095 57.2102 153.849 57.4453L154.108 56.1797C154.052 56.1925 154 56.2052 153.952 56.2266C153.706 56.3292 153.537 56.5387 153.398 56.791C153.368 56.8381 153.342 56.894 153.316 56.9453C153.213 57.1548 153.117 57.3852 153.013 57.5947C152.987 57.646 152.961 57.6977 152.931 57.749C152.918 57.7747 152.901 57.7966 152.888 57.8223C152.784 57.9889 152.663 58.1341 152.507 58.2324L152.685 57.6289L152.861 57.0264C152.585 57.0777 152.381 57.223 152.217 57.4111C152.117 57.5223 152.035 57.6551 151.957 57.792C151.801 58.0699 151.671 58.3736 151.498 58.6387C151.438 58.7241 151.377 58.8059 151.308 58.8828L151.416 57.9375C150.936 58.0829 150.689 58.3007 150.533 58.5273C150.494 58.5829 150.464 58.6384 150.434 58.6982C150.412 58.7367 150.395 58.776 150.378 58.8145C150.339 58.9084 150.3 59.0021 150.261 59.0918C150.243 59.1259 150.226 59.1602 150.209 59.1943C150.187 59.2243 150.17 59.2591 150.148 59.2891C150.105 59.3489 150.057 59.4042 149.992 59.4512C149.962 59.4725 149.928 59.4943 149.889 59.5156L150.113 58.6768C149.871 58.711 149.694 58.7841 149.551 58.8867C149.378 59.0065 149.257 59.1651 149.127 59.3447C149.084 59.4045 149.041 59.4643 148.993 59.5283C148.967 59.5582 148.945 59.5921 148.919 59.6221C148.871 59.6861 148.815 59.7504 148.755 59.8145L148.78 59.374C148.097 59.699 147.413 59.9949 146.721 60.2686C146.028 60.5422 145.327 60.7943 144.604 61.0381C144.427 61.0979 144.228 61.1579 144.021 61.2178C143.912 61.2477 143.808 61.2728 143.695 61.3027C143.527 61.3455 143.358 61.3844 143.181 61.4229C143.06 61.4485 142.942 61.4747 142.821 61.4961C142.038 61.6457 141.198 61.7437 140.463 61.7266C140.238 61.7223 140.022 61.7096 139.818 61.6797C139.771 61.6754 139.719 61.6668 139.671 61.6582L139.688 61.6621C139.541 61.6365 139.403 61.6072 139.277 61.5645C139.714 61.5816 140.138 61.5764 140.554 61.5508C140.865 61.5337 141.169 61.5043 141.472 61.4658C142.679 61.3118 143.813 60.9992 144.916 60.5801C145.011 60.5459 145.102 60.5121 145.193 60.4736C145.929 60.1828 146.656 59.8447 147.383 59.4727C147.746 59.2845 148.115 59.0916 148.482 58.8906C150.209 57.9498 151.75 56.876 153.26 55.6572C153.472 55.4862 153.688 55.3065 153.904 55.127C154.597 54.5453 155.29 53.9808 155.986 53.4248C158.081 51.7569 160.223 50.1919 162.486 48.7207C163.352 48.1563 164.204 47.66 165.13 47.2666C165.437 47.1383 165.758 47.0141 166.087 46.9072L164.551 47.874ZM166.961 56.2871C166.745 56.5737 166.515 56.8221 166.269 57.083C166.083 57.2797 165.888 57.4763 165.685 57.6943C165.62 57.767 165.546 57.8439 165.477 57.9209C165.468 57.9124 165.468 57.8997 165.468 57.8828V57.8311C165.485 57.7156 165.563 57.5443 165.649 57.4502C165.957 57.1209 166.203 56.8043 166.454 56.4707V56.458C166.536 56.3469 166.619 56.2358 166.705 56.1162L168.428 53.7471C168.471 53.683 168.518 53.6182 168.562 53.5498C168.605 53.4814 168.653 53.4128 168.696 53.3486C168.74 53.2846 168.787 53.2203 168.835 53.1562C168.956 52.9981 169.086 52.8523 169.25 52.7412C169.345 52.6728 169.454 52.6176 169.579 52.5791C169.661 52.5535 169.752 52.5363 169.848 52.5234L166.961 56.2871ZM141.155 53.5625C140.991 53.7463 140.8 53.8831 140.593 54.0156C140.463 54.0968 140.334 54.1738 140.195 54.2549C138.486 55.2813 136.629 55.8121 134.621 56.0303C134.353 56.0602 133.989 56.1029 133.854 56.3125C133.811 56.3766 133.772 56.4666 133.742 56.5605C133.69 56.7187 133.656 56.9024 133.643 57.0264C134.019 56.8168 134.283 56.6629 134.643 56.6201C135.344 56.5346 136.027 56.4106 136.698 56.248C137.382 56.0813 138.049 55.8763 138.702 55.624C139.178 55.4444 139.645 55.2393 140.108 55.0127C140.256 54.94 140.39 54.8539 140.507 54.7598C140.862 54.4775 141.087 54.0966 141.169 53.6562C141.165 53.6306 141.155 53.5881 141.155 53.5625ZM166.233 55.7432C166.108 55.9185 165.977 56.0814 165.839 56.2354C165.748 56.3378 165.653 56.4363 165.549 56.5303C165.393 56.6713 165.229 56.804 165.043 56.9365C165.281 56.5346 165.545 56.1538 165.817 55.7646C165.982 55.5337 166.151 55.2936 166.319 55.0498H166.315C166.372 54.9687 166.423 54.8872 166.479 54.8018C166.562 54.6735 166.644 54.5452 166.727 54.417C166.757 54.3744 166.782 54.3317 166.812 54.2891C166.955 54.0795 167.107 53.8738 167.293 53.707C167.479 53.5403 167.691 53.3994 167.955 53.3096L166.233 55.7432ZM131.366 48.5117C131.435 48.7512 131.474 49.038 131.496 49.3545C131.513 49.6068 131.514 49.8805 131.514 50.167C131.509 50.4534 131.5 50.7526 131.487 51.0518C131.479 51.2014 131.474 51.3562 131.466 51.5059C131.444 51.9591 131.427 52.4123 131.427 52.8398C131.427 53.6266 131.491 54.3196 131.721 54.7559C131.755 54.555 131.786 54.3499 131.816 54.1533C131.912 53.5546 131.998 52.9851 132.098 52.4248C132.163 52.0528 132.232 51.6847 132.31 51.3213C132.387 50.9579 132.474 50.5945 132.573 50.2354C132.591 50.586 132.583 50.9326 132.557 51.2705C132.496 52.0616 132.348 52.827 132.24 53.6182C132.193 53.9559 132.158 54.3024 132.137 54.6572C132.132 54.7769 132.124 54.8969 132.124 55.0166C132.12 55.2561 132.128 55.5045 132.146 55.7568C132.206 55.5858 132.267 55.4191 132.327 55.248C132.743 54.0634 133.132 52.9256 133.643 51.8008C133.664 52.207 133.574 52.6518 133.439 53.1094C133.288 53.6226 133.08 54.1447 132.898 54.6494C132.756 55.0512 132.63 55.4401 132.565 55.7949C132.552 55.8846 132.539 55.9703 132.53 56.0557C132.517 56.184 132.517 56.3044 132.53 56.4199L133.669 54.6318C133.963 54.17 134.145 53.6655 134.452 53.208C134.495 53.144 134.542 53.0796 134.59 53.0156C134.573 53.1265 134.551 53.2374 134.525 53.3398C134.46 53.6007 134.365 53.8449 134.257 54.0801C134.062 54.5035 133.816 54.9014 133.591 55.3291L133.02 56.4238C133.002 56.4623 132.928 56.5139 132.854 56.5566C132.781 56.595 132.699 56.6296 132.664 56.6211C132.655 56.6208 132.639 56.6119 132.626 56.6035C132.6 56.5864 132.565 56.5525 132.53 56.5098C132.513 56.4884 132.492 56.4622 132.475 56.4365C132.436 56.3852 132.396 56.3214 132.353 56.2529C132.331 56.2188 132.31 56.184 132.288 56.1455C132.245 56.073 132.197 55.9922 132.149 55.9111C132.128 55.8727 132.106 55.8298 132.08 55.7871C131.959 55.5776 131.838 55.3593 131.717 55.1797C131.695 55.1456 131.669 55.1113 131.647 55.0771C131.396 54.7265 131.072 54.2214 131.067 53.751L131.055 53.7422V53.084C131.055 52.6436 131.059 52.2072 131.072 51.7754C131.098 50.9072 131.159 50.0424 131.271 49.1699C131.302 48.952 131.332 48.7297 131.366 48.5117ZM145.604 54.833C145.544 54.8116 145.37 54.863 145.318 54.8887H145.314C145.306 54.8929 145.306 54.8926 145.306 54.8926V54.9014C145.314 55.0383 145.345 55.2691 145.436 55.3418L145.898 55.7051C145.942 55.7136 145.981 55.7178 146.024 55.7178C146.319 55.7262 146.613 55.5596 146.777 55.2988L145.604 54.833ZM148.659 47.3994C148.443 47.7543 148.24 48.1011 148.05 48.4561C147.76 48.9949 147.508 49.542 147.283 50.1279V50.1152L146.262 52.7969L145.669 54.3574C145.717 54.3745 145.765 54.3882 145.812 54.4053C146.249 54.542 146.647 54.6486 147.071 54.7256C147.192 54.747 147.318 54.7681 147.443 54.7852L147.867 54.4346L148.153 54.1992L147.885 54.1143L146.345 53.6309C146.617 53.4984 146.916 53.5022 147.219 53.5449C147.998 53.6604 148.798 54.0586 149.274 53.1904L146.941 52.5576C147.937 52.1984 149.647 53.4685 150.227 52.3223L148.807 51.8896L147.396 51.4629C147.668 51.3474 148.015 51.3597 148.392 51.4238C149.551 51.6249 150.961 52.3259 151.087 51.4834C149.958 51.12 149.006 50.7955 147.933 50.3252C148.054 50.2611 148.269 50.1967 148.348 50.2178L151.049 50.9277C151.131 50.9491 151.213 50.9667 151.291 50.9795C151.628 51.0307 151.923 50.9532 152.183 50.5342C150.945 50.0167 149.962 49.9359 148.668 49.3115V49.3066C148.72 49.1912 148.794 49.1311 148.872 49.1055C148.95 49.08 149.045 49.0893 149.14 49.1191L150.996 49.6572L152.117 49.9824C152.299 50.038 152.606 50.0724 152.74 49.9785C152.827 49.9186 152.922 49.7769 152.982 49.6357C153 49.6016 153.013 49.5673 153.021 49.5332C151.589 48.9389 150.369 48.8188 149.127 48.2158C149.274 48.203 149.417 48.1953 149.556 48.1953C149.776 48.1996 149.992 48.2208 150.213 48.2764H150.222L153.424 49.0928H153.502C153.601 49.0628 153.719 48.9562 153.797 48.8535C153.844 48.7895 153.874 48.7292 153.874 48.6865C153.679 48.5882 153.481 48.4982 153.277 48.417C151.832 47.8353 150.243 47.6389 148.659 47.3994ZM130.246 50.9023L130.588 54.1699H130.583L130.033 53.4814C129.782 51.095 129.606 48.764 129.735 46.3818L130.246 50.9023ZM128.389 46.4111C128.454 47.0099 128.527 47.6047 128.604 48.1992C128.609 48.2119 128.609 48.2246 128.609 48.2373C128.648 48.5194 128.687 48.8019 128.726 49.084C128.73 49.1182 128.735 49.1488 128.739 49.1787C128.778 49.4609 128.821 49.7393 128.864 50.0215C128.869 50.0384 128.873 50.0514 128.873 50.0684C128.916 50.3419 128.964 50.6197 129.012 50.8975C129.012 50.9188 129.021 50.9366 129.021 50.958C129.068 51.2273 129.115 51.4969 129.167 51.7705C129.176 51.8174 129.185 51.8642 129.193 51.9111C129.245 52.1762 129.297 52.4459 129.354 52.7109C129.362 52.7537 129.371 52.801 129.38 52.8438C129.436 53.1216 129.497 53.3995 129.562 53.6816L129.284 53.6055L129.007 53.5283L128.626 50.8418L128.245 48.1562C128.228 48.0451 128.216 47.9295 128.207 47.8184C128.203 47.8014 128.202 47.7845 128.202 47.7676C128.193 47.6649 128.185 47.5616 128.185 47.459V47.3691C128.18 47.2752 128.181 47.1854 128.181 47.0957V46.8047C128.181 46.7107 128.189 46.612 128.189 46.5137C128.207 46.0733 128.237 45.6286 128.259 45.1797C128.298 45.5944 128.341 46.0006 128.389 46.4111ZM175.23 41.8438C175.507 41.0783 176.49 40.6118 177.199 41.1504C177.61 41.4668 177.537 42.2539 177.295 42.6475L177.299 42.6514C177.044 43.0662 176.468 43.4218 175.896 43.2764C175.204 43.1009 175.023 42.4167 175.23 41.8438ZM176.429 41.2275C176.212 41.1809 175.871 41.4417 175.724 41.6426L175.728 41.6387C175.507 41.9466 175.387 42.3656 175.78 42.5879C175.832 41.8352 176.598 41.6085 176.642 41.6299L177.009 41.8223C177.087 41.5657 176.727 41.296 176.429 41.2275Z" fill="var(--fill-0, #003249)"/>
</g>
</svg>
