<svg preserveAspectRatio="none" width="100%" height="100%" overflow="visible" style="display: block;" viewBox="0 0 307 155" fill="none" xmlns="http://www.w3.org/2000/svg">
<g id="Frame 74">
<path id="Union" d="M99.6348 91.4082C102.344 91.4082 104.982 92.8116 106.438 95.334C108.606 99.0909 107.317 103.896 103.561 106.063C102.344 106.765 101.02 107.111 99.7148 107.12H99.5723C98.1336 107.102 96.7216 106.693 95.4961 105.938C90.2382 102.803 88.4527 102.821 83.1504 106.001C83.106 106.019 83.0706 106.046 83.0352 106.063C79.2782 108.239 74.4817 106.951 72.3057 103.194C70.1386 99.4374 71.4267 94.632 75.1836 92.4648C77.777 90.9639 80.8678 91.1155 83.248 92.5898C88.506 95.7251 90.2914 95.707 95.5938 92.5273C95.6381 92.5007 95.6735 92.4738 95.709 92.4561C96.9435 91.7455 98.2937 91.4082 99.626 91.4082H99.6348ZM149.94 87.6865C151.024 87.6865 152.037 87.8553 152.979 88.1484C153.52 88.3349 154.026 88.5839 154.497 88.877V88.2373H157.197V101.729H154.497V101.08C154.026 101.373 153.52 101.622 152.979 101.809C152.028 102.111 151.024 102.271 149.94 102.271C148.857 102.27 147.845 102.102 146.903 101.809C146.024 101.507 145.251 101.054 144.576 100.512C143.359 99.4282 142.685 97.9446 142.685 96.3281V93.6279C142.685 92.0117 143.36 90.5288 144.576 89.4453C145.251 88.9035 146.024 88.4415 146.903 88.1484C147.854 87.8465 148.857 87.6866 149.94 87.6865ZM210.79 87.6865C211.873 87.6865 212.886 87.8554 213.827 88.1484C214.706 88.4504 215.479 88.9035 216.154 89.4453H216.146C217.362 90.5288 218.037 92.0117 218.037 93.6279V95.7861H206.233V96.3281C206.233 97.4117 206.678 98.38 207.415 99.0283C208.223 99.7388 209.405 100.112 210.79 100.112C212.176 100.112 213.357 99.7299 214.165 99.0283L216.154 100.512C215.479 101.053 214.706 101.516 213.827 101.809C212.877 102.11 211.873 102.27 210.79 102.271C209.706 102.271 208.693 102.102 207.752 101.809C206.873 101.507 206.101 101.053 205.426 100.512C204.209 99.4282 203.533 97.9446 203.533 96.3281V93.6279C203.533 92.0116 204.209 90.5199 205.426 89.4453C206.101 88.9037 206.873 88.4415 207.752 88.1484C208.702 87.8465 209.706 87.6865 210.79 87.6865ZM240.445 87.6777C242.87 87.6777 244.46 88.5482 245.437 89.4629L243.447 90.9463C242.639 90.2536 241.591 89.8447 240.445 89.8447C239.06 89.8448 237.577 90.3867 237.577 91.71C237.577 92.7136 238.047 93.1668 241.183 93.6553L241.2 93.6377C244.131 94.0995 247 95.2543 247 97.9277C247 100.139 244.77 102.244 240.925 102.244C237.079 102.244 234.85 100.307 234.042 98.4424L236.635 97.6875C237.141 98.7622 238.456 100.086 240.916 100.086C243.012 100.086 244.291 99.1354 244.291 97.9277C244.291 96.7198 243.003 95.991 240.916 95.6357C237.204 95.0229 234.877 94.2146 234.877 91.7012C234.877 89.1877 237.514 87.6778 240.445 87.6777ZM167.482 87.6963C168.566 87.6963 169.605 87.8651 170.52 88.1582C171.399 88.4601 172.207 88.9124 172.847 89.4541L170.857 90.9375C170.049 90.227 168.868 89.8545 167.482 89.8545C166.097 89.8545 164.916 90.236 164.107 90.9375C163.361 91.5858 162.926 92.5631 162.926 93.6377V101.729H160.226V88.2373H162.926V88.8857C163.396 88.5927 163.903 88.3447 164.48 88.1582C165.386 87.8563 166.399 87.6963 167.482 87.6963ZM227.993 87.6963C229.077 87.6963 230.124 87.8651 231.03 88.1582C231.909 88.4601 232.718 88.9124 233.357 89.4541L231.368 90.9375C230.56 90.227 229.379 89.8545 227.993 89.8545C226.608 89.8545 225.426 90.236 224.618 90.9375C223.872 91.5858 223.437 92.5631 223.437 93.6377V101.729H220.736V88.2373H223.437V88.8857C223.916 88.5927 224.414 88.3447 224.991 88.1582C225.906 87.8563 226.91 87.6963 227.993 87.6963ZM140.669 84.9951H130.553V89.8535H137.294V92.0117H130.553V101.72H127.853V92.0117H126.502V89.8535H127.853V82.8369H140.669V84.9951ZM193.585 87.6865C194.668 87.6865 195.681 87.8554 196.587 88.1484C197.502 88.4504 198.275 88.9035 198.914 89.4453H198.923C200.166 90.5288 200.842 92.0116 200.842 93.6279V101.72H198.142V93.6279C198.141 92.5446 197.697 91.577 196.925 90.9287C196.152 90.2271 195.006 89.8535 193.585 89.8535C192.164 89.8536 191.018 90.2271 190.21 90.9287C189.438 91.577 189.029 92.5447 189.029 93.6279V101.72H186.329V93.6279C186.329 92.5447 185.885 91.577 185.112 90.9287C184.34 90.2271 183.194 89.8535 181.772 89.8535C180.351 89.8535 179.206 90.2271 178.397 90.9287C177.625 91.577 177.217 92.5447 177.217 93.6279V101.72H174.517V88.2285H177.217V88.8496C177.687 88.5833 178.194 88.3349 178.735 88.1484C179.65 87.8465 180.689 87.6865 181.772 87.6865C182.856 87.6865 183.86 87.8554 184.774 88.1484C185.689 88.4504 186.462 88.9035 187.102 89.4453C187.306 89.6407 187.51 89.8005 187.679 90.0137C187.847 89.7917 188.017 89.6318 188.221 89.4453C188.86 88.9035 189.669 88.4415 190.548 88.1484C191.463 87.8465 192.502 87.6866 193.585 87.6865ZM149.94 89.8447C148.555 89.8448 147.374 90.2271 146.565 90.9287C145.82 91.577 145.385 92.5536 145.385 93.6279V96.3281C145.385 97.4116 145.82 98.38 146.565 99.0283C147.374 99.7388 148.555 100.112 149.94 100.112C151.326 100.112 152.507 99.7298 153.315 99.0283C154.061 98.38 154.497 97.4117 154.497 96.3281V93.6279C154.497 92.5445 154.061 91.577 153.315 90.9287C152.507 90.2271 151.326 89.8447 149.94 89.8447ZM210.799 89.8535C209.413 89.8535 208.232 90.2271 207.424 90.9287C206.678 91.577 206.242 92.5446 206.242 93.6279H215.355C215.355 92.5446 214.92 91.577 214.174 90.9287C213.366 90.2271 212.184 89.8535 210.799 89.8535ZM64.9258 78.1475C67.5192 76.6555 70.61 76.8069 72.9902 78.2812C76.1699 80.1819 78.0798 80.9193 80.2646 80.5107C80.4688 80.5996 80.6734 80.7772 80.9131 81.0879C81.7833 82.2245 81.7475 82.9351 81.6143 83.7344C81.5965 83.841 81.5793 83.9568 81.5615 84.0723C81.3928 85.0136 81.1884 86.1766 81.5879 86.8516C81.8099 87.2157 81.8632 87.6425 81.8721 87.9268C81.7122 87.8291 81.4727 87.6334 81.1885 87.1982C80.5756 86.2568 79.9443 84.7734 79.9443 84.7734L79.3232 82.8193C79.3054 82.7484 79.2515 82.6956 79.1895 82.6689C79.154 82.6601 79.1273 82.6514 79.0918 82.6514C79.0562 82.6515 78.9854 82.6777 78.9854 82.6777L78.6475 82.8555C78.5412 82.9089 78.4967 83.0332 78.5322 83.1396C78.5342 83.1544 78.7297 83.7594 79.0479 85.085C79.1011 85.3067 79.1539 85.5197 79.1982 85.7148C79.4203 86.7629 79.6163 87.66 80.5488 88.335C81.0639 88.708 81.3834 88.8418 81.6055 88.9395C81.8185 89.0282 81.8453 89.0369 81.8896 89.1699L81.9697 89.4102C82.0141 89.5611 82.0763 89.7653 82.165 89.9961C79.0032 88.6461 77.0137 89.2057 72.8838 91.6836C72.8483 91.7102 72.8128 91.7283 72.7773 91.7461C69.0204 93.9221 64.215 92.6339 62.0479 88.877C61.3462 87.6691 61.0089 86.3456 61 85.04V84.8799C61.0268 82.1977 62.4301 79.5951 64.9258 78.1475ZM105.968 78.1484C109.725 75.9813 114.53 77.2694 116.697 81.0264C118.864 84.7833 117.576 89.579 113.819 91.7461C111.226 93.247 108.135 93.0963 105.755 91.6221C102.087 89.4372 100.115 88.7798 97.4502 89.668C97.4857 89.6059 97.5211 89.5523 97.5566 89.499C97.681 89.3036 97.7787 89.1524 97.832 89.0547C97.912 88.9304 97.9749 88.7884 98.0371 88.6641C98.259 88.1937 98.4096 87.9358 98.7822 87.9355H98.8096C99.0582 87.9445 99.3516 88.0246 99.6357 88.1045C99.9641 88.2021 100.266 88.2909 100.55 88.291C100.781 88.291 100.967 88.2287 101.109 88.1133C101.614 87.7147 102.102 86.6982 102.122 86.6484C102.158 86.5863 102.158 86.4967 102.113 86.4346C102.078 86.3637 102.007 86.3194 101.936 86.3105L101.519 86.2656H101.491C101.376 86.2658 101.279 86.3466 101.252 86.4619C101.234 86.5777 101.118 86.9148 100.905 86.9414C100.772 86.968 100.666 86.9852 100.577 87.0029C100.426 87.0385 100.328 87.0566 100.168 87.0566C100.088 87.0566 99.999 87.0479 99.8926 87.0391C99.7151 87.0213 99.5463 86.9856 99.4043 86.959C99.351 86.9501 99.3062 86.9415 99.2529 86.9326C99.5282 86.6662 99.9372 86.2927 100.443 85.9375C100.799 85.6888 101.083 85.5374 101.332 85.4131C101.767 85.1912 102.105 85.0227 102.354 84.5078C102.54 84.126 102.53 83.5308 102.521 82.9004C102.504 82.3143 102.495 81.6569 102.673 81.417C103.206 80.6976 102.877 80.1819 102.859 80.1553C102.815 80.0844 102.735 80.0489 102.655 80.0488C102.629 80.0488 102.577 80.0573 102.575 80.0576L102.016 80.2617C101.989 80.2706 101.962 80.2889 101.944 80.3066C101.722 80.4756 101.465 81.1419 101.589 82.0742V82.127C101.687 82.9529 101.74 83.3355 101.536 83.6553L101.519 83.6729C101.563 83.2732 101.562 82.7844 101.376 82.4824C101.163 82.1273 101.208 81.5152 101.243 81.3105C101.252 81.2217 101.225 81.1412 101.154 81.0879C101.11 81.0435 101.056 81.0264 101.003 81.0264C100.976 81.0264 100.949 81.0351 100.923 81.0439C100.789 81.0885 100.488 81.2216 100.391 81.4434C100.382 81.4522 100.372 81.4696 100.363 81.4873C100.221 81.7182 100.097 82.0295 100.354 82.7842C100.603 83.5214 100.657 84.1083 100.497 84.4014C100.381 84.5967 99.9989 84.8182 99.626 85.0312C99.4662 85.12 99.2975 85.2178 99.1377 85.3154C98.9334 85.4487 98.7468 85.6087 98.5869 85.7686C98.6224 85.2979 98.6137 84.7027 98.4805 84.1787C98.4361 84.0189 98.392 83.8676 98.3477 83.7256C98.1523 83.0597 98.0455 82.7222 98.374 82.1895C98.5427 81.9053 98.8183 81.6657 99.1113 81.4082C99.3867 81.1684 99.6708 80.9193 99.8662 80.6084C101.563 80.5462 103.304 79.7473 105.853 78.2197C105.887 78.2025 105.963 78.1515 105.968 78.1484ZM88.1875 77.1885C88.5783 77.7658 89.0749 78.5657 89.4746 79.3916C90.2472 81.0079 90.7806 83.1569 90.7363 84.498C90.683 85.9014 90.6298 86.8614 90.2656 87.5098C89.8661 88.2112 89.7143 88.5396 89.5723 89.3564C89.5012 89.7472 89.4659 90.1385 89.457 90.4404C89.1462 90.1296 88.7198 89.6231 88.5244 89.0547C88.4623 88.8683 88.4008 88.7258 88.3564 88.6104C88.2559 88.3558 88.3593 87.9863 88.667 87.501L88.8271 87.2344C89.8663 85.5646 90.1141 84.2318 89.5635 83.2637C89.5192 83.193 89.4574 83.1574 89.3867 83.1396H89.3506C89.2885 83.1397 89.2348 83.1578 89.1904 83.2021L88.7822 83.584C88.7024 83.655 88.6753 83.7705 88.7285 83.8682C88.7299 83.8799 88.8522 84.1461 88.7109 84.6406C88.6844 84.7469 88.6584 84.8004 88.6406 84.8359C88.5873 84.7915 88.454 84.6583 88.1699 84.2588C87.6727 83.5218 87.6281 82.5362 87.7168 82.1719C87.7346 82.1097 87.7161 82.0474 87.6895 81.9941C87.654 81.9409 87.6011 81.8967 87.5391 81.8877L87.1211 81.7803H87.0684C86.9973 81.7803 86.9175 81.8167 86.873 81.8789C86.8531 81.9086 86.2964 82.6885 86.7393 83.6367C86.8014 83.7877 86.8724 83.939 86.9346 84.0811C87.281 84.8538 87.5835 85.5111 87.9121 85.7598C88.0185 85.8308 88.0897 85.9462 88.0986 86.0615C88.1075 86.2125 88.0452 86.3726 87.9209 86.5146C87.841 86.5946 87.7432 86.6836 87.6455 86.7725C87.2725 87.1188 86.802 87.5537 87.0596 88.0244C87.0773 88.051 87.0858 88.0778 87.1035 88.1133C87.0059 87.9801 86.9081 87.8203 86.8193 87.625C86.5085 86.9766 86.668 85.964 86.668 85.9551C86.6769 85.884 86.6596 85.8218 86.624 85.7686C86.5796 85.7153 86.5172 85.6709 86.4551 85.6709L85.7803 85.5996H85.7539C85.683 85.5996 85.6118 85.6265 85.5674 85.6885C85.5142 85.7417 85.4961 85.8216 85.5225 85.9014C85.5225 85.9102 85.7004 86.6034 85.7715 87.3672C85.8425 88.2369 86.8978 89.231 87.0234 89.3477C87.0234 89.3477 88.0451 90.3955 88.4893 91.0527C88.6225 91.257 88.7383 91.409 88.8271 91.5244C89.0399 91.7904 89.1106 91.8884 89.1904 92.3584C89.2082 92.4916 89.2179 92.6341 89.2002 92.7939C87.7969 92.7673 86.4196 92.3592 85.2295 91.6221C84.9898 91.48 84.7503 91.3373 84.5283 91.2041C83.8889 90.5558 83.4441 90.0673 83.7637 89.2236C84.1722 88.149 84.2975 87.8916 84.7061 87.0391C84.8126 86.817 84.9368 86.5504 85.0967 86.2129C85.8072 84.703 85.8427 84.3298 85.9404 83.4238L85.9668 83.166C86.082 82.1479 86.9651 80.8743 86.9795 80.8574C87.0505 80.7597 87.0418 80.6346 86.9619 80.5547L86.6777 80.2529C86.6334 80.2086 86.5709 80.1817 86.5 80.1816C86.4645 80.1816 86.4193 80.1912 86.3838 80.209C86.3614 80.2291 85.9738 80.4432 85.7002 80.9727C85.6736 80.8661 85.6469 80.7233 85.6025 80.5635C85.4782 80.0394 85.3363 79.2222 85.2031 78.2988C85.2475 78.2722 85.2916 78.2453 85.3359 78.2188C85.3713 78.2011 85.407 78.175 85.4424 78.1484C86.3128 77.6422 87.246 77.3306 88.1875 77.1885ZM90.9482 77.2598C91.3033 77.3308 91.65 77.4285 91.9873 77.5527C91.9962 77.5882 92.0058 77.615 92.0234 77.6416C92.0323 77.6594 92.6986 78.557 92.5742 79.2764C92.5387 79.4717 92.4936 79.6227 92.4492 79.7559C92.316 80.2087 92.2629 80.4844 92.7246 81.248C93.0177 81.7454 93.0806 82.0831 93.125 82.3584C93.1694 82.607 93.2139 82.8466 93.4092 83.0508C93.489 83.1394 93.5599 83.2104 93.6309 83.2725C93.8263 83.4501 93.9154 83.5309 93.9775 83.9395C94.0042 84.188 94.0215 84.4104 94.0215 84.5879C93.8616 84.4547 93.6488 84.2588 93.4268 83.9658C92.9205 83.3441 92.8135 82.3937 92.8135 82.3848C92.8046 82.3226 92.7779 82.2602 92.7246 82.2158C92.6803 82.1893 92.6273 82.1719 92.5742 82.1719H92.5469L92.1123 82.2334C91.988 82.2512 91.8905 82.3668 91.9082 82.5C91.9171 82.5533 92.0943 83.9031 92.5205 84.5693C92.7514 84.9156 93.08 85.129 93.373 85.3066C93.6217 85.4665 93.8354 85.5998 93.8887 85.7686C93.9331 85.9018 93.977 86.0888 94.0303 86.2842C94.1635 86.808 94.3061 87.3937 94.5635 87.7578C94.7233 87.9887 94.7144 88.1669 94.6611 88.6465C94.6345 88.8418 94.6076 89.0725 94.5898 89.3564C94.5898 89.3918 94.5898 89.4275 94.5811 89.4541C94.5367 89.4187 94.4741 89.383 94.4121 89.3564C94.3679 89.3301 94.3235 89.3301 94.2793 89.3301C93.8885 89.3301 93.4621 89.9163 93.2578 90.458C93.0535 91.0176 92.8048 91.3645 92.6094 91.5244C92.5561 91.409 92.4848 91.1507 92.4404 90.6533C92.4316 90.5023 92.4316 90.2893 92.4316 90.0674C92.4405 89.268 92.4228 88.7348 92.1475 88.5039C91.8366 88.2464 91.3127 88.0245 91.2949 88.0156C91.2594 87.9979 91.2328 87.998 91.1973 87.998C91.1262 87.9981 91.0551 88.0248 91.0107 88.0869C90.9398 88.1757 90.9398 88.2999 91.0107 88.3887C91.0107 88.3887 91.2239 88.6554 91.3838 89.2949C91.4282 89.4547 91.4731 89.5971 91.5264 89.748C91.6773 90.2274 91.8008 90.6091 91.5967 91.124C91.3481 91.781 91.3483 92.1898 91.3838 92.5449C91.1706 92.5982 90.966 92.6432 90.7617 92.6787C90.7173 92.4123 90.655 92.1721 90.584 91.9678C90.2379 91.044 90.4689 89.0197 91.0371 87.874C91.6499 86.6662 91.899 83.3978 91.5527 82.5537C91.2685 81.8343 90.5757 79.1429 90.5312 78.6455C90.5135 78.4501 90.576 78.2987 90.6826 78.0234C90.7625 77.8193 90.8595 77.5881 90.9482 77.2598ZM94.4131 91.0977C94.2978 91.1597 94.1827 91.222 94.0674 91.293C94.236 90.9646 94.3152 90.7335 94.3418 90.627L94.502 90.4316C94.4753 90.6537 94.4486 90.8756 94.4131 91.0977ZM94.4395 78.832C95.1587 79.2316 95.816 79.5685 96.4287 79.8438C96.5886 80.1635 96.7131 80.5458 96.7842 80.8389C96.7309 81.1941 96.4377 83.2101 97.0947 84.3203C97.5477 85.0841 97.4942 85.3332 97.3965 85.7861C97.361 85.946 97.3255 86.1324 97.2988 86.3633C97.21 87.1271 96.9258 87.7577 96.4551 88.2373C96.2508 88.4416 95.9937 88.8504 95.7539 89.25C95.8338 88.4773 95.869 87.5888 95.6914 87.2246C95.576 86.9849 95.4427 86.816 95.3184 86.665C95.1053 86.3809 94.9281 86.1586 94.8926 85.6348C94.866 85.2085 94.9543 84.7464 95.0342 84.3379C95.123 83.8496 95.1938 83.4944 95.0518 83.2725C94.9718 83.1482 94.874 83.0326 94.7764 82.8994C94.6254 82.7218 94.4479 82.5085 94.3857 82.3398C94.3059 82.1356 94.4486 81.8246 94.7949 81.4072C95.203 80.9188 95.1944 79.73 95.1855 79.5957C95.1855 79.5069 95.1317 79.4272 95.0518 79.3828C95.0163 79.3739 94.9808 79.3643 94.9453 79.3643C94.8922 79.3643 94.8392 79.3826 94.7949 79.418C94.5197 79.64 94.448 79.9328 94.377 80.1992C94.3326 80.3945 94.2796 80.5902 94.1465 80.75C94.0933 80.821 94.0396 80.8831 93.9863 80.9541C94.004 80.9187 94.0126 80.8918 94.0303 80.8652C94.2345 80.4922 94.483 79.1879 94.5098 79.0449C94.5186 78.9651 94.4925 78.8853 94.4395 78.832ZM84.0479 78.9648C84.1455 79.5953 84.2614 80.1373 84.3857 80.457C84.5101 80.8123 84.6607 81.1416 84.7939 81.4258C84.9449 81.7721 85.1223 82.154 85.1045 82.2783C85.1045 82.3315 85.0957 82.4025 85.0957 82.5088C85.0691 83.0416 85.0072 84.294 84.4834 84.9336C83.986 85.5464 83.7725 86.3104 83.5859 86.9766C83.5149 87.2518 83.4354 87.5183 83.3555 87.7402C83.3111 87.8379 83.2748 87.9443 83.2305 88.042L83.1777 84.4717C83.0712 83.4679 82.8848 80.7417 83.3555 79.8447C83.4532 79.6494 83.5413 79.436 83.6035 79.2051C83.7456 79.134 83.8969 79.0537 84.0479 78.9648ZM70.1299 81.7539C69.8016 81.7717 69.6246 81.8696 69.5713 82.0293C69.5092 82.2423 69.6948 82.4731 69.8369 82.6152C69.0466 82.8284 68.5317 83.2106 68.2031 83.5303C68.1322 83.6101 68.0698 83.6809 68.0166 83.7607C67.83 83.6719 67.3059 83.3884 66.9951 83.1309C66.8086 82.9799 66.5865 82.9798 66.4355 83.1396C66.2492 83.335 66.2404 83.7254 66.5244 84.0361C66.9416 84.4888 66.8975 84.6403 66.667 84.8887C66.5428 85.0306 66.5688 85.173 66.6396 85.2441C66.7107 85.3329 66.844 85.3691 67.0127 85.3691C67.3235 85.3691 67.768 85.2269 68.2031 84.9072C68.2387 84.8717 68.256 84.8266 68.2383 84.7822C68.2649 84.7911 68.2917 84.8006 68.3184 84.8184C68.4249 84.8539 68.558 84.9163 68.7178 84.9873C69.1619 85.2005 69.8109 85.5022 70.5303 85.5732C70.5391 85.7242 70.4683 85.902 70.415 86.0352C70.344 86.2039 70.2903 86.3194 70.3613 86.4082C70.4057 86.4525 70.4595 86.4697 70.5127 86.4697C70.5391 86.4696 70.574 86.4611 70.5918 86.4609C70.9648 86.381 71.8533 85.5997 71.96 85.502C71.9777 85.4842 71.9862 85.4573 71.9951 85.4307C72.8922 85.2353 73.8963 84.88 74.1006 84.4004C74.1804 84.2317 74.1535 84.0631 74.0381 83.9033C73.674 83.3883 72.955 82.8728 72.1025 82.6152C72.1025 82.5886 72.093 82.5529 72.0664 82.5264C72.0277 82.4967 71.1581 81.683 70.1299 81.7539ZM82.3516 79.8262C82.3338 79.8706 82.3069 79.9069 82.2803 79.9424C82.1295 80.1376 82.0231 80.3949 81.9609 80.6787C81.8899 80.5456 81.8096 80.4122 81.7031 80.2969C81.6589 80.2438 81.6058 80.1908 81.5703 80.1377C81.8278 80.0489 82.0851 79.9416 82.3516 79.8262ZM93.5068 78.2812C93.7999 78.4589 94.0842 78.6185 94.3506 78.7783C94.324 78.7694 94.2971 78.7608 94.2705 78.7607C94.2527 78.7607 94.2168 78.7695 94.2168 78.7695L93.7373 78.8672C93.6486 78.885 93.5862 78.9475 93.5596 79.0273C93.5505 79.0371 93.4977 79.2151 93.418 79.4365V79.3115C93.4268 78.983 93.373 78.5391 93.2842 78.1484C93.3552 78.1928 93.4358 78.2368 93.5068 78.2812ZM72.3057 66.2285C74.4817 62.4717 79.2783 61.1845 83.0352 63.3516C83.0705 63.3781 83.1062 63.3954 83.1504 63.4219C83.5943 63.6882 84.0117 63.9284 84.4023 64.1504C84.0826 64.7099 84.0829 65.4389 84.376 66.4336C84.5093 66.8865 84.865 67.4988 85.2822 68.2002C85.824 69.1328 86.4461 70.199 86.5615 70.9717C86.6326 71.4334 86.7122 71.7975 86.7744 72.1172C86.9165 72.7744 87.0142 73.2457 86.9609 74.0361C86.9432 74.3557 86.9604 74.6486 87.0137 74.9238C86.3743 75.1547 85.6992 75.4656 84.9443 75.8652C84.8467 74.4534 84.8559 73.1748 85.1045 72.624C85.7529 71.2118 85.5217 69.9322 85.5039 69.8789C85.4949 69.7992 85.4332 69.7278 85.3623 69.7012L84.8027 69.4795C84.7762 69.4618 84.7405 69.4619 84.7139 69.4619C84.6606 69.4619 84.6069 69.4792 84.5625 69.5146C84.4914 69.5679 84.4736 69.6573 84.4736 69.7461C84.4825 69.755 84.7133 71.167 84.207 71.9131C83.8341 72.4726 83.888 73.2011 83.9502 73.9648C83.9946 74.4889 84.0391 75.031 83.9414 75.5195C83.9325 75.5905 83.9141 75.6614 83.9053 75.7412C83.9053 75.5991 83.8965 75.51 83.8965 75.4922C83.8343 74.675 83.6121 73.254 83.2568 72.6768L83.1152 72.4463C82.1027 70.7943 81.9513 70.6429 81.7559 70.6162H81.7207C81.4809 70.6162 81.2502 70.8831 81.1348 71.043C81.0637 71.1407 81.0724 71.2736 81.1523 71.3535C81.1638 71.3651 82.1115 72.3324 82.4043 73.707C82.6352 74.7373 82.8218 75.6169 82.7686 76.3896C82.36 75.2794 81.5959 73.3346 81.0186 72.624C80.9031 72.4731 80.7883 72.3305 80.6729 72.1973C80.0601 71.4601 79.6516 70.9718 79.6338 70.0127C79.616 69.5242 79.5089 69.0884 79.4023 68.6621C79.2336 68.0139 79.0912 67.4451 79.3398 66.7969C79.7839 65.6335 80.0244 64.9053 80.0244 64.9053C80.0509 64.8432 80.0423 64.7719 80.0068 64.7188C79.9802 64.6566 79.9265 64.6125 79.8555 64.5947L79.5 64.5059C79.4822 64.497 79.4552 64.4971 79.4375 64.4971C79.3577 64.4972 79.2777 64.5414 79.2334 64.6123C79.1979 64.6834 78.1855 66.3002 77.999 67.4814C77.8659 68.334 78.1506 69.1693 78.417 69.9863C78.5324 70.3237 78.6476 70.6791 78.7363 71.0342C79.0205 72.2063 79.1009 72.3044 79.7314 73.0859L79.873 73.2539C80.5481 74.1065 81.1789 75.1373 81.2588 75.2705C81.3211 75.4307 81.8363 76.7092 81.9873 77.4463C80.6195 77.997 79.1179 78.1484 77.6436 77.873C77.3416 77.2158 77.3154 76.6915 77.3154 76.6826C77.3154 76.6028 77.2711 76.5317 77.2002 76.4873C77.1647 76.4695 77.1196 76.4521 77.0752 76.4521C77.0396 76.4523 76.9688 76.4785 76.9688 76.4785L76.5244 76.6914C76.4269 76.7447 76.3739 76.8427 76.3916 76.9492C76.4006 76.9765 76.4357 77.2254 76.5332 77.5713C76.0714 77.4114 75.6187 77.2066 75.1836 76.958C71.4267 74.782 70.1385 69.9855 72.3057 66.2285ZM95.4961 63.4844C97.8674 62.0101 100.967 61.8587 103.561 63.3506C107.317 65.5177 108.597 70.3231 106.43 74.0801C105.257 76.1051 103.321 77.4105 101.198 77.8457C101.385 77.6947 101.519 77.5968 101.519 77.5879C101.616 77.5168 101.642 77.3838 101.58 77.2773L101.358 76.8867C101.314 76.8069 101.234 76.7628 101.154 76.7627C101.119 76.7627 101.083 76.7714 101.048 76.7891C101.03 76.7979 100.675 76.9668 100.311 77.251C100.337 77.0112 100.363 76.7619 100.372 76.6465C100.39 76.54 100.354 76.4333 100.283 76.3623C100.203 76.2649 100.088 76.2207 99.9102 76.2207C99.7327 76.2208 99.5199 76.2739 99.3779 76.3271C99.0582 76.4426 99.0932 76.8511 99.1465 77.4551C99.1554 77.6149 99.1826 77.8018 99.1826 77.9883C98.4544 77.9528 97.7348 77.8102 97.0332 77.5615C97.1131 77.4817 97.2463 77.4198 97.4326 77.3311C97.7612 77.1801 98.1614 76.9932 98.4189 76.5225C98.8363 75.7411 99.0672 75.67 99.2715 75.6611C99.36 75.6612 99.4222 75.6785 99.502 75.7051C99.5818 75.7317 99.6796 75.7588 99.7949 75.7588C100.008 75.7588 100.204 75.6518 100.417 75.4209C100.532 75.279 100.639 75.1283 100.736 74.9863C100.914 74.7288 101.083 74.4795 101.252 74.4795C101.287 74.4795 101.323 74.4882 101.358 74.5059C101.438 74.5414 101.509 74.569 101.58 74.6045C101.793 74.6933 102.006 74.7909 102.255 74.791C102.592 74.791 102.913 74.6039 103.25 74.1865C103.968 73.2995 103.916 72.3328 103.916 72.2949C103.907 72.1795 103.819 72.0723 103.703 72.0723C103.702 72.072 103.658 72.0635 103.588 72.0635C103.428 72.0635 103.206 72.0905 103.037 72.2236C102.922 72.3213 102.842 72.4813 102.753 72.6855C102.655 72.9075 102.54 73.1563 102.371 73.3428C102.22 73.5026 102.069 73.5204 101.723 73.5293C101.509 73.5471 101.243 73.5559 100.914 73.627C100.319 73.7602 100.142 74.0535 100.018 74.2666C99.9466 74.3907 99.9107 74.444 99.8311 74.4795H99.8213C99.8568 74.0621 99.8575 73.4312 99.6621 73.0938C99.3869 72.6409 99.2976 72.4809 99.3242 72.25C99.3332 72.1613 99.3774 72.0548 99.4395 71.9307C99.546 71.7086 99.6792 71.4329 99.7236 71.0332C99.7683 70.5713 100.284 69.8433 100.479 69.6035C100.524 69.5414 100.541 69.4527 100.515 69.3818C100.488 69.3019 100.426 69.2394 100.354 69.2217L99.7334 69.0439C99.7157 69.0439 99.6975 69.0352 99.6709 69.0352C99.6087 69.0352 99.5464 69.0619 99.502 69.1152C99.4127 69.2045 98.65 70.0211 98.7031 70.6426C98.7209 70.8557 98.6851 71.0782 98.6318 71.2559C98.5164 71.1226 98.3917 70.9445 98.2852 70.7402C98.2053 70.5893 98.1249 70.3944 98.0361 70.208C97.7519 69.5419 97.6102 69.248 97.3438 69.248C97.2994 69.2481 97.2553 69.2576 97.2109 69.2842C97.1399 69.3197 97.086 69.3996 97.0771 69.4795C97.077 69.5445 96.9889 70.9548 97.6543 71.7178L97.7344 71.8154C97.9592 72.0758 98.1047 72.2855 98.1699 72.4453C98.2143 72.5608 98.2674 72.7123 98.374 72.9521C98.4539 73.1563 98.5432 73.3247 98.6143 73.4668C98.8541 73.973 98.8985 74.0803 98.7031 74.3379C98.6232 74.4356 98.5602 74.5333 98.498 74.6221C98.2762 74.9326 98.1697 75.0928 97.7793 75.1904C97.3175 75.3059 97.0862 75.643 96.9707 75.8828C96.9174 75.5543 96.7488 75.2167 96.376 75.0391C95.8611 74.7816 95.4169 74.2495 95.2656 74.0449L95.4258 72.9873C95.6568 72.9072 96.083 72.6937 96.3848 72.2588C96.7754 71.6994 96.9443 71.2199 96.9443 71.2021C96.9709 71.1223 96.9614 71.0427 96.9082 70.9717C96.8638 70.9184 96.7927 70.8828 96.7217 70.8828H96.6953L96.2158 70.9355C96.1448 70.9444 96.0824 70.98 96.0469 71.0332C96.0202 71.0687 96.0029 71.1138 96.0029 71.1582C95.985 71.1939 95.8958 71.3362 95.5498 71.6201C95.5155 71.6373 95.4644 71.6788 95.4609 71.6816L95.8252 70.7764C95.8696 70.661 95.8338 70.5456 95.7363 70.4834C95.6919 70.4568 95.4788 70.3234 95.248 70.3232C95.0171 70.3232 94.7677 70.4654 94.7588 70.8828V71.0957C94.7588 71.522 94.7677 71.7351 94.3857 72.2236C93.9864 72.7296 94.1551 73.2093 94.2705 73.5645C94.3327 73.7243 94.377 73.8758 94.3682 73.9824C94.3593 74.0711 94.342 74.1332 94.3242 74.1953C94.2177 74.586 94.3418 74.7282 94.9453 75.1543C95.0519 75.2342 95.1504 75.306 95.2393 75.3682C95.7806 75.7409 95.8962 75.8209 95.9229 76.2559C95.9406 76.4779 95.9135 76.7715 95.8779 77.0469C95.816 77.0203 95.7631 76.9934 95.71 76.958C95.6746 76.9315 95.6389 76.9132 95.6123 76.9043C95.6034 76.9043 95.6026 76.8956 95.5938 76.8867C95.0965 76.5848 94.6257 76.318 94.1816 76.0693C94.1553 76.0605 94.129 76.0516 94.1113 76.0342C93.9959 75.972 93.88 75.9097 93.7734 75.8564C93.7647 75.8477 93.7558 75.8474 93.7471 75.8389C93.5518 75.7146 93.3829 75.5634 93.2852 75.3682C92.9121 74.6932 92.8496 73.8399 92.8496 73.8311C92.8495 73.7601 92.814 73.6976 92.7607 73.6621C92.7165 73.6268 92.6721 73.6095 92.6191 73.6094H92.5742C92.4054 73.6361 92.015 73.743 91.9795 74.0449C91.9706 74.1434 91.9441 74.5605 92.1836 75.1104C91.9704 75.0215 91.7657 74.9411 91.5703 74.8789C91.9166 73.8846 92.3697 72.9614 92.6982 72.5615C93.3021 71.7978 94.1727 70.4653 94.6523 69.3818C95.1675 68.2183 95.0703 67.5784 95.0703 67.5518C95.0614 67.463 94.9988 67.3919 94.9189 67.3564C94.8914 67.3473 94.6258 67.2589 94.4043 67.2588C94.1023 67.2588 93.9777 67.4279 93.96 67.5967C93.9512 67.6322 93.9512 67.6852 93.9512 67.7383C93.9334 68.0847 93.8978 68.8135 93.3027 69.5596C92.8232 70.1635 92.5034 70.9006 92.2725 71.4424C92.1926 71.6376 92.1129 71.8152 92.0508 71.9395C91.9975 71.833 91.9263 71.6821 91.8818 71.5312C91.8552 71.025 91.7569 70.1898 91.4727 69.9678C91.3662 69.8969 91.2511 69.8526 91.127 69.8525C90.8784 69.8525 90.6917 70.03 90.6738 70.0479C90.6384 70.0921 90.6115 70.1451 90.6113 70.1982C90.6024 70.2427 90.5494 71.2112 90.8691 71.9307C91.0822 72.4102 91.0113 73.3604 90.958 73.7246L90.5674 74.6045C89.8568 74.4624 89.1637 74.453 88.4531 74.5596L88.1865 72.9785L88.0537 71.4248C88.1603 71.2472 88.3202 70.8205 88.4268 69.8438C88.6133 68.1297 88.7817 66.5396 88.7373 66.0244C88.7284 65.9534 88.7468 65.8729 88.7734 65.793C90.7361 65.9882 92.5833 65.216 95.4961 63.4844ZM134.087 55.3135C135.206 55.3135 136.21 55.4823 137.125 55.7754C138.031 56.0774 138.813 56.5039 139.452 57.0723C140.669 58.1557 141.344 59.6387 141.344 61.2549V69.3467C141.344 70.9629 140.669 72.4549 139.452 73.5029C138.813 74.0713 138.04 74.5331 137.125 74.8262C136.21 75.1281 135.17 75.2881 134.087 75.2881C133.003 75.2881 132 75.1281 131.085 74.8262C130.179 74.5242 129.397 74.0713 128.758 73.5029C127.515 72.4461 126.84 70.9629 126.84 69.3467V61.2549C126.84 59.6387 127.515 58.1468 128.758 57.0723C129.397 56.5039 130.17 56.0774 131.085 55.7754C132 55.4734 132.968 55.3135 134.087 55.3135ZM150.954 60.7041C152.038 60.7041 153.05 60.873 153.991 61.166C154.87 61.468 155.643 61.9211 156.318 62.4629C157.535 63.5464 158.21 65.0292 158.21 66.6455H155.51C155.51 65.5622 155.066 64.5946 154.329 63.9463C153.521 63.2358 152.34 62.8623 150.954 62.8623C149.569 62.8623 148.387 63.2446 147.579 63.9463C146.833 64.5946 146.398 65.571 146.397 66.6455V69.3457C146.397 70.4293 146.833 71.3975 147.579 72.0459C148.387 72.7475 149.569 73.1211 150.954 73.1211C152.34 73.1211 153.521 72.7475 154.329 72.0459C155.075 71.3975 155.51 70.4292 155.51 69.3457H158.21C158.21 70.9622 157.535 72.4546 156.318 73.5293C155.643 74.071 154.87 74.5331 153.991 74.8262C153.041 75.1281 152.037 75.2881 150.954 75.2881C149.871 75.2881 148.857 75.1193 147.916 74.8262C147.037 74.5242 146.265 74.0709 145.59 73.5293C144.373 72.4457 143.697 70.9622 143.697 69.3457V66.6455C143.697 65.0292 144.373 63.5464 145.59 62.4629C146.265 61.9212 147.037 61.4591 147.916 61.166C148.866 60.864 149.871 60.7041 150.954 60.7041ZM184.687 60.7139C185.77 60.7139 186.782 60.8827 187.724 61.1758C188.265 61.3622 188.772 61.6103 189.242 61.9033V61.2549H191.942V74.7471H189.242V74.0986C188.772 74.3916 188.265 74.6397 187.724 74.8262C186.773 75.1281 185.77 75.288 184.687 75.2881C183.603 75.2881 182.59 75.1193 181.648 74.8262C180.769 74.5242 179.996 74.072 179.321 73.5303V73.5391C178.105 72.4555 177.43 70.9719 177.43 69.3555V66.6553C177.43 65.0389 178.105 63.5552 179.321 62.4717C179.996 61.93 180.769 61.4689 181.648 61.1758C182.599 60.8738 183.603 60.7139 184.687 60.7139ZM167.811 60.6953C168.894 60.6953 169.907 60.8641 170.849 61.1572C171.728 61.4592 172.501 61.9124 173.176 62.4541C174.392 63.5375 175.067 65.0206 175.067 66.6367V68.7959H163.264V69.3369C163.264 70.4203 163.707 71.3887 164.444 72.0371C165.252 72.7467 166.431 73.1192 167.814 73.1201C169.198 73.1195 170.378 72.7381 171.186 72.0371L173.176 73.5205C172.501 74.0623 171.728 74.5243 170.849 74.8174C169.898 75.1194 168.894 75.2793 167.811 75.2793C166.727 75.2793 165.715 75.1104 164.773 74.8174C163.894 74.5154 163.121 74.0623 162.446 73.5205C161.23 72.4369 160.555 70.9534 160.555 69.3369V66.6367C160.555 65.0205 161.23 63.5287 162.446 62.4541C163.121 61.9123 163.894 61.4503 164.773 61.1572C165.715 60.8553 166.727 60.6953 167.811 60.6953ZM202.228 60.7041C203.311 60.7041 204.324 60.8729 205.229 61.166C206.144 61.468 206.917 61.9211 207.557 62.4629C208.8 63.5464 209.475 65.0293 209.475 66.6455V74.7373H206.774V66.6455H206.784C206.784 65.5623 206.34 64.5946 205.567 63.9463C204.795 63.2447 203.649 62.8711 202.228 62.8711C200.806 62.8711 199.661 63.2446 198.853 63.9463C198.08 64.5946 197.671 65.5621 197.671 66.6455V74.7373H194.971V61.2461H197.671V61.8672C198.142 61.6008 198.648 61.3525 199.189 61.166C200.104 60.864 201.144 60.7041 202.228 60.7041ZM134.087 57.4805C132.702 57.4805 131.521 57.8535 130.748 58.5283C129.967 59.2032 129.531 60.1715 129.531 61.2549V69.3467C129.531 70.4302 129.975 71.3985 130.748 72.0469C131.521 72.7483 132.666 73.1298 134.087 73.1299C135.508 73.1299 136.654 72.7483 137.462 72.0469C138.235 71.3985 138.644 70.4302 138.644 69.3467V61.2549C138.643 60.1715 138.235 59.2032 137.462 58.5283C136.654 57.8624 135.472 57.4805 134.087 57.4805ZM184.687 62.8633C183.301 62.8633 182.12 63.2448 181.312 63.9463C180.565 64.5946 180.13 65.5718 180.13 66.6465V69.3467C180.13 70.4302 180.565 71.3985 181.312 72.0469C182.12 72.7572 183.301 73.1299 184.687 73.1299C186.072 73.1298 187.253 72.7485 188.062 72.0469C188.808 71.3985 189.242 70.4213 189.242 69.3467V66.6465C189.242 65.563 188.807 64.5946 188.062 63.9463C187.253 63.2358 186.072 62.8634 184.687 62.8633ZM85.8066 64.8789C86.2417 65.0831 86.6502 65.2516 87.0498 65.3848C87.0498 65.4114 87.0497 65.4469 87.0586 65.4824C87.103 65.7133 87.1295 65.9092 87.165 66.0957C87.2183 66.4953 87.2806 66.8686 87.4404 67.4014C87.4937 67.5611 87.5386 67.6941 87.583 67.8184C87.7429 68.2624 87.8131 68.467 87.5645 69.1064C87.4402 69.3994 87.361 69.6396 87.2988 69.835C86.9347 69.1777 86.3123 68.0578 85.957 67.3828C85.4599 66.4151 85.291 65.8821 85.584 65.2783C85.6461 65.154 85.7267 65.0121 85.8066 64.8789ZM167.819 62.8711C166.434 62.8712 165.252 63.2447 164.444 63.9463H164.454C163.708 64.5947 163.272 65.5629 163.272 66.6465H172.376C172.376 65.5631 171.932 64.5946 171.195 63.9463C170.387 63.2446 169.205 62.8711 167.819 62.8711ZM89.377 47C90.7092 47 92.0594 47.3461 93.2939 48.0566C97.0509 50.2238 98.339 55.0292 96.1719 58.7861C94.8308 61.1041 92.477 62.4802 89.9814 62.6758C90.0169 62.5072 90.0341 62.4006 90.043 62.3828C90.0518 62.3031 90.0345 62.2232 89.9814 62.1699C89.9371 62.1167 89.8746 62.0899 89.8037 62.0898H89.7764L89.2969 62.1436C89.1994 62.1525 89.1195 62.2229 89.0928 62.3203C89.0839 62.3205 89.0485 62.4629 88.9775 62.6846C88.489 62.6668 88.0001 62.6048 87.5205 62.4805C87.6271 62.294 87.7247 62.0805 87.8135 61.8496C88.0531 61.2192 88.0624 60.7222 88.0713 60.2871C88.0802 59.8874 88.0803 59.5759 88.249 59.2295C88.6819 58.3811 88.6053 57.5857 88.6045 57.5518C88.5956 57.4274 88.4885 57.3381 88.373 57.3203H87.7783C87.77 57.3121 87.7464 57.3116 87.7432 57.3115C87.6899 57.3115 87.6274 57.3385 87.583 57.374C87.5121 57.4361 87.4765 57.5422 87.5117 57.6309C87.5117 57.6486 87.5293 57.6581 87.5293 57.667C87.5204 57.756 87.503 57.9781 87.3877 58.5547C87.29 59.0432 87.1564 59.2831 87.0498 59.4785C87.0411 59.4872 87.0325 59.4962 87.0322 59.5049C87.0055 59.3185 86.9342 59.1146 86.7656 58.875C86.1439 57.978 85.7176 57.8888 85.6377 57.8799H85.6113C85.5227 57.8799 85.4428 57.9243 85.4072 57.9951L85.1406 58.4482C85.0962 58.5282 85.1049 58.6438 85.167 58.7148C85.2114 58.777 85.2825 58.8037 85.3535 58.8037C85.3801 58.8037 85.407 58.795 85.4336 58.7861C85.5224 58.7862 85.5663 58.9373 85.5752 59.1504C85.5841 59.4167 85.6382 59.6301 85.6826 59.8076C85.7625 60.1448 85.7976 60.2875 85.5312 60.5449C85.1586 60.9177 85.1314 61.104 85.1846 61.459V61.4951C81.632 59.2659 80.4596 54.5938 82.5732 50.9346C84.0298 48.4122 86.6681 47 89.377 47ZM86.8721 60.4385C86.9784 61.0423 86.6412 61.664 86.5879 61.7617L86.5518 61.7969C86.6139 61.5306 86.6494 61.2554 86.6494 61.0068C86.6405 60.7227 86.7382 60.5178 86.8359 60.3047C86.8448 60.2958 86.8456 60.2872 86.8545 60.2783C86.8545 60.3227 86.8632 60.3764 86.8721 60.4385ZM90.6113 52.1953C89.7943 52.1333 89.1106 52.782 89.084 52.8086C89.0662 52.8264 89.0576 52.8532 89.0576 52.8799C88.3827 53.0752 87.8136 53.4831 87.5205 53.8916C87.4317 54.0159 87.4144 54.15 87.4766 54.2832C87.6457 54.6561 88.4362 54.9398 89.1465 55.0996C89.1465 55.1174 89.1551 55.1444 89.1729 55.1533C89.2532 55.2247 89.9539 55.8456 90.2471 55.9082C90.2648 55.9082 90.2829 55.917 90.3096 55.917C90.3538 55.917 90.3981 55.9083 90.4248 55.8643C90.4781 55.7932 90.4429 55.7035 90.3896 55.5703C90.3453 55.4639 90.2833 55.3311 90.292 55.207C90.8602 55.1537 91.3752 54.9138 91.7305 54.7451C91.8548 54.6918 91.9621 54.638 92.042 54.6113C92.0597 54.6024 92.0859 54.5851 92.1035 54.585C92.0859 54.6203 92.1034 54.656 92.1299 54.6826C92.4763 54.9313 92.8236 55.0469 93.0723 55.0469C93.2053 55.0468 93.3031 55.0202 93.3652 54.9492C93.4185 54.8959 93.4443 54.7805 93.3467 54.665C93.1691 54.4697 93.1255 54.3542 93.4541 53.999C93.685 53.7503 93.6665 53.4391 93.5244 53.2881C93.409 53.164 93.2319 53.1551 93.0898 53.2793C92.8412 53.4835 92.4234 53.7052 92.2812 53.7852C92.2369 53.7142 92.192 53.6519 92.1299 53.5986C91.8723 53.3412 91.464 53.0486 90.8428 52.8711C90.9493 52.7646 91.0999 52.5778 91.0557 52.418C91.0113 52.2847 90.8689 52.2131 90.6113 52.1953Z" fill="var(--fill-0, #002C41)"/>
</g>
</svg>
