<svg preserveAspectRatio="none" width="100%" height="100%" overflow="visible" style="display: block;" viewBox="0 0 307 82" fill="none" xmlns="http://www.w3.org/2000/svg">
<g id="Frame 74">
<path id="Union" d="M99.6348 55.4082C102.344 55.4082 104.982 56.8116 106.438 59.334C108.606 63.0909 107.317 67.8964 103.561 70.0635C102.344 70.765 101.02 71.1112 99.7148 71.1201H99.5723C98.1336 71.1023 96.7216 70.6933 95.4961 69.9385C90.2382 66.8033 88.4527 66.8213 83.1504 70.001C83.106 70.0187 83.0706 70.0457 83.0352 70.0635C79.2782 72.2394 74.4817 70.9512 72.3057 67.1943C70.1386 63.4374 71.4267 58.632 75.1836 56.4648C77.777 54.9639 80.8678 55.1155 83.248 56.5898C88.506 59.7251 90.2914 59.707 95.5938 56.5273C95.6381 56.5007 95.6735 56.4738 95.709 56.4561C96.9435 55.7455 98.2937 55.4082 99.626 55.4082H99.6348ZM149.94 51.6865C151.024 51.6865 152.037 51.8553 152.979 52.1484C153.52 52.3349 154.026 52.5839 154.497 52.877V52.2373H157.197V65.7285H154.497V65.0801C154.026 65.3731 153.52 65.6221 152.979 65.8086C152.028 66.1106 151.024 66.2705 149.94 66.2705C148.857 66.2705 147.845 66.1016 146.903 65.8086C146.024 65.5066 145.251 65.0535 144.576 64.5117C143.359 63.4282 142.685 61.9446 142.685 60.3281V57.6279C142.685 56.0117 143.36 54.5288 144.576 53.4453C145.251 52.9035 146.024 52.4415 146.903 52.1484C147.854 51.8465 148.857 51.6866 149.94 51.6865ZM210.79 51.6865C211.873 51.6865 212.886 51.8554 213.827 52.1484C214.706 52.4504 215.479 52.9035 216.154 53.4453H216.146C217.362 54.5288 218.037 56.0117 218.037 57.6279V59.7861H206.233V60.3281C206.233 61.4117 206.678 62.38 207.415 63.0283C208.223 63.7388 209.405 64.1123 210.79 64.1123C212.176 64.1123 213.357 63.7299 214.165 63.0283L216.154 64.5117C215.479 65.0535 214.706 65.5155 213.827 65.8086C212.877 66.1105 211.873 66.2705 210.79 66.2705C209.706 66.2705 208.693 66.1017 207.752 65.8086C206.873 65.5067 206.101 65.0533 205.426 64.5117C204.209 63.4282 203.533 61.9446 203.533 60.3281V57.6279C203.533 56.0116 204.209 54.5199 205.426 53.4453C206.101 52.9037 206.873 52.4415 207.752 52.1484C208.702 51.8465 209.706 51.6865 210.79 51.6865ZM240.445 51.6777C242.87 51.6777 244.46 52.5482 245.437 53.4629L243.447 54.9463C242.639 54.2536 241.591 53.8447 240.445 53.8447C239.06 53.8448 237.577 54.3867 237.577 55.71C237.577 56.7136 238.047 57.1668 241.183 57.6553L241.2 57.6377C244.131 58.0995 247 59.2543 247 61.9277C247 64.1391 244.77 66.2441 240.925 66.2441C237.079 66.244 234.85 64.3075 234.042 62.4424L236.635 61.6875C237.141 62.7622 238.456 64.0859 240.916 64.0859C243.012 64.0859 244.291 63.1354 244.291 61.9277C244.291 60.7198 243.003 59.991 240.916 59.6357C237.204 59.0229 234.877 58.2146 234.877 55.7012C234.877 53.1877 237.514 51.6778 240.445 51.6777ZM167.482 51.6963C168.566 51.6963 169.605 51.8651 170.52 52.1582C171.399 52.4601 172.207 52.9124 172.847 53.4541L170.857 54.9375C170.049 54.227 168.868 53.8545 167.482 53.8545C166.097 53.8545 164.916 54.236 164.107 54.9375C163.361 55.5858 162.926 56.5631 162.926 57.6377V65.7295H160.226V52.2373H162.926V52.8857C163.396 52.5927 163.903 52.3447 164.48 52.1582C165.386 51.8563 166.399 51.6963 167.482 51.6963ZM227.993 51.6963C229.077 51.6963 230.124 51.8651 231.03 52.1582C231.909 52.4601 232.718 52.9124 233.357 53.4541L231.368 54.9375C230.56 54.227 229.379 53.8545 227.993 53.8545C226.608 53.8545 225.426 54.236 224.618 54.9375C223.872 55.5858 223.437 56.5631 223.437 57.6377V65.7295H220.736V52.2373H223.437V52.8857C223.916 52.5927 224.414 52.3447 224.991 52.1582C225.906 51.8563 226.91 51.6963 227.993 51.6963ZM140.669 48.9951H130.553V53.8535H137.294V56.0117H130.553V65.7197H127.853V56.0117H126.502V53.8535H127.853V46.8369H140.669V48.9951ZM193.585 51.6865C194.668 51.6865 195.681 51.8554 196.587 52.1484C197.502 52.4504 198.275 52.9035 198.914 53.4453H198.923C200.166 54.5288 200.842 56.0116 200.842 57.6279V65.7197H198.142V57.6279C198.141 56.5446 197.697 55.577 196.925 54.9287C196.152 54.2271 195.006 53.8535 193.585 53.8535C192.164 53.8536 191.018 54.2271 190.21 54.9287C189.438 55.577 189.029 56.5447 189.029 57.6279V65.7197H186.329V57.6279C186.329 56.5447 185.885 55.577 185.112 54.9287C184.34 54.2271 183.194 53.8535 181.772 53.8535C180.351 53.8535 179.206 54.2271 178.397 54.9287C177.625 55.577 177.217 56.5447 177.217 57.6279V65.7197H174.517V52.2285H177.217V52.8496C177.687 52.5833 178.194 52.3349 178.735 52.1484C179.65 51.8465 180.689 51.6865 181.772 51.6865C182.856 51.6865 183.86 51.8554 184.774 52.1484C185.689 52.4504 186.462 52.9035 187.102 53.4453C187.306 53.6407 187.51 53.8005 187.679 54.0137C187.847 53.7917 188.017 53.6318 188.221 53.4453C188.86 52.9035 189.669 52.4415 190.548 52.1484C191.463 51.8465 192.502 51.6866 193.585 51.6865ZM149.94 53.8447C148.555 53.8448 147.374 54.2271 146.565 54.9287C145.82 55.577 145.385 56.5536 145.385 57.6279V60.3281C145.385 61.4116 145.82 62.38 146.565 63.0283C147.374 63.7388 148.555 64.1122 149.94 64.1123C151.326 64.1123 152.507 63.7298 153.315 63.0283C154.061 62.38 154.497 61.4117 154.497 60.3281V57.6279C154.497 56.5445 154.061 55.577 153.315 54.9287C152.507 54.2271 151.326 53.8447 149.94 53.8447ZM210.799 53.8535C209.413 53.8535 208.232 54.2271 207.424 54.9287C206.678 55.577 206.242 56.5446 206.242 57.6279H215.355C215.355 56.5446 214.92 55.577 214.174 54.9287C213.366 54.2271 212.184 53.8535 210.799 53.8535ZM64.9258 42.1475C67.5192 40.6555 70.61 40.8069 72.9902 42.2812C76.1699 44.1819 78.0798 44.9193 80.2646 44.5107C80.4688 44.5996 80.6734 44.7772 80.9131 45.0879C81.7833 46.2245 81.7475 46.9351 81.6143 47.7344C81.5965 47.841 81.5793 47.9568 81.5615 48.0723C81.3928 49.0136 81.1884 50.1766 81.5879 50.8516C81.8099 51.2157 81.8632 51.6425 81.8721 51.9268C81.7122 51.8291 81.4727 51.6334 81.1885 51.1982C80.5756 50.2568 79.9443 48.7734 79.9443 48.7734L79.3232 46.8193C79.3054 46.7484 79.2515 46.6956 79.1895 46.6689C79.154 46.6601 79.1273 46.6514 79.0918 46.6514C79.0562 46.6515 78.9854 46.6777 78.9854 46.6777L78.6475 46.8555C78.5412 46.9089 78.4967 47.0332 78.5322 47.1396C78.5342 47.1544 78.7297 47.7594 79.0479 49.085C79.1011 49.3067 79.1539 49.5197 79.1982 49.7148C79.4203 50.7629 79.6163 51.66 80.5488 52.335C81.0639 52.708 81.3834 52.8418 81.6055 52.9395C81.8185 53.0282 81.8453 53.0369 81.8896 53.1699L81.9697 53.4102C82.0141 53.5611 82.0763 53.7653 82.165 53.9961C79.0032 52.6461 77.0137 53.2057 72.8838 55.6836C72.8483 55.7102 72.8128 55.7283 72.7773 55.7461C69.0204 57.9221 64.215 56.6339 62.0479 52.877C61.3462 51.6691 61.0089 50.3456 61 49.04V48.8799C61.0268 46.1977 62.4301 43.5951 64.9258 42.1475ZM105.968 42.1484C109.725 39.9813 114.53 41.2694 116.697 45.0264C118.864 48.7833 117.576 53.579 113.819 55.7461C111.226 57.247 108.135 57.0963 105.755 55.6221C102.087 53.4372 100.115 52.7798 97.4502 53.668C97.4857 53.6059 97.5211 53.5523 97.5566 53.499C97.681 53.3036 97.7787 53.1524 97.832 53.0547C97.912 52.9304 97.9749 52.7884 98.0371 52.6641C98.259 52.1937 98.4096 51.9358 98.7822 51.9355H98.8096C99.0582 51.9445 99.3516 52.0246 99.6357 52.1045C99.9641 52.2021 100.266 52.2909 100.55 52.291C100.781 52.291 100.967 52.2287 101.109 52.1133C101.614 51.7147 102.102 50.6982 102.122 50.6484C102.158 50.5863 102.158 50.4967 102.113 50.4346C102.078 50.3637 102.007 50.3194 101.936 50.3105L101.519 50.2656H101.491C101.376 50.2658 101.279 50.3466 101.252 50.4619C101.234 50.5777 101.118 50.9148 100.905 50.9414C100.772 50.968 100.666 50.9852 100.577 51.0029C100.426 51.0385 100.328 51.0566 100.168 51.0566C100.088 51.0566 99.999 51.0479 99.8926 51.0391C99.7151 51.0213 99.5463 50.9856 99.4043 50.959C99.351 50.9501 99.3062 50.9415 99.2529 50.9326C99.5282 50.6662 99.9372 50.2927 100.443 49.9375C100.799 49.6888 101.083 49.5374 101.332 49.4131C101.767 49.1912 102.105 49.0227 102.354 48.5078C102.54 48.126 102.53 47.5308 102.521 46.9004C102.504 46.3143 102.495 45.6569 102.673 45.417C103.206 44.6976 102.877 44.1819 102.859 44.1553C102.815 44.0844 102.735 44.0489 102.655 44.0488C102.629 44.0488 102.577 44.0573 102.575 44.0576L102.016 44.2617C101.989 44.2706 101.962 44.2889 101.944 44.3066C101.722 44.4756 101.465 45.1419 101.589 46.0742V46.127C101.687 46.9529 101.74 47.3355 101.536 47.6553L101.519 47.6729C101.563 47.2732 101.562 46.7844 101.376 46.4824C101.163 46.1273 101.208 45.5152 101.243 45.3105C101.252 45.2217 101.225 45.1412 101.154 45.0879C101.11 45.0435 101.056 45.0264 101.003 45.0264C100.976 45.0264 100.949 45.0351 100.923 45.0439C100.789 45.0885 100.488 45.2216 100.391 45.4434C100.382 45.4522 100.372 45.4696 100.363 45.4873C100.221 45.7182 100.097 46.0295 100.354 46.7842C100.603 47.5214 100.657 48.1083 100.497 48.4014C100.381 48.5967 99.9989 48.8182 99.626 49.0312C99.4662 49.12 99.2975 49.2178 99.1377 49.3154C98.9334 49.4487 98.7468 49.6087 98.5869 49.7686C98.6224 49.2979 98.6137 48.7027 98.4805 48.1787C98.4361 48.0189 98.392 47.8676 98.3477 47.7256C98.1523 47.0597 98.0455 46.7222 98.374 46.1895C98.5427 45.9053 98.8183 45.6657 99.1113 45.4082C99.3867 45.1684 99.6708 44.9193 99.8662 44.6084C101.563 44.5462 103.304 43.7473 105.853 42.2197C105.887 42.2025 105.963 42.1515 105.968 42.1484ZM88.1875 41.1885C88.5783 41.7658 89.0749 42.5657 89.4746 43.3916C90.2472 45.0079 90.7806 47.1569 90.7363 48.498C90.683 49.9014 90.6298 50.8614 90.2656 51.5098C89.8661 52.2112 89.7143 52.5396 89.5723 53.3564C89.5012 53.7472 89.4659 54.1385 89.457 54.4404C89.1462 54.1296 88.7198 53.6231 88.5244 53.0547C88.4623 52.8683 88.4008 52.7258 88.3564 52.6104C88.2559 52.3558 88.3593 51.9863 88.667 51.501L88.8271 51.2344C89.8663 49.5646 90.1141 48.2318 89.5635 47.2637C89.5192 47.193 89.4574 47.1574 89.3867 47.1396H89.3506C89.2885 47.1397 89.2348 47.1578 89.1904 47.2021L88.7822 47.584C88.7024 47.655 88.6753 47.7705 88.7285 47.8682C88.7299 47.8799 88.8522 48.1461 88.7109 48.6406C88.6844 48.7469 88.6584 48.8004 88.6406 48.8359C88.5873 48.7915 88.454 48.6583 88.1699 48.2588C87.6727 47.5218 87.6281 46.5362 87.7168 46.1719C87.7346 46.1097 87.7161 46.0474 87.6895 45.9941C87.654 45.9409 87.6011 45.8967 87.5391 45.8877L87.1211 45.7803H87.0684C86.9973 45.7803 86.9175 45.8167 86.873 45.8789C86.8531 45.9086 86.2964 46.6885 86.7393 47.6367C86.8014 47.7877 86.8724 47.939 86.9346 48.0811C87.281 48.8538 87.5835 49.5111 87.9121 49.7598C88.0185 49.8308 88.0897 49.9462 88.0986 50.0615C88.1075 50.2125 88.0452 50.3726 87.9209 50.5146C87.841 50.5946 87.7432 50.6836 87.6455 50.7725C87.2725 51.1188 86.802 51.5537 87.0596 52.0244C87.0773 52.051 87.0858 52.0778 87.1035 52.1133C87.0059 51.9801 86.9081 51.8203 86.8193 51.625C86.5085 50.9766 86.668 49.964 86.668 49.9551C86.6769 49.884 86.6596 49.8218 86.624 49.7686C86.5796 49.7153 86.5172 49.6709 86.4551 49.6709L85.7803 49.5996H85.7539C85.683 49.5996 85.6118 49.6265 85.5674 49.6885C85.5142 49.7417 85.4961 49.8216 85.5225 49.9014C85.5225 49.9102 85.7004 50.6034 85.7715 51.3672C85.8425 52.2369 86.8978 53.231 87.0234 53.3477C87.0234 53.3477 88.0451 54.3955 88.4893 55.0527C88.6225 55.257 88.7383 55.409 88.8271 55.5244C89.0399 55.7904 89.1106 55.8884 89.1904 56.3584C89.2082 56.4916 89.2179 56.6341 89.2002 56.7939C87.7969 56.7673 86.4196 56.3592 85.2295 55.6221C84.9898 55.48 84.7503 55.3373 84.5283 55.2041C83.8889 54.5558 83.4441 54.0673 83.7637 53.2236C84.1722 52.149 84.2975 51.8916 84.7061 51.0391C84.8126 50.817 84.9368 50.5504 85.0967 50.2129C85.8072 48.703 85.8427 48.3298 85.9404 47.4238L85.9668 47.166C86.082 46.1479 86.9651 44.8743 86.9795 44.8574C87.0505 44.7597 87.0418 44.6346 86.9619 44.5547L86.6777 44.2529C86.6334 44.2086 86.5709 44.1817 86.5 44.1816C86.4645 44.1816 86.4193 44.1912 86.3838 44.209C86.3614 44.2291 85.9738 44.4432 85.7002 44.9727C85.6736 44.8661 85.6469 44.7233 85.6025 44.5635C85.4782 44.0394 85.3363 43.2222 85.2031 42.2988C85.2475 42.2722 85.2916 42.2453 85.3359 42.2188C85.3713 42.2011 85.407 42.175 85.4424 42.1484C86.3128 41.6422 87.246 41.3306 88.1875 41.1885ZM90.9482 41.2598C91.3033 41.3308 91.65 41.4285 91.9873 41.5527C91.9962 41.5882 92.0058 41.615 92.0234 41.6416C92.0323 41.6594 92.6986 42.557 92.5742 43.2764C92.5387 43.4717 92.4936 43.6227 92.4492 43.7559C92.316 44.2087 92.2629 44.4844 92.7246 45.248C93.0177 45.7454 93.0806 46.0831 93.125 46.3584C93.1694 46.607 93.2139 46.8466 93.4092 47.0508C93.489 47.1394 93.5599 47.2104 93.6309 47.2725C93.8263 47.4501 93.9154 47.5309 93.9775 47.9395C94.0042 48.188 94.0215 48.4104 94.0215 48.5879C93.8616 48.4547 93.6488 48.2588 93.4268 47.9658C92.9205 47.3441 92.8135 46.3937 92.8135 46.3848C92.8046 46.3226 92.7779 46.2602 92.7246 46.2158C92.6803 46.1893 92.6273 46.1719 92.5742 46.1719H92.5469L92.1123 46.2334C91.988 46.2512 91.8905 46.3668 91.9082 46.5C91.9171 46.5533 92.0943 47.9031 92.5205 48.5693C92.7514 48.9156 93.08 49.129 93.373 49.3066C93.6217 49.4665 93.8354 49.5998 93.8887 49.7686C93.9331 49.9018 93.977 50.0888 94.0303 50.2842C94.1635 50.808 94.3061 51.3937 94.5635 51.7578C94.7233 51.9887 94.7144 52.1669 94.6611 52.6465C94.6345 52.8418 94.6076 53.0725 94.5898 53.3564C94.5898 53.3918 94.5898 53.4275 94.5811 53.4541C94.5367 53.4187 94.4741 53.383 94.4121 53.3564C94.3679 53.3301 94.3235 53.3301 94.2793 53.3301C93.8885 53.3301 93.4621 53.9163 93.2578 54.458C93.0535 55.0176 92.8048 55.3645 92.6094 55.5244C92.5561 55.409 92.4848 55.1507 92.4404 54.6533C92.4316 54.5023 92.4316 54.2893 92.4316 54.0674C92.4405 53.268 92.4228 52.7348 92.1475 52.5039C91.8366 52.2464 91.3127 52.0245 91.2949 52.0156C91.2594 51.9979 91.2328 51.998 91.1973 51.998C91.1262 51.9981 91.0551 52.0248 91.0107 52.0869C90.9398 52.1757 90.9398 52.2999 91.0107 52.3887C91.0107 52.3887 91.2239 52.6554 91.3838 53.2949C91.4282 53.4547 91.4731 53.5971 91.5264 53.748C91.6773 54.2274 91.8008 54.6091 91.5967 55.124C91.3481 55.781 91.3483 56.1898 91.3838 56.5449C91.1706 56.5982 90.966 56.6432 90.7617 56.6787C90.7173 56.4123 90.655 56.1721 90.584 55.9678C90.2379 55.044 90.4689 53.0197 91.0371 51.874C91.6499 50.6662 91.899 47.3978 91.5527 46.5537C91.2685 45.8343 90.5757 43.1429 90.5312 42.6455C90.5135 42.4501 90.576 42.2987 90.6826 42.0234C90.7625 41.8193 90.8595 41.5881 90.9482 41.2598ZM94.4131 55.0977C94.2978 55.1597 94.1827 55.222 94.0674 55.293C94.236 54.9646 94.3152 54.7335 94.3418 54.627L94.502 54.4316C94.4753 54.6537 94.4486 54.8756 94.4131 55.0977ZM94.4395 42.832C95.1587 43.2316 95.816 43.5685 96.4287 43.8438C96.5886 44.1635 96.7131 44.5458 96.7842 44.8389C96.7309 45.1941 96.4377 47.2101 97.0947 48.3203C97.5477 49.0841 97.4942 49.3332 97.3965 49.7861C97.361 49.946 97.3255 50.1324 97.2988 50.3633C97.21 51.1271 96.9258 51.7577 96.4551 52.2373C96.2508 52.4416 95.9937 52.8504 95.7539 53.25C95.8338 52.4773 95.869 51.5888 95.6914 51.2246C95.576 50.9849 95.4427 50.816 95.3184 50.665C95.1053 50.3809 94.9281 50.1586 94.8926 49.6348C94.866 49.2085 94.9543 48.7464 95.0342 48.3379C95.123 47.8496 95.1938 47.4944 95.0518 47.2725C94.9718 47.1482 94.874 47.0326 94.7764 46.8994C94.6254 46.7218 94.4479 46.5085 94.3857 46.3398C94.3059 46.1356 94.4486 45.8246 94.7949 45.4072C95.203 44.9188 95.1944 43.73 95.1855 43.5957C95.1855 43.5069 95.1317 43.4272 95.0518 43.3828C95.0163 43.3739 94.9808 43.3643 94.9453 43.3643C94.8922 43.3643 94.8392 43.3826 94.7949 43.418C94.5197 43.64 94.448 43.9328 94.377 44.1992C94.3326 44.3945 94.2796 44.5902 94.1465 44.75C94.0933 44.821 94.0396 44.8831 93.9863 44.9541C94.004 44.9187 94.0126 44.8918 94.0303 44.8652C94.2345 44.4922 94.483 43.1879 94.5098 43.0449C94.5186 42.9651 94.4925 42.8853 94.4395 42.832ZM84.0479 42.9648C84.1455 43.5953 84.2614 44.1373 84.3857 44.457C84.5101 44.8123 84.6607 45.1416 84.7939 45.4258C84.9449 45.7721 85.1223 46.154 85.1045 46.2783C85.1045 46.3315 85.0957 46.4025 85.0957 46.5088C85.0691 47.0416 85.0072 48.294 84.4834 48.9336C83.986 49.5464 83.7725 50.3104 83.5859 50.9766C83.5149 51.2518 83.4354 51.5183 83.3555 51.7402C83.3111 51.8379 83.2748 51.9443 83.2305 52.042L83.1777 48.4717C83.0712 47.4679 82.8848 44.7417 83.3555 43.8447C83.4532 43.6494 83.5413 43.436 83.6035 43.2051C83.7456 43.134 83.8969 43.0537 84.0479 42.9648ZM70.1299 45.7539C69.8016 45.7717 69.6246 45.8696 69.5713 46.0293C69.5092 46.2423 69.6948 46.4731 69.8369 46.6152C69.0466 46.8284 68.5317 47.2106 68.2031 47.5303C68.1322 47.6101 68.0698 47.6809 68.0166 47.7607C67.83 47.6719 67.3059 47.3884 66.9951 47.1309C66.8086 46.9799 66.5865 46.9798 66.4355 47.1396C66.2492 47.335 66.2404 47.7254 66.5244 48.0361C66.9416 48.4888 66.8975 48.6403 66.667 48.8887C66.5428 49.0306 66.5688 49.173 66.6396 49.2441C66.7107 49.3329 66.844 49.3691 67.0127 49.3691C67.3235 49.3691 67.768 49.2269 68.2031 48.9072C68.2387 48.8717 68.256 48.8266 68.2383 48.7822C68.2649 48.7911 68.2917 48.8006 68.3184 48.8184C68.4249 48.8539 68.558 48.9163 68.7178 48.9873C69.1619 49.2005 69.8109 49.5022 70.5303 49.5732C70.5391 49.7242 70.4683 49.902 70.415 50.0352C70.344 50.2039 70.2903 50.3194 70.3613 50.4082C70.4057 50.4525 70.4595 50.4697 70.5127 50.4697C70.5391 50.4696 70.574 50.4611 70.5918 50.4609C70.9648 50.381 71.8533 49.5997 71.96 49.502C71.9777 49.4842 71.9862 49.4573 71.9951 49.4307C72.8922 49.2353 73.8963 48.88 74.1006 48.4004C74.1804 48.2317 74.1535 48.0631 74.0381 47.9033C73.674 47.3883 72.955 46.8728 72.1025 46.6152C72.1025 46.5886 72.093 46.5529 72.0664 46.5264C72.0277 46.4967 71.1581 45.683 70.1299 45.7539ZM82.3516 43.8262C82.3338 43.8706 82.3069 43.9069 82.2803 43.9424C82.1295 44.1376 82.0231 44.3949 81.9609 44.6787C81.8899 44.5456 81.8096 44.4122 81.7031 44.2969C81.6589 44.2438 81.6058 44.1908 81.5703 44.1377C81.8278 44.0489 82.0851 43.9416 82.3516 43.8262ZM93.5068 42.2812C93.7999 42.4589 94.0842 42.6185 94.3506 42.7783C94.324 42.7694 94.2971 42.7608 94.2705 42.7607C94.2527 42.7607 94.2168 42.7695 94.2168 42.7695L93.7373 42.8672C93.6486 42.885 93.5862 42.9475 93.5596 43.0273C93.5505 43.0371 93.4977 43.2151 93.418 43.4365V43.3115C93.4268 42.983 93.373 42.5391 93.2842 42.1484C93.3552 42.1928 93.4358 42.2368 93.5068 42.2812ZM72.3057 30.2285C74.4817 26.4717 79.2783 25.1845 83.0352 27.3516C83.0705 27.3781 83.1062 27.3954 83.1504 27.4219C83.5943 27.6882 84.0117 27.9284 84.4023 28.1504C84.0826 28.7099 84.0829 29.4389 84.376 30.4336C84.5093 30.8865 84.865 31.4988 85.2822 32.2002C85.824 33.1328 86.4461 34.199 86.5615 34.9717C86.6326 35.4334 86.7122 35.7975 86.7744 36.1172C86.9165 36.7744 87.0142 37.2457 86.9609 38.0361C86.9432 38.3557 86.9604 38.6486 87.0137 38.9238C86.3743 39.1547 85.6992 39.4656 84.9443 39.8652C84.8467 38.4534 84.8559 37.1748 85.1045 36.624C85.7529 35.2118 85.5217 33.9322 85.5039 33.8789C85.4949 33.7992 85.4332 33.7278 85.3623 33.7012L84.8027 33.4795C84.7762 33.4618 84.7405 33.4619 84.7139 33.4619C84.6606 33.4619 84.6069 33.4792 84.5625 33.5146C84.4914 33.5679 84.4736 33.6573 84.4736 33.7461C84.4825 33.755 84.7133 35.167 84.207 35.9131C83.8341 36.4726 83.888 37.2011 83.9502 37.9648C83.9946 38.4889 84.0391 39.031 83.9414 39.5195C83.9325 39.5905 83.9141 39.6614 83.9053 39.7412C83.9053 39.5991 83.8965 39.51 83.8965 39.4922C83.8343 38.675 83.6121 37.254 83.2568 36.6768L83.1152 36.4463C82.1027 34.7943 81.9513 34.6429 81.7559 34.6162H81.7207C81.4809 34.6162 81.2502 34.8831 81.1348 35.043C81.0637 35.1407 81.0724 35.2736 81.1523 35.3535C81.1638 35.3651 82.1115 36.3324 82.4043 37.707C82.6352 38.7373 82.8218 39.6169 82.7686 40.3896C82.36 39.2794 81.5959 37.3346 81.0186 36.624C80.9031 36.4731 80.7883 36.3305 80.6729 36.1973C80.0601 35.4601 79.6516 34.9718 79.6338 34.0127C79.616 33.5242 79.5089 33.0884 79.4023 32.6621C79.2336 32.0139 79.0912 31.4451 79.3398 30.7969C79.7839 29.6335 80.0244 28.9053 80.0244 28.9053C80.0509 28.8432 80.0423 28.7719 80.0068 28.7188C79.9802 28.6566 79.9265 28.6125 79.8555 28.5947L79.5 28.5059C79.4822 28.497 79.4552 28.4971 79.4375 28.4971C79.3577 28.4972 79.2777 28.5414 79.2334 28.6123C79.1979 28.6834 78.1855 30.3002 77.999 31.4814C77.8659 32.334 78.1506 33.1693 78.417 33.9863C78.5324 34.3237 78.6476 34.6791 78.7363 35.0342C79.0205 36.2063 79.1009 36.3044 79.7314 37.0859L79.873 37.2539C80.5481 38.1065 81.1789 39.1373 81.2588 39.2705C81.3211 39.4307 81.8363 40.7092 81.9873 41.4463C80.6195 41.997 79.1179 42.1484 77.6436 41.873C77.3416 41.2158 77.3154 40.6915 77.3154 40.6826C77.3154 40.6028 77.2711 40.5317 77.2002 40.4873C77.1647 40.4695 77.1196 40.4521 77.0752 40.4521C77.0396 40.4523 76.9688 40.4785 76.9688 40.4785L76.5244 40.6914C76.4269 40.7447 76.3739 40.8427 76.3916 40.9492C76.4006 40.9765 76.4357 41.2254 76.5332 41.5713C76.0714 41.4114 75.6187 41.2066 75.1836 40.958C71.4267 38.782 70.1385 33.9855 72.3057 30.2285ZM95.4961 27.4844C97.8674 26.0101 100.967 25.8587 103.561 27.3506C107.317 29.5177 108.597 34.3231 106.43 38.0801C105.257 40.1051 103.321 41.4105 101.198 41.8457C101.385 41.6947 101.519 41.5968 101.519 41.5879C101.616 41.5168 101.642 41.3838 101.58 41.2773L101.358 40.8867C101.314 40.8069 101.234 40.7628 101.154 40.7627C101.119 40.7627 101.083 40.7714 101.048 40.7891C101.03 40.7979 100.675 40.9668 100.311 41.251C100.337 41.0112 100.363 40.7619 100.372 40.6465C100.39 40.54 100.354 40.4333 100.283 40.3623C100.203 40.2649 100.088 40.2207 99.9102 40.2207C99.7327 40.2208 99.5199 40.2739 99.3779 40.3271C99.0582 40.4426 99.0932 40.8511 99.1465 41.4551C99.1554 41.6149 99.1826 41.8018 99.1826 41.9883C98.4544 41.9528 97.7348 41.8102 97.0332 41.5615C97.1131 41.4817 97.2463 41.4198 97.4326 41.3311C97.7612 41.1801 98.1614 40.9932 98.4189 40.5225C98.8363 39.7411 99.0672 39.67 99.2715 39.6611C99.36 39.6612 99.4222 39.6785 99.502 39.7051C99.5818 39.7317 99.6796 39.7588 99.7949 39.7588C100.008 39.7588 100.204 39.6518 100.417 39.4209C100.532 39.279 100.639 39.1283 100.736 38.9863C100.914 38.7288 101.083 38.4795 101.252 38.4795C101.287 38.4795 101.323 38.4882 101.358 38.5059C101.438 38.5414 101.509 38.569 101.58 38.6045C101.793 38.6933 102.006 38.7909 102.255 38.791C102.592 38.791 102.913 38.6039 103.25 38.1865C103.968 37.2995 103.916 36.3328 103.916 36.2949C103.907 36.1795 103.819 36.0723 103.703 36.0723C103.702 36.072 103.658 36.0635 103.588 36.0635C103.428 36.0635 103.206 36.0905 103.037 36.2236C102.922 36.3213 102.842 36.4813 102.753 36.6855C102.655 36.9075 102.54 37.1563 102.371 37.3428C102.22 37.5026 102.069 37.5204 101.723 37.5293C101.509 37.5471 101.243 37.5559 100.914 37.627C100.319 37.7602 100.142 38.0535 100.018 38.2666C99.9466 38.3907 99.9107 38.444 99.8311 38.4795H99.8213C99.8568 38.0621 99.8575 37.4312 99.6621 37.0938C99.3869 36.6409 99.2976 36.4809 99.3242 36.25C99.3332 36.1613 99.3774 36.0548 99.4395 35.9307C99.546 35.7086 99.6792 35.4329 99.7236 35.0332C99.7683 34.5713 100.284 33.8433 100.479 33.6035C100.524 33.5414 100.541 33.4527 100.515 33.3818C100.488 33.3019 100.426 33.2394 100.354 33.2217L99.7334 33.0439C99.7157 33.0439 99.6975 33.0352 99.6709 33.0352C99.6087 33.0352 99.5464 33.0619 99.502 33.1152C99.4127 33.2045 98.65 34.0211 98.7031 34.6426C98.7209 34.8557 98.6851 35.0782 98.6318 35.2559C98.5164 35.1226 98.3917 34.9445 98.2852 34.7402C98.2053 34.5893 98.1249 34.3944 98.0361 34.208C97.7519 33.5419 97.6102 33.248 97.3438 33.248C97.2994 33.2481 97.2553 33.2576 97.2109 33.2842C97.1399 33.3197 97.086 33.3996 97.0771 33.4795C97.077 33.5445 96.9889 34.9548 97.6543 35.7178L97.7344 35.8154C97.9592 36.0758 98.1047 36.2855 98.1699 36.4453C98.2143 36.5608 98.2674 36.7123 98.374 36.9521C98.4539 37.1563 98.5432 37.3247 98.6143 37.4668C98.8541 37.973 98.8985 38.0803 98.7031 38.3379C98.6232 38.4356 98.5602 38.5333 98.498 38.6221C98.2762 38.9326 98.1697 39.0928 97.7793 39.1904C97.3175 39.3059 97.0862 39.643 96.9707 39.8828C96.9174 39.5543 96.7488 39.2167 96.376 39.0391C95.8611 38.7816 95.4169 38.2495 95.2656 38.0449L95.4258 36.9873C95.6568 36.9072 96.083 36.6937 96.3848 36.2588C96.7754 35.6994 96.9443 35.2199 96.9443 35.2021C96.9709 35.1223 96.9614 35.0427 96.9082 34.9717C96.8638 34.9184 96.7927 34.8828 96.7217 34.8828H96.6953L96.2158 34.9355C96.1448 34.9444 96.0824 34.98 96.0469 35.0332C96.0202 35.0687 96.0029 35.1138 96.0029 35.1582C95.985 35.1939 95.8958 35.3362 95.5498 35.6201C95.5155 35.6373 95.4644 35.6788 95.4609 35.6816L95.8252 34.7764C95.8696 34.661 95.8338 34.5456 95.7363 34.4834C95.6919 34.4568 95.4788 34.3234 95.248 34.3232C95.0171 34.3232 94.7677 34.4654 94.7588 34.8828V35.0957C94.7588 35.522 94.7677 35.7351 94.3857 36.2236C93.9864 36.7296 94.1551 37.2093 94.2705 37.5645C94.3327 37.7243 94.377 37.8758 94.3682 37.9824C94.3593 38.0711 94.342 38.1332 94.3242 38.1953C94.2177 38.586 94.3418 38.7282 94.9453 39.1543C95.0519 39.2342 95.1504 39.306 95.2393 39.3682C95.7806 39.7409 95.8962 39.8209 95.9229 40.2559C95.9406 40.4779 95.9135 40.7715 95.8779 41.0469C95.816 41.0203 95.7631 40.9934 95.71 40.958C95.6746 40.9315 95.6389 40.9132 95.6123 40.9043C95.6034 40.9043 95.6026 40.8956 95.5938 40.8867C95.0965 40.5848 94.6257 40.318 94.1816 40.0693C94.1553 40.0605 94.129 40.0516 94.1113 40.0342C93.9959 39.972 93.88 39.9097 93.7734 39.8564C93.7647 39.8477 93.7558 39.8474 93.7471 39.8389C93.5518 39.7146 93.3829 39.5634 93.2852 39.3682C92.9121 38.6932 92.8496 37.8399 92.8496 37.8311C92.8495 37.7601 92.814 37.6976 92.7607 37.6621C92.7165 37.6268 92.6721 37.6095 92.6191 37.6094H92.5742C92.4054 37.6361 92.015 37.743 91.9795 38.0449C91.9706 38.1434 91.9441 38.5605 92.1836 39.1104C91.9704 39.0215 91.7657 38.9411 91.5703 38.8789C91.9166 37.8846 92.3697 36.9614 92.6982 36.5615C93.3021 35.7978 94.1727 34.4653 94.6523 33.3818C95.1675 32.2183 95.0703 31.5784 95.0703 31.5518C95.0614 31.463 94.9988 31.3919 94.9189 31.3564C94.8914 31.3473 94.6258 31.2589 94.4043 31.2588C94.1023 31.2588 93.9777 31.4279 93.96 31.5967C93.9512 31.6322 93.9512 31.6852 93.9512 31.7383C93.9334 32.0847 93.8978 32.8135 93.3027 33.5596C92.8232 34.1635 92.5034 34.9006 92.2725 35.4424C92.1926 35.6376 92.1129 35.8152 92.0508 35.9395C91.9975 35.833 91.9263 35.6821 91.8818 35.5312C91.8552 35.025 91.7569 34.1898 91.4727 33.9678C91.3662 33.8969 91.2511 33.8526 91.127 33.8525C90.8784 33.8525 90.6917 34.03 90.6738 34.0479C90.6384 34.0921 90.6115 34.1451 90.6113 34.1982C90.6024 34.2427 90.5494 35.2112 90.8691 35.9307C91.0822 36.4102 91.0113 37.3604 90.958 37.7246L90.5674 38.6045C89.8568 38.4624 89.1637 38.453 88.4531 38.5596L88.1865 36.9785L88.0537 35.4248C88.1603 35.2472 88.3202 34.8205 88.4268 33.8438C88.6133 32.1297 88.7817 30.5396 88.7373 30.0244C88.7284 29.9534 88.7468 29.8729 88.7734 29.793C90.7361 29.9882 92.5833 29.216 95.4961 27.4844ZM134.087 19.3135C135.206 19.3135 136.21 19.4823 137.125 19.7754C138.031 20.0774 138.813 20.5039 139.452 21.0723C140.669 22.1557 141.344 23.6387 141.344 25.2549V33.3467C141.344 34.9629 140.669 36.4549 139.452 37.5029C138.813 38.0713 138.04 38.5331 137.125 38.8262C136.21 39.1281 135.17 39.2881 134.087 39.2881C133.003 39.2881 132 39.1281 131.085 38.8262C130.179 38.5242 129.397 38.0713 128.758 37.5029C127.515 36.4461 126.84 34.9629 126.84 33.3467V25.2549C126.84 23.6387 127.515 22.1468 128.758 21.0723C129.397 20.5039 130.17 20.0774 131.085 19.7754C132 19.4734 132.968 19.3135 134.087 19.3135ZM150.954 24.7041C152.038 24.7041 153.05 24.873 153.991 25.166C154.87 25.468 155.643 25.9211 156.318 26.4629C157.535 27.5464 158.21 29.0292 158.21 30.6455H155.51C155.51 29.5622 155.066 28.5946 154.329 27.9463C153.521 27.2358 152.34 26.8623 150.954 26.8623C149.569 26.8623 148.387 27.2446 147.579 27.9463C146.833 28.5946 146.398 29.571 146.397 30.6455V33.3457C146.397 34.4293 146.833 35.3975 147.579 36.0459C148.387 36.7475 149.569 37.1211 150.954 37.1211C152.34 37.1211 153.521 36.7475 154.329 36.0459C155.075 35.3975 155.51 34.4292 155.51 33.3457H158.21C158.21 34.9622 157.535 36.4546 156.318 37.5293C155.643 38.071 154.87 38.5331 153.991 38.8262C153.041 39.1281 152.037 39.2881 150.954 39.2881C149.871 39.2881 148.857 39.1193 147.916 38.8262C147.037 38.5242 146.265 38.0709 145.59 37.5293C144.373 36.4457 143.697 34.9622 143.697 33.3457V30.6455C143.697 29.0292 144.373 27.5464 145.59 26.4629C146.265 25.9212 147.037 25.4591 147.916 25.166C148.866 24.864 149.871 24.7041 150.954 24.7041ZM184.687 24.7139C185.77 24.7139 186.782 24.8827 187.724 25.1758C188.265 25.3622 188.772 25.6103 189.242 25.9033V25.2549H191.942V38.7471H189.242V38.0986C188.772 38.3916 188.265 38.6397 187.724 38.8262C186.773 39.1281 185.77 39.288 184.687 39.2881C183.603 39.2881 182.59 39.1193 181.648 38.8262C180.769 38.5242 179.996 38.072 179.321 37.5303V37.5391C178.105 36.4555 177.43 34.9719 177.43 33.3555V30.6553C177.43 29.0389 178.105 27.5552 179.321 26.4717C179.996 25.93 180.769 25.4689 181.648 25.1758C182.599 24.8738 183.603 24.7139 184.687 24.7139ZM167.811 24.6953C168.894 24.6953 169.907 24.8641 170.849 25.1572C171.728 25.4592 172.501 25.9124 173.176 26.4541C174.392 27.5375 175.067 29.0206 175.067 30.6367V32.7959H163.264V33.3369C163.264 34.4203 163.707 35.3887 164.444 36.0371C165.252 36.7467 166.431 37.1192 167.814 37.1201C169.198 37.1195 170.378 36.7381 171.186 36.0371L173.176 37.5205C172.501 38.0623 171.728 38.5243 170.849 38.8174C169.898 39.1194 168.894 39.2793 167.811 39.2793C166.727 39.2793 165.715 39.1104 164.773 38.8174C163.894 38.5154 163.121 38.0623 162.446 37.5205C161.23 36.4369 160.555 34.9534 160.555 33.3369V30.6367C160.555 29.0205 161.23 27.5287 162.446 26.4541C163.121 25.9123 163.894 25.4503 164.773 25.1572C165.715 24.8553 166.727 24.6953 167.811 24.6953ZM202.228 24.7041C203.311 24.7041 204.324 24.8729 205.229 25.166C206.144 25.468 206.917 25.9211 207.557 26.4629C208.8 27.5464 209.475 29.0293 209.475 30.6455V38.7373H206.774V30.6455H206.784C206.784 29.5623 206.34 28.5946 205.567 27.9463C204.795 27.2447 203.649 26.8711 202.228 26.8711C200.806 26.8711 199.661 27.2446 198.853 27.9463C198.08 28.5946 197.671 29.5621 197.671 30.6455V38.7373H194.971V25.2461H197.671V25.8672C198.142 25.6008 198.648 25.3525 199.189 25.166C200.104 24.864 201.144 24.7041 202.228 24.7041ZM134.087 21.4805C132.702 21.4805 131.521 21.8535 130.748 22.5283C129.967 23.2032 129.531 24.1715 129.531 25.2549V33.3467C129.531 34.4302 129.975 35.3985 130.748 36.0469C131.521 36.7483 132.666 37.1298 134.087 37.1299C135.508 37.1299 136.654 36.7483 137.462 36.0469C138.235 35.3985 138.644 34.4302 138.644 33.3467V25.2549C138.643 24.1715 138.235 23.2032 137.462 22.5283C136.654 21.8624 135.472 21.4805 134.087 21.4805ZM184.687 26.8633C183.301 26.8633 182.12 27.2448 181.312 27.9463C180.565 28.5946 180.13 29.5718 180.13 30.6465V33.3467C180.13 34.4302 180.565 35.3985 181.312 36.0469C182.12 36.7572 183.301 37.1299 184.687 37.1299C186.072 37.1298 187.253 36.7485 188.062 36.0469C188.808 35.3985 189.242 34.4213 189.242 33.3467V30.6465C189.242 29.563 188.807 28.5946 188.062 27.9463C187.253 27.2358 186.072 26.8634 184.687 26.8633ZM85.8066 28.8789C86.2417 29.0831 86.6502 29.2516 87.0498 29.3848C87.0498 29.4114 87.0497 29.4469 87.0586 29.4824C87.103 29.7133 87.1295 29.9092 87.165 30.0957C87.2183 30.4953 87.2806 30.8686 87.4404 31.4014C87.4937 31.5611 87.5386 31.6941 87.583 31.8184C87.7429 32.2624 87.8131 32.467 87.5645 33.1064C87.4402 33.3994 87.361 33.6396 87.2988 33.835C86.9347 33.1777 86.3123 32.0578 85.957 31.3828C85.4599 30.4151 85.291 29.8821 85.584 29.2783C85.6461 29.154 85.7267 29.0121 85.8066 28.8789ZM167.819 26.8711C166.434 26.8712 165.252 27.2447 164.444 27.9463H164.454C163.708 28.5947 163.272 29.5629 163.272 30.6465H172.376C172.376 29.5631 171.932 28.5946 171.195 27.9463C170.387 27.2446 169.205 26.8711 167.819 26.8711ZM89.377 11C90.7092 11 92.0594 11.3461 93.2939 12.0566C97.0509 14.2238 98.339 19.0292 96.1719 22.7861C94.8308 25.1041 92.477 26.4802 89.9814 26.6758C90.0169 26.5072 90.0341 26.4006 90.043 26.3828C90.0518 26.3031 90.0345 26.2232 89.9814 26.1699C89.9371 26.1167 89.8746 26.0899 89.8037 26.0898H89.7764L89.2969 26.1436C89.1994 26.1525 89.1195 26.2229 89.0928 26.3203C89.0839 26.3205 89.0485 26.4629 88.9775 26.6846C88.489 26.6668 88.0001 26.6048 87.5205 26.4805C87.6271 26.294 87.7247 26.0805 87.8135 25.8496C88.0531 25.2192 88.0624 24.7222 88.0713 24.2871C88.0802 23.8874 88.0803 23.5759 88.249 23.2295C88.6819 22.3811 88.6053 21.5857 88.6045 21.5518C88.5956 21.4274 88.4885 21.3381 88.373 21.3203H87.7783C87.77 21.3121 87.7464 21.3116 87.7432 21.3115C87.6899 21.3115 87.6274 21.3385 87.583 21.374C87.5121 21.4361 87.4765 21.5422 87.5117 21.6309C87.5117 21.6486 87.5293 21.6581 87.5293 21.667C87.5204 21.756 87.503 21.9781 87.3877 22.5547C87.29 23.0432 87.1564 23.2831 87.0498 23.4785C87.0411 23.4872 87.0325 23.4962 87.0322 23.5049C87.0055 23.3185 86.9342 23.1146 86.7656 22.875C86.1439 21.978 85.7176 21.8888 85.6377 21.8799H85.6113C85.5227 21.8799 85.4428 21.9243 85.4072 21.9951L85.1406 22.4482C85.0962 22.5282 85.1049 22.6438 85.167 22.7148C85.2114 22.777 85.2825 22.8037 85.3535 22.8037C85.3801 22.8037 85.407 22.795 85.4336 22.7861C85.5224 22.7862 85.5663 22.9373 85.5752 23.1504C85.5841 23.4167 85.6382 23.6301 85.6826 23.8076C85.7625 24.1448 85.7976 24.2875 85.5312 24.5449C85.1586 24.9177 85.1314 25.104 85.1846 25.459V25.4951C81.632 23.2659 80.4596 18.5938 82.5732 14.9346C84.0298 12.4122 86.6681 11 89.377 11ZM86.8721 24.4385C86.9784 25.0423 86.6412 25.664 86.5879 25.7617L86.5518 25.7969C86.6139 25.5306 86.6494 25.2554 86.6494 25.0068C86.6405 24.7227 86.7382 24.5178 86.8359 24.3047C86.8448 24.2958 86.8456 24.2872 86.8545 24.2783C86.8545 24.3227 86.8632 24.3764 86.8721 24.4385ZM90.6113 16.1953C89.7943 16.1333 89.1106 16.782 89.084 16.8086C89.0662 16.8264 89.0576 16.8532 89.0576 16.8799C88.3827 17.0752 87.8136 17.4831 87.5205 17.8916C87.4317 18.0159 87.4144 18.15 87.4766 18.2832C87.6457 18.6561 88.4362 18.9398 89.1465 19.0996C89.1465 19.1174 89.1551 19.1444 89.1729 19.1533C89.2532 19.2247 89.9539 19.8456 90.2471 19.9082C90.2648 19.9082 90.2829 19.917 90.3096 19.917C90.3538 19.917 90.3981 19.9083 90.4248 19.8643C90.4781 19.7932 90.4429 19.7035 90.3896 19.5703C90.3453 19.4639 90.2833 19.3311 90.292 19.207C90.8602 19.1537 91.3752 18.9138 91.7305 18.7451C91.8548 18.6918 91.9621 18.638 92.042 18.6113C92.0597 18.6024 92.0859 18.5851 92.1035 18.585C92.0859 18.6203 92.1034 18.656 92.1299 18.6826C92.4763 18.9313 92.8236 19.0469 93.0723 19.0469C93.2053 19.0468 93.3031 19.0202 93.3652 18.9492C93.4185 18.8959 93.4443 18.7805 93.3467 18.665C93.1691 18.4697 93.1255 18.3542 93.4541 17.999C93.685 17.7503 93.6665 17.4391 93.5244 17.2881C93.409 17.164 93.2319 17.1551 93.0898 17.2793C92.8412 17.4835 92.4234 17.7052 92.2812 17.7852C92.2369 17.7142 92.192 17.6519 92.1299 17.5986C91.8723 17.3412 91.464 17.0486 90.8428 16.8711C90.9493 16.7646 91.0999 16.5778 91.0557 16.418C91.0113 16.2847 90.8689 16.2131 90.6113 16.1953Z" fill="var(--fill-0, white)"/>
</g>
</svg>
