<svg preserveAspectRatio="none" width="100%" height="100%" overflow="visible" style="display: block;" viewBox="0 0 307 82" fill="none" xmlns="http://www.w3.org/2000/svg">
<g id="Frame 74">
<path id="Union" d="M135.783 45.752C137.629 45.752 139.418 46.2375 140.108 46.3682C140.239 47.5438 140.37 48.8687 140.631 50.9961L139.605 51.2012C139.046 49.0364 138.132 46.8906 135.037 46.8906C132.483 46.8906 131.588 48.7567 131.588 50.4736C131.588 52.7504 133.024 53.8883 135.765 55.3066C139.699 57.3408 141.414 58.8531 141.414 61.9883C141.414 65.4406 138.431 68.0722 134.198 68.0723C132.222 68.0723 130.525 67.5118 129.183 66.9893C128.922 66.0747 128.529 63.8353 128.287 62.0625L129.312 61.8018C129.965 64.0039 131.42 66.8584 134.832 66.8584C137.2 66.8584 138.636 65.2163 138.636 63.0889C138.636 60.5511 137.293 59.5432 134.403 57.957C130.954 56.0909 129.015 54.5047 129.015 51.4443C129.015 48.3838 131.439 45.752 135.783 45.752ZM116.111 63.9111C116.111 65.5531 116.373 65.7769 117.622 65.8516L118.535 65.8887V66.8037H118.517C116.932 67.0277 115.16 67.4571 113.501 67.9609V65.4229C111.73 66.897 110.275 67.9609 108.485 67.9609C106.285 67.9609 104.384 66.6163 104.384 63.0332V56.6514C104.384 54.8785 104.122 54.6727 103.302 54.5234L102.389 54.3555V53.4971C103.806 53.4224 105.968 53.1057 107.087 52.9004C106.994 53.9455 106.994 55.5317 106.994 57.6963V62.1748C106.994 65.0674 108.505 65.8887 109.978 65.8887C111.189 65.8885 112.401 65.3662 113.52 64.3027V56.6514C113.52 54.8786 113.128 54.6543 112.01 54.4863L110.965 54.3555V53.4971C113.072 53.4038 115.365 53.0311 116.111 52.9004V63.9111ZM157.151 63.9111C157.151 65.553 157.412 65.7769 158.661 65.8516L159.575 65.8887V66.8037H159.537C157.952 67.0277 156.181 67.4571 154.521 67.9609V65.4229C152.75 66.897 151.296 67.9609 149.506 67.9609C147.306 67.9608 145.404 66.6162 145.404 63.0332V56.6514C145.404 54.8785 145.143 54.6727 144.322 54.5234L143.409 54.3555V53.4971C144.826 53.4224 146.989 53.1057 148.107 52.9004C148.014 53.9455 148.015 55.5317 148.015 57.6963V62.1748C148.015 65.0674 149.525 65.8887 150.998 65.8887C152.21 65.8886 153.421 65.3662 154.54 64.3027V56.6514C154.54 54.8785 154.149 54.6543 153.03 54.4863L151.986 54.3555V53.4971C154.093 53.4037 156.387 53.031 157.151 52.9004V63.9111ZM209.061 48.291C209.005 49.6719 208.968 51.575 208.968 53.1611H212.716C213.014 53.4969 212.921 54.2061 212.511 54.5049H208.968V62.9219C208.968 65.5901 210.012 66.076 210.869 66.0762C211.652 66.0762 212.417 65.7767 212.864 65.5527L213.163 66.4121L211 67.5684L211.019 67.5312C210.459 67.8298 209.937 67.9609 209.602 67.9609C207.495 67.9609 206.376 66.673 206.376 64.042V54.4863H204.102L203.971 54.0947L204.865 53.1426H206.376V50.3809C206.991 49.7277 207.961 48.869 208.576 48.2158L209.061 48.291ZM174.529 63.7422C174.529 65.459 174.753 65.6833 175.965 65.7393L177.009 65.8135V66.7285L177.027 66.7471C176.337 66.8778 173.876 67.2696 171.938 67.96V65.832C171.341 66.1866 170.502 66.6532 169.905 67.0078C168.6 67.7729 167.705 67.9599 167.313 67.96C164.684 67.96 161.197 65.3282 161.197 60.7373C161.197 56.1465 165.207 52.75 169.7 52.75C170.166 52.75 171.248 52.8246 171.938 53.1045V48.2715C171.938 46.1627 171.714 46.1067 169.383 45.9014V45.043C171.024 44.819 173.317 44.3521 174.529 43.9229V63.7422ZM227.502 63.7422C227.502 65.459 227.726 65.6833 228.938 65.7393L229.981 65.8135V66.7285L230 66.7471C229.31 66.8777 226.849 67.2696 224.91 67.96V65.832C224.314 66.1865 223.475 66.6533 222.878 67.0078C221.573 67.7727 220.678 67.9598 220.286 67.96C217.657 67.96 214.17 65.3282 214.17 60.7373C214.17 56.1465 218.179 52.75 222.673 52.75C223.139 52.75 224.22 52.8246 224.91 53.1045V48.2715C224.91 46.1627 224.686 46.1066 222.355 45.9014V45.043C223.996 44.819 226.29 44.3521 227.502 43.9229V63.7422ZM87.1367 46.1992C91.7607 46.1993 94.6884 47.1139 96.7207 49.0547C98.3242 50.641 99.5176 52.937 99.5176 56.0908C99.5175 59.935 97.9321 63.0516 95.415 64.9551C92.9166 66.8211 89.7284 67.5488 85.7012 67.5488H78V66.6348C80.8155 66.3735 80.9463 66.1493 80.9463 63.4434V50.3242C80.9463 47.5063 80.5544 47.3756 78 47.0957V46.1807H87.1367V46.1992ZM195.431 47.1143C192.802 47.3755 192.447 47.5062 192.447 50.3428V63.7236C192.447 65.7204 192.709 66.1873 194.592 66.2246C194.632 66.2247 196.997 66.2617 197.184 66.2617C198.862 66.2617 199.347 66.0565 200.111 65.2354C200.932 64.3769 201.621 63.0703 202.105 61.8574L203.127 62.1162C202.915 63.1621 201.955 66.5459 201.621 67.5488H186.351V66.6348C189.334 66.3362 189.595 66.1682 189.595 63.3877V50.3428C189.595 47.5435 189.259 47.3942 186.63 47.1143V46.2002H195.431V47.1143ZM86.8379 47.3379C85.365 47.3379 84.5631 47.5434 84.2461 47.8047C83.9479 48.01 83.8174 48.365 83.8174 49.6523V63.1816C83.8174 65.645 84.862 66.3359 87.3232 66.3359C93.2337 66.3358 96.2539 62.2859 96.2539 56.5381C96.2538 52.9551 95.0419 50.2308 92.4502 48.6445C90.9399 47.6928 89.0381 47.3379 86.8379 47.3379ZM168.488 54.0195C166.903 54.0195 164.125 55.0645 164.125 59.8047C164.125 63.7795 166.586 65.8885 168.693 65.9258C169.868 65.9257 171.154 65.3285 171.938 64.75V55.6992C171.192 54.5422 169.775 54.0196 168.488 54.0195ZM221.461 54.0195C219.876 54.0195 217.098 55.0645 217.098 59.8047C217.098 63.7795 219.559 65.8885 221.666 65.9258C222.841 65.9256 224.127 65.3284 224.91 64.75V55.6992C224.164 54.5423 222.747 54.0197 221.461 54.0195ZM203.132 62.1182L203.127 62.1162C203.128 62.1106 203.131 62.105 203.132 62.0996V62.1182ZM102.874 21.8281C105.727 21.8284 107.89 24.2916 107.89 26.9229C107.852 27.576 107.758 27.8742 107.236 28.0049C106.583 28.1355 102.37 28.4348 98.4736 28.5654C98.3805 32.9694 101.065 34.7792 103.396 34.7793C104.738 34.7793 105.987 34.2193 107.199 33.0996L107.722 33.8652H107.74C105.633 36.4963 103.34 37.0565 102.296 37.0566C98.2871 37.0566 95.8633 33.7718 95.8633 29.9834C95.8633 27.744 96.6458 25.6723 97.9883 24.2354C99.3681 22.6864 101.177 21.8281 102.874 21.8281ZM118.647 21.8467C120.12 21.8467 121.202 22.313 121.705 22.7422C122.171 23.0966 122.227 23.339 122.228 23.6934C122.228 24.4771 121.407 25.1678 121.053 25.168C120.885 25.168 120.754 25.0933 120.438 24.832C119.412 23.9176 118.293 23.4512 117.118 23.4512C114.955 23.4513 113.054 25.2988 113.054 28.7139C113.016 33.2861 116.149 34.7979 118.051 34.7979C119.431 34.7978 120.549 34.4429 122.06 32.9873L122.619 33.7148L122.582 33.6963C121.146 35.5998 118.945 37.0557 116.969 37.0557C112.792 37.0554 110.331 33.6774 110.331 30.1504C110.331 27.5566 111.45 25.3924 113.65 23.7129C115.384 22.3692 117.361 21.8467 118.647 21.8467ZM149.097 21.8271C151.949 21.8274 154.112 24.2907 154.112 26.9219C154.075 27.575 153.981 27.8733 153.459 28.0039C152.806 28.1346 148.593 28.4338 144.696 28.5645C144.603 32.9685 147.288 34.7783 149.618 34.7783C150.961 34.7783 152.21 34.2191 153.422 33.0996L153.944 33.8643H153.963C151.856 36.4953 149.563 37.0555 148.519 37.0557C144.51 37.0557 142.085 33.7708 142.085 29.9824C142.085 27.743 142.868 25.6713 144.211 24.2344C145.591 22.6855 147.4 21.8271 149.097 21.8271ZM184.541 21.8271C187.394 21.8271 189.558 24.2906 189.558 26.9219C189.52 27.575 189.426 27.8733 188.904 28.0039C188.251 28.1346 184.037 28.4338 180.141 28.5645C180.047 32.9685 182.733 34.7783 185.063 34.7783C186.406 34.7783 187.655 34.2192 188.867 33.0996L189.39 33.8643H189.408C187.302 36.4952 185.008 37.0555 183.964 37.0557C179.955 37.0557 177.53 33.7708 177.53 29.9824C177.53 27.743 178.314 25.6713 179.656 24.2344C181.036 22.6856 182.844 21.8273 184.541 21.8271ZM128.679 24.2158C129.853 23.0402 131.662 21.8087 133.434 21.8086C136.119 21.8086 138.002 23.4882 138.002 27.4258V33.2109C138.002 35.3757 138.263 35.544 140.165 35.7119V36.626H133.247V35.7305C135.149 35.5252 135.41 35.3758 135.41 33.1924V27.7988C135.41 25.0744 134.366 23.6932 132.166 23.7305C130.917 23.7305 129.611 24.3472 128.679 25.4482V33.2109C128.679 35.3384 128.941 35.5437 130.917 35.749V36.6641H123.757V35.749C125.659 35.5811 126.087 35.413 126.087 33.2109V17.3486C126.087 15.6131 125.994 15.1838 123.794 14.9785V14.1201C125.528 13.9522 127.504 13.4665 128.679 13V24.2158ZM86.8193 15.2959C89.1499 15.2959 91.0149 15.725 92.376 16.7139C93.6625 17.6656 94.5391 19.2151 94.5391 21.3799C94.539 26.176 90.4371 28.1172 87.3232 28.1172C86.969 28.1172 86.6328 28.0793 86.4277 28.042L84.1533 27.4453V32.5771C84.1533 35.339 84.3771 35.3956 87.3975 35.7314V36.6455H78.3545V35.7314C81.17 35.4329 81.3008 35.2453 81.3008 32.502V19.458C81.3008 16.5281 80.9462 16.4712 78.3545 16.21V15.2959H86.8193ZM160.974 25.3555C162.13 23.6386 163.51 21.8467 165.15 21.8467C166.362 21.8468 167.052 22.6125 167.052 23.4336C167.052 24.1984 166.53 24.9072 165.934 25.2432C165.598 25.4484 165.336 25.4114 165.075 25.1875C164.59 24.7024 164.181 24.3662 163.603 24.3662C162.913 24.3662 161.701 25.3928 160.974 27.0537V33.2305C160.974 35.3952 161.141 35.5633 163.658 35.7686V36.6455H156.107V35.7314C158.177 35.5262 158.382 35.3765 158.382 33.2305V26.4004C158.382 24.2357 158.251 24.1233 156.35 23.8994V23.0781C157.953 22.8169 159.445 22.4258 160.974 21.7354V25.3555ZM173.429 33.1367C173.429 35.3762 173.653 35.5448 175.797 35.7314V36.6455H168.544V35.7314C170.613 35.5262 170.837 35.3761 170.837 33.1367V26.3623C170.837 24.3286 170.744 24.1982 168.768 23.8623V23.0781C170.483 22.7795 172.012 22.35 173.429 21.7715V33.1367ZM133.247 36.6445L133.229 36.626H133.247V36.6445ZM102.091 23.0781C100.581 23.0781 99.1068 24.4966 98.6406 27.1465C100.486 27.1465 102.314 27.147 104.253 27.0537C104.85 27.0537 105.036 26.8856 105.036 26.4004C105.073 24.6649 103.918 23.0783 102.091 23.0781ZM148.313 23.0771C146.803 23.0771 145.329 24.4957 144.863 27.1455C146.709 27.1455 148.537 27.146 150.476 27.0527C151.072 27.0527 151.259 26.8846 151.259 26.3994C151.296 24.664 150.141 23.0774 148.313 23.0771ZM183.759 23.0771C182.249 23.0771 180.775 24.4957 180.309 27.1455C182.154 27.1455 183.982 27.146 185.921 27.0527C186.518 27.0527 186.704 26.8846 186.704 26.3994C186.741 24.664 185.586 23.0774 183.759 23.0771ZM86.3535 16.3975C85.4026 16.3975 84.7129 16.5651 84.5078 16.7891C84.2468 17.013 84.1533 17.405 84.1533 18.3008V26.2881C84.5449 26.4934 85.4399 26.7168 86.5586 26.7168C88.7588 26.7168 91.4814 25.5971 91.4814 21.4541C91.4813 17.8339 89.113 16.3975 86.3535 16.3975ZM106.603 19.085L105.782 19.7002L105.764 19.7197C105.67 19.6451 102.448 16.4378 102.352 16.3604C102.256 16.4555 99.0327 19.6078 98.9395 19.7197L98.1191 19.0293L101.96 13.5049H102.817L106.603 19.085ZM171.993 14.9971C172.944 14.9971 173.671 15.7626 173.671 16.8076C173.671 17.722 172.907 18.5428 171.956 18.543C171.042 18.543 170.222 17.7221 170.222 16.8076C170.222 15.7626 171.042 14.9971 171.993 14.9971Z" fill="var(--fill-0, white)"/>
</g>
</svg>
