<svg preserveAspectRatio="none" width="100%" height="100%" overflow="visible" style="display: block;" viewBox="0 0 307 155" fill="none" xmlns="http://www.w3.org/2000/svg">
<g id="Frame 74">
<path id="Union" d="M135.783 82.752C137.629 82.752 139.418 83.2375 140.108 83.3682C140.239 84.5438 140.37 85.8687 140.631 87.9961L139.605 88.2012C139.046 86.0364 138.132 83.8906 135.037 83.8906C132.483 83.8906 131.588 85.7567 131.588 87.4736C131.588 89.7504 133.024 90.8883 135.765 92.3066C139.699 94.3408 141.414 95.8531 141.414 98.9883C141.414 102.441 138.431 105.072 134.198 105.072C132.222 105.072 130.525 104.512 129.183 103.989C128.922 103.075 128.529 100.835 128.287 99.0625L129.312 98.8018C129.965 101.004 131.42 103.858 134.832 103.858C137.2 103.858 138.636 102.216 138.636 100.089C138.636 97.5511 137.293 96.5432 134.403 94.957C130.954 93.0909 129.015 91.5047 129.015 88.4443C129.015 85.3838 131.439 82.752 135.783 82.752ZM116.111 100.911C116.111 102.553 116.373 102.777 117.622 102.852L118.535 102.889V103.804H118.517C116.932 104.028 115.16 104.457 113.501 104.961V102.423C111.73 103.897 110.275 104.961 108.485 104.961C106.285 104.961 104.384 103.616 104.384 100.033V93.6514C104.384 91.8785 104.122 91.6727 103.302 91.5234L102.389 91.3555V90.4971C103.806 90.4224 105.968 90.1057 107.087 89.9004C106.994 90.9455 106.994 92.5317 106.994 94.6963V99.1748C106.994 102.067 108.505 102.889 109.978 102.889C111.189 102.889 112.401 102.366 113.52 101.303V93.6514C113.52 91.8786 113.128 91.6543 112.01 91.4863L110.965 91.3555V90.4971C113.072 90.4038 115.365 90.0311 116.111 89.9004V100.911ZM157.151 100.911C157.151 102.553 157.412 102.777 158.661 102.852L159.575 102.889V103.804H159.537C157.952 104.028 156.181 104.457 154.521 104.961V102.423C152.75 103.897 151.296 104.961 149.506 104.961C147.306 104.961 145.404 103.616 145.404 100.033V93.6514C145.404 91.8785 145.143 91.6727 144.322 91.5234L143.409 91.3555V90.4971C144.826 90.4224 146.989 90.1057 148.107 89.9004C148.014 90.9455 148.015 92.5317 148.015 94.6963V99.1748C148.015 102.067 149.525 102.889 150.998 102.889C152.21 102.889 153.421 102.366 154.54 101.303V93.6514C154.54 91.8785 154.149 91.6543 153.03 91.4863L151.986 91.3555V90.4971C154.093 90.4037 156.387 90.031 157.151 89.9004V100.911ZM209.061 85.291C209.005 86.6719 208.968 88.575 208.968 90.1611H212.716C213.014 90.4969 212.921 91.2061 212.511 91.5049H208.968V99.9219C208.968 102.59 210.012 103.076 210.869 103.076C211.652 103.076 212.417 102.777 212.864 102.553L213.163 103.412L211 104.568L211.019 104.531C210.459 104.83 209.937 104.961 209.602 104.961C207.495 104.961 206.376 103.673 206.376 101.042V91.4863H204.102L203.971 91.0947L204.865 90.1426H206.376V87.3809C206.991 86.7277 207.961 85.869 208.576 85.2158L209.061 85.291ZM174.529 100.742C174.529 102.459 174.753 102.683 175.965 102.739L177.009 102.813V103.729L177.027 103.747C176.337 103.878 173.876 104.27 171.938 104.96V102.832C171.341 103.187 170.502 103.653 169.905 104.008C168.6 104.773 167.705 104.96 167.313 104.96C164.684 104.96 161.197 102.328 161.197 97.7373C161.197 93.1465 165.207 89.75 169.7 89.75C170.166 89.75 171.248 89.8246 171.938 90.1045V85.2715C171.938 83.1627 171.714 83.1067 169.383 82.9014V82.043C171.024 81.819 173.317 81.3521 174.529 80.9229V100.742ZM227.502 100.742C227.502 102.459 227.726 102.683 228.938 102.739L229.981 102.813V103.729L230 103.747C229.31 103.878 226.849 104.27 224.91 104.96V102.832C224.314 103.187 223.475 103.653 222.878 104.008C221.573 104.773 220.678 104.96 220.286 104.96C217.657 104.96 214.17 102.328 214.17 97.7373C214.17 93.1465 218.179 89.75 222.673 89.75C223.139 89.75 224.22 89.8246 224.91 90.1045V85.2715C224.91 83.1627 224.686 83.1066 222.355 82.9014V82.043C223.996 81.819 226.29 81.3521 227.502 80.9229V100.742ZM87.1367 83.1992C91.7607 83.1993 94.6884 84.1139 96.7207 86.0547C98.3242 87.641 99.5176 89.937 99.5176 93.0908C99.5175 96.935 97.9321 100.052 95.415 101.955C92.9166 103.821 89.7284 104.549 85.7012 104.549H78V103.635C80.8155 103.373 80.9463 103.149 80.9463 100.443V87.3242C80.9463 84.5063 80.5544 84.3756 78 84.0957V83.1807H87.1367V83.1992ZM195.431 84.1143C192.802 84.3755 192.447 84.5062 192.447 87.3428V100.724C192.447 102.72 192.709 103.187 194.592 103.225C194.632 103.225 196.997 103.262 197.184 103.262C198.862 103.262 199.347 103.056 200.111 102.235C200.932 101.377 201.621 100.07 202.105 98.8574L203.127 99.1162C202.915 100.162 201.955 103.546 201.621 104.549H186.351V103.635C189.334 103.336 189.595 103.168 189.595 100.388V87.3428C189.595 84.5435 189.259 84.3942 186.63 84.1143V83.2002H195.431V84.1143ZM86.8379 84.3379C85.365 84.3379 84.5631 84.5434 84.2461 84.8047C83.9479 85.01 83.8174 85.365 83.8174 86.6523V100.182C83.8174 102.645 84.862 103.336 87.3232 103.336C93.2337 103.336 96.2539 99.2859 96.2539 93.5381C96.2538 89.9551 95.0419 87.2308 92.4502 85.6445C90.9399 84.6928 89.0381 84.3379 86.8379 84.3379ZM168.488 91.0195C166.903 91.0195 164.125 92.0645 164.125 96.8047C164.125 100.78 166.586 102.888 168.693 102.926C169.868 102.926 171.154 102.328 171.938 101.75V92.6992C171.192 91.5422 169.775 91.0196 168.488 91.0195ZM221.461 91.0195C219.876 91.0195 217.098 92.0645 217.098 96.8047C217.098 100.78 219.559 102.888 221.666 102.926C222.841 102.926 224.127 102.328 224.91 101.75V92.6992C224.164 91.5423 222.747 91.0197 221.461 91.0195ZM203.132 99.1182L203.127 99.1162C203.128 99.1106 203.131 99.105 203.132 99.0996V99.1182ZM102.874 58.8281C105.727 58.8284 107.89 61.2916 107.89 63.9229C107.852 64.576 107.758 64.8742 107.236 65.0049C106.583 65.1355 102.37 65.4348 98.4736 65.5654C98.3805 69.9694 101.065 71.7792 103.396 71.7793C104.738 71.7793 105.987 71.2193 107.199 70.0996L107.722 70.8652H107.74C105.633 73.4963 103.34 74.0565 102.296 74.0566C98.2871 74.0566 95.8633 70.7718 95.8633 66.9834C95.8633 64.744 96.6458 62.6723 97.9883 61.2354C99.3681 59.6864 101.177 58.8281 102.874 58.8281ZM118.647 58.8467C120.12 58.8467 121.202 59.313 121.705 59.7422C122.171 60.0966 122.227 60.339 122.228 60.6934C122.228 61.4771 121.407 62.1678 121.053 62.168C120.885 62.168 120.754 62.0933 120.438 61.832C119.412 60.9176 118.293 60.4512 117.118 60.4512C114.955 60.4513 113.054 62.2988 113.054 65.7139C113.016 70.2861 116.149 71.7979 118.051 71.7979C119.431 71.7978 120.549 71.4429 122.06 69.9873L122.619 70.7148L122.582 70.6963C121.146 72.5998 118.945 74.0557 116.969 74.0557C112.792 74.0554 110.331 70.6774 110.331 67.1504C110.331 64.5566 111.45 62.3924 113.65 60.7129C115.384 59.3692 117.361 58.8467 118.647 58.8467ZM149.097 58.8271C151.949 58.8274 154.112 61.2907 154.112 63.9219C154.075 64.575 153.981 64.8733 153.459 65.0039C152.806 65.1346 148.593 65.4338 144.696 65.5645C144.603 69.9685 147.288 71.7783 149.618 71.7783C150.961 71.7783 152.21 71.2191 153.422 70.0996L153.944 70.8643H153.963C151.856 73.4953 149.563 74.0555 148.519 74.0557C144.51 74.0557 142.085 70.7708 142.085 66.9824C142.085 64.743 142.868 62.6713 144.211 61.2344C145.591 59.6855 147.4 58.8271 149.097 58.8271ZM184.541 58.8271C187.394 58.8271 189.558 61.2906 189.558 63.9219C189.52 64.575 189.426 64.8733 188.904 65.0039C188.251 65.1346 184.037 65.4338 180.141 65.5645C180.047 69.9685 182.733 71.7783 185.063 71.7783C186.406 71.7783 187.655 71.2192 188.867 70.0996L189.39 70.8643H189.408C187.302 73.4952 185.008 74.0555 183.964 74.0557C179.955 74.0557 177.53 70.7708 177.53 66.9824C177.53 64.743 178.314 62.6713 179.656 61.2344C181.036 59.6856 182.844 58.8273 184.541 58.8271ZM128.679 61.2158C129.853 60.0402 131.662 58.8087 133.434 58.8086C136.119 58.8086 138.002 60.4882 138.002 64.4258V70.2109C138.002 72.3757 138.263 72.544 140.165 72.7119V73.626H133.247V72.7305C135.149 72.5252 135.41 72.3758 135.41 70.1924V64.7988C135.41 62.0744 134.366 60.6932 132.166 60.7305C130.917 60.7305 129.611 61.3472 128.679 62.4482V70.2109C128.679 72.3384 128.941 72.5437 130.917 72.749V73.6641H123.757V72.749C125.659 72.5811 126.087 72.413 126.087 70.2109V54.3486C126.087 52.6131 125.994 52.1838 123.794 51.9785V51.1201C125.528 50.9522 127.504 50.4665 128.679 50V61.2158ZM86.8193 52.2959C89.1499 52.2959 91.0149 52.725 92.376 53.7139C93.6625 54.6656 94.5391 56.2151 94.5391 58.3799C94.539 63.176 90.4371 65.1172 87.3232 65.1172C86.969 65.1172 86.6328 65.0793 86.4277 65.042L84.1533 64.4453V69.5771C84.1533 72.339 84.3771 72.3956 87.3975 72.7314V73.6455H78.3545V72.7314C81.17 72.4329 81.3008 72.2453 81.3008 69.502V56.458C81.3008 53.5281 80.9462 53.4712 78.3545 53.21V52.2959H86.8193ZM160.974 62.3555C162.13 60.6386 163.51 58.8467 165.15 58.8467C166.362 58.8468 167.052 59.6125 167.052 60.4336C167.052 61.1984 166.53 61.9072 165.934 62.2432C165.598 62.4484 165.336 62.4114 165.075 62.1875C164.59 61.7024 164.181 61.3662 163.603 61.3662C162.913 61.3662 161.701 62.3928 160.974 64.0537V70.2305C160.974 72.3952 161.141 72.5633 163.658 72.7686V73.6455H156.107V72.7314C158.177 72.5262 158.382 72.3765 158.382 70.2305V63.4004C158.382 61.2357 158.251 61.1233 156.35 60.8994V60.0781C157.953 59.8169 159.445 59.4258 160.974 58.7354V62.3555ZM173.429 70.1367C173.429 72.3762 173.653 72.5448 175.797 72.7314V73.6455H168.544V72.7314C170.613 72.5262 170.837 72.3761 170.837 70.1367V63.3623C170.837 61.3286 170.744 61.1982 168.768 60.8623V60.0781C170.483 59.7795 172.012 59.35 173.429 58.7715V70.1367ZM133.247 73.6445L133.229 73.626H133.247V73.6445ZM102.091 60.0781C100.581 60.0781 99.1068 61.4966 98.6406 64.1465C100.486 64.1465 102.314 64.147 104.253 64.0537C104.85 64.0537 105.036 63.8856 105.036 63.4004C105.073 61.6649 103.918 60.0783 102.091 60.0781ZM148.313 60.0771C146.803 60.0771 145.329 61.4957 144.863 64.1455C146.709 64.1455 148.537 64.146 150.476 64.0527C151.072 64.0527 151.259 63.8846 151.259 63.3994C151.296 61.664 150.141 60.0774 148.313 60.0771ZM183.759 60.0771C182.249 60.0771 180.775 61.4957 180.309 64.1455C182.154 64.1455 183.982 64.146 185.921 64.0527C186.518 64.0527 186.704 63.8846 186.704 63.3994C186.741 61.664 185.586 60.0774 183.759 60.0771ZM86.3535 53.3975C85.4026 53.3975 84.7129 53.5651 84.5078 53.7891C84.2468 54.013 84.1533 54.405 84.1533 55.3008V63.2881C84.5449 63.4934 85.4399 63.7168 86.5586 63.7168C88.7588 63.7168 91.4814 62.5971 91.4814 58.4541C91.4813 54.8339 89.113 53.3975 86.3535 53.3975ZM106.603 56.085L105.782 56.7002L105.764 56.7197C105.67 56.6451 102.448 53.4378 102.352 53.3604C102.256 53.4555 99.0327 56.6078 98.9395 56.7197L98.1191 56.0293L101.96 50.5049H102.817L106.603 56.085ZM171.993 51.9971C172.944 51.9971 173.671 52.7626 173.671 53.8076C173.671 54.722 172.907 55.5428 171.956 55.543C171.042 55.543 170.222 54.7221 170.222 53.8076C170.222 52.7626 171.042 51.9971 171.993 51.9971Z" fill="var(--fill-0, #002C41)"/>
</g>
</svg>
