<svg preserveAspectRatio="none" width="100%" height="100%" overflow="visible" style="display: block;" viewBox="0 0 307 155" fill="none" xmlns="http://www.w3.org/2000/svg">
<g id="Frame 74">
<path id="Union" d="M206.336 113.172V123H100V113.172H206.336ZM143.053 116.735C142.222 116.736 141.525 117.427 141.525 118.263C141.525 119.098 142.212 119.773 143.053 119.773C143.894 119.773 144.58 119.099 144.58 118.263C144.58 117.395 143.883 116.735 143.053 116.735ZM152.452 116.794V118.648C152.452 119.007 152.538 119.227 152.635 119.355C152.763 119.527 153.058 119.773 153.503 119.773C153.899 119.773 154.2 119.576 154.371 119.34C154.51 119.147 154.543 118.884 154.543 118.648V116.794H154.001V118.648C154.001 118.799 154.001 119.27 153.497 119.27C152.994 119.269 152.994 118.793 152.994 118.648V116.794H152.452ZM181.755 116.735C180.924 116.735 180.228 117.427 180.228 118.263C180.228 119.099 180.914 119.773 181.755 119.773C182.055 119.773 182.345 119.688 182.586 119.532C182.72 119.623 182.934 119.773 183.276 119.773H183.352V119.27H183.266C183.217 119.269 183.068 119.254 182.961 119.174C183.073 119.024 183.282 118.756 183.282 118.241C183.282 117.395 182.585 116.735 181.755 116.735ZM191.159 116.794V118.648C191.159 119.007 191.245 119.227 191.342 119.355C191.47 119.527 191.765 119.773 192.21 119.773C192.606 119.773 192.907 119.576 193.078 119.34C193.217 119.147 193.25 118.884 193.25 118.648V116.794H192.708V118.648C192.708 118.799 192.708 119.269 192.205 119.27C191.701 119.27 191.701 118.793 191.701 118.648V116.794H191.159ZM103.531 116.8V119.715H104.962V119.211H104.072V116.8H103.531ZM113.751 116.8L112.54 119.715H113.135L113.445 118.959H114.49L114.801 119.715H115.396L114.174 116.8H113.751ZM171.755 116.8V119.715H172.297V116.8H171.755ZM201.234 116.8V119.715H202.805V119.211H201.775V118.52H202.762V118.016H201.775V117.304H202.805V116.8H201.234ZM162.312 116.794V117.298H162.854V119.709H163.396V117.298H163.937V116.794H162.312ZM131.858 116.789V119.704H132.641C132.828 119.704 133.171 119.688 133.391 119.532C133.567 119.409 133.756 119.189 133.756 118.841C133.756 118.348 133.45 118.188 133.257 118.118C133.348 118.065 133.584 117.925 133.584 117.561C133.584 117.357 133.483 117.142 133.338 117.014C133.086 116.789 132.759 116.789 132.438 116.789H131.858ZM181.171 118.788C181.45 118.788 181.744 118.879 182.151 119.185C182.076 119.217 181.953 119.27 181.755 119.27H181.733C181.514 119.27 181.155 119.152 180.94 118.82C180.97 118.81 180.999 118.8 181.035 118.793L181.171 118.788ZM143.053 117.239C143.599 117.239 144.039 117.7 144.039 118.257C144.039 118.793 143.61 119.265 143.053 119.265C142.496 119.264 142.067 118.819 142.067 118.257C142.068 117.694 142.506 117.239 143.053 117.239ZM132.689 118.434C133.161 118.434 133.22 118.707 133.22 118.825C133.22 119.205 132.787 119.206 132.679 119.206H132.405V118.434H132.689ZM181.755 117.239C182.285 117.239 182.741 117.673 182.741 118.257C182.741 118.61 182.612 118.755 182.537 118.862H182.526C182.514 118.845 181.934 118.273 181.176 118.273H181.096C180.935 118.273 180.849 118.294 180.774 118.311C180.769 118.295 180.769 118.278 180.769 118.22C180.79 117.754 181.149 117.239 181.755 117.239ZM113.96 117.555L114.292 118.45H113.622L113.954 117.555H113.96ZM132.625 117.298C132.93 117.298 133.043 117.443 133.043 117.614C133.043 117.93 132.705 117.931 132.576 117.931H132.399V117.298H132.625ZM136.537 88.5254C137.77 88.5254 138.386 89.0937 138.386 90.2295C138.386 90.8618 138.188 91.607 137.791 92.4697C137.394 93.3325 136.907 94.1262 136.323 94.8496C136.179 95.0371 136.017 95.1328 135.824 95.1328C135.631 95.1327 135.465 95.0739 135.315 94.9561C135.166 94.8382 135.091 94.6617 135.091 94.4209C135.091 94.3084 135.144 94.2004 135.257 94.0879C135.728 93.6325 136.168 93.0003 136.569 92.1914C136.971 91.3876 137.175 90.744 137.175 90.2725C137.175 90.0529 137.121 89.8923 137.009 89.7959C136.896 89.6995 136.794 89.6562 136.703 89.6562C136.167 89.6563 135.433 89.882 134.501 90.332C133.569 90.7822 132.582 91.3929 131.548 92.1592C130.514 92.9254 129.533 93.761 128.611 94.6719C127.684 95.5775 126.923 96.559 126.323 97.6094C125.723 98.6594 125.423 99.6184 125.423 100.486C125.423 101.29 125.718 101.891 126.302 102.276C126.886 102.662 127.658 102.855 128.622 102.855C129.978 102.855 131.602 102.459 133.478 101.66C135.358 100.862 137.117 99.8541 138.762 98.6377C138.769 98.6405 138.776 98.6451 138.783 98.6484C139.062 98.4244 139.385 98.1634 139.746 97.8682C140.191 97.5038 140.567 97.1977 140.883 96.9404C141.054 96.5601 141.253 96.3888 141.478 96.4209C141.665 96.453 141.831 96.5332 141.965 96.6562C142.099 96.7848 142.169 96.9243 142.169 97.085C142.169 97.3368 142.034 97.6906 141.767 98.1514C141.686 98.2961 141.541 98.5374 141.327 98.8857C141.113 99.2337 140.985 99.4429 140.937 99.5234C142.008 98.575 143.401 97.7606 145.105 97.0693C146.809 96.3835 148.304 96.1481 149.585 96.373C149.805 96.4052 149.853 96.5229 149.725 96.7266C149.633 96.9032 149.462 96.9946 149.227 97.0107C147.93 97.0429 146.461 97.4388 144.821 98.2051C143.176 98.9714 141.783 99.9309 140.625 101.083C140.421 101.287 140.218 101.538 140.02 101.844C139.821 102.144 139.714 102.304 139.698 102.315C139.446 102.632 139.194 102.782 138.942 102.766C138.83 102.766 138.707 102.712 138.562 102.6C138.407 102.471 138.332 102.332 138.348 102.171C138.364 101.871 138.943 100.767 140.079 98.8535C139.35 99.4537 138.766 99.904 138.326 100.204L138.244 100.258C138.201 100.282 138.157 100.3 138.113 100.316C136.851 101.222 135.388 102.044 133.729 102.77C131.843 103.6 130.074 104.013 128.435 104.013L127.977 104.011C126.918 103.95 126.027 103.675 125.3 103.183C124.469 102.62 124.057 101.74 124.057 100.54C124.057 99.4362 124.404 98.2784 125.096 97.0674C125.792 95.8617 126.661 94.7687 127.7 93.7881C128.74 92.8074 129.839 91.9122 130.996 91.0977C132.148 90.2832 133.225 89.6513 134.228 89.2012C135.229 88.7511 136.001 88.5255 136.537 88.5254ZM175.94 90.3789C176.053 90.3789 176.16 90.4327 176.272 90.5449C176.385 90.6574 176.438 90.7757 176.438 90.9043C176.438 91.049 176.38 91.2256 176.262 91.4346C176.144 91.6489 175.952 91.907 175.684 92.2178C175.416 92.5284 175.153 92.8122 174.901 93.0693C174.65 93.3319 174.296 93.6753 173.835 94.1094C173.379 94.5434 173.004 94.8917 172.709 95.1543C172.414 95.4168 171.991 95.8023 171.429 96.3164C170.872 96.8307 170.459 97.1958 170.207 97.4209C169.703 98.0532 169.274 98.7229 168.926 99.4355C168.577 100.148 168.406 100.749 168.406 101.236C168.406 101.488 168.481 101.687 168.631 101.826C168.781 101.971 168.974 102.04 169.21 102.04C169.714 102.04 170.373 101.836 171.177 101.435C171.98 101.033 172.64 100.658 173.144 100.31C173.575 100.011 174.159 99.5889 174.895 99.0498C175.02 98.8662 175.16 98.6777 175.319 98.4883C176.102 97.5666 177.013 96.8003 178.058 96.1895C179.097 95.5839 179.987 95.2783 180.711 95.2783C181.027 95.2784 181.273 95.3647 181.455 95.5254C181.637 95.6914 181.728 95.8785 181.729 96.082C181.729 96.7787 181.145 97.5292 179.977 98.333C178.808 99.1368 177.34 99.855 175.571 100.487C175.491 100.6 175.453 100.75 175.453 100.938C175.453 101.221 175.55 101.457 175.748 101.65C175.946 101.838 176.247 101.935 176.659 101.935C178.46 101.935 180.727 100.879 183.46 98.7568C183.599 98.9925 183.674 99.2174 183.674 99.4209C183.674 99.6728 183.556 99.8871 183.32 100.059C180.759 102.004 178.502 102.974 176.541 102.974C175.812 102.974 175.255 102.792 174.858 102.428C174.462 102.063 174.248 101.608 174.216 101.056L174.212 100.912C174.212 100.869 174.213 100.825 174.216 100.781C173.615 101.213 172.934 101.642 172.173 102.067C170.957 102.748 169.922 103.085 169.07 103.085C168.567 103.085 168.138 102.935 167.79 102.635C167.442 102.335 167.27 101.917 167.27 101.381L167.281 101.154C167.333 100.628 167.565 99.9492 167.982 99.1191C167.489 99.5478 167.082 99.8647 166.75 100.068C166.466 100.256 166.214 100.353 165.989 100.353C165.802 100.353 165.652 100.239 165.539 100.02C165.475 99.9232 165.491 99.8372 165.587 99.7568L166.037 99.4033C167.254 98.4709 168.24 97.6836 169.001 97.0352C170.785 94.838 172.152 93.2781 173.101 92.3457C174.445 91.033 175.388 90.379 175.94 90.3789ZM154.592 95.7334C154.86 95.7335 155.096 95.809 155.294 95.959C155.492 96.109 155.588 96.3024 155.588 96.5381C155.587 97.3579 153.98 98.4993 150.755 99.9512C150.691 100.064 150.658 100.171 150.658 100.283C150.658 101.087 151.226 101.494 152.362 101.494C153.295 101.494 154.35 101.243 155.534 100.75C156.652 100.28 157.707 99.6633 158.696 98.9062C159.347 98.0911 160.1 97.4028 160.957 96.833C161.852 96.2382 162.603 95.9434 163.219 95.9434C163.503 95.9434 163.723 95.9855 163.884 96.0605C164.216 96.1998 164.489 96.4198 164.714 96.709C164.934 97.0037 165.035 97.3206 165.024 97.6689C164.992 98.7567 164.301 99.8822 162.951 101.034C161.601 102.186 160.309 102.765 159.076 102.765C158.68 102.765 158.343 102.62 158.059 102.336C157.758 102.068 157.608 101.714 157.608 101.27L157.606 101.152C157.614 101.039 157.632 100.923 157.659 100.804C156.978 101.221 156.243 101.59 155.454 101.912C154.227 102.41 153.117 102.657 152.126 102.657L151.825 102.644C151.124 102.602 150.53 102.417 150.047 102.084C149.495 101.704 149.217 101.152 149.217 100.423C149.217 99.335 149.817 98.2789 151.018 97.2607C152.218 96.2428 153.408 95.7334 154.592 95.7334ZM163.219 96.9883C162.903 96.9883 162.447 97.1384 161.847 97.4385C161.247 97.7385 160.711 98.1239 160.234 98.6006C160.138 98.697 160.068 98.8473 160.02 99.0615C159.971 99.2759 159.869 99.4794 159.714 99.667C159.13 100.412 158.841 100.959 158.841 101.302L158.842 101.407C158.872 101.637 159.01 101.752 159.259 101.752C160.047 101.752 161.038 101.248 162.223 100.235C163.407 99.2228 164.001 98.3547 164.001 97.626C164.001 97.1973 163.739 96.9883 163.219 96.9883ZM180.539 96.2695C179.891 96.3338 179.098 96.6831 178.16 97.3262C177.222 97.9639 176.488 98.6496 175.968 99.373L176.362 99.208C177.272 98.8035 178.117 98.3445 178.904 97.8242C179.805 97.2294 180.352 96.7143 180.539 96.2695ZM154.135 96.8047C153.66 96.8516 153.117 97.0624 152.513 97.4326C151.816 97.8613 151.317 98.3116 151.022 98.7832C152.571 97.9633 153.675 97.2982 154.34 96.7891L154.135 96.8047ZM159.549 88.5801C159.913 88.5802 160.138 88.7514 160.234 89.0996L160.251 89.1836C160.254 89.219 160.256 89.2605 160.256 89.3086C160.256 89.7051 159.784 90.2783 158.836 91.0391C157.888 91.7946 156.853 92.4863 155.733 93.1025C155.514 93.2149 155.364 93.2684 155.283 93.2686C155.08 93.2686 154.978 93.1669 154.978 92.958C154.978 92.8776 155.015 92.8021 155.096 92.7217C156.06 91.9179 157.143 90.8512 158.343 89.5225C158.375 89.4902 158.434 89.4258 158.52 89.335C158.605 89.2387 158.664 89.1747 158.696 89.1318C158.728 89.0944 158.777 89.03 158.852 88.9551C158.921 88.8749 158.98 88.8212 159.028 88.7891C159.076 88.757 159.13 88.7244 159.194 88.6816C159.259 88.6441 159.318 88.6176 159.372 88.6016C159.426 88.5856 159.485 88.5801 159.549 88.5801ZM154.351 79.1533C154.774 79.1534 155.176 79.2122 155.54 79.3193C155.91 79.4319 156.232 79.5982 156.516 79.8232C156.8 80.0483 157.03 80.3222 157.212 80.6543C157.394 80.9811 157.522 81.3669 157.592 81.8008H156.777C156.617 81.0881 156.311 80.5784 155.872 80.2783C155.433 79.9784 154.854 79.8233 154.142 79.8232C153.638 79.8232 153.203 79.9248 152.839 80.123C152.475 80.3266 152.174 80.5946 151.938 80.9375C151.703 81.2805 151.526 81.6724 151.413 82.1172C151.301 82.5619 151.247 83.0335 151.247 83.5264C151.247 83.9926 151.295 84.4483 151.392 84.8984C151.488 85.3485 151.649 85.7504 151.874 86.0986C152.099 86.4523 152.4 86.7358 152.78 86.9502C153.161 87.1645 153.638 87.2773 154.211 87.2773C154.565 87.2773 154.892 87.219 155.187 87.1064C155.481 86.9886 155.738 86.8276 155.958 86.624C156.178 86.4204 156.366 86.1791 156.516 85.9004C156.666 85.6218 156.778 85.3156 156.858 84.9834H157.684C157.592 85.3853 157.453 85.7665 157.276 86.1309C157.1 86.4898 156.864 86.8058 156.574 87.0791C156.285 87.3524 155.931 87.5672 155.519 87.7227C155.101 87.8834 154.618 87.958 154.061 87.958C153.418 87.958 152.866 87.8403 152.41 87.6045C151.955 87.3687 151.579 87.0473 151.29 86.6455C151.001 86.2436 150.792 85.7766 150.658 85.2461C150.524 84.7157 150.46 84.1533 150.46 83.5586C150.46 82.7604 150.556 82.085 150.754 81.5225C150.952 80.9651 151.226 80.509 151.574 80.1553C151.922 79.8017 152.335 79.5504 152.807 79.3896C153.278 79.2289 153.793 79.1533 154.351 79.1533ZM189.573 84.5869C189.573 85.6799 189.305 86.5155 188.764 87.0889C188.228 87.6676 187.413 87.9521 186.331 87.9521C185.249 87.9521 184.423 87.6576 183.893 87.0684C183.357 86.4789 183.089 85.6528 183.089 84.5811V79.373H183.882V84.3564C183.882 85.396 184.075 86.1412 184.461 86.5967C184.847 87.0519 185.474 87.2822 186.331 87.2822C186.781 87.2822 187.162 87.2228 187.473 87.0996C187.789 86.9817 188.041 86.8001 188.233 86.5537C188.426 86.3072 188.566 86.0069 188.651 85.6426C188.737 85.2782 188.78 84.849 188.78 84.3506V79.3672H189.573V84.5869ZM134.082 79.373C134.623 79.373 135.074 79.4383 135.422 79.5615C135.775 79.6847 136.054 79.8556 136.258 80.0752C136.461 80.2895 136.606 80.5422 136.687 80.8262C136.767 81.1099 136.81 81.4044 136.81 81.7148C136.81 82.181 136.713 82.5617 136.525 82.8672C136.338 83.1673 136.092 83.4086 135.786 83.5801C135.486 83.7516 135.143 83.8747 134.757 83.9443C134.371 84.014 133.985 84.0518 133.6 84.0518H131.81V87.7441H131.017L131.027 87.7383V79.373H134.082ZM106.698 87.0635H111.179V87.7383H105.905V79.373H106.698V87.0635ZM120.718 80.0488H115.942V83.0654H120.257V83.7412H115.942V87.0635H120.835V87.7383H115.155V79.373H120.718V80.0488ZM146.516 80.0488H141.741V83.0654H146.049V83.7412H141.741V87.0635H146.634V87.7383H140.947V79.373H146.516V80.0488ZM162.796 82.9639H167.742V79.373H168.535V87.7383H167.742V83.6387H162.796V87.7383H162.003V79.373H162.796V82.9639ZM178.76 80.0488H173.979V83.0654H178.293V83.7412H173.979V87.0635H178.872V87.7383H173.191V79.373H178.76V80.0488ZM197.521 79.373C198.442 79.3731 199.149 79.5449 199.637 79.8877C200.124 80.2307 200.371 80.7938 200.371 81.5654C200.371 82.0905 200.264 82.5086 200.05 82.8193C199.835 83.1302 199.492 83.3931 199.01 83.6074C199.256 83.6932 199.45 83.8158 199.589 83.9766C199.728 84.1373 199.835 84.3252 199.904 84.5342C199.974 84.7431 200.018 84.9626 200.039 85.1982C200.06 85.4287 200.071 85.6543 200.076 85.874C200.087 86.1899 200.098 86.4523 200.119 86.6611C200.141 86.8701 200.162 87.0423 200.188 87.1709C200.215 87.3048 200.248 87.4069 200.285 87.4766C200.323 87.5514 200.371 87.6047 200.425 87.6475V87.7168L199.551 87.7275C199.465 87.5883 199.407 87.3956 199.369 87.1494C199.332 86.9029 199.304 86.64 199.288 86.3721C199.267 86.0988 199.251 85.8358 199.24 85.584C199.23 85.327 199.208 85.1177 199.176 84.957C199.128 84.7322 199.053 84.5553 198.951 84.416C198.844 84.2821 198.721 84.18 198.576 84.1104C198.426 84.0407 198.265 83.9931 198.083 83.9717C197.901 83.9503 197.713 83.9395 197.521 83.9395H195.033V87.7383L194.246 87.7275V79.373H197.521ZM131.81 83.3711H133.627C133.996 83.3711 134.334 83.3499 134.623 83.3018C134.918 83.2536 135.169 83.1675 135.373 83.0391C135.577 82.9104 135.738 82.7387 135.851 82.5137C135.963 82.2941 136.021 82.0048 136.021 81.6514C136.021 81.1262 135.85 80.724 135.502 80.4561C135.159 80.1828 134.607 80.0489 133.857 80.0488H131.81V83.3711ZM195.039 83.2695H197.504L197.499 83.2637C197.794 83.2636 198.067 83.2318 198.318 83.1729C198.57 83.1139 198.79 83.0119 198.978 82.8779C199.165 82.744 199.31 82.5669 199.417 82.3633C199.524 82.1544 199.578 81.9029 199.578 81.6084C199.578 81.2977 199.519 81.0401 199.412 80.8418C199.3 80.6382 199.149 80.4831 198.956 80.3652C198.768 80.2473 198.549 80.1664 198.308 80.1182C198.061 80.07 197.809 80.0488 197.547 80.0488H195.039V83.2695ZM127.453 32.2422C127.801 31.91 128.358 31.9204 128.69 32.2686L135.716 39.6367C137.554 41.5658 137.586 44.6635 135.786 46.5498L135.713 46.626L140.922 52.0879C162.045 28.4957 185.93 48.3291 185.973 52.7451C186.014 57.1641 163.871 78.1453 140.968 54.3428L135.387 60.3281L140.085 64.9629C132.647 73.7781 123.381 74.1585 121.431 73.8584C121.083 73.8047 120.906 73.4139 121.142 73.1406C124.652 69.0947 134.137 59.0947 134.137 59.0947L134.139 59.0967L139.597 53.2432L134.502 47.8994L134.328 48.083C133.46 48.9939 132.291 49.4971 131.043 49.4971L130.809 49.4912C129.612 49.4295 128.489 48.907 127.63 48.0078L120.604 40.6396C120.272 40.2914 120.283 39.7336 120.631 39.4014C120.979 39.0691 121.537 39.0795 121.869 39.4277L128.895 46.7969C129.479 47.4076 130.239 47.745 131.043 47.7451C131.847 47.7451 132.528 47.4338 133.063 46.8711L133.292 46.6309L124.008 36.8936C123.676 36.5453 123.687 35.9885 124.04 35.6562C124.388 35.324 124.946 35.3343 125.278 35.6826L134.504 45.3564L134.521 45.3389C135.684 44.1224 135.651 42.1079 134.451 40.8486L127.421 33.4795C127.089 33.1312 127.099 32.5744 127.453 32.2422ZM173.888 50.2744C172.698 50.2746 171.739 51.2822 171.739 52.5254C171.739 53.7685 172.704 54.7762 173.888 54.7764C175.077 54.7764 176.037 53.7686 176.037 52.5254C176.037 51.2821 175.077 50.2744 173.888 50.2744Z" fill="var(--fill-0, #002C41)"/>
</g>
</svg>
