<svg preserveAspectRatio="none" width="100%" height="100%" overflow="visible" style="display: block;" viewBox="0 0 307 90.9999" fill="none" xmlns="http://www.w3.org/2000/svg">
<g id="Frame 74">
<path id="Union" d="M206.493 81.1718V90.9999H100.157V81.1718H206.493ZM143.21 84.7353C142.38 84.7355 141.683 85.4268 141.683 86.2626C141.683 87.0984 142.369 87.7732 143.21 87.7734C144.051 87.7734 144.737 87.0985 144.737 86.2626C144.737 85.3945 144.041 84.7353 143.21 84.7353ZM152.609 84.7939V86.6484C152.609 87.0072 152.696 87.2268 152.792 87.3554C152.921 87.5269 153.215 87.7734 153.66 87.7734C154.057 87.7733 154.357 87.5755 154.528 87.3398C154.668 87.1469 154.7 86.8841 154.7 86.6484V84.7939H154.158V86.6484C154.158 86.7985 154.158 87.2695 153.654 87.2695C153.151 87.2692 153.151 86.7931 153.151 86.6484V84.7939H152.609ZM181.912 84.7353C181.081 84.7353 180.385 85.4266 180.385 86.2626C180.385 87.0985 181.071 87.7734 181.912 87.7734C182.212 87.7734 182.502 87.6875 182.743 87.5322C182.877 87.6232 183.091 87.7733 183.434 87.7734H183.509V87.2695H183.423C183.374 87.2694 183.225 87.2537 183.118 87.1738C183.231 87.0237 183.439 86.7555 183.439 86.2411C183.439 85.3945 182.743 84.7353 181.912 84.7353ZM191.316 84.7939V86.6484C191.316 87.0072 191.403 87.2268 191.499 87.3554C191.628 87.5269 191.922 87.7734 192.367 87.7734C192.764 87.7734 193.064 87.5755 193.235 87.3398C193.375 87.1469 193.407 86.8841 193.407 86.6484V84.7939H192.865V86.6484C192.865 86.7985 192.865 87.2692 192.362 87.2695C191.859 87.2695 191.858 86.7932 191.858 86.6484V84.7939H191.316ZM103.688 84.7997V87.7148H105.119V87.2109H104.229V84.7997H103.688ZM113.908 84.7997L112.697 87.7148H113.292L113.603 86.9589H114.647L114.958 87.7148H115.554L114.331 84.7997H113.908ZM171.912 84.7997V87.7148H172.454V84.7997H171.912ZM201.392 84.7997V87.7148H202.962V87.2109H201.933V86.5195H202.919V86.0155H201.933V85.3036H202.962V84.7997H201.392ZM162.47 84.7939V85.2978H163.012V87.7089H163.553V85.2978H164.094V84.7939H162.47ZM132.016 84.789V87.704H132.798C132.985 87.704 133.328 87.6875 133.548 87.5322C133.725 87.4089 133.913 87.1891 133.913 86.8407C133.913 86.3481 133.607 86.1877 133.414 86.1181C133.505 86.0645 133.741 85.9248 133.741 85.5605C133.741 85.3569 133.64 85.1422 133.495 85.0136C133.243 84.7886 132.916 84.789 132.595 84.789H132.016ZM181.328 86.788C181.607 86.7881 181.901 86.8791 182.309 87.1845C182.234 87.2167 182.11 87.2694 181.912 87.2695H181.891C181.671 87.2695 181.312 87.1522 181.098 86.8202C181.127 86.8095 181.156 86.7996 181.192 86.7929L181.328 86.788ZM143.21 85.2392C143.756 85.2392 144.196 85.6996 144.196 86.2568C144.196 86.7926 143.767 87.2646 143.21 87.2646C142.653 87.2644 142.225 86.8193 142.225 86.2568C142.225 85.6944 142.664 85.2394 143.21 85.2392ZM132.847 86.4335C133.318 86.4337 133.377 86.7073 133.377 86.8251C133.377 87.2052 132.944 87.206 132.836 87.206H132.562V86.4335H132.847ZM181.912 85.2392C182.443 85.2392 182.898 85.6728 182.898 86.2568C182.898 86.6102 182.769 86.7551 182.694 86.8622H182.684C182.672 86.8451 182.091 86.2734 181.333 86.2734H181.253C181.092 86.2734 181.007 86.2944 180.932 86.3105C180.926 86.2944 180.926 86.2784 180.926 86.2197C180.947 85.7534 181.307 85.2392 181.912 85.2392ZM114.117 85.5546L114.449 86.4501H113.779L114.111 85.5546H114.117ZM132.782 85.2978C133.087 85.2979 133.2 85.4427 133.2 85.6142C133.2 85.9302 132.862 85.9306 132.733 85.9306H132.557V85.2978H132.782ZM136.694 56.5253C137.927 56.5253 138.543 57.0936 138.543 58.2294C138.543 58.8618 138.345 59.6069 137.948 60.4697C137.552 61.3324 137.065 62.1261 136.48 62.8495C136.336 63.037 136.174 63.1327 135.981 63.1327C135.789 63.1327 135.623 63.0738 135.473 62.956C135.323 62.8381 135.248 62.6616 135.248 62.4208C135.248 62.3083 135.302 62.2004 135.414 62.0878C135.885 61.6324 136.325 61.0002 136.727 60.1913C137.128 59.3875 137.332 58.744 137.332 58.2724C137.332 58.0528 137.279 57.8922 137.166 57.7958C137.053 57.6994 136.951 57.6562 136.86 57.6562C136.324 57.6563 135.59 57.8819 134.658 58.332C133.726 58.7821 132.739 59.3928 131.705 60.1591C130.671 60.9253 129.69 61.7609 128.769 62.6718C127.841 63.5774 127.081 64.559 126.48 65.6093C125.88 66.6594 125.58 67.6183 125.58 68.4863C125.58 69.29 125.875 69.8904 126.459 70.2763C127.043 70.6621 127.815 70.8554 128.779 70.8554C130.135 70.8554 131.759 70.4586 133.635 69.6601C135.516 68.8616 137.274 67.854 138.919 66.6376C138.926 66.6405 138.933 66.645 138.94 66.6484C139.219 66.4243 139.542 66.1634 139.903 65.8681C140.348 65.5037 140.724 65.1976 141.04 64.9404C141.211 64.56 141.41 64.3887 141.635 64.4208C141.822 64.453 141.988 64.5331 142.122 64.6562C142.256 64.7847 142.326 64.9243 142.326 65.0849C142.326 65.3367 142.192 65.6905 141.924 66.1513C141.843 66.296 141.699 66.5373 141.484 66.8857C141.27 67.2336 141.142 67.4428 141.094 67.5234C142.165 66.5749 143.559 65.7605 145.263 65.0693C146.967 64.3834 148.462 64.148 149.742 64.373C149.962 64.4051 150.01 64.5228 149.882 64.7265C149.791 64.9031 149.619 64.9946 149.384 65.0107C148.087 65.0428 146.618 65.4387 144.979 66.205C143.333 66.9713 141.94 67.9308 140.782 69.0829C140.579 69.2865 140.375 69.5383 140.177 69.8437C139.979 70.1435 139.872 70.3044 139.855 70.3154C139.604 70.6315 139.351 70.7816 139.1 70.7655C138.987 70.7655 138.864 70.7119 138.72 70.5995C138.564 70.4709 138.489 70.3316 138.505 70.1708C138.521 69.8707 139.1 68.7666 140.236 66.8534C139.508 67.4536 138.923 67.9039 138.483 68.204L138.401 68.2577C138.358 68.282 138.314 68.3001 138.271 68.3163C137.009 69.2217 135.545 70.0438 133.887 70.7695C132 71.6001 130.232 72.0126 128.592 72.0126L128.134 72.0107C127.075 71.9497 126.184 71.6749 125.457 71.1825C124.626 70.6199 124.214 69.7403 124.214 68.54C124.214 67.4361 124.562 66.2783 125.253 65.0673C125.95 63.8617 126.818 62.7686 127.857 61.788C128.897 60.8073 129.996 59.9121 131.153 59.0976C132.305 58.2831 133.383 57.6512 134.385 57.2011C135.387 56.751 136.158 56.5254 136.694 56.5253ZM176.098 58.3788C176.21 58.3788 176.317 58.4326 176.43 58.5448C176.542 58.6573 176.596 58.7757 176.596 58.9042C176.596 59.0489 176.537 59.2256 176.419 59.4345C176.301 59.6488 176.109 59.9069 175.841 60.2177C175.573 60.5284 175.31 60.8121 175.059 61.0693C174.807 61.3318 174.453 61.6753 173.992 62.1093C173.537 62.5434 173.161 62.8916 172.866 63.1542C172.572 63.4167 172.148 63.8022 171.586 64.3163C171.029 64.8306 170.616 65.1957 170.364 65.4208C169.861 66.0531 169.431 66.7228 169.083 67.4355C168.735 68.1482 168.563 68.7486 168.563 69.2363C168.563 69.4881 168.638 69.6868 168.788 69.8261C168.938 69.9707 169.131 70.04 169.367 70.04C169.871 70.0399 170.53 69.8364 171.334 69.4345C172.138 69.0326 172.797 68.6578 173.301 68.3095C173.732 68.011 174.316 67.5889 175.052 67.0497C175.177 66.8662 175.317 66.6776 175.477 66.4882C176.259 65.5666 177.17 64.8003 178.215 64.1894C179.254 63.5838 180.145 63.2782 180.868 63.2782C181.184 63.2783 181.43 63.3647 181.612 63.5253C181.794 63.6913 181.886 63.8785 181.886 64.082C181.886 64.7786 181.302 65.5291 180.134 66.3329C178.966 67.1368 177.497 67.8549 175.729 68.4872C175.648 68.5998 175.61 68.7499 175.61 68.9374C175.61 69.2214 175.707 69.4574 175.905 69.6503C176.104 69.8379 176.404 69.9345 176.816 69.9345C178.617 69.9345 180.884 68.8789 183.617 66.7568C183.756 66.9924 183.831 67.2173 183.831 67.4208C183.831 67.6727 183.713 67.887 183.478 68.0585C180.916 70.0038 178.66 70.9736 176.698 70.9736C175.97 70.9735 175.412 70.792 175.016 70.4277C174.619 70.0633 174.405 69.6075 174.373 69.0556L174.369 68.912C174.369 68.8686 174.37 68.825 174.373 68.7812C173.773 69.2125 173.091 69.6415 172.33 70.0673C171.114 70.7477 170.079 71.0849 169.228 71.0849C168.724 71.0849 168.296 70.9347 167.947 70.6347C167.599 70.3346 167.427 69.9167 167.427 69.3808L167.438 69.1542C167.49 68.6278 167.722 67.9492 168.14 67.1191C167.647 67.5478 167.239 67.8646 166.907 68.0683C166.623 68.2557 166.371 68.3524 166.146 68.3525C165.959 68.3525 165.809 68.2392 165.696 68.0195C165.632 67.9231 165.648 67.8371 165.744 67.7568L166.194 67.4032C167.411 66.4708 168.397 65.6835 169.158 65.0351C170.943 62.8379 172.309 61.2781 173.258 60.3456C174.603 59.033 175.546 58.3789 176.098 58.3788ZM154.749 63.7333C155.017 63.7334 155.253 63.8089 155.451 63.9589C155.649 64.1089 155.745 64.3024 155.745 64.538C155.745 65.3579 154.137 66.4992 150.912 67.9511C150.848 68.0635 150.815 68.1707 150.815 68.2831C150.815 69.087 151.383 69.4941 152.52 69.4941C153.452 69.494 154.507 69.2428 155.691 68.7499C156.809 68.2794 157.864 67.6632 158.854 66.9062C159.504 66.091 160.257 65.4027 161.114 64.8329C162.009 64.2382 162.76 63.9433 163.376 63.9433C163.66 63.9433 163.88 63.9854 164.041 64.0605C164.373 64.1998 164.646 64.4197 164.871 64.7089C165.091 65.0036 165.192 65.3205 165.182 65.6689C165.149 66.7566 164.459 67.8821 163.108 69.0341C161.758 70.1862 160.466 70.7646 159.233 70.7646C158.837 70.7645 158.5 70.6198 158.216 70.3359C157.916 70.0679 157.766 69.7142 157.766 69.2695L157.764 69.1523C157.771 69.0391 157.789 68.923 157.816 68.8036C157.135 69.2207 156.4 69.5903 155.611 69.912C154.384 70.4104 153.275 70.6572 152.283 70.6572L151.982 70.6435C151.281 70.6024 150.687 70.4169 150.204 70.0839C149.652 69.7034 149.374 69.1515 149.374 68.4228C149.374 67.3349 149.974 66.2789 151.175 65.2607C152.375 64.2427 153.565 63.7333 154.749 63.7333ZM163.376 64.9882C163.06 64.9883 162.604 65.1384 162.004 65.4384C161.404 65.7384 160.868 66.1239 160.392 66.6005C160.295 66.6969 160.225 66.8472 160.177 67.0614C160.129 67.2758 160.026 67.4794 159.871 67.6669C159.287 68.4117 158.998 68.9587 158.998 69.3017L158.999 69.4072C159.03 69.637 159.167 69.7519 159.416 69.7519C160.204 69.7519 161.196 69.2481 162.38 68.2353C163.564 67.2227 164.158 66.3546 164.158 65.6259C164.158 65.1972 163.896 64.9882 163.376 64.9882ZM180.696 64.2695C180.048 64.3338 179.255 64.683 178.317 65.3261C177.38 65.9638 176.645 66.6495 176.125 67.373L176.52 67.2079C177.429 66.8035 178.274 66.3445 179.062 65.8241C179.962 65.2293 180.509 64.7142 180.696 64.2695ZM154.292 64.8046C153.818 64.8515 153.275 65.0623 152.67 65.4325C151.973 65.8613 151.474 66.3115 151.18 66.7831C152.728 65.9632 153.833 65.2981 154.497 64.789L154.292 64.8046ZM159.706 56.58C160.07 56.5801 160.295 56.7513 160.392 57.0995L160.408 57.1835C160.412 57.2189 160.413 57.2604 160.413 57.3085C160.413 57.705 159.941 58.2782 158.993 59.039C158.045 59.7945 157.01 60.4862 155.891 61.1025C155.671 61.2148 155.521 61.2683 155.44 61.2685C155.237 61.2685 155.135 61.1669 155.135 60.9579C155.135 60.8775 155.173 60.802 155.253 60.7216C156.217 59.9178 157.3 58.8512 158.5 57.5224C158.532 57.4902 158.591 57.4258 158.677 57.3349C158.762 57.2386 158.821 57.1746 158.854 57.1318C158.886 57.0943 158.934 57.0299 159.009 56.955C159.078 56.8748 159.137 56.8212 159.186 56.789C159.234 56.7569 159.287 56.7243 159.352 56.6816C159.416 56.6441 159.476 56.6176 159.529 56.6015C159.583 56.5855 159.642 56.58 159.706 56.58ZM154.508 47.1532C154.931 47.1533 155.333 47.2121 155.697 47.3193C156.067 47.4318 156.389 47.5981 156.673 47.8232C156.957 48.0482 157.187 48.3221 157.369 48.6542C157.551 48.981 157.679 49.3668 157.749 49.8007H156.935C156.774 49.088 156.469 48.5783 156.029 48.2782C155.59 47.9783 155.011 47.8232 154.299 47.8232C153.795 47.8232 153.36 47.9247 152.996 48.123C152.632 48.3266 152.331 48.5946 152.096 48.9374C151.86 49.2804 151.683 49.6723 151.57 50.1171C151.458 50.5618 151.404 51.0334 151.404 51.5263C151.404 51.9925 151.452 52.4482 151.549 52.8984C151.645 53.3484 151.806 53.7503 152.031 54.0986C152.256 54.4522 152.557 54.7358 152.938 54.9501C153.318 55.1645 153.795 55.2773 154.368 55.2773C154.722 55.2773 155.049 55.2189 155.344 55.1064C155.638 54.9885 155.896 54.8275 156.115 54.6239C156.335 54.4203 156.523 54.179 156.673 53.9003C156.823 53.6217 156.935 53.3155 157.016 52.9833H157.841C157.75 53.3852 157.61 53.7664 157.434 54.1308C157.257 54.4898 157.021 54.8058 156.731 55.079C156.442 55.3523 156.088 55.5672 155.676 55.7226C155.258 55.8833 154.775 55.9579 154.218 55.9579C153.575 55.9579 153.023 55.8402 152.567 55.6044C152.112 55.3687 151.737 55.0473 151.447 54.6454C151.158 54.2435 150.949 53.7765 150.815 53.246C150.682 52.7156 150.617 52.1532 150.617 51.5585C150.617 50.7603 150.713 50.085 150.911 49.5224C151.109 48.9651 151.383 48.5089 151.731 48.1552C152.08 47.8016 152.492 47.5503 152.964 47.3896C153.435 47.2288 153.95 47.1532 154.508 47.1532ZM189.73 52.5868C189.73 53.6798 189.462 54.5154 188.921 55.0888C188.385 55.6675 187.571 55.952 186.488 55.9521C185.406 55.9521 184.58 55.6576 184.05 55.0683C183.514 54.4788 183.246 53.6528 183.246 52.581V47.373H184.039V52.3564C184.039 53.3959 184.232 54.1411 184.618 54.5966C185.004 55.0518 185.631 55.2822 186.488 55.2822C186.938 55.2821 187.319 55.2228 187.63 55.0995C187.946 54.9816 188.198 54.8 188.391 54.5536C188.584 54.3071 188.723 54.0069 188.809 53.6425C188.894 53.2781 188.938 52.8489 188.938 52.3505V47.3671H189.73V52.5868ZM134.239 47.373C134.781 47.373 135.231 47.4382 135.579 47.5614C135.933 47.6847 136.211 47.8555 136.415 48.0751C136.619 48.2895 136.763 48.5421 136.844 48.8261C136.924 49.1098 136.967 49.4043 136.967 49.7148C136.967 50.181 136.87 50.5617 136.683 50.8671C136.495 51.1672 136.249 51.4085 135.943 51.58C135.643 51.7515 135.3 51.8746 134.914 51.9443C134.528 52.0139 134.143 52.0517 133.757 52.0517H131.967V55.7441H131.174L131.185 55.7382V47.373H134.239ZM106.855 55.0634H111.336V55.7382H106.062V47.373H106.855V55.0634ZM120.875 48.0488H116.1V51.0654H120.414V51.7411H116.1V55.0634H120.992V55.7382H115.312V47.373H120.875V48.0488ZM146.673 48.0488H141.898V51.0654H146.206V51.7411H141.898V55.0634H146.791V55.7382H141.104V47.373H146.673V48.0488ZM162.953 50.9638H167.899V47.373H168.692V55.7382H167.899V51.6386H162.953V55.7382H162.16V47.373H162.953V50.9638ZM178.917 48.0488H174.137V51.0654H178.45V51.7411H174.137V55.0634H179.029V55.7382H173.349V47.373H178.917V48.0488ZM197.678 47.373C198.599 47.373 199.306 47.5448 199.794 47.8876C200.282 48.2306 200.528 48.7937 200.528 49.5654C200.528 50.0904 200.421 50.5085 200.207 50.8193C199.993 51.1301 199.649 51.393 199.167 51.6073C199.413 51.6931 199.607 51.8157 199.746 51.9765C199.885 52.1372 199.992 52.3251 200.062 52.5341C200.131 52.743 200.175 52.9625 200.196 53.1982C200.218 53.4286 200.228 53.6542 200.233 53.8739C200.244 54.1898 200.255 54.4522 200.276 54.6611C200.298 54.8701 200.319 55.0422 200.346 55.1708C200.372 55.3047 200.405 55.4069 200.442 55.4765C200.48 55.5513 200.529 55.6046 200.582 55.6474V55.7167L199.708 55.7275C199.622 55.5882 199.564 55.3955 199.526 55.1493C199.489 54.9028 199.461 54.6399 199.445 54.372C199.424 54.0987 199.408 53.8357 199.397 53.5839C199.387 53.3269 199.365 53.1176 199.333 52.957C199.285 52.7321 199.21 52.5552 199.108 52.4159C199.001 52.282 198.878 52.1799 198.733 52.1103C198.583 52.0407 198.422 51.9931 198.24 51.9716C198.058 51.9502 197.87 51.9394 197.678 51.9394H195.19V55.7382L194.403 55.7275V47.373H197.678ZM131.967 51.371H133.784C134.154 51.371 134.491 51.3499 134.78 51.3017C135.075 51.2535 135.327 51.1675 135.53 51.039C135.734 50.9104 135.895 50.7387 136.008 50.5136C136.12 50.294 136.179 50.0047 136.179 49.6513C136.179 49.1261 136.008 48.7239 135.659 48.456C135.316 48.1828 134.765 48.0488 134.015 48.0488H131.967V51.371ZM195.196 51.2695H197.661L197.656 51.2636C197.951 51.2636 198.224 51.2317 198.476 51.1728C198.727 51.1138 198.947 51.0118 199.135 50.8779C199.322 50.7439 199.467 50.5668 199.574 50.3632C199.681 50.1543 199.735 49.9028 199.735 49.6083C199.735 49.2976 199.676 49.04 199.569 48.8417C199.457 48.6381 199.306 48.483 199.113 48.3652C198.926 48.2473 198.706 48.1663 198.465 48.1181C198.218 48.0699 197.967 48.0488 197.704 48.0488H195.196V51.2695ZM127.61 0.242111C127.959 -0.090068 128.515 -0.079631 128.848 0.268478L135.873 7.63664C137.711 9.56575 137.744 12.6634 135.943 14.5497L135.87 14.6259L141.079 20.0878C162.202 -3.50441 186.088 16.329 186.13 20.745C186.171 25.1641 164.028 46.1452 141.125 22.3427L135.544 28.328L140.242 32.9628C132.804 41.778 123.539 42.1584 121.588 41.8583C121.24 41.8046 121.063 41.4138 121.299 41.1405C124.809 37.0946 134.294 27.0947 134.294 27.0947L134.296 27.0966L139.754 21.2431L134.659 15.8993L134.485 16.0829C133.617 16.9938 132.449 17.497 131.2 17.497L130.966 17.4911C129.769 17.4294 128.646 16.907 127.787 16.0077L120.762 8.63957C120.43 8.29128 120.44 7.73355 120.788 7.40129C121.136 7.06907 121.694 7.07942 122.026 7.42766L129.052 14.7968C129.636 15.4075 130.397 15.7449 131.2 15.745C132.004 15.745 132.685 15.4337 133.221 14.871L133.449 14.6308L124.165 4.89348C123.833 4.54523 123.844 3.98838 124.197 3.65617C124.546 3.32392 125.103 3.33421 125.436 3.68254L134.661 13.3564L134.679 13.3388C135.841 12.1223 135.809 10.1078 134.608 8.84856L127.578 1.47942C127.246 1.13109 127.257 0.574347 127.61 0.242111ZM174.045 18.2743C172.855 18.2745 171.896 19.2822 171.896 20.5253C171.897 21.7684 172.861 22.7761 174.045 22.7763C175.235 22.7763 176.194 21.7685 176.194 20.5253C176.194 19.2821 175.235 18.2743 174.045 18.2743Z" fill="var(--fill-0, white)"/>
</g>
</svg>
