<svg preserveAspectRatio="none" width="100%" height="100%" overflow="visible" style="display: block;" viewBox="0 0 307 155" fill="none" xmlns="http://www.w3.org/2000/svg">
<g id="Frame 74">
<path id="Union" d="M119.31 114.777C119.31 117.163 120.678 118.481 123.063 118.481C125.449 118.481 126.584 117.18 126.584 114.777V106.136H128.386V114.777C128.386 118.197 126.433 120 123.063 120C119.694 120 117.508 118.381 117.508 114.777V106.136H119.31V114.777ZM181.086 105.802C184.056 105.802 186.575 107.554 186.926 110.674H184.039C183.856 109.322 182.554 108.305 181.086 108.305C178.417 108.305 177.399 110.573 177.399 112.959C177.399 115.345 178.4 117.497 181.086 117.497C182.904 117.497 183.939 116.246 184.156 114.461H187.042C186.742 117.831 184.406 119.999 181.086 119.999C176.899 119.999 174.43 116.863 174.43 112.959C174.43 109.055 176.899 105.802 181.086 105.802ZM99.373 106.136C101.909 106.136 103.494 107.521 103.494 109.689C103.494 111.324 102.776 112.659 101.142 113.126V113.159C102.71 113.46 103.043 114.627 103.177 115.945C103.294 117.28 103.21 118.748 103.978 119.683H101.976C101.458 119.132 101.742 117.68 101.475 116.346C101.291 115.011 100.958 113.894 99.2227 113.894H94.8018V119.683H93V106.136H99.373ZM115.339 107.654H107.798V111.958H114.838V113.477H107.798V118.164H115.405V119.683H105.996V106.136H115.339V107.654ZM140.296 117.113H140.329V106.136H142.031V119.683H140.062L132.989 108.822H132.956V119.683H131.254V106.136H133.173L140.296 117.113ZM147.304 119.683H144.935V106.136H147.304V119.683ZM172.846 108.639H165.688V111.541H172.245V113.86H165.688V117.18H172.996V119.683H162.719V106.136H172.846V108.639ZM200.489 119.683H197.52V106.137H200.489V119.683ZM213.235 108.639H206.078V111.541H212.635V113.86H206.078V117.18H213.386V119.683H203.108V106.136H213.235V108.639ZM156.179 106.137C160.049 106.137 160.783 108.639 160.783 110.324C160.783 112.009 160.049 114.494 156.179 114.478H152.575V119.666H150.206V106.137H156.179ZM192.031 110.726L196.985 112.626L192.031 114.481V119.666H189.062V106.119H192.031V110.726ZM152.575 112.543H156.046C157.114 112.543 158.415 112.008 158.415 110.307C158.415 108.605 157.33 108.071 156.079 108.071H152.575V112.543ZM94.8018 112.375H98.5557C100.241 112.375 101.692 111.941 101.692 109.973C101.692 108.638 100.974 107.654 99.2891 107.654H94.8018V112.375ZM115.354 104.568H106.029V103.217H115.354V104.568ZM152.023 35C169.207 35 183.187 48.9804 183.188 66.1641C183.188 83.3477 169.207 97.3281 152.023 97.3281C140.729 97.328 130.302 91.2054 124.797 81.3291L126.699 80.2617C131.821 89.4371 141.53 95.1425 152.023 95.1426C168.006 95.1426 181.02 82.1299 181.02 66.1475C181.02 50.165 168.006 37.1689 152.023 37.1689C142.014 37.1691 132.855 42.2243 127.5 50.6992L125.664 49.5312C131.403 40.439 141.263 35.0001 152.023 35ZM131.004 50.9658C131.304 50.9658 132.856 51.1996 134.808 55.7207C134.824 55.754 134.858 55.7539 134.941 55.7539C135.709 55.7537 139.746 54.9531 144.017 54.9531H145.051C148.538 55.0532 152.008 55.4036 155.395 56.1543C162.084 57.6391 168.525 60.4587 174.047 64.5127C174.08 64.5366 176.42 66.2044 177.116 67.1816C177.116 67.1816 176.315 68.8501 174.931 69.5508H175.014C175.297 69.5508 176.282 69.6013 177.316 70.252C178.033 70.6853 177.817 71.1015 177.717 71.2354C177.467 71.5857 166.372 80.5115 150.674 80.5117C149.957 80.5117 149.222 80.4953 148.488 80.4619C148.48 80.4741 146.015 84.2338 143.833 85.3164L143.333 81.7461C143.333 81.7461 140.563 84.0654 137.394 84.0654C136.977 84.0654 136.543 84.0317 136.109 83.9316C136.144 83.9065 139.386 81.5518 140.863 79.5771C140.811 79.5662 135.975 78.5586 129.77 75.3232C125.766 79.5602 123.264 80.2108 122.112 80.2109C121.621 80.2109 121.371 80.083 121.361 80.0781C121.361 80.0781 125.699 75.5567 125.916 74.5391C126.129 73.5402 125.731 73.2967 125.716 73.2881C123.48 71.87 119.959 68.7836 119.292 68.0996C119.109 67.9162 118.942 67.8496 118.809 67.8496C118.494 67.8496 118.294 68.1947 118.291 68.1992C118.291 68.1992 116.706 74.5393 113.236 79.0938H113.22C113.22 79.0938 115.589 73.1541 115.789 67.7988C115.989 62.4769 113.817 55.9614 113.804 55.9209C113.827 55.9322 116.879 57.438 118.358 65.9307C118.399 65.9006 127.393 59.2875 131.438 57.7061L131.938 57.3057C131.938 57.3057 131.838 53.2514 130.954 50.9658H131.004ZM173.296 67.1982C173.162 66.9148 171.644 66.965 169.575 67.7656C167.507 68.5664 165.021 70.6519 163.736 71.5361C163.754 71.5279 168.614 69.251 172.378 69.6006L172.211 69.2002C173.512 67.7154 173.296 67.1982 173.296 67.1982ZM159.766 64.3291C159.165 64.3291 158.682 65.0134 158.682 65.8643C158.682 66.7149 159.165 67.3984 159.766 67.3984C160.366 67.3984 160.849 66.7149 160.85 65.8643C160.85 65.0134 160.366 64.3291 159.766 64.3291ZM111.083 47.7959C111.2 47.7959 111.817 47.8965 112.602 49.6982H112.651C112.952 49.6982 114.553 49.3809 116.255 49.3809H116.672C118.057 49.4309 119.442 49.564 120.793 49.8643C123.462 50.4482 126.015 51.5664 128.217 53.1846C128.217 53.1846 129.151 53.8515 129.435 54.252C129.435 54.252 129.134 54.853 128.634 55.1533L128.584 55.0361C129.101 54.4356 129.018 54.2354 129.018 54.2354C128.967 54.1356 128.366 54.1522 127.533 54.4688C126.716 54.7857 125.731 55.6204 125.214 55.9707C125.214 55.9707 127.149 55.0698 128.65 55.2031C128.817 55.2198 129.152 55.2704 129.519 55.4873C129.802 55.6707 129.701 55.8377 129.668 55.8877C129.557 56.0296 125.14 59.5741 118.908 59.5742C118.691 59.5742 118.457 59.5576 118.224 59.5576C117.807 58.5567 117.339 57.6727 116.839 56.9053C115.738 55.2378 114.771 54.6866 114.504 54.5527C114.287 54.4526 114.053 54.4023 113.819 54.4023C113.436 54.4024 113.069 54.5359 112.785 54.7861C112.318 55.1865 112.135 55.8369 112.335 56.4375C112.352 56.4548 112.619 57.2726 112.952 58.54C112.285 58.2731 111.467 57.9388 110.583 57.4717C108.982 59.1562 107.981 59.4071 107.53 59.4072C107.33 59.4072 107.229 59.3574 107.229 59.3574C107.229 59.3574 108.964 57.556 109.048 57.1553C109.131 56.7549 108.965 56.6543 108.965 56.6543C108.081 56.0871 106.679 54.8529 106.412 54.5859C106.345 54.5192 106.279 54.4854 106.229 54.4854C106.113 54.4854 106.03 54.6157 106.028 54.6191C106.028 54.6191 105.397 57.1223 104.021 58.9395C104.135 58.6452 104.95 56.4715 105.027 54.4854C105.11 52.3594 104.251 49.7707 104.243 49.748C104.243 49.748 105.478 50.3487 106.062 53.7354C106.062 53.7354 109.648 51.0989 111.267 50.4648L111.467 50.3154C111.467 50.3154 111.417 48.6968 111.066 47.7959H111.083ZM104.01 58.9736V58.957C104.014 58.9515 104.017 58.945 104.021 58.9395C104.013 58.9616 104.01 58.9736 104.01 58.9736ZM123.646 53.0674C123.412 53.0676 123.212 53.3513 123.212 53.6846C123.212 54.0348 123.412 54.3025 123.646 54.3027C123.879 54.3027 124.079 54.0349 124.079 53.6846C124.079 53.3345 123.879 53.0674 123.646 53.0674Z" fill="var(--fill-0, #002C41)"/>
</g>
</svg>
