<svg preserveAspectRatio="none" width="100%" height="100%" overflow="visible" style="display: block;" viewBox="0 0 307 85" fill="none" xmlns="http://www.w3.org/2000/svg">
<g id="Frame 74">
<path id="Union" d="M119.31 79.7773C119.31 82.1629 120.678 83.4814 123.063 83.4814C125.449 83.4814 126.584 82.1797 126.584 79.7773V71.1357H128.386V79.7773C128.386 83.1974 126.433 85 123.063 85C119.694 84.9999 117.508 83.3808 117.508 79.7773V71.1357H119.31V79.7773ZM181.086 70.8018C184.056 70.8018 186.575 72.5541 186.926 75.6738H184.039C183.856 74.3225 182.554 73.3047 181.086 73.3047C178.417 73.3049 177.399 75.5734 177.399 77.959C177.399 80.3446 178.4 82.4969 181.086 82.4971C182.904 82.4971 183.939 81.2458 184.156 79.4609H187.042C186.742 82.8307 184.406 84.999 181.086 84.999C176.899 84.9989 174.43 81.8627 174.43 77.959C174.43 74.0552 176.899 70.8019 181.086 70.8018ZM99.373 71.1357C101.909 71.1358 103.494 72.5207 103.494 74.6895C103.494 76.3243 102.776 77.6588 101.142 78.126V78.1592C102.71 78.4595 103.043 79.6275 103.177 80.9453C103.294 82.28 103.21 83.7484 103.978 84.6826H101.976C101.458 84.1321 101.742 82.6804 101.475 81.3457C101.291 80.0112 100.958 78.8936 99.2227 78.8936H94.8018V84.6826H93V71.1357H99.373ZM115.339 72.6543H107.798V76.958H114.838V78.4766H107.798V83.1641H115.405V84.6826H105.996V71.1357H115.339V72.6543ZM140.296 82.1133H140.329V71.1357H142.031V84.6826H140.062L132.989 73.8223H132.956V84.6826H131.254V71.1357H133.173L140.296 82.1133ZM147.304 84.6826H144.935V71.1357H147.304V84.6826ZM172.846 73.6387H165.688V76.541H172.245V78.8604H165.688V82.1797H172.996V84.6826H162.719V71.1357H172.846V73.6387ZM200.489 84.6826H197.52V71.1367H200.489V84.6826ZM213.235 73.6387H206.078V76.541H212.635V78.8604H206.078V82.1797H213.386V84.6826H203.108V71.1357H213.235V73.6387ZM156.179 71.1367C160.049 71.1367 160.783 73.6392 160.783 75.3242C160.783 77.0092 160.049 79.4942 156.179 79.4775H152.575V84.666H150.206V71.1367H156.179ZM192.031 75.7256L196.985 77.626L192.031 79.4814V84.666H189.062V71.1191H192.031V75.7256ZM152.575 77.543H156.046C157.114 77.5429 158.415 77.0082 158.415 75.3066C158.415 73.6053 157.33 73.0713 156.079 73.0713H152.575V77.543ZM94.8018 77.375H98.5557C100.241 77.375 101.692 76.9412 101.692 74.9727C101.692 73.6382 100.974 72.6543 99.2891 72.6543H94.8018V77.375ZM115.354 69.5684H106.029V68.2168H115.354V69.5684ZM152.023 0C169.207 0 183.187 13.9804 183.188 31.1641C183.188 48.3477 169.207 62.3281 152.023 62.3281C140.729 62.328 130.302 56.2054 124.797 46.3291L126.699 45.2617C131.821 54.4371 141.53 60.1425 152.023 60.1426C168.006 60.1426 181.02 47.1299 181.02 31.1475C181.02 15.165 168.006 2.16895 152.023 2.16895C142.014 2.16905 132.855 7.22428 127.5 15.6992L125.664 14.5312C131.403 5.43903 141.263 0.000107977 152.023 0ZM131.004 15.9658C131.304 15.9658 132.856 16.1996 134.808 20.7207C134.824 20.754 134.858 20.7539 134.941 20.7539C135.709 20.7537 139.746 19.9531 144.017 19.9531H145.051C148.538 20.0532 152.008 20.4036 155.395 21.1543C162.084 22.6391 168.525 25.4587 174.047 29.5127C174.08 29.5366 176.42 31.2044 177.116 32.1816C177.116 32.1816 176.315 33.8501 174.931 34.5508H175.014C175.297 34.5508 176.282 34.6013 177.316 35.252C178.033 35.6853 177.817 36.1015 177.717 36.2354C177.467 36.5857 166.372 45.5115 150.674 45.5117C149.957 45.5117 149.222 45.4953 148.488 45.4619C148.48 45.4741 146.015 49.2338 143.833 50.3164L143.333 46.7461C143.333 46.7461 140.563 49.0654 137.394 49.0654C136.977 49.0654 136.543 49.0317 136.109 48.9316C136.144 48.9065 139.386 46.5518 140.863 44.5771C140.811 44.5662 135.975 43.5586 129.77 40.3232C125.766 44.5602 123.264 45.2108 122.112 45.2109C121.621 45.2109 121.371 45.083 121.361 45.0781C121.361 45.0781 125.699 40.5567 125.916 39.5391C126.129 38.5402 125.731 38.2967 125.716 38.2881C123.48 36.87 119.959 33.7836 119.292 33.0996C119.109 32.9162 118.942 32.8496 118.809 32.8496C118.494 32.8496 118.294 33.1947 118.291 33.1992C118.291 33.1992 116.706 39.5393 113.236 44.0938H113.22C113.22 44.0938 115.589 38.1541 115.789 32.7988C115.989 27.4769 113.817 20.9614 113.804 20.9209C113.827 20.9322 116.879 22.438 118.358 30.9307C118.399 30.9006 127.393 24.2875 131.438 22.7061L131.938 22.3057C131.938 22.3057 131.838 18.2514 130.954 15.9658H131.004ZM173.296 32.1982C173.162 31.9148 171.644 31.965 169.575 32.7656C167.507 33.5664 165.021 35.6519 163.736 36.5361C163.754 36.5279 168.614 34.251 172.378 34.6006L172.211 34.2002C173.512 32.7154 173.296 32.1982 173.296 32.1982ZM159.766 29.3291C159.165 29.3291 158.682 30.0134 158.682 30.8643C158.682 31.7149 159.165 32.3984 159.766 32.3984C160.366 32.3984 160.849 31.7149 160.85 30.8643C160.85 30.0134 160.366 29.3291 159.766 29.3291ZM111.083 12.7959C111.2 12.7959 111.817 12.8965 112.602 14.6982H112.651C112.952 14.6982 114.553 14.3809 116.255 14.3809H116.672C118.057 14.4309 119.442 14.564 120.793 14.8643C123.462 15.4482 126.015 16.5664 128.217 18.1846C128.217 18.1846 129.151 18.8515 129.435 19.252C129.435 19.252 129.134 19.853 128.634 20.1533L128.584 20.0361C129.101 19.4356 129.018 19.2354 129.018 19.2354C128.967 19.1356 128.366 19.1522 127.533 19.4688C126.716 19.7857 125.731 20.6204 125.214 20.9707C125.214 20.9707 127.149 20.0698 128.65 20.2031C128.817 20.2198 129.152 20.2704 129.519 20.4873C129.802 20.6707 129.701 20.8377 129.668 20.8877C129.557 21.0296 125.14 24.5741 118.908 24.5742C118.691 24.5742 118.457 24.5576 118.224 24.5576C117.807 23.5567 117.339 22.6727 116.839 21.9053C115.738 20.2378 114.771 19.6866 114.504 19.5527C114.287 19.4526 114.053 19.4023 113.819 19.4023C113.436 19.4024 113.069 19.5359 112.785 19.7861C112.318 20.1865 112.135 20.8369 112.335 21.4375C112.352 21.4548 112.619 22.2726 112.952 23.54C112.285 23.2731 111.467 22.9388 110.583 22.4717C108.982 24.1562 107.981 24.4071 107.53 24.4072C107.33 24.4072 107.229 24.3574 107.229 24.3574C107.229 24.3574 108.964 22.556 109.048 22.1553C109.131 21.7549 108.965 21.6543 108.965 21.6543C108.081 21.0871 106.679 19.8529 106.412 19.5859C106.345 19.5192 106.279 19.4854 106.229 19.4854C106.113 19.4854 106.03 19.6157 106.028 19.6191C106.028 19.6191 105.397 22.1223 104.021 23.9395C104.135 23.6452 104.95 21.4715 105.027 19.4854C105.11 17.3594 104.251 14.7707 104.243 14.748C104.243 14.748 105.478 15.3487 106.062 18.7354C106.062 18.7354 109.648 16.0989 111.267 15.4648L111.467 15.3154C111.467 15.3154 111.417 13.6968 111.066 12.7959H111.083ZM104.01 23.9736V23.957C104.014 23.9515 104.017 23.945 104.021 23.9395C104.013 23.9616 104.01 23.9736 104.01 23.9736ZM123.646 18.0674C123.412 18.0676 123.212 18.3513 123.212 18.6846C123.212 19.0348 123.412 19.3025 123.646 19.3027C123.879 19.3027 124.079 19.0349 124.079 18.6846C124.079 18.3345 123.879 18.0674 123.646 18.0674Z" fill="var(--fill-0, white)"/>
</g>
</svg>
