<svg preserveAspectRatio="none" width="100%" height="100%" overflow="visible" style="display: block;" viewBox="0 0 307 90.8848" fill="none" xmlns="http://www.w3.org/2000/svg">
<g id="Frame 74">
<path id="Union" d="M155.517 87.0713C155.517 87.965 155.755 88.6408 156.231 89.0977C156.708 89.5544 157.403 89.7929 158.297 89.793C159.151 89.793 159.786 89.5543 160.243 89.0977C160.68 88.6408 160.919 87.965 160.919 87.0713V80.7158H162.249V87.0713C162.249 88.3424 161.912 89.2961 161.217 89.9316C160.542 90.5672 159.568 90.8848 158.297 90.8848C157.026 90.8847 155.993 90.5872 155.278 89.9717C154.543 89.356 154.186 88.402 154.186 87.0713V80.7158H155.517V87.0713ZM116.688 80.4766C117.204 80.4766 117.7 80.5368 118.177 80.6758C118.653 80.8148 119.071 81.013 119.429 81.291C119.786 81.569 120.104 81.8869 120.342 82.3037C120.58 82.7009 120.739 83.178 120.818 83.6943H119.488C119.329 82.9794 119.011 82.463 118.495 82.1055L118.277 82C117.808 81.7263 117.273 81.5889 116.647 81.5889C116.052 81.5889 115.535 81.7083 115.118 81.9268C114.701 82.1452 114.343 82.443 114.065 82.8203C113.787 83.1976 113.589 83.6348 113.45 84.1113C113.311 84.588 113.252 85.1047 113.252 85.6211C113.252 86.1969 113.311 86.7331 113.45 87.2295C113.589 87.726 113.787 88.1832 114.065 88.5605C114.343 88.9378 114.701 89.2356 115.118 89.4541C115.555 89.6726 116.072 89.792 116.668 89.792C117.105 89.792 117.502 89.7122 117.84 89.5732C118.177 89.4342 118.476 89.2357 118.714 88.9775C118.952 88.7194 119.15 88.4209 119.289 88.0635C119.428 87.7061 119.508 87.329 119.548 86.9121H120.878C120.739 88.1632 120.322 89.136 119.567 89.8311C118.813 90.5262 117.819 90.8838 116.528 90.8838C115.754 90.8837 115.079 90.7454 114.503 90.4873C113.927 90.2291 113.45 89.8513 113.053 89.3945C112.675 88.9378 112.378 88.3816 112.199 87.7461C112.001 87.1107 111.921 86.4355 111.921 85.7207C111.921 85.0058 112.02 84.3103 112.238 83.6748C112.437 83.0392 112.755 82.4825 113.152 82.0059C113.55 81.5293 114.046 81.1517 114.642 80.8936C115.237 80.6155 115.913 80.4766 116.688 80.4766ZM167.771 80.458C168.288 80.458 168.764 80.5176 169.201 80.6367C169.638 80.7559 170.035 80.9548 170.353 81.2129C170.67 81.471 170.949 81.8083 171.147 82.1855C171.346 82.5827 171.445 83.0596 171.465 83.5957H170.194C170.115 82.881 169.857 82.3646 169.42 82.0469L169.229 81.9551C168.817 81.7117 168.3 81.5898 167.691 81.5898C167.413 81.5899 167.135 81.6104 166.857 81.6699C166.58 81.7295 166.341 81.8282 166.143 81.9473C165.924 82.0863 165.765 82.2454 165.646 82.4639C165.526 82.6823 165.447 82.9606 165.447 83.2783C165.447 83.5762 165.547 83.8346 165.726 84.0332C165.904 84.2317 166.142 84.3711 166.46 84.4902C166.758 84.6094 167.116 84.7086 167.493 84.7881C167.87 84.8675 168.268 84.9466 168.665 85.0459C169.062 85.1452 169.46 85.2441 169.837 85.3633C170.214 85.4824 170.571 85.6615 170.869 85.8799C171.167 86.0984 171.426 86.3567 171.604 86.6943C171.783 87.0121 171.882 87.4293 171.882 87.9258C171.882 88.462 171.763 88.899 171.524 89.2764C171.286 89.6536 170.989 89.9521 170.611 90.1904C170.234 90.4287 169.817 90.6067 169.36 90.7061C168.904 90.8054 168.427 90.8652 167.97 90.8652C167.414 90.8652 166.877 90.8054 166.381 90.6465C165.885 90.5075 165.448 90.2896 165.07 90.0117C164.693 89.7337 164.394 89.3559 164.176 88.9189C163.957 88.482 163.839 87.9653 163.839 87.3496H165.109C165.109 87.7665 165.189 88.1241 165.348 88.4219C165.506 88.7196 165.725 88.9782 166.003 89.1768C166.261 89.3753 166.579 89.515 166.937 89.6143C167.294 89.7136 167.652 89.7529 168.029 89.7529C168.327 89.7529 168.625 89.7333 168.942 89.6738C169.24 89.6143 169.519 89.5146 169.757 89.3955C169.995 89.2566 170.194 89.0779 170.353 88.8398C170.511 88.6015 170.571 88.3028 170.571 87.9453C170.571 87.6078 170.472 87.3297 170.293 87.1113C170.114 86.893 169.876 86.7138 169.559 86.5947C169.261 86.4557 168.903 86.3568 168.525 86.2773C168.148 86.1979 167.751 86.099 167.354 86.0195C166.957 85.9401 166.56 85.8209 166.183 85.7217C165.805 85.6025 165.447 85.4434 165.149 85.2646C164.851 85.066 164.593 84.8272 164.414 84.5293C164.235 84.2314 164.137 83.8541 164.137 83.3975C164.137 82.9011 164.236 82.4642 164.454 82.0869C164.653 81.7294 164.931 81.4112 165.269 81.1729C165.606 80.9345 166.004 80.7559 166.44 80.6367C166.877 80.5176 167.315 80.458 167.771 80.458ZM110.749 81.8486H105.168V85.0068H110.371V86.1191H105.168V89.5547H110.789V90.667H103.837V80.7363H110.749V81.8486ZM99.1299 80.7158C100.143 80.7158 100.897 80.9739 101.434 81.4902C101.95 82.0066 102.208 82.7218 102.208 83.6553C102.208 84.5886 101.95 85.304 101.434 85.8203C100.917 86.3365 100.143 86.5947 99.1299 86.5947H96.0713V90.666H94.7402V80.7158H99.1299ZM153.271 90.666H151.802L150.71 87.667H146.479L145.347 90.666H143.977L147.869 80.7158H149.359L153.271 90.666ZM199.271 90.666H197.801L196.709 87.667H192.479L191.346 90.666H189.976L193.868 80.7158H195.358L199.271 90.666ZM123.877 84.9854H129.16V80.7158H130.491V90.6465H129.16V86.0977H123.877V90.6465H122.546V80.7158H123.877V84.9854ZM139.588 81.8281H134.007V84.9854H139.21V86.0977H134.007V89.5342H139.647V90.6465H132.676V80.7158H139.588V81.8281ZM180.422 81.8281H177.086V90.6465H175.735V81.8281H172.398V80.7158H180.422V81.8281ZM186.241 80.7158C187.194 80.7158 187.949 80.9544 188.485 81.4111C189.022 81.8679 189.3 82.5033 189.3 83.3174C189.3 83.9131 189.161 84.4495 188.883 84.9062C188.605 85.3631 188.167 85.681 187.552 85.8398C187.85 85.9193 188.089 86.0185 188.268 86.1377C188.446 86.2767 188.585 86.416 188.704 86.5947C188.803 86.7735 188.883 86.9726 188.942 87.2109C189.002 87.4292 189.042 87.6672 189.062 87.9053C189.062 88.1436 189.102 88.4023 189.102 88.6406C189.102 88.8788 189.141 89.1368 189.181 89.375C189.22 89.6133 189.28 89.8519 189.34 90.0703C189.419 90.2887 189.518 90.4876 189.657 90.6465H188.168C188.069 90.5472 188.008 90.4082 187.969 90.2295C187.929 90.0508 187.909 89.8522 187.909 89.6338C187.909 89.4153 187.91 89.1768 187.89 88.9385C187.89 88.6805 187.85 88.4423 187.811 88.2041C187.771 87.9658 187.73 87.7272 187.671 87.5088C187.611 87.2904 187.532 87.0915 187.413 86.9326C187.294 86.7737 187.135 86.6345 186.937 86.5352C186.738 86.4359 186.479 86.3965 186.142 86.3965H182.885V90.6465H181.554V80.6963H186.261L186.241 80.7158ZM201.574 89.5342H206.877V90.6465H200.224V80.7158H201.574V89.5342ZM214.961 81.8281H209.36V84.9854H214.583V86.0977H209.36V89.5342H215V90.6465H208.029V80.7158H214.961V81.8281ZM146.876 86.5547H150.272L148.604 81.9072H148.564L146.876 86.5547ZM192.855 86.5547H196.252L194.583 81.9072H194.544L192.855 86.5547ZM96.0908 85.502H98.6934V85.4824C99.4479 85.4824 100.004 85.3431 100.361 85.0254C100.719 84.7077 100.878 84.251 100.878 83.6553C100.878 83.0595 100.699 82.6026 100.361 82.3047C100.004 81.987 99.4479 81.8477 98.6934 81.8477H96.0908V85.502ZM182.845 85.2842H185.626C185.943 85.2842 186.221 85.2643 186.499 85.2246L186.724 85.1836C186.923 85.1324 187.105 85.0505 187.254 84.9463C187.472 84.8073 187.632 84.6286 187.751 84.4102C187.87 84.1917 187.949 83.8938 187.949 83.5166C187.949 83.0201 187.81 82.6029 187.532 82.2852C187.254 81.9674 186.798 81.8086 186.162 81.8086H182.845V85.2842ZM109.418 80.002H108.246L107.273 78.6709L106.3 80.002H105.228L106.657 78.0156H107.969L109.418 80.002ZM123.977 58.0547C125.009 58.0547 126.042 58.1143 127.035 58.2334C128.028 58.3526 129.061 58.5518 130.094 58.8496C131.127 59.1475 131.961 59.5848 132.616 60.1807C133.252 60.7764 133.589 61.471 133.609 62.2852C133.629 63.3774 133.073 64.3706 131.941 65.2842C130.809 66.1978 129.34 66.9133 127.532 67.4297C125.725 67.9461 123.798 68.2633 121.772 68.3428C120.521 68.4024 119.468 68.3825 118.674 68.2832C121.633 71.1631 125.069 73.5471 128.962 75.4141C129.121 75.4736 129.24 75.5927 129.3 75.7715C129.359 75.97 129.34 76.1488 129.24 76.3076C129.141 76.4665 128.962 76.5661 128.724 76.5859C128.406 76.6256 128.088 76.5856 127.771 76.4268C126.142 75.672 124.374 74.6191 122.487 73.2686C120.581 71.918 118.912 70.5081 117.442 69.0781C115.873 71.1039 114.443 73.2489 113.152 75.5527C113.013 75.7911 112.815 75.93 112.576 75.9697C112.318 76.0093 112.12 75.9104 112.001 75.6924C111.882 75.4938 111.862 75.2745 111.941 75.0361C112.478 73.6259 113.967 71.3217 116.41 68.1045C116.172 67.9853 115.993 67.9059 115.854 67.8662C115.615 67.7868 115.377 67.6477 115.179 67.4492C114.98 67.2507 114.881 67.0127 114.881 66.7148C114.881 66.2979 115.138 66.0193 115.635 65.9199C115.754 65.8405 115.993 65.8213 116.311 65.8809C116.648 65.9405 117.006 66.1583 117.383 66.5156L117.502 66.6348C117.979 66.039 118.495 65.364 119.091 64.6094C119.687 63.8546 120.104 63.3181 120.382 62.9805C120.66 62.6428 120.799 62.444 120.799 62.4043C121.097 61.5703 121.515 61.1729 122.051 61.1729C122.17 61.1729 122.289 61.2136 122.408 61.293C122.527 61.3724 122.606 61.4917 122.626 61.6504C122.666 62.0674 122.547 62.5046 122.269 62.9414L118.972 67.1123C119.726 67.2116 120.402 67.2506 120.978 67.2109C124.135 67.0918 126.797 66.5562 128.942 65.583C131.087 64.6098 132.12 63.5764 132.061 62.4443C132.041 61.8684 131.762 61.352 131.246 60.915C130.71 60.4781 130.034 60.1608 129.2 59.9424C128.366 59.7239 127.512 59.5641 126.639 59.4648C125.765 59.3655 124.871 59.3066 123.957 59.3066C122.706 59.3066 121.514 59.4257 120.422 59.6641C119.747 59.8031 119.051 60.0813 118.316 60.4785C118.296 60.4984 118.257 60.538 118.197 60.6172C118.138 60.6966 118.058 60.7366 117.979 60.7764C117.899 60.816 117.8 60.8359 117.681 60.8359C117.204 60.8359 116.946 60.5973 116.887 60.1406C116.867 59.8824 116.946 59.6436 117.125 59.4053C117.244 59.2663 117.503 59.1073 117.88 58.9287C118.337 58.7302 119.112 58.5322 120.164 58.3535C121.336 58.155 122.606 58.0547 123.977 58.0547ZM185.349 66.9131C185.706 66.9131 186.004 66.973 186.202 67.0723C186.619 67.251 186.977 67.529 187.274 67.9062C187.552 68.2836 187.692 68.6809 187.672 69.1377C187.632 70.5279 186.739 71.9581 185.011 73.4277C183.283 74.8975 181.614 75.6318 180.025 75.6318C179.509 75.6318 179.072 75.4532 178.715 75.0957C178.337 74.7581 178.139 74.3012 178.139 73.7451L178.144 73.5479C178.195 72.7518 178.629 71.8502 179.43 70.8262C180.284 69.7338 181.296 68.7996 182.448 68.0449C183.6 67.2902 184.574 66.9131 185.349 66.9131ZM136.906 66.6152C137.244 66.6152 137.543 66.7138 137.801 66.8926C138.059 67.0912 138.178 67.3301 138.178 67.6279C138.177 68.6806 136.112 70.1306 131.961 71.9775C131.882 72.1165 131.842 72.2556 131.842 72.3945C131.842 73.4271 132.577 73.9433 134.026 73.9434C135.218 73.9434 136.589 73.6258 138.118 72.9902C139.525 72.4057 140.845 71.6508 142.084 70.7148C142.112 70.6915 142.142 70.6688 142.17 70.6455C142.448 70.427 142.925 70.0503 143.58 69.5342C144.235 69.0178 144.752 68.5805 145.169 68.2627C145.565 67.9459 145.803 67.787 145.863 67.7861C146.28 67.7861 146.499 68.0643 146.499 68.6006C146.499 68.9778 146.42 69.2562 146.281 69.415C144.474 70.9245 143.56 72.0561 143.56 72.791C143.56 73.1485 143.739 73.3271 144.076 73.3271C144.771 73.3271 145.785 72.9097 147.115 72.0557C148.446 71.2017 149.856 70.1291 151.325 68.8184C151.583 68.6197 151.763 68.5205 151.882 68.5205C152.08 68.5206 152.259 68.6597 152.418 68.9375C152.577 69.2155 152.656 69.5137 152.656 69.8115C152.656 69.8512 152.596 69.931 152.497 70.0303C152.378 70.1295 152.279 70.1891 152.18 70.209C151.365 71.2815 150.968 72.1951 150.968 72.9697C150.968 73.3073 151.127 73.4863 151.425 73.4863C152.213 73.4863 153.725 72.697 155.951 71.1357C156.463 70.7258 157.098 70.2195 157.88 69.6328C158.892 68.8387 159.548 68.3423 159.826 68.084C160.065 67.7662 160.343 67.6273 160.621 67.667C160.8 67.6671 160.958 67.7266 161.117 67.8457C161.276 67.9847 161.396 68.1038 161.455 68.2031C161.515 68.3024 161.535 68.4415 161.495 68.6201C161.416 68.918 161.117 69.4542 160.621 70.2285C160.105 71.003 159.806 71.5989 159.707 71.9961C163.143 69.7319 165.229 68.4607 165.983 68.1826C166.142 68.1032 166.301 68.0635 166.44 68.0635C166.659 68.0636 166.857 68.1632 167.056 68.3418C167.254 68.5404 167.354 68.7392 167.354 68.918C167.353 69.2358 167.155 69.7718 166.758 70.5264C166.361 71.281 166.162 71.996 166.162 72.7109C166.162 73.3662 166.4 73.9228 166.896 74.3994C167.115 74.6179 167.234 74.8167 167.234 74.9756C167.234 75.2138 167.075 75.333 166.777 75.333C166.182 75.3329 165.685 75.0742 165.248 74.5381C164.811 74.0019 164.593 73.3264 164.593 72.5322C164.593 71.7379 164.772 71.003 165.109 70.2285C164.514 70.4867 163.401 71.1824 161.753 72.3145C160.105 73.4464 159.052 74.0019 158.635 74.002C158.436 74.002 158.257 73.9226 158.078 73.7637C157.919 73.6049 157.84 73.426 157.84 73.2275C157.84 72.4927 158.158 71.5591 158.813 70.4072C158.595 70.586 158.237 70.8645 157.78 71.2617C157.407 71.5574 157.117 71.7903 156.886 71.9736C156.838 72.0229 156.786 72.0706 156.728 72.1152C154.265 74.0219 152.338 74.9951 150.908 74.9951C150.432 74.995 150.055 74.8367 149.757 74.5391C149.459 74.2411 149.3 73.8038 149.3 73.2676C149.3 72.8307 149.38 72.4135 149.519 72.0361C148.684 72.7709 147.691 73.4264 146.52 74.042C145.348 74.6577 144.334 74.956 143.48 74.9561C143.083 74.9561 142.726 74.8363 142.428 74.5781C142.13 74.3199 141.991 73.9626 141.991 73.5059L141.958 73.3311C141.986 72.9069 142.107 72.4732 142.32 72.0508C142.291 72.0791 142.262 72.1079 142.229 72.1357C140.998 73.0692 139.588 73.8439 138.019 74.4795C136.45 75.115 135.02 75.4335 133.749 75.4336L133.335 75.4414C132.436 75.389 131.673 75.1522 131.048 74.7178C130.333 74.2411 129.975 73.5263 129.975 72.5928C129.975 71.2026 130.75 69.8524 132.299 68.5615C133.848 67.2706 135.377 66.6153 136.906 66.6152ZM193.928 67.667C194.106 67.667 194.266 67.7265 194.425 67.8457C194.584 67.9846 194.703 68.1039 194.763 68.2031C194.822 68.3024 194.841 68.4416 194.802 68.6201C194.722 68.9181 194.424 69.4542 193.928 70.2285C193.411 71.0029 193.114 71.5989 193.015 71.9961C196.451 69.732 198.536 68.4607 199.291 68.1826C199.45 68.1034 199.608 68.0636 199.747 68.0635C199.966 68.0635 200.165 68.163 200.363 68.3418C200.562 68.5404 200.661 68.7392 200.661 68.918C200.661 69.2357 200.463 69.7719 200.065 70.5264C199.668 71.281 199.47 71.996 199.47 72.7109C199.47 73.3663 199.708 73.9228 200.204 74.3994C200.423 74.6179 200.542 74.8167 200.542 74.9756C200.542 75.2138 200.383 75.333 200.085 75.333C199.489 75.333 198.993 75.0743 198.556 74.5381C198.119 74.0019 197.9 73.3265 197.9 72.5322C197.9 71.7379 198.079 71.003 198.417 70.2285C197.821 70.4867 196.709 71.1824 195.061 72.3145C193.413 73.4462 192.36 74.0016 191.942 74.002C191.744 74.002 191.564 73.9226 191.386 73.7637C191.227 73.6048 191.147 73.4261 191.147 73.2275C191.147 72.4927 191.466 71.5591 192.121 70.4072C191.903 70.586 191.545 70.8645 191.088 71.2617C190.611 71.6389 190.274 71.9167 190.016 72.1152C189.618 72.3933 189.3 72.5322 189.102 72.5322C188.943 72.5321 188.804 72.4726 188.685 72.3535C188.605 72.2742 188.566 72.1553 188.565 72.0166L188.547 71.8711C188.599 71.7306 188.685 71.6042 188.804 71.5C189.38 71.0432 190.155 70.4074 191.188 69.6328C192.2 68.8386 192.856 68.3422 193.134 68.084C193.372 67.7663 193.65 67.6274 193.928 67.667ZM174.643 67.3691C175.119 67.6471 175.397 67.9652 175.517 68.3027C175.596 68.6006 175.556 68.8987 175.397 69.1768C174.484 70.7458 174.027 72.1365 174.027 73.3281C174.027 73.8246 174.166 74.3607 174.444 74.9365C174.504 75.0557 174.484 75.1553 174.345 75.2148C174.226 75.2744 174.047 75.2943 173.828 75.2744C173.471 75.2545 173.173 75.0957 172.954 74.7979C172.656 74.4205 172.498 73.8641 172.498 73.1689C172.498 72.1362 172.796 71.0836 173.372 69.9912L173.222 70.1113C172.761 70.5281 171.847 71.2472 170.492 72.2549C170.214 72.4534 169.916 72.553 169.618 72.5332C169.32 72.5133 169.101 72.2748 169.002 71.8379C169.856 71.1825 170.909 70.3485 172.141 69.3555C173.372 68.3625 174.206 67.7068 174.643 67.3691ZM185.368 68.2441C184.971 68.2441 184.375 68.4429 183.601 68.8203C182.826 69.1977 182.131 69.6939 181.535 70.3096C181.416 70.4287 181.316 70.6272 181.257 70.9053C181.197 71.1833 181.058 71.4414 180.859 71.6797C180.105 72.633 179.728 73.3287 179.728 73.7656L179.736 73.8584C179.776 74.1492 179.953 74.3017 180.283 74.3018C181.296 74.3018 182.567 73.6659 184.097 72.375C185.626 71.0842 186.381 69.9721 186.381 69.0586C186.381 68.5224 186.043 68.2442 185.368 68.2441ZM136.569 67.9854C135.894 67.9854 135.119 68.2636 134.226 68.7998C133.332 69.336 132.696 69.9117 132.299 70.5273C134.285 69.4747 135.715 68.6408 136.569 67.9854ZM179.251 62.4834C179.489 62.5232 179.687 62.6626 179.826 62.8809C179.965 63.0993 180.005 63.3577 179.945 63.6357C179.925 63.7151 179.886 63.795 179.847 63.8545C179.787 63.9339 179.747 63.9935 179.707 64.0332C179.667 64.0925 179.588 64.1321 179.489 64.1914C179.39 64.2509 179.31 64.2907 179.271 64.3105C179.231 64.3105 179.131 64.3701 178.992 64.4297C178.853 64.4891 178.774 64.5289 178.754 64.5488C178.158 64.807 177.582 65.1646 176.986 65.6016C176.808 65.7406 176.629 65.7611 176.47 65.6816C176.311 65.5823 176.271 65.403 176.351 65.125L176.465 64.8184C176.756 64.0747 177.212 63.464 177.82 62.96C178.337 62.5627 178.814 62.404 179.251 62.4834ZM143.322 57.498C143.779 57.4982 144.076 57.7175 144.195 58.1543L144.176 58.248C144.186 58.3026 144.195 58.3721 144.195 58.4316C144.195 58.9282 143.58 59.6635 142.368 60.6367C141.157 61.6098 139.826 62.4833 138.376 63.2578C138.098 63.3966 137.9 63.4763 137.801 63.4766C137.543 63.4766 137.403 63.3373 137.403 63.0791C137.403 62.9799 137.463 62.8804 137.562 62.7812C138.794 61.7486 140.184 60.3979 141.732 58.71C141.772 58.6702 141.853 58.5908 141.972 58.4717C142.09 58.3529 142.15 58.2734 142.189 58.2139C142.229 58.1543 142.289 58.0944 142.389 57.9951C142.488 57.8959 142.548 57.8161 142.627 57.7764C142.706 57.7368 142.766 57.6971 142.845 57.6377C142.924 57.5782 143.004 57.5579 143.083 57.5381C143.162 57.5381 143.223 57.498 143.322 57.498ZM145.367 50.7451C166.579 43.0589 182.806 42.7016 202.667 52.6123L199.43 58.4717H199.409C192.756 55.2541 170.213 43.7739 130.511 56.4453C133.609 55.0947 138.058 53.3867 145.367 50.7451ZM98.9717 51.8174C114.205 46.4152 127.353 45.8586 141.335 50.3867L138.257 51.6182C137.259 52.0204 136.281 52.4127 135.317 52.79C123.619 49.6917 108.148 49.3745 98.9717 51.8174ZM134.305 12.2734C134.364 12.2735 134.404 12.3535 134.404 12.3535L134.622 13.9424L134.979 17.001C134.999 17.0397 135.075 17.0782 135.079 17.0801L137.383 17.2188L137.344 17.6963L135.139 17.9346C135.099 17.9548 135.06 18.0537 135.06 18.0537L135.636 21.8066C135.655 21.8453 135.73 21.8846 135.734 21.8867H138.396L138.197 22.4033C138.197 22.4422 138.121 22.4623 138.118 22.4629L135.913 22.6016C135.854 22.6019 135.814 22.7012 135.814 22.7012L136.132 25.6797C136.132 25.7194 136.231 25.7598 136.231 25.7598L141.772 25.7197C141.832 25.7197 141.872 25.8193 141.872 25.8193L141.832 27.7061C141.832 27.7656 141.932 27.8057 141.932 27.8057L149.2 27.7656C149.24 27.7656 149.28 27.8057 149.28 27.8057L150.869 29.4932C150.908 29.5517 150.813 29.6489 150.81 29.6523L149.916 29.8311C149.877 29.8503 149.838 29.9069 149.836 29.9102L148.843 33.9824C148.803 34.1409 148.664 34.2206 148.506 34.2207H148.354C148.19 34.2403 148.068 34.3817 148.068 34.5381V37.8154C148.069 37.8749 148.168 37.915 148.168 37.915L161.058 38.0342C161.116 38.0342 161.155 38.1285 161.157 38.1328L161.355 41.5098C161.356 41.5685 161.453 41.6075 161.455 41.6084L174.702 40.8545H174.762L178.854 38.0342L179.628 37.1797C179.666 37.1411 179.63 37.0466 179.628 37.041L178.118 35.4717C178.099 35.4521 178.099 35.4135 178.099 35.4121L178.02 33.9619C178.019 33.9037 177.924 33.8649 177.92 33.8633H171.862C171.664 33.8633 171.525 34.0221 171.564 34.2207V34.4189C171.584 34.538 171.664 34.6369 171.763 34.6768L177.086 36.9219L176.351 36.9609H176.312L170.135 35.2334C170.096 35.2334 170.057 35.1592 170.055 35.1543L169.936 33.6445C169.936 33.6048 170.016 33.5449 170.016 33.5449L177.225 32.4531H177.265L181.376 33.7236C181.416 33.7239 181.436 33.8037 181.436 33.8037L181.595 37.6758C181.595 37.7337 181.688 37.7732 181.693 37.7754L192.379 36.5049C192.419 36.5049 192.458 36.4248 192.458 36.4248L193.114 32.9492L193.77 27.5068C193.769 27.4671 193.689 27.4082 193.689 27.4082L192.855 27.249L192.796 27.1895L192.498 26.5938L193.968 26.5342C194.027 26.5342 194.067 26.4346 194.067 26.4346L192.617 15.1143C192.617 15.0745 192.558 15.0342 192.558 15.0342L190.988 14.458L192.558 14.498C192.617 14.498 192.657 14.3984 192.657 14.3984L192.577 13.624H192.994L193.074 14.7764C193.074 14.8161 193.134 14.8555 193.134 14.8555L194.563 15.4717H193.233C193.174 15.4717 193.134 15.5908 193.134 15.5908L194.941 26.4746C194.961 26.5128 195.035 26.5509 195.04 26.5537L199.172 26.5146L198.596 27.1494C198.577 27.1873 198.539 27.1894 198.536 27.1895L195.318 27.4082C195.261 27.4082 195.221 27.501 195.219 27.5068L196.192 35.9678C196.192 36.0075 196.232 36.0479 196.292 36.0479L215.001 34.3594V34.5781L207.891 44.3496C206.308 46.9191 208.216 47.9522 209.688 48.3496L210.035 48.3818C210.154 48.4017 210.135 48.5605 210.016 48.5605L200.582 48.6592H200.542C182.587 40.9928 162.785 41.4693 144.076 49.0762C143.858 49.1556 143.659 49.2555 143.44 49.335C128.565 43.8733 114.027 43.9926 98.1377 49.8516H98.0977C97.9808 49.871 96.8754 49.8524 96.8467 49.8516C96.8835 49.849 96.2305 45.2463 95.5771 40.7051L92 40.7559V39.2656L95.3789 39.3389C95.205 38.1335 95.0352 36.9666 94.8848 35.9287L92.2578 35.6309C92.3174 35.1345 92.3776 34.6575 92.457 34.1611L94.6768 34.4941C94.4509 32.9385 94.3037 31.916 94.3037 31.916C94.2643 31.7176 94.4038 31.5195 94.6221 31.5195H94.8604C95.0391 31.5195 95.1777 31.3799 95.1777 31.2012V31.0723L93.1914 30.5869C93.3106 30.1102 93.4502 29.6329 93.5693 29.1562L94.8936 29.5322L94.2246 28.6396L94.4434 28.3418L96.29 29.8115C96.3298 29.8314 96.3301 29.8711 96.3301 29.8711L96.3389 29.9424L103.222 31.8975L102.924 32.9697L102.473 32.8584L102.349 35.6455L102.388 35.6514C102.367 35.7811 102.349 35.9085 102.332 36.0352L102.269 37.4775C102.269 37.5371 102.368 37.5771 102.368 37.5771L107.771 37.6162C107.83 37.6158 107.869 37.5371 107.869 37.5371L108.286 31.8965L108.743 28.6992C108.763 28.6595 108.843 28.6191 108.843 28.6191H110.292L113.014 29.0166C113.053 29.0169 113.093 29.0967 113.093 29.0967L113.867 34.4785L113.828 37.7559C113.828 37.8144 113.924 37.8542 113.927 37.8555L125.486 38.0732C125.544 38.0732 125.584 37.9801 125.586 37.9746V34.7959C125.585 34.7378 125.49 34.6988 125.486 34.6973H117.602C117.423 34.6973 117.283 34.5577 117.283 34.3789C117.283 34.2003 117.423 34.0615 117.602 34.0615H125.685C125.724 34.0615 125.783 34.0032 125.784 34.002L126.46 32.2148L127.93 27.5869C127.95 27.5273 127.929 27.4678 127.869 27.4678L126.797 27.1494V26.7725L129.836 26.5537C130.014 26.5338 130.134 26.3953 130.134 26.2168V26.0371C130.114 25.8587 130.273 25.7004 130.451 25.7002H133.987C134.047 25.6998 134.086 25.6201 134.086 25.6201L134.643 22.7607C134.643 22.7012 134.562 22.6416 134.562 22.6416L133.431 22.3828C133.393 22.3636 133.355 22.2903 133.352 22.2842V21.8066L134.603 21.7676C134.662 21.7676 134.702 21.668 134.702 21.668L133.828 12.2734H134.305ZM172.915 36.5049C172.951 36.954 172.984 37.4035 173.005 37.8379L174.543 37.7969L174.603 39.6436L162.13 40.3584L161.951 38.1338L162.979 38.1055C162.964 37.878 162.949 37.6522 162.925 37.4189L165.765 37.1602L167.075 37.041L172.915 36.5049ZM109.796 34.2598L110.134 37.7754H112.021L112.636 33.7041L112.021 30.1094L109.796 29.791V34.2598ZM172.398 32.8906L162.527 34.6982C162.468 34.3407 162.388 33.963 162.309 33.6055L172.101 31.4404C172.2 31.9171 172.299 32.414 172.398 32.8906ZM129.359 30.1885L129.657 31.6777L130.689 31.5986L130.491 30.1289L129.359 30.1885ZM130.929 30.1094L131.127 31.5791L132.259 31.499L132.061 30.0498L130.929 30.1094ZM132.497 30.0293L132.696 31.4795H132.716L133.848 31.4004L133.649 29.9697L132.497 30.0293ZM135.139 29.8906L134.066 29.9502L134.265 31.3604L135.357 31.2812L135.179 29.8906H135.139ZM148.406 31.3604H148.724L149.021 30.1689L148.664 30.0889L148.406 31.3604ZM147.909 29.9307L147.632 31.2812L148.049 31.3203L148.327 30.0293L147.93 29.9307H147.909ZM135.655 29.8711L135.834 31.2607H137.403V29.8711H135.655ZM137.88 29.8711V31.2607H139.429V29.8711H137.88ZM139.886 29.8711V31.2607H141.375V29.8711H139.886ZM141.872 29.8711V31.2607H143.48V29.8711H141.872ZM143.978 29.8711V31.2607H145.586L145.686 29.8711H143.978ZM146.122 29.8711L146.043 31.2607H147.175L147.433 29.8711H146.122ZM170.65 26.5352C170.809 26.9919 170.988 27.4687 171.127 27.9453L161.574 30.9834V30.9639C161.455 30.6064 161.336 30.2488 161.217 29.9111L170.65 26.5352ZM104.532 28.2627C104.373 28.6003 104.235 28.9583 104.096 29.2959L94.7412 25.6807C94.9199 25.224 95.1179 24.7672 95.3164 24.3105L104.532 28.2627ZM160.164 27.3691H160.144L160.16 27.3613C160.161 27.3639 160.163 27.3666 160.164 27.3691ZM168.585 21.8281C168.803 22.2649 169.042 22.7016 169.24 23.1582L160.16 27.3613C160.002 27.0262 159.844 26.6913 159.667 26.376L168.585 21.8281ZM106.28 24.7871C106.082 25.1048 105.902 25.442 105.724 25.7598L96.9053 21.0137C97.1436 20.5768 97.3825 20.1595 97.6406 19.7227L106.28 24.7871ZM165.943 17.3984C166.221 17.7956 166.5 18.2128 166.758 18.6299L158.297 23.9727V23.9922C158.098 23.6745 157.899 23.3772 157.681 23.0596L165.943 17.3984ZM108.484 21.6289C108.246 21.9267 108.028 22.2247 107.81 22.5225L99.666 16.6836C99.9639 16.2864 100.263 15.8891 100.561 15.5117L108.484 21.6289ZM162.726 13.3867C163.063 13.7442 163.381 14.1214 163.699 14.5186L155.993 20.8945V20.874C155.755 20.596 155.516 20.2982 155.258 20.04L162.726 13.3867ZM111.066 18.71C110.808 18.968 110.53 19.2456 110.272 19.5234L102.943 12.7109C103.281 12.3535 103.619 11.9967 103.977 11.6592L111.066 18.71ZM159.052 9.79199C159.429 10.1097 159.807 10.4476 160.164 10.7852L152.497 17.3193L159.052 9.79199ZM114.006 16.207C113.708 16.4254 113.411 16.6641 113.133 16.9023L106.717 9.21582C107.094 8.89804 107.491 8.59968 107.889 8.30176L114.006 16.207ZM154.92 6.69336C155.337 6.97132 155.754 7.24938 156.151 7.52734L150.312 15.6113V15.6309C150.015 15.4124 149.697 15.1937 149.379 14.9951L154.92 6.69336ZM117.204 14.0225C116.886 14.2012 116.569 14.4 116.251 14.5986L110.888 6.19727C111.305 5.93907 111.742 5.68007 112.159 5.42188L117.204 14.0225ZM150.472 4.13184C150.928 4.35021 151.365 4.58827 151.802 4.80664L147.016 13.5654V13.585C146.678 13.4062 146.36 13.2282 146.022 13.0693L150.472 4.13184ZM120.699 12.3145C120.362 12.4534 120.005 12.6127 119.667 12.7715L115.437 3.73438C115.893 3.51595 116.35 3.31739 116.807 3.13867L120.699 12.3145ZM145.685 2.16504C146.161 2.3239 146.618 2.50292 147.095 2.68164L143.48 11.9766V11.957C143.123 11.818 142.785 11.6983 142.428 11.5791L145.685 2.16504ZM124.354 11.0625C123.996 11.1618 123.619 11.2617 123.262 11.3809L120.243 1.88672C120.72 1.74773 121.196 1.58885 121.673 1.46973L124.354 11.0625ZM139.767 10.8047L139.746 10.8242L139.751 10.8008C139.756 10.8019 139.761 10.8035 139.767 10.8047ZM140.68 0.814453C141.176 0.913749 141.673 1.03319 142.149 1.15234L139.751 10.8008C139.399 10.7219 139.046 10.6251 138.674 10.5664L140.68 0.814453ZM128.207 10.2686L127.988 10.3086C127.69 10.3483 127.372 10.4072 127.055 10.4668L125.268 0.655273C125.685 0.575836 126.082 0.516611 126.499 0.457031L126.718 0.416992L128.207 10.2686ZM135.556 0.0996094C136.052 0.139322 136.549 0.178723 137.045 0.238281L135.933 10.1299C135.556 10.0902 135.179 10.0501 134.821 10.0303L135.556 0.0996094ZM132.061 9.95117C131.683 9.95117 131.305 9.95051 130.928 9.99023L130.392 0.0595703C130.888 0.0397091 131.385 0.0198612 131.882 0L132.061 9.95117Z" fill="var(--fill-0, white)"/>
</g>
</svg>
