<svg preserveAspectRatio="none" width="100%" height="100%" overflow="visible" style="display: block;" viewBox="0 0 307 155" fill="none" xmlns="http://www.w3.org/2000/svg">
<g id="Frame 74">
<path id="Union" d="M156.017 118.629C156.017 119.523 156.255 120.198 156.731 120.655C157.208 121.112 157.903 121.351 158.797 121.351C159.651 121.351 160.286 121.112 160.743 120.655C161.18 120.198 161.419 119.523 161.419 118.629V112.273H162.749V118.629C162.749 119.9 162.412 120.854 161.717 121.489C161.042 122.125 160.068 122.442 158.797 122.442C157.526 122.442 156.493 122.145 155.778 121.529C155.043 120.914 154.686 119.96 154.686 118.629V112.273H156.017V118.629ZM117.188 112.034C117.704 112.034 118.2 112.094 118.677 112.233C119.153 112.372 119.571 112.571 119.929 112.849C120.286 113.127 120.604 113.444 120.842 113.861C121.08 114.259 121.239 114.736 121.318 115.252H119.988C119.829 114.537 119.511 114.021 118.995 113.663L118.777 113.558C118.308 113.284 117.773 113.146 117.147 113.146C116.552 113.147 116.035 113.266 115.618 113.484C115.201 113.703 114.843 114.001 114.565 114.378C114.287 114.755 114.089 115.192 113.95 115.669C113.811 116.146 113.752 116.662 113.752 117.179C113.752 117.755 113.811 118.291 113.95 118.787C114.089 119.284 114.287 119.741 114.565 120.118C114.843 120.495 115.201 120.793 115.618 121.012C116.055 121.23 116.572 121.35 117.168 121.35C117.605 121.35 118.002 121.27 118.34 121.131C118.677 120.992 118.976 120.793 119.214 120.535C119.452 120.277 119.65 119.979 119.789 119.621C119.928 119.264 120.008 118.887 120.048 118.47H121.378C121.239 119.721 120.822 120.694 120.067 121.389C119.313 122.084 118.319 122.441 117.028 122.441C116.254 122.441 115.579 122.303 115.003 122.045C114.427 121.787 113.95 121.409 113.553 120.952C113.175 120.495 112.878 119.939 112.699 119.304C112.501 118.668 112.421 117.993 112.421 117.278C112.421 116.563 112.52 115.868 112.738 115.232C112.937 114.597 113.255 114.04 113.652 113.563C114.05 113.087 114.546 112.709 115.142 112.451C115.737 112.173 116.413 112.034 117.188 112.034ZM168.271 112.016C168.788 112.016 169.264 112.075 169.701 112.194C170.138 112.313 170.535 112.512 170.853 112.771C171.17 113.029 171.449 113.366 171.647 113.743C171.846 114.14 171.945 114.617 171.965 115.153H170.694C170.615 114.439 170.357 113.922 169.92 113.604L169.729 113.513C169.317 113.269 168.8 113.147 168.191 113.147C167.913 113.147 167.635 113.168 167.357 113.228C167.08 113.287 166.841 113.386 166.643 113.505C166.424 113.644 166.265 113.803 166.146 114.021C166.026 114.24 165.947 114.518 165.947 114.836C165.947 115.134 166.047 115.392 166.226 115.591C166.404 115.789 166.642 115.929 166.96 116.048C167.258 116.167 167.616 116.266 167.993 116.346C168.37 116.425 168.768 116.504 169.165 116.604C169.562 116.703 169.96 116.802 170.337 116.921C170.714 117.04 171.071 117.219 171.369 117.438C171.667 117.656 171.926 117.914 172.104 118.252C172.283 118.57 172.382 118.987 172.382 119.483C172.382 120.02 172.263 120.457 172.024 120.834C171.786 121.211 171.489 121.51 171.111 121.748C170.734 121.986 170.317 122.164 169.86 122.264C169.404 122.363 168.927 122.423 168.47 122.423C167.914 122.423 167.377 122.363 166.881 122.204C166.385 122.065 165.948 121.847 165.57 121.569C165.193 121.291 164.894 120.914 164.676 120.477C164.457 120.04 164.339 119.523 164.339 118.907H165.609C165.609 119.324 165.689 119.682 165.848 119.979C166.006 120.277 166.225 120.536 166.503 120.734C166.761 120.933 167.079 121.073 167.437 121.172C167.794 121.271 168.152 121.311 168.529 121.311C168.827 121.311 169.125 121.291 169.442 121.231C169.74 121.172 170.019 121.072 170.257 120.953C170.495 120.814 170.694 120.636 170.853 120.397C171.011 120.159 171.071 119.86 171.071 119.503C171.071 119.165 170.972 118.887 170.793 118.669C170.614 118.451 170.376 118.271 170.059 118.152C169.761 118.013 169.403 117.914 169.025 117.835C168.648 117.756 168.251 117.657 167.854 117.577C167.457 117.498 167.06 117.379 166.683 117.279C166.305 117.16 165.947 117.001 165.649 116.822C165.351 116.624 165.093 116.385 164.914 116.087C164.735 115.789 164.637 115.412 164.637 114.955C164.637 114.459 164.736 114.022 164.954 113.645C165.153 113.287 165.431 112.969 165.769 112.73C166.106 112.492 166.504 112.313 166.94 112.194C167.377 112.075 167.815 112.016 168.271 112.016ZM111.249 113.406H105.668V116.564H110.871V117.677H105.668V121.112H111.289V122.225H104.337V112.294H111.249V113.406ZM99.6299 112.273C100.643 112.273 101.397 112.532 101.934 113.048C102.45 113.564 102.708 114.279 102.708 115.213C102.708 116.146 102.45 116.862 101.934 117.378C101.417 117.894 100.643 118.152 99.6299 118.152H96.5713V122.224H95.2402V112.273H99.6299ZM153.771 122.224H152.302L151.21 119.225H146.979L145.847 122.224H144.477L148.369 112.273H149.859L153.771 122.224ZM199.771 122.224H198.301L197.209 119.225H192.979L191.846 122.224H190.476L194.368 112.273H195.858L199.771 122.224ZM124.377 116.543H129.66V112.273H130.991V122.204H129.66V117.655H124.377V122.204H123.046V112.273H124.377V116.543ZM140.088 113.386H134.507V116.543H139.71V117.655H134.507V121.092H140.147V122.204H133.176V112.273H140.088V113.386ZM180.922 113.386H177.586V122.204H176.235V113.386H172.898V112.273H180.922V113.386ZM186.741 112.273C187.694 112.273 188.449 112.512 188.985 112.969C189.522 113.425 189.8 114.061 189.8 114.875C189.8 115.471 189.661 116.007 189.383 116.464C189.105 116.921 188.667 117.239 188.052 117.397C188.35 117.477 188.589 117.576 188.768 117.695C188.946 117.834 189.085 117.974 189.204 118.152C189.303 118.331 189.383 118.53 189.442 118.769C189.502 118.987 189.542 119.225 189.562 119.463C189.562 119.701 189.602 119.96 189.602 120.198C189.602 120.436 189.641 120.694 189.681 120.933C189.72 121.171 189.78 121.41 189.84 121.628C189.919 121.846 190.018 122.045 190.157 122.204H188.668C188.569 122.105 188.508 121.966 188.469 121.787C188.429 121.608 188.409 121.41 188.409 121.191C188.409 120.973 188.41 120.734 188.39 120.496C188.39 120.238 188.35 120 188.311 119.762C188.271 119.523 188.23 119.285 188.171 119.066C188.111 118.848 188.032 118.649 187.913 118.49C187.794 118.331 187.635 118.192 187.437 118.093C187.238 117.993 186.979 117.954 186.642 117.954H183.385V122.204H182.054V112.254H186.761L186.741 112.273ZM202.074 121.092H207.377V122.204H200.724V112.273H202.074V121.092ZM215.461 113.386H209.86V116.543H215.083V117.655H209.86V121.092H215.5V122.204H208.529V112.273H215.461V113.386ZM147.376 118.112H150.772L149.104 113.465H149.064L147.376 118.112ZM193.355 118.112H196.752L195.083 113.465H195.044L193.355 118.112ZM96.5908 117.06H99.1934V117.04C99.9479 117.04 100.504 116.901 100.861 116.583C101.219 116.265 101.378 115.809 101.378 115.213C101.378 114.617 101.199 114.16 100.861 113.862C100.504 113.545 99.9479 113.405 99.1934 113.405H96.5908V117.06ZM183.345 116.842H186.126C186.443 116.842 186.721 116.822 186.999 116.782L187.224 116.741C187.423 116.69 187.605 116.608 187.754 116.504C187.972 116.365 188.132 116.186 188.251 115.968C188.37 115.749 188.449 115.451 188.449 115.074C188.449 114.578 188.31 114.161 188.032 113.843C187.754 113.525 187.298 113.366 186.662 113.366H183.345V116.842ZM109.918 111.56H108.746L107.773 110.229L106.8 111.56H105.728L107.157 109.573H108.469L109.918 111.56ZM124.477 89.6123C125.509 89.6123 126.542 89.6719 127.535 89.791C128.528 89.9102 129.561 90.1094 130.594 90.4072C131.627 90.7051 132.461 91.1424 133.116 91.7383C133.752 92.334 134.089 93.0286 134.109 93.8428C134.129 94.9351 133.573 95.9282 132.441 96.8418C131.309 97.7554 129.84 98.4709 128.032 98.9873C126.225 99.5037 124.298 99.8209 122.272 99.9004C121.021 99.96 119.968 99.9401 119.174 99.8408C122.133 102.721 125.569 105.105 129.462 106.972C129.621 107.031 129.74 107.15 129.8 107.329C129.859 107.528 129.84 107.706 129.74 107.865C129.641 108.024 129.462 108.124 129.224 108.144C128.906 108.183 128.588 108.143 128.271 107.984C126.642 107.23 124.874 106.177 122.987 104.826C121.081 103.476 119.412 102.066 117.942 100.636C116.373 102.662 114.943 104.806 113.652 107.11C113.513 107.349 113.315 107.488 113.076 107.527C112.818 107.567 112.62 107.468 112.501 107.25C112.382 107.051 112.362 106.832 112.441 106.594C112.978 105.184 114.467 102.879 116.91 99.6621C116.672 99.5429 116.493 99.4636 116.354 99.4238C116.115 99.3444 115.877 99.2054 115.679 99.0068C115.48 98.8083 115.381 98.5703 115.381 98.2725C115.381 97.8555 115.638 97.5769 116.135 97.4775C116.254 97.3981 116.493 97.3789 116.811 97.4385C117.148 97.4981 117.506 97.7159 117.883 98.0732L118.002 98.1924C118.479 97.5966 118.995 96.9216 119.591 96.167C120.187 95.4123 120.604 94.8757 120.882 94.5381C121.16 94.2005 121.299 94.0016 121.299 93.9619C121.597 93.1279 122.015 92.7305 122.551 92.7305C122.67 92.7306 122.789 92.7712 122.908 92.8506C123.027 92.93 123.106 93.0493 123.126 93.208C123.166 93.625 123.047 94.0622 122.769 94.499L119.472 98.6699C120.226 98.7692 120.902 98.8082 121.478 98.7686C124.635 98.6494 127.297 98.1138 129.442 97.1406C131.587 96.1674 132.62 95.134 132.561 94.002C132.541 93.426 132.262 92.9096 131.746 92.4727C131.21 92.0357 130.534 91.7185 129.7 91.5C128.866 91.2816 128.012 91.1218 127.139 91.0225C126.265 90.9232 125.371 90.8643 124.457 90.8643C123.206 90.8643 122.014 90.9834 120.922 91.2217C120.247 91.3607 119.551 91.6389 118.816 92.0361C118.796 92.0561 118.757 92.0956 118.697 92.1748C118.638 92.2542 118.558 92.2943 118.479 92.334C118.399 92.3736 118.3 92.3936 118.181 92.3936C117.704 92.3935 117.446 92.1549 117.387 91.6982C117.367 91.44 117.446 91.2012 117.625 90.9629C117.744 90.8239 118.003 90.6649 118.38 90.4863C118.837 90.2878 119.612 90.0898 120.664 89.9111C121.836 89.7126 123.106 89.6123 124.477 89.6123ZM185.849 98.4707C186.206 98.4708 186.504 98.5306 186.702 98.6299C187.119 98.8086 187.477 99.0866 187.774 99.4639C188.052 99.8412 188.192 100.239 188.172 100.695C188.132 102.086 187.239 103.516 185.511 104.985C183.783 106.455 182.114 107.189 180.525 107.189C180.009 107.189 179.572 107.011 179.215 106.653C178.837 106.316 178.639 105.859 178.639 105.303L178.644 105.105C178.695 104.309 179.129 103.408 179.93 102.384C180.784 101.291 181.796 100.357 182.948 99.6025C184.1 98.8478 185.074 98.4707 185.849 98.4707ZM137.406 98.1729C137.744 98.1729 138.043 98.2714 138.301 98.4502C138.559 98.6488 138.678 98.8877 138.678 99.1855C138.677 100.238 136.612 101.688 132.461 103.535C132.382 103.674 132.342 103.813 132.342 103.952C132.342 104.985 133.077 105.501 134.526 105.501C135.718 105.501 137.089 105.183 138.618 104.548C140.025 103.963 141.345 103.208 142.584 102.272C142.612 102.249 142.642 102.226 142.67 102.203C142.948 101.985 143.425 101.608 144.08 101.092C144.735 100.575 145.252 100.138 145.669 99.8203C146.065 99.5035 146.303 99.3446 146.363 99.3438C146.78 99.3438 146.999 99.6219 146.999 100.158C146.999 100.535 146.92 100.814 146.781 100.973C144.974 102.482 144.06 103.614 144.06 104.349C144.06 104.706 144.239 104.885 144.576 104.885C145.271 104.885 146.285 104.467 147.615 103.613C148.946 102.759 150.356 101.687 151.825 100.376C152.083 100.177 152.263 100.078 152.382 100.078C152.58 100.078 152.759 100.217 152.918 100.495C153.077 100.773 153.156 101.071 153.156 101.369C153.156 101.409 153.096 101.489 152.997 101.588C152.878 101.687 152.779 101.747 152.68 101.767C151.865 102.839 151.468 103.753 151.468 104.527C151.468 104.865 151.627 105.044 151.925 105.044C152.713 105.044 154.225 104.255 156.451 102.693C156.963 102.283 157.598 101.777 158.38 101.19C159.392 100.396 160.048 99.8999 160.326 99.6416C160.565 99.3238 160.843 99.1849 161.121 99.2246C161.3 99.2247 161.458 99.2842 161.617 99.4033C161.776 99.5423 161.896 99.6615 161.955 99.7607C162.015 99.86 162.035 99.9992 161.995 100.178C161.916 100.476 161.617 101.012 161.121 101.786C160.605 102.561 160.306 103.156 160.207 103.554C163.643 101.29 165.729 100.018 166.483 99.7402C166.642 99.6608 166.801 99.6211 166.94 99.6211C167.159 99.6212 167.357 99.7208 167.556 99.8994C167.754 100.098 167.854 100.297 167.854 100.476C167.853 100.793 167.655 101.329 167.258 102.084C166.861 102.839 166.662 103.554 166.662 104.269C166.662 104.924 166.9 105.48 167.396 105.957C167.615 106.176 167.734 106.374 167.734 106.533C167.734 106.771 167.575 106.891 167.277 106.891C166.682 106.89 166.185 106.632 165.748 106.096C165.311 105.56 165.093 104.884 165.093 104.09C165.093 103.296 165.272 102.561 165.609 101.786C165.014 102.044 163.901 102.74 162.253 103.872C160.605 105.004 159.552 105.56 159.135 105.56C158.936 105.56 158.757 105.48 158.578 105.321C158.419 105.162 158.34 104.984 158.34 104.785C158.34 104.05 158.658 103.117 159.313 101.965C159.095 102.144 158.737 102.422 158.28 102.819C157.907 103.115 157.617 103.348 157.386 103.531C157.338 103.581 157.286 103.628 157.228 103.673C154.765 105.58 152.838 106.553 151.408 106.553C150.932 106.553 150.555 106.394 150.257 106.097C149.959 105.799 149.8 105.361 149.8 104.825C149.8 104.388 149.88 103.971 150.019 103.594C149.184 104.329 148.191 104.984 147.02 105.6C145.848 106.215 144.834 106.514 143.98 106.514C143.583 106.514 143.226 106.394 142.928 106.136C142.63 105.878 142.491 105.52 142.491 105.063L142.458 104.889C142.486 104.464 142.607 104.031 142.82 103.608C142.791 103.637 142.762 103.665 142.729 103.693C141.498 104.627 140.088 105.402 138.519 106.037C136.95 106.673 135.52 106.991 134.249 106.991L133.835 106.999C132.936 106.947 132.173 106.71 131.548 106.275C130.833 105.799 130.475 105.084 130.475 104.15C130.475 102.76 131.25 101.41 132.799 100.119C134.348 98.8283 135.877 98.173 137.406 98.1729ZM194.428 99.2246C194.606 99.2246 194.766 99.2842 194.925 99.4033C195.084 99.5422 195.203 99.6615 195.263 99.7607C195.322 99.86 195.341 99.9992 195.302 100.178C195.222 100.476 194.924 101.012 194.428 101.786C193.911 102.561 193.614 103.157 193.515 103.554C196.951 101.29 199.036 100.018 199.791 99.7402C199.95 99.661 200.108 99.6212 200.247 99.6211C200.466 99.6211 200.665 99.7207 200.863 99.8994C201.062 100.098 201.161 100.297 201.161 100.476C201.161 100.793 200.963 101.33 200.565 102.084C200.168 102.839 199.97 103.554 199.97 104.269C199.97 104.924 200.208 105.48 200.704 105.957C200.923 106.176 201.042 106.374 201.042 106.533C201.042 106.771 200.883 106.891 200.585 106.891C199.989 106.891 199.493 106.632 199.056 106.096C198.619 105.56 198.4 104.884 198.4 104.09C198.4 103.296 198.579 102.561 198.917 101.786C198.321 102.044 197.209 102.74 195.561 103.872C193.913 105.004 192.86 105.559 192.442 105.56C192.244 105.56 192.064 105.48 191.886 105.321C191.727 105.162 191.647 104.984 191.647 104.785C191.647 104.05 191.966 103.117 192.621 101.965C192.403 102.144 192.045 102.422 191.588 102.819C191.111 103.197 190.774 103.474 190.516 103.673C190.118 103.951 189.8 104.09 189.602 104.09C189.443 104.09 189.304 104.03 189.185 103.911C189.105 103.832 189.066 103.713 189.065 103.574L189.047 103.429C189.099 103.288 189.185 103.162 189.304 103.058C189.88 102.601 190.655 101.965 191.688 101.19C192.7 100.396 193.356 99.8998 193.634 99.6416C193.872 99.324 194.15 99.185 194.428 99.2246ZM175.143 98.9268C175.619 99.2048 175.897 99.5228 176.017 99.8604C176.096 100.158 176.056 100.456 175.897 100.734C174.984 102.303 174.527 103.694 174.527 104.886C174.527 105.382 174.666 105.918 174.944 106.494C175.004 106.613 174.984 106.713 174.845 106.772C174.726 106.832 174.547 106.852 174.328 106.832C173.971 106.812 173.673 106.653 173.454 106.355C173.156 105.978 172.998 105.422 172.998 104.727C172.998 103.694 173.296 102.641 173.872 101.549L173.722 101.669C173.261 102.086 172.347 102.805 170.992 103.812C170.714 104.011 170.416 104.111 170.118 104.091C169.82 104.071 169.601 103.832 169.502 103.396C170.356 102.74 171.409 101.906 172.641 100.913C173.872 99.9202 174.706 99.2644 175.143 98.9268ZM185.868 99.8018C185.471 99.8018 184.875 100.001 184.101 100.378C183.326 100.755 182.631 101.252 182.035 101.867C181.916 101.986 181.816 102.185 181.757 102.463C181.697 102.741 181.558 102.999 181.359 103.237C180.605 104.191 180.228 104.886 180.228 105.323L180.236 105.416C180.276 105.707 180.453 105.859 180.783 105.859C181.796 105.859 183.067 105.224 184.597 103.933C186.126 102.642 186.881 101.53 186.881 100.616C186.881 100.08 186.543 99.8018 185.868 99.8018ZM137.069 99.543C136.394 99.543 135.619 99.8212 134.726 100.357C133.832 100.894 133.196 101.469 132.799 102.085C134.785 101.032 136.215 100.198 137.069 99.543ZM179.751 94.041C179.989 94.0808 180.187 94.2202 180.326 94.4385C180.465 94.657 180.505 94.9153 180.445 95.1934C180.425 95.2727 180.386 95.3526 180.347 95.4121C180.287 95.4915 180.247 95.5511 180.207 95.5908C180.167 95.6501 180.088 95.6897 179.989 95.749C179.89 95.8085 179.81 95.8483 179.771 95.8682C179.731 95.8682 179.631 95.9277 179.492 95.9873C179.353 96.0468 179.274 96.0865 179.254 96.1064C178.658 96.3646 178.082 96.7223 177.486 97.1592C177.308 97.2982 177.129 97.3187 176.97 97.2393C176.811 97.1399 176.771 96.9607 176.851 96.6826L176.965 96.376C177.256 95.6324 177.712 95.0216 178.32 94.5176C178.837 94.1204 179.314 93.9616 179.751 94.041ZM143.822 89.0557C144.279 89.0558 144.576 89.2751 144.695 89.7119L144.676 89.8057C144.686 89.8602 144.695 89.9297 144.695 89.9893C144.695 90.4858 144.08 91.2211 142.868 92.1943C141.657 93.1675 140.326 94.0409 138.876 94.8154C138.598 94.9542 138.4 95.034 138.301 95.0342C138.043 95.0342 137.903 94.8949 137.903 94.6367C137.903 94.5375 137.963 94.4381 138.062 94.3389C139.294 93.3062 140.684 91.9555 142.232 90.2676C142.272 90.2279 142.353 90.1485 142.472 90.0293C142.59 89.9105 142.65 89.831 142.689 89.7715C142.729 89.7119 142.789 89.652 142.889 89.5527C142.988 89.4535 143.048 89.3737 143.127 89.334C143.206 89.2944 143.266 89.2547 143.345 89.1953C143.424 89.1358 143.504 89.1155 143.583 89.0957C143.662 89.0957 143.723 89.0557 143.822 89.0557ZM145.867 82.3027C167.079 74.6165 183.306 74.2592 203.167 84.1699L199.93 90.0293H199.909C193.256 86.8117 170.713 75.3315 131.011 88.0029C134.109 86.6524 138.558 84.9443 145.867 82.3027ZM99.4717 83.375C114.705 77.9729 127.853 77.4162 141.835 81.9443L138.757 83.1758C137.759 83.578 136.781 83.9703 135.817 84.3477C124.119 81.2494 108.648 80.9321 99.4717 83.375ZM134.805 43.8311C134.864 43.8311 134.904 43.9111 134.904 43.9111L135.122 45.5L135.479 48.5586C135.499 48.5973 135.575 48.6358 135.579 48.6377L137.883 48.7764L137.844 49.2539L135.639 49.4922C135.599 49.5124 135.56 49.6113 135.56 49.6113L136.136 53.3643C136.155 53.4029 136.23 53.4422 136.234 53.4443H138.896L138.697 53.9609C138.697 53.9998 138.621 54.0199 138.618 54.0205L136.413 54.1592C136.354 54.1596 136.314 54.2588 136.314 54.2588L136.632 57.2373C136.632 57.277 136.731 57.3174 136.731 57.3174L142.272 57.2773C142.332 57.2773 142.372 57.377 142.372 57.377L142.332 59.2637C142.332 59.3232 142.432 59.3633 142.432 59.3633L149.7 59.3232C149.74 59.3232 149.78 59.3633 149.78 59.3633L151.369 61.0508C151.408 61.1093 151.313 61.2065 151.31 61.21L150.416 61.3887C150.377 61.408 150.338 61.4645 150.336 61.4678L149.343 65.54C149.303 65.6985 149.164 65.7782 149.006 65.7783H148.854C148.69 65.7979 148.568 65.9394 148.568 66.0957V69.373C148.569 69.4325 148.668 69.4727 148.668 69.4727L161.558 69.5918C161.616 69.5918 161.655 69.6861 161.657 69.6904L161.855 73.0674C161.856 73.1261 161.953 73.1651 161.955 73.166L175.202 72.4121H175.262L179.354 69.5918L180.128 68.7373C180.166 68.6988 180.13 68.6042 180.128 68.5986L178.618 67.0293C178.599 67.0097 178.599 66.9711 178.599 66.9697L178.52 65.5195C178.519 65.4613 178.424 65.4225 178.42 65.4209H172.362C172.164 65.4209 172.025 65.5797 172.064 65.7783V65.9766C172.084 66.0956 172.164 66.1946 172.263 66.2344L177.586 68.4795L176.851 68.5186H176.812L170.635 66.791C170.596 66.791 170.557 66.7168 170.555 66.7119L170.436 65.2021C170.436 65.1624 170.516 65.1025 170.516 65.1025L177.725 64.0107H177.765L181.876 65.2812C181.916 65.2815 181.936 65.3613 181.936 65.3613L182.095 69.2334C182.095 69.2913 182.188 69.3308 182.193 69.333L192.879 68.0625C192.919 68.0625 192.958 67.9824 192.958 67.9824L193.614 64.5068L194.27 59.0645C194.269 59.0247 194.189 58.9658 194.189 58.9658L193.355 58.8066L193.296 58.7471L192.998 58.1514L194.468 58.0918C194.527 58.0918 194.567 57.9922 194.567 57.9922L193.117 46.6719C193.117 46.6322 193.058 46.5918 193.058 46.5918L191.488 46.0156L193.058 46.0557C193.117 46.0557 193.157 45.9561 193.157 45.9561L193.077 45.1816H193.494L193.574 46.334C193.574 46.3737 193.634 46.4131 193.634 46.4131L195.063 47.0293H193.733C193.674 47.0293 193.634 47.1484 193.634 47.1484L195.441 58.0322C195.461 58.0704 195.535 58.1085 195.54 58.1113L199.672 58.0723L199.096 58.707C199.077 58.745 199.039 58.747 199.036 58.7471L195.818 58.9658C195.761 58.9658 195.721 59.0586 195.719 59.0645L196.692 67.5254C196.692 67.5651 196.732 67.6055 196.792 67.6055L215.501 65.917V66.1357L208.391 75.9072C206.808 78.4767 208.716 79.5099 210.188 79.9072L210.535 79.9395C210.654 79.9593 210.635 80.1182 210.516 80.1182L201.082 80.2168H201.042C183.087 72.5504 163.285 73.0269 144.576 80.6338C144.358 80.7132 144.159 80.8131 143.94 80.8926C129.065 75.4309 114.527 75.5502 98.6377 81.4092H98.5977C98.4808 81.4286 97.3754 81.41 97.3467 81.4092C97.3835 81.4066 96.7305 76.8039 96.0771 72.2627L92.5 72.3135V70.8232L95.8789 70.8965C95.705 69.6911 95.5352 68.5242 95.3848 67.4863L92.7578 67.1885C92.8174 66.6921 92.8776 66.2152 92.957 65.7188L95.1768 66.0518C94.9509 64.4961 94.8037 63.4736 94.8037 63.4736C94.7643 63.2752 94.9038 63.0771 95.1221 63.0771H95.3604C95.5391 63.0771 95.6777 62.9375 95.6777 62.7588V62.6299L93.6914 62.1445C93.8106 61.6679 93.9502 61.1905 94.0693 60.7139L95.3936 61.0898L94.7246 60.1973L94.9434 59.8994L96.79 61.3691C96.8298 61.389 96.8301 61.4287 96.8301 61.4287L96.8389 61.5L103.722 63.4551L103.424 64.5273L102.973 64.416L102.849 67.2031L102.888 67.209C102.867 67.3387 102.849 67.4661 102.832 67.5928L102.769 69.0352C102.769 69.0947 102.868 69.1348 102.868 69.1348L108.271 69.1738C108.33 69.1734 108.369 69.0947 108.369 69.0947L108.786 63.4541L109.243 60.2568C109.263 60.2171 109.343 60.1768 109.343 60.1768H110.792L113.514 60.5742C113.553 60.5746 113.593 60.6543 113.593 60.6543L114.367 66.0361L114.328 69.3135C114.328 69.372 114.424 69.4118 114.427 69.4131L125.986 69.6309C126.044 69.6308 126.084 69.5377 126.086 69.5322V66.3535C126.085 66.2954 125.99 66.2564 125.986 66.2549H118.102C117.923 66.2549 117.783 66.1153 117.783 65.9365C117.783 65.758 117.923 65.6191 118.102 65.6191H126.185C126.224 65.6191 126.283 65.5608 126.284 65.5596L126.96 63.7725L128.43 59.1445C128.45 59.0849 128.429 59.0254 128.369 59.0254L127.297 58.707V58.3301L130.336 58.1113C130.514 58.0915 130.634 57.9529 130.634 57.7744V57.5947C130.614 57.4163 130.773 57.2581 130.951 57.2578H134.487C134.547 57.2574 134.586 57.1777 134.586 57.1777L135.143 54.3184C135.143 54.2588 135.062 54.1992 135.062 54.1992L133.931 53.9404C133.893 53.9212 133.855 53.8479 133.852 53.8418V53.3643L135.103 53.3252C135.162 53.3252 135.202 53.2256 135.202 53.2256L134.328 43.8311H134.805ZM173.415 68.0625C173.451 68.5116 173.484 68.9611 173.505 69.3955L175.043 69.3545L175.103 71.2012L162.63 71.916L162.451 69.6914L163.479 69.6631C163.464 69.4356 163.449 69.2098 163.425 68.9766L166.265 68.7178L167.575 68.5986L173.415 68.0625ZM110.296 65.8174L110.634 69.333H112.521L113.136 65.2617L112.521 61.667L110.296 61.3486V65.8174ZM172.898 64.4482L163.027 66.2559C162.968 65.8984 162.888 65.5206 162.809 65.1631L172.601 62.998C172.7 63.4747 172.799 63.9716 172.898 64.4482ZM129.859 61.7461L130.157 63.2354L131.189 63.1562L130.991 61.6865L129.859 61.7461ZM131.429 61.667L131.627 63.1367L132.759 63.0566L132.561 61.6074L131.429 61.667ZM132.997 61.5869L133.196 63.0371H133.216L134.348 62.958L134.149 61.5273L132.997 61.5869ZM135.639 61.4482L134.566 61.5078L134.765 62.918L135.857 62.8389L135.679 61.4482H135.639ZM148.906 62.918H149.224L149.521 61.7266L149.164 61.6465L148.906 62.918ZM148.409 61.4883L148.132 62.8389L148.549 62.8779L148.827 61.5869L148.43 61.4883H148.409ZM136.155 61.4287L136.334 62.8184H137.903V61.4287H136.155ZM138.38 61.4287V62.8184H139.929V61.4287H138.38ZM140.386 61.4287V62.8184H141.875V61.4287H140.386ZM142.372 61.4287V62.8184H143.98V61.4287H142.372ZM144.478 61.4287V62.8184H146.086L146.186 61.4287H144.478ZM146.622 61.4287L146.543 62.8184H147.675L147.933 61.4287H146.622ZM171.15 58.0928C171.309 58.5495 171.488 59.0263 171.627 59.5029L162.074 62.541V62.5215C161.955 62.164 161.836 61.8064 161.717 61.4688L171.15 58.0928ZM105.032 59.8203C104.873 60.1579 104.735 60.5159 104.596 60.8535L95.2412 57.2383C95.4199 56.7817 95.6179 56.3248 95.8164 55.8682L105.032 59.8203ZM160.664 58.9268H160.644L160.66 58.9189C160.661 58.9215 160.663 58.9242 160.664 58.9268ZM169.085 53.3857C169.303 53.8225 169.542 54.2592 169.74 54.7158L160.66 58.9189C160.502 58.5839 160.344 58.249 160.167 57.9336L169.085 53.3857ZM106.78 56.3447C106.582 56.6624 106.402 56.9997 106.224 57.3174L97.4053 52.5713C97.6436 52.1344 97.8825 51.7172 98.1406 51.2803L106.78 56.3447ZM166.443 48.9561C166.721 49.3533 167 49.7704 167.258 50.1875L158.797 55.5303V55.5498C158.598 55.2322 158.399 54.9348 158.181 54.6172L166.443 48.9561ZM108.984 53.1865C108.746 53.4843 108.528 53.7823 108.31 54.0801L100.166 48.2412C100.464 47.844 100.763 47.4467 101.061 47.0693L108.984 53.1865ZM163.226 44.9443C163.563 45.3018 163.881 45.679 164.199 46.0762L156.493 52.4521V52.4316C156.255 52.1536 156.016 51.8558 155.758 51.5977L163.226 44.9443ZM111.566 50.2676C111.308 50.5256 111.03 50.8032 110.772 51.0811L103.443 44.2686C103.781 43.9111 104.119 43.5544 104.477 43.2168L111.566 50.2676ZM159.552 41.3496C159.929 41.6673 160.307 42.0052 160.664 42.3428L152.997 48.877L159.552 41.3496ZM114.506 47.7646C114.208 47.983 113.911 48.2217 113.633 48.46L107.217 40.7734C107.594 40.4557 107.991 40.1573 108.389 39.8594L114.506 47.7646ZM155.42 38.251C155.837 38.5289 156.254 38.807 156.651 39.085L150.812 47.1689V47.1885C150.515 46.97 150.197 46.7513 149.879 46.5527L155.42 38.251ZM117.704 45.5801C117.386 45.7588 117.069 45.9577 116.751 46.1562L111.388 37.7549C111.805 37.4967 112.242 37.2377 112.659 36.9795L117.704 45.5801ZM150.972 35.6895C151.428 35.9078 151.865 36.1459 152.302 36.3643L147.516 45.123V45.1426C147.178 44.9639 146.86 44.7858 146.522 44.627L150.972 35.6895ZM121.199 43.8721C120.862 44.0111 120.505 44.1703 120.167 44.3291L115.937 35.292C116.393 35.0736 116.85 34.875 117.307 34.6963L121.199 43.8721ZM146.185 33.7227C146.661 33.8815 147.118 34.0605 147.595 34.2393L143.98 43.5342V43.5146C143.623 43.3756 143.285 43.2559 142.928 43.1367L146.185 33.7227ZM124.854 42.6201C124.496 42.7194 124.119 42.8194 123.762 42.9385L120.743 33.4443C121.22 33.3053 121.696 33.1465 122.173 33.0273L124.854 42.6201ZM140.267 42.3623L140.246 42.3818L140.251 42.3584C140.256 42.3595 140.261 42.3612 140.267 42.3623ZM141.18 32.3721C141.676 32.4714 142.173 32.5908 142.649 32.71L140.251 42.3584C139.899 42.2795 139.546 42.1828 139.174 42.124L141.18 32.3721ZM128.707 41.8262L128.488 41.8662C128.19 41.9059 127.872 41.9649 127.555 42.0244L125.768 32.2129C126.185 32.1335 126.582 32.0742 126.999 32.0146L127.218 31.9746L128.707 41.8262ZM136.056 31.6572C136.552 31.6969 137.049 31.7363 137.545 31.7959L136.433 41.6875C136.056 41.6478 135.679 41.6078 135.321 41.5879L136.056 31.6572ZM132.561 41.5088C132.183 41.5088 131.805 41.5081 131.428 41.5479L130.892 31.6172C131.388 31.5973 131.885 31.5775 132.382 31.5576L132.561 41.5088Z" fill="var(--fill-0, #002C41)"/>
</g>
</svg>
