<svg preserveAspectRatio="none" width="100%" height="100%" overflow="visible" style="display: block;" viewBox="0 0 307 155" fill="none" xmlns="http://www.w3.org/2000/svg">
<g id="Frame 74">
<path id="Union" d="M73.066 53.1584C73.7132 52.7016 74.8368 52.664 75.3697 53.2541C75.8073 53.7299 75.8259 54.5485 75.9401 55.1955L77.5201 64.7306C77.7485 66.0629 77.8243 67.3383 77.691 68.6515C77.653 69.1272 77.1777 69.6408 76.8541 69.8312C76.4164 70.0977 75.7499 70.0985 75.3121 69.7179C74.8363 69.2992 74.5889 68.6326 74.4176 67.9855C73.5421 64.6738 71.6578 57.327 67.0328 58.5832C63.55 59.535 62.332 67.8141 67.8893 73.1242C69.3738 74.5517 70.878 75.6751 72.5719 76.8742C81.8978 83.4977 86.2185 94.118 83.649 105.404C82.4499 110.639 78.9475 114.73 73.5231 115.644C67.3945 116.671 61.5133 114.578 59.61 108.164L59.6295 108.183C59.0396 106.184 58.9816 104.3 59.0768 102.302C59.21 99.3139 60.5237 96.4399 63.9303 96.592C65.8146 96.6681 67.4327 97.7154 68.3463 99.3713C68.8023 100.209 66.177 102.321 66.8619 106.508C67.1094 108.031 67.8515 109.553 69.2028 110.353C71.2773 111.571 73.7513 110.714 75.1598 108.868C76.3208 107.327 76.8347 105.575 77.1012 103.634C77.7863 98.5522 76.3401 93.5655 72.9332 89.7209C71.3345 87.9128 69.6021 86.3905 67.6608 84.9631C62.541 81.1755 58.7156 77.4638 58.0875 70.7453C57.783 67.4526 58.2592 64.236 59.7819 61.381C61.9707 57.27 66.1579 55.0054 70.7828 55.7287C71.2014 55.7857 71.7723 55.7284 72.0768 55.5383C72.9522 54.9863 72.5904 53.5011 73.066 53.1584ZM182.734 85.5529C183.952 85.3626 185.152 85.438 186.199 86.0851C187.074 86.6371 187.379 87.6843 186.789 88.5597C186.408 89.1307 185.875 89.5686 185.038 89.759C185 89.4164 185.038 89.0161 185.114 88.6545C185.285 87.6841 184.542 86.9796 183.667 86.9035C181.079 86.6565 181.783 90.7677 181.707 92.4045L185 92.3097C185.19 92.3104 185.285 92.842 185.228 93.0324C185.171 93.2227 184.904 93.5649 184.695 93.5461L181.707 93.508V103.824C181.707 105.27 183.267 104.776 183.229 105.518C183.229 105.727 182.963 105.918 182.715 105.994C181.269 106.432 179.86 107.098 178.49 107.745C178.375 107.802 177.995 107.764 177.88 107.707C177.177 107.212 178.89 106.774 178.909 104.243V93.7746C178.071 93.1086 177.501 93.7173 176.835 93.1847C176.72 93.0896 176.967 92.6335 177.138 92.5949L178.909 92.3097L179.042 89.5871C179.137 87.4367 180.698 85.8956 182.734 85.5529ZM145.335 85.0383C145.525 85.0573 145.715 85.4573 145.715 85.6857L145.83 89.4162C145.83 89.5875 145.602 89.9113 145.468 89.9494C144.802 90.1397 144.821 88.9594 143.946 87.8175C143.013 86.5995 141.395 86.1617 140.025 86.8468C139.359 87.1704 138.94 87.8741 138.864 88.5021C138.502 91.3 143.889 91.7575 146.078 94.4982C147.067 95.7352 147.219 97.2957 146.706 98.8371C146.287 100.074 145.202 101.159 143.774 101.711C141.433 102.606 138.845 102.283 136.561 101.141L136.599 101.103C135.895 100.741 135.533 100.341 135.685 99.5031C135.819 98.7794 136.789 96.2688 137.721 96.8009C138.273 97.1245 137.703 98.8758 139.169 100.094C140.634 101.312 142.823 101.026 143.926 99.5988C144.783 98.4759 144.554 97.0295 143.507 96.173C140.976 94.1176 135.857 93.4129 136.313 89.0929C136.675 85.8194 140.443 84.5248 143.546 85.5715C144.649 85.952 144.745 84.9436 145.335 85.0383ZM189.015 93.4513C191.185 91.5862 194.44 91.5479 196.743 93.2228C197.999 94.1364 198.589 95.545 198.608 96.9914C198.627 98.4379 198.037 99.885 196.761 100.856C194.458 102.625 191.166 102.702 188.939 100.856C186.617 98.9523 186.731 95.3927 189.015 93.4513ZM150.797 95.6213C151.691 92.6331 155.327 91.1869 158.239 92.5383C159.895 93.2996 160.808 95.0505 160.389 96.8967L153.347 96.9728C153.309 98.1719 153.88 99.6187 155.174 100.19C156.735 100.894 158.487 100.36 159.667 99.3136C159.819 99.1805 160.123 99.0857 160.256 99.1427C160.428 99.2192 160.58 99.6566 160.485 99.8088C158.639 102.797 154.013 102.949 151.767 100.475C150.587 99.1806 150.264 97.4102 150.797 95.6213ZM225.463 85.381C225.863 85.381 226.206 85.267 226.51 85.4572V99.4084C226.51 100.95 228.337 100.608 227.957 101.179C227.88 101.293 227.653 101.482 227.501 101.521L224.741 102.15C224.455 102.207 224.15 101.597 223.979 101.083H223.961C222 102.473 219.278 102.739 217.47 100.893C215.396 98.7992 215.643 95.2024 217.85 93.299C219.563 91.8144 221.772 91.7189 223.846 92.6134V87.8361C223.846 86.2568 222.419 86.5231 222.152 86.0285C222.076 85.8954 222.399 85.5145 222.551 85.5138L225.463 85.381ZM239.167 92.005C239.281 92.005 239.434 92.3093 239.453 92.4425V94.8215C239.453 94.9737 239.205 95.2588 239.072 95.297C238.939 95.3351 238.615 95.1261 238.577 94.9738C238.158 93.5464 236.711 92.7094 235.284 93.1662C234.846 93.2996 234.465 93.775 234.427 94.1935C234.389 94.5171 234.733 95.1262 235.094 95.2785L237.283 96.2677L237.263 96.2873C238.767 96.9725 240.1 97.8483 239.872 99.6564C239.795 100.284 239.281 101.046 238.596 101.445C236.864 102.454 234.866 102.359 233.001 101.674C232.677 101.56 231.935 101.826 231.878 101.197C231.839 100.759 231.573 98.21 232.201 98.3049C232.334 98.3239 232.524 98.5139 232.582 98.6662C233.191 100.303 234.828 101.407 236.541 100.969C237.073 100.836 237.511 100.265 237.568 99.8468C237.663 99.2378 237.264 98.7232 236.693 98.4377L233.685 96.9728C232.81 96.5541 232.22 95.735 232.22 94.8976C232.22 93.889 232.677 93.0321 233.609 92.5754C234.884 91.9282 236.293 91.872 237.682 92.3097C238.596 92.5952 238.444 91.9482 239.167 92.005ZM205.63 92.3283C207.515 91.7573 209.571 92.0047 211.208 93.1467C212.559 94.0982 213.263 95.6589 213.206 97.2765C213.149 98.8372 212.349 100.379 210.827 101.274C208.962 102.378 206.696 102.473 204.774 101.636C202.566 100.665 201.539 98.3621 202.09 96.0402C202.509 94.2512 203.842 92.8613 205.63 92.3283ZM164.976 94.5363C165.147 92.0051 168.954 91.6813 171.009 92.3664C172.247 92.7661 172.97 93.8133 172.97 95.1076V99.7326C172.97 100.303 173.389 100.665 173.922 100.627C174.055 100.627 174.359 100.76 174.397 100.874C174.435 101.026 174.284 101.407 174.131 101.445C173.332 101.693 172.361 102.035 171.543 102.188C171.086 102.15 170.724 101.408 170.496 100.97V100.988C168.535 102.53 164.881 102.683 164.214 100.551C163.891 99.5612 164.063 98.533 164.843 97.8478C166.537 96.3826 168.269 96.4585 170.477 96.173C170.496 95.6022 170.496 95.0124 170.401 94.4797C170.268 93.7183 169.563 93.2614 168.839 93.2424C166.537 93.1475 166.137 95.1837 165.338 95.1076C165.166 95.1071 164.957 94.7265 164.976 94.5363ZM192.631 93.09C191.642 93.2042 190.785 93.7938 190.423 94.7834C189.852 96.3631 189.872 98.1333 190.652 99.5988C191.204 100.627 192.175 101.197 193.279 101.121C194.268 101.064 195.182 100.436 195.562 99.4084C196.19 97.7146 196.057 95.8308 195.087 94.2892C194.535 93.4137 193.545 92.9949 192.631 93.09ZM207.496 93.0705C206.677 93.0706 205.784 93.4326 205.365 94.2697C204.489 96.0017 204.489 98.1905 205.498 99.8273C206.031 100.703 207.021 101.141 207.934 101.065C208.791 100.988 209.685 100.531 210.085 99.5607V99.5988C210.808 97.8669 210.674 95.8879 209.742 94.3273C209.247 93.5089 208.371 93.0705 207.496 93.0705ZM223.808 94.2883C223.542 93.3367 222.038 93.0701 221.219 93.2033C220.306 93.3555 219.545 94.0029 219.183 94.9543C218.46 96.8766 218.707 100.151 221.201 100.684C222.057 100.874 223.409 100.683 223.808 99.7697C223.922 97.9236 223.96 96.0392 223.808 94.2883ZM170.458 97.1056C169.049 97.1627 166.462 97.5435 166.632 99.3322C166.69 99.9413 167.222 100.456 167.85 100.589C168.802 100.798 169.791 100.399 170.458 99.6945V97.1056ZM92.4225 30.9279C92.8412 30.2237 93.9268 29.8055 94.6881 30.091C95.487 30.3766 95.4871 31.1755 95.6393 31.8605C96.3054 34.5632 97.4476 37.0376 98.818 39.4357L100.455 42.2912C100.588 42.5384 100.683 42.6904 100.874 42.9377C102.606 45.1836 103.043 47.3155 105.384 46.1925L116.576 41.6056C117.813 41.1107 122.172 38.8653 122.781 41.3205C123.351 43.6423 119.049 45.5647 117.451 46.4592C116.366 47.0682 114.919 47.8102 112.503 49.9035C111.475 50.798 108.087 52.4732 107.992 54.091C107.897 55.6327 109.343 56.4323 110.314 57.422L111.513 58.6398L114.215 61.3049C115.795 62.8656 119.203 65.283 119.793 67.3195C120.039 68.119 118.859 69.6218 117.641 68.9748C114.786 67.5092 109.096 64.5216 106.907 62.6564C103.595 59.8205 100.588 60.5818 99.1793 61.7238C98.5703 62.2188 97.6762 63.4747 97.3717 64.1408C99.6936 63.8554 101.236 64.8453 102.187 65.5304C104.661 67.3197 106.736 71.1829 107.592 73.0099L108.792 75.5793C108.906 75.8267 108.944 76.284 108.868 76.4933C108.754 76.7598 108.239 77.0065 107.954 77.0256C107.059 77.0446 106.679 76.4168 106.241 75.8078L105.517 74.7424L104.947 74.0002C104.947 74.0002 103.309 71.6966 102.757 71.0304C102.698 70.97 101.462 69.3542 100.074 68.4797C99.1409 67.8903 96.6287 69.7172 96.1529 70.0597C93.4123 72.0201 91.3952 74.6087 89.7203 77.4826C89.0351 78.6626 88.3303 79.7289 88.5778 81.1564C88.8823 82.9644 89.9866 84.373 91.2047 85.6672C91.9469 86.4665 92.5944 87.3043 93.6031 87.9513V87.9699C96.2676 89.7018 99.3887 91.1479 102.529 91.0529C103.538 91.0148 104.052 90.1398 104.261 89.2834C105.099 85.8955 101.178 85.686 100.379 85.2101C99.9218 84.9436 99.7506 84.1249 100.683 83.7062C102.092 83.0783 103.862 83.9154 105.384 84.3342C105.384 84.3342 112.636 86.4851 113.531 86.6183C114.425 86.7517 115.338 87.4181 114.653 88.008C112.179 90.1016 110.77 93.0327 110.808 95.3927C110.808 96.2683 109.723 96.8009 108.981 96.6486C106.279 96.1156 106.221 94.6122 102.529 94.1935C99.1602 93.8129 95.9437 93.1469 92.8033 91.8527C91.4712 91.3008 90.2723 90.6345 88.9781 89.9875C85.2667 88.1413 82.6782 85.8569 81.4791 81.7267C80.9272 79.8235 81.0225 77.7301 81.8219 75.884L82.3541 74.6467C82.8679 73.4668 83.6673 71.8496 84.1432 71.1261C85.932 68.4619 89.7763 65.3978 90.7096 64.674L91.6617 63.7795C93.1652 62.3521 92.4038 59.1736 90.8434 58.0314C87.6269 55.6714 81.5172 56.6986 77.7867 56.3371L77.2154 53.5392C77.5962 53.3679 80.1089 52.6451 80.775 52.5119C83.3443 51.979 86.9411 51.6358 89.5485 51.3693C93.8498 50.9125 93.1842 47.9436 93.1842 42.0627C93.1842 40.6923 92.8418 38.1414 92.5944 36.4474L92.232 33.8976C92.0988 32.8889 91.8515 31.8795 92.4225 30.9279ZM156.869 93.4328C155.955 92.8618 154.679 93.0519 154.013 93.9465C153.576 94.5174 153.385 95.2028 153.309 95.9259H157.801V95.9064C157.877 94.7268 157.554 94.0607 156.869 93.4328ZM242.898 57.5744C243.05 57.5744 243.222 58.0501 243.127 58.2023C242.765 58.8302 240.881 58.7541 240.88 59.6672V72.9523C240.9 73.6565 241.186 74.3044 241.985 74.3615C248.113 74.8942 247.961 71.7731 249.084 71.8107L249.065 71.8293C250.187 71.8679 248.361 75.56 248.018 76.3595C247.638 77.216 246.8 76.1691 244.801 76.0929C241.718 75.9787 238.425 76.0744 235.399 76.1506C235.228 76.1505 234.961 75.7691 235.056 75.6359C235.684 74.7606 237.303 75.3886 237.284 73.257L237.17 59.7052C237.169 58.6779 234.904 58.7346 234.828 58.0685C234.79 57.8022 235.114 57.5168 235.437 57.5168L242.898 57.5744ZM136.123 55.6134C136.351 55.6134 136.618 55.9373 136.656 56.1847C136.941 57.9355 137.17 59.5341 137.284 61.3039C137.284 61.4942 136.903 61.8947 136.713 61.8566C135.875 61.7421 136.008 59.6488 134.048 58.3547C132.887 57.5933 131.536 57.3071 130.26 57.8781C129.575 58.1826 129.043 58.8106 128.89 59.3625C128.452 60.9422 129.537 62.0655 130.946 62.8078L134.962 64.9396C136.027 65.5106 137.112 66.2722 137.836 67.2619C139.929 70.1359 138.863 74.1514 135.589 75.6359C133.039 76.8159 129.956 76.6826 127.386 75.4074V75.4269C125.369 74.4182 124.57 72.0772 125.673 70.2502C126.168 69.4317 127.177 69.2415 128.072 69.4699C129.29 69.7745 130.032 71.2589 129.518 71.9631C129.309 72.2483 128.871 72.1536 128.129 72.3058C127.977 72.3256 128.243 72.7997 128.319 72.9142C129.632 74.8556 132.374 75.3124 134.315 73.9611C135.095 73.4282 135.514 72.5528 135.533 71.6965C135.647 68.3086 130.356 67.5467 127.482 65.0724C126.131 63.9114 125.464 62.2179 125.75 60.3908C125.978 58.8872 127.044 57.4217 128.586 56.6984C130.47 55.8039 132.487 55.8799 134.41 56.6222C135.457 57.0219 135.457 55.5755 136.123 55.6134ZM210.485 56.2218C210.675 56.184 211.075 56.4505 211.151 56.6408C211.874 58.4869 212.426 60.181 212.864 62.1222C212.921 62.3887 212.73 62.8269 212.521 62.884C212.255 62.9599 211.855 62.8268 211.741 62.5226C210.332 59.1348 206.184 57.6311 203.024 59.5724C201.939 60.2386 201.197 61.3807 200.759 62.5988C199.713 65.5107 199.883 68.822 201.292 71.5246C202.548 73.9417 205.212 75.1407 207.744 74.3605C209.266 73.8847 210.047 72.5338 209.933 71.0304C209.724 68.0617 206.945 69.0693 206.925 68.0802C206.925 67.8329 207.249 67.5473 207.553 67.547V67.5656H214.939C215.148 67.5662 215.357 67.9466 215.3 68.0988C215.053 68.9363 213.283 68.3654 213.283 70.1925V76.0353C212.56 76.2257 211.703 76.2451 210.999 75.9787L210.162 74.8742C206.165 77.634 199.731 76.6062 197.371 72.1144C195.582 68.7267 195.792 64.5398 197.847 61.3234C200.112 57.7642 204.338 56.3557 208.335 57.4025C209.99 57.8399 209.914 56.317 210.485 56.2218ZM163.606 56.2795C164.044 56.032 164.767 56.1655 164.958 56.6603L171.676 73.6759C172.362 75.4077 173.656 74.818 173.77 75.6174C173.789 75.7886 173.504 76.111 173.333 76.1115C171.106 76.0925 169.069 76.074 166.861 76.2072C166.499 76.2262 166.175 76.1498 166.137 75.7502C166.042 74.989 168.174 75.1406 167.908 74.0558C167.641 73.0473 167.222 72.1337 166.747 71.0871H160.79V71.0685L159.895 73.5422C159.8 73.7896 159.895 74.4373 160.086 74.6086C160.752 75.2744 161.684 74.9894 161.76 75.6174C161.798 75.8646 161.475 76.1113 161.209 76.1115H155.955C155.764 76.1114 155.441 76.0356 155.365 75.9025C154.927 75.1223 156.982 75.4645 157.782 73.4093L162.579 61.133C162.788 60.6192 162.236 59.8962 161.951 59.6105C161.075 58.716 160.066 59.8766 159.667 58.8869C159.591 58.6965 159.819 58.3726 160.066 58.2394L163.606 56.2795ZM229.461 56.9074C229.746 56.812 230.43 56.4513 230.583 56.8508C231.077 58.0687 231.496 59.3437 231.896 60.5998C231.953 60.771 231.82 61.152 231.725 61.2853C231.611 61.4376 231.078 61.4181 230.963 61.2658C229.308 58.5636 226.795 58.7733 223.922 59.0588V65.4533L227.214 65.4152C227.957 65.4149 228.109 64.1593 228.623 64.0832C229.917 63.8929 230.678 68.7077 229.479 68.7648C228.28 68.8219 229.936 66.5571 223.922 67.1281V73.3146C223.941 73.8473 224.473 74.3989 224.987 74.4562C230.868 75.1604 231.04 71.6965 232.125 72.0197C233.133 72.3242 231.42 75.3888 231.078 76.1691H218.821C218.574 76.1691 218.25 76.0361 218.173 75.8459C217.793 74.9323 220.324 75.5791 220.324 73.4093V60.5617C220.324 57.7072 216.994 59.0207 218.307 57.3459C220.858 57.3459 227.31 57.6877 229.461 56.9074ZM185.114 57.2892C187.246 57.0989 189.225 57.5745 190.938 58.7736C192.803 60.2582 193.203 62.7709 192.175 64.9406C191.338 66.6915 189.72 67.7188 187.797 68.3088C189.149 70.3072 190.462 72.1349 191.889 73.9621C192.403 74.6282 193.089 75.0091 193.869 75.2756C194.002 75.4277 194.155 75.6555 194.155 75.8078C194.155 75.9599 193.794 76.1502 193.641 76.1506L189.777 76.1125C189.472 76.1124 188.958 75.6939 188.768 75.4465L184.181 69.4133C183.801 68.9184 183.096 68.6898 182.525 69.0324V73.5617C182.506 75.4266 184.39 74.7996 184.581 75.6554C184.619 75.8266 184.277 76.1317 184.087 76.132H177.539C177.291 76.132 176.968 76.0362 176.911 75.8459C176.607 74.8755 178.871 75.5223 178.852 73.3908V60.4679C178.833 58.3173 176.911 58.7736 176.568 58.0695C176.492 57.9172 176.721 57.4416 176.93 57.4416C179.633 57.5557 182.411 57.5557 185.114 57.2892ZM141.851 56.2033C142.422 55.9939 142.518 56.9265 143.355 57.1359C146.724 57.9924 151.463 58.9058 154.527 57.0217L155.136 56.6408C155.27 56.5461 155.726 56.9075 155.688 57.0978L154.927 60.2004C154.889 60.3335 154.718 60.543 154.623 60.5812C153.957 60.8096 153.823 59.7053 151.653 59.7814L150.016 59.839V73.2384L149.998 73.2951C149.998 75.4455 151.881 74.7418 152.262 75.5217C152.357 75.731 152.091 76.0929 151.767 76.0929H144.497C144.287 76.0926 144.078 75.5978 144.192 75.4836C144.744 74.9316 146.343 74.9891 146.343 73.7902V60.2961C146.343 58.9447 142.536 58.7924 141.28 61.1525C141.146 61.3995 140.652 61.4561 140.481 61.38C140.31 61.3038 140.176 60.9043 140.253 60.6759L141.49 56.6222C141.528 56.489 141.718 56.2414 141.851 56.2033ZM161.323 69.3556L166.137 69.298L163.644 63.1506L161.323 69.3556ZM188.14 60.5431C186.998 58.7734 184.333 58.5645 182.525 59.1164V67.3381C183.8 67.4332 185 67.376 186.161 67.0334C188.958 66.1959 189.473 62.6753 188.122 60.5627L188.14 60.5431Z" fill="var(--fill-0, #002C41)"/>
</g>
</svg>
