<svg preserveAspectRatio="none" width="100%" height="100%" overflow="visible" style="display: block;" viewBox="0 0 307 88.0004" fill="none" xmlns="http://www.w3.org/2000/svg">
<g id="Frame 76">
<path id="Union" d="M73.0667 23.1589C73.7139 22.7023 74.8366 22.6647 75.3694 23.2546C75.8071 23.7305 75.8266 24.549 75.9407 25.196L77.5198 34.7312C77.7482 36.0635 77.8249 37.3388 77.6917 38.6521C77.6536 39.1279 77.1774 39.6414 76.8538 39.8318C76.4161 40.0982 75.7506 40.0981 75.3128 39.7175C74.837 39.2988 74.5896 38.6331 74.4183 37.9861C73.5428 34.6743 71.6576 27.3275 67.0325 28.5837C63.5499 29.536 62.3326 37.8148 67.89 43.1247C69.3745 44.5521 70.8777 45.6757 72.5716 46.8747C81.8976 53.4982 86.2182 64.1185 83.6487 75.405C82.4497 80.6388 78.9478 84.7305 73.5237 85.6443C67.3951 86.672 61.513 84.5789 59.6097 78.1648L59.6292 78.1833C59.0393 76.185 58.9823 74.3008 59.0775 72.3025C59.2107 69.3143 60.5241 66.4402 63.931 66.5925C65.8151 66.6688 67.4325 67.716 68.346 69.3718C68.8022 70.2094 66.1766 72.3218 66.8616 76.5085C67.109 78.0311 67.8513 79.5538 69.2025 80.3533C71.2771 81.5714 73.752 80.7151 75.1605 78.8689C76.3214 77.3272 76.8354 75.5758 77.1019 73.6345C77.787 68.5528 76.3398 63.566 72.9329 59.7214C71.3343 57.9135 69.6026 56.3909 67.6614 54.9636C62.5416 51.1761 58.7153 47.4644 58.0872 40.7458C57.7827 37.4531 58.2589 34.2365 59.7816 31.3816C61.9703 27.2705 66.1575 25.005 70.7825 25.7283C71.2011 25.7853 71.7718 25.7289 72.0765 25.5388C72.952 24.9868 72.5909 23.5015 73.0667 23.1589ZM182.735 55.5534C183.953 55.3632 185.152 55.4386 186.199 56.0857C187.074 56.6376 187.378 57.6848 186.788 58.5603C186.408 59.1312 185.875 59.5692 185.037 59.7595C184.999 59.4169 185.037 59.0166 185.114 58.655C185.285 57.6846 184.543 56.9803 183.667 56.904C181.079 56.6566 181.782 60.7682 181.706 62.405L184.999 62.3093C185.19 62.3094 185.285 62.8426 185.228 63.0329C185.171 63.2233 184.904 63.5656 184.695 63.5466L181.706 63.5085V73.8249C181.707 75.2709 183.266 74.7765 183.229 75.5183C183.229 75.7277 182.963 75.9187 182.715 75.9949C181.269 76.4326 179.86 77.0987 178.49 77.7458C178.375 77.8025 177.996 77.7647 177.881 77.7077C177.177 77.2129 178.889 76.7749 178.909 74.2439V63.7751C178.071 63.1093 177.5 63.718 176.834 63.1853C176.72 63.0901 176.968 62.6335 177.139 62.5954L178.909 62.3093L179.042 59.5876C179.138 57.4371 180.698 55.896 182.735 55.5534ZM145.335 55.0388C145.526 55.0582 145.715 55.458 145.715 55.6863L145.829 59.4167C145.829 59.5881 145.601 59.9109 145.468 59.949C144.802 60.1393 144.821 58.96 143.946 57.8181C143.013 56.6 141.395 56.1622 140.025 56.8474C139.359 57.171 138.94 57.8747 138.864 58.5027C138.502 61.3004 143.889 61.7572 146.077 64.4978C147.067 65.7349 147.219 67.296 146.705 68.8376C146.287 70.0746 145.202 71.1596 143.775 71.7117C141.434 72.6062 138.845 72.2823 136.561 71.1404L136.599 71.1023C135.895 70.7407 135.533 70.3411 135.685 69.5036C135.818 68.7801 136.789 66.2686 137.722 66.8015C138.274 67.1255 137.703 68.8765 139.168 70.0945C140.634 71.3122 142.822 71.0264 143.926 69.5993C144.782 68.4765 144.555 67.0301 143.508 66.1736C140.977 64.118 135.857 63.413 136.314 59.0925C136.676 55.8192 140.444 54.5252 143.546 55.572C144.65 55.9523 144.745 54.9436 145.335 55.0388ZM189.015 63.4519C191.185 61.5867 194.44 61.5485 196.742 63.2234C197.999 64.1369 198.589 65.5454 198.608 66.9919C198.627 68.4384 198.036 69.8845 196.761 70.8552C194.458 72.6252 191.166 72.7014 188.939 70.8552C186.617 68.9519 186.731 65.3932 189.015 63.4519ZM150.797 65.6218C151.692 62.6336 155.327 61.1875 158.239 62.5388C159.894 63.3001 160.809 65.051 160.39 66.8972L153.347 66.9734C153.309 68.1722 153.88 69.6181 155.174 70.1892C156.735 70.8934 158.486 70.361 159.666 69.3142C159.819 69.181 160.123 69.0862 160.256 69.1433C160.427 69.2195 160.58 69.657 160.485 69.8093C158.638 72.7971 154.014 72.9493 151.768 70.4753C150.588 69.1811 150.264 67.4109 150.797 65.6218ZM225.464 55.3816C225.864 55.3815 226.207 55.2675 226.511 55.4577V69.4089C226.511 70.9501 228.337 70.6081 227.957 71.1784C227.881 71.2926 227.653 71.4831 227.5 71.5212L224.741 72.1492C224.455 72.2062 224.15 71.5976 223.979 71.0837H223.96C222 72.4731 219.278 72.7395 217.47 70.8933C215.395 68.7997 215.643 65.2028 217.851 63.2995C219.564 61.815 221.771 61.7195 223.846 62.614V57.8367C223.846 56.2572 222.418 56.5237 222.152 56.029C222.076 55.8958 222.4 55.5144 222.552 55.5144L225.464 55.3816ZM239.167 62.0056C239.281 62.0061 239.433 62.31 239.452 62.4431V64.822C239.452 64.9743 239.205 65.2595 239.072 65.2976C238.938 65.3355 238.616 65.1266 238.577 64.9743C238.159 63.5469 236.712 62.71 235.284 63.1667C234.847 63.3 234.466 63.7753 234.428 64.1941C234.39 64.5176 234.732 65.1268 235.094 65.279L237.283 66.2683L237.264 66.2878C238.767 66.973 240.1 67.8489 239.871 69.657C239.795 70.285 239.281 71.0464 238.596 71.446C236.864 72.4547 234.865 72.3587 233 71.6736C232.677 71.5595 231.934 71.826 231.877 71.198C231.839 70.7597 231.573 68.2113 232.201 68.3054C232.334 68.3244 232.524 68.5145 232.581 68.6667C233.19 70.3036 234.827 71.4072 236.54 70.9695C237.073 70.8362 237.512 70.2651 237.569 69.8464C237.664 69.2376 237.264 68.7236 236.693 68.4382L233.686 66.9724C232.81 66.5537 232.22 65.7356 232.22 64.8982C232.22 63.8895 232.677 63.0327 233.61 62.5759C234.885 61.929 236.294 61.8716 237.683 62.3093C238.596 62.5946 238.444 61.9485 239.167 62.0056ZM205.631 62.3288C207.515 61.758 209.571 62.0054 211.207 63.1472C212.559 64.0988 213.263 65.6594 213.206 67.2771C213.149 68.8378 212.349 70.3796 210.826 71.2742C208.961 72.3779 206.697 72.4737 204.775 71.6365C202.567 70.6658 201.539 68.3627 202.091 66.0408C202.51 64.2516 203.842 62.8618 205.631 62.3288ZM164.976 64.5368C165.147 62.0055 168.955 61.6817 171.01 62.3669C172.247 62.7667 172.97 63.814 172.97 65.1081V69.7331C172.97 70.3039 173.389 70.6657 173.922 70.6277C174.056 70.628 174.36 70.7607 174.398 70.8747C174.436 71.027 174.283 71.4079 174.131 71.446C173.332 71.6935 172.361 72.0359 171.542 72.1882C171.086 72.1499 170.724 71.4071 170.495 70.9695V70.989C168.535 72.5304 164.882 72.6827 164.215 70.5515C163.892 69.5618 164.063 68.5336 164.843 67.8484C166.537 66.3829 168.269 66.4591 170.477 66.1736C170.496 65.6026 170.496 65.0121 170.401 64.4792C170.267 63.7182 169.563 63.262 168.84 63.2429C166.538 63.1478 166.137 65.1836 165.338 65.1081C165.167 65.1081 164.957 64.7272 164.976 64.5368ZM192.631 63.0906C191.642 63.2048 190.785 63.7943 190.423 64.7839C189.852 66.3636 189.871 68.1338 190.652 69.5993C191.204 70.6271 192.175 71.1979 193.279 71.1218C194.268 71.0646 195.182 70.4366 195.563 69.4089C196.191 67.7151 196.057 65.8304 195.086 64.2888C194.534 63.4136 193.545 62.9954 192.631 63.0906ZM207.496 63.071C206.678 63.071 205.783 63.4328 205.365 64.2702C204.489 66.0022 204.489 68.191 205.497 69.8279C206.03 70.7034 207.02 71.1413 207.934 71.0652C208.79 70.989 209.685 70.5319 210.084 69.5613V69.5993C210.808 67.8673 210.674 65.8876 209.742 64.3269C209.247 63.5089 208.372 63.0711 207.496 63.071ZM223.808 64.2888C223.541 63.3373 222.037 63.0706 221.219 63.2038C220.306 63.3562 219.545 64.0034 219.183 64.9548C218.46 66.8771 218.707 70.1514 221.201 70.6843C222.057 70.8746 223.408 70.6838 223.808 69.7702C223.922 67.9241 223.96 66.0398 223.808 64.2888ZM170.457 67.1062C169.049 67.1633 166.461 67.5441 166.632 69.3327C166.689 69.9417 167.222 70.4563 167.85 70.5896C168.801 70.7989 169.791 70.399 170.457 69.695V67.1062ZM92.4232 0.928447C92.8419 0.224353 93.9266 -0.194864 94.6878 0.0905566C95.4872 0.376038 95.4867 1.1759 95.639 1.86106C96.3051 4.56373 97.4473 7.03812 98.8177 9.43626L100.454 12.2908C100.588 12.5382 100.683 12.6908 100.873 12.9382C102.605 15.184 103.043 17.3158 105.384 16.1931L116.576 11.6062C117.813 11.1113 122.171 8.86539 122.781 11.32C123.352 13.642 119.05 15.5651 117.451 16.4597C116.367 17.0688 114.919 17.8104 112.502 19.904C111.474 20.7986 108.087 22.4738 107.992 24.0915C107.896 25.6332 109.343 26.4329 110.314 27.4226L111.513 28.6404L114.215 31.3054C115.795 32.8661 119.202 35.2835 119.792 37.32C120.039 38.1195 118.86 39.622 117.642 38.9753C114.787 37.5098 109.095 34.5222 106.907 32.657C103.595 29.821 100.587 30.5824 99.179 31.7243C98.57 32.2195 97.6758 33.4754 97.3714 34.1413C99.6933 33.8559 101.235 34.8448 102.187 35.53C104.661 37.3191 106.736 41.1833 107.592 43.0105L108.791 45.5798C108.906 45.8272 108.944 46.2845 108.867 46.4939C108.753 46.7602 108.239 47.0071 107.953 47.0261C107.059 47.045 106.678 46.4173 106.241 45.8083L105.518 44.7429L104.947 43.9997C104.928 43.9733 103.307 41.6935 102.758 41.031C102.701 40.9739 101.464 39.3557 100.075 38.4802C99.1421 37.8903 96.6301 39.7172 96.1536 40.0603C93.4129 42.0207 91.3949 44.6092 89.72 47.4831C89.0348 48.6632 88.331 49.7295 88.5784 51.157C88.8831 52.9649 89.9864 54.3736 91.2044 55.6677C91.9466 56.467 92.5942 57.3038 93.6028 57.9509V57.9704C96.2675 59.7024 99.3892 61.1486 102.53 61.0534C103.538 61.0152 104.052 60.1402 104.261 59.2839C105.099 55.896 101.178 55.6865 100.378 55.2107C99.9216 54.9441 99.7505 54.1254 100.683 53.7068C102.091 53.0787 103.862 53.9159 105.384 54.3347C105.384 54.3347 112.636 56.4856 113.531 56.6189C114.425 56.7522 115.339 57.4186 114.654 58.0085C112.179 60.1022 110.771 63.0332 110.809 65.3933C110.809 66.2687 109.724 66.8013 108.982 66.6492C106.279 66.1162 106.222 64.6128 102.53 64.1941C99.1608 63.8134 95.9435 63.1475 92.803 61.8533C91.4709 61.3013 90.272 60.6351 88.9778 59.988C85.2664 58.1418 82.6779 55.8574 81.4788 51.7273C80.9269 49.824 81.0222 47.7306 81.8216 45.8845L82.3548 44.6472C82.8687 43.4672 83.6681 41.8489 84.1439 41.1257C85.9331 38.4612 89.7777 35.3968 90.7103 34.6736L91.6614 33.779C93.1648 32.3515 92.4037 29.1729 90.8431 28.031C87.6265 25.6711 81.5168 26.6992 77.7864 26.3376L77.2152 23.5398C77.5958 23.3685 80.1086 22.6447 80.7747 22.5115C83.3442 21.9786 86.9417 21.6363 89.5491 21.3699C93.8501 20.913 93.1839 17.944 93.1839 12.0632C93.1839 10.6928 92.8415 8.14192 92.5941 6.44798L92.2327 3.8972C92.0995 2.88857 91.8522 1.87998 92.4232 0.928447ZM156.868 63.4333C155.955 62.8624 154.68 63.0525 154.014 63.947C153.576 64.518 153.385 65.2032 153.309 65.9265H157.801V65.907C157.877 64.7272 157.553 64.0613 156.868 63.4333ZM242.898 27.5749C243.05 27.5749 243.221 28.0506 243.126 28.2029C242.764 28.8305 240.881 28.7547 240.88 29.6677V42.9529C240.899 43.6571 241.185 44.3049 241.985 44.362C248.113 44.8949 247.961 41.7732 249.084 41.8113L249.065 41.8298C250.188 41.8679 248.36 45.5607 248.018 46.3601C247.637 47.2164 246.799 46.1696 244.801 46.0935C241.718 45.9793 238.425 46.075 235.399 46.1511C235.227 46.1506 234.962 45.7696 235.057 45.6365C235.685 44.7616 237.303 45.3889 237.284 43.2575L237.169 29.7058C237.169 28.6784 234.905 28.7351 234.828 28.0691C234.791 27.8028 235.113 27.5175 235.437 27.5173L242.898 27.5749ZM136.122 25.614C136.351 25.614 136.618 25.9379 136.656 26.1853C136.941 27.9361 137.169 29.5346 137.284 31.3044C137.284 31.4946 136.904 31.8944 136.713 31.8572C135.876 31.743 136.009 29.6485 134.048 28.3542C132.887 27.5931 131.536 27.308 130.261 27.8786C129.576 28.1831 129.042 28.8111 128.89 29.363C128.452 30.9427 129.537 32.066 130.946 32.8083L134.961 34.9402C136.027 35.5112 137.112 36.2727 137.835 37.2624C139.929 40.1363 138.864 44.1518 135.59 45.6365C133.04 46.8165 129.956 46.683 127.387 45.4079V45.4275C125.37 44.4188 124.57 42.0778 125.673 40.2507C126.168 39.4324 127.177 39.2412 128.072 39.4695C129.29 39.774 130.032 41.2594 129.518 41.9636C129.308 42.2485 128.871 42.1533 128.129 42.3054C127.977 42.3244 128.244 42.8006 128.32 42.9148C129.633 44.856 132.373 45.313 134.315 43.9617C135.095 43.4288 135.513 42.5534 135.533 41.697C135.647 38.3091 130.356 37.5473 127.482 35.073C126.131 33.912 125.464 32.2183 125.749 30.3913C125.978 28.8879 127.044 27.4223 128.585 26.699C130.469 25.8044 132.487 25.8806 134.409 26.6228C135.456 27.0224 135.457 25.5765 136.122 25.614ZM210.485 26.2224C210.675 26.1843 211.074 26.451 211.151 26.6413C211.874 28.4875 212.426 30.1815 212.864 32.1228C212.921 32.3891 212.731 32.8271 212.522 32.8845C212.255 32.9606 211.856 32.8267 211.742 32.5222C210.333 29.1345 206.183 27.6317 203.024 29.573C201.939 30.2391 201.197 31.3805 200.759 32.5984C199.712 35.5104 199.884 38.8224 201.292 41.5251C202.548 43.9423 205.213 45.1414 207.744 44.3611C209.267 43.8852 210.047 42.5335 209.933 41.03C209.723 38.0613 206.945 39.0695 206.926 38.0798C206.927 37.8325 207.25 37.5476 207.554 37.5476V37.5661H214.939C215.148 37.5664 215.357 37.9471 215.3 38.0993C215.053 38.9367 213.283 38.366 213.283 40.1931V46.0359C212.559 46.2262 211.703 46.2457 210.998 45.9792L210.161 44.8747C206.165 47.6345 199.731 46.6068 197.371 42.115C195.582 38.7272 195.792 34.5405 197.847 31.324C200.112 27.7648 204.337 26.3562 208.334 27.4031C209.99 27.8406 209.914 26.3178 210.485 26.2224ZM163.607 26.28C164.045 26.0328 164.767 26.1661 164.957 26.6609L171.676 43.6765C172.361 45.4082 173.656 44.8186 173.77 45.6179C173.788 45.7893 173.504 46.1119 173.332 46.112C171.105 46.093 169.068 46.0745 166.861 46.2077C166.499 46.2267 166.176 46.1502 166.138 45.7507C166.043 44.9894 168.174 45.1413 167.908 44.0564C167.641 43.0478 167.222 42.1343 166.746 41.0876H160.789V41.0681L159.895 43.5427C159.8 43.7901 159.895 44.4378 160.085 44.6091C160.751 45.275 161.684 44.9899 161.76 45.6179C161.798 45.8652 161.475 46.112 161.208 46.112H155.955C155.765 46.112 155.442 46.0361 155.366 45.9031C154.928 45.1227 156.983 45.4653 157.783 43.4099L162.578 31.1335C162.788 30.6197 162.236 29.8967 161.951 29.6111C161.075 28.7165 160.066 29.8771 159.666 28.8874C159.59 28.6971 159.819 28.3732 160.067 28.24L163.607 26.28ZM229.46 26.9079C229.746 26.8127 230.431 26.4517 230.583 26.8513C231.078 28.0693 231.497 29.3443 231.897 30.6003C231.954 30.7716 231.82 31.1526 231.725 31.2859C231.611 31.438 231.078 31.4186 230.964 31.2663C229.308 28.5637 226.795 28.7738 223.921 29.0593V35.4538L227.214 35.4158C227.956 35.4158 228.109 34.1603 228.622 34.0837C229.917 33.8934 230.678 38.7083 229.479 38.7654C228.28 38.8221 229.935 36.5577 223.921 37.1286V43.3142C223.94 43.8471 224.474 44.3997 224.988 44.4568C230.868 45.1608 231.04 41.6977 232.124 42.0202C233.133 42.3248 231.42 45.3893 231.077 46.1697H218.821C218.573 46.1696 218.249 46.0366 218.173 45.8464C217.793 44.9328 220.324 45.5795 220.325 43.4099V30.5622C220.324 27.7076 216.994 29.0203 218.307 27.3454C220.857 27.3455 227.31 27.6883 229.46 26.9079ZM185.114 27.2898C187.245 27.0994 189.225 27.5751 190.938 28.7742C192.803 30.2587 193.203 32.7714 192.175 34.9411C191.338 36.6919 189.719 37.7193 187.797 38.3093C189.149 40.3078 190.462 42.1355 191.89 43.9626C192.404 44.6286 193.089 45.0087 193.869 45.2751C194.003 45.4273 194.154 45.6561 194.155 45.8083C194.155 45.9605 193.793 46.151 193.641 46.1511L189.777 46.113C189.472 46.1126 188.958 45.6943 188.768 45.447L184.181 39.4138C183.8 38.919 183.097 38.6904 182.526 39.0329V43.5622C182.507 45.4273 184.391 44.7998 184.581 45.656C184.619 45.8273 184.277 46.1325 184.086 46.1325H177.538C177.291 46.1324 176.968 46.0366 176.91 45.8464C176.606 44.8761 178.871 45.5228 178.852 43.3913V30.4675C178.833 28.3173 176.91 28.7742 176.568 28.07C176.492 27.9178 176.721 27.4421 176.93 27.4421C179.632 27.5563 182.411 27.5562 185.114 27.2898ZM141.851 26.2038C142.422 25.9945 142.518 26.927 143.355 27.1365C146.724 27.9929 151.463 28.9065 154.528 27.0222L155.136 26.6413C155.269 26.5462 155.726 26.908 155.689 27.0984L154.927 30.2009C154.889 30.3341 154.718 30.5437 154.622 30.5818C153.956 30.8099 153.823 29.7059 151.654 29.782L150.017 29.8396V43.238L149.997 43.2956C149.997 45.446 151.881 44.7424 152.262 45.5222C152.357 45.7315 152.091 46.0932 151.768 46.0935H144.497C144.288 46.0935 144.078 45.5983 144.193 45.4841C144.745 44.9325 146.343 44.9893 146.343 43.7908V30.2956C146.342 28.9447 142.537 28.7927 141.281 31.1521C141.147 31.3995 140.652 31.4567 140.481 31.3806C140.31 31.3041 140.176 30.9048 140.252 30.6765L141.49 26.6228C141.528 26.4897 141.718 26.2423 141.851 26.2038ZM161.323 39.3552L166.138 39.2986L163.645 33.1511L161.323 39.3552ZM188.14 30.5437C186.998 28.774 184.334 28.565 182.526 29.1169V37.3386C183.801 37.4337 185 37.3764 186.16 37.0339C188.958 36.1965 189.473 32.6759 188.121 30.5632L188.14 30.5437Z" fill="var(--fill-0, white)"/>
</g>
</svg>
