<svg width="191" height="168" viewBox="0 0 191 168" fill="none" xmlns="http://www.w3.org/2000/svg">
<path d="M57.0198 0L32.952 15.9226L32.6045 15.381L33.1258 17.7424L32.6045 17.2874L30.8233 17.7424L30.454 17.2874L31.4098 17.1141L31.7573 16.6592L31.5835 15.966L25.849 16.5509L24.8063 15.6627L22.5907 15.5544L22.2649 15.0128L20.7226 15.381L20.9833 18.5656L21.6567 18.5439L21.9173 19.1288L21.6567 19.7787L21.0484 19.5838L21.1788 19.3021L20.6792 19.3888L20.1144 19.887L18.9849 39.1458L18.507 39.6224H18.4853L9.7531 46.0131L7.01615 45.7315L6.58171 45.1899L5.21324 45.7315L3.19311 48.3961L2.65006 48.5694V49.1977L0 52.0789L2.30251 57.4731L1.54225 57.5381L1.1947 64.1671L11.556 76.0603L11.1433 76.6669L14.0323 81.2162L15.3791 81.6928L15.8787 82.7977L16.5955 83.0576V87.9102L17.0299 88.3435L16.943 89.0801L19.8537 90.2716L21.6567 93.0661L20.8747 104.201L20.3751 104.461L20.4402 105.349L19.5931 106.411L19.8537 107.212L21.0484 108.036L23.4378 115.466L26.6961 117.806L27.4564 117.762L31.9094 121.64L32.17 122.702L34.6246 124.153L35.6672 126.06L35.4283 126.818L36.1886 128.789L35.6021 129.179L35.3414 129.699L73.0722 148.763L74.0931 151.471L79.3281 153.247L79.6105 153.789H80.6097L80.8269 153.247L81.0224 153.854L80.7835 154.439L81.5437 154.569L82.0216 154.98L82.2388 155.89L102.418 161.804L102.44 162.476L102.766 163.017L114.061 162.303L114.756 163.472L118.08 164.945L118.34 165.682L121.925 167.328L122.511 166.96H124.075L125.009 166.05L131.004 166.289L131.504 167.502L132.894 168L137.76 165.877L139.889 166.137L142.191 164.685L142.3 163.667L164.89 160.829L165.651 159.746L174.014 158.923L178.076 155.435L179.031 155.262L182.615 149.023L181.399 119.777L181.92 119.301L182.767 114.015L183.289 113.538L183.463 112.628L183.875 112.173L184.136 110.245L187.112 107.581L187.481 100.973L188.85 101.212L191 100.28L190.131 94.4093L190.826 93.1311L190.652 92.1563L189.805 91.9396L188.871 90.0333L188.328 89.665L188.002 86.7188L182.181 84.1191L182.029 83.4259L177.228 80.328L175.925 80.848L174.491 80.5014L158.721 59.6395L158.634 57.4514L159.503 56.26L159.438 55.4367H158.982L158.808 55.2418L158.309 55.2634L154.703 49.8909L151.531 48.8511L150.771 46.0131L150.25 45.6449L144.276 22.2267L127.029 9.96518L124.509 10.1602L114.322 5.30754L113.888 5.76248L104.982 3.74778L102.397 5.11257L57.0198 0Z" fill="#009AA9"/>
</svg>
